<svg width="53" height="71" viewBox="0 0 53 71" fill="none" xmlns="http://www.w3.org/2000/svg">
    <path
        d="M35.6327 44.3321C38.4185 50.8524 37.0023 58.2564 34.9351 64.7954L31.447 63.4002C31.5912 62.6212 31.9469 61.6003 32.0283 60.8423C32.2004 59.2447 32.5213 56.2543 31.7958 56.7728C33.7166 52.5616 35.1327 47.1807 32.3771 42.995C33.7677 47.9224 32.2678 53.7359 30.7494 58.5169H30.5168C30.7726 57.4542 31.6563 52.0012 31.7958 50.7269C32.1446 47.5504 32.2213 45.9342 31.5633 42.7624C31.3935 41.9462 30.6494 40.758 31.0982 40.7277C33.4282 41.6021 33.977 42.795 35.6327 44.3321Z"
        fill="#028578" />
    <path
        d="M24.4709 40.7277C27.8775 43.2903 25.2661 42.0532 25.0522 42.6462C25.7475 45.2018 27.9008 54.7056 27.9589 56.3659C28.0264 58.2797 26.9102 58.2471 26.0986 59.7958C25.2033 59.754 24.7708 60.1888 23.7732 59.6796C23.2989 59.4377 22.6198 58.475 22.1455 58.1099C22.6408 53.0057 22.6222 47.8597 23.1919 42.7624C22.9059 41.9044 21.1084 42.9554 24.0058 40.4952C24.0267 40.5115 24.1011 40.451 24.4709 40.7277Z"
        fill="#E8403B" />
    <path
        d="M19.4713 36.8908C19.4015 36.4769 19.7038 36.2793 19.5294 36.077C19.2411 35.7398 15.2972 34.9515 12.5533 30.8449C11.0511 31.2053 9.53959 30.696 8.542 29.5659C10.2744 30.5867 10.9348 30.9286 13.0184 30.6123C12.9277 26.5662 13.1556 29.7264 14.1229 31.1355C14.1997 31.2472 15.8344 32.8842 16.0414 33.054C18.8853 35.3887 22.7896 36.2769 26.3893 36.3095C26.9776 38.0512 25.2429 39.2255 24.1802 40.3789C22.978 39.1348 19.9015 38.1861 19.4713 36.8908Z"
        fill="#F69862" />
    <path
        d="M20.5177 54.4475C18.9085 49.9665 15.9041 45.125 16.2157 40.3789C16.5692 40.3231 17.811 39.4255 18.3086 39.2162C18.3528 39.7766 18.7062 41.1975 18.7737 41.716C18.8272 42.1276 18.6155 42.3415 18.6574 42.6462C18.6713 42.7392 18.876 42.6694 18.8899 42.7624C18.9388 43.1112 18.9713 44.3948 19.0062 44.6227C19.0202 44.7157 19.2248 44.646 19.2387 44.739C19.369 45.5645 19.2294 45.8436 19.2387 45.9017C19.2527 45.9947 19.4573 45.9249 19.4713 46.018C19.6131 46.9318 19.6736 48.2736 19.7038 48.4596C19.7201 48.5526 19.9201 48.4829 19.9364 48.5759C19.9759 48.82 19.7806 48.9107 19.8201 49.1572C19.8364 49.2502 20.0363 49.1805 20.0526 49.2735C20.1712 50.0037 19.9503 50.7617 20.2852 50.785C20.1084 52.0988 20.9572 53.808 20.5177 54.4475Z"
        fill="#68C9CD" />
    <path
        d="M32.0283 60.8423C31.2121 61.2585 30.4285 61.7538 29.5867 62.1212C28.903 62.4189 27.8799 62.777 27.1451 62.9351C27.252 62.6281 27.0265 62.4933 27.0288 62.47C27.0427 62.3561 27.1358 62.3468 27.1451 62.2375C27.1985 61.5468 27.1055 60.8376 27.1451 60.1446C27.8357 60.4004 28.824 61.005 29.2379 61.0748C29.9378 61.1934 30.368 59.1378 30.5168 58.5169H30.7494C30.2029 60.2353 31.333 57.7867 31.7958 56.7728C32.5213 56.2543 32.2004 59.2447 32.0283 60.8423Z"
        fill="#014C47" />
    <path
        d="M34.9351 64.7954C34.8002 65.2256 33.293 69.4395 33 69.5C32.3768 69.193 32.4539 66.5604 32.0283 66.772C31.8353 65.6465 31.4447 64.5582 31.447 63.4002L34.9351 64.7954Z"
        fill="#F1AB61" />
    <path
        d="M14.0066 40.1464C14.1787 40.437 14.3857 40.2533 14.8205 40.2626C13.3997 40.9044 11.9464 41.9997 10.9837 43.2275C10.6558 43.6461 9.3024 45.9482 9.12335 46.3668C8.90244 46.89 8.8443 48.1201 8.42573 48.1689C9.34193 44.0135 10.2953 42.0555 14.0066 40.1464Z"
        fill="#014C47" />
    <path
        d="M18.3086 39.2162C17.811 39.4255 16.5692 40.3231 16.2157 40.3789C16.146 40.3905 15.7204 40.2836 14.8205 40.2626C14.3857 40.2533 14.1787 40.437 14.0066 40.1464C15.4623 39.3976 17.0459 39.0093 18.2505 37.821C18.6783 37.8815 18.3039 39.1465 18.3086 39.2162Z"
        fill="#142A2A" />
    <path
        d="M32.3772 40.4952C34.4746 41.6997 34.6932 42.1323 35.6327 44.3321C33.977 42.795 33.4282 41.6021 31.0982 40.7277C31.0935 40.6882 31.1028 40.6487 31.0982 40.6115C31.068 40.3743 30.768 40.3859 30.7494 40.3208C30.4913 39.465 32.0842 40.8696 32.3772 40.4952Z"
        fill="#123A36" />
    <path
        d="M32.3772 40.4952C32.0842 40.8696 30.4913 39.465 30.7494 40.3208C30.768 40.3859 31.068 40.3743 31.0982 40.6115L28.3078 39.6813C28.2729 39.4953 27.7009 38.1489 27.9009 38.0535C29.138 39.1953 30.9936 39.6999 32.3772 40.4952Z"
        fill="#142A2A" />
    <path
        d="M17.3784 57.3542L16.4483 61.4817L18.0762 62.47C17.4157 62.2421 16.0531 61.3631 15.9252 61.4236L14.7043 65.3767C14.5113 64.8954 14.1438 64.5233 14.0066 63.9815C13.6485 62.563 13.7602 60.3586 13.6578 58.8657L15.1693 54.68C15.4647 55.1614 16.9855 56.9914 17.3784 57.3542Z"
        fill="#014C47" />
    <path
        d="M21.7967 60.1446C21.9269 61.005 21.72 62.3747 21.6805 63.2839C20.5713 63.156 19.1296 62.8351 18.0762 62.47L16.4483 61.4817L17.3784 57.3542C18.4249 58.3215 20.4456 59.647 21.7967 60.1446Z"
        fill="#014C47" />
    <path
        d="M14.9369 54.2149C15.0183 54.3661 15.081 54.5335 15.1693 54.68L13.6578 58.8657C13.4323 55.545 13.1626 52.1872 13.3091 48.8666C13.7091 50.7408 14.03 52.5011 14.9369 54.2149Z"
        fill="#07221F" />
    <path
        d="M21.913 59.3308C22.0921 59.654 22.1245 59.7796 22.1455 59.7958L21.7968 59.9121C21.7386 59.6377 19.6993 56.2148 19.1226 54.9707C16.3437 48.9689 16.0112 46.3644 19.1226 54.3893C20.0713 55.7846 20.755 58.3611 21.913 59.3308Z"
        fill="#35BDB2" />
    <path
        d="M14.9369 54.2149C14.03 52.5011 13.7091 50.7408 13.3091 48.8666C13.0184 47.5062 13.4789 46.2458 12.0302 46.1342C13.7951 44.8925 12.8161 45.6273 13.6579 49.506C14.0021 51.085 14.6602 52.6174 14.9369 54.2149Z"
        fill="#E3F3F4" />
    <path
        d="M16.1576 46.89C16.2832 46.8388 16.4181 47.1086 16.4483 47.1807C17.2296 49.0107 16.532 49.4363 16.1576 46.89Z"
        fill="#109487" />
    <path
        d="M28.8893 43.5182C29.5171 44.0135 30.7844 46.4226 30.9821 47.0644C31.5169 48.8061 31.1819 50.6129 31.7958 50.7269C31.6563 52.0012 30.7726 57.4542 30.5168 58.5169C30.368 59.1378 29.9378 61.1934 29.2379 61.0748C28.0915 55.859 28.2754 50.5013 28.5405 45.2041C28.5451 45.1157 28.7683 45.1785 28.773 45.0878C28.7869 44.8483 28.3614 43.4926 28.8893 43.5182Z"
        fill="#68C9CD" />
    <path
        d="M31.0982 40.6115C31.1028 40.6487 31.0935 40.6882 31.0982 40.7277C30.6494 40.758 31.3935 41.9462 31.5633 42.7624C32.2213 45.9342 32.1446 47.5504 31.7958 50.7269C31.1819 50.6129 31.5169 48.8061 30.9821 47.0644C30.7844 46.4226 29.5171 44.0135 28.8893 43.5182C28.3963 42.7462 28.5868 41.1974 28.3078 39.6813L31.0982 40.6115Z"
        fill="#68C9CD" />
    <path
        d="M31.7958 56.7728C31.333 57.7867 30.2029 60.2353 30.7494 58.5169C32.2678 53.7359 33.7677 47.9224 32.3771 42.995C35.1327 47.1807 33.7166 52.5616 31.7958 56.7728Z"
        fill="#68C9CD" />
    <path
        d="M26.0986 59.7958C27.2799 59.8516 27.0404 60.1051 27.1451 60.1446C27.1055 60.8376 27.1985 61.5468 27.1451 62.2375C25.6405 62.3584 23.1499 61.9701 22.6104 62.47C22.5034 62.4793 22.4825 62.3398 22.3778 62.3538V59.9121C22.4476 59.9261 23.5802 59.7517 23.7732 59.6796C24.7708 60.1888 25.2033 59.754 26.0986 59.7958Z"
        fill="#AA8045" />
    <path
        d="M22.1455 59.7958C22.1455 59.7958 22.3662 59.9098 22.3778 59.9121L22.3781 63.4002C21.827 63.3583 21.7154 63.2886 21.6805 63.2839C21.72 62.3747 21.9269 61.005 21.7967 60.1446C21.785 60.0702 21.8107 59.9819 21.7968 59.9121L22.1455 59.7958Z"
        fill="#F5C673" />
    <path
        d="M22.6104 62.47C24.0777 62.3421 25.5638 62.2282 27.0288 62.47C27.0265 62.4933 27.252 62.6281 27.1451 62.9351C27.1265 62.9886 27.1963 63.1397 26.8544 63.4002C25.3941 63.3188 23.8222 63.5118 22.3781 63.4002L22.3778 62.3538C22.4825 62.3398 22.5034 62.4793 22.6104 62.47Z"
        fill="#C6964C" />
    <path
        d="M27.1451 62.2375C27.1358 62.3468 27.0427 62.3561 27.0288 62.47C25.5638 62.2282 24.0777 62.3421 22.6104 62.47C23.1499 61.9701 25.6405 62.3584 27.1451 62.2375Z"
        fill="#8B6229" />
    <path
        d="M12.4953 26.6592C12.5348 26.7382 12.5952 26.8057 12.6115 26.8917C12.0511 26.9452 11.9139 25.5337 11.3326 25.8453C11.0326 25.5058 10.7791 25.5151 10.7512 25.4965C10.1699 25.1128 10.0676 24.9105 9.23972 24.9151C8.87231 24.9175 8.06075 25.1407 7.84449 25.3802C7.78171 25.1919 7.76775 24.9849 7.72822 24.7989C9.61411 23.3153 11.586 24.85 12.4953 26.6592Z"
        fill="#FED5A0" />
    <path
        d="M10.7512 25.4965C10.6326 26.2406 9.77475 25.7244 9.23991 25.8453C9.70732 25.1082 9.30018 25.2709 9.23972 24.9151C10.0676 24.9105 10.1699 25.1128 10.7512 25.4965Z"
        fill="#F69862" />
    <path
        d="M35.9816 27.9381C35.9072 32.7214 31.1146 35.8235 26.7382 36.1932C27.1382 38.3791 25.3778 38.9814 24.4709 40.7277C24.1011 40.451 24.0267 40.5115 24.0058 40.4952C22.9756 39.758 19.5667 37.7838 19.4714 37.5303C19.4272 37.4117 19.5062 37.0955 19.4713 36.8908C19.9015 38.1861 22.978 39.1348 24.1802 40.3789C25.2429 39.2255 26.9776 38.0512 26.3893 36.3095C22.7896 36.2769 18.8853 35.3887 16.0414 33.054C15.8344 32.8842 14.1997 31.2472 14.1229 31.1355C13.1556 29.7264 12.9277 26.5662 13.0184 30.6123C10.9348 30.9286 10.2744 30.5867 8.542 29.5659C7.71649 28.6288 6.92364 26.3964 7.84449 25.3802C8.06075 25.1407 8.87231 24.9175 9.23972 24.9151C9.30018 25.2709 9.70732 25.1082 9.23991 25.8453C8.45394 26.022 8.28401 27.2056 8.48399 27.8219C9.6397 26.3197 11.1489 26.6987 12.1465 28.1125C12.2209 28.2172 12.0232 28.3335 12.0302 28.3451C13.1394 30.1147 12.0581 26.6638 11.3326 25.8453C11.9139 25.5337 12.0511 26.9452 12.6115 26.8917C12.9254 27.1405 12.6092 26.5592 12.6115 26.5429C12.8766 24.8593 12.7232 23.5362 14.9369 23.6362C14.9509 24.3966 15.9089 26.4708 16.4484 27.0661C17.3321 28.0428 18.2366 28.2497 19.4714 28.4032C19.4714 28.4846 19.4412 28.6055 19.5295 28.6358C19.8435 28.745 25.3732 28.852 25.6337 27.6475L25.7499 23.985C25.7895 23.7083 25.6267 23.3827 25.9243 23.1711C29.817 23.2292 27.4661 24.1547 29.0055 26.7173C30.2867 28.852 34.8026 28.5265 35.9816 27.9381Z"
        fill="#FAAC74" />
    <path
        d="M23.4829 29.6822C25.4153 30.2682 27.5244 30.5286 29.4126 29.6822C29.4242 33.7097 23.6527 33.6167 23.4829 29.6822Z"
        fill="#FBFDFD" />
    <path
        d="M11.3326 25.8453C12.0581 26.6638 13.1394 30.1147 12.0302 28.3451C12.0232 28.3335 12.2209 28.2172 12.1465 28.1125C11.1489 26.6987 9.6397 26.3197 8.48399 27.8219C8.28401 27.2056 8.45394 26.022 9.23991 25.8453C9.77475 25.7244 10.6326 26.2406 10.7512 25.4965C10.7791 25.5151 11.0326 25.5058 11.3326 25.8453Z"
        fill="#F69862" />
    <path
        d="M19.4714 28.4032C25.5825 29.1659 25.3755 26.5778 25.7499 23.985L25.6337 27.6475C25.3732 28.852 19.8435 28.745 19.5295 28.6358C19.4412 28.6055 19.4714 28.4846 19.4714 28.4032Z"
        fill="#FED5A0" />
    <path
        d="M12.6115 26.8917C12.5952 26.8057 12.5348 26.7382 12.4953 26.6592L12.6115 26.5429C12.6092 26.5592 12.9254 27.1405 12.6115 26.8917Z"
        fill="#814621" />
    <path
        d="M15.402 22.241C16.1229 22.5944 16.9693 22.5921 15.5183 22.706C15.4043 22.7153 15.2857 22.7014 15.1695 22.706C12.9069 22.7944 11.9767 22.334 14.4718 22.1247C14.5184 22.12 14.4974 22.313 15.402 22.241Z"
        fill="#63A0B0" />
    <path
        d="M35.9816 27.9381C34.8026 28.5265 30.2867 28.852 29.0055 26.7173C27.4661 24.1547 29.817 23.2292 25.9243 23.1711C25.6267 23.3827 25.7895 23.7083 25.7499 23.985C25.3755 26.5778 25.5825 29.1659 19.4714 28.4032C18.2366 28.2497 17.3321 28.0428 16.4484 27.0661C15.9089 26.4708 14.9509 24.3966 14.9369 23.6362C14.916 22.613 15.9345 23.785 15.5183 22.706C16.9693 22.5921 16.1229 22.5944 15.402 22.241C19.6737 21.8968 23.8523 21.7805 28.1333 22.241C30.5796 21.1829 33.3259 21.4201 35.9234 21.6596C36.2931 21.3736 35.9838 21.1876 35.9815 21.0783C38.4673 22.6572 37.6069 21.048 37.6093 20.9039C37.6186 19.9226 37.4883 14.616 37.2605 14.1603C37.1581 13.958 36.6605 14.1928 36.6791 13.8115C36.7093 13.2022 40.1672 7.63525 35.1095 4.91688C30.2843 2.32408 22.0153 2.20084 16.8553 3.98673C16.3623 3.83093 17.3575 2.3171 17.0878 1.89389C14.3159 3.39608 12.2254 4.7448 10.5186 7.4748C8.79316 10.2373 8.15833 13.1441 7.37933 16.2531C7.65605 17.6576 9.26289 22.7758 9.23963 23.5781C9.22568 24.071 7.71884 24.5942 7.61187 24.2175C7.08168 21.7201 6.53289 18.9203 6.56545 16.3694C3.96567 12.5209 4.40052 6.25165 9.41404 4.68434C8.13508 9.91412 9.53728 6.31676 11.972 4.103C13.5881 2.63103 16.2507 1.0614 18.3667 0.498658C21.0456 -0.215234 22.299 -0.278019 19.4132 1.08C16.7157 3.68443 18.111 2.44965 20.4596 2.12642C27.7497 1.12186 44.5784 2.78451 37.493 14.044C37.8279 15.6276 37.7604 20.7992 37.9581 21.4852C38.0255 21.7177 39.73 22.4921 37.7255 25.9034C37.4581 26.3592 36.4164 27.7219 35.9816 27.9381Z"
        fill="#0D0E0E" />
    <path
        d="M36.3302 22.9386C36.0884 24.5942 35.5675 26.1453 34.3536 27.3568C31.112 27.9963 29.3122 26.7057 29.1215 23.3455C29.2494 23.0432 30.533 22.8642 30.8656 22.8223H30.9818C29.2029 24.8756 33.6095 26.1802 33.4816 22.706C34.4048 22.8316 35.4233 22.7781 36.3302 22.9386Z"
        fill="#FAAC74" />
    <path
        d="M34.3536 27.3568C35.5675 26.1453 36.0884 24.5942 36.3302 22.9386C36.579 22.9828 37.2603 22.9874 37.3766 23.2292C37.2627 25.457 36.5883 26.9173 34.3536 27.3568Z"
        fill="#FBFDFD" />
    <path
        d="M31.5051 23.0548C31.5725 23.0293 32.7422 23.5781 32.2027 23.985C31.4469 24.557 31.0516 23.2223 31.5051 23.0548Z"
        fill="#FBFDFD" />
    <path
        d="M18.1341 23.0548C19.0666 23.1153 17.9574 23.878 18.076 24.5082C18.2341 25.3523 20.3176 25.2523 20.8083 24.7989C21.8059 23.8757 19.6247 22.6619 24.6452 23.2874C25.6916 27.1266 22.3942 28.0405 19.2968 27.5893C17.1993 27.2847 16.4436 25.3151 15.7506 23.5781C15.8459 23.3246 18.0109 23.0455 18.1341 23.0548Z"
        fill="#FCC191" />
    <path
        d="M20.4593 23.1711C20.6802 23.3269 20.7988 24.3454 20.5756 24.3338C20.3338 24.3222 20.3593 23.3525 20.4593 23.1711Z"
        fill="#FBFDFD" />
    <path
        d="M12.9603 22.706L15.1695 22.706C15.2857 22.7014 15.4043 22.7153 15.5183 22.706C15.9345 23.785 14.916 22.613 14.9369 23.6362C12.7232 23.5362 12.8766 24.8593 12.6115 26.5429L12.4953 26.6592C11.586 24.85 9.61411 23.3153 7.72822 24.7989C7.68637 24.6059 7.6514 24.4082 7.61187 24.2175C7.71884 24.5942 9.22568 24.071 9.23963 23.5781C9.26289 22.7758 7.65605 17.6576 7.37933 16.2531C8.15833 13.1441 8.79316 10.2373 10.5186 7.4748C11.1302 7.59339 10.4257 9.22116 10.4024 9.74204C10.3001 12.0558 10.7675 16.8438 11.6814 19.0436C11.6372 20.1876 12.1465 21.2387 12.4953 22.2991C12.5883 22.5805 12.1813 22.5898 12.7859 23.2874C12.8301 22.7153 12.9534 22.7363 12.9603 22.706Z"
        fill="#0D0E0E" />
    <path
        d="M35.9815 21.0783C35.9675 20.6341 35.8165 20.2272 35.7491 19.7993C35.8747 17.939 35.0259 16.0392 34.8189 14.1603C29.4799 11.1466 21.5992 11.8628 16.4484 14.9741C16.0508 15.8694 14.3905 21.9201 14.0649 22.1247C14.0207 22.1526 13.3115 21.9294 13.0185 22.1247C12.7232 22.32 13.0324 22.3898 12.9603 22.706C12.9534 22.7363 12.8301 22.7153 12.7859 23.2874C12.1813 22.5898 12.5883 22.5805 12.4953 22.2991C12.1465 21.2387 11.6372 20.1876 11.6814 19.0436C10.7675 16.8438 10.3001 12.0558 10.4024 9.74204C10.4257 9.22116 11.1302 7.59339 10.5186 7.4748C12.2254 4.7448 14.3159 3.39608 17.0878 1.89389C17.3575 2.3171 16.3623 3.83093 16.8553 3.98673C22.0153 2.20084 30.2843 2.32408 35.1095 4.91688C40.1672 7.63525 36.7093 13.2022 36.6791 13.8115C36.6605 14.1928 37.1581 13.958 37.2605 14.1603C37.4883 14.616 37.6186 19.9226 37.6093 20.9039C37.6093 21.048 38.4673 22.6572 35.9815 21.0783Z"
        fill="#1D1D20" />
    <path
        d="M35.7491 19.7993C35.4863 18.1413 35.0747 16.5159 34.8189 14.8579L34.5282 14.4509C28.7101 13.265 22.5386 13.2929 16.7972 14.8579L14.4718 22.1247C11.9767 22.334 12.9069 22.7944 15.1695 22.706L12.9603 22.706C13.0324 22.3898 12.7232 22.32 13.0185 22.1247C13.3115 21.9294 14.0207 22.1526 14.0649 22.1247C14.3905 21.9201 16.0508 15.8694 16.4484 14.9741C21.5992 11.8628 29.4799 11.1466 34.8189 14.1603C35.0259 16.0392 35.8747 17.939 35.7491 19.7993Z"
        fill="#0D0E0E" />
    <path
        d="M35.7491 19.7993C35.8165 20.2272 35.9675 20.6341 35.9815 21.0783C35.9838 21.1876 36.2931 21.3736 35.9234 21.6596C33.3259 21.4201 30.5796 21.1829 28.1333 22.241C23.8523 21.7805 19.6737 21.8968 15.402 22.241C14.4974 22.313 14.5184 22.12 14.4718 22.1247L16.7972 14.8579C22.5386 13.2929 28.7101 13.265 34.5282 14.4509L34.8189 14.8579C35.0747 16.5159 35.4863 18.1413 35.7491 19.7993Z"
        fill="#FAAC74" />
    <path
        d="M19.9947 19.4505C23.2363 19.3319 23.706 20.9899 22.9015 21.3108C22.6271 21.4201 17.2461 21.3038 16.9718 21.1945C15.9253 20.7783 18.26 19.5156 19.9947 19.4505Z"
        fill="#0D0E0E" />
    <path
        d="M31.7379 19.5668C33.6331 19.3133 35.6911 20.0156 35.2842 20.9039C35.1609 21.1713 30.1497 20.8946 29.4126 21.1945C28.7033 20.5016 31.2426 19.6319 31.7379 19.5668Z"
        fill="#1D1712" />
    <circle cx="26.5" cy="43.8" r="24.5" fill="#EAEEFB" stroke="#2F55D3" stroke-width="4" />
    <mask id="mask0_185_666" style="mask-type:alpha" maskUnits="userSpaceOnUse" x="0" y="17" width="53" height="54">
        <circle cx="26.5" cy="43.8" r="23" fill="#EAEEFB" stroke="#2F55D3" stroke-width="7" />
    </mask>
    <g mask="url(#mask0_185_666)">
        <path
            d="M35.6327 44.3321C38.4185 50.8524 37.0023 58.2564 34.9351 64.7954L31.447 63.4002C31.5912 62.6212 31.9469 61.6003 32.0283 60.8423C32.2004 59.2447 32.5213 56.2543 31.7958 56.7728C33.7166 52.5616 35.1327 47.1807 32.3771 42.995C33.7677 47.9224 32.2678 53.7359 30.7494 58.5169H30.5168C30.7726 57.4542 31.6563 52.0012 31.7958 50.7269C32.1446 47.5504 32.2213 45.9342 31.5633 42.7624C31.3935 41.9462 30.6494 40.758 31.0982 40.7277C33.4282 41.6021 33.977 42.795 35.6327 44.3321Z"
            fill="#028578" />
        <path
            d="M24.4709 40.7277C27.8775 43.2903 25.2661 42.0532 25.0522 42.6462C25.7475 45.2018 27.9008 54.7056 27.9589 56.3659C28.0264 58.2797 26.9102 58.2471 26.0986 59.7958C25.2033 59.754 24.7708 60.1888 23.7732 59.6796C23.2989 59.4377 22.6198 58.475 22.1455 58.1099C22.6408 53.0057 22.6222 47.8597 23.1919 42.7624C22.9059 41.9044 21.1084 42.9554 24.0058 40.4952C24.0267 40.5115 24.1011 40.451 24.4709 40.7277Z"
            fill="#E8403B" />
        <path
            d="M19.4713 36.8908C19.4015 36.4769 19.7038 36.2793 19.5294 36.077C19.2411 35.7398 15.2972 34.9515 12.5533 30.8449C11.0511 31.2053 9.53959 30.696 8.542 29.5659C10.2744 30.5867 10.9348 30.9286 13.0184 30.6123C12.9277 26.5662 13.1556 29.7264 14.1229 31.1355C14.1997 31.2472 15.8344 32.8842 16.0414 33.054C18.8853 35.3887 22.7896 36.2769 26.3893 36.3095C26.9776 38.0512 25.2429 39.2255 24.1802 40.3789C22.978 39.1348 19.9015 38.1861 19.4713 36.8908Z"
            fill="#F69862" />
        <path
            d="M20.5177 54.4475C18.9085 49.9665 15.9041 45.125 16.2157 40.3789C16.5692 40.3231 17.811 39.4255 18.3086 39.2162C18.3528 39.7766 18.7062 41.1975 18.7737 41.716C18.8272 42.1276 18.6155 42.3415 18.6574 42.6462C18.6713 42.7392 18.876 42.6694 18.8899 42.7624C18.9388 43.1112 18.9713 44.3948 19.0062 44.6227C19.0202 44.7157 19.2248 44.646 19.2387 44.739C19.369 45.5645 19.2294 45.8436 19.2387 45.9017C19.2527 45.9947 19.4573 45.9249 19.4713 46.018C19.6131 46.9318 19.6736 48.2736 19.7038 48.4596C19.7201 48.5526 19.9201 48.4829 19.9364 48.5759C19.9759 48.82 19.7806 48.9107 19.8201 49.1572C19.8364 49.2502 20.0363 49.1805 20.0526 49.2735C20.1712 50.0037 19.9503 50.7617 20.2852 50.785C20.1084 52.0988 20.9572 53.808 20.5177 54.4475Z"
            fill="#68C9CD" />
        <path
            d="M14.0066 63.9815C14.1438 64.5233 14.5113 64.8954 14.7043 65.3767C14.8973 65.8581 15.0228 66.372 15.2856 66.8301C14.8694 67.2998 13.9485 68.0347 13.7741 68.6323C11.8603 67.7812 10.993 67.4161 10.1698 65.493L14.0066 63.9815Z"
            fill="#F1AB61" />
        <path
            d="M32.0283 60.8423C31.2121 61.2585 30.4285 61.7538 29.5867 62.1212C28.903 62.4189 27.8799 62.777 27.1451 62.9351C27.252 62.6281 27.0265 62.4933 27.0288 62.47C27.0427 62.3561 27.1358 62.3468 27.1451 62.2375C27.1985 61.5468 27.1055 60.8376 27.1451 60.1446C27.8357 60.4004 28.824 61.005 29.2379 61.0748C29.9378 61.1934 30.368 59.1378 30.5168 58.5169H30.7494C30.2029 60.2353 31.333 57.7867 31.7958 56.7728C32.5213 56.2543 32.2004 59.2447 32.0283 60.8423Z"
            fill="#014C47" />
        <path
            d="M34.9351 64.7954C34.8002 65.2256 34.1235 67.8742 33.8305 67.9347C33.2073 67.6277 32.4539 66.5604 32.0283 66.772C31.8353 65.6465 31.4447 64.5582 31.447 63.4002L34.9351 64.7954Z"
            fill="#F1AB61" />
        <path
            d="M14.0066 40.1464C14.1787 40.437 14.3857 40.2533 14.8205 40.2626C13.3997 40.9044 11.9464 41.9997 10.9837 43.2275C10.6558 43.6461 9.3024 45.9482 9.12335 46.3668C8.90244 46.89 8.8443 48.1201 8.42573 48.1689C9.34193 44.0135 10.2953 42.0555 14.0066 40.1464Z"
            fill="#014C47" />
        <path
            d="M18.3086 39.2162C17.811 39.4255 16.5692 40.3231 16.2157 40.3789C16.146 40.3905 15.7204 40.2836 14.8205 40.2626C14.3857 40.2533 14.1787 40.437 14.0066 40.1464C15.4623 39.3976 17.0459 39.0093 18.2505 37.821C18.6783 37.8815 18.3039 39.1465 18.3086 39.2162Z"
            fill="#142A2A" />
        <path
            d="M32.3772 40.4952C34.4746 41.6997 34.6932 42.1323 35.6327 44.3321C33.977 42.795 33.4282 41.6021 31.0982 40.7277C31.0935 40.6882 31.1028 40.6487 31.0982 40.6115C31.068 40.3743 30.768 40.3859 30.7494 40.3208C30.4913 39.465 32.0842 40.8696 32.3772 40.4952Z"
            fill="#123A36" />
        <path
            d="M32.3772 40.4952C32.0842 40.8696 30.4913 39.465 30.7494 40.3208C30.768 40.3859 31.068 40.3743 31.0982 40.6115L28.3078 39.6813C28.2729 39.4953 27.7009 38.1489 27.9009 38.0535C29.138 39.1953 30.9936 39.6999 32.3772 40.4952Z"
            fill="#142A2A" />
        <path
            d="M32.0283 60.8423C31.9469 61.6003 31.5912 62.6212 31.447 63.4002C31.4447 64.5582 31.8353 65.6465 32.0283 66.772C32.1493 67.4719 32.6354 68.6555 32.726 69.8531C33.0376 73.9504 31.868 77.9361 30.7495 81.8288C31.3238 82.0218 31.9051 81.9869 32.4935 82.1195C33.3469 82.3125 35.1002 82.445 34.8188 83.8054C34.5119 85.296 28.545 85.675 27.2614 85.6076C25.136 85.4983 25.4453 85.7959 25.5174 80.8405C25.5802 76.5665 26.022 72.2761 25.8662 67.9928L21.5061 67.9347C20.9922 72.2273 20.962 76.62 20.7503 80.9568C20.7085 81.8172 20.8829 84.5937 20.6341 85.0843C20.3178 85.7075 19.3248 85.4425 18.89 85.8401C17.5227 85.7354 10.8232 85.1471 10.2861 84.0379C9.89542 83.2357 10.4791 82.6148 11.2162 82.352C11.8906 82.1125 15.1508 82.0172 15.2857 81.8288C14.802 78.8291 13.023 71.2111 13.7741 68.6323C13.9485 68.0347 14.8694 67.2998 15.2856 66.8301C15.0228 66.372 14.8973 65.8581 14.7043 65.3767L15.9252 61.4236C16.0531 61.3631 17.4157 62.2421 18.0762 62.47C17.8204 64.3257 15.1229 69.7926 15.0532 70.2019C14.6741 72.4645 15.7694 77.6989 16.274 80.1429C17.6785 77.0827 18.997 73.9876 20.0527 70.7833C20.2271 70.2531 20.4411 68.3997 20.6341 67.9928C20.8992 67.4394 21.5131 68.0533 21.3317 66.2488L26.3894 66.1906C26.5312 66.9231 26.9312 67.6114 27.0289 68.3416C27.4149 71.2437 26.9893 78.4733 27.0289 81.9451C27.2637 82.4567 28.3125 81.3102 28.8892 80.6661C33.2586 75.7921 31.826 67.6835 29.5867 62.1212C30.4285 61.7538 31.2121 61.2585 32.0283 60.8423Z"
            fill="#0D0E0E" />
        <path
            d="M29.5867 62.1212C31.826 67.6835 33.2586 75.7921 28.8892 80.6661C28.3125 81.3102 27.2637 82.4567 27.0289 81.9451C26.9893 78.4733 27.4149 71.2437 27.0289 68.3416C26.9312 67.6114 26.5312 66.9231 26.3894 66.1906L21.3317 66.2488C21.5131 68.0533 20.8992 67.4394 20.6341 67.9928C20.4411 68.3997 20.2271 70.2531 20.0527 70.7833C18.997 73.9876 17.6785 77.0827 16.274 80.1429C15.7694 77.6989 14.6741 72.4645 15.0532 70.2019C15.1229 69.7926 17.8204 64.3257 18.0762 62.47C19.1296 62.8351 20.5713 63.156 21.6805 63.2839C21.7154 63.2886 21.827 63.3583 22.3781 63.4002C23.8222 63.5118 25.3941 63.3188 26.8544 63.4002C27.1963 63.1397 27.1265 62.9886 27.1451 62.9351C27.8799 62.777 28.903 62.4189 29.5867 62.1212Z"
            fill="#1D1D20" />
        <path
            d="M25.5174 80.8405L20.7503 80.9568C20.962 76.62 20.9922 72.2273 21.5061 67.9347L25.8662 67.9928C26.022 72.2761 25.5802 76.5665 25.5174 80.8405Z"
            fill="#FBFDFD" />
        <path
            d="M25.5174 80.8405C25.4453 85.7959 25.136 85.4983 27.2614 85.6076C24.7313 86.3819 21.5805 86.0447 18.89 85.8401C19.3248 85.4425 20.3178 85.7075 20.6341 85.0843C20.8829 84.5937 20.7085 81.8172 20.7503 80.9568L25.5174 80.8405Z"
            fill="#35BDB2" />
        <path
            d="M17.3784 57.3542L16.4483 61.4817L18.0762 62.47C17.4157 62.2421 16.0531 61.3631 15.9252 61.4236L14.7043 65.3767C14.5113 64.8954 14.1438 64.5233 14.0066 63.9815C13.6485 62.563 13.7602 60.3586 13.6578 58.8657L15.1693 54.68C15.4647 55.1614 16.9855 56.9914 17.3784 57.3542Z"
            fill="#014C47" />
        <path
            d="M21.7967 60.1446C21.9269 61.005 21.72 62.3747 21.6805 63.2839C20.5713 63.156 19.1296 62.8351 18.0762 62.47L16.4483 61.4817L17.3784 57.3542C18.4249 58.3215 20.4456 59.647 21.7967 60.1446Z"
            fill="#014C47" />
        <path
            d="M14.9369 54.2149C15.0183 54.3661 15.081 54.5335 15.1693 54.68L13.6578 58.8657C13.4323 55.545 13.1626 52.1872 13.3091 48.8666C13.7091 50.7408 14.03 52.5011 14.9369 54.2149Z"
            fill="#07221F" />
        <path
            d="M16.2157 40.3789C15.9041 45.125 18.9085 49.9665 20.5177 54.4475C20.9409 55.6264 21.5712 58.7076 21.913 59.3308C20.755 58.3611 20.0713 55.7846 19.1226 54.3893C16.0112 46.3644 16.3437 48.9689 19.1226 54.9707C19.6993 56.2148 21.7386 59.6377 21.7968 59.9121C21.8107 59.9819 21.785 60.0702 21.7967 60.1446C20.4456 59.647 18.4249 58.3215 17.3784 57.3542C16.9855 56.9914 15.4647 55.1614 15.1693 54.68C15.081 54.5335 15.0183 54.3661 14.9369 54.2149C14.6602 52.6174 14.0021 51.085 13.6579 49.506C12.8161 45.6273 13.7951 44.8925 12.0302 46.1342C13.4789 46.2458 13.0184 47.5062 13.3091 48.8666C13.1626 52.1872 13.4323 55.545 13.6578 58.8657C13.7602 60.3586 13.6485 62.563 14.0066 63.9815L10.1698 65.493C8.16297 60.8051 7.33048 53.1406 8.42573 48.1689C8.8443 48.1201 8.90244 46.89 9.12335 46.3668C9.3024 45.9482 10.6558 43.6461 10.9837 43.2275C11.9464 41.9997 13.3997 40.9044 14.8205 40.2626C15.7204 40.2836 16.146 40.3905 16.2157 40.3789Z"
            fill="#028578" />
        <path
            d="M21.913 59.3308C22.0921 59.654 22.1245 59.7796 22.1455 59.7958L21.7968 59.9121C21.7386 59.6377 19.6993 56.2148 19.1226 54.9707C16.3437 48.9689 16.0112 46.3644 19.1226 54.3893C20.0713 55.7846 20.755 58.3611 21.913 59.3308Z"
            fill="#35BDB2" />
        <path
            d="M14.9369 54.2149C14.03 52.5011 13.7091 50.7408 13.3091 48.8666C13.0184 47.5062 13.4789 46.2458 12.0302 46.1342C13.7951 44.8925 12.8161 45.6273 13.6579 49.506C14.0021 51.085 14.6602 52.6174 14.9369 54.2149Z"
            fill="#E3F3F4" />
        <path
            d="M16.1576 46.89C16.2832 46.8388 16.4181 47.1086 16.4483 47.1807C17.2296 49.0107 16.532 49.4363 16.1576 46.89Z"
            fill="#109487" />
        <path
            d="M28.8893 43.5182C29.5171 44.0135 30.7844 46.4226 30.9821 47.0644C31.5169 48.8061 31.1819 50.6129 31.7958 50.7269C31.6563 52.0012 30.7726 57.4542 30.5168 58.5169C30.368 59.1378 29.9378 61.1934 29.2379 61.0748C28.0915 55.859 28.2754 50.5013 28.5405 45.2041C28.5451 45.1157 28.7683 45.1785 28.773 45.0878C28.7869 44.8483 28.3614 43.4926 28.8893 43.5182Z"
            fill="#68C9CD" />
        <path
            d="M31.0982 40.6115C31.1028 40.6487 31.0935 40.6882 31.0982 40.7277C30.6494 40.758 31.3935 41.9462 31.5633 42.7624C32.2213 45.9342 32.1446 47.5504 31.7958 50.7269C31.1819 50.6129 31.5169 48.8061 30.9821 47.0644C30.7844 46.4226 29.5171 44.0135 28.8893 43.5182C28.3963 42.7462 28.5868 41.1974 28.3078 39.6813L31.0982 40.6115Z"
            fill="#68C9CD" />
        <path
            d="M31.7958 56.7728C31.333 57.7867 30.2029 60.2353 30.7494 58.5169C32.2678 53.7359 33.7677 47.9224 32.3771 42.995C35.1327 47.1807 33.7166 52.5616 31.7958 56.7728Z"
            fill="#68C9CD" />
        <path
            d="M26.0986 59.7958C27.2799 59.8516 27.0404 60.1051 27.1451 60.1446C27.1055 60.8376 27.1985 61.5468 27.1451 62.2375C25.6405 62.3584 23.1499 61.9701 22.6104 62.47C22.5034 62.4793 22.4825 62.3398 22.3778 62.3538V59.9121C22.4476 59.9261 23.5802 59.7517 23.7732 59.6796C24.7708 60.1888 25.2033 59.754 26.0986 59.7958Z"
            fill="#AA8045" />
        <path
            d="M22.1455 59.7958C22.1455 59.7958 22.3662 59.9098 22.3778 59.9121L22.3781 63.4002C21.827 63.3583 21.7154 63.2886 21.6805 63.2839C21.72 62.3747 21.9269 61.005 21.7967 60.1446C21.785 60.0702 21.8107 59.9819 21.7968 59.9121L22.1455 59.7958Z"
            fill="#F5C673" />
        <path
            d="M22.6104 62.47C24.0777 62.3421 25.5638 62.2282 27.0288 62.47C27.0265 62.4933 27.252 62.6281 27.1451 62.9351C27.1265 62.9886 27.1963 63.1397 26.8544 63.4002C25.3941 63.3188 23.8222 63.5118 22.3781 63.4002L22.3778 62.3538C22.4825 62.3398 22.5034 62.4793 22.6104 62.47Z"
            fill="#C6964C" />
        <path
            d="M27.1451 62.2375C27.1358 62.3468 27.0427 62.3561 27.0288 62.47C25.5638 62.2282 24.0777 62.3421 22.6104 62.47C23.1499 61.9701 25.6405 62.3584 27.1451 62.2375Z"
            fill="#8B6229" />
        <path
            d="M12.4953 26.6592C12.5348 26.7382 12.5952 26.8057 12.6115 26.8917C12.0511 26.9452 11.9139 25.5337 11.3326 25.8453C11.0326 25.5058 10.7791 25.5151 10.7512 25.4965C10.1699 25.1128 10.0676 24.9105 9.23972 24.9151C8.87231 24.9175 8.06075 25.1407 7.84449 25.3802C7.78171 25.1919 7.76775 24.9849 7.72822 24.7989C9.61411 23.3153 11.586 24.85 12.4953 26.6592Z"
            fill="#FED5A0" />
        <path
            d="M10.7512 25.4965C10.6326 26.2406 9.77475 25.7244 9.23991 25.8453C9.70732 25.1082 9.30018 25.2709 9.23972 24.9151C10.0676 24.9105 10.1699 25.1128 10.7512 25.4965Z"
            fill="#F69862" />
        <path
            d="M35.9816 27.9381C35.9072 32.7214 31.1146 35.8235 26.7382 36.1932C27.1382 38.3791 25.3778 38.9814 24.4709 40.7277C24.1011 40.451 24.0267 40.5115 24.0058 40.4952C22.9756 39.758 19.5667 37.7838 19.4714 37.5303C19.4272 37.4117 19.5062 37.0955 19.4713 36.8908C19.9015 38.1861 22.978 39.1348 24.1802 40.3789C25.2429 39.2255 26.9776 38.0512 26.3893 36.3095C22.7896 36.2769 18.8853 35.3887 16.0414 33.054C15.8344 32.8842 14.1997 31.2472 14.1229 31.1355C13.1556 29.7264 12.9277 26.5662 13.0184 30.6123C10.9348 30.9286 10.2744 30.5867 8.542 29.5659C7.71649 28.6288 6.92364 26.3964 7.84449 25.3802C8.06075 25.1407 8.87231 24.9175 9.23972 24.9151C9.30018 25.2709 9.70732 25.1082 9.23991 25.8453C8.45394 26.022 8.28401 27.2056 8.48399 27.8219C9.6397 26.3197 11.1489 26.6987 12.1465 28.1125C12.2209 28.2172 12.0232 28.3335 12.0302 28.3451C13.1394 30.1147 12.0581 26.6638 11.3326 25.8453C11.9139 25.5337 12.0511 26.9452 12.6115 26.8917C12.9254 27.1405 12.6092 26.5592 12.6115 26.5429C12.8766 24.8593 12.7232 23.5362 14.9369 23.6362C14.9509 24.3966 15.9089 26.4708 16.4484 27.0661C17.3321 28.0428 18.2366 28.2497 19.4714 28.4032C19.4714 28.4846 19.4412 28.6055 19.5295 28.6358C19.8435 28.745 25.3732 28.852 25.6337 27.6475L25.7499 23.985C25.7895 23.7083 25.6267 23.3827 25.9243 23.1711C29.817 23.2292 27.4661 24.1547 29.0055 26.7173C30.2867 28.852 34.8026 28.5265 35.9816 27.9381Z"
            fill="#FAAC74" />
        <path
            d="M23.4829 29.6822C25.4153 30.2682 27.5244 30.5286 29.4126 29.6822C29.4242 33.7097 23.6527 33.6167 23.4829 29.6822Z"
            fill="#FBFDFD" />
        <path
            d="M11.3326 25.8453C12.0581 26.6638 13.1394 30.1147 12.0302 28.3451C12.0232 28.3335 12.2209 28.2172 12.1465 28.1125C11.1489 26.6987 9.6397 26.3197 8.48399 27.8219C8.28401 27.2056 8.45394 26.022 9.23991 25.8453C9.77475 25.7244 10.6326 26.2406 10.7512 25.4965C10.7791 25.5151 11.0326 25.5058 11.3326 25.8453Z"
            fill="#F69862" />
        <path
            d="M19.4714 28.4032C25.5825 29.1659 25.3755 26.5778 25.7499 23.985L25.6337 27.6475C25.3732 28.852 19.8435 28.745 19.5295 28.6358C19.4412 28.6055 19.4714 28.4846 19.4714 28.4032Z"
            fill="#FED5A0" />
        <path
            d="M12.6115 26.8917C12.5952 26.8057 12.5348 26.7382 12.4953 26.6592L12.6115 26.5429C12.6092 26.5592 12.9254 27.1405 12.6115 26.8917Z"
            fill="#814621" />
        <path
            d="M15.402 22.241C16.1229 22.5944 16.9693 22.5921 15.5183 22.706C15.4043 22.7153 15.2857 22.7014 15.1695 22.706C12.9069 22.7944 11.9767 22.334 14.4718 22.1247C14.5184 22.12 14.4974 22.313 15.402 22.241Z"
            fill="#63A0B0" />
        <path
            d="M35.9816 27.9381C34.8026 28.5265 30.2867 28.852 29.0055 26.7173C27.4661 24.1547 29.817 23.2292 25.9243 23.1711C25.6267 23.3827 25.7895 23.7083 25.7499 23.985C25.3755 26.5778 25.5825 29.1659 19.4714 28.4032C18.2366 28.2497 17.3321 28.0428 16.4484 27.0661C15.9089 26.4708 14.9509 24.3966 14.9369 23.6362C14.916 22.613 15.9345 23.785 15.5183 22.706C16.9693 22.5921 16.1229 22.5944 15.402 22.241C19.6737 21.8968 23.8523 21.7805 28.1333 22.241C30.5796 21.1829 33.3259 21.4201 35.9234 21.6596C36.2931 21.3736 35.9838 21.1876 35.9815 21.0783C38.4673 22.6572 37.6069 21.048 37.6093 20.9039C37.6186 19.9226 37.4883 14.616 37.2605 14.1603C37.1581 13.958 36.6605 14.1928 36.6791 13.8115C36.7093 13.2022 40.1672 7.63525 35.1095 4.91688C30.2843 2.32408 22.0153 2.20084 16.8553 3.98673C16.3623 3.83093 17.3575 2.3171 17.0878 1.89389C14.3159 3.39608 12.2254 4.7448 10.5186 7.4748C8.79316 10.2373 8.15833 13.1441 7.37933 16.2531C7.65605 17.6576 9.26289 22.7758 9.23963 23.5781C9.22568 24.071 7.71884 24.5942 7.61187 24.2175C7.08168 21.7201 6.53289 18.9203 6.56545 16.3694C3.96567 12.5209 4.40052 6.25165 9.41404 4.68434C8.13508 9.91412 9.53728 6.31676 11.972 4.103C13.5881 2.63103 16.2507 1.0614 18.3667 0.498658C21.0456 -0.215234 22.299 -0.278019 19.4132 1.08C16.7157 3.68443 18.111 2.44965 20.4596 2.12642C27.7497 1.12186 44.5784 2.78451 37.493 14.044C37.8279 15.6276 37.7604 20.7992 37.9581 21.4852C38.0255 21.7177 39.73 22.4921 37.7255 25.9034C37.4581 26.3592 36.4164 27.7219 35.9816 27.9381Z"
            fill="#0D0E0E" />
        <path
            d="M36.3302 22.9386C36.0884 24.5942 35.5675 26.1453 34.3536 27.3568C31.112 27.9963 29.3122 26.7057 29.1215 23.3455C29.2494 23.0432 30.533 22.8642 30.8656 22.8223H30.9818C29.2029 24.8756 33.6095 26.1802 33.4816 22.706C34.4048 22.8316 35.4233 22.7781 36.3302 22.9386Z"
            fill="#FAAC74" />
        <path
            d="M34.3536 27.3568C35.5675 26.1453 36.0884 24.5942 36.3302 22.9386C36.579 22.9828 37.2603 22.9874 37.3766 23.2292C37.2627 25.457 36.5883 26.9173 34.3536 27.3568Z"
            fill="#FBFDFD" />
        <path
            d="M31.5051 23.0548C31.5725 23.0293 32.7422 23.5781 32.2027 23.985C31.4469 24.557 31.0516 23.2223 31.5051 23.0548Z"
            fill="#FBFDFD" />
        <path
            d="M18.1341 23.0548C19.0666 23.1153 17.9574 23.878 18.076 24.5082C18.2341 25.3523 20.3176 25.2523 20.8083 24.7989C21.8059 23.8757 19.6247 22.6619 24.6452 23.2874C25.6916 27.1266 22.3942 28.0405 19.2968 27.5893C17.1993 27.2847 16.4436 25.3151 15.7506 23.5781C15.8459 23.3246 18.0109 23.0455 18.1341 23.0548Z"
            fill="#FCC191" />
        <path
            d="M20.4593 23.1711C20.6802 23.3269 20.7988 24.3454 20.5756 24.3338C20.3338 24.3222 20.3593 23.3525 20.4593 23.1711Z"
            fill="#FBFDFD" />
        <path
            d="M12.9603 22.706L15.1695 22.706C15.2857 22.7014 15.4043 22.7153 15.5183 22.706C15.9345 23.785 14.916 22.613 14.9369 23.6362C12.7232 23.5362 12.8766 24.8593 12.6115 26.5429L12.4953 26.6592C11.586 24.85 9.61411 23.3153 7.72822 24.7989C7.68637 24.6059 7.6514 24.4082 7.61187 24.2175C7.71884 24.5942 9.22568 24.071 9.23963 23.5781C9.26289 22.7758 7.65605 17.6576 7.37933 16.2531C8.15833 13.1441 8.79316 10.2373 10.5186 7.4748C11.1302 7.59339 10.4257 9.22116 10.4024 9.74204C10.3001 12.0558 10.7675 16.8438 11.6814 19.0436C11.6372 20.1876 12.1465 21.2387 12.4953 22.2991C12.5883 22.5805 12.1813 22.5898 12.7859 23.2874C12.8301 22.7153 12.9534 22.7363 12.9603 22.706Z"
            fill="#0D0E0E" />
        <path
            d="M35.9815 21.0783C35.9675 20.6341 35.8165 20.2272 35.7491 19.7993C35.8747 17.939 35.0259 16.0392 34.8189 14.1603C29.4799 11.1466 21.5992 11.8628 16.4484 14.9741C16.0508 15.8694 14.3905 21.9201 14.0649 22.1247C14.0207 22.1526 13.3115 21.9294 13.0185 22.1247C12.7232 22.32 13.0324 22.3898 12.9603 22.706C12.9534 22.7363 12.8301 22.7153 12.7859 23.2874C12.1813 22.5898 12.5883 22.5805 12.4953 22.2991C12.1465 21.2387 11.6372 20.1876 11.6814 19.0436C10.7675 16.8438 10.3001 12.0558 10.4024 9.74204C10.4257 9.22116 11.1302 7.59339 10.5186 7.4748C12.2254 4.7448 14.3159 3.39608 17.0878 1.89389C17.3575 2.3171 16.3623 3.83093 16.8553 3.98673C22.0153 2.20084 30.2843 2.32408 35.1095 4.91688C40.1672 7.63525 36.7093 13.2022 36.6791 13.8115C36.6605 14.1928 37.1581 13.958 37.2605 14.1603C37.4883 14.616 37.6186 19.9226 37.6093 20.9039C37.6093 21.048 38.4673 22.6572 35.9815 21.0783Z"
            fill="#1D1D20" />
        <path
            d="M35.7491 19.7993C35.4863 18.1413 35.0747 16.5159 34.8189 14.8579L34.5282 14.4509C28.7101 13.265 22.5386 13.2929 16.7972 14.8579L14.4718 22.1247C11.9767 22.334 12.9069 22.7944 15.1695 22.706L12.9603 22.706C13.0324 22.3898 12.7232 22.32 13.0185 22.1247C13.3115 21.9294 14.0207 22.1526 14.0649 22.1247C14.3905 21.9201 16.0508 15.8694 16.4484 14.9741C21.5992 11.8628 29.4799 11.1466 34.8189 14.1603C35.0259 16.0392 35.8747 17.939 35.7491 19.7993Z"
            fill="#0D0E0E" />
        <path
            d="M35.7491 19.7993C35.8165 20.2272 35.9675 20.6341 35.9815 21.0783C35.9838 21.1876 36.2931 21.3736 35.9234 21.6596C33.3259 21.4201 30.5796 21.1829 28.1333 22.241C23.8523 21.7805 19.6737 21.8968 15.402 22.241C14.4974 22.313 14.5184 22.12 14.4718 22.1247L16.7972 14.8579C22.5386 13.2929 28.7101 13.265 34.5282 14.4509L34.8189 14.8579C35.0747 16.5159 35.4863 18.1413 35.7491 19.7993Z"
            fill="#FAAC74" />
        <path
            d="M19.9947 19.4505C23.2363 19.3319 23.706 20.9899 22.9015 21.3108C22.6271 21.4201 17.2461 21.3038 16.9718 21.1945C15.9253 20.7783 18.26 19.5156 19.9947 19.4505Z"
            fill="#0D0E0E" />
        <path
            d="M31.7379 19.5668C33.6331 19.3133 35.6911 20.0156 35.2842 20.9039C35.1609 21.1713 30.1497 20.8946 29.4126 21.1945C28.7033 20.5016 31.2426 19.6319 31.7379 19.5668Z"
            fill="#1D1712" />
    </g>
</svg>
