<svg width="54" height="72" viewBox="0 0 54 72" fill="none" xmlns="http://www.w3.org/2000/svg">
    <path
        d="M28.4241 1.05002L28.5284 0.945716C31.6062 1.96514 35.1387 4.48102 34.9801 8.07892C35.606 6.95518 36.2833 5.81615 36.4488 4.51162C38.2109 7.13598 39.7643 11.0871 37.1831 13.6378C37.1302 13.6906 36.4975 13.877 35.9773 14.5293C35.1303 15.5904 35.5392 15.9896 34.0887 17.0994C35.9106 13.2748 28.7718 11.1441 25.854 11.4348C23.8606 11.7491 21.8671 12.0639 19.8737 12.3791L17.1464 10.4905C16.7236 10.6741 15.3621 11.7213 15.1535 11.7491C14.3649 11.8576 10.1162 9.56425 8.12458 13.0078C6.24845 12.2303 4.65881 14.895 4.19013 16.3651C3.93562 16.2399 3.70614 16.08 3.45581 15.945C0.939924 14.5835 -1.90557 13.8798 1.72431 11.2248C4.14145 9.45716 4.52391 10.2777 7.02171 11.172C6.15944 9.66994 5.29022 8.13594 4.03158 6.9232C7.72266 6.75074 9.84912 7.05671 13.0534 8.91615C12.1355 7.25976 11.1189 5.65204 9.90615 4.19592C12.543 4.45877 16.3231 3.99704 18.4037 5.56025C18.7305 4.18897 19.6025 2.26972 18.1937 1.25864C17.6151 0.8428 15.5735 0.396366 17.0393 0.524316C19.4954 0.739884 22.7512 2.77734 23.7539 5.14024C24.8944 2.37402 25.6287 1.53123 23.8068 0.104307V0C26.9777 0.970749 28.9192 3.23073 28.8942 6.60888C30.1167 3.58955 31.0276 2.70085 28.4227 1.04863L28.4241 1.05002Z"
        fill="#4B172C" />
    <path
        d="M23.5996 45.215C23.5856 45.6878 23.2908 47.7225 23.1795 48.1522C23.0864 48.5111 23.0127 48.9533 22.7081 49.2009C21.7206 47.8671 20.8931 46.4207 20.0336 45.005C21.2019 44.7797 22.4313 45.0801 23.6009 45.215H23.5996Z"
        fill="#F79A6D" />
    <path
        d="M17.305 61.6857C17.3217 61.7066 17.2883 61.7692 17.305 61.79C16.2216 62.42 14.917 63.9888 13.6334 63.4687C13.6167 63.3463 12.3455 61.6704 12.1647 61.4757C12.7057 61.2073 13.2579 60.9027 13.8434 60.7414C15.1882 61.1906 16.5025 60.4841 17.305 61.6857Z"
        fill="#F79A6D" />
    <path
        d="M35.0332 21.7167C35.1028 22.1242 35.182 22.4204 35.2432 22.871C32.6397 21.1701 29.555 22.0088 29.3687 21.7696C30.2504 19.0757 33.4589 20.4775 35.0332 21.7167Z"
        fill="#221E1F" />
    <path
        d="M36.0832 30.8443C37.2667 38.0484 28.3256 40.4906 22.7597 40.2333C22.7027 41.7269 23.056 43.1872 23.7041 44.5349C23.7472 44.9048 23.6039 45.0397 23.5998 45.2164C22.4301 45.0815 21.2007 44.781 20.0325 45.0064C19.7682 44.571 18.4859 42.8576 18.4595 42.6462C18.4136 42.2916 18.9059 41.3959 19.0895 40.9147C19.1618 40.7242 19.6625 39.9565 19.4567 39.7604C15.3692 39.0289 12.1204 37.7216 9.33335 34.5673C9.05381 34.2502 8.87858 33.7857 8.59903 33.4658C8.88136 33.2878 8.34592 32.9527 8.44188 32.8358C8.53367 32.726 10.7185 31.9012 11.0648 31.6815C12.0342 37.6937 17.9936 38.5866 23.0768 38.8147C26.8361 38.9844 32.5562 38.6923 35.036 35.3003C35.9775 34.011 36.7285 30.9152 35.246 30.9472C35.488 30.9221 35.8551 30.9249 36.0846 30.8429L36.0832 30.8443Z"
        fill="#EA7B58" />
    <path
        d="M13.3179 15.9464C12.7574 17.4568 13.1997 21.8697 12.8979 22.2939C12.8242 22.3968 12.1316 22.3092 11.9007 22.451C11.1831 22.8947 12.5168 23.6401 9.80203 24.234C9.74918 23.7092 9.6968 23.1849 9.64487 22.661C9.84514 19.6542 10.2067 16.9826 13.3165 15.9464H13.3179Z"
        fill="#F79A6D" />
    <path
        d="M23.0741 38.8161C17.9922 38.5866 12.0328 37.6937 11.0621 31.6829C10.7158 31.9026 8.5309 32.7273 8.43911 32.8372C8.34315 32.9526 8.87859 33.2878 8.59627 33.4672C8.46414 33.3156 8.31951 32.9679 8.22911 32.9429C7.56711 33.0625 6.62973 33.114 5.9733 33.0472C4.33359 32.8831 1.77738 31.8804 1.14736 30.2142C0.35602 28.1198 2.39905 25.9446 4.18895 25.9126C4.21121 25.9126 4.06518 25.953 4.60896 26.0169C5.41143 26.5858 5.28209 28.7748 5.8676 29.5314C6.20416 29.9667 6.91206 30.1044 7.33624 30.1085C7.51982 30.1099 8.42103 30.1544 8.49057 30.0557L8.59488 26.3841C8.65746 26.2255 11.5739 25.1032 11.7422 25.0726C12.1969 26.2603 12.0676 27.4258 12.5808 28.5871C11.6142 34.8037 15.5654 36.7425 20.8155 38.1861C21.6124 38.4058 23.0435 38.5324 23.0713 38.8161H23.0741Z"
        fill="#F79A6D" />
    <path
        d="M7.33923 30.1099C6.91505 30.1058 6.20715 29.9681 5.87059 29.5328C5.28508 28.7762 5.41442 26.5871 4.61195 26.0183C7.76063 26.3924 6.56458 28.9834 7.33923 30.1099Z"
        fill="#EA7B58" />
    <path
        d="M33.4602 17.6251C34.5798 18.479 34.8204 20.4692 35.0332 21.7167C33.4589 20.4775 30.2504 19.0757 29.3687 21.7696C29.555 22.0088 32.6397 21.1701 35.2432 22.871C35.2752 23.1061 35.4073 23.3049 35.3475 23.6054C34.8301 23.5595 29.8123 23.5581 29.5258 23.6054C28.6983 23.7403 28.2741 24.4829 27.9528 24.444C26.722 23.4871 25.0086 23.3703 23.6512 24.1297C22.8223 22.5887 12.5516 22.4204 12.0064 22.661C11.439 22.9114 13.0244 23.9127 9.59343 24.444C9.45157 24.3272 9.62681 22.9503 9.64628 22.661C9.69913 23.1858 9.75151 23.7101 9.80344 24.234C12.5168 23.6401 11.1845 22.8947 11.9021 22.451C12.1316 22.3092 12.8256 22.3968 12.8993 22.2939C13.2011 21.8697 12.7588 17.4568 13.3193 15.9464C17.3747 14.596 24.7179 15.0842 28.8972 16.0508C29.6593 16.2274 32.9916 17.2663 33.4602 17.6237V17.6251Z"
        fill="#F79A6D" />
    <path
        d="M16.0982 19.1994C17.4222 19.0729 21.7391 19.3774 21.1856 20.6152C21.0159 20.9949 16.2804 19.7738 13.2652 22.241C13.0496 20.0395 13.9954 19.3997 16.0982 19.1994Z"
        fill="#221E1F" />
    <path
        d="M35.2432 30.9486C36.7257 30.9166 35.9747 34.0138 35.0332 35.3016C32.5535 38.6937 26.8333 38.9858 23.0741 38.8161C23.0462 38.5338 21.6165 38.4058 20.8182 38.1861C15.5681 36.7425 11.617 34.8037 12.5836 28.5871C12.069 27.4258 12.1997 26.2603 11.7449 25.0726C11.8353 25.0559 11.9174 25.1102 12.0078 24.9683C12.3443 26.5079 12.9424 29.142 14.4208 30.0042C15.6891 30.7441 20.9796 31.0779 22.184 30.4242C24.5344 29.1475 22.7444 24.6109 26.0656 24.864C29.4799 25.1241 26.2283 30.3881 32.1501 30.9486C32.6578 30.9972 34.7509 30.9986 35.2446 30.9486H35.2432Z"
        fill="#F79A6D" />
    <path
        d="M30.1031 32.8372C30.0224 33.349 29.9542 34.0041 29.683 34.463C28.3785 36.6771 22.5693 36.8398 20.8712 32.7315C24.241 34.2266 26.6595 34.7064 30.1031 32.8358V32.8372Z"
        fill="#FAF4F2" />
    <path
        d="M30.1031 32.8372C26.6595 34.7064 24.241 34.228 20.8712 32.7329C20.6737 32.6453 20.7307 32.5368 20.3469 32.5758C20.7321 32.1265 22.3134 33.0931 24.1756 33.2572C25.5845 33.3824 27.7123 33.2392 29.1059 32.9429C29.3646 32.8873 29.7734 32.4506 30.3117 32.5758C30.3548 32.7913 30.1281 32.6717 30.1017 32.8386L30.1031 32.8372Z"
        fill="#EA7B58" />
    <path
        d="M26.8512 61.58C26.7163 61.797 26.8109 62.3978 27.0613 62.3143C27.0056 62.6272 27.1683 63.0319 26.9569 63.0486C26.2268 64.6591 24.9932 65.9581 23.7054 67.1403C23.7026 67.1069 23.576 66.8524 23.5482 66.5102L18.828 66.4059C19.0551 65.4268 19.2823 64.4477 19.5094 63.4686C19.5206 63.47 19.4774 63.2559 19.5623 63.2586C19.7639 63.2642 19.6833 63.3977 19.9294 63.363C20.3355 63.3059 20.3258 62.3908 20.3495 61.79C22.5288 61.7497 24.7011 61.9291 26.854 61.58H26.8512Z"
        fill="#0A4146" />
    <path
        d="M26.8513 64.413C26.8833 64.2016 26.829 63.9499 26.8513 63.7315C27.046 63.477 27.2741 63.3018 27.4813 63.05C27.6162 62.8845 27.9611 62.6898 28.1113 62.5257C28.9527 62.7316 27.2935 64.0347 26.8527 64.4144L26.8513 64.413Z"
        fill="#DE8D5B" />
    <path
        d="M19.088 40.9147C18.9044 41.3959 18.4121 42.2916 18.458 42.6462C18.4858 42.8576 19.7667 44.571 20.031 45.0063C20.8918 46.4221 21.718 47.8685 22.7054 49.2023C23.01 48.9547 23.0851 48.5124 23.1769 48.1536C23.3938 47.6321 23.3785 48.0785 23.5969 47.8393C23.6761 47.7517 24.1128 47.0953 24.4355 46.685C24.9946 51.039 25.5541 55.3925 26.1141 59.7456C27.103 60.0307 26.5494 59.416 26.8485 58.8541C26.8804 59.206 26.925 59.5509 26.9528 59.9028L20.2382 60.2171C19.9086 55.2284 19.6555 50.2342 19.0839 45.2678C18.9156 44.9076 18.7835 45.0202 18.7695 45.0049C18.7473 44.9827 18.7529 44.9674 18.6652 44.9006C18.2744 44.6016 17.1966 44.2484 16.6723 43.852C16.269 43.425 15.5986 42.7617 15.0993 42.4877C15.0938 42.4181 15.1021 42.3472 15.0993 42.2777C16.2606 42.0065 16.0158 41.8451 16.8823 41.439C17.3802 41.2068 19.0505 40.1429 19.0852 40.9147H19.088Z"
        fill="#D2E2D6" />
    <path
        d="M25.697 45.2149C25.4564 45.3206 25.3354 45.5557 25.1727 45.7393C24.896 46.0522 24.6915 46.3623 24.4384 46.6836C24.1144 47.0938 23.6791 47.7503 23.5998 47.8379C23.9516 46.6321 24.7458 45.411 25.3827 44.2706C25.5621 44.4778 25.6303 44.9173 25.697 45.2149Z"
        fill="#045C4F" />
    <path
        d="M26.8513 58.8527C26.5523 59.4146 27.1059 60.0293 26.117 59.7442C25.5579 55.3902 24.9984 51.0366 24.4384 46.6836C24.6915 46.3623 24.896 46.0522 25.1727 45.7393C25.9752 50.0409 26.4494 54.476 26.8513 58.8527Z"
        fill="#B6D4CD" />
    <path
        d="M26.9556 59.9027C27.0057 60.5244 27.0613 60.9291 27.0599 61.5814H26.8499C24.697 61.9291 22.5247 61.7511 20.3453 61.7914C20.3662 61.2712 20.3885 60.7261 20.241 60.2184L26.9556 59.9041V59.9027Z"
        fill="#802819" />
    <path
        d="M34.7189 52.3495C34.5743 52.4942 33.7357 52.3774 33.6703 52.3495C33.2183 52.1548 28.964 44.9396 28.9501 43.7477C29.046 43.7046 29.2505 43.642 29.2644 43.5377C31.8401 45.0606 33.4798 49.657 34.7189 52.3495Z"
        fill="#03A27E" />
    <path
        d="M34.7189 52.3495C34.8163 53.3495 31.9805 57.4856 31.2573 58.5384C31.0069 58.9028 30.7774 59.3478 30.5229 59.6927C30.1905 58.8597 30.2184 57.9418 30.1029 57.0698C31.2916 55.4964 32.4807 53.923 33.6703 52.3495C33.7357 52.3774 34.5743 52.4942 34.7189 52.3495Z"
        fill="#045C4F" />
    <path
        d="M29.2644 43.5377C29.2505 43.642 29.046 43.7046 28.9501 43.7477C28.861 43.788 28.6162 43.6879 28.53 43.9049C28.5119 43.9521 28.3464 44.756 28.32 44.902C27.8402 44.8255 27.448 46.2191 26.4314 47.105C25.9794 47.4721 25.8542 45.9145 25.697 45.2163C25.6303 44.9187 25.5621 44.4792 25.3827 44.272C25.5079 44.0481 26.0253 43.5919 26.0127 43.3805C25.8472 43.1552 24.8626 42.0176 25.1213 41.859C26.448 42.5419 28.0516 42.8201 29.2644 43.5377Z"
        fill="#1AB4AF" />
    <path
        d="M26.4314 47.1036C26.7123 49.5444 27.5857 51.835 28.53 54.0796L29.7887 60.7414C29.281 61.3728 28.658 61.9235 28.11 62.5243C27.9598 62.6884 27.6163 62.8845 27.48 63.0486C27.1504 63.0792 26.9752 63.5104 26.9557 63.0486C27.1671 63.032 27.0058 62.6272 27.06 62.3143C27.2561 61.2003 27.06 61.6259 27.06 61.58C27.06 60.9277 27.0044 60.523 26.9557 59.9014C26.9279 59.5481 26.8833 59.2046 26.8513 58.8527C26.4494 54.4774 25.9752 50.0423 25.1727 45.7393C25.3354 45.5543 25.4564 45.3206 25.697 45.2149C25.8542 45.9131 25.9794 47.4708 26.4314 47.1036Z"
        fill="#059289" />
    <path
        d="M13.8434 60.7414C13.2579 60.9027 12.7057 61.2087 12.1647 61.4757C12.1216 61.4298 12.0134 61.587 12.0078 61.58C9.43629 58.7832 6.88564 55.9655 5.03176 52.611C4.96361 52.2897 5.20838 52.0881 5.24176 51.9295C5.42812 51.853 5.54773 51.6611 5.66177 51.5095C7.60466 52.8808 12.2929 59.4897 13.1107 60.2685C13.4737 60.6148 13.3624 60.5787 13.845 60.74L13.8434 60.7414Z"
        fill="#059289" />
    <path
        d="M16.8852 41.439C16.0188 41.8451 16.2636 42.0065 15.1023 42.2777C15.0397 42.2916 15.1037 41.9216 14.0008 42.4877C11.3514 43.8478 7.53098 49.0312 5.66041 51.5095C5.54637 51.6611 5.42677 51.8517 5.2404 51.9295C5.38922 51.2147 5.83982 50.2731 6.18473 49.6223C7.30985 47.4986 10.6713 42.9452 13.1608 42.3834C14.4097 42.1914 16.436 41.0413 16.8852 41.439Z"
        fill="#36BFC2" />
    <path
        d="M17.3052 60.5314C17.6139 61.0515 19.4038 62.6759 19.9282 63.3643C19.682 63.3991 19.7627 63.2656 19.561 63.26C19.4762 63.2573 19.5193 63.4714 19.5082 63.47C19.3093 63.4408 19.1257 63.4784 18.931 63.3657C18.5471 62.7121 17.7739 62.356 17.3052 61.7928C17.2885 61.7719 17.3219 61.7093 17.3052 61.6885C17.2704 61.6454 17.4151 61.3018 16.728 60.7442L15.2065 60.6913C15.7313 60.6385 16.2556 60.5861 16.7795 60.5342H17.3038L17.3052 60.5314Z"
        fill="#0C2F32" />
    <path
        d="M15.1023 42.2777C15.1051 42.3472 15.0967 42.4181 15.1023 42.4877C15.1496 43.005 17.3191 45.6795 17.7767 46.3693C17.9408 46.3887 18.2732 45.7726 18.3539 45.635C18.4943 45.3971 18.6543 45.1941 18.6682 44.9006C18.7558 44.9688 18.7516 44.9827 18.7725 45.0049C17.6543 48.7336 17.1383 52.6221 15.6252 56.2298C14.4027 53.1784 13.2901 50.1257 12.6351 46.8936C11.2457 48.9422 9.42102 50.6431 7.33767 51.981C7.68258 51.9796 9.23605 51.8558 9.33062 51.8238C10.421 53.3133 11.2095 54.9642 12.4779 56.3341C12.7922 56.6734 13.5432 57.608 13.9466 57.6984C14.0522 58.4522 14.8464 58.6872 14.8909 58.747C14.9048 58.7665 14.8728 59.0335 14.9952 59.2185C15.0647 59.3228 15.5223 59.7039 15.5195 59.7428C15.5125 59.8429 14.9256 59.9639 14.8895 60.53H13.998C13.8353 60.6496 13.8534 60.7358 13.8409 60.74C13.3583 60.5787 13.4695 60.6134 13.1065 60.2685C12.2902 59.4897 7.60052 52.8794 5.65763 51.5095C7.5282 49.0312 11.3486 43.8478 13.998 42.4877C15.1009 41.9216 15.0367 42.293 15.0993 42.2777H15.1023Z"
        fill="#1AB4AF" />
    <path
        d="M20.2425 60.2171C20.3913 60.7261 20.3677 61.2699 20.3468 61.79C20.3232 62.3908 20.3343 63.3073 19.9268 63.363C19.4039 62.6745 17.6126 61.0515 17.3038 60.53C17.2649 60.466 17.4707 60.3784 17.4081 60.2671C16.6669 58.9473 16.1829 57.6219 15.6252 56.2284C17.1383 52.6207 17.6543 48.7322 18.7725 45.0036C18.7864 45.0189 18.9185 44.9062 19.0868 45.2664C19.6584 50.2328 19.9101 55.227 20.2411 60.2157L20.2425 60.2171Z"
        fill="#1AB4AF" />
    <path
        d="M16.6752 43.852C17.2287 44.4389 17.6251 45.2163 18.3539 45.635C18.2732 45.7726 17.9408 46.3887 17.7767 46.3693C17.3191 45.6795 15.1482 43.005 15.1023 42.4877C15.6029 42.7617 16.2733 43.4237 16.6752 43.852Z"
        fill="#0D756F" />
    <path
        d="M18.6682 44.9006C18.6529 45.1941 18.4929 45.3971 18.3539 45.635C17.6251 45.2163 17.2287 44.4389 16.6752 43.852C17.1995 44.2484 18.2788 44.6016 18.6682 44.9006Z"
        fill="#045F62" />
    <path
        d="M28.32 44.9006C28.0905 46.1676 28.9862 49.8962 29.3686 51.4052C29.4966 52.7403 29.7205 54.063 29.8929 55.3911C29.9653 55.9502 30.0292 56.5107 30.1029 57.0698C30.217 57.9418 30.1892 58.8597 30.5229 59.6927C30.2629 60.046 30.0696 60.3923 29.7887 60.7414L28.53 54.0796C27.5871 51.835 26.7137 49.5444 26.4314 47.1036C27.448 46.2177 27.8402 44.8241 28.32 44.9006Z"
        fill="#1AB4AF" />
    <path
        d="M28.9486 43.7463C28.9625 44.9396 33.2168 52.1534 33.6688 52.3481C32.4802 53.9216 31.2911 55.495 30.1015 57.0684C30.0278 56.5093 29.9639 55.9488 29.8915 55.3897C30.3825 52.7056 31.5118 52.3203 29.3672 51.4038C28.9848 49.8949 28.0877 46.1662 28.3186 44.8992C28.345 44.7532 28.5105 43.9507 28.5286 43.9021C28.6134 43.6837 28.8582 43.7839 28.9486 43.7449V43.7463Z"
        fill="#007358" />
    <path
        d="M27.0614 61.58C27.0614 61.6259 27.2574 61.2003 27.0613 62.3143C26.8109 62.3978 26.7163 61.797 26.8512 61.58L27.0614 61.58Z"
        fill="#D6EFF3" />
    <path
        d="M14.8922 60.5314H16.7809C16.2561 60.5842 15.7318 60.6366 15.2079 60.6885L16.7294 60.7414C17.4164 61.2991 17.2718 61.6426 17.3066 61.6857C16.5041 60.4841 15.1884 61.1906 13.845 60.7414C13.8575 60.7372 13.8394 60.651 14.0021 60.5314H14.8936H14.8922Z"
        fill="#221E1F" />
    <path
        d="M15.6265 56.2311C16.1856 57.6247 16.6682 58.9515 17.4095 60.2699C17.4721 60.3812 17.2662 60.4674 17.3052 60.5328H14.8922C14.9284 59.9681 15.5139 59.8457 15.5222 59.7456C15.525 59.7067 15.0675 59.3256 14.9979 59.2213C14.8741 59.0349 14.9075 58.7679 14.8936 58.7498C16.1981 57.1518 14.8213 57.8945 13.9493 57.7012C13.546 57.6122 12.795 56.6762 12.4806 56.3368C11.7816 54.5363 11.082 52.7352 10.382 50.9337C10.2874 50.86 9.51415 51.7626 9.33336 51.8252C9.23878 51.8572 7.6853 51.981 7.3404 51.9824C9.42375 50.6431 11.2484 48.9436 12.6378 46.895C13.2915 50.1271 14.4055 53.1812 15.6279 56.2311H15.6265Z"
        fill="#068281" />
    <path
        d="M12.4793 56.3355C11.2123 54.9642 10.4224 53.3133 9.33201 51.8252C9.5142 51.7626 10.2861 50.86 10.3806 50.9337C11.0797 52.7343 11.7793 54.5353 12.4793 56.3368V56.3355Z"
        fill="#D4E0B5" />
    <path
        d="M14.8923 58.7484C14.8477 58.6886 14.0536 58.4536 13.9479 57.6998C14.8199 57.8931 16.1968 57.1504 14.8923 58.7484Z"
        fill="#41A197" />
    <path
        d="M29.8929 55.3911C29.7205 54.063 29.4966 52.7389 29.3686 51.4052C31.5132 52.3217 30.3853 52.707 29.8929 55.3911Z"
        fill="#D2E2D6" />
    <path
        d="M34.0901 17.1008C33.8842 17.2579 33.6828 17.4763 33.4602 17.6251C32.9902 17.2677 29.6591 16.2274 28.897 16.0521C24.7177 15.0856 17.3732 14.5974 13.3191 15.9478C10.2094 16.9839 9.84776 19.6556 9.64749 22.6624C9.62802 22.9531 9.45278 24.3285 9.59464 24.4454C13.0256 23.9141 11.4402 22.9128 12.0076 22.6624C12.5528 22.4218 22.8235 22.5901 23.6524 24.1311C25.0084 23.3717 26.7232 23.4885 27.954 24.4454C28.2753 24.4843 28.6995 23.7416 29.527 23.6067C29.8149 23.5595 34.8313 23.5608 35.3487 23.6067C36.3612 23.6971 37.2874 23.896 38.1817 24.3411C38.4557 26.5649 37.2819 27.0725 37.2374 27.2255C36.9773 28.1198 37.6979 30.2643 36.0832 30.8443C35.8537 30.9263 35.4852 30.9249 35.2446 30.9486C34.7509 30.9986 32.6578 30.9972 32.1501 30.9486C26.2283 30.3881 29.4799 25.1241 26.0656 24.864C22.7444 24.6109 24.5344 29.1461 22.184 30.4242C20.9796 31.0779 15.6891 30.7441 14.4208 30.0042C12.9424 29.142 12.3443 26.5093 12.0078 24.9683C11.9188 25.1102 11.8367 25.0573 11.7449 25.0726C11.5767 25.1032 8.66005 26.2255 8.59746 26.3841L8.49316 30.0557C8.42362 30.1544 7.52241 30.1099 7.33883 30.1085C6.56418 28.9834 7.76023 26.391 4.61155 26.0169C4.06915 25.953 4.21379 25.9112 4.19154 25.9126C3.74372 23.0922 3.31536 19.1174 4.19154 16.3664C4.66023 14.8964 6.24847 12.2331 8.126 13.0092C10.1176 9.56564 14.3663 11.8576 15.1549 11.7505C15.3635 11.7227 16.7251 10.6755 17.1479 10.4919L19.8751 12.3805C21.8685 12.0662 23.862 11.7514 25.8554 11.4362C28.7732 11.1455 35.912 13.2762 34.0901 17.1008Z"
        fill="#27171D" />
    <path
        d="M14.6821 26.9626C16.2328 29.1169 20.2395 28.3117 19.088 25.914C19.4357 25.4147 17.999 24.6874 17.5665 24.6554C16.2258 24.5539 15.8002 25.7388 15.3635 25.1797C15.3037 25.5343 14.1953 26.0503 14.1049 26.0183C13.8434 25.9293 14.0145 25.1491 13.6334 25.1797C13.5848 24.946 13.436 23.5066 13.6863 23.3967C14.9116 23.2716 22.4954 23.4468 22.8653 24.6025C21.9655 28.3172 22.6748 30.1169 18.1965 29.8999C14.0423 29.6997 14.1397 27.2172 14.6821 26.9626Z"
        fill="#EA7B58" />
    <path
        d="M19.088 25.9126C18.3189 24.3119 14.8754 24.5831 15.4164 27.4341C15.2565 27.5301 14.9811 26.9821 14.7864 26.9626V25.9655C14.6376 25.711 14.0284 27.0795 13.6321 25.1783C14.0145 25.1477 13.8421 25.9279 14.1035 26.0169C14.1953 26.0475 15.3038 25.5315 15.3622 25.1783C15.7989 25.7374 16.2244 24.5525 17.5651 24.654C17.9976 24.686 19.4343 25.4133 19.0866 25.9126H19.088Z"
        fill="#FBB16F" />
    <path
        d="M36.3974 26.7526C36.1179 26.7471 35.9788 25.3174 35.7674 24.4454C35.8536 24.4662 36.0024 24.6109 36.4489 24.5497C36.8424 25.2715 36.4669 26.0211 36.396 26.7526H36.3974Z"
        fill="#E5E5ED" />
    <path
        d="M19.088 25.9126C20.2395 28.3103 16.2327 29.1155 14.6821 26.9612C14.7015 26.9529 14.7599 26.9585 14.7864 26.9612C14.9811 26.9821 15.2564 27.5287 15.4164 27.4327C14.8754 24.5817 18.3189 24.3105 19.088 25.9112L19.088 25.9126Z"
        fill="#2B1712" />
    <path
        d="M18.1964 26.2283C18.8945 26.0155 19.0447 27.1671 18.5107 27.277C18.0392 27.3757 17.6442 26.3966 18.1964 26.2283Z"
        fill="#FAF4F2" />
    <path
        d="M16.7278 25.3883C16.8237 25.3702 17.2896 25.3675 17.3049 25.4412C14.9671 27.1254 16.2076 25.4871 16.7278 25.3883Z"
        fill="#F9D5A6" />
    <path
        d="M35.7674 24.444C35.9774 25.3174 36.1178 26.7457 36.3974 26.7512C36.3278 27.4605 36.2708 28.9792 35.8731 29.5314C35.0845 30.6245 31.5144 30.2782 30.47 29.5842C29.3879 28.8638 27.8692 24.6289 29.7356 24.234C30.349 24.1046 35.0344 24.2673 35.7674 24.444Z"
        fill="#EA7B58" />
    <path
        d="M30.4172 27.9056C30.3547 27.3159 30.541 26.8305 30.9416 26.3841C30.5521 26.2436 30.1335 27.1406 30.2072 27.6956C28.6802 28.4786 30.8831 24.6164 33.1974 26.1226C35.7786 27.8026 30.7121 30.6648 30.4172 27.9056Z"
        fill="#2B1712" />
    <path
        d="M30.4172 27.9056C30.1641 27.9362 30.2295 27.8597 30.2072 27.6956C30.1335 27.1406 30.5521 26.2436 30.9416 26.3841C30.541 26.8305 30.3547 27.3159 30.4172 27.9056Z"
        fill="#ECD196" />
    <path
        d="M32.4632 26.8569C33.0904 26.5677 33.9263 27.7748 33.1975 28.0113C32.5244 28.2296 31.9778 27.0808 32.4632 26.8569Z"
        fill="#FAF4F2" />
    <circle cx="27.5" cy="44.8" r="24.5" fill="#EAEEFB" stroke="#2F55D3" stroke-width="4" />
    <mask id="mask0_181_657" style="mask-type:alpha" maskUnits="userSpaceOnUse" x="1" y="18" width="53" height="54">
        <circle cx="27.5" cy="44.8" r="23" fill="#EAEEFB" stroke="#2F55D3" stroke-width="7" />
    </mask>
    <g mask="url(#mask0_181_657)">
        <path
            d="M28.4241 1.05002L28.5284 0.945716C31.6062 1.96514 35.1387 4.48102 34.9801 8.07892C35.606 6.95518 36.2833 5.81615 36.4488 4.51162C38.2109 7.13598 39.7643 11.0871 37.1831 13.6378C37.1302 13.6906 36.4975 13.877 35.9773 14.5293C35.1303 15.5904 35.5392 15.9896 34.0887 17.0994C35.9106 13.2748 28.7718 11.1441 25.854 11.4348C23.8606 11.7491 21.8671 12.0639 19.8737 12.3791L17.1464 10.4905C16.7236 10.6741 15.3621 11.7213 15.1535 11.7491C14.3649 11.8576 10.1162 9.56425 8.12458 13.0078C6.24845 12.2303 4.65881 14.895 4.19013 16.3651C3.93562 16.2399 3.70614 16.08 3.45581 15.945C0.939924 14.5835 -1.90557 13.8798 1.72431 11.2248C4.14145 9.45716 4.52391 10.2777 7.02171 11.172C6.15944 9.66994 5.29022 8.13594 4.03158 6.9232C7.72266 6.75074 9.84912 7.05671 13.0534 8.91615C12.1355 7.25976 11.1189 5.65204 9.90615 4.19592C12.543 4.45877 16.3231 3.99704 18.4037 5.56025C18.7305 4.18897 19.6025 2.26972 18.1937 1.25864C17.6151 0.8428 15.5735 0.396366 17.0393 0.524316C19.4954 0.739884 22.7512 2.77734 23.7539 5.14024C24.8944 2.37402 25.6287 1.53123 23.8068 0.104307V0C26.9777 0.970749 28.9192 3.23073 28.8942 6.60888C30.1167 3.58955 31.0276 2.70085 28.4227 1.04863L28.4241 1.05002Z"
            fill="#4B172C" />
        <path
            d="M23.7039 84.2396C25.4312 84.1854 27.1683 84.28 28.897 84.2396C30.3406 85.5386 28.1919 85.9906 31.52 85.8126C31.9469 86.6109 31.3044 86.661 32.0971 87.3855C32.3961 88.0336 30.0736 87.793 28.4255 87.8055C25.8178 87.825 23.2171 87.7346 20.6095 87.7012C20.3438 87.9349 20.462 88.8319 20.4523 89.6413C20.4523 89.7262 20.2423 89.6831 20.2423 89.6942C16.3176 89.9571 14.3399 88.7874 12.3748 88.3299C12.1954 87.9697 12.2732 87.4815 12.2705 87.0712C12.2663 86.6206 12.2482 86.1575 12.2705 85.7069C13.2802 85.7458 14.3038 85.6554 15.3121 85.7069C16.7334 85.7806 18.1895 85.9837 19.508 86.5455C19.8654 86.6985 20.1505 86.8682 20.3995 87.1755L20.5566 87.0184V84.3954C20.6192 84.2897 20.8612 84.3648 20.9766 84.3426C21.5051 84.2438 22.2992 84.2689 22.8653 84.2383C23.1128 84.2243 23.3993 84.248 23.7039 84.2383V84.2396Z"
            fill="#121616" />
        <path
            d="M23.5996 45.215C23.5856 45.6878 23.2908 47.7225 23.1795 48.1522C23.0864 48.5111 23.0127 48.9533 22.7081 49.2009C21.7206 47.8671 20.8931 46.4207 20.0336 45.005C21.2019 44.7797 22.4313 45.0801 23.6009 45.215H23.5996Z"
            fill="#F79A6D" />
        <path
            d="M17.305 61.6857C17.3217 61.7066 17.2883 61.7692 17.305 61.79C16.2216 62.42 14.917 63.9888 13.6334 63.4687C13.6167 63.3463 12.3455 61.6704 12.1647 61.4757C12.7057 61.2073 13.2579 60.9027 13.8434 60.7414C15.1882 61.1906 16.5025 60.4841 17.305 61.6857Z"
            fill="#F79A6D" />
        <path
            d="M35.0332 21.7167C35.1028 22.1242 35.182 22.4204 35.2432 22.871C32.6397 21.1701 29.555 22.0088 29.3687 21.7696C30.2504 19.0757 33.4589 20.4775 35.0332 21.7167Z"
            fill="#221E1F" />
        <path
            d="M36.0832 30.8443C37.2667 38.0484 28.3256 40.4906 22.7597 40.2333C22.7027 41.7269 23.056 43.1872 23.7041 44.5349C23.7472 44.9048 23.6039 45.0397 23.5998 45.2164C22.4301 45.0815 21.2007 44.781 20.0325 45.0064C19.7682 44.571 18.4859 42.8576 18.4595 42.6462C18.4136 42.2916 18.9059 41.3959 19.0895 40.9147C19.1618 40.7242 19.6625 39.9565 19.4567 39.7604C15.3692 39.0289 12.1204 37.7216 9.33335 34.5673C9.05381 34.2502 8.87858 33.7857 8.59903 33.4658C8.88136 33.2878 8.34592 32.9527 8.44188 32.8358C8.53367 32.726 10.7185 31.9012 11.0648 31.6815C12.0342 37.6937 17.9936 38.5866 23.0768 38.8147C26.8361 38.9844 32.5562 38.6923 35.036 35.3003C35.9775 34.011 36.7285 30.9152 35.246 30.9472C35.488 30.9221 35.8551 30.9249 36.0846 30.8429L36.0832 30.8443Z"
            fill="#EA7B58" />
        <path
            d="M13.3179 15.9464C12.7574 17.4568 13.1997 21.8697 12.8979 22.2939C12.8242 22.3968 12.1316 22.3092 11.9007 22.451C11.1831 22.8947 12.5168 23.6401 9.80203 24.234C9.74918 23.7092 9.6968 23.1849 9.64487 22.661C9.84514 19.6542 10.2067 16.9826 13.3165 15.9464H13.3179Z"
            fill="#F79A6D" />
        <path
            d="M23.0741 38.8161C17.9922 38.5866 12.0328 37.6937 11.0621 31.6829C10.7158 31.9026 8.5309 32.7273 8.43911 32.8372C8.34315 32.9526 8.87859 33.2878 8.59627 33.4672C8.46414 33.3156 8.31951 32.9679 8.22911 32.9429C7.56711 33.0625 6.62973 33.114 5.9733 33.0472C4.33359 32.8831 1.77738 31.8804 1.14736 30.2142C0.35602 28.1198 2.39905 25.9446 4.18895 25.9126C4.21121 25.9126 4.06518 25.953 4.60896 26.0169C5.41143 26.5858 5.28209 28.7748 5.8676 29.5314C6.20416 29.9667 6.91206 30.1044 7.33624 30.1085C7.51982 30.1099 8.42103 30.1544 8.49057 30.0557L8.59488 26.3841C8.65746 26.2255 11.5739 25.1032 11.7422 25.0726C12.1969 26.2603 12.0676 27.4258 12.5808 28.5871C11.6142 34.8037 15.5654 36.7425 20.8155 38.1861C21.6124 38.4058 23.0435 38.5324 23.0713 38.8161H23.0741Z"
            fill="#F79A6D" />
        <path
            d="M7.33923 30.1099C6.91505 30.1058 6.20715 29.9681 5.87059 29.5328C5.28508 28.7762 5.41442 26.5871 4.61195 26.0183C7.76063 26.3924 6.56458 28.9834 7.33923 30.1099Z"
            fill="#EA7B58" />
        <path
            d="M33.4602 17.6251C34.5798 18.479 34.8204 20.4692 35.0332 21.7167C33.4589 20.4775 30.2504 19.0757 29.3687 21.7696C29.555 22.0088 32.6397 21.1701 35.2432 22.871C35.2752 23.1061 35.4073 23.3049 35.3475 23.6054C34.8301 23.5595 29.8123 23.5581 29.5258 23.6054C28.6983 23.7403 28.2741 24.4829 27.9528 24.444C26.722 23.4871 25.0086 23.3703 23.6512 24.1297C22.8223 22.5887 12.5516 22.4204 12.0064 22.661C11.439 22.9114 13.0244 23.9127 9.59343 24.444C9.45157 24.3272 9.62681 22.9503 9.64628 22.661C9.69913 23.1858 9.75151 23.7101 9.80344 24.234C12.5168 23.6401 11.1845 22.8947 11.9021 22.451C12.1316 22.3092 12.8256 22.3968 12.8993 22.2939C13.2011 21.8697 12.7588 17.4568 13.3193 15.9464C17.3747 14.596 24.7179 15.0842 28.8972 16.0508C29.6593 16.2274 32.9916 17.2663 33.4602 17.6237V17.6251Z"
            fill="#F79A6D" />
        <path
            d="M16.0982 19.1994C17.4222 19.0729 21.7391 19.3774 21.1856 20.6152C21.0159 20.9949 16.2804 19.7738 13.2652 22.241C13.0496 20.0395 13.9954 19.3997 16.0982 19.1994Z"
            fill="#221E1F" />
        <path
            d="M35.2432 30.9486C36.7257 30.9166 35.9747 34.0138 35.0332 35.3016C32.5535 38.6937 26.8333 38.9858 23.0741 38.8161C23.0462 38.5338 21.6165 38.4058 20.8182 38.1861C15.5681 36.7425 11.617 34.8037 12.5836 28.5871C12.069 27.4258 12.1997 26.2603 11.7449 25.0726C11.8353 25.0559 11.9174 25.1102 12.0078 24.9683C12.3443 26.5079 12.9424 29.142 14.4208 30.0042C15.6891 30.7441 20.9796 31.0779 22.184 30.4242C24.5344 29.1475 22.7444 24.6109 26.0656 24.864C29.4799 25.1241 26.2283 30.3881 32.1501 30.9486C32.6578 30.9972 34.7509 30.9986 35.2446 30.9486H35.2432Z"
            fill="#F79A6D" />
        <path
            d="M30.1031 32.8372C30.0224 33.349 29.9542 34.0041 29.683 34.463C28.3785 36.6771 22.5693 36.8398 20.8712 32.7315C24.241 34.2266 26.6595 34.7064 30.1031 32.8358V32.8372Z"
            fill="#FAF4F2" />
        <path
            d="M30.1031 32.8372C26.6595 34.7064 24.241 34.228 20.8712 32.7329C20.6737 32.6453 20.7307 32.5368 20.3469 32.5758C20.7321 32.1265 22.3134 33.0931 24.1756 33.2572C25.5845 33.3824 27.7123 33.2392 29.1059 32.9429C29.3646 32.8873 29.7734 32.4506 30.3117 32.5758C30.3548 32.7913 30.1281 32.6717 30.1017 32.8386L30.1031 32.8372Z"
            fill="#EA7B58" />
        <path
            d="M27.4799 63.05C27.2726 63.3018 27.0446 63.477 26.8499 63.7315C26.8276 63.9499 26.8818 64.2016 26.8499 64.413C26.5981 66.0499 26.6371 67.7883 26.4298 69.4489C26.409 69.6186 26.4521 69.8036 26.4298 69.9732C25.8165 74.7894 24.359 79.4332 23.7026 84.2396C23.3966 84.2494 23.1115 84.2257 22.8639 84.2396C22.9947 80.6584 23.0281 77.0675 23.1783 73.4863C23.2255 72.3431 23.729 67.4573 23.7026 67.1389C24.9918 65.9567 26.224 64.6577 26.9542 63.0472C26.9736 63.509 27.1489 63.0778 27.4785 63.0472L27.4799 63.05Z"
            fill="#045F62" />
        <path
            d="M19.508 63.4686C19.2809 64.4477 19.0537 65.4268 18.8266 66.4059L23.5468 66.5102C23.5746 66.8524 23.7012 67.1069 23.7039 67.1403C23.7304 67.4573 23.2269 72.3431 23.1796 73.4877C23.0294 77.0675 22.996 80.6584 22.8653 84.241C22.2993 84.2716 21.5052 84.2466 20.9767 84.3453C21.3828 79.614 21.6901 74.8311 21.711 70.0789C21.7152 69.1179 21.7082 68.1555 21.711 67.1945C20.7143 67.1416 19.7176 67.0892 18.7209 67.0373C18.547 67.1263 18.0269 69.9718 17.9337 70.3946C17.4427 72.6143 16.9741 74.8729 16.5693 77.1092C16.0534 79.9617 15.5833 82.8238 15.3107 85.711C14.3024 85.6596 13.2788 85.75 12.2691 85.711C12.5514 79.8365 12.8769 73.9647 13.1077 68.0874L13.6321 63.4714C14.9157 63.9916 16.2203 62.4242 17.3037 61.7928C17.7724 62.3574 18.5456 62.7135 18.9295 63.3657C19.1228 63.4798 19.3078 63.4408 19.5066 63.47L19.508 63.4686Z"
            fill="#0A4146" />
        <path
            d="M26.8512 61.58C26.7163 61.797 26.8109 62.3978 27.0613 62.3143C27.0056 62.6272 27.1683 63.0319 26.9569 63.0486C26.2268 64.6591 24.9932 65.9581 23.7054 67.1403C23.7026 67.1069 23.576 66.8524 23.5482 66.5102L18.828 66.4059C19.0551 65.4268 19.2823 64.4477 19.5094 63.4686C19.5206 63.47 19.4774 63.2559 19.5623 63.2586C19.7639 63.2642 19.6833 63.3977 19.9294 63.363C20.3355 63.3059 20.3258 62.3908 20.3495 61.79C22.5288 61.7497 24.7011 61.9291 26.854 61.58H26.8512Z"
            fill="#0A4146" />
        <path
            d="M26.8513 64.413C26.8833 64.2016 26.829 63.9499 26.8513 63.7315C27.046 63.477 27.2741 63.3018 27.4813 63.05C27.6162 62.8845 27.9611 62.6898 28.1113 62.5257C28.9527 62.7316 27.2935 64.0347 26.8527 64.4144L26.8513 64.413Z"
            fill="#DE8D5B" />
        <path
            d="M19.088 40.9147C18.9044 41.3959 18.4121 42.2916 18.458 42.6462C18.4858 42.8576 19.7667 44.571 20.031 45.0063C20.8918 46.4221 21.718 47.8685 22.7054 49.2023C23.01 48.9547 23.0851 48.5124 23.1769 48.1536C23.3938 47.6321 23.3785 48.0785 23.5969 47.8393C23.6761 47.7517 24.1128 47.0953 24.4355 46.685C24.9946 51.039 25.5541 55.3925 26.1141 59.7456C27.103 60.0307 26.5494 59.416 26.8485 58.8541C26.8804 59.206 26.925 59.5509 26.9528 59.9028L20.2382 60.2171C19.9086 55.2284 19.6555 50.2342 19.0839 45.2678C18.9156 44.9076 18.7835 45.0202 18.7695 45.0049C18.7473 44.9827 18.7529 44.9674 18.6652 44.9006C18.2744 44.6016 17.1966 44.2484 16.6723 43.852C16.269 43.425 15.5986 42.7617 15.0993 42.4877C15.0938 42.4181 15.1021 42.3472 15.0993 42.2777C16.2606 42.0065 16.0158 41.8451 16.8823 41.439C17.3802 41.2068 19.0505 40.1429 19.0852 40.9147H19.088Z"
            fill="#D2E2D6" />
        <path
            d="M25.697 45.2149C25.4564 45.3206 25.3354 45.5557 25.1727 45.7393C24.896 46.0522 24.6915 46.3623 24.4384 46.6836C24.1144 47.0938 23.6791 47.7503 23.5998 47.8379C23.9516 46.6321 24.7458 45.411 25.3827 44.2706C25.5621 44.4778 25.6303 44.9173 25.697 45.2149Z"
            fill="#045C4F" />
        <path
            d="M26.8513 58.8527C26.5523 59.4146 27.1059 60.0293 26.117 59.7442C25.5579 55.3902 24.9984 51.0366 24.4384 46.6836C24.6915 46.3623 24.896 46.0522 25.1727 45.7393C25.9752 50.0409 26.4494 54.476 26.8513 58.8527Z"
            fill="#B6D4CD" />
        <path
            d="M26.9556 59.9027C27.0057 60.5244 27.0613 60.9291 27.0599 61.5814H26.8499C24.697 61.9291 22.5247 61.7511 20.3453 61.7914C20.3662 61.2712 20.3885 60.7261 20.241 60.2184L26.9556 59.9041V59.9027Z"
            fill="#802819" />
        <path
            d="M34.7189 52.3495C34.5743 52.4942 33.7357 52.3774 33.6703 52.3495C33.2183 52.1548 28.964 44.9396 28.9501 43.7477C29.046 43.7046 29.2505 43.642 29.2644 43.5377C31.8401 45.0606 33.4798 49.657 34.7189 52.3495Z"
            fill="#03A27E" />
        <path
            d="M34.7189 52.3495C34.8163 53.3495 31.9805 57.4856 31.2573 58.5384C31.0069 58.9028 30.7774 59.3478 30.5229 59.6927C30.1905 58.8597 30.2184 57.9418 30.1029 57.0698C31.2916 55.4964 32.4807 53.923 33.6703 52.3495C33.7357 52.3774 34.5743 52.4942 34.7189 52.3495Z"
            fill="#045C4F" />
        <path
            d="M29.2644 43.5377C29.2505 43.642 29.046 43.7046 28.9501 43.7477C28.861 43.788 28.6162 43.6879 28.53 43.9049C28.5119 43.9521 28.3464 44.756 28.32 44.902C27.8402 44.8255 27.448 46.2191 26.4314 47.105C25.9794 47.4721 25.8542 45.9145 25.697 45.2163C25.6303 44.9187 25.5621 44.4792 25.3827 44.272C25.5079 44.0481 26.0253 43.5919 26.0127 43.3805C25.8472 43.1552 24.8626 42.0176 25.1213 41.859C26.448 42.5419 28.0516 42.8201 29.2644 43.5377Z"
            fill="#1AB4AF" />
        <path
            d="M26.4314 47.1036C26.7123 49.5444 27.5857 51.835 28.53 54.0796L29.7887 60.7414C29.281 61.3728 28.658 61.9235 28.11 62.5243C27.9598 62.6884 27.6163 62.8845 27.48 63.0486C27.1504 63.0792 26.9752 63.5104 26.9557 63.0486C27.1671 63.032 27.0058 62.6272 27.06 62.3143C27.2561 61.2003 27.06 61.6259 27.06 61.58C27.06 60.9277 27.0044 60.523 26.9557 59.9014C26.9279 59.5481 26.8833 59.2046 26.8513 58.8527C26.4494 54.4774 25.9752 50.0423 25.1727 45.7393C25.3354 45.5543 25.4564 45.3206 25.697 45.2149C25.8542 45.9131 25.9794 47.4708 26.4314 47.1036Z"
            fill="#059289" />
        <path
            d="M13.8434 60.7414C13.2579 60.9027 12.7057 61.2087 12.1647 61.4757C12.1216 61.4298 12.0134 61.587 12.0078 61.58C9.43629 58.7832 6.88564 55.9655 5.03176 52.611C4.96361 52.2897 5.20838 52.0881 5.24176 51.9295C5.42812 51.853 5.54773 51.6611 5.66177 51.5095C7.60466 52.8808 12.2929 59.4897 13.1107 60.2685C13.4737 60.6148 13.3624 60.5787 13.845 60.74L13.8434 60.7414Z"
            fill="#059289" />
        <path
            d="M16.8852 41.439C16.0188 41.8451 16.2636 42.0065 15.1023 42.2777C15.0397 42.2916 15.1037 41.9216 14.0008 42.4877C11.3514 43.8478 7.53098 49.0312 5.66041 51.5095C5.54637 51.6611 5.42677 51.8517 5.2404 51.9295C5.38922 51.2147 5.83982 50.2731 6.18473 49.6223C7.30985 47.4986 10.6713 42.9452 13.1608 42.3834C14.4097 42.1914 16.436 41.0413 16.8852 41.439Z"
            fill="#36BFC2" />
        <path
            d="M17.3052 60.5314C17.6139 61.0515 19.4038 62.6759 19.9282 63.3643C19.682 63.3991 19.7627 63.2656 19.561 63.26C19.4762 63.2573 19.5193 63.4714 19.5082 63.47C19.3093 63.4408 19.1257 63.4784 18.931 63.3657C18.5471 62.7121 17.7739 62.356 17.3052 61.7928C17.2885 61.7719 17.3219 61.7093 17.3052 61.6885C17.2704 61.6454 17.4151 61.3018 16.728 60.7442L15.2065 60.6913C15.7313 60.6385 16.2556 60.5861 16.7795 60.5342H17.3038L17.3052 60.5314Z"
            fill="#0C2F32" />
        <path
            d="M15.1023 42.2777C15.1051 42.3472 15.0967 42.4181 15.1023 42.4877C15.1496 43.005 17.3191 45.6795 17.7767 46.3693C17.9408 46.3887 18.2732 45.7726 18.3539 45.635C18.4943 45.3971 18.6543 45.1941 18.6682 44.9006C18.7558 44.9688 18.7516 44.9827 18.7725 45.0049C17.6543 48.7336 17.1383 52.6221 15.6252 56.2298C14.4027 53.1784 13.2901 50.1257 12.6351 46.8936C11.2457 48.9422 9.42102 50.6431 7.33767 51.981C7.68258 51.9796 9.23605 51.8558 9.33062 51.8238C10.421 53.3133 11.2095 54.9642 12.4779 56.3341C12.7922 56.6734 13.5432 57.608 13.9466 57.6984C14.0522 58.4522 14.8464 58.6872 14.8909 58.747C14.9048 58.7665 14.8728 59.0335 14.9952 59.2185C15.0647 59.3228 15.5223 59.7039 15.5195 59.7428C15.5125 59.8429 14.9256 59.9639 14.8895 60.53H13.998C13.8353 60.6496 13.8534 60.7358 13.8409 60.74C13.3583 60.5787 13.4695 60.6134 13.1065 60.2685C12.2902 59.4897 7.60052 52.8794 5.65763 51.5095C7.5282 49.0312 11.3486 43.8478 13.998 42.4877C15.1009 41.9216 15.0367 42.293 15.0993 42.2777H15.1023Z"
            fill="#1AB4AF" />
        <path
            d="M20.2425 60.2171C20.3913 60.7261 20.3677 61.2699 20.3468 61.79C20.3232 62.3908 20.3343 63.3073 19.9268 63.363C19.4039 62.6745 17.6126 61.0515 17.3038 60.53C17.2649 60.466 17.4707 60.3784 17.4081 60.2671C16.6669 58.9473 16.1829 57.6219 15.6252 56.2284C17.1383 52.6207 17.6543 48.7322 18.7725 45.0036C18.7864 45.0189 18.9185 44.9062 19.0868 45.2664C19.6584 50.2328 19.9101 55.227 20.2411 60.2157L20.2425 60.2171Z"
            fill="#1AB4AF" />
        <path
            d="M16.6752 43.852C17.2287 44.4389 17.6251 45.2163 18.3539 45.635C18.2732 45.7726 17.9408 46.3887 17.7767 46.3693C17.3191 45.6795 15.1482 43.005 15.1023 42.4877C15.6029 42.7617 16.2733 43.4237 16.6752 43.852Z"
            fill="#0D756F" />
        <path
            d="M18.6682 44.9006C18.6529 45.1941 18.4929 45.3971 18.3539 45.635C17.6251 45.2163 17.2287 44.4389 16.6752 43.852C17.1995 44.2484 18.2788 44.6016 18.6682 44.9006Z"
            fill="#045F62" />
        <path
            d="M28.32 44.9006C28.0905 46.1676 28.9862 49.8962 29.3686 51.4052C29.4966 52.7403 29.7205 54.063 29.8929 55.3911C29.9653 55.9502 30.0292 56.5107 30.1029 57.0698C30.217 57.9418 30.1892 58.8597 30.5229 59.6927C30.2629 60.046 30.0696 60.3923 29.7887 60.7414L28.53 54.0796C27.5871 51.835 26.7137 49.5444 26.4314 47.1036C27.448 46.2177 27.8402 44.8241 28.32 44.9006Z"
            fill="#1AB4AF" />
        <path
            d="M28.9486 43.7463C28.9625 44.9396 33.2168 52.1534 33.6688 52.3481C32.4802 53.9216 31.2911 55.495 30.1015 57.0684C30.0278 56.5093 29.9639 55.9488 29.8915 55.3897C30.3825 52.7056 31.5118 52.3203 29.3672 51.4038C28.9848 49.8949 28.0877 46.1662 28.3186 44.8992C28.345 44.7532 28.5105 43.9507 28.5286 43.9021C28.6134 43.6837 28.8582 43.7839 28.9486 43.7449V43.7463Z"
            fill="#007358" />
        <path
            d="M27.0614 61.58C27.0614 61.6259 27.2574 61.2003 27.0613 62.3143C26.8109 62.3978 26.7163 61.797 26.8512 61.58L27.0614 61.58Z"
            fill="#D6EFF3" />
        <path
            d="M14.8922 60.5314H16.7809C16.2561 60.5842 15.7318 60.6366 15.2079 60.6885L16.7294 60.7414C17.4164 61.2991 17.2718 61.6426 17.3066 61.6857C16.5041 60.4841 15.1884 61.1906 13.845 60.7414C13.8575 60.7372 13.8394 60.651 14.0021 60.5314H14.8936H14.8922Z"
            fill="#221E1F" />
        <path
            d="M15.6265 56.2311C16.1856 57.6247 16.6682 58.9515 17.4095 60.2699C17.4721 60.3812 17.2662 60.4674 17.3052 60.5328H14.8922C14.9284 59.9681 15.5139 59.8457 15.5222 59.7456C15.525 59.7067 15.0675 59.3256 14.9979 59.2213C14.8741 59.0349 14.9075 58.7679 14.8936 58.7498C16.1981 57.1518 14.8213 57.8945 13.9493 57.7012C13.546 57.6122 12.795 56.6762 12.4806 56.3368C11.7816 54.5363 11.082 52.7352 10.382 50.9337C10.2874 50.86 9.51415 51.7626 9.33336 51.8252C9.23878 51.8572 7.6853 51.981 7.3404 51.9824C9.42375 50.6431 11.2484 48.9436 12.6378 46.895C13.2915 50.1271 14.4055 53.1812 15.6279 56.2311H15.6265Z"
            fill="#068281" />
        <path
            d="M12.4793 56.3355C11.2123 54.9642 10.4224 53.3133 9.33201 51.8252C9.5142 51.7626 10.2861 50.86 10.3806 50.9337C11.0797 52.7343 11.7793 54.5353 12.4793 56.3368V56.3355Z"
            fill="#D4E0B5" />
        <path
            d="M14.8923 58.7484C14.8477 58.6886 14.0536 58.4536 13.9479 57.6998C14.8199 57.8931 16.1968 57.1504 14.8923 58.7484Z"
            fill="#41A197" />
        <path
            d="M29.8929 55.3911C29.7205 54.063 29.4966 52.7389 29.3686 51.4052C31.5132 52.3217 30.3853 52.707 29.8929 55.3911Z"
            fill="#D2E2D6" />
        <path
            d="M34.0901 17.1008C33.8842 17.2579 33.6828 17.4763 33.4602 17.6251C32.9902 17.2677 29.6591 16.2274 28.897 16.0521C24.7177 15.0856 17.3732 14.5974 13.3191 15.9478C10.2094 16.9839 9.84776 19.6556 9.64749 22.6624C9.62802 22.9531 9.45278 24.3285 9.59464 24.4454C13.0256 23.9141 11.4402 22.9128 12.0076 22.6624C12.5528 22.4218 22.8235 22.5901 23.6524 24.1311C25.0084 23.3717 26.7232 23.4885 27.954 24.4454C28.2753 24.4843 28.6995 23.7416 29.527 23.6067C29.8149 23.5595 34.8313 23.5608 35.3487 23.6067C36.3612 23.6971 37.2874 23.896 38.1817 24.3411C38.4557 26.5649 37.2819 27.0725 37.2374 27.2255C36.9773 28.1198 37.6979 30.2643 36.0832 30.8443C35.8537 30.9263 35.4852 30.9249 35.2446 30.9486C34.7509 30.9986 32.6578 30.9972 32.1501 30.9486C26.2283 30.3881 29.4799 25.1241 26.0656 24.864C22.7444 24.6109 24.5344 29.1461 22.184 30.4242C20.9796 31.0779 15.6891 30.7441 14.4208 30.0042C12.9424 29.142 12.3443 26.5093 12.0078 24.9683C11.9188 25.1102 11.8367 25.0573 11.7449 25.0726C11.5767 25.1032 8.66005 26.2255 8.59746 26.3841L8.49316 30.0557C8.42362 30.1544 7.52241 30.1099 7.33883 30.1085C6.56418 28.9834 7.76023 26.391 4.61155 26.0169C4.06915 25.953 4.21379 25.9112 4.19154 25.9126C3.74372 23.0922 3.31536 19.1174 4.19154 16.3664C4.66023 14.8964 6.24847 12.2331 8.126 13.0092C10.1176 9.56564 14.3663 11.8576 15.1549 11.7505C15.3635 11.7227 16.7251 10.6755 17.1479 10.4919L19.8751 12.3805C21.8685 12.0662 23.862 11.7514 25.8554 11.4362C28.7732 11.1455 35.912 13.2762 34.0901 17.1008Z"
            fill="#27171D" />
        <path
            d="M14.6821 26.9626C16.2328 29.1169 20.2395 28.3117 19.088 25.914C19.4357 25.4147 17.999 24.6874 17.5665 24.6554C16.2258 24.5539 15.8002 25.7388 15.3635 25.1797C15.3037 25.5343 14.1953 26.0503 14.1049 26.0183C13.8434 25.9293 14.0145 25.1491 13.6334 25.1797C13.5848 24.946 13.436 23.5066 13.6863 23.3967C14.9116 23.2716 22.4954 23.4468 22.8653 24.6025C21.9655 28.3172 22.6748 30.1169 18.1965 29.8999C14.0423 29.6997 14.1397 27.2172 14.6821 26.9626Z"
            fill="#EA7B58" />
        <path
            d="M19.088 25.9126C18.3189 24.3119 14.8754 24.5831 15.4164 27.4341C15.2565 27.5301 14.9811 26.9821 14.7864 26.9626V25.9655C14.6376 25.711 14.0284 27.0795 13.6321 25.1783C14.0145 25.1477 13.8421 25.9279 14.1035 26.0169C14.1953 26.0475 15.3038 25.5315 15.3622 25.1783C15.7989 25.7374 16.2244 24.5525 17.5651 24.654C17.9976 24.686 19.4343 25.4133 19.0866 25.9126H19.088Z"
            fill="#FBB16F" />
        <path
            d="M36.3974 26.7526C36.1179 26.7471 35.9788 25.3174 35.7674 24.4454C35.8536 24.4662 36.0024 24.6109 36.4489 24.5497C36.8424 25.2715 36.4669 26.0211 36.396 26.7526H36.3974Z"
            fill="#E5E5ED" />
        <path
            d="M19.088 25.9126C20.2395 28.3103 16.2327 29.1155 14.6821 26.9612C14.7015 26.9529 14.7599 26.9585 14.7864 26.9612C14.9811 26.9821 15.2564 27.5287 15.4164 27.4327C14.8754 24.5817 18.3189 24.3105 19.088 25.9112L19.088 25.9126Z"
            fill="#2B1712" />
        <path
            d="M18.1964 26.2283C18.8945 26.0155 19.0447 27.1671 18.5107 27.277C18.0392 27.3757 17.6442 26.3966 18.1964 26.2283Z"
            fill="#FAF4F2" />
        <path
            d="M16.7278 25.3883C16.8237 25.3702 17.2896 25.3675 17.3049 25.4412C14.9671 27.1254 16.2076 25.4871 16.7278 25.3883Z"
            fill="#F9D5A6" />
        <path
            d="M35.7674 24.444C35.9774 25.3174 36.1178 26.7457 36.3974 26.7512C36.3278 27.4605 36.2708 28.9792 35.8731 29.5314C35.0845 30.6245 31.5144 30.2782 30.47 29.5842C29.3879 28.8638 27.8692 24.6289 29.7356 24.234C30.349 24.1046 35.0344 24.2673 35.7674 24.444Z"
            fill="#EA7B58" />
        <path
            d="M30.4172 27.9056C30.3547 27.3159 30.541 26.8305 30.9416 26.3841C30.5521 26.2436 30.1335 27.1406 30.2072 27.6956C28.6802 28.4786 30.8831 24.6164 33.1974 26.1226C35.7786 27.8026 30.7121 30.6648 30.4172 27.9056Z"
            fill="#2B1712" />
        <path
            d="M30.4172 27.9056C30.1641 27.9362 30.2295 27.8597 30.2072 27.6956C30.1335 27.1406 30.5521 26.2436 30.9416 26.3841C30.541 26.8305 30.3547 27.3159 30.4172 27.9056Z"
            fill="#ECD196" />
        <path
            d="M32.4632 26.8569C33.0904 26.5677 33.9263 27.7748 33.1975 28.0113C32.5244 28.2296 31.9778 27.0808 32.4632 26.8569Z"
            fill="#FAF4F2" />
    </g>
</svg>
