<svg width="96" height="29" viewBox="0 0 96 29" fill="none" xmlns="http://www.w3.org/2000/svg">
  <path fill-rule="evenodd" clip-rule="evenodd"
    d="M13.6219 4.1687H19.4839C20.3316 4.1687 20.7554 4.1687 21.1366 4.32657C21.5177 4.48443 21.8174 4.78414 22.4168 5.38356L25.6693 8.63602C26.2687 9.23543 26.5684 9.53514 26.7263 9.91626C26.8841 10.2974 26.8841 10.7212 26.8841 11.5689V17.4309C26.8841 18.2786 26.8841 18.7025 26.7263 19.0836C26.5684 19.4647 26.2687 19.7644 25.6693 20.3638L22.4168 23.6163C21.8174 24.2157 21.5177 24.5154 21.1366 24.6733C20.7554 24.8312 20.3316 24.8312 19.4839 24.8312H13.6219C12.7742 24.8312 12.3504 24.8312 11.9692 24.6733C11.5881 24.5154 11.2884 24.2157 10.689 23.6163L7.43654 20.3638C6.83712 19.7644 6.53741 19.4647 6.37955 19.0836C6.22168 18.7025 6.22168 18.2786 6.22168 17.4309V11.5689C6.22168 10.7212 6.22168 10.2974 6.37955 9.91626C6.53741 9.53514 6.83712 9.23543 7.43654 8.63602L10.689 5.38356C11.2884 4.78414 11.5881 4.48443 11.9692 4.32657C12.3504 4.1687 12.7742 4.1687 13.6219 4.1687ZM9.35006 7.1602C8.74263 7.76763 8.74263 8.74527 8.74263 10.7006V18.2992C8.74263 20.2545 8.74263 21.2321 9.35006 21.8395C9.95749 22.447 10.9351 22.447 12.8904 22.447H20.489C22.4443 22.447 23.422 22.447 24.0294 21.8395C24.6368 21.2321 24.6368 20.2545 24.6368 18.2992V10.7006C24.6368 8.74527 24.6368 7.76763 24.0294 7.1602C23.422 6.55277 22.4443 6.55277 20.489 6.55277H12.8904C10.9351 6.55277 9.95749 6.55277 9.35006 7.1602Z"
    fill="#2A3A62" />
  <path
    d="M36.4493 19.6727C35.3101 19.6727 34.3644 19.4791 33.6122 19.092C32.8601 18.7048 32.3236 18.1629 32.0029 17.466C31.7927 16.9904 31.6766 16.3987 31.6545 15.6908H34.3588C34.3588 16.1332 34.4197 16.4927 34.5413 16.7692C34.851 17.4329 35.5147 17.7647 36.5323 17.7647C37.0079 17.7647 37.4116 17.6928 37.7434 17.549C38.0863 17.3941 38.3186 17.1785 38.4402 16.9019C38.5398 16.6697 38.5896 16.454 38.5896 16.2549C38.5896 16.0447 38.5453 15.8401 38.4568 15.641C38.3573 15.4087 38.1858 15.2152 37.9425 15.0603C37.7102 14.9055 37.4503 14.7838 37.1627 14.6953C36.8751 14.5958 36.4714 14.4741 35.9516 14.3303L35.205 14.1312C34.4418 13.9321 33.8003 13.6777 33.2804 13.368C32.7716 13.0473 32.4066 12.638 32.1854 12.1403C32.0084 11.7089 31.9199 11.272 31.9199 10.8296C31.9199 10.354 32.025 9.88942 32.2352 9.43593C32.5227 8.78334 33.0315 8.27455 33.7615 7.90954C34.4916 7.54454 35.3654 7.36204 36.3829 7.36204C37.3784 7.36204 38.2246 7.54454 38.9214 7.90954C39.6293 8.26349 40.1381 8.77781 40.4478 9.45252C40.6579 9.95025 40.763 10.5199 40.763 11.1614H38.2246C38.2246 10.7411 38.1637 10.3927 38.0421 10.1162C37.7545 9.50782 37.1683 9.20365 36.2834 9.20365C35.8631 9.20365 35.4981 9.28108 35.1884 9.43593C34.8897 9.57972 34.6796 9.77881 34.5579 10.0332C34.5137 10.1217 34.486 10.2102 34.475 10.2987C34.4639 10.3761 34.4584 10.4646 34.4584 10.5641C34.4584 10.7632 34.486 10.9402 34.5413 11.095C34.6298 11.2941 34.7847 11.4656 35.0059 11.6094C35.2382 11.7421 35.4981 11.8527 35.7857 11.9412C36.0732 12.0297 36.4714 12.1403 36.9802 12.273C37.301 12.3504 37.5111 12.4057 37.6107 12.4389C38.1969 12.5938 38.7002 12.7597 39.1205 12.9367C39.5519 13.1136 39.9279 13.3348 40.2487 13.6003C40.5805 13.8547 40.8349 14.1699 41.0119 14.546C41.1888 14.9663 41.2773 15.4419 41.2773 15.9728C41.2773 16.5148 41.1723 17.0236 40.9621 17.4992C40.6524 18.1961 40.0994 18.7325 39.303 19.1086C38.5177 19.4846 37.5664 19.6727 36.4493 19.6727ZM51.678 11.1614V22.7254H49.3719V18.4449C48.7856 19.2081 47.9284 19.5897 46.8002 19.5897C46.026 19.5897 45.3568 19.4183 44.7927 19.0754C44.2397 18.7214 43.8194 18.2237 43.5318 17.5822C43.2331 16.8964 43.0838 16.1277 43.0838 15.276C43.0838 14.3911 43.2331 13.6169 43.5318 12.9533C43.8194 12.3117 44.2397 11.814 44.7927 11.46C45.3568 11.1061 46.026 10.9291 46.8002 10.9291C47.9506 10.9291 48.8244 11.3328 49.4216 12.1403V11.1614H51.678ZM47.4805 17.6817C48.0888 17.6817 48.5589 17.4937 48.8907 17.1176C49.2225 16.7305 49.3885 16.183 49.3885 15.4751V15.0437C49.3885 14.3358 49.2225 13.7939 48.8907 13.4178C48.5589 13.0417 48.0888 12.8537 47.4805 12.8537C47.0712 12.8537 46.7173 12.9367 46.4186 13.1026C46.1311 13.2685 45.9154 13.5173 45.7716 13.8492C45.6167 14.1699 45.5393 14.6455 45.5393 15.276C45.5393 15.8733 45.6167 16.3434 45.7716 16.6863C45.9264 17.007 46.1477 17.2559 46.4352 17.4329C46.7228 17.5988 47.0712 17.6817 47.4805 17.6817ZM62.0287 11.1614V19.374H59.7225V18.3951C59.1474 19.2026 58.3012 19.6063 57.1841 19.6063C56.2218 19.6063 55.4752 19.3298 54.9443 18.7767C54.4134 18.2126 54.1479 17.4052 54.1479 16.3544V11.1614H56.4541V15.8733C56.4541 16.5038 56.5813 16.9683 56.8357 17.2669C57.0901 17.5545 57.4827 17.6983 58.0136 17.6983C58.5667 17.6983 58.987 17.5379 59.2746 17.2172C59.5732 16.8854 59.7225 16.4042 59.7225 15.7737V11.1614H62.0287ZM71.9249 12.6214C72.1461 13.1302 72.2568 13.7939 72.2568 14.6124V19.374H69.9506V18.4449C69.3644 19.2081 68.4408 19.5897 67.1799 19.5897C66.4941 19.5897 65.9079 19.4736 65.4212 19.2413C64.9345 18.998 64.5916 18.6495 64.3926 18.1961C64.2488 17.8974 64.1769 17.5213 64.1769 17.0679C64.1769 16.6475 64.2432 16.2825 64.376 15.9728C64.6525 15.3645 65.1336 14.9497 65.8194 14.7285C66.5052 14.4962 67.39 14.3801 68.474 14.3801H69.9506V14.2142C69.9506 13.9819 69.9395 13.8049 69.9174 13.6833C69.8953 13.5505 69.8566 13.4178 69.8013 13.2851C69.5911 12.8316 69.1155 12.6048 68.3744 12.6048C67.9984 12.6048 67.6887 12.6601 67.4453 12.7707C67.213 12.8703 67.0416 13.0362 66.931 13.2685C66.8978 13.357 66.8702 13.4455 66.848 13.5339C66.837 13.6114 66.8259 13.6943 66.8149 13.7828H64.4921C64.4921 13.3625 64.5695 12.9698 64.7244 12.6048C64.9788 12.0407 65.4212 11.6204 66.0517 11.3439C66.6821 11.0674 67.4509 10.9291 68.3578 10.9291C69.3091 10.9291 70.0723 11.0674 70.6474 11.3439C71.2336 11.6204 71.6595 12.0463 71.9249 12.6214ZM67.9928 17.8642C68.4463 17.8642 68.8224 17.7868 69.121 17.632C69.4197 17.466 69.6409 17.2338 69.7847 16.9351C69.8953 16.6807 69.9506 16.3434 69.9506 15.9231V15.8069H68.6399C68.109 15.8069 67.6721 15.8512 67.3292 15.9397C66.9974 16.0281 66.7761 16.1885 66.6655 16.4208C66.6102 16.5535 66.5826 16.6918 66.5826 16.8356C66.5826 16.9904 66.6102 17.1397 66.6655 17.2835C66.754 17.4826 66.9144 17.632 67.1467 17.7315C67.39 17.82 67.6721 17.8642 67.9928 17.8642ZM82.9536 7.66068V19.374H80.6972V18.3951C80.1 19.1915 79.2262 19.5897 78.0758 19.5897C77.3016 19.5897 76.6324 19.4183 76.0683 19.0754C75.5153 18.7214 75.095 18.2237 74.8074 17.5822C74.5087 16.8964 74.3594 16.1277 74.3594 15.276C74.3594 14.3911 74.5087 13.6169 74.8074 12.9533C75.095 12.3117 75.5153 11.814 76.0683 11.46C76.6324 11.1061 77.3016 10.9291 78.0758 10.9291C79.1819 10.9291 80.0391 11.3107 80.6475 12.0739V7.66068H82.9536ZM80.6641 15.0437C80.6641 14.3358 80.4981 13.7939 80.1663 13.4178C79.8345 13.0307 79.3644 12.8371 78.7561 12.8371C78.3468 12.8371 77.9929 12.9256 77.6942 13.1026C77.4067 13.2685 77.191 13.5173 77.0472 13.8492C76.8923 14.1699 76.8149 14.6455 76.8149 15.276C76.8149 15.8844 76.8923 16.36 77.0472 16.7028C77.202 17.0236 77.4233 17.2725 77.7108 17.4495C77.9984 17.6154 78.3468 17.6983 78.7561 17.6983C79.3644 17.6983 79.8345 17.5103 80.1663 17.1342C80.4981 16.7471 80.6641 16.1996 80.6641 15.4917V15.0437ZM88.7417 19.6395C87.879 19.6395 87.1601 19.5068 86.5849 19.2413C86.0097 18.9648 85.6005 18.5555 85.3571 18.0135C85.1912 17.6154 85.1083 17.1619 85.1083 16.6531H87.3647C87.3647 16.9628 87.4089 17.2061 87.4974 17.3831C87.6965 17.8255 88.1223 18.0467 88.7749 18.0467C89.3943 18.0467 89.787 17.8698 89.9529 17.5158C90.0082 17.4052 90.0359 17.2891 90.0359 17.1674C90.0359 17.0236 90.0082 16.8964 89.9529 16.7858C89.8865 16.631 89.7704 16.5093 89.6045 16.4208C89.4496 16.3213 89.2284 16.2328 88.9408 16.1553C88.6643 16.0779 88.3657 16.006 88.0449 15.9397C87.4366 15.7959 86.9167 15.6078 86.4853 15.3756C86.065 15.1322 85.7609 14.8004 85.5728 14.3801C85.5175 14.2363 85.4733 14.0925 85.4401 13.9487C85.418 13.8049 85.4069 13.639 85.4069 13.451C85.4069 13.0749 85.4733 12.732 85.606 12.4223C85.8272 11.9467 86.2144 11.5817 86.7674 11.3273C87.3204 11.0619 87.9785 10.9291 88.7417 10.9291C89.5049 10.9291 90.1575 11.0563 90.6995 11.3107C91.2525 11.5541 91.6452 11.9246 91.8775 12.4223C92.0323 12.7652 92.1097 13.1579 92.1097 13.6003H89.9197C89.9197 13.3791 89.881 13.1745 89.8036 12.9864C89.7151 12.7984 89.5768 12.6601 89.3888 12.5717C89.2008 12.4721 88.974 12.4223 88.7086 12.4223C88.4431 12.4223 88.2219 12.461 88.0449 12.5385C87.879 12.6159 87.7629 12.7265 87.6965 12.8703C87.6523 12.9477 87.6301 13.0528 87.6301 13.1855C87.6301 13.3293 87.6523 13.4289 87.6965 13.4842C87.7739 13.639 87.9011 13.7717 88.0781 13.8824C88.2661 13.9819 88.4984 14.0704 88.7749 14.1478C89.0625 14.2252 89.3446 14.2971 89.6211 14.3635C90.3068 14.5405 90.8654 14.7506 91.2968 14.994C91.7281 15.2262 92.0434 15.5581 92.2425 15.9894C92.3641 16.2438 92.425 16.5591 92.425 16.9351C92.425 17.3554 92.3531 17.726 92.2093 18.0467C91.966 18.5776 91.5346 18.9758 90.9152 19.2413C90.3068 19.5068 89.5824 19.6395 88.7417 19.6395Z"
    fill="#2A3A62" />
</svg>