<svg width="76" height="29" viewBox="0 0 76 29" fill="none" xmlns="http://www.w3.org/2000/svg">
  <g clip-path="url(#clip0_1341_4100)">
    <path
      d="M20.9996 21.4128C20.9996 22.1259 20.7475 22.7512 20.3429 23.2307C20.3381 23.2363 20.3348 23.2432 20.3333 23.2506C20.3272 23.2813 20.3533 23.3083 20.3821 23.3008C21.5489 22.9977 22.4923 21.9471 22.4923 20.5673V13.4147C22.4923 11.3004 21.372 9.34662 19.5535 8.28944L12.2105 4.02075L10.7559 4.88839L18.0607 9.13489C19.8793 10.1921 20.9996 12.1458 20.9996 14.2602V21.4128Z"
      fill="url(#paint0_linear_1341_4100)" />
    <path
      d="M20.9996 21.4128C20.9996 22.1259 20.7475 22.7512 20.3429 23.2307C20.3381 23.2363 20.3348 23.2432 20.3333 23.2506C20.3272 23.2813 20.3533 23.3083 20.3821 23.3008C21.5489 22.9977 22.4923 21.9471 22.4923 20.5673V13.4147C22.4923 11.3004 21.372 9.34662 19.5535 8.28944L12.2105 4.02075L10.7559 4.88839L18.0607 9.13489C19.8793 10.1921 20.9996 12.1458 20.9996 14.2602V21.4128Z"
      fill="url(#paint1_linear_1341_4100)" />
    <path
      d="M20.9996 21.4128C20.9996 22.1259 20.7475 22.7512 20.3429 23.2307C20.3381 23.2363 20.3348 23.2432 20.3333 23.2506C20.3272 23.2813 20.3533 23.3083 20.3821 23.3008C21.5489 22.9977 22.4923 21.9471 22.4923 20.5673V13.4147C22.4923 11.3004 21.372 9.34662 19.5535 8.28944L12.2105 4.02075L10.7559 4.88839L18.0607 9.13489C19.8793 10.1921 20.9996 12.1458 20.9996 14.2602V21.4128Z"
      fill="url(#paint2_radial_1341_4100)" fill-opacity="0.2" />
    <path
      d="M20.9996 21.4128C20.9996 22.1259 20.7475 22.7512 20.3429 23.2307C20.3381 23.2363 20.3348 23.2432 20.3333 23.2506C20.3272 23.2813 20.3533 23.3083 20.3821 23.3008C21.5489 22.9977 22.4923 21.9471 22.4923 20.5673V13.4147C22.4923 11.3004 21.372 9.34662 19.5535 8.28944L12.2105 4.02075L10.7559 4.88839L18.0607 9.13489C19.8793 10.1921 20.9996 12.1458 20.9996 14.2602V21.4128Z"
      fill="url(#paint3_radial_1341_4100)" fill-opacity="0.1" />
    <path
      d="M20.9996 21.4128C20.9996 22.1259 20.7475 22.7512 20.3429 23.2307C20.3381 23.2363 20.3348 23.2432 20.3333 23.2506C20.3272 23.2813 20.3533 23.3083 20.3821 23.3008C21.5489 22.9977 22.4923 21.9471 22.4923 20.5673V13.4147C22.4923 11.3004 21.372 9.34662 19.5535 8.28944L12.2105 4.02075L10.7559 4.88839L18.0607 9.13489C19.8793 10.1921 20.9996 12.1458 20.9996 14.2602V21.4128Z"
      fill="#2A3A62" />
    <path
      d="M18.4839 23.0891V15.9365C18.4839 13.8221 17.3636 11.8683 15.5451 10.8112L8.24023 6.56466L9.69484 5.69702L17.0378 9.9657C18.8564 11.0229 19.9767 12.9766 19.9767 15.091V22.2436C19.9767 23.6233 19.0333 24.674 17.8665 24.9771C17.8377 24.9846 17.8116 24.9576 17.8177 24.9269C17.8192 24.9195 17.8225 24.9126 17.8273 24.9069C18.2319 24.4274 18.4839 23.8022 18.4839 23.0891Z"
      fill="url(#paint4_linear_1341_4100)" />
    <path
      d="M18.4839 23.0891V15.9365C18.4839 13.8221 17.3636 11.8683 15.5451 10.8112L8.24023 6.56466L9.69484 5.69702L17.0378 9.9657C18.8564 11.0229 19.9767 12.9766 19.9767 15.091V22.2436C19.9767 23.6233 19.0333 24.674 17.8665 24.9771C17.8377 24.9846 17.8116 24.9576 17.8177 24.9269C17.8192 24.9195 17.8225 24.9126 17.8273 24.9069C18.2319 24.4274 18.4839 23.8022 18.4839 23.0891Z"
      fill="url(#paint5_linear_1341_4100)" />
    <path
      d="M18.4839 23.0891V15.9365C18.4839 13.8221 17.3636 11.8683 15.5451 10.8112L8.24023 6.56466L9.69484 5.69702L17.0378 9.9657C18.8564 11.0229 19.9767 12.9766 19.9767 15.091V22.2436C19.9767 23.6233 19.0333 24.674 17.8665 24.9771C17.8377 24.9846 17.8116 24.9576 17.8177 24.9269C17.8192 24.9195 17.8225 24.9126 17.8273 24.9069C18.2319 24.4274 18.4839 23.8022 18.4839 23.0891Z"
      fill="url(#paint6_radial_1341_4100)" fill-opacity="0.2" />
    <path
      d="M18.4839 23.0891V15.9365C18.4839 13.8221 17.3636 11.8683 15.5451 10.8112L8.24023 6.56466L9.69484 5.69702L17.0378 9.9657C18.8564 11.0229 19.9767 12.9766 19.9767 15.091V22.2436C19.9767 23.6233 19.0333 24.674 17.8665 24.9771C17.8377 24.9846 17.8116 24.9576 17.8177 24.9269C17.8192 24.9195 17.8225 24.9126 17.8273 24.9069C18.2319 24.4274 18.4839 23.8022 18.4839 23.0891Z"
      fill="url(#paint7_radial_1341_4100)" fill-opacity="0.1" />
    <path
      d="M18.4839 23.0891V15.9365C18.4839 13.8221 17.3636 11.8683 15.5451 10.8112L8.24023 6.56466L9.69484 5.69702L17.0378 9.9657C18.8564 11.0229 19.9767 12.9766 19.9767 15.091V22.2436C19.9767 23.6233 19.0333 24.674 17.8665 24.9771C17.8377 24.9846 17.8116 24.9576 17.8177 24.9269C17.8192 24.9195 17.8225 24.9126 17.8273 24.9069C18.2319 24.4274 18.4839 23.8022 18.4839 23.0891Z"
      fill="#2A3A62" />
    <path fill-rule="evenodd" clip-rule="evenodd"
      d="M6.56299 6.57198L8.03416 5.69702L15.3653 9.94639C17.181 10.9988 18.2994 12.9437 18.2994 15.0485V22.2038L18.2992 22.2037C18.2743 24.3429 15.9607 25.6723 14.1079 24.5983L7.46341 20.747L6.56299 20.2385V6.57198ZM16.8091 15.9123V20.0459L11.8723 17.1844V9.64944L13.875 10.8102C15.6906 11.8626 16.8091 13.8075 16.8091 15.9123ZM10.0094 8.56963L10.7546 9.00156V17.8319L10.8328 17.8759L16.8091 21.34V22.1397L10.019 18.2039L10.0094 18.2096V8.56963ZM8.7985 7.86775V18.8889L8.83352 18.909L8.7985 18.9298L16.7999 23.5677C16.7331 23.9376 16.3127 24.1486 15.9708 23.9504L8.05333 19.3612V7.43583L8.7985 7.86775Z"
      fill="url(#paint8_linear_1341_4100)" />
    <path fill-rule="evenodd" clip-rule="evenodd"
      d="M6.56299 6.57198L8.03416 5.69702L15.3653 9.94639C17.181 10.9988 18.2994 12.9437 18.2994 15.0485V22.2038L18.2992 22.2037C18.2743 24.3429 15.9607 25.6723 14.1079 24.5983L7.46341 20.747L6.56299 20.2385V6.57198ZM16.8091 15.9123V20.0459L11.8723 17.1844V9.64944L13.875 10.8102C15.6906 11.8626 16.8091 13.8075 16.8091 15.9123ZM10.0094 8.56963L10.7546 9.00156V17.8319L10.8328 17.8759L16.8091 21.34V22.1397L10.019 18.2039L10.0094 18.2096V8.56963ZM8.7985 7.86775V18.8889L8.83352 18.909L8.7985 18.9298L16.7999 23.5677C16.7331 23.9376 16.3127 24.1486 15.9708 23.9504L8.05333 19.3612V7.43583L8.7985 7.86775Z"
      fill="url(#paint9_linear_1341_4100)" />
    <path fill-rule="evenodd" clip-rule="evenodd"
      d="M6.56299 6.57198L8.03416 5.69702L15.3653 9.94639C17.181 10.9988 18.2994 12.9437 18.2994 15.0485V22.2038L18.2992 22.2037C18.2743 24.3429 15.9607 25.6723 14.1079 24.5983L7.46341 20.747L6.56299 20.2385V6.57198ZM16.8091 15.9123V20.0459L11.8723 17.1844V9.64944L13.875 10.8102C15.6906 11.8626 16.8091 13.8075 16.8091 15.9123ZM10.0094 8.56963L10.7546 9.00156V17.8319L10.8328 17.8759L16.8091 21.34V22.1397L10.019 18.2039L10.0094 18.2096V8.56963ZM8.7985 7.86775V18.8889L8.83352 18.909L8.7985 18.9298L16.7999 23.5677C16.7331 23.9376 16.3127 24.1486 15.9708 23.9504L8.05333 19.3612V7.43583L8.7985 7.86775Z"
      fill="url(#paint10_radial_1341_4100)" fill-opacity="0.2" />
    <path fill-rule="evenodd" clip-rule="evenodd"
      d="M6.56299 6.57198L8.03416 5.69702L15.3653 9.94639C17.181 10.9988 18.2994 12.9437 18.2994 15.0485V22.2038L18.2992 22.2037C18.2743 24.3429 15.9607 25.6723 14.1079 24.5983L7.46341 20.747L6.56299 20.2385V6.57198ZM16.8091 15.9123V20.0459L11.8723 17.1844V9.64944L13.875 10.8102C15.6906 11.8626 16.8091 13.8075 16.8091 15.9123ZM10.0094 8.56963L10.7546 9.00156V17.8319L10.8328 17.8759L16.8091 21.34V22.1397L10.019 18.2039L10.0094 18.2096V8.56963ZM8.7985 7.86775V18.8889L8.83352 18.909L8.7985 18.9298L16.7999 23.5677C16.7331 23.9376 16.3127 24.1486 15.9708 23.9504L8.05333 19.3612V7.43583L8.7985 7.86775Z"
      fill="url(#paint11_radial_1341_4100)" fill-opacity="0.1" />
    <path fill-rule="evenodd" clip-rule="evenodd"
      d="M6.56299 6.57198L8.03416 5.69702L15.3653 9.94639C17.181 10.9988 18.2994 12.9437 18.2994 15.0485V22.2038L18.2992 22.2037C18.2743 24.3429 15.9607 25.6723 14.1079 24.5983L7.46341 20.747L6.56299 20.2385V6.57198ZM16.8091 15.9123V20.0459L11.8723 17.1844V9.64944L13.875 10.8102C15.6906 11.8626 16.8091 13.8075 16.8091 15.9123ZM10.0094 8.56963L10.7546 9.00156V17.8319L10.8328 17.8759L16.8091 21.34V22.1397L10.019 18.2039L10.0094 18.2096V8.56963ZM8.7985 7.86775V18.8889L8.83352 18.909L8.7985 18.9298L16.7999 23.5677C16.7331 23.9376 16.3127 24.1486 15.9708 23.9504L8.05333 19.3612V7.43583L8.7985 7.86775Z"
      fill="#2A3A62" />
  </g>
  <g clip-path="url(#clip1_1341_4100)">
    <path
      d="M27.4133 8.21265H32.893C34.062 8.21265 35.1181 8.48091 36.0612 9.01743C37.0177 9.54118 37.7683 10.3013 38.3129 11.2977C38.8708 12.2941 39.1498 13.4629 39.1498 14.8042C39.1498 16.2349 38.8775 17.4677 38.3328 18.5024C37.7882 19.5244 37.0376 20.3036 36.0812 20.8401C35.138 21.3639 34.0753 21.6257 32.893 21.6257H27.4133V8.21265ZM32.614 19.3455C33.69 19.3455 34.5801 18.9623 35.2841 18.1958C35.9882 17.4294 36.3402 16.2988 36.3402 14.8042C36.3402 13.8845 36.1741 13.0989 35.8421 12.4474C35.51 11.7958 35.0583 11.3104 34.4871 10.9911C33.9291 10.6589 33.3048 10.4929 32.614 10.4929H30.1831V19.3455H32.614Z"
      fill="#2A3A62" />
    <path
      d="M45.2548 13.7218C44.694 13.7218 44.2467 13.9547 43.9129 14.4204C43.5792 14.8862 43.4122 15.4317 43.4122 16.0572V21.626H40.8286V11.5662H43.4122V12.8835C43.6125 12.4577 43.8862 12.1317 44.2334 11.9055C44.5805 11.6793 44.9878 11.5662 45.4551 11.5662H46.6968V13.7218H45.2548Z"
      fill="#2A3A62" />
    <path d="M47.6043 11.4952H49.9384V21.6259H47.6043V11.4952ZM50.0469 7.37451V10.0278H47.532V7.37451H50.0469Z"
      fill="#2A3A62" />
    <path
      d="M54.5007 13.7985H52.563V11.6638H54.5007V10.2999C54.5007 9.35113 54.7481 8.62637 55.2429 8.12563C55.7376 7.62488 56.4453 7.37451 57.3661 7.37451H59.9017V9.50926H58.2525C57.8815 9.50926 57.6066 9.6015 57.428 9.78599C57.2493 9.95729 57.16 10.2472 57.16 10.6557V11.6638H60.1079V13.7985H57.16V21.6259H54.5007V13.7985Z"
      fill="#2A3A62" />
    <path
      d="M64.2749 8.21265V11.6843H66.8157V13.8146H64.2749V18.4105C64.2749 19.1338 64.5864 19.4954 65.2091 19.4954H66.7594V21.6257H64.499C63.6523 21.6257 62.9985 21.389 62.5376 20.9156C62.0893 20.4291 61.8651 19.6861 61.8651 18.6867V13.8146H60.1091V11.6843H61.8651V9.2778L64.2749 8.21265Z"
      fill="#2A3A62" />
  </g>
  <defs>
    <linearGradient id="paint0_linear_1341_4100" x1="6.29218" y1="14.9499" x2="22.3273" y2="13.5901"
      gradientUnits="userSpaceOnUse">
      <stop stop-color="#FF3873" />
      <stop offset="0.473958" stop-color="#711EFF" />
      <stop offset="1" stop-color="#3FE5FF" />
    </linearGradient>
    <linearGradient id="paint1_linear_1341_4100" x1="7.54514" y1="5.02672" x2="19.2216" y2="14.4364"
      gradientUnits="userSpaceOnUse">
      <stop stop-color="#F6F063" />
      <stop offset="1" stop-color="#E07774" stop-opacity="0" />
    </linearGradient>
    <radialGradient id="paint2_radial_1341_4100" cx="0" cy="0" r="1" gradientUnits="userSpaceOnUse"
      gradientTransform="translate(6.97762 11.7045) rotate(66.7022) scale(4.85445 4.0205)">
      <stop offset="0.925861" stop-color="white" />
      <stop offset="1" stop-color="white" stop-opacity="0" />
    </radialGradient>
    <radialGradient id="paint3_radial_1341_4100" cx="0" cy="0" r="1" gradientUnits="userSpaceOnUse"
      gradientTransform="translate(9.29194 9.67745) rotate(60.3203) scale(3.06634 4.08106)">
      <stop offset="0.0864251" stop-color="white" />
      <stop offset="0.94115" stop-color="white" stop-opacity="0" />
    </radialGradient>
    <linearGradient id="paint4_linear_1341_4100" x1="5.82907" y1="15.405" x2="21.8642" y2="14.0452"
      gradientUnits="userSpaceOnUse">
      <stop stop-color="#FF3873" />
      <stop offset="0.473958" stop-color="#711EFF" />
      <stop offset="1" stop-color="#3FE5FF" />
    </linearGradient>
    <linearGradient id="paint5_linear_1341_4100" x1="7.08204" y1="5.48178" x2="18.7585" y2="14.8915"
      gradientUnits="userSpaceOnUse">
      <stop stop-color="#F6F063" />
      <stop offset="1" stop-color="#E07774" stop-opacity="0" />
    </linearGradient>
    <radialGradient id="paint6_radial_1341_4100" cx="0" cy="0" r="1" gradientUnits="userSpaceOnUse"
      gradientTransform="translate(6.51452 12.1596) rotate(66.7022) scale(4.85445 4.0205)">
      <stop offset="0.925861" stop-color="white" />
      <stop offset="1" stop-color="white" stop-opacity="0" />
    </radialGradient>
    <radialGradient id="paint7_radial_1341_4100" cx="0" cy="0" r="1" gradientUnits="userSpaceOnUse"
      gradientTransform="translate(8.82884 10.1325) rotate(60.3202) scale(3.06634 4.08106)">
      <stop offset="0.0864251" stop-color="white" />
      <stop offset="0.94115" stop-color="white" stop-opacity="0" />
    </radialGradient>
    <linearGradient id="paint8_linear_1341_4100" x1="6.29808" y1="14.0986" x2="22.3067" y2="12.7371"
      gradientUnits="userSpaceOnUse">
      <stop stop-color="#FF3873" />
      <stop offset="0.473958" stop-color="#711EFF" />
      <stop offset="1" stop-color="#3FE5FF" />
    </linearGradient>
    <linearGradient id="paint9_linear_1341_4100" x1="7.54903" y1="4.22031" x2="19.1798" y2="13.6206"
      gradientUnits="userSpaceOnUse">
      <stop stop-color="#F6F063" />
      <stop offset="1" stop-color="#E07774" stop-opacity="0" />
    </linearGradient>
    <radialGradient id="paint10_radial_1341_4100" cx="0" cy="0" r="1" gradientUnits="userSpaceOnUse"
      gradientTransform="translate(6.98242 10.8679) rotate(66.6413) scale(4.83469 4.01218)">
      <stop offset="0.925861" stop-color="white" />
      <stop offset="1" stop-color="white" stop-opacity="0" />
    </radialGradient>
    <radialGradient id="paint11_radial_1341_4100" cx="0" cy="0" r="1" gradientUnits="userSpaceOnUse"
      gradientTransform="translate(9.29301 8.84999) rotate(60.2481) scale(3.05465 4.07156)">
      <stop offset="0.0864251" stop-color="white" />
      <stop offset="0.94115" stop-color="white" stop-opacity="0" />
    </radialGradient>
    <clipPath id="clip0_1341_4100">
      <rect width="15.928" height="20.958" fill="white" transform="translate(6.56299 4.021)" />
    </clipPath>
    <clipPath id="clip1_1341_4100">
      <rect width="40.2393" height="14.2514" fill="white" transform="translate(27.4133 7.37427)" />
    </clipPath>
  </defs>
</svg>