<svg width="123" height="36" viewBox="0 0 455 148" fill="none" xmlns="http://www.w3.org/2000/svg">
<path d="M113.3 58.2C110.9 60.6 107.9 62.2 104.7 62.8C109.1 74.6 106.2 88.1 97.2 97.1C91 103.3 82.6 106.6 74.1 106.6C70.3 106.6 66.5 105.9 62.8 104.6C62.2 107.8 60.7 110.8 58.2 113.2C51.7 119.7 41.1 119.7 34.5 113.2C28 106.7 28 96.1 34.5 89.5C36.9 87.1 39.9 85.5 43.1 84.9C38.6 73 41.5 59.4 50.5 50.4C59.5 41.4 73.1 38.5 85 43C85.6 39.9 87.1 36.9 89.6 34.5C96.1 28 106.7 28 113.3 34.5C119.8 41.1 119.8 51.7 113.3 58.2ZM73.9 0C33.1 0 0 33.1 0 73.9C0 114.7 33.1 147.8 73.9 147.8C114.7 147.8 147.8 114.7 147.8 73.9C147.8 33.1 114.7 0 73.9 0ZM82.7 82.6C77.9 87.4 70.2 87.4 65.4 82.6C60.6 77.8 60.6 70.1 65.4 65.3C70.2 60.5 77.9 60.5 82.7 65.3C87.4 70.1 87.4 77.8 82.7 82.6ZM93.6 38.5C91.1 41 89.9 44.6 90.5 48.1C90.7 49.3 90.6 50.4 90.1 51.5C89.4 52.9 88.3 53.9 86.9 54.5C85.5 55 84 55 82.5 54.3C74.5 50.6 64.9 52.3 58.7 58.5C52.5 64.7 50.8 74.3 54.5 82.3C55.2 83.7 55.2 85.3 54.7 86.7C54.2 88 53.2 89.2 51.8 89.8C51 90.2 50.2 90.3 49.4 90.3C49 90.3 48.6 90.2 48.3 90.2C44.6 89.7 41.2 90.8 38.7 93.3C36.6 95.4 35.5 98.2 35.5 101.1C35.5 104.1 36.6 106.8 38.7 108.9C43 113.2 50 113.2 54.3 108.9C56.8 106.4 58 102.8 57.4 99.3C57.4 99.1 57.4 98.9 57.4 98.7C57.3 97.8 57.5 96.8 57.9 95.9C58.6 94.5 59.7 93.5 61.1 93C62.5 92.5 64 92.5 65.5 93.2C73.5 96.9 83.1 95.2 89.3 89C95.5 82.8 97.3 73.2 93.5 65.2C92.8 63.8 92.8 62.2 93.3 60.9C93.8 59.5 94.8 58.3 96.3 57.7C97.3 57.2 98.4 57.1 99.4 57.2C99.6 57.2 99.7 57.2 99.9 57.2C103.4 57.7 106.8 56.6 109.3 54.1C113.6 49.8 113.6 42.8 109.3 38.5C104.9 34.2 97.9 34.2 93.6 38.5ZM290.8 96.4C291.2 96.4 291.5 96.3 291.7 96.3V107.2C289.3 107.7 287.4 107.9 286 107.9C281.4 107.9 277.8 106.7 275.2 104.4C272.6 102.1 271.3 98.4 271.3 93.4V32.5H284.3V91.3C284.3 93 284.6 94.3 285.3 95.2C286 96.1 287.4 96.5 289.4 96.5C290 96.5 290.4 96.4 290.8 96.4ZM298 107.3H311.1V53.5H298V107.3ZM354.1 53.5H367V107.3H356.3L355.4 100.3C354.1 102.9 352.1 105 349.3 106.5C346.5 108 343.4 108.7 340 108.7C334.3 108.7 329.7 106.9 326.4 103.4C323.1 99.9 321.4 95.2 321.4 89.4V53.5H334.3V86.5C334.3 93.3 337.4 96.7 343.6 96.7C346.2 96.7 348.4 95.8 350.2 94C352.8 91.6 354.1 87.6 354.1 81.9V53.5ZM454.3 71V107.3H441.5V73.9C441.5 70.4 440.9 67.8 439.7 66C438.5 64.3 436.3 63.4 433.2 63.4C429.8 63.4 427.2 64.9 425.4 67.8C423.6 70.7 422.7 74.1 422.7 77.9V107.3H409.9V73.9C409.9 70.4 409.3 67.8 408.1 66C406.9 64.3 404.7 63.4 401.6 63.4C398.2 63.4 395.6 64.9 393.7 67.8C391.8 70.7 390.9 74.1 390.9 77.9V107.3H378.1V53.5H388.9L389.9 60.6C393.3 54.9 398.5 52.1 405.2 52.1C412.6 52.1 417.7 55 420.6 60.9C424 55 429.4 52.1 436.8 52.1C442.4 52.1 446.7 53.8 449.7 57.2C452.8 60.7 454.3 65.3 454.3 71ZM297.5 46.1H311.4V32.7H297.5V46.1ZM204.2 57.6C207.4 61.2 209.1 65.8 209.1 71.5V107.4H196.2V74.2C196.2 70.9 195.5 68.4 194.2 66.7C192.9 65 190.6 64.2 187.3 64.2C183.7 64.2 181 65.7 179.1 68.8C177.2 71.9 176.3 75.3 176.3 79.1V107.4H163.4V32.7H176.3V59.3C177.8 57.1 179.9 55.4 182.6 54.1C185.3 52.9 188.1 52.2 191 52.2C196.5 52.2 200.9 54 204.2 57.6ZM228.5 75.1C228.6 71.8 229.5 69 231.3 66.7C233.4 63.9 236.4 62.6 240.3 62.6C243.8 62.6 246.5 63.6 248.5 65.7C250.6 68 251.7 71.2 251.8 75.1H228.5ZM240.4 52.2C233.4 52.2 227.6 54.5 223.2 59C218 64.3 215.4 71.5 215.4 80.5C215.4 89.5 218.2 96.7 223.7 102C228.3 106.4 234 108.6 240.7 108.6C248.5 108.6 254.5 106.1 258.8 101C261.5 97.8 263 94.4 263.4 91.1H251C250.5 92.9 249.7 94.4 248.4 95.7C246.7 97.4 244.1 98.3 240.5 98.3C237.5 98.3 234.9 97.2 232.5 95C229.7 92.4 228.4 88.9 228.6 84.4H264.6C264.6 83.6 264.6 82.4 264.7 80.8C264.9 73.4 263.4 67.1 260 62.1C255.6 55.5 249.1 52.2 240.4 52.2Z" fill="#38A2FF"/>
</svg>
