<svg width="123" height="12" viewBox="0 0 123 12" fill="none" xmlns="http://www.w3.org/2000/svg">
  <g clip-path="url(#clip0_816_3653)">
    <path fill-rule="evenodd" clip-rule="evenodd"
      d="M9.08327 8.11849C9.1588 8.24237 9.14936 8.39961 9.06911 8.51873L7.28946 11.106C7.1384 11.3299 6.80324 11.3156 6.67106 11.0822L0.647626 0.704568C0.501289 0.456802 0.68067 0.147095 0.963904 0.147095H4.18333C4.3155 0.147095 4.43352 0.213801 4.49961 0.328154L9.08327 8.11849ZM17.6983 11.025C17.8399 11.2727 17.6653 11.5824 17.382 11.5824H14.1815C14.0493 11.5824 13.9313 11.511 13.8652 11.3966L7.65766 0.704568C7.51604 0.456802 7.69071 0.147095 7.97394 0.147095H11.1886C11.3208 0.147095 11.4388 0.218566 11.5049 0.332919L17.6936 11.025H17.6983ZM3.18729 11.4824C3.47052 11.4824 3.6499 11.1679 3.50357 10.9202L1.29434 7.16554C1.10552 6.84154 0.609861 6.97495 0.609861 7.35613V11.1107C0.609861 11.3156 0.775081 11.4824 0.978065 11.4824H3.18257H3.18729Z"
      fill="#2A3A62" />
    <path
      d="M23.3438 11.5824H25.249V4.02082L29.6802 11.5824H31.3015L35.7327 4.02082V11.5824H37.6379V0.147095H35.7664L30.4981 9.16673L25.2153 0.147095H23.3438V11.5824Z"
      fill="#2A3A62" />
    <path
      d="M41.3342 11.5824H48.4813V9.71944H43.1804V6.79389H48.4813V4.93088H43.1804V2.0101H48.4813V0.147095H41.3342V11.5824Z"
      fill="#2A3A62" />
    <path d="M55.7581 11.5824H57.6576V2.0101H62.061V0.147095H51.3403V2.0101H55.7581V11.5824Z" fill="#2A3A62" />
    <path
      d="M72.9282 11.5824H74.9257L69.7369 0.147095H67.9644L62.7756 11.5824H64.7685L65.6639 9.59079H72.0145L72.9236 11.5824H72.9282ZM66.5134 7.72778L68.8415 2.58187L71.1696 7.72778H66.5088H66.5134Z"
      fill="#2A3A62" />
    <path
      d="M78.4993 11.5824H80.2834V7.98984H82.5856C84.7797 7.98984 86.3611 6.34124 86.3611 4.06847C86.3611 1.79569 84.7797 0.147095 82.5856 0.147095H78.4993V11.5824ZM80.2834 6.12683V2.0101H82.5856C83.7435 2.0101 84.5725 2.87729 84.5725 4.06847C84.5725 5.25965 83.7435 6.12683 82.5856 6.12683H80.2834Z"
      fill="#2A3A62" />
    <path d="M89.9346 11.5824H97.7964V9.71944H91.938V0.147095H89.9346V11.5824Z" fill="#2A3A62" />
    <path
      d="M100.655 11.5824H107.802V9.71944H102.501V6.79389H107.802V4.93088H102.501V2.0101H107.802V0.147095H100.655V11.5824Z"
      fill="#2A3A62" />
    <path
      d="M110.661 11.5824H113.019L116.388 7.35137L119.738 11.5824H122.096L117.556 5.86477L122.096 0.147095H119.757L116.388 4.37818L113.019 0.147095H110.661L115.202 5.86477L110.661 11.5824Z"
      fill="#2A3A62" />
  </g>
  <defs>
    <clipPath id="clip0_816_3653">
      <rect width="122.215" height="11.4354" fill="white" transform="translate(0.595459 0.147095)" />
    </clipPath>
  </defs>
</svg>
