<svg width="144" height="50" viewBox="0 -2 144 54" fill="none" xmlns="http://www.w3.org/2000/svg">
  <path d="M69.2017 7.5996V19.0614H72.2843V7.5996H76.486V5H65V7.5996H69.2017Z" fill="#283D6D" />
  <path
    d="M78.4887 13.9804C78.4887 13.5734 78.528 13.173 78.6065 12.7791C78.6851 12.3852 78.816 12.0373 78.9992 11.7353C79.1956 11.4333 79.4508 11.1904 79.765 11.0066C80.0791 10.8097 80.4718 10.7112 80.943 10.7112C81.4142 10.7112 81.8069 10.8097 82.1211 11.0066C82.4483 11.1904 82.7036 11.4333 82.8868 11.7353C83.0832 12.0373 83.2206 12.3852 83.2991 12.7791C83.3777 13.173 83.4169 13.5734 83.4169 13.9804C83.4169 14.3874 83.3777 14.7879 83.2991 15.1817C83.2206 15.5625 83.0832 15.9104 82.8868 16.2255C82.7036 16.5275 82.4483 16.7704 82.1211 16.9542C81.8069 17.138 81.4142 17.2299 80.943 17.2299C80.4718 17.2299 80.0791 17.138 79.765 16.9542C79.4508 16.7704 79.1956 16.5275 78.9992 16.2255C78.816 15.9104 78.6851 15.5625 78.6065 15.1817C78.528 14.7879 78.4887 14.3874 78.4887 13.9804ZM75.7007 13.9804C75.7007 14.7944 75.825 15.5297 76.0737 16.1861C76.3224 16.8426 76.6758 17.4072 77.134 17.8798C77.5921 18.3393 78.1419 18.6938 78.7833 18.9433C79.4246 19.1927 80.1446 19.3175 80.943 19.3175C81.7415 19.3175 82.4614 19.1927 83.1028 18.9433C83.7573 18.6938 84.3136 18.3393 84.7717 17.8798C85.2298 17.4072 85.5833 16.8426 85.832 16.1861C86.0807 15.5297 86.205 14.7944 86.205 13.9804C86.205 13.1664 86.0807 12.4312 85.832 11.7747C85.5833 11.1051 85.2298 10.5406 84.7717 10.081C84.3136 9.60837 83.7573 9.24732 83.1028 8.99786C82.4614 8.73528 81.7415 8.60398 80.943 8.60398C80.1446 8.60398 79.4246 8.73528 78.7833 8.99786C78.1419 9.24732 77.5921 9.60837 77.134 10.081C76.6758 10.5406 76.3224 11.1051 76.0737 11.7747C75.825 12.4312 75.7007 13.1664 75.7007 13.9804Z"
    fill="#283D6D" />
  <path
    d="M93.535 17.2299C93.09 17.2299 92.7104 17.138 92.3962 16.9542C92.0821 16.7704 91.8268 16.5341 91.6305 16.2452C91.4473 15.9432 91.3098 15.5953 91.2182 15.2014C91.1397 14.8076 91.1004 14.4071 91.1004 14.0001C91.1004 13.58 91.1397 13.173 91.2182 12.7791C91.2967 12.3852 91.4276 12.0373 91.6109 11.7353C91.8072 11.4333 92.0559 11.1904 92.357 11.0066C92.6711 10.8097 93.0573 10.7112 93.5154 10.7112C93.9604 10.7112 94.3335 10.8097 94.6346 11.0066C94.9487 11.1904 95.2039 11.4399 95.4003 11.755C95.5966 12.057 95.7341 12.4049 95.8126 12.7988C95.9042 13.1927 95.95 13.5931 95.95 14.0001C95.95 14.4071 95.9108 14.8076 95.8322 15.2014C95.7537 15.5953 95.6163 15.9432 95.4199 16.2452C95.2367 16.5341 94.988 16.7704 94.6738 16.9542C94.3728 17.138 93.9932 17.2299 93.535 17.2299ZM88.4105 8.8797V22.626H91.1986V17.801H91.2378C91.5781 18.2999 92.0101 18.6807 92.5337 18.9433C93.0704 19.1927 93.6528 19.3175 94.2811 19.3175C95.0272 19.3175 95.6752 19.173 96.2249 18.8842C96.7878 18.5954 97.2524 18.208 97.619 17.7223C97.9986 17.2365 98.28 16.6785 98.4632 16.0483C98.6465 15.4181 98.7381 14.7616 98.7381 14.0789C98.7381 13.3568 98.6465 12.6675 98.4632 12.011C98.28 11.3414 97.9986 10.7572 97.619 10.2583C97.2394 9.75936 96.7616 9.35892 96.1857 9.05694C95.6097 8.75497 94.9225 8.60398 94.1241 8.60398C93.4958 8.60398 92.9198 8.72871 92.3962 8.97817C91.8727 9.22762 91.4407 9.62807 91.1004 10.1795H91.0611V8.8797H88.4105Z"
    fill="#283D6D" />
  <path d="M65 30.9386V45H75V42.4004H68.0826V30.9386H65Z" fill="#283D6D" />
  <path
    d="M83.5696 38.8161H79.0341C79.0471 38.6192 79.0864 38.396 79.1519 38.1465C79.2304 37.8971 79.3547 37.6607 79.5249 37.4375C79.7082 37.2143 79.9438 37.0305 80.2317 36.8861C80.5328 36.7286 80.9059 36.6498 81.3509 36.6498C82.0315 36.6498 82.5355 36.8336 82.8627 37.2012C83.2031 37.5688 83.4387 38.1071 83.5696 38.8161ZM79.0341 40.5886H86.3576C86.41 39.8008 86.3445 39.0459 86.1613 38.3238C85.978 37.6017 85.677 36.9583 85.2581 36.3938C84.8523 35.8292 84.3288 35.3828 83.6874 35.0546C83.046 34.7132 82.2933 34.5425 81.4294 34.5425C80.6572 34.5425 79.9503 34.6804 79.3089 34.9561C78.6806 35.2318 78.1374 35.6126 77.6793 36.0984C77.2212 36.571 76.8677 37.1356 76.619 37.792C76.3703 38.4485 76.246 39.1575 76.246 39.919C76.246 40.7067 76.3638 41.4288 76.5994 42.0853C76.8481 42.7418 77.195 43.3063 77.64 43.779C78.0851 44.2516 78.6283 44.6193 79.2697 44.8818C79.911 45.1313 80.631 45.256 81.4294 45.256C82.5813 45.256 83.563 44.9934 84.3746 44.4683C85.1861 43.9431 85.7882 43.07 86.1809 41.849H83.7266C83.635 42.1641 83.3863 42.4661 82.9805 42.7549C82.5748 43.0306 82.0905 43.1685 81.5276 43.1685C80.7422 43.1685 80.1401 42.965 79.7213 42.558C79.3024 42.151 79.0733 41.4945 79.0341 40.5886Z"
    fill="#283D6D" />
  <path
    d="M95.6097 39.8796C95.6097 40.2997 95.5704 40.7067 95.4919 41.1006C95.4133 41.4945 95.2824 41.849 95.0992 42.1641C94.9159 42.4661 94.6672 42.7089 94.3531 42.8928C94.052 43.0766 93.6724 43.1685 93.2143 43.1685C92.7823 43.1685 92.4093 43.0766 92.0951 42.8928C91.7941 42.6958 91.5388 42.4464 91.3294 42.1444C91.1331 41.8293 90.9891 41.4748 90.8974 41.0809C90.8058 40.687 90.76 40.2932 90.76 39.8993C90.76 39.4791 90.7993 39.0787 90.8778 38.698C90.9694 38.3041 91.1069 37.9562 91.2901 37.6542C91.4865 37.3522 91.7417 37.1093 92.0559 36.9255C92.37 36.7417 92.7562 36.6498 93.2143 36.6498C93.6724 36.6498 94.052 36.7417 94.3531 36.9255C94.6541 37.1093 94.8963 37.3522 95.0795 37.6542C95.2759 37.943 95.4133 38.2844 95.4919 38.6783C95.5704 39.059 95.6097 39.4594 95.6097 39.8796ZM95.6489 43.7002V45H98.2996V30.9386H95.5115V36.059H95.4722C95.1581 35.5601 94.7261 35.1859 94.1764 34.9364C93.6397 34.6738 93.0703 34.5425 92.4682 34.5425C91.7221 34.5425 91.0676 34.6935 90.5048 34.9955C89.9419 35.2843 89.4707 35.6717 89.0911 36.1574C88.7246 36.6432 88.4432 37.2078 88.2468 37.8511C88.0636 38.4813 87.9719 39.1378 87.9719 39.8205C87.9719 40.5295 88.0636 41.2122 88.2468 41.8687C88.4432 42.5251 88.7246 43.1094 89.0911 43.6214C89.4707 44.1203 89.9485 44.5208 90.5244 44.8228C91.1003 45.1116 91.7679 45.256 92.5271 45.256C93.1947 45.256 93.7902 45.1379 94.3138 44.9015C94.8505 44.6521 95.2824 44.2516 95.6097 43.7002H95.6489Z"
    fill="#283D6D" />
  <path
    d="M105.531 42.5973C105.099 42.5973 104.739 42.5054 104.452 42.3216C104.164 42.1378 103.928 41.9015 103.745 41.6126C103.575 41.3238 103.45 41.0021 103.372 40.6476C103.306 40.28 103.273 39.9124 103.273 39.5448C103.273 39.164 103.313 38.803 103.391 38.4616C103.483 38.1071 103.62 37.7986 103.804 37.536C104 37.2603 104.236 37.0437 104.51 36.8861C104.798 36.7286 105.139 36.6498 105.531 36.6498C105.99 36.6498 106.369 36.7351 106.67 36.9058C106.971 37.0765 107.213 37.3063 107.397 37.5951C107.58 37.8839 107.711 38.2187 107.789 38.5995C107.868 38.9671 107.907 39.361 107.907 39.7811C107.907 40.1487 107.855 40.5032 107.75 40.8446C107.658 41.1728 107.514 41.4682 107.318 41.7308C107.122 41.9934 106.873 42.2035 106.572 42.361C106.271 42.5186 105.924 42.5973 105.531 42.5973ZM110.558 44.3501V34.8183H107.907V36.1771H107.868C107.528 35.5863 107.102 35.1662 106.592 34.9167C106.094 34.6673 105.512 34.5425 104.844 34.5425C104.137 34.5425 103.509 34.6804 102.959 34.9561C102.423 35.2318 101.971 35.606 101.605 36.0787C101.238 36.5382 100.957 37.0765 100.76 37.6936C100.577 38.2975 100.485 38.9277 100.485 39.5842C100.485 40.28 100.564 40.9431 100.721 41.5733C100.891 42.1903 101.153 42.7352 101.506 43.2079C101.86 43.6674 102.311 44.035 102.861 44.3107C103.411 44.5733 104.065 44.7046 104.825 44.7046C105.44 44.7046 106.022 44.5799 106.572 44.3304C107.135 44.0678 107.567 43.6674 107.868 43.1291H107.907V44.4683C107.92 45.1904 107.744 45.7878 107.377 46.2604C107.024 46.7331 106.454 46.9694 105.669 46.9694C105.171 46.9694 104.733 46.8644 104.353 46.6543C103.974 46.4574 103.719 46.0963 103.588 45.5711H100.819C100.858 46.1488 101.016 46.6412 101.29 47.0482C101.578 47.4683 101.932 47.8097 102.351 48.0723C102.783 48.3348 103.254 48.5252 103.764 48.6434C104.288 48.7747 104.798 48.8403 105.296 48.8403C106.461 48.8403 107.39 48.6828 108.084 48.3677C108.778 48.0526 109.308 47.6652 109.674 47.2057C110.041 46.7593 110.276 46.2735 110.381 45.7484C110.499 45.2232 110.558 44.7571 110.558 44.3501Z"
    fill="#283D6D" />
  <path
    d="M120.028 38.8161H115.492C115.506 38.6192 115.545 38.396 115.61 38.1465C115.689 37.8971 115.813 37.6607 115.983 37.4375C116.167 37.2143 116.402 37.0305 116.69 36.8861C116.991 36.7286 117.364 36.6498 117.809 36.6498C118.49 36.6498 118.994 36.8336 119.321 37.2012C119.661 37.5688 119.897 38.1071 120.028 38.8161ZM115.492 40.5886H122.816C122.868 39.8008 122.803 39.0459 122.62 38.3238C122.436 37.6017 122.135 36.9583 121.716 36.3938C121.311 35.8292 120.787 35.3828 120.146 35.0546C119.504 34.7132 118.752 34.5425 117.888 34.5425C117.116 34.5425 116.409 34.6804 115.767 34.9561C115.139 35.2318 114.596 35.6126 114.138 36.0984C113.68 36.571 113.326 37.1356 113.077 37.792C112.829 38.4485 112.704 39.1575 112.704 39.919C112.704 40.7067 112.822 41.4288 113.058 42.0853C113.306 42.7418 113.653 43.3063 114.098 43.779C114.543 44.2516 115.087 44.6193 115.728 44.8818C116.369 45.1313 117.089 45.256 117.888 45.256C119.04 45.256 120.021 44.9934 120.833 44.4683C121.644 43.9431 122.247 43.07 122.639 41.849H120.185C120.093 42.1641 119.845 42.4661 119.439 42.7549C119.033 43.0306 118.549 43.1685 117.986 43.1685C117.201 43.1685 116.598 42.965 116.18 42.558C115.761 42.151 115.532 41.4945 115.492 40.5886Z"
    fill="#283D6D" />
  <path
    d="M124.862 34.8183V45H127.65V40.4113C127.65 39.9518 127.696 39.5251 127.788 39.1312C127.879 38.7373 128.03 38.396 128.239 38.1071C128.462 37.8052 128.75 37.5688 129.103 37.3982C129.457 37.2275 129.889 37.1421 130.399 37.1421C130.569 37.1421 130.746 37.1553 130.929 37.1815C131.113 37.1947 131.27 37.2143 131.4 37.2406V34.641C131.178 34.5754 130.975 34.5425 130.792 34.5425C130.438 34.5425 130.098 34.5951 129.771 34.7001C129.444 34.8051 129.136 34.9561 128.848 35.153C128.56 35.3369 128.305 35.5666 128.082 35.8423C127.86 36.1049 127.683 36.3938 127.552 36.7089H127.513V34.8183H124.862Z"
    fill="#283D6D" />
  <line x1="53" x2="53" y2="50" stroke="#26364F" />
  <path d="M28.75 16.25H11.25V33.75H28.75V16.25Z" fill="#283D6D" />
  <path fill-rule="evenodd" clip-rule="evenodd" d="M0 5H40V45H0V5ZM3.75 8.75H36.25V41.25H3.75V8.75Z" fill="#283D6D" />
</svg>