<svg width="80" height="80" viewBox="0 0 80 80" fill="none" xmlns="http://www.w3.org/2000/svg">
<path d="M63.0941 12C60.6006 12 57.7133 12.6243 53.8232 15.2091C50.881 17.164 47.3273 20.2656 43.8817 23.5824L43.8784 23.5791L39.6796 22.0072L39.9409 21.7453C41.2556 20.3839 41.2634 18.2294 39.9636 16.8612L37.5969 14.4897C36.9099 13.8175 36.0174 13.4811 35.1247 13.4811C34.2322 13.4811 33.3395 13.8174 32.6521 14.4908L29.0968 18.0461L19.253 14.3579C19.0265 14.2386 18.7767 14.1789 18.5269 14.1789C18.1285 14.1789 17.7301 14.3307 17.4259 14.6344L12.4573 19.5948C11.8482 20.2029 11.8475 21.1897 12.4556 21.7987C12.5508 21.8939 12.6563 21.9751 12.7669 22.0406L32.9701 35.0894L32.9734 35.0926C30.2592 38.2619 28.3358 40.8743 26.7666 43.4437L26.7633 43.4405L19.2362 40.6231L19.2312 40.6294L19.2279 40.626C19.0437 40.5531 18.8485 40.5166 18.6532 40.5166C18.2559 40.5166 17.8586 40.6676 17.5545 40.9698L14.3745 44.1308C13.7642 44.7376 13.7612 45.7244 14.3679 46.3348L14.3714 46.3381C14.489 46.4558 14.6206 46.5507 14.7603 46.6236L22.6331 51.7031L22.6364 51.7065C21.8 53.7054 21.0396 55.7091 20.2889 57.685L20.2803 57.7084C20.0665 58.2962 20.2285 58.929 20.6433 59.3438C20.6471 59.3475 20.6508 59.3512 20.6545 59.3549L20.6563 59.3566C20.9471 59.6474 21.3449 59.814 21.7593 59.814C21.9361 59.814 22.1159 59.7836 22.2917 59.7197L22.3151 59.7111C24.291 58.9605 26.2947 58.2001 28.2936 57.3635L28.297 57.3669L33.3764 65.2398C33.4493 65.3794 33.5442 65.5112 33.6618 65.6287L33.6651 65.6322C33.9692 65.9343 34.3665 66.0852 34.7638 66.0852C35.1642 66.0852 35.5645 65.9318 35.8691 65.6255L39.0301 62.4456C39.4809 61.9922 39.5952 61.3312 39.3739 60.7722L39.3705 60.7689L39.3768 60.7639L36.5597 53.2369L36.5563 53.2335C39.1257 51.6643 41.7381 49.7407 44.9073 47.0266L44.9107 47.03L57.9595 67.2331C58.0249 67.3437 58.1052 67.4484 58.2004 67.5435C58.5046 67.8472 58.904 68 59.3024 68C59.7017 68 60.1009 67.8475 60.4053 67.5426L65.3656 62.5741C65.8597 62.0792 65.9519 61.335 65.6422 60.7471L61.9542 50.9033L65.5095 47.348C66.8564 45.973 66.8547 43.777 65.5105 42.4031L63.1397 40.0356C62.4596 39.3895 61.5844 39.0674 60.7098 39.0674C59.8248 39.0674 58.9395 39.3981 58.2548 40.0593L57.9929 40.3206L56.4211 36.1219L56.4177 36.1185C59.7345 32.6728 62.8354 29.1199 64.7902 26.1778C68.573 20.4847 68.1566 16.9384 67.7297 13.6317C67.6839 13.2765 67.5229 12.9638 67.2878 12.7287C67.2851 12.7259 67.2823 12.7232 67.2795 12.7205C67.2768 12.7177 67.274 12.7149 67.2713 12.7121C67.0362 12.4758 66.7244 12.3151 66.3692 12.2694C65.3219 12.1342 64.2499 12 63.0941 12Z" fill="#374151"/>
<path d="M58.6289 12.6446C60.4432 16.4214 63.6265 19.3666 67.5327 20.8824L67.9932 19.6957C64.3883 18.2969 61.4506 15.5789 59.7763 12.0934L58.6289 12.6446Z" fill="#F1F5FF"/>
<path d="M28.0638 57.7456C26.746 55.2704 24.8191 53.172 22.4651 51.6483L21.7734 52.7169C23.9459 54.123 25.7241 56.0596 26.9403 58.3438L28.0638 57.7456Z" fill="#F1F5FF"/>
<path d="M42.789 22.3707C38.7819 26.1888 35.0333 30.1954 31.5617 34.3713L32.9135 35.1726C36.3489 31.0404 40.033 27.2782 43.9983 23.5L42.789 22.3707Z" fill="#F1F5FF"/>
<path d="M45.5 48.5001C50 44.5001 53.9012 40.864 57.7291 37.0121L56.4536 36.0942C52.6656 39.9059 49.2847 43.5879 45.0004 47L45.5 48.5001Z" fill="#F1F5FF"/>
</svg>
