<svg width="80" height="80" viewBox="0 0 80 80" fill="none" xmlns="http://www.w3.org/2000/svg">
  <path fill-rule="evenodd" clip-rule="evenodd"
    d="M22.2843 34.3804L26.8748 35.1521C25.9378 36.1481 25.0009 37.1462 24.064 38.1464C22.9287 39.3811 21.8056 40.6467 20.7193 41.9308C19.9215 42.8692 19.1237 43.8385 18.4118 44.8386L18.0436 45.3695L12.5203 44.4435C12.4071 44.426 12.3011 44.3769 12.2142 44.302C12.1273 44.227 12.063 44.1291 12.0285 44.0192C11.994 43.9094 11.9908 43.7921 12.0191 43.6805C12.0474 43.5689 12.1062 43.4675 12.1889 43.3878L20.6641 34.9052C20.8722 34.693 21.1282 34.5345 21.4103 34.4431C21.6923 34.3518 21.9922 34.3303 22.2843 34.3804ZM27.0589 53.1916L34.5399 60.7173C37.5164 58.5935 43.7454 52.7533 50.0604 46.4252C54.6387 41.8506 62.4327 33.7631 66.0474 23.8296C63.5955 23.421 61.333 22.2484 59.579 20.4773C57.8177 18.71 56.6503 16.4325 56.2404 13.9641C46.3721 17.6066 38.3633 25.4409 33.7789 30.0527C27.4885 36.3807 21.689 42.6717 19.5717 45.6597L27.0589 53.1916ZM57.5844 13.5011C60.3365 12.5883 63.2059 12.083 66.1026 12.0009C66.3542 11.9931 66.6048 12.0374 66.8388 12.1309C67.0727 12.2244 67.2851 12.3652 67.4629 12.5446C67.6406 12.724 67.7799 12.9381 67.8721 13.1737C67.9643 13.4094 68.0075 13.6616 67.999 13.9147C67.9162 16.826 67.416 19.7101 66.5138 22.4776C64.2619 22.1509 62.1754 21.1001 60.5661 19.4822C58.9567 17.8644 57.9108 15.7662 57.5844 13.5011ZM51.8156 28.2685C52.6675 29.1236 53.248 30.2137 53.4837 31.4009C53.7194 32.588 53.5997 33.8188 53.1398 34.9375C52.6798 36.0562 51.9003 37.0125 50.8999 37.6853C49.8995 38.3582 48.7231 38.7173 47.5197 38.7173C46.3163 38.7173 45.1399 38.3582 44.1395 37.6853C43.1391 37.0125 42.3596 36.0562 41.8996 34.9375C41.4397 33.8188 41.32 32.588 41.5557 31.4009C41.7914 30.2137 42.3719 29.1236 43.2238 28.2685C44.3648 27.1254 45.9094 26.4837 47.5197 26.4837C49.13 26.4837 50.6746 27.1254 51.8156 28.2685ZM46.053 57.686C46.1076 57.9789 46.0897 58.2808 46.0008 58.565C45.912 58.8493 45.755 59.1071 45.5436 59.3159L37.0929 67.8108C37.0132 67.8941 36.912 67.9531 36.8006 67.9813C36.6892 68.0095 36.5722 68.0057 36.4629 67.9703C36.3536 67.935 36.2563 67.8695 36.1822 67.7812C36.108 67.693 36.06 67.5856 36.0435 67.4713L35.1413 62.0138L35.35 61.8656C36.3381 61.1556 37.3138 60.3716 38.2405 59.5505C39.517 58.4577 40.769 57.3279 42.0025 56.1858C43.1072 55.161 44.2037 54.132 45.292 53.099L46.053 57.6984V57.686ZM14.6928 66.4032C14.5858 66.4378 14.4714 66.4421 14.3621 66.4157C14.2529 66.3893 14.1529 66.3332 14.0732 66.2536C13.9934 66.174 13.9369 66.0739 13.9098 65.9642C13.8827 65.8545 13.886 65.7394 13.9195 65.6315C15.0862 61.8238 16.9421 58.2657 19.3937 55.1363L25.1441 60.9148C22.0333 63.3812 18.4963 65.2481 14.7112 66.4218L14.6928 66.4032ZM30.8822 59.0319L28.9736 60.9889C28.8594 61.1056 28.7233 61.1982 28.5731 61.2615C28.423 61.3247 28.2619 61.3573 28.0991 61.3573C27.9363 61.3573 27.7752 61.3247 27.6251 61.2615C27.4749 61.1982 27.3388 61.1056 27.2246 60.9889L19.3201 53.0496C19.2032 52.9346 19.1103 52.7973 19.0469 52.6457C18.9835 52.4941 18.9508 52.3312 18.9508 52.1668C18.9508 52.0023 18.9835 51.8395 19.0469 51.6878C19.1103 51.5362 19.2032 51.3989 19.3201 51.2839L21.2532 49.3392L30.8822 59.0319Z"
    fill="#374151" />
</svg>
