<svg width="64" height="64" viewBox="0 0 64 64" fill="none" xmlns="http://www.w3.org/2000/svg">
  <rect width="64" height="64" rx="8" fill="#F1F5FF" />
  <path
    d="M35.3733 31.3208H36.4559C38.5199 31.3208 40.2266 32.8568 40.2266 34.7525V42H23.768V34.7525C23.768 32.8763 25.4587 31.3208 27.5386 31.3208H28.6213L30.9413 37.7419C31.0373 37.9995 31.4586 37.9412 31.4639 37.669L31.6293 32.8422H32.3653L32.5306 37.6496C32.5146 37.9364 32.9573 38.0141 33.0533 37.7419L35.3733 31.3208Z"
    fill="#4C6196" />
  <path
    d="M52 37.6642H40.7681V34.7526C40.7681 33.1145 39.6374 31.6465 37.9521 31.0729C38.1708 29.6341 39.5307 28.5502 41.1307 28.5502H42.0321L44.016 34.0477C44.112 34.3054 44.5334 34.247 44.544 33.9748L44.6827 29.8577H45.2427L45.3814 33.9554C45.3654 34.2422 45.8134 34.3151 45.9094 34.0477L47.8934 28.5502H48.7947C50.56 28.5502 52 29.8626 52 31.4667V37.6642Z"
    fill="#4A7DFF" />
  <path
    d="M26.0469 31.0729C24.3616 31.6465 23.2309 33.1193 23.2309 34.7526V37.6642H11.999V31.4667C11.999 29.8626 13.439 28.5502 15.2043 28.5502H16.1056L18.0896 34.0477C18.1856 34.3054 18.6069 34.247 18.6176 33.9748L18.7563 29.8577H19.3162L19.4549 33.9554C19.4389 34.2422 19.8869 34.3151 19.9829 34.0477L21.9669 28.5502H22.8682C24.4682 28.5502 25.8282 29.6341 26.0469 31.0729Z"
    fill="#4A7DFF" />
  <path
    d="M44.9692 20C47.1559 20 48.6172 21.852 48.6172 23.7282C48.6172 25.483 47.1612 28.2925 44.9319 28.2925C42.7026 28.2925 41.3212 25.4635 41.3212 23.7282C41.3212 21.852 42.7879 20 44.9692 20Z"
    fill="#4A7DFF" />
  <path
    d="M19.0278 20C21.2091 20 22.6758 21.852 22.6758 23.7282C22.6758 25.483 21.2145 28.2925 18.9851 28.2925C16.7612 28.2925 15.3798 25.4635 15.3798 23.7282C15.3798 21.852 16.8412 20 19.0278 20Z"
    fill="#4A7DFF" />
  <path
    d="M31.999 22.2311C34.3883 22.2311 35.9883 24.258 35.9883 26.3142C35.9883 28.2293 34.3936 31.2965 31.9563 31.2965C29.519 31.2965 28.0097 28.2099 28.0097 26.3142C28.0097 24.2678 29.599 22.2311 31.999 22.2311Z"
    fill="#4C6196" />
</svg>
