<svg width="64" height="64" viewBox="0 0 64 64" fill="none" xmlns="http://www.w3.org/2000/svg">
  <rect width="64" height="64" rx="8" fill="#F1F5FF" />
  <path
    d="M40.8838 33.1784L35.6589 31.0376C35.4332 30.9449 35.1723 31.0292 35.0563 31.2279L32.2977 35.9686C32.2114 36.1172 32.0612 36.1322 32 36.1322C31.9397 36.1322 31.7895 36.1163 31.7032 35.9678L28.9446 31.2279C28.8322 31.0343 28.5803 30.95 28.3582 31.0309L23.1891 32.9364C22.4668 33.2026 22 33.8044 22 34.4704V45.5677C22 45.8064 22.2096 46 22.4686 46H41.5314C41.7904 46 42 45.8064 42 45.5677V34.6849C42.0009 34.0473 41.562 33.4564 40.8838 33.1784Z"
    fill="#4A7DFF" />
  <circle cx="32" cy="24" r="6" fill="#4A7DFF" />
  <path
    d="M55.9993 11.4973C55.9716 10.6575 55.4467 10 54.8046 10H39.1947C38.536 10 38 10.6912 38 11.5418V16.913C38 17.7627 38.536 18.4539 39.1947 18.4539H41.1487L40.7898 21.4217C40.7631 21.6445 40.8747 21.8604 41.0657 21.9535C41.1303 21.9851 41.1985 22 41.2659 22C41.3987 22 41.5297 21.9406 41.6229 21.8297L44.4626 18.4539H54.8046C55.4633 18.4539 55.9993 17.7627 55.9993 16.913V11.5161C56.0002 11.5102 56.0002 11.5032 55.9993 11.4973ZM45.6075 14.8067L45.339 15.6574L43.1036 14.6453V13.9333L45.339 12.9213L45.6075 13.7729L44.4312 14.2898L45.6075 14.8067ZM46.6583 16.7585H45.7339L47.3512 11.8201H48.2663L46.6583 16.7585ZM50.8966 14.6443L48.6612 15.6564L48.3927 14.8057L49.569 14.2878L48.3927 13.7709L48.6612 12.9193L50.8966 13.9313V14.6443Z"
    fill="#4C6196" />
</svg>
