<svg width="64" height="64" viewBox="0 0 64 64" fill="none" xmlns="http://www.w3.org/2000/svg">
  <rect width="64" height="64" rx="8" fill="#F1F5FF" />
  <path
    d="M21 29C21 27.1144 21 26.1716 21.5858 25.5858C22.1716 25 23.1144 25 25 25H45V40H25C23.1144 40 22.1716 40 21.5858 39.4142C21 38.8284 21 37.8856 21 36V29Z"
    fill="#4A7DFF" />
  <path
    d="M20.8079 21.7937C20.8094 22.1973 20.9703 22.584 21.2557 22.8694C21.541 23.1548 21.9276 23.3159 22.3312 23.3175H45V20H22.3312C21.9278 20.0016 21.5413 20.1625 21.256 20.4478C20.9707 20.733 20.8096 21.1194 20.8079 21.5228V21.7937Z"
    fill="#4A7DFF" />
  <path fill-rule="evenodd" clip-rule="evenodd"
    d="M45.8135 28.7489H39.9692H39.9432H39.9171H39.891H39.865H39.8394L39.8138 28.7512L39.7882 28.754L39.7626 28.7572L39.7375 28.7605L39.7119 28.7642L39.6867 28.7684L39.6616 28.7726L39.6365 28.7773L39.6118 28.7824L39.5871 28.7875L39.5625 28.7931L39.5378 28.7991L39.5131 28.8052L39.4889 28.8117L39.4647 28.8187L39.4405 28.8257L39.4168 28.8331L39.3926 28.8406L39.3688 28.8485L39.3456 28.8568L39.3218 28.8652L39.2986 28.8741L39.2753 28.8829L39.2525 28.8922L39.2297 28.902L39.2069 28.9118L39.1845 28.922L39.1617 28.9322L39.1394 28.9429L39.1171 28.9537L39.0952 28.9653L39.0733 28.9765L39.0514 28.9881L39.03 29.0002L39.0086 29.0123L38.9877 29.0249L38.9663 29.0374L38.9453 29.0505L38.9085 29.0742L38.9039 29.077L38.8834 29.091L38.8634 29.1049L38.8429 29.1189L38.8224 29.1403C38.8099 29.1491 38.7978 29.1584 38.7857 29.1677H38.7829H38.7806C38.772 29.1739 38.7636 29.1806 38.7554 29.1872L38.7466 29.1943H38.7442L38.7252 29.2096L38.7066 29.2255L38.6879 29.2413L38.6693 29.2576L38.6512 29.2739L38.633 29.2906L38.6153 29.3074L38.5981 29.3246L38.5809 29.3418L38.5637 29.3595L38.5464 29.3772L38.5297 29.3949L38.5129 29.413L38.4966 29.4312L38.4804 29.4498L38.4645 29.4684L38.4487 29.487L38.4334 29.5061L38.4026 29.5447L38.3733 29.5843L38.357 29.6104L38.3431 29.6304L38.3291 29.6504L38.3151 29.6709L38.2886 29.7123L38.2765 29.7346L38.2639 29.756L38.2514 29.7774L38.2393 29.7989L38.2272 29.8203L38.2155 29.8421L38.2039 29.864L38.1927 29.8859L38.182 29.9082L38.1713 29.9306L38.1611 29.9534L38.1508 29.9757L38.1411 29.9985L38.1313 30.0218L38.122 30.0446L38.1131 30.0679L38.1043 30.0911L38.0959 30.1149L38.0875 30.1381L38.0796 30.1619L38.0717 30.1861L38.0647 30.2098L38.0573 30.234L38.0508 30.2582L38.0443 30.2824L38.0382 30.3071L38.0322 30.3318L38.0266 30.3564L38.0215 30.3811L38.0163 30.4062L38.0117 30.4309L38.0075 30.456L38.0033 30.4812L37.9996 30.5068L37.9963 30.5319L37.9931 30.5575L37.9903 30.5831L37.9879 30.6087V30.6347V30.6603V30.6864V30.7125V30.7385V30.7646V30.7907V31.1248V31.1509V31.1774V31.2035V31.2291V31.2547V31.2807V31.3063L37.9903 31.3319L37.9931 31.3575L37.9963 31.3831L37.9996 31.4087L38.0033 31.4339L38.0075 31.459L38.0117 31.4841L38.0163 31.5093L38.0215 31.5339L38.0266 31.5591L38.0322 31.5837L38.0382 31.6079L38.0443 31.6326L38.0508 31.6568L38.0573 31.681L38.0647 31.7052L38.0717 31.7294L38.0796 31.7531L38.0875 31.7769L38.0959 31.8006L38.1043 31.8239L38.1131 31.8472L38.122 31.8704L38.1313 31.8937L38.1411 31.9165L38.1508 31.9393L38.1611 31.9621L38.1713 31.9845L38.182 32.0068L38.1927 32.0291L38.2039 32.051L38.2155 32.0729L38.2272 32.0948L38.2393 32.1166L38.2514 32.138L38.2639 32.1594L38.2765 32.1804L38.2895 32.2013L38.3026 32.2223L38.3161 32.2428L38.33 32.2632L38.344 32.2837L38.358 32.3037L38.3724 32.3237L38.3868 32.3433L38.4017 32.3628L38.4171 32.3824L38.4324 32.4015L38.4478 32.4205L38.4636 32.4396L38.4794 32.4582L38.4957 32.4764L38.512 32.495L38.5288 32.5127L38.5455 32.5309L38.5627 32.5485L38.58 32.5658L38.5976 32.583L38.6153 32.6002L38.633 32.617L38.6512 32.6337L38.6693 32.65L38.6879 32.6663L38.7066 32.6821L38.7252 32.6979L38.7442 32.7138L38.7633 32.7287L38.7829 32.7435L38.8024 32.7584L38.8224 32.7729L38.842 32.7873L38.8625 32.8017L38.8825 32.8157L38.903 32.8292L38.9239 32.8427L38.9444 32.8557L38.9653 32.8687L38.9867 32.8813L39.0077 32.8939L39.0296 32.906L39.051 32.9181L39.0728 32.9297L39.0947 32.9414L39.1166 32.9525L39.1389 32.9632L39.1613 32.9739L39.1841 32.9846L39.2064 32.9944L39.2292 33.0046L39.2525 33.014L39.2753 33.0233L39.2986 33.0326L39.3218 33.0414L39.3456 33.0498L39.3688 33.0577L39.3926 33.0656L39.4168 33.0735L39.4405 33.081L39.4647 33.088L39.4889 33.0945L39.5131 33.101L39.5378 33.1075L39.5625 33.1131L39.5871 33.1187L39.6118 33.1238L39.6365 33.1284L39.6616 33.1331L39.6867 33.1378L39.7119 33.1415L39.7375 33.1452L39.7626 33.1489L39.7882 33.1517L39.8138 33.1545L39.8394 33.1573H39.865H39.891H39.9171H39.9432H39.9692H47.0138V28.7475L45.8135 28.7489ZM40.136 31.4601C40.208 31.5065 40.2885 31.5382 40.3727 31.5535H40.3807C40.4649 31.5688 40.5514 31.5673 40.6351 31.5491C40.7188 31.531 40.7982 31.4966 40.8686 31.4478C40.939 31.399 40.9991 31.3368 41.0454 31.2648C41.0918 31.1928 41.1235 31.1123 41.1388 31.028C41.1541 30.9437 41.1526 30.8573 41.1345 30.7736C41.1164 30.6898 41.0819 30.6105 41.0331 30.5401C40.9843 30.4697 40.9221 30.4096 40.8501 30.3632C40.7781 30.3169 40.6977 30.2851 40.6134 30.2699H40.6055C40.5212 30.2546 40.4347 30.256 40.351 30.2742C40.2673 30.2923 40.188 30.3268 40.1175 30.3756C40.0471 30.4244 39.987 30.4865 39.9407 30.5586C39.8943 30.6306 39.8626 30.711 39.8473 30.7953C39.832 30.8796 39.8335 30.9661 39.8516 31.0498C39.8698 31.1335 39.9042 31.2128 39.953 31.2832C40.0018 31.3536 40.064 31.4137 40.136 31.4601Z"
    fill="#4C6196" />
  <path fill-rule="evenodd" clip-rule="evenodd"
    d="M32.4559 42.0212C32.465 41.9917 32.4762 41.963 32.4894 41.9351C33.1331 40.2642 33.3104 38.4498 33.0024 36.6859C32.6944 34.922 31.9126 33.275 30.7408 31.9212C29.569 30.5673 28.0511 29.5574 26.3496 28.9997C24.6482 28.4419 22.8271 28.3571 21.0811 28.7545C20.8509 28.8069 20.6225 28.8676 20.396 28.9365C20.3642 28.9492 20.3313 28.9593 20.2978 28.9667C18.6913 29.4749 17.2415 30.3856 16.0863 31.6121C14.931 32.8387 14.1087 34.3404 13.6976 35.9744C13.2864 37.6084 13.3001 39.3204 13.7372 40.9476C14.1744 42.5749 15.0205 44.0633 16.1952 45.2712C16.2974 45.3761 16.3613 45.5124 16.3766 45.6581C16.3919 45.8037 16.3576 45.9503 16.2794 46.0741L15.4761 47.3507C15.387 47.4944 15.3581 47.6674 15.3957 47.8322C15.4332 47.997 15.5342 48.1404 15.6767 48.2313L17.6831 49.4944C17.8268 49.5835 17.9997 49.6124 18.1646 49.5749C18.3294 49.5373 18.4728 49.4364 18.5637 49.2939L19.367 48.0167C19.4448 47.893 19.562 47.799 19.6996 47.7499C19.8373 47.7007 19.9875 47.6993 20.1261 47.7459C22.5235 48.5491 25.1376 48.4034 27.4309 47.3386C29.7242 46.2739 31.5224 44.371 32.4559 42.0212ZM27.657 31.5759C29.4177 32.7099 30.6705 34.482 31.1526 36.52C31.6346 38.558 31.3084 40.7035 30.2424 42.5062C30.2265 42.5387 30.208 42.5698 30.187 42.5993C30.167 42.6319 30.147 42.6644 30.1265 42.6966L30.0832 42.7659C28.9288 44.5593 27.1133 45.8248 25.0312 46.2873C22.9491 46.7497 20.7686 46.3719 18.9635 45.2359L18.8941 45.1926C17.101 44.0378 15.8359 42.2222 15.3735 40.1402C14.911 38.0581 15.2886 35.8777 16.4242 34.0724L16.4674 34.0035C17.2883 32.7244 18.454 31.7034 19.8301 31.0583C19.8631 31.0399 19.8977 31.0244 19.9334 31.0118C21.1526 30.4595 22.4895 30.2177 23.8249 30.3081C25.1603 30.3984 26.4525 30.8179 27.5863 31.5293L27.6551 31.5726L27.657 31.5759ZM14.892 53.4938C14.8533 53.3213 14.7809 53.1581 14.6791 53.0135C14.5773 52.869 14.448 52.7459 14.2986 52.6514C13.9947 52.462 13.6283 52.4002 13.2791 52.4797C12.9299 52.5591 12.6262 52.7732 12.4341 53.0754L9.02029 58.4956C9.01077 58.5113 9.00443 58.5287 9.00163 58.5468C8.99884 58.565 8.99964 58.5835 9.004 58.6013C9.01199 58.6365 9.03357 58.6671 9.06404 58.6865L11.1189 59.9794C11.1345 59.989 11.1519 59.9954 11.17 59.9983C11.1881 60.0012 11.2067 60.0004 11.2245 59.9961C11.2597 59.9878 11.2902 59.9661 11.3097 59.9356L14.7207 54.5149C14.8151 54.3644 14.8788 54.1967 14.9082 54.0214C14.9376 53.8462 14.9321 53.6669 14.892 53.4938ZM16.5386 50.3159L15.4296 49.6178L14.3926 51.2654C14.5378 51.3123 14.6787 51.3717 14.8138 51.4427H14.8287L14.9911 51.5451C15.1788 51.6625 15.3508 51.8033 15.5031 51.964L16.5386 50.3159Z"
    fill="#4C6196" />
</svg>
