<svg width="64" height="64" viewBox="0 0 64 64" fill="none" xmlns="http://www.w3.org/2000/svg">
  <rect width="64" height="64" rx="8" fill="#F1F5FF" />
  <path
    d="M42.8024 20H34.8184V22.4828H39.9122L33.7086 28.9131C33.6444 28.9798 33.5682 29.0327 33.4843 29.0688C33.4004 29.1049 33.3104 29.1235 33.2196 29.1235C33.1287 29.1235 33.0387 29.1049 32.9548 29.0688C32.8709 29.0327 32.7947 28.9798 32.7305 28.9131L30.6467 26.7531C30.0577 26.1436 29.2594 25.8013 28.4271 25.8013C27.5949 25.8013 26.7966 26.1436 26.2076 26.7531L20 33.1917L21.6926 34.9462L27.9042 28.5076C28.0434 28.3633 28.2323 28.2822 28.4291 28.2822C28.626 28.2822 28.8149 28.3633 28.9541 28.5076L31.0379 30.6676C31.6171 31.2662 32.4017 31.6023 33.2196 31.6023C34.0375 31.6023 34.822 31.2662 35.4012 30.6676L41.6048 24.2372V29.5172H44V21.2414C44 20.9121 43.8738 20.5964 43.6492 20.3636C43.4246 20.1308 43.12 20 42.8024 20Z"
    fill="#4C6196" />
  <path
    d="M21.2456 37.7931V41.1034C21.2456 41.8717 21.54 42.6084 22.0641 43.1516C22.5881 43.6948 23.2989 44 24.04 44H40.0081C40.7492 44 41.46 43.6948 41.984 43.1516C42.5081 42.6084 42.8025 41.8717 42.8025 41.1034V32H40.4073V41.1034C40.4073 41.2132 40.3652 41.3184 40.2904 41.396C40.2155 41.4736 40.114 41.5172 40.0081 41.5172H36.4153V35.3103H34.0201V41.5172H30.028V33.6552H27.6328V41.5172H24.04C23.9341 41.5172 23.8326 41.4736 23.7577 41.396C23.6829 41.3184 23.6408 41.2132 23.6408 41.1034V37.7931H21.2456Z"
    fill="#4A7DFF" />
</svg>
