<svg width="32" height="32" viewBox="0 0 32 32" fill="none" xmlns="http://www.w3.org/2000/svg">
<circle cx="16" cy="16" r="16" fill="black"/>
<path d="M21.9319 19.4613L19.7859 21.8363C19.7394 21.8878 19.6832 21.929 19.6207 21.9572C19.5582 21.9854 19.4907 21.9999 19.4225 22H9.24934C9.20082 22 9.15336 21.9854 9.11278 21.9579C9.07219 21.9305 9.04023 21.8914 9.02083 21.8455C9.00142 21.7996 8.9954 21.7489 9.00351 21.6995C9.01161 21.6501 9.03349 21.6042 9.06647 21.5675L11.2101 19.1925C11.2565 19.1409 11.3127 19.0998 11.3753 19.0716C11.4378 19.0434 11.5052 19.0288 11.5734 19.0288H21.7466C21.7956 19.0277 21.8438 19.0416 21.8851 19.0688C21.9264 19.0959 21.9591 19.1351 21.9788 19.1813C21.9987 19.2276 22.0047 19.2788 21.9964 19.3286C21.988 19.3784 21.9656 19.4246 21.9319 19.4613ZM19.7859 14.6775C19.7393 14.6262 19.683 14.5852 19.6205 14.557C19.5581 14.5289 19.4907 14.5142 19.4225 14.5138H9.24934C9.20082 14.5138 9.15336 14.5284 9.11278 14.5559C9.07219 14.5833 9.04023 14.6224 9.02083 14.6683C9.00142 14.7142 8.9954 14.7649 9.00351 14.8143C9.01161 14.8637 9.03349 14.9096 9.06647 14.9463L11.2101 17.3225C11.2567 17.3739 11.313 17.4149 11.3754 17.443C11.4379 17.4712 11.5053 17.4859 11.5734 17.4863H21.7466C21.7951 17.486 21.8423 17.4712 21.8828 17.4437C21.9232 17.4161 21.9549 17.3771 21.9742 17.3312C21.9934 17.2854 21.9994 17.2347 21.9911 17.1854C21.983 17.1362 21.9612 17.0904 21.9283 17.0538L19.7859 14.6775ZM9.24934 12.9713H19.4225C19.4907 12.9712 19.5582 12.9566 19.6207 12.9285C19.6832 12.9003 19.7394 12.8591 19.7859 12.8075L21.9319 10.4326C21.9656 10.3959 21.988 10.3497 21.9964 10.2999C22.0047 10.2501 21.9987 10.1988 21.9788 10.1526C21.9591 10.1064 21.9264 10.0672 21.8851 10.0401C21.8438 10.0129 21.7956 9.99901 21.7466 10.0001H11.5734C11.5052 10.0001 11.4378 10.0147 11.3753 10.0429C11.3127 10.0711 11.2565 10.1122 11.2101 10.1638L9.06647 12.5388C9.03349 12.5755 9.01161 12.6214 9.00351 12.6708C8.9954 12.7202 9.00142 12.7709 9.02083 12.8168C9.04023 12.8627 9.07219 12.9017 9.11278 12.9292C9.15336 12.9566 9.20082 12.9713 9.24934 12.9713Z" fill="url(#paint0_linear_1475_6350)"/>
<defs>
<linearGradient id="paint0_linear_1475_6350" x1="10.0971" y1="22.2863" x2="21.1432" y2="10.2206" gradientUnits="userSpaceOnUse">
<stop offset="0.08" stop-color="#9945FF"/>
<stop offset="0.3" stop-color="#8752F3"/>
<stop offset="0.5" stop-color="#5497D5"/>
<stop offset="0.6" stop-color="#43B4CA"/>
<stop offset="0.72" stop-color="#28E0B9"/>
<stop offset="0.97" stop-color="#19FB9B"/>
</linearGradient>
</defs>
</svg>
