<svg width="20" height="20" viewBox="0 0 20 20" fill="none" xmlns="http://www.w3.org/2000/svg">
<path d="M15.834 10.917C15.4198 10.917 15.084 11.2528 15.084 11.667C15.084 12.0812 15.4198 12.417 15.834 12.417V10.917ZM17.5006 15.0837C17.0864 15.0837 16.7506 15.4194 16.7506 15.8337C16.7506 16.2479 17.0864 16.5837 17.5006 16.5837V15.0837ZM14.1673 8.41699C13.7531 8.41699 13.4173 8.75278 13.4173 9.16699C13.4173 9.58121 13.7531 9.91699 14.1673 9.91699V8.41699ZM14.1673 3.41699C13.7531 3.41699 13.4173 3.75278 13.4173 4.16699C13.4173 4.58121 13.7531 4.91699 14.1673 4.91699V3.41699ZM4.16732 12.417C4.58153 12.417 4.91732 12.0812 4.91732 11.667C4.91732 11.2528 4.58153 10.917 4.16732 10.917V12.417ZM2.50065 16.5837C2.91486 16.5837 3.25065 16.2479 3.25065 15.8337C3.25065 15.4194 2.91486 15.0837 2.50065 15.0837V16.5837ZM5.83398 9.91699C6.2482 9.91699 6.58398 9.58121 6.58398 9.16699C6.58398 8.75278 6.2482 8.41699 5.83398 8.41699V9.91699ZM5.83398 4.91699C6.2482 4.91699 6.58398 4.58121 6.58398 4.16699C6.58398 3.75278 6.2482 3.41699 5.83398 3.41699V4.91699ZM19.9173 14.5837C19.9173 13.6882 19.4052 12.7754 18.7075 12.1128C17.9937 11.4348 16.983 10.917 15.834 10.917V12.417C16.5259 12.417 17.1819 12.7325 17.6745 13.2004C18.1833 13.6836 18.4173 14.2291 18.4173 14.5837H19.9173ZM17.9173 15.0837H17.5006V16.5837H17.9173V15.0837ZM18.4173 14.5837C18.4173 14.8598 18.1935 15.0837 17.9173 15.0837V16.5837C19.0219 16.5837 19.9173 15.6882 19.9173 14.5837H18.4173ZM15.9173 6.66699C15.9173 7.63349 15.1338 8.41699 14.1673 8.41699V9.91699C15.9622 9.91699 17.4173 8.46192 17.4173 6.66699H15.9173ZM14.1673 4.91699C15.1338 4.91699 15.9173 5.70049 15.9173 6.66699H17.4173C17.4173 4.87207 15.9622 3.41699 14.1673 3.41699V4.91699ZM13.7506 15.0837H6.25065V16.5837H13.7506V15.0837ZM10.0007 10.917C8.68501 10.917 7.30688 11.1337 6.22774 11.6733C5.12734 12.2235 4.25065 13.1686 4.25065 14.5837H5.75065C5.75065 13.9154 6.12396 13.4022 6.89856 13.0149C7.69442 12.617 8.81629 12.417 10.0007 12.417V10.917ZM10.0007 12.417C11.185 12.417 12.3069 12.617 13.1027 13.0149C13.8773 13.4022 14.2506 13.9154 14.2506 14.5837H15.7506C15.7506 13.1686 14.874 12.2235 13.7736 11.6733C12.6944 11.1337 11.3163 10.917 10.0007 10.917V12.417ZM4.25065 14.5837C4.25065 15.6882 5.14608 16.5837 6.25065 16.5837V15.0837C5.97451 15.0837 5.75065 14.8598 5.75065 14.5837H4.25065ZM14.2506 14.5837C14.2506 14.8598 14.0268 15.0837 13.7506 15.0837V16.5837C14.8552 16.5837 15.7506 15.6882 15.7506 14.5837H14.2506ZM11.7507 6.66699C11.7507 7.63349 10.9671 8.41699 10.0007 8.41699V9.91699C11.7956 9.91699 13.2507 8.46192 13.2507 6.66699H11.7507ZM10.0007 8.41699C9.03415 8.41699 8.25065 7.63349 8.25065 6.66699H6.75065C6.75065 8.46192 8.20572 9.91699 10.0007 9.91699V8.41699ZM8.25065 6.66699C8.25065 5.70049 9.03415 4.91699 10.0007 4.91699V3.41699C8.20572 3.41699 6.75065 4.87207 6.75065 6.66699H8.25065ZM10.0007 4.91699C10.9671 4.91699 11.7507 5.70049 11.7507 6.66699H13.2507C13.2507 4.87207 11.7956 3.41699 10.0007 3.41699V4.91699ZM1.58398 14.5837C1.58398 14.2291 1.81802 13.6836 2.32679 13.2004C2.81943 12.7325 3.47543 12.417 4.16732 12.417V10.917C3.01826 10.917 2.00759 11.4348 1.2938 12.1128C0.596143 12.7754 0.0839844 13.6882 0.0839844 14.5837H1.58398ZM2.08398 16.5837H2.50065V15.0837H2.08398V16.5837ZM0.0839844 14.5837C0.0839844 15.6882 0.979415 16.5837 2.08398 16.5837V15.0837C1.80784 15.0837 1.58398 14.8598 1.58398 14.5837H0.0839844ZM2.58398 6.66699C2.58398 8.46192 4.03906 9.91699 5.83398 9.91699V8.41699C4.86749 8.41699 4.08398 7.63349 4.08398 6.66699H2.58398ZM5.83398 3.41699C4.03906 3.41699 2.58398 4.87207 2.58398 6.66699H4.08398C4.08398 5.70049 4.86749 4.91699 5.83398 4.91699V3.41699Z" fill="#6588E1"/>
</svg>
