<svg width="64" height="46" viewBox="0 0 64 46" fill="none" xmlns="http://www.w3.org/2000/svg">
<path d="M54.8605 4.57143C50.6634 2.75935 45.7123 0.729005 41.1462 0C40.5775 0.948801 39.3188 1.27048 38.8605 2.28571C33.9375 1.60266 29.9787 1.60266 25.1462 2.28571C24.6882 1.27071 23.4345 0.948801 22.8605 0C18.29 0.729341 13.3454 2.7535 9.14624 4.57143C0.790242 16.223 -1.12912 27.6561 0.00338227 38.8571C5.54563 42.6761 10.7229 44.1962 16.0034 45.7143C17.3157 44.049 19.579 42.9854 20.5748 41.1429C18.6789 40.4768 15.4555 39.823 13.7177 38.8571C14.175 38.5444 15.5683 36.9101 16.0034 36.5714C26.5339 41.1164 37.5984 41.1164 48.0034 36.5714C48.4404 36.9079 49.8338 38.5421 50.2891 38.8571C48.5485 39.8255 45.3317 40.4762 43.432 41.1429C44.4335 42.9929 46.6946 44.0584 48.0034 45.7143C53.2889 44.1964 58.4611 42.681 64.0034 38.8571C65.3324 25.8724 62.1045 14.5531 54.8605 4.57143ZM20.5748 32C17.4136 32 16.0034 28.4589 16.0034 25.1429C16.0034 21.8268 17.3583 18.2857 20.5748 18.2857C23.7916 18.2857 27.4872 21.8219 27.432 25.1429C27.437 28.4589 23.7916 32 20.5748 32ZM43.432 32C40.2707 32 36.5748 28.4589 36.5748 25.1429C36.5748 21.8268 40.2155 18.2857 43.432 18.2857C46.6487 18.2857 48.0586 21.8219 48.0034 25.1429C48.0034 28.4589 46.6487 32 43.432 32Z" fill="#5865F2"/>
</svg>
