<svg width="20" height="20" viewBox="0 0 20 20" fill="none" xmlns="http://www.w3.org/2000/svg">
<path d="M8.82149 10.4884L9.35182 9.95811L9.35182 9.95811L8.82149 10.4884ZM11.1785 10.4884L10.6482 9.95811L10.6482 9.95811L11.1785 10.4884ZM3.33333 4.91699H16.6667V3.41699H3.33333V4.91699ZM16.75 5.00033V15.0003H18.25V5.00033H16.75ZM16.6667 15.0837H3.33333V16.5837H16.6667V15.0837ZM3.25 15.0003V5.00033H1.75V15.0003H3.25ZM3.33333 15.0837C3.28731 15.0837 3.25 15.0463 3.25 15.0003H1.75C1.75 15.8748 2.45888 16.5837 3.33333 16.5837V15.0837ZM16.75 15.0003C16.75 15.0463 16.7127 15.0837 16.6667 15.0837V16.5837C17.5411 16.5837 18.25 15.8748 18.25 15.0003H16.75ZM3.33333 3.41699C2.89632 3.41699 2.49945 3.59503 2.21375 3.88074L3.27441 4.9414C3.29031 4.9255 3.31011 4.91699 3.33333 4.91699V3.41699ZM2.21375 3.88074C1.92804 4.16645 1.75 4.56331 1.75 5.00033H3.25C3.25 4.97711 3.25851 4.9573 3.27441 4.9414L2.21375 3.88074ZM16.6667 4.91699C16.6899 4.91699 16.7097 4.9255 16.7256 4.9414L17.7863 3.88074C17.5005 3.59503 17.1037 3.41699 16.6667 3.41699V4.91699ZM16.7256 4.9414C16.7415 4.9573 16.75 4.97711 16.75 5.00033H18.25C18.25 4.56331 18.072 4.16645 17.7863 3.88074L16.7256 4.9414ZM8.29116 11.0188C9.23492 11.9625 10.7651 11.9625 11.7088 11.0188L10.6482 9.95811C10.2902 10.3161 9.7098 10.3161 9.35182 9.95811L8.29116 11.0188ZM2.21375 4.9414L8.29116 11.0188L9.35182 9.95811L3.27441 3.88074L2.21375 4.9414ZM11.7088 11.0188L17.7863 4.9414L16.7256 3.88074L10.6482 9.95811L11.7088 11.0188Z" fill="#6588E1"/>
</svg>
