<svg width="118" height="216" viewBox="0 0 118 216" fill="none" xmlns="http://www.w3.org/2000/svg">
<g clip-path="url(#clip0_868_3689)">
<g opacity="0.24">
<path d="M118.509 57.1828C123.51 63.6981 131.467 67.2411 139.655 66.598C159.163 65.066 171.731 86.8358 160.651 102.964C156 109.733 155.089 118.396 158.231 125.985C165.716 144.064 148.896 162.745 130.134 157.19C122.258 154.859 113.738 156.67 107.491 162.003C92.6102 174.709 69.6459 164.484 69.1305 144.924C68.9142 136.713 64.5588 129.17 57.5565 124.877C40.8742 114.65 43.5018 89.6504 61.9457 83.1157C69.6876 80.3728 75.5162 73.8994 77.4348 65.9133C82.0059 46.8874 106.594 41.661 118.509 57.1828Z" stroke="#6588E1"/>
<path d="M119.439 52.7092C124.86 59.7715 133.486 63.6119 142.361 62.9148C163.576 61.2486 177.246 84.9245 165.195 102.464C160.154 109.802 159.167 119.192 162.572 127.418C170.713 147.08 152.42 167.397 132.014 161.356C123.478 158.829 114.242 160.792 107.471 166.573C91.2873 180.391 66.3123 169.271 65.7518 147.998C65.5172 139.098 60.7963 130.921 53.2061 126.268C35.0632 115.146 37.9209 87.9575 57.9797 80.8506C66.3714 77.8774 72.6893 70.8607 74.7691 62.2041C79.7403 41.5123 106.481 35.8283 119.439 52.7092Z" stroke="#6588E1"/>
<path d="M120.366 48.2356C126.206 55.8448 135.5 59.9826 145.063 59.2316C167.986 57.4312 182.756 83.0132 169.735 101.965C164.303 109.871 163.24 119.989 166.909 128.852C175.705 150.097 155.939 172.049 133.891 165.522C124.694 162.799 114.743 164.914 107.448 171.143C89.9604 186.073 62.9748 174.058 62.3691 151.072C62.1164 141.483 57.0298 132.673 48.8518 127.66C29.2483 115.642 32.336 86.2645 54.0097 78.5855C63.0514 75.382 69.8585 67.8219 72.0994 58.4949C77.4708 36.1373 106.365 29.9957 120.366 48.2356Z" stroke="#6588E1"/>
<path d="M121.604 42.2695C128.004 50.6079 138.188 55.1423 148.668 54.3193C173.868 52.3401 190.106 80.4635 175.791 101.298C169.839 109.962 168.673 121.049 172.695 130.762C182.364 154.117 160.635 178.25 136.396 171.075C126.317 168.091 115.413 170.409 107.418 177.234C88.1939 193.648 58.5273 180.439 57.8615 155.17C57.5846 144.662 52.0105 135.007 43.0487 129.514C21.4977 116.302 24.8922 84.006 48.719 75.5641C58.6272 72.0536 66.0868 63.7688 68.5424 53.548C74.4475 28.9692 106.212 22.2175 121.604 42.2695Z" stroke="#6588E1"/>
<path d="M122.717 36.9011C129.622 45.8959 140.608 50.7872 151.912 49.8994C179.162 47.7592 196.72 78.17 181.241 100.699C174.82 110.045 173.563 122.005 177.901 132.482C188.357 157.737 164.86 183.832 138.651 176.073C127.778 172.855 116.015 175.355 107.392 182.718C86.6036 200.466 54.5242 186.184 53.8042 158.859C53.5056 147.524 47.4927 137.109 37.8255 131.183C14.5217 116.897 18.1923 81.9745 43.957 72.846C54.6451 69.0591 62.6918 60.1223 65.3407 49.097C71.7261 22.5192 106.074 15.2183 122.717 36.9011Z" stroke="#6588E1"/>
<path d="M123.894 31.2339C131.33 40.9215 143.163 46.1895 155.338 45.2333C184.751 42.9232 203.703 75.7483 186.995 100.066C180.08 110.132 178.726 123.013 183.398 134.297C194.684 161.557 169.322 189.724 141.031 181.349C129.321 177.883 116.652 180.575 107.364 188.505C84.9262 207.663 50.2999 192.246 49.5228 162.753C49.2011 150.544 42.7252 139.328 32.3134 132.945C7.15944 117.525 11.1214 79.8294 38.9317 69.9761C50.4429 65.8977 59.1095 56.2725 61.9624 44.3979C68.8547 15.7101 105.93 7.82959 123.894 31.2339Z" stroke="#6588E1"/>
<path d="M125.069 25.5667C133.037 35.947 145.716 41.5918 158.761 40.5672C190.338 38.0873 210.684 73.3267 192.747 99.4333C185.337 110.219 183.887 124.021 188.892 136.112C201.009 165.377 173.781 195.616 143.41 186.625C130.862 182.911 117.287 185.796 107.336 194.293C83.2468 214.86 46.0737 198.309 45.2394 166.646C44.8947 153.565 37.9556 141.546 26.7993 134.707C-0.204804 118.152 4.04858 77.6843 33.9043 67.1064C46.2388 62.7362 55.5252 52.4227 58.5821 39.699C65.9813 8.90105 105.783 0.440911 125.069 25.5667Z" stroke="#6588E1"/>
<path d="M126.122 20.4962C134.566 31.4965 148.001 37.4783 161.826 36.3926C195.339 33.7606 216.931 71.1603 197.896 98.8672C190.043 110.297 188.506 124.923 193.81 137.736C206.67 168.795 177.773 200.888 145.54 191.346C132.243 187.409 117.857 190.467 107.311 199.472C81.7457 221.299 42.2938 203.734 41.4083 170.13C41.0431 156.267 33.6896 143.531 21.867 136.283C-6.79243 118.714 -2.27833 75.7653 29.4076 64.5389C42.4787 59.9078 52.3196 48.9784 55.559 35.4949C63.4118 2.809 105.654 -6.16977 126.122 20.4962Z" stroke="#6588E1"/>
</g>
</g>
<defs>
<clipPath id="clip0_868_3689">
<rect width="118" height="216" fill="white"/>
</clipPath>
</defs>
</svg>
