<svg width="20" height="19" viewBox="0 0 20 19" fill="none" xmlns="http://www.w3.org/2000/svg">
<path d="M16.2355 16.062L15.75 16.1817L16.2355 16.062ZM14.6206 17.3751L14.8466 16.9291L14.6206 17.3751ZM15.5327 11.1117L15.9066 11.4437L15.5327 11.1117ZM15.2742 12.1645L15.7597 12.0447L15.2742 12.1645ZM17.9463 5.61364L17.9075 6.11213L17.9463 5.61364ZM18.7058 7.53782L18.332 7.20585L18.7058 7.53782ZM12.5699 4.59485L12.1136 4.79943L12.5699 4.59485ZM13.5197 5.26848L13.5586 4.76999L13.5197 5.26848ZM8.96274 1.17703L8.50651 0.972451V0.972451L8.96274 1.17703ZM11.0373 1.17703L11.4935 0.97245V0.97245L11.0373 1.17703ZM6.48026 5.26848L6.44139 4.76999L6.48026 5.26848ZM7.43013 4.59485L7.88636 4.79943L7.43013 4.59485ZM1.29416 7.53782L0.920261 7.86979H0.920261L1.29416 7.53782ZM2.05367 5.61364L2.09253 6.11213H2.09253L2.05367 5.61364ZM4.72576 12.1645L4.24031 12.0447L4.72576 12.1645ZM4.46729 11.1117L4.0934 11.4437L4.46729 11.1117ZM5.37943 17.3751L5.15339 16.9291L5.37943 17.3751ZM3.76452 16.062L4.24997 16.1817L3.76452 16.062ZM9.49045 15.2915L9.71649 15.7375L9.49045 15.2915ZM10.5095 15.2915L10.2835 15.7375L10.5095 15.2915ZM9.26441 14.8455L5.15339 16.9291L5.60547 17.8211L9.71649 15.7375L9.26441 14.8455ZM4.24997 16.1817L5.21122 12.2842L4.24031 12.0447L3.27906 15.9423L4.24997 16.1817ZM4.84119 10.7797L1.66805 7.20585L0.920261 7.86979L4.0934 11.4437L4.84119 10.7797ZM2.09253 6.11213L6.51913 5.76697L6.44139 4.76999L2.0148 5.11515L2.09253 6.11213ZM7.88636 4.79943L9.41897 1.38161L8.50651 0.972451L6.9739 4.39027L7.88636 4.79943ZM10.581 1.38161L12.1136 4.79943L13.0261 4.39027L11.4935 0.97245L10.581 1.38161ZM13.4809 5.76697L17.9075 6.11213L17.9852 5.11515L13.5586 4.76999L13.4809 5.76697ZM18.332 7.20585L15.1588 10.7797L15.9066 11.4437L19.0797 7.86979L18.332 7.20585ZM14.7888 12.2842L15.75 16.1817L16.7209 15.9423L15.7597 12.0447L14.7888 12.2842ZM14.8466 16.9291L10.7356 14.8455L10.2835 15.7375L14.3945 17.8211L14.8466 16.9291ZM15.75 16.1817C15.8879 16.7408 15.3202 17.1692 14.8466 16.9291L14.3945 17.8211C15.6623 18.4637 17.0552 17.2978 16.7209 15.9423L15.75 16.1817ZM15.1588 10.7797C14.7954 11.1891 14.6577 11.7528 14.7888 12.2842L15.7597 12.0447C15.7069 11.8308 15.763 11.6054 15.9066 11.4437L15.1588 10.7797ZM17.9075 6.11213C18.4271 6.15265 18.6977 6.79396 18.332 7.20585L19.0797 7.86979C19.979 6.8569 19.351 5.22165 17.9852 5.11515L17.9075 6.11213ZM12.1136 4.79943C12.3593 5.34727 12.8818 5.72026 13.4809 5.76697L13.5586 4.76999C13.3295 4.75213 13.1241 4.60891 13.0261 4.39027L12.1136 4.79943ZM9.41897 1.38161C9.64714 0.872795 10.3529 0.872796 10.581 1.38161L11.4935 0.97245C10.9121 -0.324153 9.08793 -0.324148 8.50651 0.972451L9.41897 1.38161ZM6.51913 5.76697C7.11818 5.72026 7.64071 5.34727 7.88636 4.79943L6.9739 4.39027C6.87586 4.60891 6.67049 4.75213 6.44139 4.76999L6.51913 5.76697ZM1.66805 7.20585C1.30235 6.79396 1.57288 6.15265 2.09253 6.11213L2.0148 5.11515C0.64902 5.22165 0.0209522 6.8569 0.920261 7.86979L1.66805 7.20585ZM5.21122 12.2842C5.34227 11.7528 5.20461 11.1891 4.84119 10.7797L4.0934 11.4437C4.23697 11.6054 4.29306 11.8308 4.24031 12.0447L5.21122 12.2842ZM5.15339 16.9291C4.67981 17.1692 4.11209 16.7408 4.24997 16.1817L3.27906 15.9423C2.94476 17.2978 4.33771 18.4637 5.60547 17.8211L5.15339 16.9291ZM9.71649 15.7375C9.89517 15.647 10.1048 15.647 10.2835 15.7375L10.7356 14.8455C10.2727 14.6109 9.72727 14.6109 9.26441 14.8455L9.71649 15.7375Z" fill="black" fill-opacity="0.54"/>
</svg>
