<svg width="80" height="80" viewBox="0 0 80 80" fill="none" xmlns="http://www.w3.org/2000/svg">
  <rect width="80" height="80" rx="40" fill="#EDF2FF" />
  <path
    d="M55.8276 40.1446C54.7901 39.176 53.9687 38.0236 53.4112 36.7546C52.8537 35.4856 52.5712 34.1252 52.5803 32.7529V29.3266C52.5803 29.2037 52.5803 29.0831 52.5803 28.9648C52.5199 27.043 51.9306 25.1685 50.8696 23.5229C49.8087 21.8774 48.312 20.5167 46.5248 19.5727L46.3886 19.5018L45.7754 19.2109C45.4155 18.9289 45.1319 18.5711 44.9478 18.1667C44.7636 17.7623 44.6841 17.3228 44.7157 16.8842C44.7237 16.7377 44.7237 16.5909 44.7157 16.4444C44.7248 15.2741 44.2374 14.1485 43.3608 13.315C42.4843 12.4816 41.2903 12.0086 40.0416 12.0001C38.793 11.9916 37.5918 12.4484 36.7025 13.2699C35.8131 14.0914 35.3084 15.2103 35.2994 16.3805C35.2941 16.4348 35.2941 16.4894 35.2994 16.5437C35.2994 16.6572 35.2994 16.7636 35.2994 16.87C35.3338 17.3127 35.255 17.7568 35.0693 18.1652C34.8837 18.5736 34.5967 18.9346 34.2321 19.218L33.619 19.516L33.4979 19.5798C31.7096 20.5244 30.2123 21.8863 29.1512 23.5332C28.0902 25.1801 27.5015 27.056 27.4424 28.979C27.4424 29.0973 27.4424 29.2179 27.4424 29.3408V32.7387C27.4515 34.1111 27.169 35.4714 26.6115 36.7404C26.054 38.0094 25.2326 39.1618 24.1951 40.1304C23.5281 40.6795 22.989 41.3516 22.6113 42.1046C22.2336 42.8576 22.0256 43.6755 22 44.5072C21.9997 44.7012 22.0678 44.8899 22.1937 45.0439C22.3197 45.1978 22.4964 45.3084 22.6964 45.3584C26.5045 46.3123 30.3952 46.9485 34.323 47.2596C34.484 48.5648 35.1514 49.7689 36.1982 50.643C37.245 51.517 38.598 52 40 52C41.402 52 42.755 51.517 43.8018 50.643C44.8486 49.7689 45.516 48.5648 45.677 47.2596C49.6048 46.9486 53.4955 46.3123 57.3036 45.3584C57.5036 45.3084 57.6803 45.1978 57.8063 45.0439C57.9322 44.8899 58.0003 44.7012 58 44.5072C57.9753 43.6795 57.7697 42.8654 57.3961 42.115C57.0224 41.3646 56.4886 40.694 55.8276 40.1446ZM40.0227 15.0469C40.3221 15.0469 40.6148 15.1301 40.8638 15.286C41.1127 15.4419 41.3068 15.6635 41.4213 15.9227C41.5359 16.182 41.5659 16.4672 41.5075 16.7424C41.4491 17.0176 41.3049 17.2704 41.0932 17.4688C40.8815 17.6673 40.6117 17.8024 40.3181 17.8571C40.0244 17.9119 39.72 17.8838 39.4434 17.7764C39.1667 17.669 38.9303 17.4872 38.764 17.2539C38.5976 17.0206 38.5088 16.7463 38.5088 16.4657C38.5088 16.0894 38.6683 15.7285 38.9522 15.4625C39.2361 15.1964 39.6212 15.0469 40.0227 15.0469Z"
    fill="#4A7DFF" />
  <path
    d="M29.9942 67C29.826 67.0001 29.6605 66.9592 29.5133 66.8809C29.366 66.8026 29.2418 66.6894 29.1523 66.5522C29.0628 66.4151 29.0109 66.2583 29.0016 66.0965C28.9922 65.9347 29.0256 65.7732 29.0986 65.6273L33.1043 57.5478C33.2177 57.3179 33.4212 57.1408 33.6701 57.0555C33.9189 56.9702 34.1928 56.9836 34.4314 57.0929C34.67 57.2021 34.8538 57.3981 34.9424 57.6379C35.0309 57.8777 35.017 58.1416 34.9036 58.3715L30.8979 66.4509C30.8173 66.6159 30.6893 66.7552 30.5292 66.8525C30.3691 66.9498 30.1835 67.0009 29.9942 67Z"
    fill="#4C6196" />
  <path
    d="M39.9959 68C39.7318 68 39.4785 67.898 39.2917 67.7165C39.1049 67.535 39 67.2888 39 67.0321V57.9719C39 57.7141 39.1054 57.4669 39.2929 57.2846C39.4804 57.1024 39.7348 57 40 57C40.2652 57 40.5196 57.1024 40.7071 57.2846C40.8946 57.4669 41 57.7141 41 57.9719V67.0321C41 67.1599 40.974 67.2864 40.9234 67.4044C40.8729 67.5223 40.7988 67.6293 40.7054 67.7193C40.6121 67.8093 40.5013 67.8804 40.3795 67.9286C40.2578 67.9768 40.1274 68.001 39.9959 68Z"
    fill="#4C6196" />
  <path
    d="M50.9639 67C50.7823 67.0013 50.6035 66.9569 50.4454 66.8713C50.2873 66.7856 50.1555 66.6617 50.0632 66.5119L45.1433 58.4998C45.0742 58.3871 45.0288 58.2624 45.01 58.133C44.9911 58.0035 44.9991 57.8717 45.0334 57.7452C45.0677 57.6187 45.1277 57.4999 45.21 57.3956C45.2923 57.2913 45.3952 57.2035 45.513 57.1372C45.6307 57.071 45.7609 57.0276 45.8961 57.0095C46.0314 56.9915 46.169 56.9991 46.3012 57.032C46.4333 57.0648 46.5574 57.1223 46.6664 57.2011C46.7754 57.2799 46.8671 57.3784 46.9363 57.4911L51.8562 65.5033C51.949 65.654 51.9986 65.8254 52 66.0004C52.0013 66.1753 51.9543 66.3475 51.8637 66.4994C51.7731 66.6514 51.6422 66.7777 51.4842 66.8656C51.3262 66.9535 51.1467 66.9999 50.9639 67Z"
    fill="#4C6196" />
</svg>
