<?xml version="1.0" encoding="utf-8"?>
<svg width="451" height="401" viewBox="0 0 451 401" fill="none" xmlns="http://www.w3.org/2000/svg">
  <path fill-rule="evenodd" clip-rule="evenodd" d="M 257.06 33.646 L 234.571 196.94 L 221.051 92.65 L 220.06 92.778 L 233.755 198.425 L 152.983 64.955 L 152.128 65.473 L 231.493 196.62 L 155.925 113.877 L 155.186 114.551 L 230.229 196.718 L 41.863 50.319 L 41.249 51.109 L 229.705 197.577 L 84.79 120.772 L 84.322 121.656 L 230.475 199.117 L 123.183 170.731 L 122.928 171.697 L 231.173 200.336 L 14.038 208.214 L 14.074 209.214 L 227.555 201.468 L 81.967 227.722 L 82.145 228.706 L 230.052 202.034 L 61.365 271.752 L 61.747 272.676 L 231.515 202.512 L 85.243 319.824 L 85.869 320.604 L 228.974 205.831 L 148.194 290.369 L 148.917 291.059 L 232.395 203.699 L 143.614 369.979 L 144.497 370.45 L 232.086 206.401 L 198.582 304.553 L 199.529 304.876 L 234.294 203.027 L 249.558 349.266 L 250.553 349.162 L 235.286 202.893 L 294.127 300.472 L 294.984 299.956 L 237.585 204.769 L 351.186 329.051 L 351.925 328.377 L 237.26 202.932 L 383.297 291.142 L 383.814 290.286 L 238.183 202.321 L 351.412 236.193 L 351.699 235.235 L 239.008 201.524 L 407.521 213.213 L 407.59 212.215 L 239.15 200.532 L 431.63 171.709 L 431.481 170.72 L 238.272 199.652 L 367.754 143.673 L 367.357 142.755 L 238.212 198.589 L 388.356 85.613 L 387.755 84.814 L 237.568 197.821 L 351.942 58.03 L 351.169 57.397 L 236.819 197.158 L 290.506 85.43 L 289.605 84.997 L 235.486 197.623 L 258.051 33.782 L 257.06 33.646 Z" style="fill: rgb(220, 216, 246);"/>
  <g filter="url(#filter0_d_1655_22031)">
    <circle cx="235" cy="197" r="42" fill="white"/>
  </g>
  <circle cx="14" cy="208" r="14" fill="#E0AED0"/>
  <path d="M7 210C7 208.114 7 207.172 7.58579 206.586C8.17157 206 9.11438 206 11 206H21V214H11C9.11438 214 8.17157 214 7.58579 213.414C7 212.828 7 211.886 7 210Z" fill="#192276"/>
  <path d="M7 204.25C7 204.94 7.55964 205.5 8.25 205.5H21V203H8.25C7.55964 203 7 203.56 7 204.25Z" fill="#192276"/>
  <path d="M16 209.5C16 208.672 16.6716 208 17.5 208H22V211H17.5C16.6716 211 16 210.328 16 209.5Z" fill="white"/>
  <circle cx="17.5" cy="209.5" r="0.5" fill="#192276"/>
  <circle cx="124" cy="170" r="14" fill="#F2C7C7"/>
  <path d="M117 172C117 170.114 117 169.172 117.586 168.586C118.172 168 119.114 168 121 168H131V176H121C119.114 176 118.172 176 117.586 175.414C117 174.828 117 173.886 117 172Z" fill="#192276"/>
  <path d="M117 166.25C117 166.94 117.56 167.5 118.25 167.5H131V165H118.25C117.56 165 117 165.56 117 166.25Z" fill="#192276"/>
  <path d="M126 171.5C126 170.672 126.672 170 127.5 170H132V173H127.5C126.672 173 126 172.328 126 171.5Z" fill="white"/>
  <circle cx="127.5" cy="171.5" r="0.5" fill="#192276"/>
  <circle cx="156" cy="113" r="14" fill="#F2C7C7"/>
  <path d="M149 115C149 113.114 149 112.172 149.586 111.586C150.172 111 151.114 111 153 111H163V119H153C151.114 119 150.172 119 149.586 118.414C149 117.828 149 116.886 149 115Z" fill="#192276"/>
  <path d="M149 109.25C149 109.94 149.56 110.5 150.25 110.5H163V108H150.25C149.56 108 149 108.56 149 109.25Z" fill="#192276"/>
  <path d="M158 114.5C158 113.672 158.672 113 159.5 113H164V116H159.5C158.672 116 158 115.328 158 114.5Z" fill="white"/>
  <circle cx="159.5" cy="114.5" r="0.5" fill="#192276"/>
  <circle cx="152" cy="65" r="14" fill="#F2C7C7"/>
  <path d="M145 67C145 65.1144 145 64.1716 145.586 63.5858C146.172 63 147.114 63 149 63H159V71H149C147.114 71 146.172 71 145.586 70.4142C145 69.8284 145 68.8856 145 67Z" fill="#192276"/>
  <path d="M145 61.25C145 61.9404 145.56 62.5 146.25 62.5H159V60H146.25C145.56 60 145 60.5596 145 61.25Z" fill="#192276"/>
  <path d="M154 66.5C154 65.6716 154.672 65 155.5 65H160V68H155.5C154.672 68 154 67.3284 154 66.5Z" fill="white"/>
  <circle cx="155.5" cy="66.5" r="0.5" fill="#192276"/>
  <circle cx="221" cy="93" r="14" fill="#756AB6"/>
  <path d="M214 95C214 93.1144 214 92.1716 214.586 91.5858C215.172 91 216.114 91 218 91H228V99H218C216.114 99 215.172 99 214.586 98.4142C214 97.8284 214 96.8856 214 95Z" fill="white"/>
  <path d="M214 89.25C214 89.9404 214.56 90.5 215.25 90.5H228V88H215.25C214.56 88 214 88.5596 214 89.25Z" fill="white"/>
  <path d="M223 94.5C223 93.6716 223.672 93 224.5 93H229V96H224.5C223.672 96 223 95.3284 223 94.5Z" fill="#192276"/>
  <circle cx="224.5" cy="94.5" r="0.5" fill="white"/>
  <circle cx="257" cy="33" r="14" fill="#756AB6"/>
  <path d="M250 35C250 33.1144 250 32.1716 250.586 31.5858C251.172 31 252.114 31 254 31H264V39H254C252.114 39 251.172 39 250.586 38.4142C250 37.8284 250 36.8856 250 35Z" fill="white"/>
  <path d="M250 29.25C250 29.9404 250.56 30.5 251.25 30.5H264V28H251.25C250.56 28 250 28.5596 250 29.25Z" fill="white"/>
  <path d="M259 34.5C259 33.6716 259.672 33 260.5 33H265V36H260.5C259.672 36 259 35.3284 259 34.5Z" fill="#192276"/>
  <circle cx="260.5" cy="34.5" r="0.5" fill="white"/>
  <circle cx="290" cy="85" r="14" fill="#756AB6"/>
  <path d="M283 87C283 85.1144 283 84.1716 283.586 83.5858C284.172 83 285.114 83 287 83H297V91H287C285.114 91 284.172 91 283.586 90.4142C283 89.8284 283 88.8856 283 87Z" fill="white"/>
  <path d="M283 81.25C283 81.9404 283.56 82.5 284.25 82.5H297V80H284.25C283.56 80 283 80.5596 283 81.25Z" fill="white"/>
  <path d="M292 86.5C292 85.6716 292.672 85 293.5 85H298V88H293.5C292.672 88 292 87.3284 292 86.5Z" fill="#192276"/>
  <circle cx="293.5" cy="86.5" r="0.5" fill="white"/>
  <circle cx="352" cy="57" r="14" fill="#756AB6"/>
  <path d="M345 59C345 57.1144 345 56.1716 345.586 55.5858C346.172 55 347.114 55 349 55H359V63H349C347.114 63 346.172 63 345.586 62.4142C345 61.8284 345 60.8856 345 59Z" fill="white"/>
  <path d="M345 53.25C345 53.9404 345.56 54.5 346.25 54.5H359V52H346.25C345.56 52 345 52.5596 345 53.25Z" fill="white"/>
  <path d="M354 58.5C354 57.6716 354.672 57 355.5 57H360V60H355.5C354.672 60 354 59.3284 354 58.5Z" fill="#192276"/>
  <circle cx="355.5" cy="58.5" r="0.5" fill="white"/>
  <circle cx="390" cy="83" r="14" fill="#756AB6"/>
  <path d="M383 85C383 83.1144 383 82.1716 383.586 81.5858C384.172 81 385.114 81 387 81H397V89H387C385.114 89 384.172 89 383.586 88.4142C383 87.8284 383 86.8856 383 85Z" fill="white"/>
  <path d="M383 79.25C383 79.9404 383.56 80.5 384.25 80.5H397V78H384.25C383.56 78 383 78.5596 383 79.25Z" fill="white"/>
  <path d="M392 84.5C392 83.6716 392.672 83 393.5 83H398V86H393.5C392.672 86 392 85.3284 392 84.5Z" fill="#192276"/>
  <circle cx="393.5" cy="84.5" r="0.5" fill="white"/>
  <circle cx="369" cy="142" r="14" fill="#756AB6"/>
  <path d="M362 144C362 142.114 362 141.172 362.586 140.586C363.172 140 364.114 140 366 140H376V148H366C364.114 148 363.172 148 362.586 147.414C362 146.828 362 145.886 362 144Z" fill="white"/>
  <path d="M362 138.25C362 138.94 362.56 139.5 363.25 139.5H376V137H363.25C362.56 137 362 137.56 362 138.25Z" fill="white"/>
  <path d="M371 143.5C371 142.672 371.672 142 372.5 142H377V145H372.5C371.672 145 371 144.328 371 143.5Z" fill="#192276"/>
  <circle cx="372.5" cy="143.5" r="0.5" fill="white"/>
  <circle cx="411" cy="212" r="14" fill="#AC87C5"/>
  <path d="M404 214C404 212.114 404 211.172 404.586 210.586C405.172 210 406.114 210 408 210H418V218H408C406.114 218 405.172 218 404.586 217.414C404 216.828 404 215.886 404 214Z" fill="white"/>
  <path d="M404 208.25C404 208.94 404.56 209.5 405.25 209.5H418V207H405.25C404.56 207 404 207.56 404 208.25Z" fill="white"/>
  <path d="M413 213.5C413 212.672 413.672 212 414.5 212H419V215H414.5C413.672 215 413 214.328 413 213.5Z" fill="#192276"/>
  <circle cx="414.5" cy="213.5" r="0.5" fill="white"/>
  <circle cx="432" cy="171" r="14" fill="#AC87C5"/>
  <path d="M425 173C425 171.114 425 170.172 425.586 169.586C426.172 169 427.114 169 429 169H439V177H429C427.114 177 426.172 177 425.586 176.414C425 175.828 425 174.886 425 173Z" fill="white"/>
  <path d="M425 167.25C425 167.94 425.56 168.5 426.25 168.5H439V166H426.25C425.56 166 425 166.56 425 167.25Z" fill="white"/>
  <path d="M434 172.5C434 171.672 434.672 171 435.5 171H440V174H435.5C434.672 174 434 173.328 434 172.5Z" fill="#192276"/>
  <circle cx="435.5" cy="172.5" r="0.5" fill="white"/>
  <circle cx="353" cy="236" r="14" fill="#AC87C5"/>
  <path d="M346 238C346 236.114 346 235.172 346.586 234.586C347.172 234 348.114 234 350 234H360V242H350C348.114 242 347.172 242 346.586 241.414C346 240.828 346 239.886 346 238Z" fill="white"/>
  <path d="M346 232.25C346 232.94 346.56 233.5 347.25 233.5H360V231H347.25C346.56 231 346 231.56 346 232.25Z" fill="white"/>
  <path d="M355 237.5C355 236.672 355.672 236 356.5 236H361V239H356.5C355.672 239 355 238.328 355 237.5Z" fill="#192276"/>
  <circle cx="356.5" cy="237.5" r="0.5" fill="white"/>
  <circle cx="293" cy="299" r="14" fill="#AC87C5"/>
  <path d="M286 301C286 299.114 286 298.172 286.586 297.586C287.172 297 288.114 297 290 297H300V305H290C288.114 305 287.172 305 286.586 304.414C286 303.828 286 302.886 286 301Z" fill="white"/>
  <path d="M286 295.25C286 295.94 286.56 296.5 287.25 296.5H300V294H287.25C286.56 294 286 294.56 286 295.25Z" fill="white"/>
  <path d="M295 300.5C295 299.672 295.672 299 296.5 299H301V302H296.5C295.672 302 295 301.328 295 300.5Z" fill="#192276"/>
  <circle cx="296.5" cy="300.5" r="0.5" fill="white"/>
  <circle cx="353" cy="327" r="14" fill="#AC87C5"/>
  <path d="M346 329C346 327.114 346 326.172 346.586 325.586C347.172 325 348.114 325 350 325H360V333H350C348.114 333 347.172 333 346.586 332.414C346 331.828 346 330.886 346 329Z" fill="white"/>
  <path d="M346 323.25C346 323.94 346.56 324.5 347.25 324.5H360V322H347.25C346.56 322 346 322.56 346 323.25Z" fill="white"/>
  <path d="M355 328.5C355 327.672 355.672 327 356.5 327H361V330H356.5C355.672 330 355 329.328 355 328.5Z" fill="#192276"/>
  <circle cx="356.5" cy="328.5" r="0.5" fill="white"/>
  <circle cx="251" cy="349" r="14" fill="#AC87C5"/>
  <path d="M244 351C244 349.114 244 348.172 244.586 347.586C245.172 347 246.114 347 248 347H258V355H248C246.114 355 245.172 355 244.586 354.414C244 353.828 244 352.886 244 351Z" fill="white"/>
  <path d="M244 345.25C244 345.94 244.56 346.5 245.25 346.5H258V344H245.25C244.56 344 244 344.56 244 345.25Z" fill="white"/>
  <path d="M253 350.5C253 349.672 253.672 349 254.5 349H259V352H254.5C253.672 352 253 351.328 253 350.5Z" fill="#192276"/>
  <circle cx="254.5" cy="350.5" r="0.5" fill="white"/>
  <circle cx="200" cy="302" r="14" fill="#E0AED0"/>
  <path d="M193 304C193 302.114 193 301.172 193.586 300.586C194.172 300 195.114 300 197 300H207V308H197C195.114 308 194.172 308 193.586 307.414C193 306.828 193 305.886 193 304Z" fill="#192276"/>
  <path d="M193 298.25C193 298.94 193.56 299.5 194.25 299.5H207V297H194.25C193.56 297 193 297.56 193 298.25Z" fill="#192276"/>
  <path d="M202 303.5C202 302.672 202.672 302 203.5 302H208V305H203.5C202.672 305 202 304.328 202 303.5Z" fill="white"/>
  <circle cx="203.5" cy="303.5" r="0.5" fill="#192276"/>
  <circle cx="144" cy="369" r="14" fill="#E0AED0"/>
  <path d="M137 371C137 369.114 137 368.172 137.586 367.586C138.172 367 139.114 367 141 367H151V375H141C139.114 375 138.172 375 137.586 374.414C137 373.828 137 372.886 137 371Z" fill="#192276"/>
  <path d="M137 365.25C137 365.94 137.56 366.5 138.25 366.5H151V364H138.25C137.56 364 137 364.56 137 365.25Z" fill="#192276"/>
  <path d="M146 370.5C146 369.672 146.672 369 147.5 369H152V372H147.5C146.672 372 146 371.328 146 370.5Z" fill="white"/>
  <circle cx="147.5" cy="370.5" r="0.5" fill="#192276"/>
  <circle cx="150" cy="289" r="14" fill="#E0AED0"/>
  <path d="M143 291C143 289.114 143 288.172 143.586 287.586C144.172 287 145.114 287 147 287H157V295H147C145.114 295 144.172 295 143.586 294.414C143 293.828 143 292.886 143 291Z" fill="#192276"/>
  <path d="M143 285.25C143 285.94 143.56 286.5 144.25 286.5H157V284H144.25C143.56 284 143 284.56 143 285.25Z" fill="#192276"/>
  <path d="M152 290.5C152 289.672 152.672 289 153.5 289H158V292H153.5C152.672 292 152 291.328 152 290.5Z" fill="white"/>
  <circle cx="153.5" cy="290.5" r="0.5" fill="#192276"/>
  <circle cx="85" cy="319" r="14" fill="#E0AED0"/>
  <path d="M78 321C78 319.114 78 318.172 78.5858 317.586C79.1716 317 80.1144 317 82 317H92V325H82C80.1144 325 79.1716 325 78.5858 324.414C78 323.828 78 322.886 78 321Z" fill="#192276"/>
  <path d="M78 315.25C78 315.94 78.5596 316.5 79.25 316.5H92V314H79.25C78.5596 314 78 314.56 78 315.25Z" fill="#192276"/>
  <path d="M87 320.5C87 319.672 87.6716 319 88.5 319H93V322H88.5C87.6716 322 87 321.328 87 320.5Z" fill="white"/>
  <circle cx="88.5" cy="320.5" r="0.5" fill="#192276"/>
  <circle cx="63" cy="272" r="14" fill="#E0AED0"/>
  <path d="M56 274C56 272.114 56 271.172 56.5858 270.586C57.1716 270 58.1144 270 60 270H70V278H60C58.1144 278 57.1716 278 56.5858 277.414C56 276.828 56 275.886 56 274Z" fill="#192276"/>
  <path d="M56 268.25C56 268.94 56.5596 269.5 57.25 269.5H70V267H57.25C56.5596 267 56 267.56 56 268.25Z" fill="#192276"/>
  <path d="M65 273.5C65 272.672 65.6716 272 66.5 272H71V275H66.5C65.6716 275 65 274.328 65 273.5Z" fill="white"/>
  <circle cx="66.5" cy="273.5" r="0.5" fill="#192276"/>
  <circle cx="84" cy="228" r="14" fill="#E0AED0"/>
  <path d="M77 230C77 228.114 77 227.172 77.5858 226.586C78.1716 226 79.1144 226 81 226H91V234H81C79.1144 234 78.1716 234 77.5858 233.414C77 232.828 77 231.886 77 230Z" fill="#192276"/>
  <path d="M77 224.25C77 224.94 77.5596 225.5 78.25 225.5H91V223H78.25C77.5596 223 77 223.56 77 224.25Z" fill="#192276"/>
  <path d="M86 229.5C86 228.672 86.6716 228 87.5 228H92V231H87.5C86.6716 231 86 230.328 86 229.5Z" fill="white"/>
  <circle cx="87.5" cy="229.5" r="0.5" fill="#192276"/>
  <circle cx="386" cy="292" r="14" fill="#AC87C5"/>
  <path d="M379 294C379 292.114 379 291.172 379.586 290.586C380.172 290 381.114 290 383 290H393V298H383C381.114 298 380.172 298 379.586 297.414C379 296.828 379 295.886 379 294Z" fill="white"/>
  <path d="M379 288.25C379 288.94 379.56 289.5 380.25 289.5H393V287H380.25C379.56 287 379 287.56 379 288.25Z" fill="white"/>
  <path d="M388 293.5C388 292.672 388.672 292 389.5 292H394V295H389.5C388.672 295 388 294.328 388 293.5Z" fill="#192276"/>
  <circle cx="389.5" cy="293.5" r="0.5" fill="white"/>
  <circle cx="42" cy="49" r="14" fill="#F2C7C7"/>
  <path d="M35 51C35 49.1144 35 48.1716 35.5858 47.5858C36.1716 47 37.1144 47 39 47H49V55H39C37.1144 55 36.1716 55 35.5858 54.4142C35 53.8284 35 52.8856 35 51Z" fill="#192276"/>
  <path d="M35 45.25C35 45.9404 35.5596 46.5 36.25 46.5H49V44H36.25C35.5596 44 35 44.5596 35 45.25Z" fill="#192276"/>
  <circle cx="85" cy="121" r="14" fill="#F2C7C7"/>
  <path d="M78 123C78 121.114 78 120.172 78.5858 119.586C79.1716 119 80.1144 119 82 119H92V127H82C80.1144 127 79.1716 127 78.5858 126.414C78 125.828 78 124.886 78 123Z" fill="#192276"/>
  <path d="M78 117.25C78 117.94 78.5596 118.5 79.25 118.5H92V116H79.25C78.5596 116 78 116.56 78 117.25Z" fill="#192276"/>
  <path d="M87 122.5C87 121.672 87.6716 121 88.5 121H93V124H88.5C87.6716 124 87 123.328 87 122.5Z" fill="white"/>
  <circle cx="88.5" cy="122.5" r="0.5" fill="#192276"/>
  <g clip-path="url(#clip0_1655_22031)">
    <mask id="mask0_1655_22031" style="mask-type:luminance" maskUnits="userSpaceOnUse" x="206" y="193" width="58" height="8">
      <path d="M264 193H206V201H264V193Z" fill="white"/>
    </mask>
    <g mask="url(#mask0_1655_22031)">
      <g filter="url(#filter1_d_1655_22031)">
        <path d="M215.743 199.307L214.152 200.891C214.118 200.925 214.076 200.953 214.03 200.971C213.983 200.99 213.933 201 213.883 201H206.341C206.305 201 206.27 200.99 206.24 200.972C206.21 200.954 206.186 200.928 206.172 200.897C206.157 200.866 206.153 200.833 206.159 200.8C206.165 200.767 206.181 200.736 206.206 200.712L207.795 199.128C207.829 199.094 207.871 199.066 207.917 199.048C207.963 199.029 208.013 199.019 208.064 199.019H215.606C215.642 199.018 215.678 199.028 215.708 199.046C215.739 199.064 215.763 199.09 215.778 199.121C215.793 199.152 215.797 199.186 215.791 199.219C215.785 199.252 215.768 199.283 215.743 199.307ZM214.152 196.118C214.118 196.084 214.076 196.057 214.03 196.038C213.983 196.019 213.933 196.009 213.883 196.009H206.341C206.305 196.009 206.27 196.019 206.24 196.037C206.21 196.056 206.186 196.082 206.172 196.112C206.157 196.143 206.153 196.177 206.159 196.209C206.165 196.242 206.181 196.273 206.206 196.297L207.795 197.882C207.829 197.916 207.871 197.943 207.917 197.962C207.964 197.981 208.014 197.991 208.064 197.991H215.606C215.642 197.991 215.677 197.981 215.707 197.962C215.737 197.944 215.76 197.918 215.775 197.887C215.789 197.857 215.793 197.823 215.787 197.79C215.781 197.757 215.765 197.727 215.741 197.702L214.152 196.118ZM206.341 194.981H213.883C213.933 194.981 213.983 194.971 214.03 194.952C214.076 194.933 214.118 194.906 214.152 194.872L215.743 193.288C215.768 193.264 215.785 193.233 215.791 193.2C215.797 193.167 215.793 193.133 215.778 193.102C215.763 193.071 215.739 193.045 215.708 193.027C215.678 193.009 215.642 192.999 215.606 193H208.064C208.013 193 207.963 193.01 207.917 193.029C207.871 193.047 207.829 193.075 207.795 193.109L206.206 194.692C206.181 194.717 206.165 194.748 206.159 194.78C206.153 194.813 206.157 194.847 206.172 194.878C206.186 194.908 206.21 194.934 206.24 194.953C206.27 194.971 206.305 194.981 206.341 194.981Z" fill="url(#paint0_linear_1655_22031)"/>
      </g>
      <path d="M224.936 196.383H220.901V195.15H225.985V193.917H220.888C220.714 193.916 220.541 193.947 220.38 194.008C220.219 194.069 220.072 194.159 219.948 194.272C219.824 194.386 219.726 194.521 219.658 194.67C219.591 194.819 219.556 194.979 219.555 195.141V196.391C219.555 196.553 219.59 196.713 219.658 196.862C219.725 197.011 219.824 197.146 219.947 197.26C220.071 197.374 220.218 197.464 220.38 197.525C220.541 197.587 220.714 197.618 220.888 197.617H224.928V198.85H219.651V200.083H224.936C225.11 200.084 225.283 200.053 225.444 199.992C225.606 199.931 225.752 199.841 225.876 199.728C226 199.614 226.098 199.479 226.166 199.33C226.233 199.181 226.269 199.021 226.27 198.859V197.609C226.269 197.447 226.234 197.287 226.166 197.138C226.099 196.989 226.001 196.854 225.877 196.74C225.753 196.626 225.606 196.536 225.445 196.475C225.283 196.413 225.111 196.382 224.936 196.383Z" fill="#17264C"/>
      <path d="M232.754 193.917H228.704C228.53 193.915 228.357 193.946 228.195 194.007C228.033 194.068 227.886 194.158 227.762 194.271C227.638 194.385 227.539 194.52 227.471 194.67C227.403 194.819 227.368 194.979 227.367 195.141V198.859C227.368 199.021 227.403 199.181 227.471 199.33C227.539 199.48 227.638 199.615 227.762 199.729C227.886 199.842 228.033 199.932 228.195 199.993C228.357 200.054 228.53 200.085 228.704 200.083H232.754C232.928 200.084 233.101 200.053 233.262 199.992C233.423 199.931 233.57 199.841 233.694 199.728C233.818 199.614 233.916 199.479 233.984 199.33C234.051 199.181 234.087 199.021 234.087 198.859V195.141C234.087 194.979 234.051 194.819 233.984 194.67C233.916 194.521 233.818 194.386 233.694 194.272C233.57 194.159 233.423 194.069 233.262 194.008C233.101 193.947 232.928 193.916 232.754 193.917ZM232.744 198.85H228.714V195.15H232.743L232.744 198.85Z" fill="#17264C"/>
      <path d="M246.94 193.917H242.99C242.815 193.916 242.643 193.947 242.482 194.008C242.32 194.069 242.173 194.159 242.05 194.272C241.926 194.386 241.827 194.521 241.76 194.67C241.692 194.819 241.657 194.979 241.656 195.141V200.083H243.003V198.057H246.936V200.083H248.282V195.141C248.281 194.978 248.246 194.818 248.178 194.668C248.11 194.519 248.01 194.383 247.886 194.269C247.761 194.156 247.613 194.066 247.451 194.005C247.288 193.945 247.115 193.915 246.94 193.917ZM246.93 196.824H242.998V195.15H246.93V196.824Z" fill="#17264C"/>
      <path d="M262.667 193.917H258.716C258.542 193.916 258.369 193.947 258.208 194.008C258.047 194.069 257.9 194.159 257.776 194.272C257.653 194.386 257.554 194.521 257.487 194.67C257.419 194.819 257.384 194.979 257.383 195.141V200.083H258.73V198.057H262.653V200.083H264V195.141C263.999 194.979 263.964 194.819 263.896 194.67C263.829 194.521 263.73 194.386 263.606 194.272C263.483 194.159 263.336 194.069 263.175 194.008C263.013 193.947 262.841 193.916 262.667 193.917ZM262.653 196.824H258.721V195.15H262.653V196.824Z" fill="#17264C"/>
      <path d="M254.84 198.85H254.301L252.375 194.433C252.309 194.281 252.195 194.15 252.049 194.058C251.902 193.966 251.73 193.917 251.553 193.917H250.358C250.241 193.916 250.126 193.937 250.019 193.978C249.911 194.018 249.814 194.078 249.731 194.154C249.648 194.23 249.583 194.32 249.538 194.42C249.493 194.519 249.469 194.626 249.469 194.733V200.083H250.815V195.15H251.354L253.279 199.567C253.346 199.719 253.461 199.849 253.608 199.94C253.755 200.032 253.928 200.08 254.105 200.08H255.3C255.416 200.081 255.531 200.06 255.639 200.019C255.746 199.978 255.844 199.918 255.927 199.843C256.009 199.767 256.075 199.676 256.12 199.577C256.165 199.478 256.188 199.371 256.189 199.263V193.917H254.84V198.85Z" fill="#17264C"/>
      <path d="M236.624 193.917H235.277V198.859C235.278 199.021 235.314 199.181 235.381 199.331C235.449 199.48 235.548 199.615 235.672 199.729C235.797 199.843 235.944 199.933 236.106 199.993C236.267 200.054 236.441 200.085 236.615 200.083H240.655V198.85H236.624V193.917Z" fill="#17264C"/>
    </g>
  </g>
  <path d="M44 50.5C44 49.6716 44.6716 49 45.5 49H50V52H45.5C44.6716 52 44 51.3284 44 50.5Z" fill="white"/>
  <circle cx="45.5" cy="50.5" r="0.5" fill="#192276"/>
  <g filter="url(#filter2_d_1655_22031)">
    <rect x="317" y="1" width="132" height="167" rx="8" fill="white"/>
    <path d="M384 33C392.744 33 401.342 35.2484 408.967 39.5292C416.592 43.81 422.988 49.9795 427.541 57.445C432.094 64.9106 434.651 73.4215 434.967 82.1602C435.282 90.899 433.345 99.572 429.343 107.346L384 84V33Z" fill="#AC87C5"/>
    <path d="M429.341 107.35C425.816 114.193 420.789 120.15 414.634 124.774C408.48 129.398 401.359 132.569 393.805 134.049C386.251 135.529 378.46 135.279 371.016 133.319C363.571 131.36 356.668 127.74 350.822 122.732L384 84L429.341 107.35Z" fill="#E0AED0"/>
    <path d="M350.82 122.731C342.881 115.929 337.224 106.853 334.614 96.7302C332.005 86.6074 332.569 75.9273 336.231 66.1358L384 84L350.82 122.731Z" fill="#FCD5D5"/>
    <path d="M336.231 66.1347C339.87 56.4063 346.392 48.0207 354.925 42.0994C363.459 36.1781 373.597 33.0034 383.983 33L384 84L336.231 66.1347Z" fill="#756AB6"/>
    <circle cx="326.5" cy="149.5" r="2.5" fill="#AC87C5"/>
    <circle cx="383.5" cy="149.5" r="2.5" fill="#FCD5D5"/>
    <circle cx="358.5" cy="149.5" r="2.5" fill="#E0AED0"/>
    <circle cx="415.5" cy="149.5" r="2.5" fill="#756AB6"/>
  </g>
  <g filter="url(#filter3_d_1655_22031)">
    <rect x="290" y="231" width="132.414" height="167" rx="8" fill="white"/>
    <path d="M357 263C366.78 263 376.353 265.812 384.58 271.101C392.806 276.389 399.338 283.932 403.398 292.829C407.458 301.726 408.874 311.603 407.477 321.283C406.081 330.962 401.931 340.036 395.521 347.423L357 314L357 263Z" fill="#AC87C5"/>
    <path d="M395.54 347.401C390.559 353.149 384.356 357.709 377.384 360.749C370.412 363.789 362.849 365.231 355.247 364.97C347.646 364.708 340.2 362.75 333.453 359.239C326.707 355.727 320.831 350.751 316.256 344.675L357 314L395.54 347.401Z" fill="#E0AED0"/>
    <path d="M316.249 344.665C309.499 335.695 305.897 324.748 306.002 313.522C306.108 302.296 309.914 291.418 316.831 282.576L357 314L316.249 344.665Z" fill="#FCD5D5"/>
    <path d="M316.838 282.567C321.613 276.467 327.714 271.534 334.68 268.143C341.646 264.753 349.292 262.994 357.039 263L357 314L316.838 282.567Z" fill="#756AB6"/>
    <circle cx="300.5" cy="379.5" r="2.5" fill="#AC87C5"/>
    <circle cx="366.5" cy="379.5" r="2.5" fill="#FCD5D5"/>
    <circle cx="340.5" cy="379.5" r="2.5" fill="#E0AED0"/>
    <circle cx="396.5" cy="379.5" r="2.5" fill="#756AB6"/>
    <text style="fill: rgb(55, 65, 81); font-family: Arial, sans-serif; font-size: 6px; white-space: pre;" x="328.198" y="250.209">Token holding pattern</text>
  </g>
  <g filter="url(#filter4_d_1655_22031)">
    <rect x="25" y="85" width="132" height="167" rx="8" fill="white"/>
    <path d="M92 117C100.141 117 108.164 118.949 115.398 122.684C122.632 126.419 128.867 131.832 133.581 138.47C138.295 145.108 141.351 152.778 142.495 160.838C143.638 168.899 142.835 177.116 140.152 184.803L92 168V117Z" fill="#AC87C5"/>
    <path d="M140.162 184.776C137.745 191.715 133.857 198.049 128.765 203.346C123.672 208.643 117.496 212.777 110.657 215.465C103.819 218.153 96.4809 219.331 89.1448 218.92C81.8087 218.509 74.6482 216.517 68.1533 213.081L92 168L140.162 184.776Z" fill="#E0AED0"/>
    <path d="M68.2366 213.125C57.8575 207.66 49.6798 198.783 45.0816 187.992C40.4834 177.2 39.7459 165.153 42.9932 153.882L92 168L68.2366 213.125Z" fill="#FCD5D5"/>
    <path d="M43.0138 153.81C46.0877 143.198 52.5244 133.872 61.3555 127.233C70.1866 120.595 80.9345 117.004 91.9824 117L92 168L43.0138 153.81Z" fill="#756AB6"/>
    <circle cx="38.5" cy="233.5" r="2.5" fill="#AC87C5"/>
    <circle cx="96.5" cy="233.5" r="2.5" fill="#FCD5D5"/>
    <circle cx="63.5" cy="233.5" r="2.5" fill="#E0AED0"/>
    <circle cx="128.5" cy="233.5" r="2.5" fill="#756AB6"/>
    <text style="fill: rgb(55, 65, 81); font-family: Arial, sans-serif; font-size: 6px; white-space: pre;" x="68.094" y="103.931">Activity on DEXs</text>
    <text style="fill: rgb(55, 65, 81); font-family: Arial, sans-serif; font-size: 4px; letter-spacing: 0.1px; white-space: pre;" x="43.269" y="235.24">Orca</text>
    <text style="fill: rgb(55, 65, 81); font-family: Arial, sans-serif; font-size: 4px; letter-spacing: 0.1px; white-space: pre;" x="68.07" y="235.24">Raydium</text>
    <text style="fill: rgb(55, 65, 81); font-family: Arial, sans-serif; font-size: 4px; letter-spacing: 0.1px; white-space: pre;" x="101.465" y="235.24">Phoenix</text>
    <text style="fill: rgb(55, 65, 81); font-family: Arial, sans-serif; font-size: 4px; letter-spacing: 0.1px; white-space: pre;" x="132.721" y="235.24">Lifinity</text>
    <text style="fill: rgb(255, 255, 255); font-family: Arial, sans-serif; font-size: 4px; white-space: pre;" x="68.027" y="146.336">20.51%</text>
    <text style="fill: rgb(55, 65, 81); font-family: Arial, sans-serif; font-size: 4px; white-space: pre;" x="58.233" y="177.328">27.41%</text>
    <text style="fill: rgb(255, 255, 255); font-family: Arial, sans-serif; font-size: 4px; white-space: pre;" x="110.111" y="154.214">30.34%</text>
    <text style="fill: rgb(255, 255, 255); font-family: Arial, sans-serif; font-size: 4px; white-space: pre;" x="94.87" y="196.401">27.75%</text>
  </g>
  <defs>
    <filter id="filter0_d_1655_22031" x="189" y="153" width="92" height="92" filterUnits="userSpaceOnUse" color-interpolation-filters="sRGB">
      <feFlood flood-opacity="0" result="BackgroundImageFix"/>
      <feColorMatrix in="SourceAlpha" type="matrix" values="0 0 0 0 0 0 0 0 0 0 0 0 0 0 0 0 0 0 127 0" result="hardAlpha"/>
      <feOffset dy="2"/>
      <feGaussianBlur stdDeviation="2"/>
      <feComposite in2="hardAlpha" operator="out"/>
      <feColorMatrix type="matrix" values="0 0 0 0 0.527165 0 0 0 0 0.069954 0 0 0 0 0.450962 0 0 0 0.08 0"/>
      <feBlend mode="normal" in2="BackgroundImageFix" result="effect1_dropShadow_1655_22031"/>
      <feBlend mode="normal" in="SourceGraphic" in2="effect1_dropShadow_1655_22031" result="shape"/>
    </filter>
    <filter id="filter1_d_1655_22031" x="202.156" y="193" width="17.6367" height="16.0001" filterUnits="userSpaceOnUse" color-interpolation-filters="sRGB">
      <feFlood flood-opacity="0" result="BackgroundImageFix"/>
      <feColorMatrix in="SourceAlpha" type="matrix" values="0 0 0 0 0 0 0 0 0 0 0 0 0 0 0 0 0 0 127 0" result="hardAlpha"/>
      <feOffset dy="4"/>
      <feGaussianBlur stdDeviation="2"/>
      <feComposite in2="hardAlpha" operator="out"/>
      <feColorMatrix type="matrix" values="0 0 0 0 1 0 0 0 0 1 0 0 0 0 1 0 0 0 0.25 0"/>
      <feBlend mode="normal" in2="BackgroundImageFix" result="effect1_dropShadow_1655_22031"/>
      <feBlend mode="normal" in="SourceGraphic" in2="effect1_dropShadow_1655_22031" result="shape"/>
    </filter>
    <filter id="filter2_d_1655_22031" x="315" y="0" width="136" height="171" filterUnits="userSpaceOnUse" color-interpolation-filters="sRGB">
      <feFlood flood-opacity="0" result="BackgroundImageFix"/>
      <feColorMatrix in="SourceAlpha" type="matrix" values="0 0 0 0 0 0 0 0 0 0 0 0 0 0 0 0 0 0 127 0" result="hardAlpha"/>
      <feOffset dy="1"/>
      <feGaussianBlur stdDeviation="1"/>
      <feComposite in2="hardAlpha" operator="out"/>
      <feColorMatrix type="matrix" values="0 0 0 0 0.337725 0 0 0 0 0 0 0 0 0 0.565918 0 0 0 0.16 0"/>
      <feBlend mode="normal" in2="BackgroundImageFix" result="effect1_dropShadow_1655_22031"/>
      <feBlend mode="normal" in="SourceGraphic" in2="effect1_dropShadow_1655_22031" result="shape"/>
    </filter>
    <filter id="filter3_d_1655_22031" x="288" y="230" width="136.414" height="171" filterUnits="userSpaceOnUse" color-interpolation-filters="sRGB">
      <feFlood flood-opacity="0" result="BackgroundImageFix"/>
      <feColorMatrix in="SourceAlpha" type="matrix" values="0 0 0 0 0 0 0 0 0 0 0 0 0 0 0 0 0 0 127 0" result="hardAlpha"/>
      <feOffset dy="1"/>
      <feGaussianBlur stdDeviation="1"/>
      <feComposite in2="hardAlpha" operator="out"/>
      <feColorMatrix type="matrix" values="0 0 0 0 0.337725 0 0 0 0 0 0 0 0 0 0.565918 0 0 0 0.16 0"/>
      <feBlend mode="normal" in2="BackgroundImageFix" result="effect1_dropShadow_1655_22031"/>
      <feBlend mode="normal" in="SourceGraphic" in2="effect1_dropShadow_1655_22031" result="shape"/>
    </filter>
    <filter id="filter4_d_1655_22031" x="23" y="84" width="136" height="171" filterUnits="userSpaceOnUse" color-interpolation-filters="sRGB">
      <feFlood flood-opacity="0" result="BackgroundImageFix"/>
      <feColorMatrix in="SourceAlpha" type="matrix" values="0 0 0 0 0 0 0 0 0 0 0 0 0 0 0 0 0 0 127 0" result="hardAlpha"/>
      <feOffset dy="1"/>
      <feGaussianBlur stdDeviation="1"/>
      <feComposite in2="hardAlpha" operator="out"/>
      <feColorMatrix type="matrix" values="0 0 0 0 0.337725 0 0 0 0 0 0 0 0 0 0.565918 0 0 0 0.16 0"/>
      <feBlend mode="normal" in2="BackgroundImageFix" result="effect1_dropShadow_1655_22031"/>
      <feBlend mode="normal" in="SourceGraphic" in2="effect1_dropShadow_1655_22031" result="shape"/>
    </filter>
    <linearGradient id="paint0_linear_1655_22031" x1="206.97" y1="201.191" x2="214.225" y2="192.378" gradientUnits="userSpaceOnUse">
      <stop offset="0.08" stop-color="#9945FF"/>
      <stop offset="0.3" stop-color="#8752F3"/>
      <stop offset="0.5" stop-color="#5497D5"/>
      <stop offset="0.6" stop-color="#43B4CA"/>
      <stop offset="0.72" stop-color="#28E0B9"/>
      <stop offset="0.97" stop-color="#19FB9B"/>
    </linearGradient>
    <clipPath id="clip0_1655_22031">
      <rect width="58" height="8" fill="white" transform="translate(206 193)"/>
    </clipPath>
    <clipPath id="clip0_1064_606">
      <rect width="646" height="96" fill="white"/>
    </clipPath>
  </defs>
  <text style="fill: rgb(55, 65, 81); font-family: Arial, sans-serif; font-size: 6px; white-space: pre;" x="344.748" y="20.664">Activity on NFT marketplaces</text>
  <text style="fill: rgb(55, 65, 81); font-family: Arial, sans-serif; font-size: 4px; letter-spacing: 0.1px; white-space: pre;" x="331.304" y="151.055">Tensor</text>
  <text style="fill: rgb(55, 65, 81); font-family: Arial, sans-serif; font-size: 4px; letter-spacing: 0.1px; white-space: pre;" x="363.624" y="151.055">ME</text>
  <text style="fill: rgb(55, 65, 81); font-family: Arial, sans-serif; font-size: 4px; letter-spacing: 0.1px; white-space: pre;" x="388.849" y="151.055">Sniper</text>
  <text style="fill: rgb(55, 65, 81); font-family: Arial, sans-serif; font-size: 4px; letter-spacing: 0.1px; white-space: pre;" x="420.782" y="151.055">Hadeswap</text>
  <text style="fill: rgb(55, 65, 81); font-family: Arial, sans-serif; font-size: 4px; white-space: pre;" x="305.324" y="381.096">USDC / USDT</text>
  <text style="fill: rgb(55, 65, 81); font-family: Arial, sans-serif; font-size: 4px; white-space: pre;" x="345.382" y="381.096">Meme</text>
  <text style="fill: rgb(55, 65, 81); font-family: Arial, sans-serif; font-size: 4px; white-space: pre;" x="371.422" y="381.096">Protocol</text>
  <text style="fill: rgb(55, 65, 81); font-family: Arial, sans-serif; font-size: 4px; white-space: pre;" x="401.395" y="381.096">DePIN</text>
  <text style="fill: rgb(255, 255, 255); font-family: Arial, sans-serif; font-size: 4px; white-space: pre;" x="401.518" y="72.864">32.57%</text>
  <text style="fill: rgb(255, 255, 255); font-family: Arial, sans-serif; font-size: 4px; white-space: pre;" x="360.578" y="62.034">19.3%</text>
  <text style="fill: rgb(255, 255, 255); font-family: Arial, sans-serif; font-size: 4px; white-space: pre;" x="382.921" y="114.312">28.7%</text>
  <text style="fill: rgb(55, 65, 81); font-family: Arial, sans-serif; font-size: 4px; white-space: pre;" x="347.554" y="93.657">19.42%</text>
  <text style="fill: rgb(255, 255, 255); font-family: Arial, sans-serif; font-size: 4px; white-space: pre;" x="338.281" y="287.934">14.44%</text>
  <text style="fill: rgb(255, 255, 255); font-family: Arial, sans-serif; font-size: 4px; white-space: pre;" x="377.952" y="305.232">36.37%</text>
  <text style="fill: rgb(255, 255, 255); font-family: Arial, sans-serif; font-size: 4px; white-space: pre;" x="350.774" y="345.58">28.36%</text>
  <text style="fill: rgb(55, 65, 81); font-family: Arial, sans-serif; font-size: 4px; white-space: pre;" x="318.375" y="315.817">28.83%</text>
  <g clip-path="url(#clip0_1064_606)" transform="matrix(1, 0, 0, 1, 32.855, 196.047928)"/>
</svg>