<svg width="1440" height="435" viewBox="0 0 1440 435" fill="none" xmlns="http://www.w3.org/2000/svg">
  <path
    d="M0 119.266C53.9831 83.4855 217.282 -4.69199 419.044 1.2899C661.968 1.2899 834.714 182.741 1032.43 182.741C1230.14 182.741 1270.63 76.7282 1440 76.7282"
    stroke="#6588E1" stroke-opacity="0.24" />
  <path
    d="M0 125.419C53.9831 89.4796 217.282 0.911969 419.044 6.92033C661.968 6.92033 834.714 189.174 1032.43 189.174C1230.14 189.174 1270.63 82.6924 1440 82.6924"
    stroke="#6588E1" stroke-opacity="0.24" />
  <path
    d="M0 131.329C53.9831 95.548 217.282 7.37051 419.044 13.3524C661.968 13.3524 834.714 194.803 1032.43 194.803C1230.14 194.803 1270.63 88.7907 1440 88.7907"
    stroke="#6588E1" stroke-opacity="0.24" />
  <path
    d="M0 137.481C53.9831 101.542 217.282 12.9745 419.044 18.9828C661.968 18.9828 834.714 201.236 1032.43 201.236C1230.14 201.236 1270.63 94.7549 1440 94.7549"
    stroke="#6588E1" stroke-opacity="0.24" />
  <path
    d="M0 143.391C53.9831 107.61 217.282 19.4328 419.044 25.4147C661.968 25.4147 834.714 206.865 1032.43 206.865C1230.14 206.865 1270.63 100.853 1440 100.853"
    stroke="#6588E1" stroke-opacity="0.24" />
  <path
    d="M0 149.543C53.9831 113.604 217.282 25.0367 419.044 31.0451C661.968 31.0451 834.714 213.299 1032.43 213.299C1230.14 213.299 1270.63 106.817 1440 106.817"
    stroke="#6588E1" stroke-opacity="0.24" />
  <path
    d="M0 155.453C53.9831 119.673 217.282 31.4953 419.044 37.4772C661.968 37.4772 834.714 218.928 1032.43 218.928C1230.14 218.928 1270.63 112.915 1440 112.915"
    stroke="#6588E1" stroke-opacity="0.24" />
  <path
    d="M0 161.606C53.9831 125.667 217.282 37.0992 419.044 43.1076C661.968 43.1076 834.714 225.361 1032.43 225.361C1230.14 225.361 1270.63 118.88 1440 118.88"
    stroke="#6588E1" stroke-opacity="0.24" />
  <path
    d="M0 167.516C53.9831 131.735 217.282 43.5578 419.044 49.5397C661.968 49.5397 834.714 230.99 1032.43 230.99C1230.14 230.99 1270.63 124.978 1440 124.978"
    stroke="#6588E1" stroke-opacity="0.24" />
  <path
    d="M0 173.668C53.9831 137.729 217.282 49.1617 419.044 55.1701C661.968 55.1701 834.714 237.424 1032.43 237.424C1230.14 237.424 1270.63 130.942 1440 130.942"
    stroke="#6588E1" stroke-opacity="0.24" />
  <path
    d="M0 179.578C53.9831 143.798 217.282 55.62 419.044 61.6019C661.968 61.6019 834.714 243.053 1032.43 243.053C1230.14 243.053 1270.63 137.04 1440 137.04"
    stroke="#6588E1" stroke-opacity="0.24" />
  <path
    d="M0 185.207C53.9831 149.427 217.282 61.2492 419.044 67.2311C661.968 67.2311 834.714 248.682 1032.43 248.682C1230.14 248.682 1270.63 142.669 1440 142.669"
    stroke="#6588E1" stroke-opacity="0.24" />
  <path
    d="M0 191.36C53.9831 155.421 217.282 66.8531 419.044 72.8615C661.968 72.8615 834.714 255.115 1032.43 255.115C1230.14 255.115 1270.63 148.634 1440 148.634"
    stroke="#6588E1" stroke-opacity="0.24" />
  <path
    d="M0 197.27C53.9831 161.489 217.282 73.3117 419.044 79.2936C661.968 79.2936 834.714 260.744 1032.43 260.744C1230.14 260.744 1270.63 154.732 1440 154.732"
    stroke="#6588E1" stroke-opacity="0.24" />
  <path
    d="M0 203.422C53.9831 167.483 217.282 78.9156 419.044 84.924C661.968 84.924 834.714 267.177 1032.43 267.177C1230.14 267.177 1270.63 160.696 1440 160.696"
    stroke="#6588E1" stroke-opacity="0.24" />
  <path
    d="M0 209.332C53.9831 173.552 217.282 85.3742 419.044 91.3561C661.968 91.3561 834.714 272.807 1032.43 272.807C1230.14 272.807 1270.63 166.794 1440 166.794"
    stroke="#6588E1" stroke-opacity="0.24" />
  <path
    d="M0 215.485C53.9831 179.546 217.282 90.9781 419.044 96.9865C661.968 96.9865 834.714 279.24 1032.43 279.24C1230.14 279.24 1270.63 172.759 1440 172.759"
    stroke="#6588E1" stroke-opacity="0.24" />
  <path
    d="M0 221.394C53.9831 185.614 217.282 97.4364 419.044 103.418C661.968 103.418 834.714 284.869 1032.43 284.869C1230.14 284.869 1270.63 178.857 1440 178.857"
    stroke="#6588E1" stroke-opacity="0.24" />
  <path
    d="M0 227.547C53.9831 191.608 217.282 103.04 419.044 109.049C661.968 109.049 834.714 291.302 1032.43 291.302C1230.14 291.302 1270.63 184.821 1440 184.821"
    stroke="#6588E1" stroke-opacity="0.24" />
  <path
    d="M0 233.457C53.9831 197.676 217.282 109.499 419.044 115.481C661.968 115.481 834.714 296.931 1032.43 296.931C1230.14 296.931 1270.63 190.919 1440 190.919"
    stroke="#6588E1" stroke-opacity="0.24" />
  <path
    d="M0 239.609C53.9831 203.671 217.282 115.103 419.044 121.111C661.968 121.111 834.714 303.365 1032.43 303.365C1230.14 303.365 1270.63 196.883 1440 196.883"
    stroke="#6588E1" stroke-opacity="0.24" />
  <path
    d="M0 245.519C53.9831 209.739 217.282 121.561 419.044 127.543C661.968 127.543 834.714 308.994 1032.43 308.994C1230.14 308.994 1270.63 202.982 1440 202.982"
    stroke="#6588E1" stroke-opacity="0.24" />
  <path
    d="M0 251.149C53.9831 215.368 217.282 127.191 419.044 133.172C661.968 133.172 834.714 314.623 1032.43 314.623C1230.14 314.623 1270.63 208.611 1440 208.611"
    stroke="#6588E1" stroke-opacity="0.24" />
  <path
    d="M0 257.301C53.9831 221.362 217.282 132.795 419.044 138.803C661.968 138.803 834.714 321.056 1032.43 321.056C1230.14 321.056 1270.63 214.575 1440 214.575"
    stroke="#6588E1" stroke-opacity="0.24" />
  <path
    d="M0 263.211C53.9831 227.43 217.282 139.253 419.044 145.235C661.968 145.235 834.714 326.685 1032.43 326.685C1230.14 326.685 1270.63 220.673 1440 220.673"
    stroke="#6588E1" stroke-opacity="0.24" />
  <path
    d="M0 269.363C53.9831 233.424 217.282 144.857 419.044 150.865C661.968 150.865 834.714 333.119 1032.43 333.119C1230.14 333.119 1270.63 226.637 1440 226.637"
    stroke="#6588E1" stroke-opacity="0.24" />
  <path
    d="M0 275.273C53.9831 239.493 217.282 151.315 419.044 157.297C661.968 157.297 834.714 338.748 1032.43 338.748C1230.14 338.748 1270.63 232.735 1440 232.735"
    stroke="#6588E1" stroke-opacity="0.24" />
  <path
    d="M0 281.426C53.9831 245.487 217.282 156.919 419.044 162.928C661.968 162.928 834.714 345.181 1032.43 345.181C1230.14 345.181 1270.63 238.7 1440 238.7"
    stroke="#6588E1" stroke-opacity="0.24" />
  <path
    d="M0 287.336C53.9831 251.555 217.282 163.378 419.044 169.36C661.968 169.36 834.714 350.81 1032.43 350.81C1230.14 350.81 1270.63 244.798 1440 244.798"
    stroke="#6588E1" stroke-opacity="0.24" />
  <path
    d="M0 293.488C53.9831 257.549 217.282 168.982 419.044 174.99C661.968 174.99 834.714 357.244 1032.43 357.244C1230.14 357.244 1270.63 250.762 1440 250.762"
    stroke="#6588E1" stroke-opacity="0.24" />
  <path
    d="M0 299.398C53.9831 263.618 217.282 175.44 419.044 181.422C661.968 181.422 834.714 362.873 1032.43 362.873C1230.14 362.873 1270.63 256.86 1440 256.86"
    stroke="#6588E1" stroke-opacity="0.24" />
  <path
    d="M0 305.027C53.9831 269.247 217.282 181.069 419.044 187.051C661.968 187.051 834.714 368.502 1032.43 368.502C1230.14 368.502 1270.63 262.489 1440 262.489"
    stroke="#6588E1" stroke-opacity="0.24" />
  <path
    d="M0 311.18C53.9831 275.241 217.282 186.673 419.044 192.682C661.968 192.682 834.714 374.935 1032.43 374.935C1230.14 374.935 1270.63 268.454 1440 268.454"
    stroke="#6588E1" stroke-opacity="0.24" />
  <path
    d="M0 317.09C53.9831 281.309 217.282 193.132 419.044 199.114C661.968 199.114 834.714 380.564 1032.43 380.564C1230.14 380.564 1270.63 274.552 1440 274.552"
    stroke="#6588E1" stroke-opacity="0.24" />
  <path
    d="M0 323.242C53.9831 287.303 217.282 198.736 419.044 204.744C661.968 204.744 834.714 386.998 1032.43 386.998C1230.14 386.998 1270.63 280.516 1440 280.516"
    stroke="#6588E1" stroke-opacity="0.24" />
  <path
    d="M0 329.152C53.9831 293.372 217.282 205.194 419.044 211.176C661.968 211.176 834.714 392.627 1032.43 392.627C1230.14 392.627 1270.63 286.614 1440 286.614"
    stroke="#6588E1" stroke-opacity="0.24" />
  <path
    d="M0 335.305C53.9831 299.366 217.282 210.798 419.044 216.807C661.968 216.807 834.714 399.06 1032.43 399.06C1230.14 399.06 1270.63 292.579 1440 292.579"
    stroke="#6588E1" stroke-opacity="0.24" />
  <path
    d="M0 341.215C53.9831 305.434 217.282 217.256 419.044 223.238C661.968 223.238 834.714 404.689 1032.43 404.689C1230.14 404.689 1270.63 298.677 1440 298.677"
    stroke="#6588E1" stroke-opacity="0.24" />
  <path
    d="M0 347.367C53.9831 311.428 217.282 222.86 419.044 228.869C661.968 228.869 834.714 411.122 1032.43 411.122C1230.14 411.122 1270.63 304.641 1440 304.641"
    stroke="#6588E1" stroke-opacity="0.24" />
  <path
    d="M0 353.277C53.9831 317.496 217.282 229.319 419.044 235.301C661.968 235.301 834.714 416.751 1032.43 416.751C1230.14 416.751 1270.63 310.739 1440 310.739"
    stroke="#6588E1" stroke-opacity="0.24" />
  <path
    d="M0 359.43C53.9831 323.491 217.282 234.923 419.044 240.931C661.968 240.931 834.714 423.185 1032.43 423.185C1230.14 423.185 1270.63 316.703 1440 316.703"
    stroke="#6588E1" stroke-opacity="0.24" />
  <path
    d="M0 365.34C53.9831 329.559 217.282 241.381 419.044 247.363C661.968 247.363 834.714 428.814 1032.43 428.814C1230.14 428.814 1270.63 322.802 1440 322.802"
    stroke="#6588E1" stroke-opacity="0.24" />
  <path
    d="M0 370.969C53.9831 335.188 217.282 247.011 419.044 252.993C661.968 252.993 834.714 434.443 1032.43 434.443C1230.14 434.443 1270.63 328.431 1440 328.431"
    stroke="#6588E1" stroke-opacity="0.24" />
  <path
    d="M0 377.121C53.9831 341.182 217.282 252.615 419.044 258.623C661.968 258.623 834.714 440.876 1032.43 440.876C1230.14 440.876 1270.63 334.395 1440 334.395"
    stroke="#6588E1" stroke-opacity="0.24" />
  <path
    d="M0 383.031C53.9831 347.25 217.282 259.073 419.044 265.055C661.968 265.055 834.714 446.505 1032.43 446.505C1230.14 446.505 1270.63 340.493 1440 340.493"
    stroke="#6588E1" stroke-opacity="0.24" />
  <path
    d="M0 389.183C53.9831 353.245 217.282 264.677 419.044 270.685C661.968 270.685 834.714 452.939 1032.43 452.939C1230.14 452.939 1270.63 346.457 1440 346.457"
    stroke="#6588E1" stroke-opacity="0.24" />
  <path
    d="M0 395.093C53.9831 359.313 217.282 271.135 419.044 277.117C661.968 277.117 834.714 458.568 1032.43 458.568C1230.14 458.568 1270.63 352.556 1440 352.556"
    stroke="#6588E1" stroke-opacity="0.24" />
  <path
    d="M0 401.246C53.9831 365.307 217.282 276.739 419.044 282.748C661.968 282.748 834.714 465.001 1032.43 465.001C1230.14 465.001 1270.63 358.52 1440 358.52"
    stroke="#6588E1" stroke-opacity="0.24" />
  <path
    d="M0 407.156C53.9831 371.375 217.282 283.198 419.044 289.18C661.968 289.18 834.714 470.63 1032.43 470.63C1230.14 470.63 1270.63 364.618 1440 364.618"
    stroke="#6588E1" stroke-opacity="0.24" />
  <path
    d="M0 413.308C53.9831 377.37 217.282 288.802 419.044 294.81C661.968 294.81 834.714 477.064 1032.43 477.064C1230.14 477.064 1270.63 370.582 1440 370.582"
    stroke="#6588E1" stroke-opacity="0.24" />
  <path
    d="M0 419.218C53.9831 383.438 217.282 295.26 419.044 301.242C661.968 301.242 834.714 482.693 1032.43 482.693C1230.14 482.693 1270.63 376.68 1440 376.68"
    stroke="#6588E1" stroke-opacity="0.24" />
  <path
    d="M0 425.371C53.9831 389.432 217.282 300.864 419.044 306.872C661.968 306.872 834.714 489.126 1032.43 489.126C1230.14 489.126 1270.63 382.645 1440 382.645"
    stroke="#6588E1" stroke-opacity="0.24" />
  <path
    d="M0 431.281C53.9831 395.5 217.282 307.323 419.044 313.305C661.968 313.305 834.714 494.755 1032.43 494.755C1230.14 494.755 1270.63 388.743 1440 388.743"
    stroke="#6588E1" stroke-opacity="0.24" />
  <path
    d="M0 436.91C53.9831 401.129 217.282 312.952 419.044 318.934C661.968 318.934 834.714 500.384 1032.43 500.384C1230.14 500.384 1270.63 394.372 1440 394.372"
    stroke="#6588E1" stroke-opacity="0.24" />
  <path
    d="M0 443.062C53.9831 407.123 217.282 318.556 419.044 324.564C661.968 324.564 834.714 506.818 1032.43 506.818C1230.14 506.818 1270.63 400.336 1440 400.336"
    stroke="#6588E1" stroke-opacity="0.24" />
  <path
    d="M0 448.972C53.9831 413.192 217.282 325.014 419.044 330.996C661.968 330.996 834.714 512.447 1032.43 512.447C1230.14 512.447 1270.63 406.434 1440 406.434"
    stroke="#6588E1" stroke-opacity="0.24" />
  <path
    d="M0 455.125C53.9831 419.186 217.282 330.618 419.044 336.627C661.968 336.627 834.714 518.88 1032.43 518.88C1230.14 518.88 1270.63 412.399 1440 412.399"
    stroke="#6588E1" stroke-opacity="0.24" />
  <path
    d="M0 461.035C53.9831 425.254 217.282 337.077 419.044 343.058C661.968 343.058 834.714 524.509 1032.43 524.509C1230.14 524.509 1270.63 418.497 1440 418.497"
    stroke="#6588E1" stroke-opacity="0.24" />
  <path
    d="M0 467.187C53.9831 431.248 217.282 342.681 419.044 348.689C661.968 348.689 834.714 530.942 1032.43 530.942C1230.14 530.942 1270.63 424.461 1440 424.461"
    stroke="#6588E1" stroke-opacity="0.24" />
  <path
    d="M0 473.097C53.9831 437.317 217.282 349.139 419.044 355.121C661.968 355.121 834.714 536.572 1032.43 536.572C1230.14 536.572 1270.63 430.559 1440 430.559"
    stroke="#6588E1" stroke-opacity="0.24" />
  <path
    d="M0 479.25C53.9831 443.311 217.282 354.743 419.044 360.751C661.968 360.751 834.714 543.005 1032.43 543.005C1230.14 543.005 1270.63 436.523 1440 436.523"
    stroke="#6588E1" stroke-opacity="0.24" />
  <path
    d="M0 485.16C53.9831 449.379 217.282 361.202 419.044 367.183C661.968 367.183 834.714 548.634 1032.43 548.634C1230.14 548.634 1270.63 442.622 1440 442.622"
    stroke="#6588E1" stroke-opacity="0.24" />
  <path
    d="M0 491.312C53.9831 455.373 217.282 366.806 419.044 372.814C661.968 372.814 834.714 555.067 1032.43 555.067C1230.14 555.067 1270.63 448.586 1440 448.586"
    stroke="#6588E1" stroke-opacity="0.24" />
  <path
    d="M0 497.222C53.9831 461.442 217.282 373.264 419.044 379.246C661.968 379.246 834.714 560.697 1032.43 560.697C1230.14 560.697 1270.63 454.684 1440 454.684"
    stroke="#6588E1" stroke-opacity="0.24" />
  <path
    d="M0 502.851C53.9831 467.07 217.282 378.893 419.044 384.875C661.968 384.875 834.714 566.325 1032.43 566.325C1230.14 566.325 1270.63 460.313 1440 460.313"
    stroke="#6588E1" stroke-opacity="0.24" />
  <path
    d="M0 507.676C53.9831 471.896 217.282 383.718 419.044 389.7C661.968 389.7 834.714 571.151 1032.43 571.151C1230.14 571.151 1270.63 465.138 1440 465.138"
    stroke="#6588E1" stroke-opacity="0.24" />
  <path
    d="M0 512.501C53.9831 476.721 217.282 388.543 419.044 394.525C661.968 394.525 834.714 575.976 1032.43 575.976C1230.14 575.976 1270.63 469.963 1440 469.963"
    stroke="#6588E1" stroke-opacity="0.24" />
  <path
    d="M0 517.326C53.9831 481.546 217.282 393.368 419.044 399.35C661.968 399.35 834.714 580.801 1032.43 580.801C1230.14 580.801 1270.63 474.788 1440 474.788"
    stroke="#6588E1" stroke-opacity="0.24" />
  <path
    d="M0 522.151C53.9831 486.371 217.282 398.193 419.044 404.175C661.968 404.175 834.714 585.626 1032.43 585.626C1230.14 585.626 1270.63 479.613 1440 479.613"
    stroke="#6588E1" stroke-opacity="0.24" />
  <path
    d="M0 526.976C53.9831 491.195 217.282 403.018 419.044 409C661.968 409 834.714 590.45 1032.43 590.45C1230.14 590.45 1270.63 484.438 1440 484.438"
    stroke="#6588E1" stroke-opacity="0.24" />
  <path
    d="M0 531.801C53.9831 496.02 217.282 407.843 419.044 413.825C661.968 413.825 834.714 595.275 1032.43 595.275C1230.14 595.275 1270.63 489.263 1440 489.263"
    stroke="#6588E1" stroke-opacity="0.24" />
  <path
    d="M0 536.626C53.9831 500.845 217.282 412.668 419.044 418.65C661.968 418.65 834.714 600.1 1032.43 600.1C1230.14 600.1 1270.63 494.088 1440 494.088"
    stroke="#6588E1" stroke-opacity="0.24" />
  <path
    d="M0 541.451C53.9831 505.67 217.282 417.493 419.044 423.475C661.968 423.475 834.714 604.925 1032.43 604.925C1230.14 604.925 1270.63 498.913 1440 498.913"
    stroke="#6588E1" stroke-opacity="0.24" />
  <path
    d="M0 546.276C53.9831 510.495 217.282 422.318 419.044 428.3C661.968 428.3 834.714 609.75 1032.43 609.75C1230.14 609.75 1270.63 503.738 1440 503.738"
    stroke="#6588E1" stroke-opacity="0.24" />
  <path
    d="M0 551.101C53.9831 515.32 217.282 427.143 419.044 433.125C661.968 433.125 834.714 614.575 1032.43 614.575C1230.14 614.575 1270.63 508.563 1440 508.563"
    stroke="#6588E1" stroke-opacity="0.24" />
  <path
    d="M0 555.926C53.9831 520.145 217.282 431.968 419.044 437.95C661.968 437.95 834.714 619.4 1032.43 619.4C1230.14 619.4 1270.63 513.388 1440 513.388"
    stroke="#6588E1" stroke-opacity="0.24" />
</svg>
