<svg width="72" height="26" viewBox="8 5 72 26" fill="none" xmlns="http://www.w3.org/2000/svg">
  <g clip-path="url(#clip0_311_1402)">
    <path
      d="M25.0482 26.2464C25.0482 27.097 24.7476 27.8428 24.2649 28.4149C24.2592 28.4216 24.2552 28.4298 24.2535 28.4387C24.2462 28.4752 24.2773 28.5074 24.3117 28.4985C25.7035 28.137 26.8289 26.8837 26.8289 25.2378V16.7057C26.8289 14.1836 25.4925 11.853 23.3232 10.592L14.564 5.5L12.8289 6.53497L21.5426 11.6005C23.7119 12.8616 25.0482 15.1921 25.0482 17.7143V26.2464Z"
      fill="url(#paint0_linear_311_1402)" />
    <path
      d="M25.0482 26.2464C25.0482 27.097 24.7476 27.8428 24.2649 28.4149C24.2592 28.4216 24.2552 28.4298 24.2535 28.4387C24.2462 28.4752 24.2773 28.5074 24.3117 28.4985C25.7035 28.137 26.8289 26.8837 26.8289 25.2378V16.7057C26.8289 14.1836 25.4925 11.853 23.3232 10.592L14.564 5.5L12.8289 6.53497L21.5426 11.6005C23.7119 12.8616 25.0482 15.1921 25.0482 17.7143V26.2464Z"
      fill="url(#paint1_linear_311_1402)" />
    <path
      d="M25.0482 26.2464C25.0482 27.097 24.7476 27.8428 24.2649 28.4149C24.2592 28.4216 24.2552 28.4298 24.2535 28.4387C24.2462 28.4752 24.2773 28.5074 24.3117 28.4985C25.7035 28.137 26.8289 26.8837 26.8289 25.2378V16.7057C26.8289 14.1836 25.4925 11.853 23.3232 10.592L14.564 5.5L12.8289 6.53497L21.5426 11.6005C23.7119 12.8616 25.0482 15.1921 25.0482 17.7143V26.2464Z"
      fill="url(#paint2_radial_311_1402)" fill-opacity="0.2" />
    <path
      d="M25.0482 26.2464C25.0482 27.097 24.7476 27.8428 24.2649 28.4149C24.2592 28.4216 24.2552 28.4298 24.2535 28.4387C24.2462 28.4752 24.2773 28.5074 24.3117 28.4985C25.7035 28.137 26.8289 26.8837 26.8289 25.2378V16.7057C26.8289 14.1836 25.4925 11.853 23.3232 10.592L14.564 5.5L12.8289 6.53497L21.5426 11.6005C23.7119 12.8616 25.0482 15.1921 25.0482 17.7143V26.2464Z"
      fill="url(#paint3_radial_311_1402)" fill-opacity="0.1" />
    <path
      d="M25.0482 26.2464C25.0482 27.097 24.7476 27.8428 24.2649 28.4149C24.2592 28.4216 24.2552 28.4298 24.2535 28.4387C24.2462 28.4752 24.2773 28.5074 24.3117 28.4985C25.7035 28.137 26.8289 26.8837 26.8289 25.2378V16.7057C26.8289 14.1836 25.4925 11.853 23.3232 10.592L14.564 5.5L12.8289 6.53497L21.5426 11.6005C23.7119 12.8616 25.0482 15.1921 25.0482 17.7143V26.2464Z"
      fill="white" />
    <path
      d="M22.0482 28.2463V19.7143C22.0482 17.1921 20.7119 14.8615 18.5426 13.6005L9.82887 8.53497L11.564 7.5L20.3232 12.592C22.4925 13.853 23.8289 16.1836 23.8289 18.7058V27.2378C23.8289 28.8836 22.7035 30.137 21.3117 30.4985C21.2773 30.5074 21.2462 30.4752 21.2535 30.4387C21.2553 30.4298 21.2592 30.4216 21.2649 30.4148C21.7476 29.8428 22.0482 29.097 22.0482 28.2463Z"
      fill="url(#paint4_linear_311_1402)" />
    <path
      d="M22.0482 28.2463V19.7143C22.0482 17.1921 20.7119 14.8615 18.5426 13.6005L9.82887 8.53497L11.564 7.5L20.3232 12.592C22.4925 13.853 23.8289 16.1836 23.8289 18.7058V27.2378C23.8289 28.8836 22.7035 30.137 21.3117 30.4985C21.2773 30.5074 21.2462 30.4752 21.2535 30.4387C21.2553 30.4298 21.2592 30.4216 21.2649 30.4148C21.7476 29.8428 22.0482 29.097 22.0482 28.2463Z"
      fill="url(#paint5_linear_311_1402)" />
    <path
      d="M22.0482 28.2463V19.7143C22.0482 17.1921 20.7119 14.8615 18.5426 13.6005L9.82887 8.53497L11.564 7.5L20.3232 12.592C22.4925 13.853 23.8289 16.1836 23.8289 18.7058V27.2378C23.8289 28.8836 22.7035 30.137 21.3117 30.4985C21.2773 30.5074 21.2462 30.4752 21.2535 30.4387C21.2553 30.4298 21.2592 30.4216 21.2649 30.4148C21.7476 29.8428 22.0482 29.097 22.0482 28.2463Z"
      fill="url(#paint6_radial_311_1402)" fill-opacity="0.2" />
    <path
      d="M22.0482 28.2463V19.7143C22.0482 17.1921 20.7119 14.8615 18.5426 13.6005L9.82887 8.53497L11.564 7.5L20.3232 12.592C22.4925 13.853 23.8289 16.1836 23.8289 18.7058V27.2378C23.8289 28.8836 22.7035 30.137 21.3117 30.4985C21.2773 30.5074 21.2462 30.4752 21.2535 30.4387C21.2553 30.4298 21.2592 30.4216 21.2649 30.4148C21.7476 29.8428 22.0482 29.097 22.0482 28.2463Z"
      fill="url(#paint7_radial_311_1402)" fill-opacity="0.1" />
    <path
      d="M22.0482 28.2463V19.7143C22.0482 17.1921 20.7119 14.8615 18.5426 13.6005L9.82887 8.53497L11.564 7.5L20.3232 12.592C22.4925 13.853 23.8289 16.1836 23.8289 18.7058V27.2378C23.8289 28.8836 22.7035 30.137 21.3117 30.4985C21.2773 30.5074 21.2462 30.4752 21.2535 30.4387C21.2553 30.4298 21.2592 30.4216 21.2649 30.4148C21.7476 29.8428 22.0482 29.097 22.0482 28.2463Z"
      fill="white" />
    <path fill-rule="evenodd" clip-rule="evenodd"
      d="M7.82887 8.5437L9.58378 7.5L18.3289 12.5689C20.4947 13.8243 21.8289 16.1443 21.8289 18.655V27.1904L21.8286 27.1903C21.7988 29.742 19.0391 31.3278 16.8289 30.0467L8.90296 25.4526L7.82887 24.846V8.5437ZM20.0511 19.6855V24.6162L14.1622 21.2029V12.2147L16.5511 13.5994C18.7169 14.8547 20.0511 17.1747 20.0511 19.6855ZM11.94 10.9266L12.8289 11.4419V21.9752L12.9222 22.0278L20.0511 26.1599V27.1138L11.9515 22.419L11.94 22.4259V10.9266ZM10.4955 10.0894V23.2361L10.5373 23.2601L10.4955 23.2849L20.0402 28.8173C19.9604 29.2585 19.459 29.5102 19.0511 29.2738L9.60665 23.7995V9.57416L10.4955 10.0894Z"
      fill="url(#paint8_linear_311_1402)" />
    <path fill-rule="evenodd" clip-rule="evenodd"
      d="M7.82887 8.5437L9.58378 7.5L18.3289 12.5689C20.4947 13.8243 21.8289 16.1443 21.8289 18.655V27.1904L21.8286 27.1903C21.7988 29.742 19.0391 31.3278 16.8289 30.0467L8.90296 25.4526L7.82887 24.846V8.5437ZM20.0511 19.6855V24.6162L14.1622 21.2029V12.2147L16.5511 13.5994C18.7169 14.8547 20.0511 17.1747 20.0511 19.6855ZM11.94 10.9266L12.8289 11.4419V21.9752L12.9222 22.0278L20.0511 26.1599V27.1138L11.9515 22.419L11.94 22.4259V10.9266ZM10.4955 10.0894V23.2361L10.5373 23.2601L10.4955 23.2849L20.0402 28.8173C19.9604 29.2585 19.459 29.5102 19.0511 29.2738L9.60665 23.7995V9.57416L10.4955 10.0894Z"
      fill="url(#paint9_linear_311_1402)" />
    <path fill-rule="evenodd" clip-rule="evenodd"
      d="M7.82887 8.5437L9.58378 7.5L18.3289 12.5689C20.4947 13.8243 21.8289 16.1443 21.8289 18.655V27.1904L21.8286 27.1903C21.7988 29.742 19.0391 31.3278 16.8289 30.0467L8.90296 25.4526L7.82887 24.846V8.5437ZM20.0511 19.6855V24.6162L14.1622 21.2029V12.2147L16.5511 13.5994C18.7169 14.8547 20.0511 17.1747 20.0511 19.6855ZM11.94 10.9266L12.8289 11.4419V21.9752L12.9222 22.0278L20.0511 26.1599V27.1138L11.9515 22.419L11.94 22.4259V10.9266ZM10.4955 10.0894V23.2361L10.5373 23.2601L10.4955 23.2849L20.0402 28.8173C19.9604 29.2585 19.459 29.5102 19.0511 29.2738L9.60665 23.7995V9.57416L10.4955 10.0894Z"
      fill="url(#paint10_radial_311_1402)" fill-opacity="0.2" />
    <path fill-rule="evenodd" clip-rule="evenodd"
      d="M7.82887 8.5437L9.58378 7.5L18.3289 12.5689C20.4947 13.8243 21.8289 16.1443 21.8289 18.655V27.1904L21.8286 27.1903C21.7988 29.742 19.0391 31.3278 16.8289 30.0467L8.90296 25.4526L7.82887 24.846V8.5437ZM20.0511 19.6855V24.6162L14.1622 21.2029V12.2147L16.5511 13.5994C18.7169 14.8547 20.0511 17.1747 20.0511 19.6855ZM11.94 10.9266L12.8289 11.4419V21.9752L12.9222 22.0278L20.0511 26.1599V27.1138L11.9515 22.419L11.94 22.4259V10.9266ZM10.4955 10.0894V23.2361L10.5373 23.2601L10.4955 23.2849L20.0402 28.8173C19.9604 29.2585 19.459 29.5102 19.0511 29.2738L9.60665 23.7995V9.57416L10.4955 10.0894Z"
      fill="url(#paint11_radial_311_1402)" fill-opacity="0.1" />
    <path fill-rule="evenodd" clip-rule="evenodd"
      d="M7.82887 8.5437L9.58378 7.5L18.3289 12.5689C20.4947 13.8243 21.8289 16.1443 21.8289 18.655V27.1904L21.8286 27.1903C21.7988 29.742 19.0391 31.3278 16.8289 30.0467L8.90296 25.4526L7.82887 24.846V8.5437ZM20.0511 19.6855V24.6162L14.1622 21.2029V12.2147L16.5511 13.5994C18.7169 14.8547 20.0511 17.1747 20.0511 19.6855ZM11.94 10.9266L12.8289 11.4419V21.9752L12.9222 22.0278L20.0511 26.1599V27.1138L11.9515 22.419L11.94 22.4259V10.9266ZM10.4955 10.0894V23.2361L10.5373 23.2601L10.4955 23.2849L20.0402 28.8173C19.9604 29.2585 19.459 29.5102 19.0511 29.2738L9.60665 23.7995V9.57416L10.4955 10.0894Z"
      fill="white" />
  </g>
  <g clip-path="url(#clip1_311_1402)">
    <path
      d="M32.7005 10.5H39.237C40.6315 10.5 41.8913 10.82 43.0163 11.46C44.1572 12.0848 45.0526 12.9914 45.7022 14.18C46.3678 15.3686 46.7005 16.7629 46.7005 18.3629C46.7005 20.0695 46.3757 21.54 45.726 22.7743C45.0763 23.9934 44.181 24.9229 43.0401 25.5628C41.915 26.1876 40.6473 26.5 39.237 26.5H32.7005V10.5ZM38.9043 23.78C40.1878 23.78 41.2495 23.3229 42.0893 22.4086C42.9292 21.4943 43.3491 20.1457 43.3491 18.3629C43.3491 17.2657 43.151 16.3286 42.7549 15.5514C42.3587 14.7743 41.8199 14.1952 41.1386 13.8143C40.473 13.4181 39.7283 13.22 38.9043 13.22H36.0044V23.78H38.9043Z"
      fill="white" />
    <path
      d="M53.9804 17.0714C53.3114 17.0714 52.7779 17.3492 52.3797 17.9048C51.9815 18.4603 51.7824 19.1111 51.7824 19.8572V26.5H48.7005V14.5H51.7824V16.0714C52.0213 15.5635 52.3479 15.1746 52.7619 14.9047C53.1761 14.6349 53.6619 14.5 54.2193 14.5H55.7005V17.0714H53.9804Z"
      fill="white" />
    <path d="M56.7868 14.4154H59.571V26.5H56.7868V14.4154ZM59.7005 9.5V12.665H56.7005V9.5H59.7005Z" fill="white" />
    <path
      d="M65.012 17.1629H62.7005V14.6165H65.012V12.9896C65.012 11.8578 65.3071 10.9933 65.8973 10.396C66.4874 9.79866 67.3317 9.5 68.43 9.5H71.4546V12.0465H69.4874C69.0448 12.0465 68.7169 12.1565 68.5038 12.3766C68.2907 12.5809 68.1841 12.9267 68.1841 13.414V14.6165H71.7005V17.1629H68.1841V26.5H65.012V17.1629Z"
      fill="white" />
    <path
      d="M76.6697 10.5V14.6412H79.7005V17.1823H76.6697V22.6647C76.6697 23.5274 77.0413 23.9588 77.7841 23.9588H79.6334V26.5H76.9371C75.927 26.5 75.1471 26.2176 74.5974 25.6529C74.0626 25.0725 73.7952 24.1863 73.7952 22.9941V17.1823H71.7005V14.6412H73.7952V11.7706L76.6697 10.5Z"
      fill="white" />
  </g>
  <defs>
    <linearGradient id="paint0_linear_311_1402" x1="7.5043" y1="18.537" x2="26.632" y2="16.915"
      gradientUnits="userSpaceOnUse">
      <stop stop-color="#FF3873" />
      <stop offset="0.473958" stop-color="#711EFF" />
      <stop offset="1" stop-color="#3FE5FF" />
    </linearGradient>
    <linearGradient id="paint1_linear_311_1402" x1="8.99892" y1="6.69999" x2="22.9273" y2="17.9244"
      gradientUnits="userSpaceOnUse">
      <stop stop-color="#F6F063" />
      <stop offset="1" stop-color="#E07774" stop-opacity="0" />
    </linearGradient>
    <radialGradient id="paint2_radial_311_1402" cx="0" cy="0" r="1" gradientUnits="userSpaceOnUse"
      gradientTransform="translate(8.32195 14.6657) rotate(66.7022) scale(5.7907 4.79591)">
      <stop offset="0.925861" stop-color="white" />
      <stop offset="1" stop-color="white" stop-opacity="0" />
    </radialGradient>
    <radialGradient id="paint3_radial_311_1402" cx="0" cy="0" r="1" gradientUnits="userSpaceOnUse"
      gradientTransform="translate(11.0826 12.2477) rotate(60.3203) scale(3.65773 4.86815)">
      <stop offset="0.0864251" stop-color="white" />
      <stop offset="0.94115" stop-color="white" stop-opacity="0" />
    </radialGradient>
    <linearGradient id="paint4_linear_311_1402" x1="6.95268" y1="19.0803" x2="26.0804" y2="17.4582"
      gradientUnits="userSpaceOnUse">
      <stop stop-color="#FF3873" />
      <stop offset="0.473958" stop-color="#711EFF" />
      <stop offset="1" stop-color="#3FE5FF" />
    </linearGradient>
    <linearGradient id="paint5_linear_311_1402" x1="8.4473" y1="7.24324" x2="22.3757" y2="18.4677"
      gradientUnits="userSpaceOnUse">
      <stop stop-color="#F6F063" />
      <stop offset="1" stop-color="#E07774" stop-opacity="0" />
    </linearGradient>
    <radialGradient id="paint6_radial_311_1402" cx="0" cy="0" r="1" gradientUnits="userSpaceOnUse"
      gradientTransform="translate(7.77033 15.209) rotate(66.7022) scale(5.7907 4.79591)">
      <stop offset="0.925861" stop-color="white" />
      <stop offset="1" stop-color="white" stop-opacity="0" />
    </radialGradient>
    <radialGradient id="paint7_radial_311_1402" cx="0" cy="0" r="1" gradientUnits="userSpaceOnUse"
      gradientTransform="translate(10.531 12.7909) rotate(60.3202) scale(3.65773 4.86815)">
      <stop offset="0.0864251" stop-color="white" />
      <stop offset="0.94115" stop-color="white" stop-opacity="0" />
    </radialGradient>
    <linearGradient id="paint8_linear_311_1402" x1="7.51287" y1="17.522" x2="26.609" y2="15.8978"
      gradientUnits="userSpaceOnUse">
      <stop stop-color="#FF3873" />
      <stop offset="0.473958" stop-color="#711EFF" />
      <stop offset="1" stop-color="#3FE5FF" />
    </linearGradient>
    <linearGradient id="paint9_linear_311_1402" x1="9.00509" y1="5.73848" x2="22.879" y2="16.9518"
      gradientUnits="userSpaceOnUse">
      <stop stop-color="#F6F063" />
      <stop offset="1" stop-color="#E07774" stop-opacity="0" />
    </linearGradient>
    <radialGradient id="paint10_radial_311_1402" cx="0" cy="0" r="1" gradientUnits="userSpaceOnUse"
      gradientTransform="translate(8.3292 13.6682) rotate(66.6413) scale(5.76713 4.78599)">
      <stop offset="0.925861" stop-color="white" />
      <stop offset="1" stop-color="white" stop-opacity="0" />
    </radialGradient>
    <radialGradient id="paint11_radial_311_1402" cx="0" cy="0" r="1" gradientUnits="userSpaceOnUse"
      gradientTransform="translate(11.0854 11.2611) rotate(60.2481) scale(3.64379 4.85682)">
      <stop offset="0.0864251" stop-color="white" />
      <stop offset="0.94115" stop-color="white" stop-opacity="0" />
    </radialGradient>
    <clipPath id="clip0_311_1402">
      <rect width="19" height="25" fill="white" transform="translate(7.82887 5.5)" />
    </clipPath>
    <clipPath id="clip1_311_1402">
      <rect width="48" height="17" fill="white" transform="translate(32.7005 9.5)" />
    </clipPath>
  </defs>
</svg>