<svg width="170" height="16" viewBox="8 10 170 16" fill="none" xmlns="http://www.w3.org/2000/svg">
  <g clip-path="url(#clip0_311_1378)">
    <path fill-rule="evenodd" clip-rule="evenodd"
      d="M19.7048 21.1533C19.8104 21.3267 19.7972 21.5467 19.6849 21.7133L17.1949 25.3333C16.9836 25.6467 16.5146 25.6267 16.3297 25.3L7.90186 10.78C7.69711 10.4333 7.9481 10 8.34439 10H12.8489C13.0338 10 13.199 10.0933 13.2914 10.2533L19.7048 21.1533ZM31.7586 25.22C31.9568 25.5667 31.7124 26 31.3161 26H26.838C26.6531 26 26.488 25.9 26.3955 25.74L17.7101 10.78C17.5119 10.4333 17.7563 10 18.1526 10H22.6505C22.8355 10 23.0006 10.1 23.0931 10.26L31.752 25.22H31.7586ZM11.4553 25.86C11.8516 25.86 12.1026 25.42 11.8978 25.0733L8.80673 19.82C8.54254 19.3667 7.84902 19.5533 7.84902 20.0867V25.34C7.84902 25.6267 8.08019 25.86 8.3642 25.86H11.4487H11.4553Z"
      fill="#F9FAFF" />
    <path
      d="M39.6577 26H42.3235V15.42L48.5234 26H50.792L56.992 15.42V26H59.6577V10H57.0391L49.6678 22.62L42.2764 10H39.6577V26Z"
      fill="#F9FAFF" />
    <path d="M64.8296 26H74.8296V23.3933H67.4128V19.3H74.8296V16.6933H67.4128V12.6067H74.8296V10H64.8296V26Z"
      fill="#F9FAFF" />
    <path d="M85.0108 26H87.6686V12.6067H93.8296V10H78.8296V12.6067H85.0108V26Z" fill="#F9FAFF" />
    <path
      d="M109.035 26H111.83L104.57 10H102.09L94.8296 26H97.618L98.8708 23.2133H107.756L109.028 26H109.035ZM100.059 20.6067L103.317 13.4067L106.574 20.6067H100.053H100.059Z"
      fill="#F9FAFF" />
    <path
      d="M116.83 26H119.326V20.9733H122.547C125.617 20.9733 127.83 18.6667 127.83 15.4867C127.83 12.3067 125.617 10 122.547 10H116.83V26ZM119.326 18.3667V12.6067H122.547C124.167 12.6067 125.327 13.82 125.327 15.4867C125.327 17.1533 124.167 18.3667 122.547 18.3667H119.326Z"
      fill="#F9FAFF" />
    <path d="M132.83 26H143.83V23.3933H135.633V10H132.83V26Z" fill="#F9FAFF" />
    <path d="M147.83 26H157.83V23.3933H150.413V19.3H157.83V16.6933H150.413V12.6067H157.83V10H147.83V26Z"
      fill="#F9FAFF" />
    <path
      d="M161.83 26H165.129L169.843 20.08L174.53 26H177.83L171.476 18L177.83 10H174.556L169.843 15.92L165.129 10H161.83L168.183 18L161.83 26Z"
      fill="#F9FAFF" />
  </g>
  <defs>
    <clipPath id="clip0_311_1378">
      <rect width="171" height="16" fill="white" transform="translate(7.82887 10)" />
    </clipPath>
  </defs>
</svg>