<svg width="96" height="24" viewBox="6 6 96 24" fill="none" xmlns="http://www.w3.org/2000/svg">
  <path
    d="M29.0642 18C29.0642 24.3453 23.923 29.5 17.5642 29.5C11.2189 29.5 6.06417 24.3588 6.06417 18C6.06417 11.6547 11.2053 6.5 17.5642 6.5C23.923 6.5 29.0642 11.6547 29.0642 18Z"
    fill="#FDFDFD" />
  <path
    d="M11.1034 21.3561C11.1988 21.2914 11.2942 21.2009 11.3487 21.0586C11.4032 20.9034 11.376 20.7741 11.3487 20.6965C11.3487 20.6965 11.3487 20.6965 11.3487 20.6836L11.3624 20.5801C11.4169 20.606 11.4714 20.6448 11.5531 20.6965C11.5668 20.7094 11.594 20.7224 11.6213 20.7353C11.6485 20.7612 11.6894 20.7741 11.703 20.8C11.7439 20.8258 11.7984 20.8646 11.8529 20.8905C13.3928 21.7958 14.6737 22.1709 15.6821 22.1321C16.7314 22.0804 17.4672 21.5889 17.8488 20.8517C18.2167 20.1404 18.2303 19.2739 17.9714 18.4591C17.7125 17.6443 17.1674 16.8553 16.3634 16.2992C15.0007 15.3809 13.7471 13.9712 13.1066 12.7684C12.7796 12.1606 12.6569 11.6691 12.6978 11.3458C12.7114 11.1906 12.7659 11.113 12.8204 11.0483C12.8749 10.9966 12.984 10.9319 13.1884 10.8931C13.6108 10.8284 14.115 10.6862 14.6056 10.531C14.7963 10.4792 15.0007 10.4146 15.1915 10.3628C15.9137 10.1559 16.6768 9.98777 17.4808 10.0007C19.0479 10.0007 20.8739 10.6474 22.8089 13.3245C25.289 16.7648 23.9263 20.606 21.0783 22.6236C19.6611 23.6324 17.876 24.1626 16.05 23.9557C14.3875 23.7876 12.6705 22.9986 11.1034 21.3561Z"
    fill="white" stroke="black" stroke-width="0.915111" />
  <path
    d="M12.1034 11.0744C12.1034 11.0744 16.6384 10 17.6291 10C18.6198 10 22.5826 11.724 23.7408 14.8722C25.3873 19.3322 20.9222 22.268 20.4198 21.9806C25.2199 18.4327 17.364 11.8614 13.4988 12.3487C13.0104 12.4111 13.2895 12.7859 13.2895 12.7859L13.1779 13.7479L12.3686 12.5485L12.1034 11.0744Z"
    fill="black" />
  <path
    d="M23.1034 13C24.1034 15.4502 23.8898 14.0424 23.6665 16.8446C24.0743 15.924 24.7151 16.6144 24.9772 16.9664C25.0258 17.0341 25.1034 16.9935 25.1034 16.8987C25.0937 16.4791 25.0064 15.5856 24.5209 14.6245C23.8413 13.2978 23.1034 13 23.1034 13Z"
    fill="black" />
  <path
    d="M23.6665 16.8446C23.8898 14.0559 24.0937 15.4502 23.1034 13C23.1034 13 23.8413 13.2978 24.5209 14.6245C25.0161 15.5856 25.0937 16.4791 25.1034 16.8987C25.1034 16.9935 25.0258 17.0341 24.9772 16.9664C24.7151 16.6009 24.0743 15.9105 23.6665 16.8446ZM23.6665 16.8446C23.7054 16.7092 23.7636 16.5061 23.7636 16.5061"
    stroke="black" stroke-width="0.0514109" />
  <path
    d="M11.5818 17.0542C11.0929 17.9567 10.0811 17.8948 10.1038 18.9704C11.0019 21.1462 11.0133 20.9979 11.0133 20.9979C12.6845 19.9718 12.0024 17.7218 11.7523 17.0665C11.7068 16.98 11.6159 16.98 11.5818 17.0542Z"
    fill="black" />
  <path
    d="M7.23219 19.2774C8.37991 19.3874 9.07675 18.6576 10.0059 19.2074C11.2356 20.917 11.0989 20.847 11.0989 20.847C8.9811 21.4968 7.51912 19.8973 7.12288 19.3974C7.06823 19.3374 7.13654 19.2674 7.23219 19.2774Z"
    fill="black" />
  <path
    d="M16.4259 17.6305C16.4259 17.6305 17.5096 18.7028 16.9359 18.8773C16.2347 18.4534 14.9725 18.7776 14.3605 18.9895C14.2075 19.0394 14.0545 18.9023 14.1183 18.7651C14.3223 18.204 14.845 17.1567 15.8394 17.0195C16.4259 16.8699 16.4259 17.6305 16.4259 17.6305Z"
    fill="black" />
  <path
    d="M17.2073 12.9134C17.1125 12.6759 16.9323 12 17.5012 12C18.07 12 18.9328 13.224 19.1034 13.6807C19.0466 13.9547 18.6863 14.0278 18.5061 13.9913C18.326 13.973 18.0131 13.8999 17.7761 13.6807C17.5391 13.4432 17.3021 13.1509 17.2073 12.9134Z"
    fill="white" />
  <path
    d="M41.5829 24.5C40.3233 24.5 39.1851 24.2204 38.1835 23.6768C37.1667 23.1177 36.3775 22.3411 35.8008 21.3471C35.2242 20.353 34.9358 19.2348 34.9358 18.0078C34.9358 16.7808 35.2242 15.678 35.8008 14.684C36.3775 13.69 37.1667 12.9134 38.1835 12.3542C39.2002 11.7951 40.3233 11.5 41.5829 11.5C42.8425 11.5 43.9807 11.7796 44.9823 12.3542C45.9991 12.9134 46.7882 13.6744 47.3649 14.6685C47.9416 15.647 48.2299 16.7652 48.2299 18.0078C48.2299 19.2503 47.9416 20.353 47.3649 21.3471C46.7882 22.3256 45.9991 23.1022 44.9823 23.6768C43.9655 24.2204 42.8273 24.5 41.5829 24.5ZM41.5829 22.4498C42.4024 22.4498 43.146 22.2634 43.7985 21.8907C44.4511 21.5024 44.9671 20.9743 45.3465 20.3065C45.7259 19.6231 45.908 18.862 45.908 18.0233C45.908 17.1846 45.7259 16.4235 45.3465 15.7557C44.9671 15.0723 44.4511 14.5442 43.7985 14.1714C43.146 13.7832 42.4024 13.5968 41.5829 13.5968C40.7634 13.5968 40.0198 13.7832 39.3672 14.1714C38.7146 14.5442 38.1986 15.0723 37.8192 15.7557C37.4398 16.4235 37.2577 17.1846 37.2577 18.0233C37.2577 18.862 37.4398 19.6231 37.8192 20.3065C38.1986 20.9743 38.7146 21.5024 39.3672 21.8907C40.0198 22.2634 40.7482 22.4498 41.5829 22.4498ZM63.2996 24.3136L60.7804 20.6171C60.6741 20.6326 60.5224 20.6326 60.3099 20.6326H57.5327V24.3136H55.2412V11.6864H60.3099C61.3722 11.6864 62.3131 11.8728 63.0871 12.23C63.8914 12.5872 64.4985 13.1153 64.9234 13.7832C65.3483 14.451 65.5608 15.2587 65.5608 16.175C65.5608 17.1225 65.3332 17.9456 64.8779 18.629C64.4378 19.3124 63.7852 19.825 62.9354 20.1667L65.7733 24.3136H63.2996ZM63.2541 16.1906C63.2541 15.3829 62.9961 14.7616 62.4801 14.3268C61.9641 13.8919 61.2053 13.6744 60.2037 13.6744H57.5176V18.7067H60.2037C61.2053 18.7067 61.9641 18.4892 62.4801 18.0544C62.9961 17.6195 63.2541 16.9827 63.2541 16.1906ZM78.4148 24.5C77.1704 24.5 76.0473 24.2204 75.0306 23.6768C74.0289 23.1177 73.2398 22.3411 72.6631 21.3471C72.1016 20.3686 71.8133 19.2503 71.8133 18.0078C71.8133 16.7652 72.1016 15.6625 72.6783 14.6685C73.255 13.69 74.0441 12.9134 75.0457 12.3542C76.0625 11.7951 77.1855 11.5 78.43 11.5C79.4467 11.5 80.3573 11.6864 81.192 12.0436C82.0266 12.4008 82.7247 12.9289 83.3014 13.6123L81.8142 15.0412C80.9188 14.0627 79.8261 13.5657 78.521 13.5657C77.6712 13.5657 76.9124 13.7521 76.2446 14.1404C75.5769 14.5131 75.0457 15.0412 74.6815 15.7091C74.3021 16.3769 74.12 17.1535 74.12 17.9922C74.12 18.8465 74.3021 19.6075 74.6815 20.2754C75.0609 20.9433 75.5769 21.4713 76.2446 21.8596C76.9124 22.2324 77.6712 22.4188 78.521 22.4188C79.8261 22.4188 80.9188 21.9217 81.8142 20.9277L83.3014 22.3722C82.7247 23.0556 82.0115 23.5836 81.1616 23.9409C80.3421 24.3136 79.4316 24.5 78.4148 24.5ZM95.4725 11.5155C96.5803 11.5155 97.5364 11.733 98.3559 12.1834C99.1754 12.6338 99.8128 13.2861 100.253 14.1714C100.708 15.0412 100.936 16.0818 100.936 17.3244V24.3292H98.6443V21.083H92.2248V24.3292H89.9636V17.3244C89.9636 16.0818 90.1913 15.0412 90.6314 14.1714C91.0867 13.2861 91.724 12.6338 92.5587 12.1834C93.3934 11.733 94.3647 11.5155 95.4725 11.5155ZM98.6594 19.1105V17.1069C98.6594 15.9421 98.3711 15.0568 97.8096 14.4665C97.2481 13.8608 96.4589 13.5657 95.4421 13.5657C94.4254 13.5657 93.6514 13.8608 93.0747 14.4665C92.5132 15.0568 92.2248 15.9265 92.2248 17.1069V19.1105H98.6594Z"
    fill="white" />
</svg>