<svg width="32" height="32" viewBox="-1 -1 34 34" fill="none" xmlns="http://www.w3.org/2000/svg">
  <!-- <rect width="32" height="32" rx="16" fill="white" stroke="#eee" /> -->
  <g transform="scale(0.21) translate(-18 24)">
    <g filter="url(#filter0_bd_1066_4873)">
      <path
        d="M16 24C16 16.4575 16 12.6863 18.3431 10.3431C20.6863 8 24.4575 8 32 8H156C163.542 8 167.314 8 169.657 10.3431C172 12.6863 172 16.4575 172 24V94C172 101.542 172 105.314 169.657 107.657C167.314 110 163.542 110 156 110H32C24.4575 110 20.6863 110 18.3431 107.657C16 105.314 16 101.542 16 94V24Z"
        fill="white" fill-opacity="0.6" shape-rendering="crispEdges" />
    </g>
    <rect x="24" y="51" width="16" height="51" fill="#5D6BFF" />
    <rect x="44" y="64" width="16" height="38" fill="#5D6BFF" />
    <rect x="64" y="46" width="16" height="56" fill="#5D6BFF" />
    <rect x="84" y="39" width="16" height="63" fill="#5D6BFF" />
    <rect x="104" y="46" width="16" height="56" fill="#5D6BFF" />
    <rect x="124" y="37" width="16" height="65" fill="#5D6BFF" />
    <rect x="144" y="44" width="16" height="58" fill="#5D6BFF" />
    <defs>
      <filter id="filter0_bd_1066_4873" x="-1.8" y="-9.8" width="191.6" height="143.8" filterUnits="userSpaceOnUse"
        color-interpolation-filters="sRGB">
        <feFlood flood-opacity="0" result="BackgroundImageFix" />
        <feGaussianBlur in="BackgroundImageFix" stdDeviation="8.9" />
        <feComposite in2="SourceAlpha" operator="in" result="effect1_backgroundBlur_1066_4873" />
        <feColorMatrix in="SourceAlpha" type="matrix" values="0 0 0 0 0 0 0 0 0 0 0 0 0 0 0 0 0 0 127 0"
          result="hardAlpha" />
        <feOffset dy="8" />
        <feGaussianBlur stdDeviation="8" />
        <feComposite in2="hardAlpha" operator="out" />
        <feColorMatrix type="matrix" values="0 0 0 0 0.4533 0 0 0 0 0.583972 0 0 0 0 0.77998 0 0 0 0.16 0" />
        <feBlend mode="normal" in2="effect1_backgroundBlur_1066_4873" result="effect2_dropShadow_1066_4873" />
        <feBlend mode="normal" in="SourceGraphic" in2="effect2_dropShadow_1066_4873" result="shape" />
      </filter>
    </defs>
  </g>
</svg>
