<svg width="32" height="32" viewBox="0 0 32 32" fill="none" xmlns="http://www.w3.org/2000/svg">
  <rect width="32" height="32" rx="16" fill="black" />
  <path fill-rule="evenodd" clip-rule="evenodd"
    d="M15.9069 18.365C15.9862 18.495 15.9763 18.66 15.8921 18.785L14.0245 21.5C13.866 21.735 13.5143 21.72 13.3756 21.475L7.05474 10.585C6.90118 10.325 7.08942 10 7.38664 10H10.765C10.9037 10 11.0276 10.07 11.0969 10.19L15.9069 18.365ZM24.9473 21.415C25.0959 21.675 24.9127 22 24.6154 22H21.2569C21.1182 22 20.9943 21.925 20.925 21.805L14.4109 10.585C14.2623 10.325 14.4456 10 14.7428 10H18.1162C18.2549 10 18.3788 10.075 18.4481 10.195L24.9424 21.415H24.9473ZM9.71981 21.895C10.017 21.895 10.2053 21.565 10.0517 21.305L7.73339 17.365C7.53525 17.025 7.01511 17.165 7.01511 17.565V21.505C7.01511 21.72 7.18849 21.895 7.4015 21.895H9.71485H9.71981Z"
    fill="white" />
</svg>
