<svg xmlns="http://www.w3.org/2000/svg" width="403" height="271" fill="none" xmlns:v="https://vecta.io/nano"><style><![CDATA[.B{fill:#374151}.C{fill:#84bfaf}.D{fill:#afd1c7}.E{fill:#5fae9e}.F{fill:#a1bdae}.G{fill:#aec5b5}.H{stroke:#5fae9e}]]></style><g filter="url(#A)"><rect x="4" width="395" height="263" rx="16" fill="#fff"/></g><path d="M36.861 29.273h1.935l2.591 6.324h.102l2.591-6.324h1.935V38h-1.517v-5.996h-.081l-2.412 5.97h-1.134l-2.412-5.983h-.081V38h-1.517v-8.727zm14.27 8.876c-.746 0-1.392-.164-1.939-.492s-.971-.787-1.273-1.377-.447-1.279-.447-2.068.149-1.48.447-2.073.726-1.054 1.273-1.382 1.193-.492 1.939-.492 1.392.164 1.939.492.969.789 1.268 1.382.452 1.284.452 2.073-.151 1.478-.452 2.068a3.31 3.31 0 0 1-1.268 1.377c-.547.328-1.193.492-1.939.492zm.01-1.442c.404 0 .742-.111 1.014-.333s.474-.527.607-.905a3.71 3.71 0 0 0 .204-1.263c0-.467-.068-.89-.204-1.268s-.335-.684-.607-.91-.61-.338-1.014-.338c-.414 0-.759.113-1.034.338s-.476.529-.611.91-.199.8-.199 1.268.066.885.199 1.263.34.679.611.905.62.333 1.034.333zm6.976-3.182V38h-1.8v-7.636h1.72v1.298h.09a2.18 2.18 0 0 1 .84-1.019c.388-.252.867-.378 1.437-.378.527 0 .986.113 1.377.338s.699.552.915.979.327.946.323 1.556V38h-1.8v-4.584c0-.51-.133-.91-.398-1.198s-.625-.433-1.089-.433c-.315 0-.595.07-.84.209s-.433.333-.572.592-.204.572-.204.94zm10.545-3.162v1.392h-4.39v-1.392h4.39zm-3.306-1.83h1.8v7.169c0 .242.036.428.109.557a.59.59 0 0 0 .298.259c.123.046.259.07.408.07.113 0 .215-.008.308-.025l.219-.045.303 1.407c-.096.033-.234.07-.413.109s-.391.063-.646.07c-.451.013-.857-.055-1.218-.204s-.648-.388-.86-.706-.312-.716-.308-1.193v-7.467zm6.775 4.991V38h-1.8V27.818h1.76v3.843h.09a2.21 2.21 0 0 1 .83-1.019c.378-.252.858-.378 1.442-.378.53 0 .993.111 1.387.333s.699.547.915.974.328.95.328 1.566V38h-1.8v-4.584c0-.514-.133-.913-.398-1.198s-.63-.433-1.104-.433c-.318 0-.603.07-.855.209a1.46 1.46 0 0 0-.587.592c-.139.259-.209.572-.209.94zm8.586-5.707V38h-1.8V27.818h1.8zm2.969 13.045a3.64 3.64 0 0 1-.681-.06c-.206-.037-.37-.08-.492-.129l.418-1.402a2.4 2.4 0 0 0 .701.109.86.86 0 0 0 .542-.194c.159-.123.293-.328.403-.617l.154-.413-2.769-7.796h1.909l1.76 5.767h.079l1.765-5.767h1.914l-3.058 8.561a3.43 3.43 0 0 1-.567 1.039c-.235.292-.524.514-.865.666s-.743.234-1.213.234zm16.456-8.481l-1.641.179a1.32 1.32 0 0 0-.244-.467 1.21 1.21 0 0 0-.457-.353c-.192-.09-.428-.134-.706-.134-.374 0-.689.081-.945.244s-.376.373-.373.631a.66.66 0 0 0 .244.542c.169.139.448.254.835.343l1.303.278c.723.156 1.26.403 1.611.741s.534.781.537 1.327c-.003.481-.144.905-.423 1.273s-.658.65-1.148.855-1.054.308-1.69.308c-.935 0-1.687-.195-2.257-.587s-.91-.943-1.019-1.646l1.755-.169c.079.345.248.605.507.78s.595.264 1.009.264c.428 0 .771-.088 1.029-.264s.393-.393.393-.651c0-.219-.085-.399-.254-.542s-.424-.252-.775-.328l-1.303-.273c-.733-.152-1.274-.409-1.626-.771s-.525-.825-.522-1.382c-.003-.471.124-.878.383-1.223s.625-.617 1.089-.805 1.006-.288 1.616-.288c.895 0 1.599.191 2.113.572s.837.897.96 1.546zM103.366 38l-2.158-7.636h1.835l1.342 5.369h.07l1.372-5.369h1.815l1.372 5.339h.074l1.323-5.339h1.839L110.088 38h-1.875l-1.432-5.16h-.104L105.245 38h-1.879zm12.338.154c-.484 0-.92-.086-1.307-.258a2.13 2.13 0 0 1-.915-.776c-.222-.341-.333-.762-.333-1.263 0-.431.079-.787.238-1.069s.377-.507.652-.676a3.29 3.29 0 0 1 .929-.383 7.57 7.57 0 0 1 1.079-.194l1.089-.124c.278-.04.481-.099.607-.179s.193-.21.193-.383v-.03c0-.375-.111-.665-.333-.87s-.542-.308-.959-.308c-.441 0-.791.096-1.049.288s-.428.419-.517.681l-1.681-.239c.133-.464.352-.852.657-1.163a2.85 2.85 0 0 1 1.118-.706c.441-.159.928-.239 1.462-.239.368 0 .734.043 1.099.129a3.1 3.1 0 0 1 .999.428 2.16 2.16 0 0 1 .726.8c.185.338.278.761.278 1.268V38h-1.73v-1.049h-.06c-.109.212-.263.411-.462.597s-.442.33-.741.442-.641.164-1.039.164zm.468-1.322c.361 0 .674-.071.939-.214s.469-.338.612-.577.218-.499.218-.781v-.9a.84.84 0 0 1-.288.129 4.17 4.17 0 0 1-.447.104l-.493.08-.422.06c-.269.036-.509.096-.721.179s-.38.199-.502.348-.184.335-.184.567c0 .332.121.582.363.751s.55.254.925.254zm5.374 4.032v-10.5h1.77v1.263h.104c.093-.186.224-.383.393-.592s.398-.393.686-.542.656-.229 1.104-.229a2.91 2.91 0 0 1 1.596.452c.477.298.855.741 1.133 1.327s.423 1.299.423 2.148c0 .838-.138 1.551-.413 2.138s-.65 1.034-1.124 1.342-1.01.462-1.61.462c-.438 0-.801-.073-1.089-.219a2.2 2.2 0 0 1-.696-.527c-.173-.209-.307-.406-.403-.592h-.074v4.067h-1.8zm1.765-6.682c0 .494.069.926.209 1.298s.346.661.611.87.593.308.974.308c.398 0 .731-.106 1-.318s.47-.509.606-.88.209-.8.209-1.278-.068-.895-.204-1.263-.338-.656-.606-.865-.603-.313-1.005-.313c-.384 0-.71.101-.979.303s-.472.486-.611.85-.204.794-.204 1.288zm17.278-3.818L137.87 38h-1.989l-2.719-7.636h1.919l1.755 5.673h.079l1.76-5.673h1.914zm4.317 7.785c-.746 0-1.392-.164-1.939-.492s-.971-.787-1.273-1.377-.447-1.279-.447-2.068.149-1.48.447-2.073.726-1.054 1.273-1.382 1.193-.492 1.939-.492 1.392.164 1.939.492.969.789 1.268 1.382.452 1.284.452 2.073-.151 1.478-.452 2.068-.721 1.049-1.268 1.377-1.193.492-1.939.492zm.01-1.442c.404 0 .742-.111 1.014-.333a2.01 2.01 0 0 0 .607-.905c.136-.378.204-.799.204-1.263s-.068-.89-.204-1.268-.335-.684-.607-.91-.61-.338-1.014-.338c-.414 0-.759.113-1.034.338s-.476.529-.612.91-.198.8-.198 1.268a3.81 3.81 0 0 0 .198 1.263c.136.378.34.679.612.905s.62.333 1.034.333zm6.976-8.889V38h-1.799V27.818h1.799zm6.718 6.97v-4.425h1.8V38h-1.745v-1.357h-.08a2.29 2.29 0 0 1-.85 1.049c-.391.272-.873.408-1.446.408-.501 0-.943-.111-1.328-.333s-.679-.552-.895-.979-.323-.951-.323-1.561v-4.862h1.8v4.584c0 .484.132.868.398 1.154s.613.427 1.044.427c.265 0 .522-.065.77-.194s.453-.322.612-.577.243-.582.243-.969zM162.261 38v-7.636h1.72v1.298h.089c.159-.437.423-.779.791-1.024s.807-.373 1.317-.373c.517 0 .953.126 1.308.378a1.97 1.97 0 0 1 .755 1.019h.08c.169-.424.454-.762.855-1.014s.883-.383 1.437-.383c.703 0 1.276.222 1.72.666s.666 1.092.666 1.944V38h-1.804v-4.847c0-.474-.126-.82-.378-1.039s-.56-.333-.925-.333c-.434 0-.774.136-1.019.408s-.363.618-.363 1.049V38h-1.765v-4.922c0-.394-.119-.709-.358-.945s-.543-.353-.925-.353a1.31 1.31 0 0 0-.706.199 1.39 1.39 0 0 0-.507.552c-.126.235-.189.511-.189.825V38h-1.799zm15.945.149c-.766 0-1.427-.159-1.984-.477a3.24 3.24 0 0 1-1.278-1.362c-.298-.59-.447-1.284-.447-2.083 0-.785.149-1.475.447-2.068s.723-1.061 1.263-1.392 1.175-.502 1.904-.502c.471 0 .915.076 1.333.229s.792.381 1.113.696.58.716.766 1.203.278 1.061.278 1.73v.552h-6.259v-1.213h4.534c-.003-.345-.078-.651-.223-.92s-.35-.486-.612-.641a1.72 1.72 0 0 0-.905-.234 1.75 1.75 0 0 0-.969.268 1.85 1.85 0 0 0-.652.696c-.152.285-.23.598-.233.94v1.059c0 .444.081.825.243 1.143s.39.557.681.726.634.249 1.025.249c.261 0 .498-.036.711-.109a1.57 1.57 0 0 0 .551-.333 1.38 1.38 0 0 0 .353-.542l1.681.189c-.106.444-.308.832-.607 1.163s-.673.583-1.133.766-.988.268-1.581.268zM200.332 38h-2.958v-8.727h3.018c.866 0 1.61.175 2.232.524s1.106.845 1.441 1.496.503 1.429.503 2.335-.169 1.69-.507 2.344a3.51 3.51 0 0 1-1.454 1.504c-.63.349-1.389.524-2.275.524zm-1.377-1.368h1.3c.608 0 1.115-.111 1.521-.332s.712-.558.917-1.001.306-1.003.306-1.67-.102-1.222-.306-1.662-.507-.774-.908-.993-.892-.332-1.483-.332h-1.347v5.992zM206.07 38v-8.727h5.676v1.325h-4.095v2.369h3.801v1.325h-3.801v2.382h4.129V38h-5.71zm8.61-8.727l1.922 3.196h.068l1.93-3.196h1.803l-2.689 4.364L220.445 38h-1.832l-1.943-3.175h-.068L214.659 38h-1.824l2.757-4.364-2.723-4.364h1.811z" fill="#394352"/><path d="M191.586 33.088v1.094h-4.455v-1.094h4.455z" fill="#000"/><path d="M36 56h12v12H36z" class="C"/><path d="M56.523 65h-1.883v-5.818h1.943c.57 0 1.06.116 1.469.349s.723.564.94.997.329.95.329 1.554-.111 1.127-.332 1.563-.538.771-.954 1.006-.921.349-1.511.349zm-1.006-.767h.957c.443 0 .812-.083 1.105-.25s.513-.412.659-.73.219-.71.219-1.17-.073-.844-.219-1.162-.359-.56-.645-.724-.641-.247-1.065-.247h-1.011v4.284zm4.896.767v-5.818h3.648v.756h-2.77v1.773h2.579v.753h-2.579v1.781h2.804V65h-3.682zm5.431-5.818l1.392 2.276h.045l1.392-2.276h1.017l-1.812 2.909L69.702 65h-1.023l-1.398-2.244h-.045L65.838 65h-1.023l1.855-2.909-1.844-2.909h1.017zM73.17 65h-.932l2.094-5.818h1.014L77.44 65h-.932l-1.645-4.761h-.045L73.17 65zm.156-2.278h3.023v.739h-3.023v-.739z" class="B"/><path d="M36 76h12v12H36z" class="D"/><path d="M56.523 85h-1.883v-5.818h1.943c.57 0 1.06.117 1.469.349s.723.564.94.997.329.95.329 1.554-.111 1.127-.332 1.563-.538.771-.954 1.006-.921.349-1.511.349zm-1.006-.767h.957c.443 0 .812-.083 1.105-.25s.513-.412.659-.73.219-.71.219-1.17-.073-.844-.219-1.162-.359-.56-.645-.725-.641-.247-1.065-.247h-1.011v4.284zm4.896.767v-5.818h3.648v.756h-2.77v1.773h2.579v.753h-2.579v1.781h2.804V85h-3.682zm5.431-5.818l1.392 2.276h.045l1.392-2.276h1.017l-1.812 2.909L69.702 85h-1.023l-1.398-2.244h-.045L65.838 85h-1.023l1.855-2.909-1.844-2.909h1.017zM74.562 85h-1.884v-5.818h1.943c.57 0 1.06.117 1.469.349s.723.564.94.997.33.95.33 1.554-.111 1.127-.332 1.563-.538.771-.954 1.006-.921.349-1.511.349zm-1.006-.767h.957c.443 0 .812-.083 1.105-.25s.513-.412.659-.73.219-.71.219-1.17-.073-.844-.219-1.162-.359-.56-.645-.725-.641-.247-1.065-.247h-1.011v4.284z" class="B"/><path d="M94 56h12v12H94z" class="E"/><path d="M114.523 65h-1.884v-5.818h1.943c.57 0 1.06.116 1.469.349s.723.564.94.997.33.95.33 1.554-.111 1.127-.332 1.563-.538.771-.955 1.006-.92.349-1.511.349zm-1.006-.767h.957c.444 0 .812-.083 1.106-.25a1.58 1.58 0 0 0 .659-.73c.145-.32.218-.71.218-1.17s-.073-.844-.218-1.162-.359-.56-.645-.724-.641-.247-1.066-.247h-1.011v4.284zm4.896.767v-5.818h3.647v.756h-2.77v1.773h2.58v.753h-2.58v1.781h2.804V65h-3.681zm5.431-5.818l1.392 2.276h.045l1.392-2.276h1.017l-1.812 2.909L127.702 65h-1.023l-1.398-2.244h-.045L123.838 65h-1.023l1.855-2.909-1.843-2.909h1.017zM130.678 65v-5.818h2.131c.413 0 .755.068 1.026.205s.473.317.607.548.202.488.202.776a1.29 1.29 0 0 1-.133.614c-.089.165-.209.297-.358.398s-.311.17-.489.216v.057c.193.009.382.072.565.188s.339.276.461.486.181.466.181.767-.07.564-.21.801a1.43 1.43 0 0 1-.642.56c-.29.136-.66.204-1.111.204h-2.23zm.878-.753h1.267c.421 0 .722-.082.904-.244s.272-.366.272-.611c0-.184-.046-.352-.139-.506s-.225-.276-.398-.367-.373-.136-.608-.136h-1.298v1.864zm0-2.548h1.176c.197 0 .374-.038.531-.114a.92.92 0 0 0 .378-.318.84.84 0 0 0 .142-.489.81.81 0 0 0-.252-.605c-.169-.163-.428-.244-.776-.244h-1.199v1.77z" class="B"/><path d="M94 76h12v12H94z" class="F"/><path d="M114.523 85h-1.884v-5.818h1.943c.57 0 1.06.117 1.469.349s.723.564.94.997.33.95.33 1.554-.111 1.127-.332 1.563-.538.771-.955 1.006-.92.349-1.511.349zm-1.006-.767h.957c.444 0 .812-.083 1.106-.25a1.58 1.58 0 0 0 .659-.73c.145-.32.218-.71.218-1.17s-.073-.844-.218-1.162-.359-.56-.645-.725-.641-.247-1.066-.247h-1.011v4.284zm4.896.767v-5.818h3.647v.756h-2.77v1.773h2.58v.753h-2.58v1.781h2.804V85h-3.681zm5.431-5.818l1.392 2.276h.045l1.392-2.276h1.017l-1.812 2.909L127.702 85h-1.023l-1.398-2.244h-.045L123.838 85h-1.023l1.855-2.909-1.843-2.909h1.017zM130.678 85v-5.818h3.648v.756h-2.77v1.773h2.58v.753h-2.58v1.781h2.804V85h-3.682z" class="B"/><path d="M152 56h12v12h-12z" class="G"/><path d="M172.523 65h-1.884v-5.818h1.943c.57 0 1.06.116 1.469.349s.723.564.94.997.33.95.33 1.554-.111 1.127-.332 1.563-.538.771-.955 1.006-.92.349-1.511.349zm-1.006-.767h.957c.444 0 .812-.083 1.106-.25a1.58 1.58 0 0 0 .659-.73c.145-.32.218-.71.218-1.17s-.073-.844-.218-1.162-.359-.56-.645-.724-.641-.247-1.066-.247h-1.011v4.284zm4.896.767v-5.818h3.647v.756h-2.77v1.773h2.58v.753h-2.58v1.781h2.804V65h-3.681zm5.431-5.818l1.392 2.276h.045l1.392-2.276h1.017l-1.812 2.909L185.702 65h-1.023l-1.398-2.244h-.045L181.838 65h-1.023l1.855-2.909-1.843-2.909h1.017zm11.667 1.892h-.887a1.35 1.35 0 0 0-.19-.5c-.093-.144-.206-.266-.341-.367a1.46 1.46 0 0 0-.452-.227 1.76 1.76 0 0 0-.525-.077c-.335 0-.636.084-.901.253a1.73 1.73 0 0 0-.625.742c-.151.326-.227.724-.227 1.193s.076.873.227 1.199.363.572.628.739.563.25.895.25c.184 0 .358-.025.523-.074s.317-.126.451-.224a1.37 1.37 0 0 0 .341-.361c.095-.144.16-.309.196-.494l.887.003c-.048.286-.14.549-.276.79s-.308.445-.52.619-.451.306-.721.401-.567.142-.887.142c-.504 0-.952-.119-1.346-.358s-.705-.584-.932-1.031-.338-.98-.338-1.599.113-1.154.341-1.599.538-.79.931-1.028.842-.361 1.344-.361c.309 0 .597.044.864.133s.51.216.724.386a2.14 2.14 0 0 1 .532.619 2.41 2.41 0 0 1 .284.832z" class="B"/><path d="M311 196h19v29h-19zm-25-39h19v68h-19zm-25 49h19v19h-19zm-25 14h19v5h-19zm-25 3h19v2h-19z" class="C"/><path d="M311 180h19v16h-19zm-25-61h19v38h-19zm-25 75h19v12h-19zm-25 24h19v2h-19zm-25 4h19v1h-19z" class="E"/><path d="M311 171h19v9h-19zm-25-73h19v21h-19zm-25 90h19v6h-19zm-25 28h19v2h-19zm-25 5h19v1h-19z" class="G"/><path d="M311 160h19v11h-19zm-25-88h19v26h-19zm-25 109h19v7h-19zm-25 33h19v2h-19zm-25 6h19v1h-19z" class="D"/><path d="M311 153h19v7h-19zm-25-97h19v16h-19zm-25 120h19v5h-19zm-25 37h19v1h-19z" class="F"/><path d="M186 222.667h19V225h-19z" class="C"/><path d="M186 221.5h19v1.167h-19z" class="E"/><path d="M186 220.333h19v1.167h-19z" class="G"/><path d="M186 219.167h19v1.167h-19z" class="D"/><path d="M186 218h19v1.167h-19z" class="F"/><path d="M161 221.667h19V225h-19z" class="C"/><path d="M161 220h19v1.667h-19z" class="E"/><path d="M161 218.333h19V220h-19z" class="G"/><path d="M161 216.667h19v1.667h-19z" class="D"/><path d="M161 215h19v1.667h-19z" class="F"/><path d="M136 222.333h19V225h-19z" class="C"/><path d="M136 221h19v1.333h-19z" class="E"/><path d="M136 219.667h19V221h-19z" class="G"/><path d="M136 218.333h19v1.333h-19z" class="D"/><path d="M136 217h19v1.333h-19z" class="F"/><path d="M111 222.333h19V225h-19z" class="C"/><path d="M111 221h19v1.333h-19z" class="E"/><path d="M111 219.667h19V221h-19z" class="G"/><path d="M111 218.333h19v1.333h-19z" class="D"/><path d="M111 217h19v1.333h-19z" class="F"/><path d="M86 222.667h19V225H86z" class="C"/><path d="M86 221.5h19v1.167H86z" class="E"/><path d="M86 220.333h19v1.167H86z" class="G"/><path d="M86 219.167h19v1.167H86z" class="D"/><path d="M86 218h19v1.167H86z" class="F"/><path d="M61 221.667h19V225H61z" class="C"/><path d="M61 220h19v1.667H61z" class="E"/><path d="M61 218.333h19V220H61z" class="G"/><path d="M61 216.667h19v1.667H61z" class="D"/><path d="M61 215h19v1.667H61z" class="F"/><path d="M36 218.333h19V225H36z" class="C"/><path d="M36 215h19v3.333H36z" class="E"/><path d="M36 211.667h19V215H36z" class="G"/><path d="M36 208.333h19v3.333H36z" class="D"/><path d="M36 205h19v3.333H36z" class="F"/><path d="M40.614 232.636h.671v4.682c0 .269-.046.502-.139.699a1 1 0 0 1-.415.457c-.184.108-.416.162-.696.162h-.068-.068v-.625h.063.063c.205 0 .354-.06.449-.181s.142-.29.142-.512v-4.682zm.33-.727c-.131 0-.243-.044-.338-.133a.43.43 0 0 1-.139-.321.43.43 0 0 1 .139-.321c.095-.089.207-.134.338-.134s.242.045.335.134a.43.43 0 0 1 .142.321c0 .125-.047.232-.142.321a.47.47 0 0 1-.335.133zm2.853 5.193c-.277 0-.527-.052-.753-.156a1.29 1.29 0 0 1-.736-1.185c0-.25.049-.452.148-.608s.23-.28.395-.369a2.09 2.09 0 0 1 .546-.199l.605-.108.645-.076c.167-.019.288-.051.364-.094s.117-.12.117-.227v-.023c0-.28-.077-.498-.23-.654s-.382-.233-.69-.233c-.32 0-.571.071-.753.211s-.31.289-.383.449l-.636-.228a1.53 1.53 0 0 1 .455-.619c.191-.15.4-.254.625-.313a2.62 2.62 0 0 1 .67-.09c.14 0 .301.017.483.051s.361.099.531.201.315.257.429.463.17.483.17.83V237h-.67v-.591h-.034c-.045.095-.121.196-.227.304s-.247.2-.423.276-.391.113-.645.113zm.102-.602c.265 0 .489-.052.67-.156s.322-.239.415-.404.142-.338.142-.52v-.613c-.028.034-.091.065-.187.094a3.35 3.35 0 0 1-.33.071l-.361.051-.281.034c-.174.023-.337.059-.489.111a.86.86 0 0 0-.364.224c-.093.1-.136.233-.136.403 0 .233.086.41.258.529s.395.176.662.176zm3.792-2.125V237h-.67v-4.364h.648v.682h.057c.102-.221.258-.399.466-.534s.477-.204.807-.204c.295 0 .554.06.776.181s.394.301.517.546.185.549.185.92V237h-.67v-2.727c0-.343-.089-.61-.267-.801s-.422-.29-.733-.29a1.17 1.17 0 0 0-.574.139c-.169.093-.298.228-.395.406s-.145.394-.145.648zm20.202-1.739v.569h-2.352v-.569h2.352zM66.245 237v-4.966c0-.25.059-.458.176-.625s.27-.292.457-.375a1.45 1.45 0 0 1 .594-.125 1.65 1.65 0 0 1 .403.04 1.59 1.59 0 0 1 .233.074l-.193.579-.142-.042a.86.86 0 0 0-.233-.026c-.222 0-.382.056-.48.168s-.145.275-.145.491V237h-.67zm4.237.091c-.42 0-.783-.093-1.088-.279a1.86 1.86 0 0 1-.702-.784c-.163-.337-.244-.729-.244-1.176s.081-.841.244-1.182.394-.609.688-.801.64-.289 1.034-.289a2.06 2.06 0 0 1 .673.113c.221.076.423.199.605.369s.327.393.435.671.162.621.162 1.028v.284h-3.364v-.579h2.682a1.43 1.43 0 0 0-.148-.659 1.12 1.12 0 0 0-.415-.458c-.18-.112-.388-.167-.631-.167a1.2 1.2 0 0 0-.693.199c-.193.13-.342.301-.446.511a1.5 1.5 0 0 0-.156.676v.387c0 .329.057.608.171.838s.275.4.48.519a1.4 1.4 0 0 0 .713.177c.176 0 .335-.025.477-.074a1.01 1.01 0 0 0 .372-.227c.104-.1.185-.23.242-.381l.648.182c-.068.219-.183.413-.344.579s-.36.294-.597.387a2.17 2.17 0 0 1-.798.136zM73.4 237v-5.818h.67v2.148h.057l.205-.29a1.18 1.18 0 0 1 .381-.318c.167-.095.392-.142.676-.142a1.73 1.73 0 0 1 .972.275c.28.184.499.444.656.781s.236.735.236 1.194-.079.862-.236 1.201-.375.599-.653.784-.599.276-.963.276c-.28 0-.505-.046-.673-.139s-.298-.202-.389-.321l-.21-.301h-.079v.67h-.65zm.659-2.182c0 .33.048.62.145.872s.238.446.423.588.413.211.682.211c.28 0 .514-.074.702-.222s.331-.35.426-.602.145-.536.145-.847a2.29 2.29 0 0 0-.142-.829c-.093-.248-.234-.444-.423-.588a1.13 1.13 0 0 0-.707-.219 1.12 1.12 0 0 0-.687.207 1.25 1.25 0 0 0-.42.574 2.35 2.35 0 0 0-.142.855zM89.895 237v-4.364h.648v.682h.057a1.09 1.09 0 0 1 .44-.542c.203-.131.446-.196.73-.196s.527.065.719.196.344.309.452.542h.046c.112-.225.279-.404.503-.537s.491-.201.804-.201c.39 0 .709.122.957.366s.372.62.372 1.134V237h-.671v-2.92c0-.322-.088-.553-.264-.691a.98.98 0 0 0-.622-.207c-.307 0-.544.093-.713.278s-.253.417-.253.699V237h-.682v-2.989c0-.248-.08-.448-.241-.599s-.368-.23-.622-.23a.92.92 0 0 0-.489.139 1.04 1.04 0 0 0-.364.386c-.093.164-.136.352-.136.566V237h-.67zm8.237.102a1.78 1.78 0 0 1-.753-.156 1.29 1.29 0 0 1-.537-.457c-.132-.201-.199-.444-.199-.728 0-.25.049-.452.148-.608s.23-.28.395-.369.347-.155.545-.199l.605-.108.645-.076c.167-.019.288-.051.364-.094s.116-.12.116-.227v-.023c0-.28-.077-.498-.23-.654s-.382-.233-.69-.233c-.32 0-.571.071-.753.211s-.31.289-.384.449l-.636-.228c.114-.265.265-.471.454-.619a1.72 1.72 0 0 1 .625-.313 2.62 2.62 0 0 1 .671-.09c.14 0 .301.017.483.051s.361.099.531.201.315.257.429.463.17.483.17.83V237h-.67v-.591h-.034a1.18 1.18 0 0 1-.227.304c-.106.108-.247.2-.423.276s-.391.113-.645.113zm.102-.602c.265 0 .489-.052.67-.156s.322-.239.415-.404.142-.338.142-.52v-.613c-.028.034-.091.065-.187.094a2.72 2.72 0 0 1-.33.071l-.361.051-.281.034c-.174.023-.337.059-.489.111a.86.86 0 0 0-.364.224c-.093.1-.136.233-.136.403 0 .233.086.41.258.529s.395.176.662.176zm3.122.5v-4.364h.648v.659h.045c.08-.215.223-.391.432-.525s.443-.202.704-.202l.185.003.168.009v.681c-.023-.005-.075-.014-.157-.025a1.55 1.55 0 0 0-.252-.02 1.19 1.19 0 0 0-.569.133c-.164.088-.295.209-.392.364s-.142.329-.142.526V237h-.67zm15.862.102a1.78 1.78 0 0 1-.753-.156c-.225-.106-.404-.258-.537-.457s-.199-.444-.199-.728c0-.25.05-.452.148-.608s.23-.28.395-.369.347-.155.545-.199l.606-.108.644-.076c.167-.019.288-.051.364-.094s.117-.12.117-.227v-.023c0-.28-.077-.498-.231-.654s-.381-.233-.69-.233c-.32 0-.571.071-.753.211s-.309.289-.383.449l-.637-.228c.114-.265.266-.471.455-.619a1.72 1.72 0 0 1 .625-.313 2.62 2.62 0 0 1 .67-.09 2.65 2.65 0 0 1 .483.051 1.55 1.55 0 0 1 .532.201c.172.103.315.257.429.463s.17.483.17.83V237h-.67v-.591h-.035c-.045.095-.121.196-.227.304s-.247.2-.423.276-.391.113-.645.113zm.102-.602c.265 0 .489-.052.671-.156a1.07 1.07 0 0 0 .415-.404c.094-.164.142-.338.142-.52v-.613c-.029.034-.091.065-.188.094s-.204.05-.329.071l-.361.051-.282.034c-.174.023-.337.059-.488.111s-.271.124-.364.224-.136.233-.136.403c0 .233.086.41.258.529s.395.176.662.176zm3.122 2.136v-6h.647v.694h.08l.205-.29c.089-.12.215-.226.38-.318s.392-.142.676-.142c.368 0 .692.091.972.275s.499.444.656.781.236.735.236 1.194-.079.862-.236 1.201-.375.599-.653.784a1.71 1.71 0 0 1-.963.276c-.281 0-.505-.046-.674-.139s-.298-.202-.389-.321l-.21-.301h-.057v2.306h-.67zm.659-3.818c0 .33.048.62.145.872s.237.446.423.588.413.211.682.211c.28 0 .514-.074.702-.222a1.36 1.36 0 0 0 .426-.602c.096-.254.145-.536.145-.847a2.29 2.29 0 0 0-.142-.829 1.28 1.28 0 0 0-.424-.588c-.187-.146-.423-.219-.707-.219-.273 0-.502.069-.688.207s-.325.328-.42.574a2.35 2.35 0 0 0-.142.855zm4.216 2.182v-4.364h.647v.659h.046c.079-.215.223-.391.432-.525s.443-.202.704-.202l.185.003.168.009v.681c-.023-.005-.075-.014-.157-.025s-.163-.02-.253-.02c-.212 0-.401.044-.568.133a1.01 1.01 0 0 0-.392.364c-.097.155-.142.329-.142.526V237h-.67zm13.418 0v-4.364h.647v.682h.057a1.09 1.09 0 0 1 .441-.542c.202-.131.446-.196.73-.196s.527.065.718.196a1.27 1.27 0 0 1 .452.542h.046c.111-.225.279-.404.502-.537s.492-.201.804-.201c.391 0 .71.122.958.366s.372.62.372 1.134V237h-.67v-2.92c0-.322-.089-.553-.265-.691s-.383-.207-.622-.207c-.307 0-.544.093-.713.278s-.253.417-.253.699V237h-.682v-2.989c0-.248-.08-.448-.241-.599s-.368-.23-.622-.23a.92.92 0 0 0-.489.139c-.149.093-.271.222-.363.386s-.137.352-.137.566V237h-.67zm8.237.102c-.277 0-.528-.052-.753-.156a1.28 1.28 0 0 1-.537-.457c-.133-.199-.199-.444-.199-.728 0-.25.05-.452.148-.608s.23-.28.395-.369.347-.155.545-.199l.605-.108.645-.076c.167-.019.288-.051.364-.094s.116-.12.116-.227v-.023c0-.28-.076-.498-.23-.654s-.381-.233-.69-.233c-.32 0-.571.071-.753.211s-.309.289-.383.449l-.637-.228c.114-.265.265-.471.455-.619a1.72 1.72 0 0 1 .625-.313 2.62 2.62 0 0 1 .67-.09c.14 0 .301.017.483.051a1.55 1.55 0 0 1 .532.201 1.19 1.19 0 0 1 .428.463c.114.207.171.483.171.83V237h-.671v-.591h-.034c-.045.095-.121.196-.227.304s-.247.2-.423.276-.391.113-.645.113zm.102-.602c.265 0 .489-.052.671-.156a1.06 1.06 0 0 0 .414-.404c.095-.164.142-.338.142-.52v-.613c-.028.034-.09.065-.187.094a3.38 3.38 0 0 1-.33.071l-.36.051-.282.034c-.174.023-.337.059-.488.111s-.271.124-.364.224-.136.233-.136.403c0 .233.086.41.258.529s.395.176.662.176zm3.397 2.136a1.47 1.47 0 0 1-.304-.028c-.089-.017-.15-.034-.184-.051l.17-.591c.163.042.307.057.432.045a.52.52 0 0 0 .332-.167c.096-.1.189-.259.27-.48l.125-.341-1.613-4.387h.727l1.204 3.478h.046l1.204-3.478h.728l-1.853 5c-.083.226-.186.412-.309.56s-.266.26-.429.332a1.33 1.33 0 0 1-.546.108zm15.529-6h.671v4.682c0 .269-.047.502-.139.699a1.01 1.01 0 0 1-.415.457c-.185.108-.416.162-.696.162h-.068-.069v-.625h.063.062c.205 0 .355-.06.449-.181s.142-.29.142-.512v-4.682zm.33-.727c-.131 0-.243-.044-.338-.133a.42.42 0 0 1-.139-.321c0-.125.046-.232.139-.321s.207-.134.338-.134.242.045.335.134a.43.43 0 0 1 .142.321c0 .125-.047.232-.142.321a.47.47 0 0 1-.335.133zm4.319 3.307v-2.58h.67V237h-.67v-.739h-.046a1.43 1.43 0 0 1-.477.566c-.216.153-.489.23-.818.23a1.46 1.46 0 0 1-.727-.179c-.213-.121-.379-.303-.5-.546s-.182-.552-.182-.923v-2.773h.67v2.728c0 .318.089.572.267.761s.409.284.688.284c.166 0 .336-.043.508-.128s.32-.216.438-.392.179-.4.179-.673zm2.569-.841V237h-.671v-4.364h.648v.682h.057c.102-.221.257-.399.466-.534s.477-.204.807-.204c.295 0 .553.06.775.181s.394.301.517.546.185.549.185.92V237h-.671v-2.727c0-.343-.089-.61-.267-.801s-.422-.29-.733-.29a1.17 1.17 0 0 0-.574.139c-.166.093-.298.228-.394.406s-.145.394-.145.648zm19.673-1.739h.67v4.682c0 .269-.046.502-.139.699a1 1 0 0 1-.415.457c-.183.108-.415.162-.696.162h-.068-.068v-.625h.063.062c.205 0 .354-.06.449-.181s.142-.29.142-.512v-4.682zm.33-.727a.48.48 0 0 1-.339-.133.43.43 0 0 1-.139-.321.43.43 0 0 1 .139-.321.48.48 0 0 1 .339-.134.47.47 0 0 1 .335.134c.094.089.142.196.142.321s-.048.232-.142.321a.47.47 0 0 1-.335.133zm4.318 3.307v-2.58h.671V237h-.671v-.739h-.045a1.43 1.43 0 0 1-.477.566c-.216.153-.489.23-.818.23-.273 0-.516-.06-.728-.179a1.25 1.25 0 0 1-.5-.546c-.121-.244-.182-.552-.182-.923v-2.773h.671v2.728c0 .318.089.572.267.761s.409.284.687.284c.167 0 .337-.043.509-.128a1.12 1.12 0 0 0 .437-.392c.117-.176.179-.4.179-.673zm2.569-4.034V237h-.67v-5.818h.67zm16.274 5.92a1.78 1.78 0 0 1-.753-.156c-.225-.106-.404-.258-.537-.457s-.199-.444-.199-.728c0-.25.05-.452.148-.608s.23-.28.395-.369.347-.155.546-.199l.605-.108.645-.076c.166-.019.287-.051.363-.094s.117-.12.117-.227v-.023c0-.28-.077-.498-.23-.654s-.382-.233-.691-.233c-.32 0-.571.071-.753.211s-.309.289-.383.449l-.637-.228c.114-.265.266-.471.455-.619a1.72 1.72 0 0 1 .625-.313 2.62 2.62 0 0 1 .67-.09 2.65 2.65 0 0 1 .483.051 1.55 1.55 0 0 1 .532.201c.172.103.315.257.429.463s.17.483.17.83V237h-.67v-.591h-.034c-.046.095-.122.196-.228.304s-.247.2-.423.276-.391.113-.645.113zm.102-.602c.266 0 .489-.052.671-.156s.322-.239.415-.404.142-.338.142-.52v-.613c-.029.034-.091.065-.188.094s-.204.05-.329.071l-.361.051-.281.034a2.5 2.5 0 0 0-.489.111c-.15.049-.271.124-.364.224s-.136.233-.136.403c0 .233.086.41.258.529s.395.176.662.176zm5.872-1.284v-2.58h.67V237h-.67v-.739h-.046a1.43 1.43 0 0 1-.477.566c-.216.153-.489.23-.818.23a1.46 1.46 0 0 1-.727-.179 1.25 1.25 0 0 1-.5-.546c-.122-.244-.182-.552-.182-.923v-2.773h.67v2.728c0 .318.089.572.267.761s.409.284.688.284c.166 0 .336-.043.508-.128s.32-.216.438-.392.179-.4.179-.673zm3.66 3.511c-.324 0-.603-.041-.836-.125a1.75 1.75 0 0 1-.582-.324c-.153-.132-.276-.274-.366-.426l.534-.375c.06.08.137.171.23.273a1.17 1.17 0 0 0 .38.27c.163.078.376.116.64.116.352 0 .643-.085.872-.255s.344-.438.344-.801v-.887h-.057a3.84 3.84 0 0 1-.211.296c-.089.115-.217.218-.386.309s-.392.134-.676.134c-.352 0-.669-.084-.949-.25a1.76 1.76 0 0 1-.662-.727c-.161-.319-.241-.705-.241-1.16 0-.447.078-.836.236-1.167s.375-.591.656-.773.604-.275.971-.275c.284 0 .51.047.676.142s.298.198.387.318l.21.29h.068v-.694h.648v4.489c0 .375-.085.68-.256.915a1.48 1.48 0 0 1-.682.52c-.286.11-.6.167-.948.167zm-.023-2.397c.269 0 .496-.062.682-.185s.326-.3.423-.531a2.14 2.14 0 0 0 .145-.83c0-.314-.047-.592-.142-.832s-.235-.429-.421-.566-.414-.204-.687-.204c-.284 0-.521.072-.71.216s-.329.337-.424.579-.139.512-.139.807c0 .303.048.571.142.804a1.21 1.21 0 0 0 .426.546c.187.133.425.196.705.196zm16.856-2.716l-.602.17c-.038-.1-.094-.198-.168-.293a.81.81 0 0 0-.295-.238c-.125-.063-.285-.094-.48-.094-.267 0-.49.062-.668.185a.54.54 0 0 0-.264.463c0 .166.06.298.182.395s.31.177.568.241l.648.159c.39.095.68.24.872.435s.287.442.287.747a1.11 1.11 0 0 1-.216.671c-.142.197-.341.352-.597.465a2.19 2.19 0 0 1-.892.171c-.445 0-.813-.097-1.105-.29s-.476-.475-.554-.846l.636-.16c.061.235.176.411.344.529s.393.176.668.176c.312 0 .56-.066.744-.199s.278-.295.278-.483c0-.151-.053-.278-.159-.38s-.269-.182-.488-.233l-.728-.171c-.399-.095-.693-.241-.88-.44s-.279-.452-.279-.753c0-.246.069-.464.208-.653s.33-.339.571-.447a2.02 2.02 0 0 1 .824-.161c.431 0 .77.094 1.017.284s.424.439.528.75zm2.918 3.477c-.42 0-.783-.093-1.088-.279s-.537-.448-.701-.784-.245-.729-.245-1.176.082-.841.245-1.182.394-.609.687-.801.64-.289 1.034-.289a2.07 2.07 0 0 1 .674.113c.221.076.423.199.605.369s.326.393.434.671.162.621.162 1.028v.284h-3.363v-.579h2.681c0-.246-.049-.466-.147-.659a1.12 1.12 0 0 0-.415-.458c-.178-.111-.388-.167-.631-.167a1.2 1.2 0 0 0-.693.199c-.193.13-.342.301-.446.511s-.156.436-.156.676v.387c0 .329.057.608.17.838s.276.4.48.519.443.177.713.177c.177 0 .336-.025.478-.074a1.02 1.02 0 0 0 .372-.227c.104-.103.184-.23.241-.381l.648.182c-.068.219-.183.413-.344.579a1.68 1.68 0 0 1-.596.387c-.237.09-.503.136-.799.136zm2.827 1.545v-6h.648v.694h.079l.205-.29c.089-.12.216-.226.381-.318s.392-.142.676-.142c.367 0 .691.091.971.275s.499.444.657.781.235.735.235 1.194-.078.862-.235 1.201a1.86 1.86 0 0 1-.654.784c-.278.184-.599.276-.963.276-.28 0-.505-.046-.673-.139s-.298-.202-.389-.321l-.211-.301h-.056v2.306h-.671zm.659-3.818c0 .33.048.62.145.872s.238.446.423.588.413.211.682.211c.28 0 .514-.074.702-.222a1.36 1.36 0 0 0 .426-.602c.097-.254.145-.536.145-.847a2.27 2.27 0 0 0-.142-.829c-.095-.246-.234-.444-.423-.588s-.424-.219-.708-.219c-.273 0-.502.069-.687.207a1.25 1.25 0 0 0-.421.574c-.094.244-.142.529-.142.855zm18.559 2.273c-.394 0-.739-.094-1.037-.281a1.92 1.92 0 0 1-.693-.787c-.165-.337-.247-.731-.247-1.182s.082-.851.247-1.19a1.91 1.91 0 0 1 .693-.79 1.9 1.9 0 0 1 1.037-.281c.394 0 .739.093 1.034.281s.529.451.693.79.25.735.25 1.19-.083.845-.25 1.182-.395.599-.693.787a1.89 1.89 0 0 1-1.034.281zm0-.602c.299 0 .546-.077.739-.23a1.36 1.36 0 0 0 .429-.606c.093-.25.139-.52.139-.812a2.33 2.33 0 0 0-.139-.815c-.093-.252-.236-.456-.429-.611s-.44-.233-.739-.233-.545.077-.738.233a1.36 1.36 0 0 0-.429.611 2.33 2.33 0 0 0-.14.815 2.31 2.31 0 0 0 .14.812 1.35 1.35 0 0 0 .429.606c.193.153.439.23.738.23zm4.774.602c-.41 0-.762-.097-1.057-.29a1.89 1.89 0 0 1-.682-.798c-.159-.339-.239-.726-.239-1.162 0-.443.082-.834.245-1.173a1.94 1.94 0 0 1 .687-.799c.293-.192.64-.289 1.034-.289.307 0 .584.056.83.17s.448.273.605.477.255.443.292.716h-.67c-.051-.199-.165-.375-.341-.528s-.409-.233-.704-.233a1.18 1.18 0 0 0-.688.204c-.195.135-.347.325-.457.571a2.12 2.12 0 0 0-.162.861c0 .337.053.631.159.881a1.33 1.33 0 0 0 .454.582c.195.138.428.208.694.208.174 0 .332-.031.474-.091s.262-.148.361-.262a1 1 0 0 0 .21-.409h.67c-.037.258-.131.49-.281.696s-.344.368-.588.489-.524.179-.846.179zm4.593-4.455v.569h-2.261v-.569h2.261zm-1.602-1.045h.671v4.159c0 .189.027.331.082.426s.129.155.216.188.183.045.281.045c.074 0 .135-.004.182-.011l.114-.023.136.602a1.4 1.4 0 0 1-.5.08c-.19 0-.375-.041-.557-.122s-.329-.206-.449-.373-.176-.376-.176-.63v-4.341zm14.707 2.784V237h-.67v-4.364h.647v.682h.057c.102-.221.258-.399.466-.534s.477-.204.807-.204a1.59 1.59 0 0 1 .775.181 1.23 1.23 0 0 1 .518.546c.123.242.184.549.184.92V237h-.67v-2.727c0-.343-.089-.61-.267-.801s-.423-.29-.733-.29c-.214 0-.406.046-.574.139a.99.99 0 0 0-.395.406c-.097.178-.145.394-.145.648zm5.782 2.716c-.394 0-.74-.094-1.037-.281a1.92 1.92 0 0 1-.693-.787c-.165-.337-.247-.731-.247-1.182s.082-.851.247-1.19a1.91 1.91 0 0 1 .693-.79c.297-.188.643-.281 1.037-.281s.739.093 1.034.281.529.451.693.79.25.735.25 1.19-.083.845-.25 1.182-.396.599-.693.787a1.89 1.89 0 0 1-1.034.281zm0-.602c.299 0 .546-.077.739-.23a1.36 1.36 0 0 0 .429-.606 2.33 2.33 0 0 0 .139-.812c0-.292-.047-.564-.139-.815s-.236-.456-.429-.611-.44-.233-.739-.233-.545.077-.739.233-.336.359-.429.611-.139.523-.139.815a2.33 2.33 0 0 0 .139.812c.093.25.236.452.429.606s.44.23.739.23zm6.413-3.853L300.865 237h-.682l-1.613-4.364h.727l1.204 3.478h.046l1.204-3.478h.728zm12.782 4.455a1.71 1.71 0 0 1-.963-.276c-.278-.185-.496-.447-.653-.784s-.236-.739-.236-1.201.079-.857.236-1.194.376-.597.656-.781.604-.275.972-.275c.284 0 .508.047.673.142s.294.198.381.318l.207.29h.057v-2.148h.67V237h-.647v-.67h-.08c-.049.079-.119.179-.21.301s-.221.226-.389.321-.393.139-.674.139zm.091-.602c.269 0 .496-.07.682-.211s.327-.338.423-.588a2.43 2.43 0 0 0 .145-.872 2.35 2.35 0 0 0-.142-.855c-.094-.246-.235-.437-.42-.574s-.415-.207-.688-.207c-.284 0-.521.073-.71.219s-.329.34-.423.588a2.33 2.33 0 0 0-.139.829 2.4 2.4 0 0 0 .142.847c.096.252.238.452.426.602s.424.222.704.222zm5.06.602c-.421 0-.783-.093-1.088-.279s-.537-.448-.702-.784-.244-.729-.244-1.176.081-.841.244-1.182.394-.609.688-.801.64-.289 1.034-.289c.227 0 .451.037.673.113s.423.199.605.369.327.393.435.671.162.621.162 1.028v.284h-3.364v-.579h2.682c0-.246-.049-.466-.148-.659s-.235-.346-.415-.458-.388-.167-.63-.167a1.2 1.2 0 0 0-.693.199c-.194.13-.342.301-.446.511s-.157.436-.157.676v.387c0 .329.057.608.171.838a1.22 1.22 0 0 0 .48.519 1.4 1.4 0 0 0 .713.177c.176 0 .335-.025.477-.074a1.02 1.02 0 0 0 .372-.227c.105-.103.185-.23.242-.381l.648.182c-.069.219-.183.413-.344.579s-.36.294-.597.387a2.17 2.17 0 0 1-.798.136zm4.599 0c-.409 0-.761-.097-1.056-.29a1.89 1.89 0 0 1-.682-.798c-.159-.339-.239-.726-.239-1.162a2.69 2.69 0 0 1 .244-1.173c.165-.341.394-.607.688-.799s.64-.289 1.034-.289c.307 0 .583.056.83.17s.447.273.605.477a1.49 1.49 0 0 1 .292.716h-.67c-.051-.199-.165-.375-.341-.528s-.409-.233-.705-.233a1.18 1.18 0 0 0-.687.204 1.34 1.34 0 0 0-.458.571c-.107.245-.161.532-.161.861 0 .337.053.631.159.881a1.33 1.33 0 0 0 .454.582 1.17 1.17 0 0 0 .693.208c.175 0 .333-.031.475-.091s.262-.148.361-.262a1 1 0 0 0 .21-.409h.67c-.038.258-.131.49-.281.696a1.57 1.57 0 0 1-.588.489 1.9 1.9 0 0 1-.847.179z" class="B"/><path d="M367 56v169m-5 0h5" class="H"/><path d="M356.875 227.06c-.321 0-.594-.088-.82-.262s-.399-.432-.518-.765-.179-.74-.179-1.215.06-.874.179-1.208.294-.591.52-.767.5-.266.818-.266.59.088.816.266.401.432.52.767.181.737.181 1.208-.06.879-.179 1.215-.292.588-.518.765-.499.262-.82.262zm0-.469c.318 0 .565-.154.741-.46s.265-.745.265-1.313c0-.378-.041-.699-.122-.965s-.194-.468-.345-.607-.329-.209-.539-.209c-.315 0-.562.155-.739.467s-.267.747-.267 1.314c0 .378.04.699.12.963s.194.465.343.603.331.207.543.207z" class="B"/><path d="M362 183h5" class="H"/><path d="M353.263 185.06c-.25 0-.476-.05-.676-.149a1.25 1.25 0 0 1-.481-.41c-.121-.173-.187-.37-.199-.592h.512a.7.7 0 0 0 .268.49c.161.128.353.192.576.192.179 0 .338-.042.477-.126s.251-.199.33-.345.122-.315.122-.501a1.02 1.02 0 0 0-.126-.509c-.083-.15-.196-.269-.341-.356s-.31-.13-.496-.132a1.37 1.37 0 0 0-.412.062 1.13 1.13 0 0 0-.347.16l-.494-.06.264-2.148h2.267v.469h-1.824l-.153 1.287h.025a1.15 1.15 0 0 1 .337-.177 1.27 1.27 0 0 1 .422-.07 1.34 1.34 0 0 1 .714.192 1.33 1.33 0 0 1 .494.52c.121.22.181.471.181.754a1.48 1.48 0 0 1-.188.746c-.123.217-.294.389-.511.515s-.464.188-.741.188zm2.363-.06v-4.364h1.526c.304 0 .554.053.752.158s.344.244.441.42.145.368.145.581a.97.97 0 0 1-.1.465c-.066.122-.152.219-.26.29a1.19 1.19 0 0 1-.348.157v.043a.85.85 0 0 1 .403.141 1.02 1.02 0 0 1 .339.366 1.16 1.16 0 0 1 .136.584c0 .219-.05.415-.149.59s-.256.313-.471.416-.493.153-.837.153h-1.577zm.528-.469h1.049c.345 0 .59-.067.735-.2s.219-.298.219-.49a.77.77 0 0 0-.113-.409c-.075-.127-.182-.227-.321-.303a1.02 1.02 0 0 0-.495-.115h-1.074v1.517zm0-1.977h.981a.96.96 0 0 0 .43-.094c.129-.062.232-.15.307-.264s.115-.247.115-.401c0-.191-.067-.354-.2-.487s-.346-.203-.635-.203h-.998v1.449z" class="B"/><path d="M362 140h5" class="H"/><path d="M350.544 137.636V142h-.528v-3.81h-.026l-1.065.708v-.537l1.091-.725h.528zm2.679 4.424c-.321 0-.595-.088-.821-.262s-.398-.432-.517-.765-.179-.74-.179-1.215.059-.874.179-1.208.294-.591.519-.767.5-.266.819-.266.59.088.816.266.4.432.52.767.181.737.181 1.208-.06.879-.179 1.215-.292.588-.518.765-.499.262-.82.262zm0-.469c.318 0 .565-.154.741-.46s.264-.745.264-1.313c0-.378-.04-.699-.121-.965s-.195-.468-.345-.607-.329-.209-.539-.209c-.316 0-.562.155-.74.467s-.266.747-.266 1.314c0 .378.04.699.119.963s.194.465.343.603.332.207.544.207zm2.403.409v-4.364h1.526c.304 0 .554.053.752.158s.344.244.441.42.145.368.145.581a.97.97 0 0 1-.1.465c-.066.122-.152.219-.26.29a1.19 1.19 0 0 1-.348.157v.043a.85.85 0 0 1 .403.141 1.02 1.02 0 0 1 .339.366 1.16 1.16 0 0 1 .136.584c0 .219-.05.415-.149.59s-.256.313-.471.416-.493.153-.837.153h-1.577zm.528-.469h1.049c.345 0 .59-.067.735-.2s.219-.298.219-.49a.77.77 0 0 0-.113-.409c-.075-.127-.182-.227-.321-.303a1.02 1.02 0 0 0-.495-.115h-1.074v1.517zm0-1.977h.981a.96.96 0 0 0 .43-.094c.129-.062.232-.15.307-.264s.115-.247.115-.401c0-.191-.067-.354-.2-.487s-.346-.203-.635-.203h-.998v1.449z" class="B"/><path d="M362 98h5" class="H"/><path d="M350.644 95.636V100h-.528v-3.81h-.026l-1.065.707v-.537l1.091-.724h.528zm2.619 4.424a1.5 1.5 0 0 1-.676-.15 1.25 1.25 0 0 1-.481-.409 1.12 1.12 0 0 1-.199-.592h.512a.7.7 0 0 0 .268.49c.161.128.353.192.576.192.179 0 .338-.042.477-.126a.88.88 0 0 0 .33-.345c.081-.148.122-.315.122-.501a1.02 1.02 0 0 0-.126-.509c-.083-.151-.196-.269-.341-.356a.96.96 0 0 0-.496-.132c-.134-.002-.271.019-.412.062s-.256.095-.347.16l-.494-.06.264-2.148h2.267v.469h-1.824l-.153 1.287h.025c.09-.071.202-.13.337-.177s.275-.07.422-.07a1.34 1.34 0 0 1 1.208.712 1.54 1.54 0 0 1 .181.754c0 .278-.063.527-.188.746a1.37 1.37 0 0 1-.511.516c-.217.125-.464.188-.741.188zm2.363-.06v-4.364h1.526c.304 0 .554.053.752.158a1.04 1.04 0 0 1 .441.42 1.19 1.19 0 0 1 .145.582.97.97 0 0 1-.1.464c-.066.122-.152.219-.26.29s-.223.124-.348.158v.043c.134.008.268.055.403.141s.248.207.339.366.136.354.136.584c0 .219-.05.415-.149.59s-.256.313-.471.415-.493.153-.837.153h-1.577zm.528-.469h1.049c.345 0 .59-.067.735-.2s.219-.298.219-.49a.77.77 0 0 0-.113-.409c-.075-.126-.182-.227-.321-.302s-.304-.115-.495-.115h-1.074v1.517zm0-1.977h.981c.159 0 .302-.031.43-.094s.232-.15.307-.264.115-.247.115-.4c0-.192-.067-.354-.2-.488s-.346-.202-.635-.202h-.998v1.449z" class="B"/><path d="M362 56h5" class="H"/><path d="M348.167 58v-.383l1.44-1.577.418-.482c.109-.138.19-.267.242-.388a.94.94 0 0 0 .081-.384c0-.153-.037-.286-.11-.398a.72.72 0 0 0-.299-.26c-.126-.061-.268-.092-.426-.092a.89.89 0 0 0-.439.104.72.72 0 0 0-.287.288c-.067.124-.101.268-.101.435h-.502c0-.256.059-.48.176-.673a1.23 1.23 0 0 1 .482-.452c.205-.108.434-.162.688-.162s.482.054.68.162a1.22 1.22 0 0 1 .464.437 1.14 1.14 0 0 1 .169.611 1.3 1.3 0 0 1-.088.471c-.056.152-.156.322-.298.509s-.336.413-.586.682l-.98 1.048v.034h2.028V58h-2.752zm5.056.06c-.321 0-.595-.087-.821-.262s-.398-.431-.517-.765-.179-.74-.179-1.215.059-.874.179-1.208.294-.591.519-.767a1.29 1.29 0 0 1 .819-.266 1.28 1.28 0 0 1 .816.266c.227.176.4.432.52.767s.181.736.181 1.208-.06.879-.179 1.215-.292.589-.518.765a1.3 1.3 0 0 1-.82.262zm0-.469c.318 0 .565-.153.741-.46s.264-.744.264-1.312c0-.378-.04-.7-.121-.965s-.195-.468-.345-.607a.76.76 0 0 0-.539-.209c-.316 0-.562.156-.74.467s-.266.748-.266 1.315c0 .378.04.699.119.963s.194.465.343.603a.78.78 0 0 0 .544.207zm2.403.409v-4.364h1.526c.304 0 .554.052.752.158a1.04 1.04 0 0 1 .441.42 1.19 1.19 0 0 1 .145.582.97.97 0 0 1-.1.464c-.066.122-.152.219-.26.29s-.223.124-.348.158v.043c.134.008.268.055.403.141s.248.207.339.367.136.354.136.584c0 .219-.05.416-.149.59s-.256.313-.471.416-.493.153-.837.153h-1.577zm.528-.469h1.049c.345 0 .59-.067.735-.2s.219-.298.219-.49a.77.77 0 0 0-.113-.409c-.075-.126-.182-.227-.321-.303s-.304-.115-.495-.115h-1.074v1.517zm0-1.977h.981c.159 0 .302-.031.43-.094s.232-.151.307-.264.115-.247.115-.401c0-.192-.067-.354-.2-.488s-.346-.202-.635-.202h-.998v1.449z" class="B"/><defs><filter id="A" x="0" y="0" width="403" height="271" filterUnits="userSpaceOnUse" color-interpolation-filters="sRGB"><feFlood flood-opacity="0" result="A"/><feColorMatrix in="SourceAlpha" values="0 0 0 0 0 0 0 0 0 0 0 0 0 0 0 0 0 0 127 0" result="B"/><feOffset dy="4"/><feGaussianBlur stdDeviation="2"/><feComposite in2="B" operator="out"/><feColorMatrix values="0 0 0 0 0.34902 0 0 0 0 0.690196 0 0 0 0 0.466667 0 0 0 0.13 0"/><feBlend in2="A"/><feBlend in="SourceGraphic"/></filter></defs></svg>