<svg width="410" height="351" viewBox="0 0 410 351" fill="none" xmlns="http://www.w3.org/2000/svg">
    <circle cx="234.5" cy="175.5" r="155.5" stroke="#D2DDFF" stroke-width="40" />
    <circle cx="95.5" cy="105.5" r="89.5" stroke="#2F55D3" stroke-width="12" />
    <circle cx="95.5" cy="105.5" r="70.5" stroke="#FF4545" stroke-width="12" />
    <circle cx="95.5" cy="105.5" r="58.5" stroke="white" stroke-width="12" />
    <circle cx="95.5" cy="105.5" r="46.5" stroke="#FF4545" stroke-width="12" />
    <circle cx="95.5" cy="105.5" r="34.5" fill="#FF4545" stroke="white" stroke-width="12" />
    <path
        d="M179.724 195.694C180.732 197.052 181.616 198.529 182.78 199.738C184.287 201.302 185.794 202.947 188.405 202.7C189.091 202.635 189.975 203.503 190.598 204.115C194.507 207.96 198.491 211.739 202.216 215.756C208.417 222.441 214.485 229.252 220.51 236.097C221.943 237.724 223.694 238.034 225.621 238.399C232.061 239.62 238.502 240.857 244.897 242.296C250.443 243.544 251.175 248.663 250.203 251.972C248.956 256.22 244.755 258.44 240.338 257.271C239.82 257.133 239.294 257.024 238.796 256.907C238.796 259.103 239.103 261.245 238.727 263.259C238.102 266.604 234.944 268.795 231.4 268.806C227.191 268.82 224.728 267.229 223.898 263.428C222.379 256.475 220.965 249.494 219.774 242.479C219.364 240.064 217.553 239.046 216.15 237.64C213.708 235.195 210.991 233.029 208.467 230.663C200.993 223.657 193.509 216.659 186.161 209.521C185.142 208.531 184.874 206.769 184.249 205.369C183.873 204.523 183.66 203.517 183.061 202.874C180.51 200.134 177.842 197.502 175.333 194.697C176.873 194.94 178.299 195.317 179.724 195.694Z"
        fill="black" fill-opacity="0.11" />
    <path
        d="M211.773 199.992C217.089 201.526 222.412 203.036 227.718 204.602C230.774 205.504 233.776 206.601 236.859 207.388C237.901 207.654 239.188 207.45 240.243 207.1C246.679 204.968 253.079 202.729 259.493 200.531C265.137 198.597 268.925 202.606 269.811 206.417C270.774 210.56 267.979 214.769 263.318 216.032C263.058 216.103 262.814 216.23 262.221 216.468C262.761 217.143 263.179 217.706 263.639 218.233C266.519 221.529 266.433 225.997 263.418 229.143C260.314 232.381 256.012 232.743 252.718 229.515C248.866 225.74 245.367 221.599 241.782 217.557C240.454 216.059 239.316 214.392 238.246 212.666C239.16 212.574 239.934 212.535 240.673 212.677C245.821 213.667 250.955 214.734 256.114 215.664C256.823 215.791 257.644 215.298 258.586 215.105C264.889 216.635 269.406 212.827 268.861 206.6C268.57 203.264 264.871 200.333 261.628 201.145C257.11 202.277 252.63 203.58 248.188 204.985C245.532 205.825 242.981 207 239.978 208.185C240.712 208.556 240.987 208.738 241.29 208.842C246.384 210.597 251.486 212.329 256.572 214.107C257.094 214.289 257.525 214.727 257.828 215.048C250.576 213.226 243.494 211.411 236.416 209.577C227.93 207.378 219.449 205.163 210.939 202.856C210.913 202.756 210.853 202.559 210.92 202.421C211.249 201.519 211.511 200.755 211.773 199.992Z"
        fill="#B72D31" />
    <path
        d="M258.414 215.093C257.644 215.298 256.823 215.791 256.114 215.664C250.955 214.734 245.821 213.667 240.673 212.677C239.934 212.535 239.16 212.574 238.22 212.524C238.038 212.518 238.024 212.528 237.985 212.464C237.849 212.301 237.752 212.202 237.655 212.103C228.609 209.997 219.564 207.891 210.378 205.612C210.48 204.611 210.723 203.783 210.966 202.955C219.449 205.163 227.93 207.378 236.416 209.577C243.494 211.411 250.577 213.226 257.932 215.056C258.276 215.072 258.345 215.082 258.414 215.093Z"
        fill="#942125" />
    <path
        d="M210.939 202.856C210.723 203.783 210.48 204.611 210.225 205.577C208.333 205.395 206.424 205.192 204.581 204.728C200.565 203.717 196.585 202.561 192.584 201.491C190.924 201.047 189.448 200.466 188.869 198.59C188.741 198.177 188.146 197.752 187.685 197.625C185.157 196.929 182.604 196.323 179.892 195.69C178.299 195.317 176.874 194.94 175.282 194.566C175.115 194.57 175.1 194.598 175.073 194.504C174.92 194.352 174.796 194.295 174.672 194.237C174.435 194.01 174.199 193.784 174.08 193.387C178.935 194.374 183.672 195.531 188.568 196.72C196.102 198.688 203.478 200.624 210.854 202.559C210.854 202.559 210.913 202.756 210.939 202.856Z"
        fill="#C2CECD" />
    <path
        d="M210.92 202.421C203.478 200.624 196.102 198.688 188.68 196.623C191.397 194.423 194.239 195.174 197.224 196.023C201.965 197.372 206.784 198.445 211.57 199.635C211.614 199.688 211.659 199.741 211.739 199.893C211.511 200.755 211.249 201.519 210.92 202.421Z"
        fill="#FAFCFC" />
    <path
        d="M211.511 199.509C206.784 198.445 201.965 197.372 197.224 196.023C194.239 195.174 191.397 194.423 188.521 196.59C183.671 195.531 178.935 194.374 174.075 193.263C173.694 191.576 174.847 191.988 175.726 192.215C179.619 193.223 183.482 194.359 187.397 195.268C188.321 195.483 189.407 195.001 190.418 194.834C191.35 194.681 192.364 194.199 193.199 194.414C199.304 195.992 205.373 197.71 211.511 199.509Z"
        fill="#CDF4F2" />
    <path
        d="M258.587 215.105C258.345 215.083 258.276 215.072 258.103 215.054C257.525 214.727 257.094 214.289 256.572 214.107C251.486 212.329 246.384 210.597 241.29 208.842C240.988 208.738 240.712 208.556 239.978 208.185C242.981 207 245.532 205.825 248.188 204.985C252.63 203.58 257.11 202.277 261.628 201.145C264.871 200.333 268.57 203.264 268.861 206.6C269.406 212.827 264.889 216.635 258.587 215.105Z"
        fill="#EA1E24" />
    <path
        d="M238.5 131.088C239.742 132.236 240.885 133.524 242.252 134.496C244.022 135.755 245.807 137.092 248.327 136.366C248.99 136.176 250.019 136.865 250.744 137.352C255.297 140.406 259.911 143.383 264.316 146.641C271.647 152.064 278.87 157.634 286.058 163.246C287.767 164.581 289.545 164.561 291.506 164.564C298.061 164.571 304.62 164.595 311.17 164.826C316.852 165.027 318.518 169.922 318.175 173.353C317.735 177.759 314.018 180.718 309.461 180.386C308.926 180.347 308.389 180.337 307.878 180.314C308.284 182.472 308.982 184.52 308.986 186.569C308.991 189.972 306.292 192.709 302.812 193.376C298.678 194.168 295.963 193.061 294.444 189.479C291.665 182.927 288.984 176.328 286.515 169.655C285.665 167.357 283.697 166.691 282.058 165.57C279.207 163.619 276.135 161.993 273.217 160.135C264.576 154.632 255.926 149.14 247.385 143.485C246.199 142.7 245.61 141.019 244.737 139.758C244.211 138.997 243.816 138.047 243.108 137.526C240.094 135.305 236.986 133.213 234 130.92C235.559 130.874 237.03 130.981 238.5 131.088Z"
        fill="black" fill-opacity="0.12" />
    <path
        d="M268.87 114.693C274.026 112.686 279.173 110.656 284.34 108.679C287.316 107.541 290.367 106.59 293.295 105.345C294.285 104.923 295.184 103.981 295.81 103.062C299.63 97.4613 303.358 91.797 307.121 86.1573C310.432 81.1945 315.876 82.081 318.893 84.5718C322.173 87.2801 322.507 92.3208 319.57 96.1541C319.406 96.3677 319.289 96.6172 318.963 97.1664C319.801 97.3748 320.475 97.5692 321.16 97.7084C325.45 98.5798 328.094 102.183 327.607 106.513C327.106 110.97 323.906 113.869 319.33 113.303C313.977 112.641 308.683 111.474 303.38 110.438C301.415 110.054 299.499 109.419 297.601 108.697C298.272 108.07 298.863 107.569 299.537 107.233C304.229 104.895 308.957 102.626 313.621 100.234C314.262 99.9051 314.615 99.015 315.247 98.2893C321.184 95.6792 322.462 89.9117 318.25 85.2937C315.993 82.8196 311.274 82.7355 309.19 85.3492C306.287 88.9909 303.517 92.746 300.84 96.5583C299.239 98.8386 297.926 101.321 296.258 104.085C297.066 103.935 297.396 103.912 297.699 103.811C302.813 102.113 307.919 100.393 313.04 98.7184C313.565 98.5468 314.174 98.6333 314.609 98.7047C307.74 101.658 301.01 104.515 294.272 107.353C286.193 110.756 278.109 114.144 269.945 117.476C269.864 117.413 269.697 117.292 269.666 117.142C269.38 116.226 269.125 115.46 268.87 114.693Z"
        fill="#B72D31" />
    <path
        d="M315.102 98.3846C314.615 99.015 314.262 99.9051 313.621 100.234C308.956 102.626 304.229 104.895 299.537 107.233C298.863 107.569 298.271 108.07 297.494 108.601C297.346 108.707 297.341 108.723 297.271 108.696C297.064 108.649 296.926 108.629 296.789 108.609C288.323 112.425 279.856 116.242 271.173 120.007C270.646 119.149 270.336 118.344 270.026 117.539C278.109 114.144 286.193 110.756 294.272 107.353C301.01 104.515 307.74 101.658 314.696 98.6472C314.98 98.4517 315.041 98.4181 315.102 98.3846Z"
        fill="#942125" />
    <path
        d="M269.945 117.476C270.336 118.344 270.646 119.149 271.03 120.072C269.416 121.075 267.775 122.073 266.029 122.823C262.224 124.458 258.359 125.954 254.53 127.533C252.941 128.188 251.415 128.621 249.817 127.482C249.465 127.232 248.733 127.255 248.29 127.434C245.859 128.415 243.462 129.483 240.923 130.627C239.43 131.297 238.068 131.862 236.576 132.532C236.446 132.636 236.452 132.667 236.372 132.609C236.159 132.581 236.026 132.611 235.892 132.64C235.567 132.604 235.241 132.567 234.906 132.324C239.363 130.161 243.83 128.206 248.442 126.179C255.625 123.17 262.661 120.231 269.698 117.292C269.698 117.292 269.864 117.413 269.945 117.476Z"
        fill="#C2CECD" />
    <path
        d="M269.666 117.142C262.661 120.231 255.625 123.17 248.473 126.033C249.297 122.636 252.011 121.508 254.899 120.371C259.485 118.565 263.966 116.493 268.492 114.534C268.56 114.549 268.627 114.564 268.783 114.636C269.125 115.46 269.38 116.226 269.666 117.142Z"
        fill="#FAFCFC" />
    <path
        d="M268.369 114.469C263.966 116.493 259.485 118.565 254.899 120.371C252.011 121.508 249.297 122.636 248.327 126.104C243.83 128.206 239.363 130.162 234.827 132.229C233.499 131.119 234.666 130.747 235.503 130.394C239.208 128.832 242.967 127.39 246.631 125.736C247.495 125.345 248.066 124.303 248.768 123.557C249.416 122.869 249.929 121.871 250.724 121.535C256.533 119.084 262.398 116.765 268.369 114.469Z"
        fill="#CDF4F2" />
    <path
        d="M315.247 98.2894C315.041 98.4182 314.98 98.4517 314.832 98.5426C314.174 98.6333 313.565 98.5468 313.04 98.7184C307.919 100.393 302.813 102.113 297.699 103.811C297.396 103.912 297.066 103.935 296.258 104.085C297.926 101.321 299.239 98.8386 300.84 96.5583C303.517 92.7461 306.287 88.9909 309.19 85.3493C311.274 82.7355 315.993 82.8196 318.25 85.2937C322.462 89.9118 321.184 95.6792 315.247 98.2894Z"
        fill="#EA1E24" />
    <path
        d="M99.4862 107.329C100.87 108.608 102.143 110.043 103.666 111.126C105.639 112.529 107.628 114.019 110.436 113.211C111.175 112.998 112.322 113.766 113.13 114.309C118.203 117.713 123.345 121.03 128.253 124.66C136.422 130.703 144.471 136.91 152.48 143.163C154.384 144.65 156.366 144.629 158.551 144.631C165.856 144.64 173.164 144.667 180.463 144.924C186.794 145.148 188.651 150.602 188.269 154.426C187.779 159.335 183.636 162.633 178.558 162.262C177.962 162.219 177.364 162.207 176.795 162.182C177.248 164.587 178.025 166.869 178.029 169.152C178.034 172.944 175.027 175.994 171.149 176.737C166.543 177.62 163.518 176.386 161.825 172.395C158.728 165.094 155.741 157.74 152.989 150.304C152.042 147.744 149.85 147.002 148.023 145.753C144.846 143.579 141.423 141.767 138.172 139.697C128.542 133.565 118.904 127.444 109.386 121.143C108.065 120.269 107.409 118.395 106.436 116.99C105.849 116.142 105.409 115.083 104.621 114.503C101.262 112.028 97.7982 109.696 94.4714 107.142C96.2089 107.09 97.8475 107.21 99.4862 107.329Z"
        fill="black" fill-opacity="0.18" />
    <path
        d="M138.28 84.8803C144.826 82.331 151.362 79.753 157.924 77.2434C161.703 75.7982 165.578 74.5905 169.296 73.0085C170.553 72.4736 171.694 71.2766 172.49 70.1102C177.341 62.9979 182.074 55.8052 186.853 48.6435C191.058 42.3414 197.971 43.4671 201.802 46.6301C205.967 50.0692 206.391 56.4703 202.661 61.338C202.453 61.6092 202.305 61.9261 201.89 62.6235C202.954 62.8881 203.81 63.135 204.681 63.3117C210.129 64.4182 213.485 68.9932 212.867 74.4925C212.23 80.1524 208.168 83.8336 202.357 83.1148C195.558 82.2738 188.836 80.7921 182.102 79.4762C179.607 78.9886 177.174 78.1829 174.764 77.2654C175.615 76.4695 176.367 75.8336 177.222 75.4072C183.18 72.4377 189.184 69.557 195.107 66.5189C195.921 66.1013 196.369 64.9709 197.171 64.0494C204.711 60.7349 206.334 53.4111 200.985 47.5468C198.119 44.4051 192.127 44.2982 189.481 47.6174C185.794 52.2417 182.276 57.0102 178.877 61.8512C176.844 64.7469 175.176 67.8987 173.058 71.4092C174.085 71.218 174.503 71.1891 174.888 71.0612C181.382 68.905 187.866 66.7209 194.369 64.5943C195.035 64.3763 195.809 64.4862 196.362 64.5769C187.639 68.3271 179.093 71.9547 170.536 75.5593C160.278 79.8809 150.011 84.1829 139.645 88.4135C139.542 88.3336 139.33 88.1807 139.291 87.9898C138.927 86.826 138.603 85.8531 138.28 84.8803Z"
        fill="#B72D31" />
    <path
        d="M196.987 64.1703C196.369 64.9708 195.921 66.1011 195.106 66.5188C189.184 69.5569 183.18 72.4375 177.222 75.407C176.366 75.8334 175.615 76.4694 174.628 77.1431C174.44 77.2779 174.433 77.2986 174.345 77.264C174.082 77.2041 173.907 77.1789 173.733 77.1537C162.982 82.0002 152.23 86.8468 141.203 91.6273C140.534 90.5386 140.141 89.5159 139.748 88.4933C150.011 84.1828 160.278 79.8808 170.536 75.5592C179.092 71.9546 187.639 68.327 196.473 64.5038C196.832 64.2555 196.91 64.2129 196.987 64.1703Z"
        fill="#942125" />
    <path
        d="M139.645 88.4133C140.142 89.5159 140.535 90.5385 141.022 91.7105C138.972 92.9843 136.889 94.251 134.671 95.2038C129.84 97.2796 124.933 99.1798 120.07 101.184C118.052 102.016 116.114 102.567 114.085 101.121C113.638 100.802 112.709 100.832 112.146 101.059C109.058 102.304 106.015 103.661 102.79 105.113C100.895 105.964 99.1655 106.682 97.271 107.532C97.1059 107.665 97.1129 107.704 97.0121 107.631C96.7416 107.595 96.572 107.632 96.4023 107.67C95.9889 107.624 95.5755 107.578 95.1501 107.269C100.81 104.522 106.482 102.039 112.339 99.4656C121.46 95.6437 130.395 91.9121 139.33 88.1805C139.33 88.1805 139.542 88.3335 139.645 88.4133Z"
        fill="#C2CECD" />
    <path
        d="M139.291 87.9898C130.395 91.9123 121.46 95.6439 112.378 99.2802C113.425 94.9665 116.871 93.5334 120.538 92.0898C126.362 89.7972 132.052 87.1655 137.799 84.6773C137.885 84.6966 137.972 84.716 138.169 84.8078C138.604 85.8531 138.928 86.826 139.291 87.9898Z"
        fill="#FAFCFC" />
    <path
        d="M137.643 84.5949C132.052 87.1655 126.362 89.7972 120.538 92.0897C116.871 93.5333 113.425 94.9664 112.192 99.3703C106.482 102.039 100.81 104.523 95.0495 107.148C93.364 105.739 94.8456 105.265 95.9077 104.818C100.614 102.834 105.387 101.003 110.039 98.9022C111.137 98.4067 111.862 97.0831 112.753 96.136C113.576 95.2625 114.227 93.9943 115.236 93.5685C122.613 90.4552 130.062 87.5105 137.643 84.5949Z"
        fill="#CDF4F2" />
    <path
        d="M197.171 64.0494C196.91 64.213 196.833 64.2555 196.644 64.371C195.809 64.4862 195.036 64.3763 194.369 64.5943C187.866 66.7209 181.382 68.905 174.889 71.0611C174.503 71.1891 174.085 71.218 173.058 71.4091C175.176 67.8987 176.844 64.7469 178.878 61.8512C182.277 57.0102 185.794 52.2417 189.481 47.6173C192.127 44.2982 198.12 44.405 200.985 47.5467C206.334 53.411 204.711 60.7349 197.171 64.0494Z"
        fill="#EA1E24" />
</svg>
