<svg width="203" height="54" viewBox="0 0 203 54" fill="none" xmlns="http://www.w3.org/2000/svg">
<path d="M27.5741 47.612V4.44818L24.642 1L18.5309 1.27708L9.76543 5.52573L10.2901 10.0207L5.78395 10.8211L1.27778 23.7826L3.65432 26.1532L1 28.8009L3.9321 34.8968L14.5494 34.0963" stroke="black" stroke-width="2" stroke-linecap="round" stroke-linejoin="round"/>
<path d="M27.5739 47.6127L24.3949 52.9082L22.0183 52.3848L19.0862 52.9082L14.5801 50.7838L27.5739 31.2031" stroke="black" stroke-width="2" stroke-linecap="round" stroke-linejoin="round"/>
<path d="M15.1044 34.0957L6.89453 39.9145L12.7279 46.5338L24.3945 52.876" stroke="black" stroke-width="2" stroke-linecap="round" stroke-linejoin="round"/>
<path d="M4.21094 35.1748L9.2418 37.8225" stroke="black" stroke-width="2" stroke-linecap="round" stroke-linejoin="round"/>
<path d="M3.4082 26.1533L22.7909 37.7909L27.5749 43.8868" stroke="black" stroke-width="2" stroke-linecap="round" stroke-linejoin="round"/>
<path d="M27.297 47.6123L16.6797 48.1357" stroke="black" stroke-width="2" stroke-linecap="round" stroke-linejoin="round"/>
<path d="M10.3203 9.74414L14.8265 17.9336L15.8759 26.123L15.5981 47.5509" stroke="black" stroke-width="2" stroke-linecap="round" stroke-linejoin="round"/>
<path d="M3.4082 26.1525L14.5502 17.686L27.0193 11.8672" stroke="black" stroke-width="2" stroke-linecap="round" stroke-linejoin="round"/>
<path d="M3.68555 25.6299L10.3213 10.267L21.1855 1.52344" stroke="black" stroke-width="2" stroke-linecap="round" stroke-linejoin="round"/>
<path d="M10.3203 10.0205L22.5117 13.9921L27.5425 17.1632" stroke="black" stroke-width="2" stroke-linecap="round" stroke-linejoin="round"/>
<path d="M3.93164 25.907H15.6292L22.7897 14.2694L25.1662 2.63184" stroke="black" stroke-width="2" stroke-linecap="round" stroke-linejoin="round"/>
<path d="M27.2967 23.2588L15.877 26.1836L23.0374 37.5749L23.8399 47.6423" stroke="black" stroke-width="2" stroke-linecap="round" stroke-linejoin="round"/>
<path d="M27.9746 47.8574H30.5672" stroke="black" stroke-width="2" stroke-linejoin="round"/>
<path d="M27.9746 43.6406H30.5672" stroke="black" stroke-width="2" stroke-linejoin="round"/>
<path d="M27.9746 31.7246H30.5672" stroke="black" stroke-width="2" stroke-linejoin="round"/>
<path d="M27.9746 23.2588H30.5672" stroke="black" stroke-width="2" stroke-linejoin="round"/>
<path d="M27.9746 17.1641H30.5672" stroke="black" stroke-width="2" stroke-linejoin="round"/>
<path d="M27.9746 11.8672H30.5672" stroke="black" stroke-width="2" stroke-linejoin="round"/>
<path d="M30.752 47.7048V4.47943L33.6841 1.03125L39.7952 1.30834L48.5606 5.55698L48.0359 10.0519L52.5421 10.8524L57.0483 23.8446L54.6717 26.2153L57.326 28.863L54.3939 34.9589L43.7458 34.1584" stroke="black" stroke-width="2" stroke-linecap="round" stroke-linejoin="round"/>
<path d="M30.752 47.7051L33.931 53.0005L36.3075 52.4771L39.2396 53.0005L43.7458 50.8762L30.752 31.2646" stroke="black" stroke-width="2" stroke-linecap="round" stroke-linejoin="round"/>
<path d="M43.2526 34.1895L51.4625 40.0083L45.6292 46.6275L33.9316 52.9697" stroke="black" stroke-width="2" stroke-linecap="round" stroke-linejoin="round"/>
<path d="M54.1168 35.2344L49.0859 37.8821" stroke="black" stroke-width="2" stroke-linecap="round" stroke-linejoin="round"/>
<path d="M54.9186 26.2461L35.505 37.9145L30.752 44.0104" stroke="black" stroke-width="2" stroke-linecap="round" stroke-linejoin="round"/>
<path d="M30.998 47.7041L41.6462 48.2275" stroke="black" stroke-width="2" stroke-linecap="round" stroke-linejoin="round"/>
<path d="M48.0048 9.80469L43.4986 18.0249L42.4492 26.2451L42.727 47.7038" stroke="black" stroke-width="2" stroke-linecap="round" stroke-linejoin="round"/>
<path d="M54.9189 26.2458L43.7461 17.7485L31.2461 11.9297" stroke="black" stroke-width="2" stroke-linecap="round" stroke-linejoin="round"/>
<path d="M54.6402 25.7232L48.0044 10.3603L37.1094 1.58594" stroke="black" stroke-width="2" stroke-linecap="round" stroke-linejoin="round"/>
<path d="M48.005 10.084L35.7828 14.0555L30.752 17.2266" stroke="black" stroke-width="2" stroke-linecap="round" stroke-linejoin="round"/>
<path d="M54.3947 25.9696H42.6972L35.5367 14.3012L33.1602 2.63281" stroke="black" stroke-width="2" stroke-linecap="round" stroke-linejoin="round"/>
<path d="M30.998 23.3223L42.4487 26.2471L35.2882 37.6691L34.4857 47.7674" stroke="black" stroke-width="2" stroke-linecap="round" stroke-linejoin="round"/>
<path fill-rule="evenodd" clip-rule="evenodd" d="M88.8739 47.0743V29.9561H84.5329V36.6453H77.6672V29.9561H73.3262V47.0743H77.6672V40.2027H84.5329V47.0743H88.8739ZM109.409 38.5C109.409 34.1216 106.392 29.5304 100.111 29.5304C93.8307 29.5304 90.8135 34.0912 90.8135 38.5C90.8135 42.9088 93.8307 47.4696 100.111 47.4696C106.392 47.4696 109.409 42.8784 109.409 38.5ZM104.976 38.5C104.976 41.3885 103.375 43.9426 100.142 43.9426C96.8787 43.9426 95.3085 41.3885 95.3085 38.5C95.3085 35.6115 96.9095 33.027 100.142 33.027C103.375 33.027 104.976 35.6115 104.976 38.5ZM124.064 47.0743V43.4865H115.751V29.9561H111.41V47.0743H124.064ZM141.736 38.4088C141.736 35.7635 140.782 33.4831 138.996 31.9324C136.81 30.0473 133.855 29.9561 130.961 29.9561H125.296V47.0743H130.961C133.116 47.0743 136.441 47.0743 138.996 44.8547C140.751 43.3041 141.736 41.0237 141.736 38.4088ZM137.303 38.4088C137.303 39.9595 136.872 41.3885 135.887 42.3311C134.686 43.5169 133.177 43.5473 131.607 43.5473H129.637V33.3615H131.607C133.208 33.3615 134.809 33.3615 135.887 34.4561C136.903 35.5203 137.303 36.9797 137.303 38.4088ZM148.048 47.0743V29.9561H143.707V47.0743H148.048ZM166.335 47.0743V29.9561H162.272V40.4459L155.098 29.9561H150.788V47.0743H154.852V36.5845L162.025 47.0743H166.335ZM185.639 47.0743V37.223H177.604V40.5068H182.099C182.099 42.8176 179.974 43.9426 177.788 43.9426C174.679 43.9426 172.801 41.5405 172.801 38.4696C172.801 35.6115 174.525 33.0574 177.912 33.0574C179.543 33.0574 181.144 33.696 182.253 34.9122L184.808 32.3885C184.469 31.9932 182.314 29.5 177.758 29.5C171.631 29.5 168.367 33.6655 168.367 38.5C168.367 43.3953 171.477 47.4392 177.05 47.4392C180.344 47.4392 182.253 45.6149 182.407 45.4628L182.468 47.0439L185.639 47.0743ZM202.326 41.9662C202.326 34.5169 191.612 37.5878 191.612 34.5777C191.612 33.6047 192.659 32.9662 194.475 32.9662C197.77 32.9662 199.586 34.6689 199.74 34.7905L202.141 32.0845C201.834 31.7804 199.709 29.5608 194.506 29.5608C190.196 29.5608 187.302 31.6892 187.302 34.8209C187.302 41.9054 197.954 39.1081 197.954 42.2399C197.954 43.4561 196.6 44.0034 194.568 44.0034C192.597 44.0338 190.658 43.3649 189.118 42.1182L186.809 45.0068C187.117 45.3108 189.549 47.5 194.568 47.5C198.94 47.4392 202.326 45.5236 202.326 41.9662Z" fill="black"/>
<path fill-rule="evenodd" clip-rule="evenodd" d="M87.5702 19.8613C87.5702 18.0226 86.5879 16.3371 84.1934 15.6935C84.7153 15.4484 86.8949 14.4371 86.8949 11.4032C86.9256 10.2694 86.4958 9.19677 85.7283 8.36935C84.3162 6.92903 82.1366 6.92903 79.8035 6.92903H73.3262V25.1016H79.6193C82.3515 25.1016 84.9302 25.0097 86.4344 23.171C87.1711 22.2516 87.5702 21.0871 87.5702 19.8613ZM84.5925 11.8935C84.5925 14.7435 82.1673 14.9581 79.9877 14.9581H75.4751V8.85968H79.8342C81.9524 8.85968 84.5925 8.85968 84.5925 11.8935ZM85.2064 19.8919C85.2064 23.3548 81.891 23.171 79.3124 23.171H75.4751V16.7968H79.9263C82.6278 16.8274 85.2064 16.9806 85.2064 19.8919ZM93.188 25.1016V6.92903H90.9471V25.1016H93.188ZM113.326 25.1016V15.5403H105.406V17.5016H111.269V18.0226C111.269 19.8306 110.164 23.4774 105.437 23.4774C100.74 23.4774 98.9286 19.9839 98.9286 16C98.9286 12.1081 101.047 8.52258 105.59 8.52258C109.274 8.52258 110.962 10.7597 111.239 11.0661L112.774 9.77903C112.528 9.41129 110.533 6.5 105.59 6.5C99.8189 6.5 96.5342 10.6984 96.5342 15.9694C96.5342 21.5161 99.5119 25.5 105.099 25.5C109.642 25.5 111.116 22.9871 111.361 22.6194L111.423 25.071H113.326V25.1016Z" fill="black"/>
<path fill-rule="evenodd" clip-rule="evenodd" d="M140.802 19.9983C140.802 18.0791 139.804 16.3199 137.371 15.6481C137.901 15.3923 140.116 14.3367 140.116 11.17C140.147 9.98653 139.71 8.867 138.93 8.00337C137.495 6.5 135.28 6.5 132.909 6.5H126.326V25.468H132.722C135.499 25.468 138.119 25.3721 139.648 23.4529C140.428 22.4933 140.802 21.2778 140.802 19.9983ZM137.807 11.6818C137.807 14.6566 135.343 14.8805 133.127 14.8805H128.541V8.51515H132.971C135.155 8.51515 137.807 8.51515 137.807 11.6818ZM138.462 20.0303C138.462 23.6448 135.093 23.4529 132.472 23.4529H128.572V16.7997H133.096C135.811 16.8316 138.462 16.9916 138.462 20.0303ZM159.366 25.468L153.594 17.3434C153.906 17.2475 158.305 16.4798 158.305 11.9377C158.336 10.5303 157.806 9.15488 156.807 8.1633C155.341 6.65993 153.219 6.53199 150.848 6.53199H144.234V25.5H146.512V17.5673H151.067L156.62 25.5H159.366V25.468ZM156.059 12.0337C156.059 15.4242 153.001 15.6162 150.224 15.6162H146.543V8.48316H150.412C152.159 8.48316 154.062 8.51515 155.216 9.69865C155.778 10.2424 156.059 10.9461 156.059 12.0337ZM178.147 25.468L170.441 6.5H167.696L159.99 25.468H162.423L164.42 20.4461H173.623L175.62 25.468H178.147ZM172.843 18.431H165.262L169.037 8.86701L172.843 18.431ZM182.889 25.468V6.5H180.612V25.468H182.889ZM202.326 25.468V6.5H200.205V21.6936L189.504 6.5H187.132V25.468H189.254V10.1465L200.08 25.468H202.326Z" fill="black"/>
</svg>
