<svg width="24" height="24" viewBox="0 0 24 24" fill="none" xmlns="http://www.w3.org/2000/svg">
<path d="M17.5 13.5C17.2239 13.5 17 13.7239 17 14C17 14.2761 17.2239 14.5 17.5 14.5V13.5ZM9.5 6.5C9.5 6.77614 9.72386 7 10 7C10.2761 7 10.5 6.77614 10.5 6.5H9.5ZM12 3.5H19V2.5H12V3.5ZM20.5 5V12H21.5V5H20.5ZM19 13.5H17.5V14.5H19V13.5ZM10.5 6.5V5H9.5V6.5H10.5ZM20.5 12C20.5 12.8284 19.8284 13.5 19 13.5V14.5C20.3807 14.5 21.5 13.3807 21.5 12H20.5ZM19 3.5C19.8284 3.5 20.5 4.17157 20.5 5H21.5C21.5 3.61929 20.3807 2.5 19 2.5V3.5ZM12 2.5C10.6193 2.5 9.5 3.61929 9.5 5H10.5C10.5 4.17157 11.1716 3.5 12 3.5V2.5ZM5 10.5H12V9.5H5V10.5ZM13.5 12V19H14.5V12H13.5ZM12 20.5H5V21.5H12V20.5ZM3.5 19V12H2.5V19H3.5ZM5 20.5C4.17157 20.5 3.5 19.8284 3.5 19H2.5C2.5 20.3807 3.61929 21.5 5 21.5V20.5ZM13.5 19C13.5 19.8284 12.8284 20.5 12 20.5V21.5C13.3807 21.5 14.5 20.3807 14.5 19H13.5ZM12 10.5C12.8284 10.5 13.5 11.1716 13.5 12H14.5C14.5 10.6193 13.3807 9.5 12 9.5V10.5ZM5 9.5C3.61929 9.5 2.5 10.6193 2.5 12H3.5C3.5 11.1716 4.17157 10.5 5 10.5V9.5Z" fill="#707070"/>
</svg>
