<svg width="44" height="44" viewBox="0 0 44 44" fill="none" xmlns="http://www.w3.org/2000/svg">
<rect opacity="0.48" x="0.5" y="0.5" width="43" height="43" rx="13.5" fill="white" stroke="#4383FF" stroke-dasharray="2 2"/>
<g opacity="0.48" clip-path="url(#clip0_398_19110)">
<path d="M32.0007 14C30.1645 13.2072 27.9984 12.3189 26.0007 12C25.7519 12.4151 25.2012 12.5558 25.0007 13C22.8469 12.7012 21.115 12.7012 19.0007 13C18.8004 12.5559 18.2519 12.4151 18.0007 12C16.0011 12.3191 13.8379 13.2047 12.0007 14C8.345 19.0976 7.50528 24.0995 8.00075 29C10.4255 30.6708 12.6905 31.3358 15.0007 32C15.5749 31.2714 16.5651 30.8061 17.0007 30C16.1713 29.7086 14.761 29.4225 14.0007 29C14.2008 28.8632 14.8104 28.1482 15.0007 28C19.6078 29.9884 24.4486 29.9884 29.0007 28C29.1919 28.1472 29.8015 28.8622 30.0007 29C29.2392 29.4236 27.8319 29.7083 27.0007 30C27.4389 30.8094 28.4282 31.2756 29.0007 32C31.3132 31.3359 33.576 30.6729 36.0007 29C36.5822 23.3192 35.17 18.367 32.0007 14ZM17.0007 26C15.6177 26 15.0007 24.4508 15.0007 23C15.0007 21.5492 15.5935 20 17.0007 20C18.4081 20 20.0249 21.5471 20.0007 23C20.0029 24.4508 18.4081 26 17.0007 26ZM27.0007 26C25.6177 26 24.0007 24.4508 24.0007 23C24.0007 21.5492 25.5935 20 27.0007 20C28.4081 20 29.0249 21.5471 29.0007 23C29.0007 24.4508 28.4081 26 27.0007 26Z" fill="#5865F2"/>
</g>
<defs>
<clipPath id="clip0_398_19110">
<rect width="28" height="20" fill="white" transform="translate(8 12)"/>
</clipPath>
</defs>
</svg>
