<svg width="88" height="48" viewBox="0 0 88 48" fill="none" xmlns="http://www.w3.org/2000/svg">
<path d="M53.8085 18.1878C56.8798 18.1878 59.3788 15.7332 59.3788 12.7157C59.3788 9.69828 56.8798 7.24316 53.8085 7.24316C50.7371 7.24316 48.2393 9.69828 48.2393 12.7157C48.2387 15.7332 50.7371 18.1878 53.8085 18.1878ZM53.8085 8.74299C56.0379 8.74299 57.8522 10.5249 57.8522 12.7157C57.8522 14.9061 56.0385 16.688 53.8085 16.688C51.5794 16.688 49.7659 14.9061 49.7659 12.7157C49.7653 10.5249 51.5796 8.74299 53.8085 8.74299Z" fill="#6588E1"/>
<path d="M70.9806 12.2002C70.2202 11.4087 69.4268 10.6721 68.6269 10.0119C67.7398 9.27425 66.8074 8.59776 65.8581 8.003C62.1041 5.63213 58.0497 4.43042 53.8089 4.43042C52.8547 4.43042 51.893 4.49372 50.9505 4.61875C50.533 4.6742 50.2402 5.05191 50.2961 5.46258C50.3525 5.8722 50.7322 6.15784 51.155 6.10553C52.0304 5.98939 52.9234 5.93027 53.8089 5.93027C57.7526 5.93027 61.5284 7.05242 65.0343 9.26634C65.9289 9.82611 66.8053 10.4623 67.643 11.1591C68.2239 11.6383 68.8006 12.1604 69.3629 12.7154C68.8001 13.271 68.2228 13.7926 67.6403 14.2734C66.8059 14.9676 65.9299 15.6038 65.0349 16.164C65.0146 16.1766 64.9944 16.1907 64.9758 16.2053C61.4854 18.3915 57.7292 19.4996 53.8095 19.4996C49.8899 19.4996 46.1342 18.3916 42.6444 16.2059C42.6252 16.1912 42.6055 16.1771 42.5847 16.164C41.6907 15.6043 40.8137 14.9681 39.9755 14.2713C39.3946 13.7921 38.8184 13.27 38.2556 12.7149C38.8179 12.1593 39.3946 11.6378 39.9777 11.157C40.8142 10.4617 41.6906 9.82609 42.5869 9.26475C44.4873 8.06414 46.5038 7.17324 48.5806 6.61759C48.9874 6.50877 49.2276 6.09654 49.1168 5.69685C49.0066 5.29717 48.5854 5.0628 48.1797 5.17005C45.9523 5.7659 43.793 6.71849 41.7632 8.00082C40.8128 8.59616 39.8804 9.27258 38.9944 10.0092C38.1914 10.6715 37.3985 11.4085 36.6382 12.1995C36.3602 12.4883 36.3602 12.9403 36.6382 13.2296C37.3991 14.0211 38.1924 14.7577 38.9918 15.4174C39.8608 16.1403 40.7735 16.8032 41.7038 17.3901C41.7225 17.4047 41.7416 17.4183 41.7619 17.4309C45.5175 19.7992 49.5718 20.9997 53.8099 20.9997C58.048 20.9997 62.1018 19.7991 65.8585 17.4318C65.8787 17.4193 65.8979 17.4057 65.916 17.3915C66.8479 16.8041 67.7605 16.1402 68.6253 15.4203C69.4272 14.7585 70.2206 14.022 70.9815 13.2304C71.259 12.9405 71.2585 12.4895 70.9806 12.2002Z" fill="#FAA8A8"/>
<path d="M64.1504 5.48373C64.4582 5.63963 64.7639 5.80232 65.0679 5.97338C65.7223 6.3375 66.3741 6.74241 67.0046 7.1761C67.1371 7.26765 67.29 7.31159 67.4412 7.31159C67.6819 7.31159 67.9188 7.20016 68.0674 6.99195C68.3091 6.65242 68.2256 6.18474 67.8794 5.94723C67.2101 5.48634 66.5168 5.05632 65.8224 4.66971C65.5013 4.48922 65.176 4.31554 64.8474 4.15022C64.471 3.96084 64.0125 4.10628 63.8192 4.47405C63.6275 4.84235 63.7755 5.29435 64.1504 5.48373H64.1504Z" fill="#6588E1"/>
<path d="M40.1753 7.31189C40.3266 7.31189 40.4794 7.26794 40.612 7.1764C41.2435 6.74219 41.8947 6.33728 42.5517 5.97212C46.0635 4.00087 49.8511 3.00113 53.809 3.00113C56.6041 3.00113 59.3474 3.50963 61.9629 4.51301C62.3543 4.66315 62.7979 4.47325 62.9512 4.08716C63.1046 3.70109 62.9102 3.26635 62.5173 3.11569C59.7244 2.04429 56.7947 1.50122 53.8089 1.50122C49.582 1.50122 45.54 2.56738 41.7977 4.66828C41.1012 5.0554 40.4079 5.48543 39.737 5.94685C39.3909 6.18435 39.3078 6.65204 39.549 6.99157C39.6976 7.2003 39.9345 7.31173 40.1752 7.31173L40.1753 7.31189Z" fill="#FAA8A8"/>
<path d="M13.9365 44.2496H20.0436C20.4654 44.2496 20.8072 43.9137 20.8072 43.4994V24.4418C20.8072 24.0275 20.4659 23.6917 20.0436 23.6917H13.9365C13.5148 23.6917 13.1729 24.0275 13.1729 24.4418C13.1729 24.8562 13.5143 25.192 13.9365 25.192H19.28V42.7509H14.6995L14.7 27.2518C14.7 26.8375 14.3587 26.5016 13.9364 26.5016C13.5147 26.5016 13.1729 26.8375 13.1729 27.2518L13.1734 43.5009C13.1734 43.9147 13.5147 44.2506 13.9364 44.2506L13.9365 44.2496Z" fill="#FAA8A8"/>
<path d="M23.86 43.4998C23.86 43.9141 24.2013 44.25 24.6236 44.25H30.7307C31.1524 44.25 31.4943 43.9141 31.4943 43.4998L31.4938 19.5004C31.4938 19.0861 31.1524 18.7502 30.7302 18.7502H29.0603C28.6386 18.7502 28.2967 19.0861 28.2967 19.5004C28.2967 19.9148 28.638 20.2506 29.0603 20.2506H29.9666V42.75H25.3861L25.3866 20.2506H26.5794C27.0011 20.2506 27.343 19.9148 27.343 19.5004C27.343 19.0861 27.0016 18.7502 26.5794 18.7502H24.623C24.2012 18.7502 23.8594 19.0861 23.8594 19.5004L23.86 43.4998Z" fill="#FAA8A8"/>
<path d="M40.6549 41.9059C41.0766 41.9059 41.4185 41.5701 41.4185 41.1557V24C41.4185 23.5856 41.0771 23.2498 40.6549 23.2498H34.5478C34.126 23.2498 33.7842 23.5856 33.7842 24V43.4994C33.7842 43.9138 34.1255 44.2496 34.5478 44.2496H40.6549C41.0766 44.2496 41.4185 43.9138 41.4185 43.4994C41.4185 43.0851 41.0771 42.7492 40.6549 42.7492H35.3114V24.7497H39.8919V41.1555C39.8919 41.5693 40.2332 41.9052 40.655 41.9052L40.6549 41.9059Z" fill="#FAA8A8"/>
<path d="M47.5248 46.4995H23.8603C23.4385 46.4995 23.0967 46.8354 23.0967 47.2497C23.0967 47.664 23.438 47.9999 23.8603 47.9999H47.5248C47.9465 47.9999 48.2884 47.664 48.2884 47.2497C48.2879 46.8354 47.9465 46.4995 47.5248 46.4995Z" fill="#6588E1"/>
<path d="M20.8067 46.4995H10.8827C10.461 46.4995 10.1191 46.8354 10.1191 47.2497C10.1191 47.664 10.4605 47.9999 10.8827 47.9999H20.8067C21.2284 47.9999 21.5703 47.664 21.5703 47.2497C21.5698 46.8354 21.2284 46.4995 20.8067 46.4995Z" fill="#6588E1"/>
<path d="M52.8687 28.5001C52.8687 28.0858 52.5273 27.7499 52.1051 27.7499H51.3415V26.9997C51.3415 26.5854 51.0001 26.2495 50.5779 26.2495C50.1561 26.2495 49.8143 26.5854 49.8143 26.9997V27.7499H49.0507C48.629 27.7499 48.2871 28.0858 48.2871 28.5001C48.2871 28.9144 48.6284 29.2503 49.0507 29.2503H49.8143V30.0005C49.8143 30.4148 50.1556 30.7507 50.5779 30.7507C50.9996 30.7507 51.3415 30.4148 51.3415 30.0005V29.2503H52.1051C52.5273 29.2498 52.8687 28.9139 52.8687 28.5001Z" fill="#1A3989"/>
<path d="M65.8453 39.7499H65.0817V38.9997C65.0817 38.5854 64.7404 38.2495 64.3181 38.2495C63.8964 38.2495 63.5545 38.5854 63.5545 38.9997V39.7499H62.7909C62.3692 39.7499 62.0273 40.0858 62.0273 40.5001C62.0273 40.9144 62.3687 41.2503 62.7909 41.2503H63.5545V42.0005C63.5545 42.4148 63.8958 42.7507 64.3181 42.7507C64.7399 42.7507 65.0817 42.4148 65.0817 42.0005V41.2503H65.8453C66.267 41.2503 66.6089 40.9144 66.6089 40.5001C66.6089 40.0852 66.267 39.7499 65.8453 39.7499Z" fill="#1A3989"/>
<path d="M30.7314 6.75053H31.495V7.50073C31.495 7.91506 31.8363 8.25092 32.2585 8.25092C32.6803 8.25092 33.0221 7.91506 33.0221 7.50073V6.75053H33.7857C34.2075 6.75053 34.5493 6.41468 34.5493 6.00034C34.5493 5.586 34.208 5.25014 33.7857 5.25014H33.0221V4.49995C33.0221 4.08561 32.6808 3.74976 32.2585 3.74976C31.8368 3.74976 31.495 4.08561 31.495 4.49995V5.25014H30.7314C30.3096 5.25014 29.9678 5.586 29.9678 6.00034C29.9683 6.41468 30.3096 6.75053 30.7314 6.75053Z" fill="#6588E1"/>
<path d="M14.7001 3.00077H15.4637V3.75097C15.4637 4.16531 15.805 4.50116 16.2273 4.50116C16.649 4.50116 16.9909 4.16531 16.9909 3.75097V3.00077H17.7545C18.1762 3.00077 18.5181 2.66492 18.5181 2.25058C18.5181 1.83624 18.1767 1.50039 17.7545 1.50039H16.9909V0.750194C16.9909 0.335857 16.6496 0 16.2273 0C15.8056 0 15.4637 0.335857 15.4637 0.750194V1.50039H14.7001C14.2784 1.50039 13.9365 1.83624 13.9365 2.25058C13.9365 2.66492 14.2778 3.00077 14.7001 3.00077Z" fill="#1A3989"/>
<path d="M55.1587 34.5C53.4745 34.5 52.1055 35.8461 52.1055 37.4997C52.1055 39.1539 53.475 40.4993 55.1587 40.4993C56.8429 40.4993 58.2119 39.1532 58.2119 37.4997C58.2119 35.8461 56.8423 34.5 55.1587 34.5ZM55.1587 39.0001C54.3168 39.0001 53.6321 38.3274 53.6321 37.5003C53.6321 36.6733 54.3174 36.0005 55.1587 36.0005C56.0005 36.0005 56.6853 36.6733 56.6853 37.5003C56.6853 38.3274 56 39.0001 55.1587 39.0001Z" fill="#6588E1"/>
<path d="M20.8071 10.5005C19.1229 10.5005 17.7539 11.8466 17.7539 13.5001C17.7539 15.1544 19.1235 16.4998 20.8071 16.4998C22.4913 16.4998 23.8603 15.1537 23.8603 13.5001C23.8603 11.8466 22.4908 10.5005 20.8071 10.5005ZM20.8071 15.0006C19.9653 15.0006 19.2805 14.3279 19.2805 13.5008C19.2805 12.6737 19.9658 12.001 20.8071 12.001C21.649 12.001 22.3337 12.6737 22.3337 13.5008C22.3337 14.3279 21.6484 15.0006 20.8071 15.0006Z" fill="#1A3989"/>
</svg>
