<svg width="190" height="328" viewBox="0 0 190 328" fill="none" xmlns="http://www.w3.org/2000/svg">
<g opacity="0.24">
<path d="M49.276 131.839C63.8033 130.698 73.1635 146.91 64.9117 158.921C61.3991 164.033 60.7115 170.576 63.0843 176.307C68.6586 189.771 56.1323 203.683 42.1596 199.546C36.2117 197.786 29.7768 199.153 25.0593 203.181C13.9771 212.643 -3.12482 205.029 -3.50865 190.462C-3.67203 184.261 -6.96136 178.564 -12.2498 175.322C-24.6733 167.706 -22.7165 149.088 -8.98102 144.221C-3.13412 142.15 1.26786 137.261 2.71691 131.23C6.12101 117.061 24.4323 113.169 33.3051 124.728C37.0821 129.648 43.092 132.324 49.276 131.839Z" stroke="#6588E1"/>
<path d="M51.3008 129.076C67.1093 127.834 77.295 145.476 68.3155 158.546C64.51 164.085 63.765 171.173 66.3357 177.382C72.4016 192.033 58.7706 207.172 43.5657 202.671C37.1219 200.763 30.1505 202.245 25.0397 206.608C12.9801 216.905 -5.62998 208.619 -6.04766 192.768C-6.22467 186.05 -9.78824 179.877 -15.5176 176.365C-29.0367 168.078 -26.9073 147.818 -11.9606 142.522C-5.62618 140.278 -0.857187 134.981 0.712689 128.447C4.41699 113.029 24.3431 108.793 33.9984 121.372C38.0903 126.703 44.6012 129.602 51.3008 129.076Z" stroke="#6588E1"/>
<path d="M53.3296 126.312C70.4193 124.97 81.4303 144.042 71.7232 158.171C67.6248 164.136 66.8225 171.77 69.591 178.457C76.1485 194.295 61.4128 210.661 44.9757 205.795C38.036 203.741 30.528 205.336 25.0239 210.036C11.987 221.167 -8.13123 212.209 -8.58276 195.073C-8.77339 187.838 -12.6112 181.191 -18.7815 177.408C-33.3962 168.449 -31.0943 146.548 -14.9362 140.823C-8.11432 138.406 -2.97831 132.702 -1.28763 125.665C2.71689 108.997 24.2578 104.418 34.6956 118.016C39.1024 123.757 46.1144 126.879 53.3296 126.312Z" stroke="#6588E1"/>
<path d="M56.0333 122.628C74.8312 121.152 86.9429 142.13 76.2654 157.671C71.7766 164.205 70.8978 172.566 73.9301 179.89C81.1431 197.312 64.9345 215.313 46.8543 209.961C39.2534 207.711 31.0302 209.458 25.0016 214.606C10.6616 226.849 -11.4675 216.997 -11.9642 198.147C-12.173 190.223 -16.3765 182.942 -23.1347 178.8C-39.2102 168.945 -36.6782 144.854 -18.905 138.557C-11.4332 135.91 -5.80779 129.662 -3.95601 121.955C0.448763 103.621 24.1428 98.5842 35.6239 113.542C40.4506 119.83 48.1307 123.249 56.0333 122.628Z" stroke="#6588E1"/>
<path d="M58.4679 119.313C78.8031 117.716 91.9053 140.409 80.3546 157.222C75.5144 164.267 74.5668 173.282 77.8365 181.18C85.6393 200.026 68.1051 219.5 48.5463 213.71C40.3503 211.283 31.4833 213.168 24.9827 218.718C9.46993 231.963 -14.4691 221.305 -15.0063 200.914C-15.2315 192.37 -19.7641 184.519 -27.0514 180.052C-44.4416 169.391 -41.7025 143.33 -22.4758 136.518C-14.4189 133.663 -8.35315 126.927 -6.35638 118.615C-1.59137 98.782 24.0405 93.3338 36.4605 109.514C41.6651 116.295 49.9465 119.982 58.4679 119.313Z" stroke="#6588E1"/>
<path d="M61.0351 115.813C82.993 114.088 97.1408 138.593 84.6684 156.747C79.4572 164.332 78.437 174.039 81.9573 182.541C90.3828 202.892 71.4493 223.919 50.3297 217.667C41.5056 215.055 31.9589 217.084 24.9602 223.06C8.20944 237.361 -17.6399 225.853 -18.2201 203.835C-18.4625 194.635 -23.3424 186.183 -31.1882 181.373C-49.9662 169.862 -47.0085 141.721 -26.2475 134.365C-17.5732 131.292 -11.0425 124.039 -8.89271 115.091C-3.74744 93.6747 23.9299 87.7918 37.341 105.264C42.9445 112.564 51.8606 116.533 61.0351 115.813Z" stroke="#6588E1"/>
<path d="M63.6062 112.313C87.1869 110.461 102.38 136.777 88.9861 156.272C83.4039 164.397 82.3111 174.795 86.082 183.903C95.1302 205.757 74.7974 228.339 52.117 221.625C42.6647 218.826 32.4385 221 24.9415 227.401C6.95288 242.76 -20.8068 230.4 -21.4299 206.755C-21.6895 196.901 -26.9169 187.847 -35.3212 182.695C-55.487 170.333 -52.3107 140.112 -30.0153 132.213C-20.7235 128.921 -13.728 121.151 -11.4251 111.566C-5.89961 88.5675 23.8232 82.2497 38.2255 101.013C44.2278 108.833 53.7786 113.085 63.6062 112.313Z" stroke="#6588E1"/>
<path d="M65.9041 109.182C90.9368 107.216 107.066 135.152 92.8468 155.848C86.9327 164.456 85.7749 175.471 89.77 185.121C99.3753 208.321 77.7907 232.293 53.7137 225.166C43.6994 222.201 32.8651 224.504 24.9224 231.285C5.82607 247.59 -23.6429 234.469 -24.3043 209.368C-24.5794 198.928 -30.1176 189.336 -39.0216 183.877C-60.4291 170.754 -57.0572 138.673 -33.389 130.287C-23.5447 126.799 -16.1332 118.568 -13.6935 108.413C-7.82771 83.9978 23.7252 77.291 39.0143 97.2095C45.3735 105.494 55.4923 109.999 65.9041 109.182Z" stroke="#6588E1"/>
</g>
</svg>
