<svg width="68" height="48" viewBox="0 0 68 48" fill="none" xmlns="http://www.w3.org/2000/svg">
<path d="M48.5953 18.1878C52.0032 18.1878 54.7759 15.7333 54.7759 12.7158C54.7759 9.69834 52.0032 7.24323 48.5953 7.24323C45.1874 7.24323 42.4159 9.69834 42.4159 12.7158C42.4153 15.7333 45.1874 18.1878 48.5953 18.1878ZM48.5953 8.74305C51.069 8.74305 53.082 10.5249 53.082 12.7158C53.082 14.9061 51.0696 16.688 48.5953 16.688C46.122 16.688 44.1098 14.9061 44.1098 12.7158C44.1092 10.5249 46.1222 8.74305 48.5953 8.74305Z" fill="#6588E1"/>
<path d="M67.6487 12.2001C66.805 11.4086 65.9247 10.672 65.0372 10.0118C64.0529 9.27412 63.0183 8.59764 61.965 8.00288C57.7996 5.63201 53.3011 4.4303 48.5956 4.4303C47.5369 4.4303 46.4698 4.4936 45.424 4.61862C44.9608 4.67408 44.6359 5.05179 44.6979 5.46246C44.7605 5.87208 45.1818 6.15772 45.6509 6.10541C46.6222 5.98927 47.6131 5.93015 48.5956 5.93015C52.9714 5.93015 57.1609 7.05229 61.0509 9.26622C62.0435 9.82599 63.016 10.4621 63.9455 11.159C64.59 11.6382 65.2299 12.1603 65.8538 12.7153C65.2293 13.2709 64.5888 13.7925 63.9424 14.2733C63.0166 14.9675 62.0447 15.6036 61.0516 16.1639C61.0291 16.1764 61.0067 16.1906 60.986 16.2052C57.1132 18.3914 52.9454 19.4995 48.5963 19.4995C44.2472 19.4995 40.0801 18.3915 36.2079 16.2058C36.1866 16.1911 36.1647 16.177 36.1417 16.1639C35.1497 15.6041 34.1766 14.968 33.2466 14.2711C32.602 13.7919 31.9627 13.2698 31.3382 12.7148C31.9621 12.1592 32.602 11.6376 33.249 11.1569C34.1772 10.4616 35.1496 9.82597 36.1441 9.26463C38.2527 8.06401 40.4902 7.17312 42.7945 6.61747C43.2459 6.50865 43.5124 6.09642 43.3895 5.69673C43.2672 5.29705 42.7998 5.06268 42.3496 5.16992C39.8782 5.76578 37.4823 6.71837 35.2302 8.0007C34.1756 8.59603 33.1411 9.27246 32.158 10.009C31.267 10.6713 30.3873 11.4084 29.5436 12.1994C29.2352 12.4881 29.2352 12.9401 29.5436 13.2294C30.3879 14.021 31.2681 14.7575 32.1551 15.4172C33.1193 16.1402 34.132 16.8031 35.1642 17.39C35.1849 17.4046 35.2062 17.4182 35.2286 17.4308C39.3958 19.7991 43.8943 20.9996 48.5968 20.9996C53.2992 20.9996 57.7971 19.799 61.9655 17.4317C61.9879 17.4191 62.0092 17.4055 62.0293 17.3914C63.0632 16.8039 64.0759 16.1401 65.0354 15.4202C65.9252 14.7584 66.8055 14.0219 67.6498 13.2302C67.9576 12.9404 67.9571 12.4894 67.6487 12.2001Z" fill="#FAA8A8"/>
<path d="M60.0708 5.48379C60.4123 5.63969 60.7514 5.80238 61.0888 5.97344C61.8149 6.33756 62.5381 6.74247 63.2376 7.17616C63.3847 7.26771 63.5543 7.31165 63.7221 7.31165C63.9892 7.31165 64.2521 7.20022 64.4169 6.99201C64.6851 6.65248 64.5924 6.1848 64.2084 5.94729C63.4657 5.4864 62.6964 5.05638 61.926 4.66977C61.5697 4.48928 61.2087 4.3156 60.8442 4.15028C60.4265 3.9609 59.9177 4.10634 59.7033 4.47411C59.4906 4.84241 59.6548 5.29441 60.0708 5.48379H60.0708Z" fill="#6588E1"/>
<path d="M33.4689 7.31183C33.6367 7.31183 33.8063 7.26788 33.9534 7.17634C34.6541 6.74212 35.3767 6.33721 36.1057 5.97206C40.0022 4.00081 44.2048 3.00107 48.5964 3.00107C51.6976 3.00107 54.7416 3.50957 57.6437 4.51294C58.0779 4.66309 58.5701 4.47318 58.7402 4.0871C58.9104 3.70102 58.6947 3.26629 58.2587 3.11562C55.1599 2.04423 51.9092 1.50116 48.5963 1.50116C43.9063 1.50116 39.4213 2.56732 35.269 4.66822C34.4962 5.05534 33.727 5.48537 32.9825 5.94678C32.5985 6.18429 32.5063 6.65198 32.774 6.99151C32.9388 7.20024 33.2017 7.31167 33.4688 7.31167L33.4689 7.31183Z" fill="#FAA8A8"/>
<path d="M4.35493 44.2497H11.1312C11.5991 44.2497 11.9784 43.9138 11.9784 43.4995V24.442C11.9784 24.0276 11.5997 23.6918 11.1312 23.6918H4.35493C3.88698 23.6918 3.50767 24.0276 3.50767 24.442C3.50767 24.8563 3.88639 25.1922 4.35493 25.1922H10.2839V42.7511H5.20148L5.20207 27.2519C5.20207 26.8376 4.82336 26.5017 4.35482 26.5017C3.88688 26.5017 3.50757 26.8376 3.50757 27.2519L3.50816 43.501C3.50816 43.9148 3.88688 44.2507 4.35482 44.2507L4.35493 44.2497Z" fill="#FAA8A8"/>
<path d="M15.3656 43.4997C15.3656 43.914 15.7443 44.2499 16.2128 44.2499H22.9891C23.457 44.2499 23.8363 43.914 23.8363 43.4997L23.8357 19.5003C23.8357 19.086 23.457 18.7501 22.9885 18.7501H21.1356C20.6677 18.7501 20.2884 19.086 20.2884 19.5003C20.2884 19.9147 20.6671 20.2505 21.1356 20.2505H22.1412V42.7499H17.0588L17.0594 20.2505H18.3829C18.8508 20.2505 19.2301 19.9147 19.2301 19.5003C19.2301 19.086 18.8514 18.7501 18.3829 18.7501H16.2121C15.7442 18.7501 15.3649 19.086 15.3649 19.5003L15.3656 43.4997Z" fill="#FAA8A8"/>
<path d="M34.0009 41.9059C34.4689 41.9059 34.8482 41.5701 34.8482 41.1557V24C34.8482 23.5856 34.4695 23.2498 34.0009 23.2498H27.2247C26.7568 23.2498 26.3774 23.5856 26.3774 24V43.4994C26.3774 43.9138 26.7562 44.2496 27.2247 44.2496H34.0009C34.4689 44.2496 34.8482 43.9138 34.8482 43.4994C34.8482 43.0851 34.4695 42.7492 34.0009 42.7492H28.072V24.7497H33.1544V41.1555C33.1544 41.5693 33.5331 41.9052 34.001 41.9052L34.0009 41.9059Z" fill="#FAA8A8"/>
<path d="M41.6235 46.4996H15.3662C14.8982 46.4996 14.5189 46.8355 14.5189 47.2498C14.5189 47.6642 14.8976 48 15.3662 48H41.6235C42.0915 48 42.4708 47.6642 42.4708 47.2498C42.4702 46.8355 42.0915 46.4996 41.6235 46.4996Z" fill="#6588E1"/>
<path d="M11.9779 46.4996H0.966638C0.498695 46.4996 0.119385 46.8355 0.119385 47.2498C0.119385 47.6642 0.498105 48 0.966638 48H11.9779C12.4459 48 12.8252 47.6642 12.8252 47.2498C12.8246 46.8355 12.4459 46.4996 11.9779 46.4996Z" fill="#6588E1"/>
<path d="M47.5524 28.5001C47.5524 28.0858 47.1737 27.7499 46.7051 27.7499H45.8579V26.9997C45.8579 26.5854 45.4792 26.2495 45.0106 26.2495C44.5427 26.2495 44.1634 26.5854 44.1634 26.9997V27.7499H43.3161C42.8482 27.7499 42.4689 28.0858 42.4689 28.5001C42.4689 28.9144 42.8476 29.2503 43.3161 29.2503H44.1634V30.0005C44.1634 30.4148 44.5421 30.7507 45.0106 30.7507C45.4786 30.7507 45.8579 30.4148 45.8579 30.0005V29.2503H46.7051C47.1737 29.2498 47.5524 28.9139 47.5524 28.5001Z" fill="#1A3989"/>
<path d="M61.9517 39.7498H61.1045V38.9996C61.1045 38.5852 60.7257 38.2494 60.2572 38.2494C59.7893 38.2494 59.41 38.5852 59.41 38.9996V39.7498H58.5627C58.0948 39.7498 57.7155 40.0856 57.7155 40.5C57.7155 40.9143 58.0942 41.2502 58.5627 41.2502H59.41V42.0004C59.41 42.4147 59.7887 42.7506 60.2572 42.7506C60.7252 42.7506 61.1045 42.4147 61.1045 42.0004V41.2502H61.9517C62.4197 41.2502 62.799 40.9143 62.799 40.5C62.799 40.0851 62.4197 39.7498 61.9517 39.7498Z" fill="#1A3989"/>
<path d="M22.9895 6.75065H23.8367V7.50085C23.8367 7.91519 24.2154 8.25104 24.684 8.25104C25.1519 8.25104 25.5312 7.91519 25.5312 7.50085V6.75065H26.3785C26.8464 6.75065 27.2257 6.4148 27.2257 6.00046C27.2257 5.58612 26.847 5.25027 26.3785 5.25027H25.5312V4.50007C25.5312 4.08574 25.1525 3.74988 24.684 3.74988C24.216 3.74988 23.8367 4.08574 23.8367 4.50007V5.25027H22.9895C22.5215 5.25027 22.1422 5.58612 22.1422 6.00046C22.1428 6.4148 22.5215 6.75065 22.9895 6.75065Z" fill="#6588E1"/>
<path d="M5.20175 3.00077H6.049V3.75097C6.049 4.16531 6.42772 4.50116 6.89625 4.50116C7.3642 4.50116 7.7435 4.16531 7.7435 3.75097V3.00077H8.59076C9.0587 3.00077 9.43801 2.66492 9.43801 2.25058C9.43801 1.83624 9.05929 1.50039 8.59076 1.50039H7.7435V0.750194C7.7435 0.335857 7.36479 0 6.89625 0C6.42831 0 6.049 0.335857 6.049 0.750194V1.50039H5.20175C4.7338 1.50039 4.35449 1.83624 4.35449 2.25058C4.35449 2.66492 4.73321 3.00077 5.20175 3.00077Z" fill="#1A3989"/>
<path d="M50.0928 34.4999C48.2241 34.4999 46.7051 35.846 46.7051 37.4995C46.7051 39.1538 48.2247 40.4992 50.0928 40.4992C51.9615 40.4992 53.4806 39.1531 53.4806 37.4995C53.4806 35.846 51.9609 34.4999 50.0928 34.4999ZM50.0928 39C49.1587 39 48.3989 38.3273 48.3989 37.5002C48.3989 36.6731 49.1593 36.0004 50.0928 36.0004C51.0269 36.0004 51.7867 36.6731 51.7867 37.5002C51.7867 38.3273 51.0263 39 50.0928 39Z" fill="#6588E1"/>
<path d="M11.9786 10.5005C10.1098 10.5005 8.59082 11.8466 8.59082 13.5002C8.59082 15.1544 10.1104 16.4999 11.9786 16.4999C13.8473 16.4999 15.3663 15.1538 15.3663 13.5002C15.3663 11.8466 13.8467 10.5005 11.9786 10.5005ZM11.9786 15.0007C11.0445 15.0007 10.2847 14.3279 10.2847 13.5009C10.2847 12.6738 11.0451 12.001 11.9786 12.001C12.9127 12.001 13.6724 12.6738 13.6724 13.5009C13.6724 14.328 12.912 15.0007 11.9786 15.0007Z" fill="#1A3989"/>
</svg>
