<svg width="226" height="55" viewBox="0 0 226 55" fill="none" xmlns="http://www.w3.org/2000/svg">
<rect x="0.269531" width="225" height="55" rx="8" fill="white"/>
<path d="M32.6932 7.5L12.2695 7.58586L23.8019 24.5L44.2695 24.4571L32.6932 7.5Z" fill="#7C8EBE"/>
<path d="M42.7178 7.5L39.2695 12.6476L47.1575 24.5H53.0195L64.2695 7.5H42.7178Z" fill="#7C8EBE"/>
<path d="M52.2695 26.5H25.2695L38.7695 47.5L52.2695 26.5Z" fill="#7C8EBE"/>
<path d="M74.0683 13.408H78.8043V36H74.0683V13.408ZM93.3255 19.712C95.2029 19.712 96.6429 20.256 97.6455 21.344C98.6695 22.4107 99.1815 23.968 99.1815 26.016V36H94.7655V26.944C94.7655 25.7067 94.5095 24.8107 93.9975 24.256C93.5069 23.68 92.7495 23.392 91.7255 23.392C90.6589 23.392 89.8375 23.712 89.2615 24.352C88.7069 24.9707 88.4295 25.888 88.4295 27.104V36H84.0135V20.16H88.4295V22.08C89.5389 20.5013 91.1709 19.712 93.3255 19.712ZM101.835 20.16H106.635L110.411 30.976L114.155 20.16H118.923L112.875 36H107.915L101.835 20.16ZM135.655 22.976C136.081 23.9573 136.295 25.2373 136.295 26.816V36H131.847V34.208C130.716 35.68 128.935 36.416 126.503 36.416C125.18 36.416 124.049 36.192 123.111 35.744C122.172 35.2747 121.511 34.6027 121.127 33.728C120.849 33.152 120.711 32.4267 120.711 31.552C120.711 30.7413 120.839 30.0373 121.095 29.44C121.628 28.2667 122.556 27.4667 123.879 27.04C125.201 26.592 126.908 26.368 128.999 26.368H131.847V26.048C131.847 25.6 131.825 25.2587 131.783 25.024C131.74 24.768 131.665 24.512 131.559 24.256C131.153 23.3813 130.236 22.944 128.807 22.944C128.081 22.944 127.484 23.0507 127.015 23.264C126.567 23.456 126.236 23.776 126.023 24.224C125.959 24.3947 125.905 24.5653 125.863 24.736C125.841 24.8853 125.82 25.0453 125.799 25.216H121.319C121.319 24.4053 121.468 23.648 121.767 22.944C122.257 21.856 123.111 21.0453 124.327 20.512C125.543 19.9787 127.025 19.712 128.775 19.712C130.609 19.712 132.081 19.9787 133.191 20.512C134.321 21.0453 135.143 21.8667 135.655 22.976ZM128.071 33.088C128.945 33.088 129.671 32.9387 130.247 32.64C130.823 32.32 131.249 31.872 131.527 31.296C131.74 30.8053 131.847 30.1547 131.847 29.344V29.12H129.319C128.295 29.12 127.452 29.2053 126.791 29.376C126.151 29.5467 125.724 29.856 125.511 30.304C125.404 30.56 125.351 30.8267 125.351 31.104C125.351 31.4027 125.404 31.6907 125.511 31.968C125.681 32.352 125.991 32.64 126.439 32.832C126.908 33.0027 127.452 33.088 128.071 33.088ZM141.086 20.16H145.47V21.408C145.833 20.832 146.217 20.416 146.622 20.16C147.049 19.904 147.539 19.776 148.094 19.776C148.926 19.776 149.587 20.0213 150.078 20.512C150.569 21.0027 150.814 21.6533 150.814 22.464C150.814 23.2533 150.569 23.904 150.078 24.416C149.587 24.9067 148.947 25.152 148.158 25.152C147.689 25.152 147.251 25.0453 146.846 24.832C146.462 24.5973 146.174 24.2987 145.982 23.936C145.79 24.0213 145.662 24.16 145.598 24.352C145.534 24.5227 145.502 24.8533 145.502 25.344V36H141.086V20.16ZM156.777 18.176C156.052 18.176 155.455 17.9627 154.985 17.536C154.516 17.088 154.281 16.5227 154.281 15.84C154.281 15.1573 154.516 14.6027 154.985 14.176C155.455 13.728 156.052 13.504 156.777 13.504C157.481 13.504 158.057 13.728 158.505 14.176C158.975 14.6027 159.209 15.1573 159.209 15.84C159.209 16.5227 158.975 17.088 158.505 17.536C158.057 17.9627 157.481 18.176 156.777 18.176ZM154.537 20.16H158.953V36H154.537V20.16ZM178.071 22.976C178.497 23.9573 178.711 25.2373 178.711 26.816V36H174.263V34.208C173.132 35.68 171.351 36.416 168.919 36.416C167.596 36.416 166.465 36.192 165.527 35.744C164.588 35.2747 163.927 34.6027 163.543 33.728C163.265 33.152 163.127 32.4267 163.127 31.552C163.127 30.7413 163.255 30.0373 163.511 29.44C164.044 28.2667 164.972 27.4667 166.295 27.04C167.617 26.592 169.324 26.368 171.415 26.368H174.263V26.048C174.263 25.6 174.241 25.2587 174.199 25.024C174.156 24.768 174.081 24.512 173.975 24.256C173.569 23.3813 172.652 22.944 171.223 22.944C170.497 22.944 169.9 23.0507 169.431 23.264C168.983 23.456 168.652 23.776 168.439 24.224C168.375 24.3947 168.321 24.5653 168.279 24.736C168.257 24.8853 168.236 25.0453 168.215 25.216H163.735C163.735 24.4053 163.884 23.648 164.183 22.944C164.673 21.856 165.527 21.0453 166.743 20.512C167.959 19.9787 169.441 19.712 171.191 19.712C173.025 19.712 174.497 19.9787 175.607 20.512C176.737 21.0453 177.559 21.8667 178.071 22.976ZM170.487 33.088C171.361 33.088 172.087 32.9387 172.663 32.64C173.239 32.32 173.665 31.872 173.943 31.296C174.156 30.8053 174.263 30.1547 174.263 29.344V29.12H171.735C170.711 29.12 169.868 29.2053 169.207 29.376C168.567 29.5467 168.14 29.856 167.927 30.304C167.82 30.56 167.767 30.8267 167.767 31.104C167.767 31.4027 167.82 31.6907 167.927 31.968C168.097 32.352 168.407 32.64 168.855 32.832C169.324 33.0027 169.868 33.088 170.487 33.088ZM192.814 19.712C194.692 19.712 196.132 20.256 197.134 21.344C198.158 22.4107 198.67 23.968 198.67 26.016V36H194.254V26.944C194.254 25.7067 193.998 24.8107 193.486 24.256C192.996 23.68 192.238 23.392 191.214 23.392C190.148 23.392 189.326 23.712 188.75 24.352C188.196 24.9707 187.918 25.888 187.918 27.104V36H183.502V20.16H187.918V22.08C189.028 20.5013 190.66 19.712 192.814 19.712ZM209.385 36.288C208.169 36.288 207.177 36.1067 206.409 35.744C205.662 35.3813 205.107 34.816 204.745 34.048C204.382 33.28 204.201 32.256 204.201 30.976V23.712H201.929V20.16H204.201V16.384H208.617V20.16H212.713V23.712H208.617V30.208C208.617 31.0613 208.798 31.68 209.161 32.064C209.523 32.448 210.078 32.64 210.825 32.64C211.422 32.64 212.019 32.5653 212.617 32.416V35.936C211.358 36.1707 210.281 36.288 209.385 36.288Z" fill="#7C8EBE"/>
</svg>
