<svg width="20" height="20" viewBox="0 0 20 20" fill="none" xmlns="http://www.w3.org/2000/svg">
<path opacity="0.88" d="M2.66098 13.5947C2.98944 13.3424 3.05113 12.8715 2.79877 12.5431C2.54641 12.2146 2.07556 12.1529 1.7471 12.4053L2.66098 13.5947ZM18.2529 12.4053C17.9244 12.1529 17.4536 12.2146 17.2012 12.5431C16.9489 12.8715 17.0106 13.3424 17.339 13.5947L18.2529 12.4053ZM10 15L9.6813 15.6789C9.8832 15.7737 10.1168 15.7737 10.3187 15.6789L10 15ZM10.75 4.5C10.75 4.08579 10.4142 3.75 10 3.75C9.58579 3.75 9.25 4.08579 9.25 4.5H10.75ZM9.25 9.5C9.25 9.91421 9.58579 10.25 10 10.25C10.4142 10.25 10.75 9.91421 10.75 9.5H9.25ZM7.5 6.25C7.08579 6.25 6.75 6.58579 6.75 7C6.75 7.41421 7.08579 7.75 7.5 7.75V6.25ZM12.5 7.75C12.9142 7.75 13.25 7.41421 13.25 7C13.25 6.58579 12.9142 6.25 12.5 6.25V7.75ZM18.25 15C18.25 15.3082 18.1126 15.6584 17.7494 16.0399C17.3826 16.4254 16.8164 16.8066 16.0594 17.1431C14.5471 17.8152 12.4055 18.25 10 18.25V19.75C12.5651 19.75 14.9234 19.2894 16.6686 18.5138C17.5402 18.1264 18.292 17.6457 18.836 17.074C19.3838 16.4985 19.75 15.7963 19.75 15H18.25ZM10 18.25C7.59454 18.25 5.45286 17.8152 3.94064 17.1431C3.18359 16.8066 2.61737 16.4254 2.25056 16.0399C1.88743 15.6584 1.75 15.3082 1.75 15H0.25C0.25 15.7963 0.616245 16.4985 1.16397 17.074C1.70801 17.6457 2.45981 18.1264 3.33143 18.5138C5.07658 19.2894 7.4349 19.75 10 19.75V18.25ZM1.75 15C1.75 14.5968 1.99177 14.1089 2.66098 13.5947L1.7471 12.4053C0.884775 13.0678 0.25 13.9461 0.25 15H1.75ZM17.339 13.5947C18.0082 14.1089 18.25 14.5968 18.25 15H19.75C19.75 13.9461 19.1152 13.0678 18.2529 12.4053L17.339 13.5947ZM15.25 7.22222C15.25 10.2373 12.8751 12.8218 9.6813 14.3211L10.3187 15.6789C13.7523 14.0671 16.75 11.08 16.75 7.22222H15.25ZM10.3187 14.3211C7.12486 12.8218 4.75 10.2373 4.75 7.22222H3.25C3.25 11.08 6.24773 14.0671 9.6813 15.6789L10.3187 14.3211ZM4.75 7.22222C4.75 4.17405 7.12598 1.75 10 1.75V0.25C6.2466 0.25 3.25 3.39751 3.25 7.22222H4.75ZM10 1.75C12.874 1.75 15.25 4.17405 15.25 7.22222H16.75C16.75 3.39751 13.7534 0.25 10 0.25V1.75ZM9.25 4.5V9.5H10.75V4.5H9.25ZM7.5 7.75H12.5V6.25H7.5V7.75Z" fill="#EEF2FC"/>
</svg>
