<svg width="24" height="24" viewBox="0 0 24 24" fill="none" xmlns="http://www.w3.org/2000/svg">
<path d="M19.0784 6.41555C17.7787 5.85444 16.2456 5.22574 14.8317 5C14.6556 5.2938 14.2658 5.39341 14.1239 5.70777C12.5995 5.49627 11.3737 5.49627 9.87729 5.70777C9.73547 5.39348 9.34725 5.2938 9.16951 5C7.75425 5.22584 6.22314 5.85263 4.92286 6.41555C2.33542 10.0235 1.74109 13.5637 2.09177 17.0322C3.80793 18.2147 5.41107 18.6854 7.04619 19.1555C7.45256 18.6398 8.15338 18.3105 8.46174 17.7399C7.87466 17.5337 6.87653 17.3312 6.33841 17.0322C6.48002 16.9353 6.91145 16.4293 7.04619 16.3244C10.307 17.7317 13.7331 17.7317 16.955 16.3244C17.0904 16.4286 17.5218 16.9346 17.6628 17.0322C17.1238 17.332 16.1277 17.5335 15.5395 17.7399C15.8496 18.3128 16.5498 18.6428 16.955 19.1555C18.5917 18.6855 20.1933 18.2162 21.9095 17.0322C22.321 13.0114 21.3215 9.50639 19.0784 6.41555ZM8.46174 14.9088C7.48285 14.9088 7.04619 13.8123 7.04619 12.7855C7.04619 11.7587 7.46574 10.6622 8.46174 10.6622C9.45781 10.6622 10.6022 11.7572 10.5851 12.7855C10.5866 13.8123 9.45781 14.9088 8.46174 14.9088ZM15.5395 14.9088C14.5606 14.9088 13.4162 13.8123 13.4162 12.7855C13.4162 11.7587 14.5435 10.6622 15.5395 10.6622C16.5356 10.6622 16.9721 11.7572 16.955 12.7855C16.955 13.8123 16.5356 14.9088 15.5395 14.9088Z" fill="#5865F2"/>
</svg>
