<svg width="24" height="24" viewBox="0 0 24 24" fill="none" xmlns="http://www.w3.org/2000/svg">
<path d="M22 5.53846C21.2511 5.8682 20.5057 6.21175 19.6923 6.30769C20.5396 5.803 20.9244 4.95225 21.2308 4C20.4253 4.47502 19.842 5.35858 18.9231 5.53846C18.1746 4.74593 17.0264 4 15.8462 4C13.5801 4 12 5.59412 12 7.84615C12 8.16582 11.9301 9.08607 12 9.38462C8.58984 9.21449 5.56229 7.2365 3.53846 4.76923C3.18534 5.37153 2.76923 6.32966 2.76923 7.07692C2.76923 8.49178 3.20675 9.4225 4.30769 10.1538C3.65609 10.1336 3.33896 9.69955 2.76923 9.38462C2.76923 9.36746 2.769 9.4017 2.76923 9.38462C2.76923 11.3605 3.96912 13.6254 5.84615 14C5.24193 14.1633 4.92264 14.1173 4.30769 14C4.8298 15.6202 6.35838 16.2747 8.15385 16.3077C6.74955 17.4014 4.69157 18.6154 2.76923 18.6154C2.43798 18.6154 2.32102 18.653 2 18.6154C3.81586 19.7725 5.83666 20.1538 8.15385 20.1538C15.7013 20.1538 19.6923 14.0043 19.6923 8.61538C19.6923 8.43851 19.7003 8.02101 19.6923 7.84615C20.4956 7.269 21.4492 6.35748 22 5.53846Z" fill="#55ACEE"/>
</svg>
