<svg width="320" height="226" viewBox="0 0 320 226" fill="none" xmlns="http://www.w3.org/2000/svg">
  <path
    d="M0 64C0 33.8301 0 18.7452 9.37258 9.37258C18.7452 0 33.8301 0 64 0H256C286.17 0 301.255 0 310.627 9.37258C320 18.7452 320 33.8301 320 64V226H0V64Z"
    fill="#C5E0FF" />
  <path
    d="M29.2063 202.12L0 226H320V104.462L274.921 121.57L237.46 126.204L199.365 150.083L144.762 165.766L88.8889 172.894L71.746 193.923L29.2063 202.12Z"
    fill="#A7B9E4" />
  <path
    d="M174.603 194.621L160 226H320V66.2935L297.46 88.7742L278.73 94.8627L259.683 126.242L232.381 146.849L204.444 156.216L195.873 183.849L174.603 194.621Z"
    fill="#6F90E2" />
  <path
    d="M128.883 210.212L109.688 226H320.002V145.644L290.374 156.955L265.754 160.019L240.717 175.807L204.83 186.176L168.108 190.889L156.841 204.792L128.883 210.212Z"
    fill="#7C9EF7" />
</svg>
