<svg width="167" height="40" viewBox="0 0 167 40" fill="none" xmlns="http://www.w3.org/2000/svg">
<path d="M7.60275 29.9765C7.75985 29.8198 7.91693 29.7154 8.07403 29.6109C8.23112 29.5064 8.44057 29.5064 8.65003 29.5064H41.9533C42.1103 29.5064 42.2151 29.5586 42.3722 29.6109C42.4769 29.6631 42.5816 29.8198 42.634 29.9243C42.6863 30.0288 42.6863 30.1855 42.6863 30.3422C42.6863 30.4989 42.5816 30.6033 42.5293 30.7078L35.4602 38.543C35.3031 38.6997 35.146 38.8042 34.9889 38.9087C34.8318 39.0131 34.6224 39.0131 34.4129 39.0131H1.05731C0.900218 39.0131 0.795491 38.9609 0.6384 38.9087C0.533673 38.8564 0.428946 38.6997 0.376583 38.5952C0.324219 38.4908 0.324219 38.3341 0.324219 38.1774C0.324219 38.0207 0.428945 37.9162 0.481309 37.8117L7.60275 29.9765ZM42.5293 23.4994C42.634 23.6039 42.6863 23.7084 42.6863 23.8651C42.6863 24.0218 42.6863 24.1263 42.634 24.283C42.5816 24.3874 42.4769 24.5441 42.3722 24.5964C42.2674 24.6486 42.1103 24.7008 41.9533 24.7008L8.70239 24.7531C8.49293 24.7531 8.28348 24.7008 8.12639 24.6486C7.9693 24.5964 7.75984 24.4397 7.65512 24.283L0.533673 16.5C0.428946 16.3955 0.376583 16.2911 0.376583 16.1344C0.376583 15.9777 0.376583 15.8732 0.428946 15.7165C0.48131 15.612 0.586037 15.4553 0.690764 15.4031C0.795491 15.3508 0.952581 15.2986 1.10967 15.2986L34.4653 15.2464C34.6747 15.2464 34.8842 15.2986 35.0413 15.3508C35.1984 15.4553 35.4078 15.5598 35.5125 15.7165L42.5293 23.4994ZM7.60275 1.45644C7.75985 1.29973 7.91693 1.19526 8.07403 1.09079C8.23112 0.986319 8.44057 0.986328 8.65003 0.986328L42.0056 1.03857C42.1627 1.03857 42.2674 1.09079 42.4245 1.14303C42.5293 1.19526 42.634 1.35197 42.6863 1.45644C42.7387 1.56091 42.7387 1.7176 42.7387 1.87431C42.7387 2.03101 42.634 2.13549 42.5816 2.23996L35.5125 10.0229C35.3554 10.1796 35.1984 10.2841 35.0413 10.3886C34.8842 10.493 34.6747 10.493 34.4653 10.493H1.05731C0.900218 10.493 0.795491 10.4408 0.6384 10.3886C0.533673 10.3363 0.428946 10.1796 0.376583 10.0751C0.324219 9.97068 0.324219 9.81398 0.324219 9.65728C0.324219 9.50057 0.428945 9.3961 0.481309 9.29163L7.60275 1.45644Z" fill="#7C8EBE"/>
<path d="M67.9566 7.71415H57.7999V4.35024H70.6002V0.986328H57.7767C56.8955 0.986328 56.0375 1.33194 55.4114 1.95403C54.7853 2.57612 54.4375 3.42862 54.4375 4.30415V7.71415C54.4375 8.58968 54.7853 9.44218 55.4114 10.0643C56.0375 10.6864 56.8955 11.032 57.7767 11.032H67.9334V14.3959H54.6462V17.7598H67.9566C68.8378 17.7598 69.6958 17.4142 70.3219 16.7921C70.948 16.17 71.2958 15.3175 71.2958 14.442V11.032C71.2958 10.1564 70.948 9.30393 70.3219 8.68184C69.719 8.05975 68.861 7.71415 67.9566 7.71415ZM87.6672 0.986328H77.4641C77.0235 0.986328 76.5829 1.07849 76.1887 1.23977C75.7713 1.40106 75.4003 1.6545 75.0988 1.95403C74.7974 2.25356 74.5423 2.6222 74.38 3.03693C74.2176 3.45166 74.1249 3.86638 74.1249 4.30415V14.465C74.1249 14.9028 74.2176 15.3405 74.38 15.7322C74.5423 16.147 74.7974 16.5156 75.0988 16.8151C75.4003 17.1147 75.7713 17.3681 76.1887 17.5294C76.6061 17.6907 77.0235 17.7828 77.4641 17.7828H87.6672C88.5484 17.7828 89.4064 17.4372 90.0325 16.8151C90.6586 16.193 91.0064 15.3405 91.0064 14.465V4.3272C91.0064 3.45166 90.6586 2.59916 90.0325 1.97707C89.4064 1.35497 88.5484 0.986328 87.6672 0.986328ZM87.644 14.442H77.5105V4.37328H87.644V14.442ZM123.378 0.986328H113.43C112.549 0.986328 111.691 1.33194 111.065 1.95403C110.439 2.57612 110.091 3.42862 110.091 4.30415V17.7598H113.453V12.2301H123.355V17.7598H126.741V4.3272C126.741 3.88943 126.648 3.45166 126.485 3.05997C126.323 2.64524 126.068 2.27659 125.767 1.97707C125.465 1.67754 125.094 1.4241 124.677 1.26282C124.259 1.07849 123.819 0.986328 123.378 0.986328ZM123.355 8.91225H113.453V4.35024H123.355V8.91225ZM162.962 0.986328H153.014C152.573 0.986328 152.132 1.07849 151.715 1.23977C151.298 1.40106 150.927 1.6545 150.625 1.95403C150.324 2.25356 150.069 2.6222 149.906 3.03693C149.744 3.45166 149.651 3.86638 149.651 4.30415V17.7598H153.037V12.2301H162.938V17.7598H166.324V4.3272C166.324 3.45166 165.976 2.59916 165.35 1.97707C164.701 1.35497 163.866 0.986328 162.962 0.986328ZM162.938 8.91225H153.037V4.35024H162.938V8.91225ZM143.274 14.442H141.929L137.083 2.3918C136.92 1.97707 136.619 1.63146 136.271 1.37802C135.9 1.12457 135.46 0.986328 135.019 0.986328H132.004C131.401 0.986328 130.845 1.21673 130.428 1.63146C130.01 2.04619 129.778 2.6222 129.778 3.19821V17.7828H133.164V4.35024H134.509L139.355 16.4004C139.518 16.8151 139.796 17.1607 140.167 17.4142C140.538 17.6676 140.979 17.8059 141.419 17.8059H144.434C145.037 17.8059 145.593 17.5755 146.011 17.1607C146.428 16.746 146.66 16.17 146.66 15.594V1.00937H143.274V14.442ZM97.3834 0.986328H93.9978V14.465C93.9978 15.3405 94.3456 16.193 94.9717 16.8151C95.5978 17.4372 96.4558 17.7828 97.337 17.7828H107.494V14.4189H97.3602V0.986328H97.3834Z" fill="#7C8EBE"/>
<path d="M114.101 28.9406H124.234C125.136 28.9406 125.992 29.2872 126.594 29.911C127.219 30.5348 127.566 31.3896 127.566 32.2676V35.6869C127.566 36.5649 127.219 37.4197 126.594 38.0435C125.969 38.6673 125.113 39.0139 124.234 39.0139H110.954V35.6407H124.211V32.2676H114.078C113.198 32.2676 112.342 31.921 111.718 31.2972C111.093 30.6734 110.746 29.8186 110.746 28.9406V25.5213C110.746 24.6433 111.093 23.7885 111.718 23.1647C112.342 22.5409 113.198 22.1943 114.078 22.1943H126.872V25.5675H114.101V28.9406Z" fill="#7C8EBE"/>
<path d="M54.4375 22.1943H57.717V35.6454H67.6006V39.0139H57.6944C56.8349 39.0139 55.9981 38.6678 55.3874 38.0449C54.7768 37.4219 54.4375 36.5682 54.4375 35.6915V22.1943Z" fill="#7C8EBE"/>
<path fill-rule="evenodd" clip-rule="evenodd" d="M84.6806 22.1943H74.6311C73.7409 22.1943 72.8742 22.5409 72.2417 23.1647C71.6092 23.7885 71.2578 24.6433 71.2578 25.5213V39.0139H74.6545V33.469H84.6572V39.0139H88.0774V25.5444C88.0774 25.1054 87.9837 24.6664 87.8197 24.2737C87.6557 23.8578 87.398 23.4881 87.0935 23.1878C86.789 22.8874 86.4141 22.6333 85.9925 22.4716C85.5708 22.2868 85.1257 22.1943 84.6806 22.1943ZM74.6545 30.142H84.6572V25.5675H74.6545V30.142Z" fill="#7C8EBE"/>
<path d="M92.8576 24.0471H102.704C104.508 24.0471 105.97 25.509 105.97 27.3123C105.97 29.1157 104.508 30.5776 102.704 30.5776H92.8576V24.0471Z" stroke="#7C8EBE" stroke-width="3.70746"/>
<path d="M92.8576 30.6291H102.704C104.508 30.6291 105.97 32.091 105.97 33.8944C105.97 35.6977 104.508 37.1596 102.704 37.1596H92.8576V30.6291Z" stroke="#7C8EBE" stroke-width="3.70746"/>
</svg>
