<svg width="208" height="48" viewBox="0 0 208 48" fill="none" xmlns="http://www.w3.org/2000/svg">
<path d="M9.12001 36.3247C9.31684 36.1284 9.51368 35.9975 9.71051 35.8666C9.90735 35.7357 10.1698 35.7357 10.4322 35.7357H52.1612C52.358 35.7357 52.4893 35.8011 52.6861 35.8666C52.8173 35.932 52.9485 36.1284 53.0142 36.2593C53.0798 36.3902 53.0798 36.5865 53.0798 36.7829C53.0798 36.9792 52.9485 37.1101 52.8829 37.241L44.0254 47.0585C43.8285 47.2549 43.6317 47.3858 43.4349 47.5167C43.238 47.6476 42.9756 47.6476 42.7131 47.6476H0.918562C0.721727 47.6476 0.590504 47.5821 0.39367 47.5167C0.262447 47.4512 0.131223 47.2549 0.0656118 47.124C2.49311e-07 46.9931 0 46.7967 0 46.6004C0 46.404 0.131223 46.2731 0.196834 46.1422L9.12001 36.3247ZM52.8829 28.2089C53.0141 28.3398 53.0798 28.4707 53.0798 28.6671C53.0798 28.8634 53.0798 28.9943 53.0142 29.1907C52.9485 29.3216 52.8173 29.5179 52.6861 29.5834C52.5549 29.6488 52.358 29.7143 52.1612 29.7143L10.4979 29.7797C10.2354 29.7797 9.97296 29.7143 9.77612 29.6488C9.57929 29.5834 9.31684 29.387 9.18562 29.1907L0.262446 19.4386C0.131223 19.3077 0.0656118 19.1768 0.0656118 18.9805C0.0656118 18.7841 0.0656121 18.6532 0.131224 18.4569C0.196835 18.326 0.328058 18.1297 0.459282 18.0642C0.590505 17.9987 0.787339 17.9333 0.984174 17.9333L42.7787 17.8678C43.0412 17.8678 43.3036 17.9333 43.5005 17.9987C43.6973 18.1296 43.9598 18.2605 44.091 18.4569L52.8829 28.2089ZM9.12001 0.589046C9.31684 0.392696 9.51368 0.261788 9.71051 0.130888C9.90735 -1.19862e-05 10.1698 0 10.4322 0L52.2268 0.065454C52.4236 0.065454 52.5549 0.130892 52.7517 0.196342C52.8829 0.261792 53.0141 0.458146 53.0798 0.589046C53.1454 0.719946 53.1454 0.916288 53.1454 1.11264C53.1454 1.30899 53.0141 1.4399 52.9485 1.5708L44.091 11.3228C43.8941 11.5192 43.6973 11.6501 43.5005 11.781C43.3036 11.9119 43.0412 11.9119 42.7787 11.9119H0.918562C0.721727 11.9119 0.590504 11.8464 0.39367 11.781C0.262447 11.7155 0.131223 11.5192 0.0656118 11.3883C2.49311e-07 11.2574 0 11.0611 0 10.8647C0 10.6684 0.131223 10.5374 0.196834 10.4065L9.12001 0.589046Z" fill="#7C8EBE"/>
<path d="M84.7461 8.42996H72.0197V4.21498H88.0585V0H71.9907C70.8865 0 69.8115 0.433049 69.027 1.21253C68.2425 1.99201 67.8066 3.06019 67.8066 4.15724V8.42996C67.8066 9.52701 68.2425 10.5952 69.027 11.3747C69.8115 12.1541 70.8865 12.5872 71.9907 12.5872H84.7171V16.8022H68.0681V21.0171H84.7461C85.8502 21.0171 86.9253 20.5841 87.7098 19.8046C88.4943 19.0251 88.9301 17.957 88.9301 16.8599V12.5872C88.9301 11.4901 88.4943 10.422 87.7098 9.64248C86.9544 8.863 85.8793 8.42996 84.7461 8.42996ZM109.443 0H96.659C96.1069 0 95.5549 0.115481 95.0609 0.317569C94.5379 0.519657 94.073 0.837225 93.6953 1.21253C93.3176 1.58784 92.9979 2.04975 92.7946 2.5694C92.5912 3.08906 92.4749 3.60871 92.4749 4.15724V16.8888C92.4749 17.4373 92.5912 17.9858 92.7946 18.4766C92.9979 18.9963 93.3176 19.4582 93.6953 19.8335C94.073 20.2088 94.5379 20.5264 95.0609 20.7285C95.5839 20.9305 96.1069 21.046 96.659 21.046H109.443C110.548 21.046 111.623 20.613 112.407 19.8335C113.192 19.054 113.628 17.9858 113.628 16.8888V4.18611C113.628 3.08906 113.192 2.02088 112.407 1.24139C111.623 0.461912 110.548 0 109.443 0ZM109.414 16.8599H96.7171V4.24385H109.414V16.8599ZM154.189 0H141.724C140.62 0 139.545 0.433049 138.761 1.21253C137.976 1.99201 137.54 3.06019 137.54 4.15724V21.0171H141.753V14.0884H154.16V21.0171H158.402V4.18611C158.402 3.63758 158.286 3.08906 158.083 2.59827C157.879 2.07862 157.56 1.6167 157.182 1.24139C156.804 0.866088 156.339 0.548528 155.816 0.34644C155.293 0.115482 154.741 0 154.189 0ZM154.16 9.93118H141.753V4.21498H154.16V9.93118ZM203.787 0H191.322C190.77 0 190.218 0.115481 189.695 0.317569C189.172 0.519657 188.707 0.837225 188.33 1.21253C187.952 1.58784 187.632 2.04975 187.429 2.5694C187.226 3.08906 187.109 3.60871 187.109 4.15724V21.0171H191.352V14.0884H203.758V21.0171H208V4.18611C208 3.08906 207.565 2.02088 206.78 1.24139C205.967 0.461912 204.921 0 203.787 0ZM203.758 9.93118H191.352V4.21498H203.758V9.93118ZM179.119 16.8599H177.434L171.361 1.76105C171.158 1.2414 170.78 0.808355 170.344 0.490789C169.879 0.173222 169.327 0 168.775 0H164.998C164.243 0 163.545 0.288694 163.022 0.808348C162.499 1.328 162.209 2.04975 162.209 2.77149V21.046H166.451V4.21498H168.136L174.209 19.3138C174.412 19.8335 174.761 20.2665 175.226 20.5841C175.691 20.9017 176.243 21.0749 176.795 21.0749H180.572C181.327 21.0749 182.025 20.7862 182.548 20.2665C183.071 19.7469 183.361 19.0251 183.361 18.3034V0.0288715H179.119V16.8599ZM121.618 0H117.376V16.8888C117.376 17.9858 117.812 19.054 118.596 19.8335C119.381 20.613 120.456 21.046 121.56 21.046H134.286V16.831H121.589V0H121.618Z" fill="#7C8EBE"/>
<path d="M142.565 35.0259H155.262C156.392 35.0259 157.465 35.4601 158.219 36.2417C159.001 37.0234 159.436 38.0945 159.436 39.1945V43.479C159.436 44.579 159.001 45.6502 158.219 46.4318C157.436 47.2134 156.363 47.6476 155.262 47.6476H138.622V43.4211H155.233V39.1945H142.536C141.434 39.1945 140.362 38.7603 139.579 37.9787C138.796 37.197 138.361 36.1259 138.361 35.0259V30.7414C138.361 29.6413 138.796 28.5702 139.579 27.7886C140.362 27.007 141.434 26.5728 142.536 26.5728H158.567V30.7993H142.565V35.0259Z" fill="#7C8EBE"/>
<path d="M67.8066 26.5728H71.9158V43.4269H84.3V47.6476H71.8875C70.8106 47.6476 69.762 47.214 68.9969 46.4335C68.2317 45.6529 67.8066 44.5833 67.8066 43.4847V26.5728Z" fill="#7C8EBE"/>
<path fill-rule="evenodd" clip-rule="evenodd" d="M105.7 26.5728H93.1076C91.9922 26.5728 90.9062 27.007 90.1137 27.7886C89.3211 28.5702 88.8809 29.6413 88.8809 30.7414V47.6476H93.1369V40.6999H105.67V47.6476H109.956V30.7704C109.956 30.2203 109.838 29.6703 109.633 29.1782C109.427 28.6571 109.105 28.1939 108.723 27.8176C108.341 27.4412 107.872 27.1228 107.343 26.9201C106.815 26.6886 106.257 26.5728 105.7 26.5728ZM93.1369 36.5312H105.67V30.7993H93.1369V36.5312Z" fill="#7C8EBE"/>
<path d="M115.944 28.8945H128.282C130.541 28.8945 132.373 30.7263 132.373 32.9859C132.373 35.2455 130.541 37.0772 128.282 37.0772H115.944V28.8945Z" stroke="#7C8EBE" stroke-width="4.64545"/>
<path d="M115.944 37.1416H128.282C130.541 37.1416 132.373 38.9733 132.373 41.2329C132.373 43.4925 130.541 45.3243 128.282 45.3243H115.944V37.1416Z" stroke="#7C8EBE" stroke-width="4.64545"/>
</svg>
