<svg width="22" height="22" viewBox="0 0 22 22" fill="none" xmlns="http://www.w3.org/2000/svg">
<g clip-path="url(#clip0_281_817)">
<path d="M11 0C8.08328 0 5.20364 1.0807 3.14286 3.14286C1.07995 5.20583 0.000571433 8.08256 0 11C0 13.9162 1.08036 16.795 3.14286 18.8571C5.20364 20.9193 8.08328 22 11 22C13.9167 22 16.7964 20.9193 18.8571 18.8571C20.9196 16.795 22 13.9162 22 11C22 8.0838 20.9196 5.20501 18.8571 3.14286C16.7964 1.0807 13.9167 0 11 0Z" fill="url(#paint0_linear_281_817)"/>
<path d="M4.71427 11C7.87857 9.55867 9.94522 8.31626 11 7.85715C14.0151 6.54615 14.5199 6.29344 14.9286 6.28573C15.0184 6.28422 15.5837 6.17534 15.7143 6.28573C15.8228 6.37882 15.699 6.98304 15.7143 7.07144C15.7278 7.15975 15.7295 6.91433 15.7143 7.07144C15.5515 8.86602 14.5023 13.7043 14.1428 15.7143C13.9919 16.5648 13.6471 16.4722 13.3571 16.5C12.7263 16.5607 12.3962 16.1326 11.7857 15.7143C10.831 15.0594 10.3561 14.7818 9.42855 14.1429C8.35683 13.4045 9.60379 12.4489 10.2143 11.7857C10.3737 11.6121 12.5188 9.66816 12.5714 9.42858C12.5782 9.39861 12.6358 8.70174 12.5714 8.64287C12.5087 8.58382 12.6392 8.62691 12.5714 8.64287C12.4748 8.66557 10.8145 9.69908 7.85712 11.7857C7.4247 12.0968 7.42413 12.5794 7.07141 12.5714C6.68478 12.5628 5.26878 11.9741 4.71427 11.7857C4.03596 11.5547 3.88107 11.3924 3.92855 11C3.95229 10.7957 4.20045 11.2137 4.71427 11Z" fill="white" fill-opacity="0.84"/>
</g>
<defs>
<linearGradient id="paint0_linear_281_817" x1="11" y1="0" x2="11" y2="22" gradientUnits="userSpaceOnUse">
<stop stop-color="#2AABEE"/>
<stop offset="1" stop-color="#229ED9"/>
</linearGradient>
<clipPath id="clip0_281_817">
<rect width="22" height="22" fill="white"/>
</clipPath>
</defs>
</svg>
