<svg width="45" height="45" viewBox="0 0 45 45" fill="none" xmlns="http://www.w3.org/2000/svg">
<rect opacity="0.48" x="43.5547" y="1.15704" width="43" height="43" rx="13.5" transform="rotate(90 43.5547 1.15704)" fill="white" stroke="#4383FF" stroke-dasharray="2 2"/>
<g opacity="0.48" clip-path="url(#clip0_398_19114)">
<path d="M22.0039 9C18.2917 9 14.6267 10.3754 12.0039 13C9.37839 15.6256 8.00463 19.2869 8.00391 23C8.00391 26.7115 9.37891 30.3754 12.0039 33C14.6267 35.6246 18.2917 37 22.0039 37C25.7161 37 29.3811 35.6246 32.0039 33C34.6289 30.3754 36.0039 26.7115 36.0039 23C36.0039 19.2885 34.6289 15.6246 32.0039 13C29.3811 10.3754 25.7161 9 22.0039 9Z" fill="url(#paint0_linear_398_19114)"/>
<path d="M14.0022 23.0004C18.0295 21.1659 20.6598 19.5847 22.0022 19.0004C25.8396 17.3318 26.4821 17.0102 27.0022 17.0004C27.1166 16.9985 27.8361 16.8599 28.0022 17.0004C28.1404 17.1189 27.9828 17.8879 28.0022 18.0004C28.0195 18.1128 28.0217 17.8004 28.0022 18.0004C27.795 20.2844 26.4598 26.4421 26.0022 29.0004C25.8102 30.0828 25.3713 29.9649 25.0022 30.0004C24.1994 30.0776 23.7792 29.5328 23.0022 29.0004C21.7871 28.1669 21.1828 27.8135 20.0022 27.0004C18.6382 26.0606 20.2253 24.8445 21.0022 24.0004C21.2051 23.7794 23.9353 21.3053 24.0022 21.0004C24.0109 20.9622 24.0843 20.0753 24.0022 20.0004C23.9224 19.9252 24.0886 19.9801 24.0022 20.0004C23.8792 20.0293 21.7662 21.3446 18.0022 24.0004C17.4519 24.3962 17.4512 25.0105 17.0022 25.0004C16.5102 24.9893 14.708 24.2401 14.0022 24.0004C13.1389 23.7063 12.9418 23.4998 13.0022 23.0004C13.0325 22.7404 13.3483 23.2723 14.0022 23.0004Z" fill="white"/>
</g>
<defs>
<linearGradient id="paint0_linear_398_19114" x1="22.0039" y1="9" x2="22.0039" y2="37" gradientUnits="userSpaceOnUse">
<stop stop-color="#2AABEE"/>
<stop offset="1" stop-color="#229ED9"/>
</linearGradient>
<clipPath id="clip0_398_19114">
<rect width="28" height="28" fill="white" transform="translate(8.00391 9)"/>
</clipPath>
</defs>
</svg>
