<svg width="45" height="45" viewBox="0 0 45 45" fill="none" xmlns="http://www.w3.org/2000/svg">
<rect opacity="0.48" x="0.500404" y="0.535179" width="43" height="43" rx="13.5" transform="rotate(-0.0463337 0.500404 0.535179)" fill="white" stroke="#4383FF" stroke-dasharray="2 2"/>
<g opacity="0.48" clip-path="url(#clip0_398_19106)">
<path d="M35 14C34.0264 14.4287 33.0574 14.8753 32 15C33.1014 14.3439 33.6018 13.2379 34 12C32.9529 12.6175 32.1946 13.7662 31 14C30.0269 12.9697 28.5343 12 27 12C24.0541 12 22 14.0724 22 17C22 17.4156 21.9091 18.6119 22 19C17.5668 18.7788 13.631 16.2074 11 13C10.5409 13.783 10 15.0286 10 16C10 17.8393 10.5688 19.0493 12 20C11.1529 19.9736 10.7406 19.4094 10 19C9.9997 19.0222 10 18.9777 10 19C10 21.5686 11.5599 24.513 14 25C13.2145 25.2123 12.7994 25.1525 12 25C12.6787 27.1062 14.6659 27.9571 17 28C15.1744 29.4218 12.499 31 10 31C9.56938 31 9.41732 31.049 9 31C11.3606 32.5042 13.9877 33 17 33C26.8116 33 32 25.0056 32 18C32 17.7701 32.0104 17.2273 32 17C33.0443 16.2497 34.2839 15.0647 35 14Z" fill="#55ACEE"/>
</g>
<defs>
<clipPath id="clip0_398_19106">
<rect width="26" height="21" fill="white" transform="translate(9 12)"/>
</clipPath>
</defs>
</svg>
