<svg width="22" height="17" viewBox="0 0 22 17" fill="none" xmlns="http://www.w3.org/2000/svg">
<g clip-path="url(#clip0_281_813)">
<path d="M22 1.61905C21.1762 1.96606 20.3563 2.3276 19.4615 2.42857C20.3935 1.89744 20.8169 1.00212 21.1538 0C20.2679 0.499906 19.6262 1.42974 18.6154 1.61905C17.792 0.785006 16.529 0 15.2308 0C12.7381 0 11 1.67762 11 4.04762C11 4.38403 10.9231 5.35248 11 5.66667C7.24883 5.48763 3.91852 3.40603 1.69231 0.809524C1.30387 1.44337 0.846154 2.45169 0.846154 3.2381C0.846154 4.72706 1.32743 5.70654 2.53846 6.47619C1.8217 6.45485 1.47285 5.9981 0.846154 5.66667C0.845896 5.68464 0.846154 5.64861 0.846154 5.66667C0.846154 7.74601 2.16603 10.1295 4.23077 10.5238C3.56612 10.6957 3.2149 10.6473 2.53846 10.5238C3.11278 12.2288 4.79422 12.9177 6.76923 12.9524C5.2245 14.1034 2.96073 15.381 0.846154 15.381C0.481779 15.381 0.353117 15.4206 0 15.381C1.99745 16.5986 4.22032 17 6.76923 17C15.0714 17 19.4615 10.5283 19.4615 4.85714C19.4615 4.671 19.4703 4.23164 19.4615 4.04762C20.3452 3.44024 21.3941 2.48097 22 1.61905Z" fill="#55ACEE"/>
</g>
<defs>
<clipPath id="clip0_281_813">
<rect width="22" height="17" fill="white"/>
</clipPath>
</defs>
</svg>
