<svg width="173" height="46" viewBox="0 0 173 46" fill="none" xmlns="http://www.w3.org/2000/svg">
<path d="M23.6142 40.5403V3.80838L21.119 0.874023L15.9186 1.10982L8.45928 4.72537L8.90579 8.55051L5.07109 9.2317L1.23639 20.2617L3.2588 22.2791L1 24.5323L3.49518 29.7198L12.5304 29.0386" stroke="#7C8EBE" stroke-width="1.70198" stroke-linecap="round" stroke-linejoin="round"/>
<path d="M23.6123 40.5406L20.907 45.0469L18.8846 44.6015L16.3894 45.0469L12.5547 43.2391L23.6123 26.5762" stroke="#7C8EBE" stroke-width="1.70198" stroke-linecap="round" stroke-linejoin="round"/>
<path d="M13.0021 29.0381L6.01562 33.9898L10.9797 39.6227L20.9079 45.0199" stroke="#7C8EBE" stroke-width="1.70198" stroke-linecap="round" stroke-linejoin="round"/>
<path d="M3.73438 29.9561L8.01558 32.2092" stroke="#7C8EBE" stroke-width="1.70198" stroke-linecap="round" stroke-linejoin="round"/>
<path d="M3.04688 22.2793L19.5413 32.1828L23.6124 37.3703" stroke="#7C8EBE" stroke-width="1.70198" stroke-linecap="round" stroke-linejoin="round"/>
<path d="M23.3789 40.541L14.3438 40.9864" stroke="#7C8EBE" stroke-width="1.70198" stroke-linecap="round" stroke-linejoin="round"/>
<path d="M8.92969 8.31543L12.7644 15.2845L13.6574 22.2536L13.421 40.4886" stroke="#7C8EBE" stroke-width="1.70198" stroke-linecap="round" stroke-linejoin="round"/>
<path d="M3.04688 22.2787L12.5286 15.0738L23.1397 10.1221" stroke="#7C8EBE" stroke-width="1.70198" stroke-linecap="round" stroke-linejoin="round"/>
<path d="M3.28516 21.8336L8.93215 8.76003L18.1774 1.31934" stroke="#7C8EBE" stroke-width="1.70198" stroke-linecap="round" stroke-linejoin="round"/>
<path d="M8.92969 8.55078L19.3044 11.9305L23.5856 14.6291" stroke="#7C8EBE" stroke-width="1.70198" stroke-linecap="round" stroke-linejoin="round"/>
<path d="M3.49219 22.0696H13.4466L19.5401 12.1662L21.5626 2.2627" stroke="#7C8EBE" stroke-width="1.70198" stroke-linecap="round" stroke-linejoin="round"/>
<path d="M23.3782 19.8164L13.6602 22.3054L19.7537 31.9992L20.4365 40.5665" stroke="#7C8EBE" stroke-width="1.70198" stroke-linecap="round" stroke-linejoin="round"/>
<path d="M23.957 40.749H26.1633" stroke="#7C8EBE" stroke-width="1.70198" stroke-linejoin="round"/>
<path d="M23.957 37.1611H26.1633" stroke="#7C8EBE" stroke-width="1.70198" stroke-linejoin="round"/>
<path d="M23.957 27.0205H26.1633" stroke="#7C8EBE" stroke-width="1.70198" stroke-linejoin="round"/>
<path d="M23.957 19.8164H26.1633" stroke="#7C8EBE" stroke-width="1.70198" stroke-linejoin="round"/>
<path d="M23.957 14.6299H26.1633" stroke="#7C8EBE" stroke-width="1.70198" stroke-linejoin="round"/>
<path d="M23.957 10.1221H26.1633" stroke="#7C8EBE" stroke-width="1.70198" stroke-linejoin="round"/>
<path d="M26.3164 40.619V3.83475L28.8116 0.900391L34.0121 1.13619L41.4714 4.75174L41.0248 8.57688L44.8595 9.25807L48.6942 20.3143L46.6718 22.3317L48.9306 24.5849L46.4355 29.7724L37.374 29.0912" stroke="#7C8EBE" stroke-width="1.70198" stroke-linecap="round" stroke-linejoin="round"/>
<path d="M26.3164 40.6195L29.0217 45.1258L31.0441 44.6804L33.5393 45.1258L37.374 43.3181L26.3164 26.6289" stroke="#7C8EBE" stroke-width="1.70198" stroke-linecap="round" stroke-linejoin="round"/>
<path d="M36.9555 29.1172L43.942 34.0689L38.9779 39.7018L29.0234 45.099" stroke="#7C8EBE" stroke-width="1.70198" stroke-linecap="round" stroke-linejoin="round"/>
<path d="M46.2031 30.0068L41.9219 32.26" stroke="#7C8EBE" stroke-width="1.70198" stroke-linecap="round" stroke-linejoin="round"/>
<path d="M46.882 22.3584L30.3612 32.2881L26.3164 37.4756" stroke="#7C8EBE" stroke-width="1.70198" stroke-linecap="round" stroke-linejoin="round"/>
<path d="M26.5273 40.6182L35.5888 41.0636" stroke="#7C8EBE" stroke-width="1.70198" stroke-linecap="round" stroke-linejoin="round"/>
<path d="M40.9972 8.36621L37.1625 15.3615L36.2695 22.3568L36.5059 40.6179" stroke="#7C8EBE" stroke-width="1.70198" stroke-linecap="round" stroke-linejoin="round"/>
<path d="M46.8797 22.3576L37.3717 15.1265L26.7344 10.1748" stroke="#7C8EBE" stroke-width="1.70198" stroke-linecap="round" stroke-linejoin="round"/>
<path d="M46.6451 21.9126L40.9981 8.83896L31.7266 1.37207" stroke="#7C8EBE" stroke-width="1.70198" stroke-linecap="round" stroke-linejoin="round"/>
<path d="M40.9986 8.60449L30.5976 11.9842L26.3164 14.6828" stroke="#7C8EBE" stroke-width="1.70198" stroke-linecap="round" stroke-linejoin="round"/>
<path d="M46.4336 22.123H36.4792L30.3857 12.1933L28.3633 2.26367" stroke="#7C8EBE" stroke-width="1.70198" stroke-linecap="round" stroke-linejoin="round"/>
<path d="M26.5273 19.8701L36.2717 22.3591L30.1782 32.0791L29.4953 40.6726" stroke="#7C8EBE" stroke-width="1.70198" stroke-linecap="round" stroke-linejoin="round"/>
<path fill-rule="evenodd" clip-rule="evenodd" d="M75.7778 40.0825V25.5151H72.0836V31.2075H66.2411V25.5151H62.5469V40.0825H66.2411V34.2348H72.0836V40.0825H75.7778ZM93.2531 32.7858C93.2531 29.0599 90.6855 25.1528 85.3408 25.1528C79.996 25.1528 77.4284 29.034 77.4284 32.7858C77.4284 36.5377 79.996 40.4189 85.3408 40.4189C90.6855 40.4189 93.2531 36.5118 93.2531 32.7858ZM89.4803 32.7858C89.4803 35.2439 88.118 37.4174 85.367 37.4174C82.5898 37.4174 81.2536 35.2439 81.2536 32.7858C81.2536 30.3278 82.616 28.1284 85.367 28.1284C88.118 28.1284 89.4803 30.3278 89.4803 32.7858ZM105.724 40.0825V37.0293H98.6503V25.5151H94.9561V40.0825H105.724ZM120.763 32.7082C120.763 30.4571 119.951 28.5165 118.431 27.1969C116.571 25.5927 114.056 25.5151 111.593 25.5151H106.772V40.0825H111.593C113.427 40.0825 116.257 40.0825 118.431 38.1936C119.925 36.874 120.763 34.9334 120.763 32.7082ZM116.99 32.7082C116.99 34.0278 116.623 35.2439 115.785 36.0461C114.763 37.0552 113.479 37.081 112.143 37.081H110.466V28.413H112.143C113.506 28.413 114.868 28.413 115.785 29.3445C116.65 30.2501 116.99 31.4921 116.99 32.7082ZM126.134 40.0825V25.5151H122.44V40.0825H126.134ZM141.697 40.0825V25.5151H138.238V34.4418L132.134 25.5151H128.466V40.0825H131.924V31.1557L138.029 40.0825H141.697ZM158.124 40.0825V31.6991H151.286V34.4936H155.111C155.111 36.46 153.303 37.4174 151.443 37.4174C148.797 37.4174 147.199 35.3733 147.199 32.76C147.199 30.3278 148.666 28.1543 151.548 28.1543C152.936 28.1543 154.299 28.6977 155.242 29.7326L157.417 27.585C157.128 27.2487 155.294 25.127 151.417 25.127C146.203 25.127 143.426 28.6718 143.426 32.7858C143.426 36.9517 146.072 40.393 150.814 40.393C153.618 40.393 155.242 38.8405 155.373 38.7111L155.425 40.0566L158.124 40.0825ZM172.324 35.7356C172.324 29.3963 163.207 32.0096 163.207 29.448C163.207 28.62 164.098 28.0767 165.643 28.0767C168.447 28.0767 169.993 29.5256 170.124 29.6291L172.167 27.3263C171.905 27.0676 170.097 25.1787 165.67 25.1787C162.002 25.1787 159.539 26.9899 159.539 29.655C159.539 35.6838 168.604 33.3033 168.604 35.9684C168.604 37.0034 167.451 37.4692 165.722 37.4692C164.045 37.495 162.395 36.9258 161.085 35.8649L159.12 38.323C159.382 38.5818 161.451 40.4447 165.722 40.4447C169.442 40.393 172.324 38.7629 172.324 35.7356Z" fill="#7C8EBE"/>
<path fill-rule="evenodd" clip-rule="evenodd" d="M74.6684 16.925C74.6684 15.3603 73.8324 13.9259 71.7948 13.3783C72.2389 13.1697 74.0937 12.3091 74.0937 9.72728C74.1198 8.76236 73.7541 7.84961 73.101 7.14548C71.8993 5.91979 70.0445 5.91979 68.059 5.91979H62.5469V21.3844H67.9023C70.2273 21.3844 72.4217 21.3062 73.7018 19.7415C74.3288 18.9591 74.6684 17.9681 74.6684 16.925ZM72.1344 10.1445C72.1344 12.5698 70.0706 12.7524 68.2158 12.7524H64.3756V7.56274H68.0852C69.8877 7.56274 72.1344 7.56274 72.1344 10.1445ZM72.6569 16.9511C72.6569 19.898 69.8355 19.7415 67.641 19.7415H64.3756V14.3171H68.1635C70.4624 14.3432 72.6569 14.4736 72.6569 16.9511ZM79.4491 21.3844V5.91979H77.542V21.3844H79.4491ZM96.5864 21.3844V13.2479H89.8464V14.9169H94.8361V15.3603C94.8361 16.8989 93.8956 20.0023 89.8725 20.0023C85.8756 20.0023 84.3343 17.0293 84.3343 13.6391C84.3343 10.3271 86.1368 7.27588 90.0032 7.27588C93.138 7.27588 94.5749 9.17962 94.81 9.44041L96.1162 8.34511C95.9072 8.03216 94.2091 5.55469 90.0032 5.55469C85.0919 5.55469 82.2966 9.12747 82.2966 13.613C82.2966 18.3332 84.8306 21.7235 89.5852 21.7235C93.4515 21.7235 94.7055 19.585 94.9145 19.2721L94.9667 21.3584H96.5864V21.3844Z" fill="#7C8EBE"/>
<path fill-rule="evenodd" clip-rule="evenodd" d="M119.968 17.0416C119.968 15.4084 119.118 13.9113 117.047 13.3396C117.498 13.1219 119.383 12.2236 119.383 9.52883C119.41 8.52169 119.038 7.56898 118.375 6.83403C117.153 5.55469 115.268 5.55469 113.25 5.55469H107.648V21.6962H113.091C115.454 21.6962 117.684 21.6146 118.985 19.9814C119.649 19.1648 119.968 18.1304 119.968 17.0416ZM117.419 9.96435C117.419 12.4958 115.321 12.6864 113.436 12.6864H109.533V7.26956H113.304C115.162 7.26956 117.419 7.26956 117.419 9.96435ZM117.976 17.0688C117.976 20.1447 115.109 19.9814 112.879 19.9814H109.56V14.3196H113.41C115.72 14.3468 117.976 14.4829 117.976 17.0688ZM135.765 21.6962L130.853 14.7823C131.118 14.7007 134.862 14.0474 134.862 10.1821C134.888 8.98443 134.437 7.81396 133.588 6.97013C132.34 5.69079 130.534 5.58191 128.517 5.58191H122.888V21.7235H124.826V14.9729H128.702L133.428 21.7235H135.765V21.6962ZM132.95 10.2638C132.95 13.1491 130.348 13.3124 127.986 13.3124H124.853V7.24234H128.145C129.632 7.24234 131.251 7.26956 132.233 8.2767C132.711 8.73945 132.95 9.33829 132.95 10.2638ZM151.748 21.6962L145.19 5.55469H142.853L136.296 21.6962H138.366L140.066 17.4227H147.898L149.597 21.6962H151.748ZM147.234 15.7078H140.782L143.995 7.56898L147.234 15.7078ZM155.783 21.6962V5.55469H153.845V21.6962H155.783ZM172.324 21.6962V5.55469H170.518V18.4843L161.412 5.55469H159.394V21.6962H161.199V8.65779L170.412 21.6962H172.324Z" fill="#7C8EBE"/>
</svg>
