<svg width="24" height="25" viewBox="0 0 24 25" fill="none" xmlns="http://www.w3.org/2000/svg">
<g opacity="0.64">
<path d="M12.171 16.3417C11.1061 16.3421 10.0343 15.933 9.222 15.1199C8.41022 14.3081 7.99963 13.2386 8 12.174C7.9996 11.1081 8.40755 10.0343 9.22278 9.2216C10.0351 8.40742 11.107 7.99841 12.171 8C13.2369 7.99855 14.3082 8.40833 15.1212 9.2216L14.1426 10.201C13.5961 9.65522 12.8866 9.38518 12.1711 9.3844C11.4563 9.38519 10.7476 9.65509 10.2009 10.201C9.65562 10.746 9.38599 11.4561 9.38517 12.174C9.38597 12.888 9.65665 13.5954 10.202 14.1416C10.7468 14.6859 11.4556 14.9561 12.1711 14.9569C12.8868 14.9562 13.5964 14.6859 14.1413 14.1408L14.1428 14.1416L15.1209 15.1198C14.3085 15.9329 13.2384 16.3416 12.1737 16.3416C12.1731 16.3418 12.1719 16.3418 12.171 16.3418L12.171 16.3417Z" fill="white"/>
<path d="M4 12.0007C4.00119 7.58226 7.58192 4 12.0003 4C16.4194 4 20 7.5826 20 12.0007C20 16.4198 16.4191 20.0014 12.0003 20.002C7.58192 20.0012 4.00102 16.4198 4 12.0003V12.0007ZM5.39113 12.0007C5.39906 15.651 8.35098 18.6036 12.0005 18.6107C15.6504 18.6037 18.6027 15.6508 18.6088 12.0007C18.6026 8.35139 15.6502 5.3981 12.0005 5.39133C8.35118 5.39821 5.39926 8.35118 5.39113 12.0007Z" fill="white"/>
</g>
</svg>
