<svg width="240" height="207" viewBox="0 0 240 207" fill="none" xmlns="http://www.w3.org/2000/svg">
    <path
        d="M228.544 106.645C228.544 155.725 188.685 195.544 139.475 195.544C90.2653 195.544 50.406 155.725 50.406 106.645C50.406 57.5659 90.2653 17.7461 139.475 17.7461C188.685 17.7461 228.544 57.5659 228.544 106.645Z"
        fill="white" stroke="#D2DDFF" stroke-width="22.9117" />
    <path
        d="M91.074 141.24C91.074 132.338 93.5227 123.608 98.1531 116C102.784 108.393 109.418 102.201 117.332 98.1001C125.246 93.9993 134.137 92.1469 143.033 92.7451C151.93 93.3434 160.491 96.3692 167.783 101.493L156.678 117.245C152.276 114.152 147.107 112.325 141.737 111.964C136.366 111.603 130.999 112.721 126.221 115.197C121.443 117.672 117.438 121.41 114.643 126.003C111.847 130.596 110.369 135.866 110.369 141.24H91.074Z"
        fill="#D2DDFF" />
    <path
        d="M188.449 141.24C188.449 133.407 186.552 125.689 182.92 118.745C179.289 111.801 174.03 105.836 167.592 101.359L156.562 117.164C160.449 119.867 163.624 123.468 165.816 127.66C168.009 131.852 169.154 136.511 169.154 141.24H188.449Z"
        fill="#2F55D3" />
    <path d="M127.446 155.822H152.936" stroke="#D2DDFF" stroke-width="4.58233" stroke-linecap="round" />
    <path d="M162.673 57.7539H175.847" stroke="#2F55D3" stroke-width="4.58233" stroke-linecap="round" />
    <path d="M92.2197 57.7539H105.394" stroke="#2F55D3" stroke-width="4.58233" stroke-linecap="round" />
    <path d="M161.527 64.616H186.73" stroke="#D2DDFF" stroke-width="2.29117" stroke-linecap="round" />
    <path d="M91.074 64.616H116.277" stroke="#D2DDFF" stroke-width="2.29117" stroke-linecap="round" />
    <path d="M161.527 70.334H186.73" stroke="#D2DDFF" stroke-width="2.29117" stroke-linecap="round" />
    <path d="M91.074 70.334H116.277" stroke="#D2DDFF" stroke-width="2.29117" stroke-linecap="round" />
    <path
        d="M106.227 66.7471C106.227 95.0751 83.2219 118.049 54.8318 118.049C26.4416 118.049 3.43675 95.0751 3.43675 66.7471C3.43675 38.4191 26.4416 15.4448 54.8318 15.4448C83.2219 15.4448 106.227 38.4191 106.227 66.7471Z"
        fill="white" stroke="#2F55D3" stroke-width="6.8735" />
    <path
        d="M105.966 66.6172C105.966 94.8734 83.0199 117.789 54.7016 117.789C26.3833 117.789 3.43675 94.8734 3.43675 66.6172C3.43675 38.3609 26.3833 15.4448 54.7016 15.4448C83.0199 15.4448 105.966 38.3609 105.966 66.6172Z"
        stroke="#2F55D3" stroke-width="6.8735" />
    <path
        d="M79.6183 66.6175C79.6183 80.3552 68.4628 91.4918 54.7018 91.4918C40.9409 91.4918 29.7854 80.3552 29.7854 66.6175C29.7854 52.8798 40.9409 41.7432 54.7018 41.7432C68.4628 41.7432 79.6183 52.8798 79.6183 66.6175ZM31.8683 66.6175C31.8683 79.2068 42.0912 89.4124 54.7018 89.4124C67.3125 89.4124 77.5354 79.2068 77.5354 66.6175C77.5354 54.0282 67.3125 43.8225 54.7018 43.8225C42.0912 43.8225 31.8683 54.0282 31.8683 66.6175Z"
        fill="#D2DDFF" />
    <mask id="path-14-outside-1_467_1616" maskUnits="userSpaceOnUse" x="27.7854" y="39.7432" width="53" height="53"
        fill="black">
        <rect fill="white" x="27.7854" y="39.7432" width="53" height="53" />
        <path
            d="M30.8268 66.6175C30.2517 66.6175 29.7831 67.084 29.8072 67.6586C29.9983 72.2133 31.4402 76.6354 33.9846 80.4369C36.7224 84.5274 40.6138 87.7156 45.1667 89.5983C49.7196 91.481 54.7295 91.9736 59.5628 91.0138C64.3961 90.054 68.8358 87.685 72.3204 84.2062C75.805 80.7275 78.1781 76.2953 79.1395 71.4702C80.1009 66.6451 79.6075 61.6437 77.7216 57.0985C75.8357 52.5533 72.6421 48.6685 68.5447 45.9352C64.7358 43.3945 60.3049 41.955 55.7413 41.7648C55.1676 41.7409 54.7018 42.2086 54.7018 42.7828C54.7018 43.357 55.1676 43.82 55.7412 43.8461C59.8927 44.0349 63.9212 45.3519 67.3875 47.6641C71.1424 50.1689 74.0691 53.729 75.7973 57.8942C77.5255 62.0594 77.9777 66.6428 77.0967 71.0645C76.2156 75.4863 74.0409 79.548 70.8476 82.7359C67.6543 85.9239 63.5857 88.0949 59.1564 88.9744C54.7272 89.854 50.1361 89.4026 45.9638 87.6773C41.7915 85.952 38.2254 83.0303 35.7164 79.2817C33.4009 75.8222 32.0818 71.8018 31.8921 67.6586C31.8658 67.084 31.402 66.6175 30.8268 66.6175Z" />
    </mask>
    <path
        d="M30.8268 66.6175C30.2517 66.6175 29.7831 67.084 29.8072 67.6586C29.9983 72.2133 31.4402 76.6354 33.9846 80.4369C36.7224 84.5274 40.6138 87.7156 45.1667 89.5983C49.7196 91.481 54.7295 91.9736 59.5628 91.0138C64.3961 90.054 68.8358 87.685 72.3204 84.2062C75.805 80.7275 78.1781 76.2953 79.1395 71.4702C80.1009 66.6451 79.6075 61.6437 77.7216 57.0985C75.8357 52.5533 72.6421 48.6685 68.5447 45.9352C64.7358 43.3945 60.3049 41.955 55.7413 41.7648C55.1676 41.7409 54.7018 42.2086 54.7018 42.7828C54.7018 43.357 55.1676 43.82 55.7412 43.8461C59.8927 44.0349 63.9212 45.3519 67.3875 47.6641C71.1424 50.1689 74.0691 53.729 75.7973 57.8942C77.5255 62.0594 77.9777 66.6428 77.0967 71.0645C76.2156 75.4863 74.0409 79.548 70.8476 82.7359C67.6543 85.9239 63.5857 88.0949 59.1564 88.9744C54.7272 89.854 50.1361 89.4026 45.9638 87.6773C41.7915 85.952 38.2254 83.0303 35.7164 79.2817C33.4009 75.8222 32.0818 71.8018 31.8921 67.6586C31.8658 67.084 31.402 66.6175 30.8268 66.6175Z"
        fill="#2F55D3" />
    <path
        d="M30.8268 66.6175C30.2517 66.6175 29.7831 67.084 29.8072 67.6586C29.9983 72.2133 31.4402 76.6354 33.9846 80.4369C36.7224 84.5274 40.6138 87.7156 45.1667 89.5983C49.7196 91.481 54.7295 91.9736 59.5628 91.0138C64.3961 90.054 68.8358 87.685 72.3204 84.2062C75.805 80.7275 78.1781 76.2953 79.1395 71.4702C80.1009 66.6451 79.6075 61.6437 77.7216 57.0985C75.8357 52.5533 72.6421 48.6685 68.5447 45.9352C64.7358 43.3945 60.3049 41.955 55.7413 41.7648C55.1676 41.7409 54.7018 42.2086 54.7018 42.7828C54.7018 43.357 55.1676 43.82 55.7412 43.8461C59.8927 44.0349 63.9212 45.3519 67.3875 47.6641C71.1424 50.1689 74.0691 53.729 75.7973 57.8942C77.5255 62.0594 77.9777 66.6428 77.0967 71.0645C76.2156 75.4863 74.0409 79.548 70.8476 82.7359C67.6543 85.9239 63.5857 88.0949 59.1564 88.9744C54.7272 89.854 50.1361 89.4026 45.9638 87.6773C41.7915 85.952 38.2254 83.0303 35.7164 79.2817C33.4009 75.8222 32.0818 71.8018 31.8921 67.6586C31.8658 67.084 31.402 66.6175 30.8268 66.6175Z"
        stroke="#2F55D3" stroke-width="2.29117" mask="url(#path-14-outside-1_467_1616)" />
    <path
        d="M46.9448 70.144C46.586 70.1416 46.2357 70.0793 45.894 69.9573C45.5523 69.8328 45.2447 69.6314 44.9714 69.3532C44.698 69.0725 44.4807 68.7002 44.3197 68.2365C44.1586 67.7703 44.0792 67.193 44.0817 66.5047C44.0817 65.8627 44.15 65.2903 44.2867 64.7875C44.4234 64.2847 44.6199 63.86 44.8762 63.5134C45.1325 63.1643 45.4412 62.8983 45.8025 62.7152C46.1662 62.5322 46.5726 62.4406 47.0217 62.4406C47.4928 62.4406 47.9102 62.5334 48.2739 62.7189C48.64 62.9044 48.9353 63.1582 49.1599 63.4804C49.3845 63.8002 49.5236 64.1614 49.5773 64.5642H48.2409C48.1726 64.2762 48.0322 64.0467 47.8199 63.8759C47.6099 63.7026 47.3439 63.6159 47.0217 63.6159C46.5018 63.6159 46.1015 63.8417 45.8208 64.2932C45.5425 64.7448 45.4022 65.3648 45.3997 66.1532H45.451C45.5706 65.9384 45.7256 65.7541 45.916 65.6003C46.1064 65.4466 46.3212 65.3282 46.5604 65.2452C46.802 65.1598 47.0571 65.117 47.3256 65.117C47.7649 65.117 48.1591 65.222 48.5082 65.4319C48.8597 65.6418 49.1379 65.9311 49.343 66.2996C49.548 66.6658 49.6493 67.0856 49.6469 67.5591C49.6493 68.0522 49.537 68.4952 49.31 68.8882C49.083 69.2787 48.7669 69.5863 48.3617 69.8108C47.9566 70.0354 47.4842 70.1465 46.9448 70.144ZM46.9375 69.0456C47.2035 69.0456 47.4415 68.9809 47.6514 68.8516C47.8614 68.7222 48.0273 68.5477 48.1494 68.328C48.2714 68.1083 48.3312 67.8618 48.3288 67.5884C48.3312 67.3199 48.2726 67.0771 48.153 66.8598C48.0359 66.6426 47.8736 66.4705 47.6661 66.3436C47.4586 66.2167 47.2218 66.1532 46.9558 66.1532C46.7581 66.1532 46.5738 66.191 46.4029 66.2667C46.2321 66.3424 46.0832 66.4473 45.9563 66.5816C45.8293 66.7134 45.7293 66.8671 45.656 67.0429C45.5852 67.2162 45.5486 67.4017 45.5462 67.5994C45.5486 67.8606 45.6097 68.101 45.7293 68.3207C45.8489 68.5404 46.0136 68.7161 46.2235 68.8479C46.4334 68.9797 46.6714 69.0456 46.9375 69.0456ZM53.656 70.1843C53.0531 70.1843 52.5356 70.0317 52.1036 69.7266C51.674 69.4191 51.3433 68.9761 51.1114 68.3976C50.8819 67.8166 50.7672 67.1173 50.7672 66.2996C50.7697 65.482 50.8856 64.7863 51.115 64.2127C51.3469 63.6367 51.6777 63.1973 52.1073 62.8946C52.5393 62.592 53.0555 62.4406 53.656 62.4406C54.2564 62.4406 54.7727 62.592 55.2047 62.8946C55.6368 63.1973 55.9675 63.6367 56.1969 64.2127C56.4288 64.7887 56.5448 65.4844 56.5448 66.2996C56.5448 67.1198 56.4288 67.8203 56.1969 68.4012C55.9675 68.9797 55.6368 69.4215 55.2047 69.7266C54.7751 70.0317 54.2589 70.1843 53.656 70.1843ZM53.656 69.0383C54.1246 69.0383 54.4944 68.8076 54.7654 68.3463C55.0387 67.8826 55.1754 67.2003 55.1754 66.2996C55.1754 65.7041 55.1132 65.2037 54.9887 64.7985C54.8642 64.3933 54.6885 64.0882 54.4615 63.8832C54.2345 63.6757 53.966 63.572 53.656 63.572C53.1898 63.572 52.8212 63.8039 52.5503 64.2676C52.2793 64.7289 52.1426 65.4063 52.1402 66.2996C52.1378 66.8977 52.1976 67.4005 52.3196 67.8081C52.4441 68.2157 52.6198 68.5233 52.8468 68.7308C53.0738 68.9358 53.3436 69.0383 53.656 69.0383ZM61.7704 68.6356V68.2401C61.7704 67.9497 61.8314 67.6824 61.9534 67.4383C62.0779 67.1942 62.2585 66.9977 62.4953 66.8488C62.7321 66.6999 63.0189 66.6255 63.3557 66.6255C63.7023 66.6255 63.9928 66.6999 64.2271 66.8488C64.4614 66.9953 64.6384 67.1906 64.758 67.4347C64.88 67.6787 64.9411 67.9472 64.9411 68.2401V68.6356C64.9411 68.926 64.88 69.1933 64.758 69.4374C64.6359 69.6815 64.4565 69.878 64.2198 70.0269C63.9855 70.1758 63.6974 70.2502 63.3557 70.2502C63.014 70.2502 62.7247 70.1758 62.488 70.0269C62.2512 69.878 62.0718 69.6815 61.9498 69.4374C61.8302 69.1933 61.7704 68.926 61.7704 68.6356ZM62.726 68.2401V68.6356C62.726 68.8284 62.7723 69.0054 62.8651 69.1665C62.9578 69.3275 63.1214 69.4081 63.3557 69.4081C63.5925 69.4081 63.7548 69.3288 63.8427 69.1701C63.933 69.009 63.9781 68.8308 63.9781 68.6356V68.2401C63.9781 68.0449 63.9354 67.8667 63.85 67.7056C63.7646 67.5421 63.5998 67.4603 63.3557 67.4603C63.1263 67.4603 62.964 67.5421 62.8688 67.7056C62.7736 67.8667 62.726 68.0449 62.726 68.2401ZM57.9589 64.3445V63.9491C57.9589 63.6562 58.0212 63.3877 58.1457 63.1436C58.2702 62.8995 58.4508 62.7042 58.6875 62.5578C58.9243 62.4089 59.2111 62.3344 59.548 62.3344C59.8921 62.3344 60.1814 62.4089 60.4157 62.5578C60.6524 62.7042 60.8306 62.8995 60.9502 63.1436C61.0698 63.3877 61.1296 63.6562 61.1296 63.9491V64.3445C61.1296 64.6374 61.0686 64.9059 60.9466 65.15C60.827 65.3916 60.6488 65.5857 60.412 65.7321C60.1753 65.8786 59.8872 65.9518 59.548 65.9518C59.2038 65.9518 58.9133 65.8786 58.6766 65.7321C58.4422 65.5857 58.2641 65.3904 58.142 65.1463C58.02 64.9022 57.9589 64.635 57.9589 64.3445ZM58.9219 63.9491V64.3445C58.9219 64.5398 58.967 64.718 59.0573 64.8791C59.1501 65.0377 59.3136 65.117 59.548 65.117C59.7823 65.117 59.9434 65.0377 60.0312 64.8791C60.1216 64.718 60.1667 64.5398 60.1667 64.3445V63.9491C60.1667 63.7538 60.124 63.5756 60.0386 63.4145C59.9531 63.251 59.7896 63.1692 59.548 63.1692C59.3161 63.1692 59.1537 63.251 59.061 63.4145C58.9682 63.5781 58.9219 63.7563 58.9219 63.9491ZM58.3763 70.0415L63.5315 62.5431H64.4468L59.2917 70.0415H58.3763Z"
        fill="#2F55D3" />
    <path
        d="M99.0931 1.14535C113.647 1.14535 125.442 12.9229 125.442 27.4473C125.442 41.9716 113.647 53.7492 99.0931 53.7492C84.5395 53.7492 72.7447 41.9716 72.7447 27.4473C72.7447 12.923 84.5395 1.14535 99.0931 1.14535Z"
        fill="white" stroke="#D2DDFF" stroke-width="2.29117" />
    <rect x="92.7925" y="12.5798" width="29.7348" height="5.72791" rx="2.86396" transform="rotate(90 92.7925 12.5798)"
        fill="#F469A4" />
    <rect x="113.413" y="24.5881" width="17.7265" height="5.72791" rx="2.86396" transform="rotate(90 113.413 24.5881)"
        fill="#33D1BF" />
    <rect x="103.103" y="16.011" width="26.3039" height="5.72791" rx="2.86396" transform="rotate(90 103.103 16.011)"
        fill="#2F55D3" />
</svg>
