<svg width="88" height="50" viewBox="0 0 88 50" fill="none" xmlns="http://www.w3.org/2000/svg">
<path d="M27.7905 28.2506C27.7905 27.8362 27.4492 27.5004 27.0269 27.5004H26.2633V26.7502C26.2633 26.3359 25.922 26 25.4998 26C25.078 26 24.7362 26.3359 24.7362 26.7502V27.5004H23.9726C23.5508 27.5004 23.209 27.8362 23.209 28.2506C23.209 28.6649 23.5503 29.0008 23.9726 29.0008H24.7362V29.751C24.7362 30.1653 25.0775 30.5012 25.4998 30.5012C25.9215 30.5012 26.2633 30.1653 26.2633 29.751V29.0008H27.0269C27.4492 29.0003 27.7905 28.6644 27.7905 28.2506Z" fill="#1A3989"/>
<path d="M64.0269 19.5004H63.2633V18.7502C63.2633 18.3359 62.922 18 62.4998 18C62.078 18 61.7362 18.3359 61.7362 18.7502V19.5004H60.9726C60.5508 19.5004 60.209 19.8362 60.209 20.2506C60.209 20.6649 60.5503 21.0008 60.9726 21.0008H61.7362V21.751C61.7362 22.1653 62.0775 22.5012 62.4998 22.5012C62.9215 22.5012 63.2633 22.1653 63.2633 21.751V21.0008H64.0269C64.4487 21.0008 64.7905 20.6649 64.7905 20.2506C64.7905 19.8357 64.4487 19.5004 64.0269 19.5004Z" fill="#1A3989"/>
<path d="M69.0269 25.5004H68.2633V24.7502C68.2633 24.3359 67.922 24 67.4998 24C67.078 24 66.7362 24.3359 66.7362 24.7502V25.5004H65.9726C65.5508 25.5004 65.209 25.8362 65.209 26.2506C65.209 26.6649 65.5503 27.0008 65.9726 27.0008H66.7362V27.751C66.7362 28.1653 67.0775 28.5012 67.4998 28.5012C67.9215 28.5012 68.2633 28.1653 68.2633 27.751V27.0008H69.0269C69.4487 27.0008 69.7905 26.6649 69.7905 26.2506C69.7905 25.8357 69.4487 25.5004 69.0269 25.5004Z" fill="#1A3989"/>
<path d="M21.2622 18C19.578 18 18.209 19.3461 18.209 20.9997C18.209 22.6539 19.5786 23.9993 21.2622 23.9993C22.9464 23.9993 24.3154 22.6532 24.3154 20.9997C24.3154 19.3461 22.9458 18 21.2622 18ZM21.2622 22.5001C20.4203 22.5001 19.7356 21.8274 19.7356 21.0003C19.7356 20.1733 20.4209 19.5005 21.2622 19.5005C22.1041 19.5005 22.7888 20.1733 22.7888 21.0003C22.7888 21.8274 22.1035 22.5001 21.2622 22.5001Z" fill="#6588E1"/>
<path d="M64.2622 31C62.578 31 61.209 32.3461 61.209 33.9997C61.209 35.6539 62.5786 36.9993 64.2622 36.9993C65.9464 36.9993 67.3154 35.6532 67.3154 33.9997C67.3154 32.3461 65.9458 31 64.2622 31ZM64.2622 35.5001C63.4203 35.5001 62.7356 34.8274 62.7356 34.0003C62.7356 33.1733 63.4209 32.5005 64.2622 32.5005C65.1041 32.5005 65.7888 33.1733 65.7888 34.0003C65.7888 34.8274 65.1035 35.5001 64.2622 35.5001Z" fill="#6588E1"/>
<path d="M61.1008 38.3166L61.1008 38.3165C60.7432 37.668 60.3191 37.0807 59.8405 36.5717L59.7312 36.6744L59.8405 36.5717C58.4465 35.089 57.6814 33.2177 57.6814 31.3029V22.9657C57.6814 17.1276 54.0338 11.9733 48.566 10.0159V9.22232C48.566 7.25881 47.3421 5.57963 45.6192 4.9002C46.0415 4.47045 46.3026 3.8813 46.3026 3.232C46.3026 1.91851 45.2341 0.85 43.9206 0.85C42.6071 0.85 41.5386 1.91851 41.5386 3.232C41.5386 3.88165 41.8003 4.47114 42.223 4.90091C40.4999 5.58065 39.2756 7.25938 39.2756 9.22223V10.0158C33.8089 11.9736 30.1617 17.1275 30.1617 22.9656V31.2784C30.1617 33.2383 29.4148 35.097 28.0584 36.5133C27.5535 37.0399 27.1102 37.647 26.7411 38.3173C26.0382 39.5936 25.6664 41.0279 25.6664 42.4664C25.666 44.0103 26.9217 45.2659 28.4659 45.2659H38.8499C39.1077 47.4499 40.9673 49.15 43.22 49.15H44.6237C46.8759 49.15 48.736 47.4499 48.9937 45.2659H59.3768C60.9166 45.2659 62.1732 44.0195 62.1767 42.4851C62.1796 41.04 61.8074 39.599 61.1008 38.3166ZM28.7661 37.2751L28.8083 37.2311C30.351 35.6213 31.2007 33.5068 31.2007 31.2776V22.9652C31.2007 17.4778 34.6838 12.6429 39.8789 10.9038H47.9651C53.1599 12.6435 56.6438 17.4781 56.6438 22.9652V31.3028C56.6438 33.4873 57.5123 35.6108 59.0848 37.283C59.3063 37.5186 59.5153 37.7743 59.7098 38.0481L28.1339 38.0478C28.3298 37.7724 28.5409 37.5143 28.7661 37.2751ZM26.7058 42.4657C26.7054 41.3026 26.9829 40.1406 27.51 39.0863H60.3328C60.8634 40.1459 61.1409 41.3139 61.1384 42.4827C61.1361 43.4436 60.3467 44.2271 59.377 44.2271H28.4668C27.4961 44.2271 26.7058 43.4369 26.7058 42.4657L26.7058 42.4657ZM44.6235 48.1115H43.2198C41.5412 48.1115 40.1453 46.8757 39.8947 45.2659H47.9485C47.698 46.8757 46.302 48.1115 44.6235 48.1115ZM43.9207 1.88838C44.6614 1.88838 45.2643 2.49118 45.2643 3.23192C45.2643 3.97264 44.6615 4.57546 43.9207 4.57546C43.18 4.57546 42.5772 3.97267 42.5772 3.23192C42.5772 2.49122 43.1803 1.88838 43.9207 1.88838ZM43.9225 5.61383C45.91 5.61383 47.5272 7.23263 47.5272 9.22215V9.86109H40.3142V9.22215C40.3142 7.23242 41.9335 5.61383 43.9225 5.61383Z" fill="#FAA8A8" stroke="#FAA8A8" stroke-width="0.3"/>
<path d="M63.3782 14.7792C63.6651 14.7792 63.8974 14.5469 63.8974 14.26C63.8974 8.24997 59.0083 3.36074 52.9981 3.36074C52.7112 3.36074 52.4789 3.59305 52.4789 3.87997C52.4789 4.1669 52.7112 4.39921 52.9981 4.39921C58.435 4.39921 62.8589 8.82264 62.8589 14.26C62.8589 14.5465 63.0911 14.7792 63.3782 14.7792Z" fill="#6588E1" stroke="#6588E1" stroke-width="0.3"/>
<path d="M52.9981 8.21987C52.7112 8.21987 52.4789 8.45218 52.4789 8.7391C52.4789 9.02603 52.7112 9.25834 52.9981 9.25834C55.7556 9.25834 57.9994 11.5021 57.9994 14.2596C57.9994 14.5465 58.2317 14.7788 58.5186 14.7788C58.8055 14.7788 59.0378 14.5465 59.0378 14.2596C59.0378 10.9293 56.3284 8.21987 52.9981 8.21987Z" fill="#6588E1" stroke="#6588E1" stroke-width="0.3"/>
<path d="M24.5782 14.7792C24.8651 14.7792 25.0974 14.5469 25.0974 14.26C25.0974 8.8231 29.5209 4.39921 34.9582 4.39921C35.2452 4.39921 35.4775 4.1669 35.4775 3.87997C35.4775 3.59305 35.2452 3.36074 34.9582 3.36074C28.9486 3.36074 24.059 8.2495 24.059 14.26C24.059 14.5464 24.2907 14.7792 24.5782 14.7792Z" fill="#6588E1" stroke="#6588E1" stroke-width="0.3"/>
<path d="M34.9581 8.21987C31.6275 8.21987 28.9184 10.929 28.9184 14.2596C28.9184 14.5465 29.1507 14.7788 29.4376 14.7788C29.7245 14.7788 29.9568 14.5465 29.9568 14.2596C29.9568 11.5021 32.2006 9.25834 34.9581 9.25834C35.245 9.25834 35.4773 9.02603 35.4773 8.7391C35.4773 8.45273 35.2455 8.21987 34.9581 8.21987Z" fill="#6588E1" stroke="#6588E1" stroke-width="0.3"/>
<path d="M30.3067 42.9407C30.5937 42.9407 30.826 42.7084 30.826 42.4214V40.8929C30.826 40.606 30.5937 40.3737 30.3067 40.3737C30.0198 40.3737 29.7875 40.606 29.7875 40.8929V42.4214C29.7875 42.7084 30.0198 42.9407 30.3067 42.9407Z" fill="#FAA8A8" stroke="#FAA8A8" stroke-width="0.3"/>
<path d="M39.3849 42.9407C39.6718 42.9407 39.9041 42.7084 39.9041 42.4214V40.8929C39.9041 40.606 39.6718 40.3737 39.3849 40.3737C39.0979 40.3737 38.8656 40.606 38.8656 40.8929V42.4214C38.8656 42.7084 39.0979 42.9407 39.3849 42.9407Z" fill="#FAA8A8" stroke="#FAA8A8" stroke-width="0.3"/>
<path d="M48.4601 42.9407C48.747 42.9407 48.9793 42.7084 48.9793 42.4214V40.8929C48.9793 40.606 48.747 40.3737 48.4601 40.3737C48.1731 40.3737 47.9408 40.606 47.9408 40.8929V42.4214C47.9408 42.7083 48.1727 42.9407 48.4601 42.9407Z" fill="#FAA8A8" stroke="#FAA8A8" stroke-width="0.3"/>
<path d="M57.5362 42.9407C57.8231 42.9407 58.0555 42.7084 58.0555 42.4214V40.8929C58.0555 40.606 57.8231 40.3737 57.5362 40.3737C57.2493 40.3737 57.017 40.606 57.017 40.8929V42.4214C57.017 42.7085 57.2498 42.9407 57.5362 42.9407Z" fill="#FAA8A8" stroke="#FAA8A8" stroke-width="0.3"/>
<path d="M54.7122 36.526C54.8068 36.6978 54.9846 36.7943 55.167 36.7943C55.2518 36.7943 55.338 36.7735 55.4172 36.7301L55.4175 36.7299C55.6685 36.5915 55.7599 36.2752 55.621 36.0244C54.8144 34.5637 54.3885 32.9314 54.3885 31.3038C54.3885 31.0169 54.1562 30.7846 53.8692 30.7846C53.5823 30.7846 53.35 31.0169 53.35 31.3038C53.35 33.1081 53.8211 34.9138 54.7122 36.526ZM54.7122 36.526C54.7122 36.5259 54.7121 36.5259 54.7121 36.5259L54.8435 36.4536M54.7122 36.526C54.7122 36.526 54.7122 36.5261 54.7123 36.5261L54.8435 36.4536M54.8435 36.4536C54.9106 36.5754 55.0368 36.6443 55.167 36.6443C55.2272 36.6443 55.2885 36.6295 55.3451 36.5985L55.4897 36.097C54.6712 34.6146 54.2385 32.9574 54.2385 31.3038C54.2385 31.3038 54.2385 31.3038 54.2385 31.3038C54.2384 31.0997 54.0733 30.9346 53.8692 30.9346C53.6651 30.9346 53.5 31.0997 53.5 31.3038C53.5 33.0822 53.9644 34.8631 54.8435 36.4536Z" fill="#FAA8A8" stroke="#FAA8A8" stroke-width="0.3"/>
<path d="M41.3657 14.1611L41.3658 14.1611C41.6353 14.0633 41.7749 13.7658 41.6775 13.4964C41.58 13.2264 41.2814 13.0876 41.0131 13.1845L40.9169 13.2193L40.9169 13.2202C36.4491 14.8823 33.4555 19.1871 33.4555 23.9644C33.4555 24.2513 33.6878 24.4837 33.9747 24.4837C34.2616 24.4837 34.4939 24.2513 34.4939 23.9644C34.4939 19.5884 37.2558 15.6486 41.3657 14.1611Z" fill="#FAA8A8" stroke="#FAA8A8" stroke-width="0.3"/>
</svg>
