<svg width="88" height="50" viewBox="0 0 88 50" fill="none" xmlns="http://www.w3.org/2000/svg">
<path d="M24.6494 5.72021C23.6554 5.72021 22.8457 6.52889 22.8457 7.52389C22.8457 8.51894 23.6544 9.32757 24.6494 9.32757C25.6444 9.32757 26.4531 8.51889 26.4531 7.52389C26.4531 6.52884 25.6439 5.72021 24.6494 5.72021ZM24.6494 8.16748C24.2947 8.16748 24.0053 7.87808 24.0053 7.52344C24.0053 7.1688 24.2947 6.8794 24.6494 6.8794C25.004 6.8794 25.2934 7.1688 25.2934 7.52344C25.2934 7.87808 25.0045 8.16748 24.6494 8.16748Z" fill="#6588E1"/>
<path d="M31.1162 5.72021C30.1222 5.72021 29.3125 6.52889 29.3125 7.52389C29.3125 8.51894 30.1212 9.32757 31.1162 9.32757C32.1112 9.32757 32.9199 8.51889 32.9199 7.52389C32.9199 6.52884 32.1107 5.72021 31.1162 5.72021ZM31.1162 8.16748C30.7615 8.16748 30.4721 7.87808 30.4721 7.52344C30.4721 7.1688 30.7615 6.8794 31.1162 6.8794C31.4708 6.8794 31.7602 7.1688 31.7602 7.52344C31.7602 7.87808 31.4713 8.16748 31.1162 8.16748Z" fill="#6588E1"/>
<path d="M37.583 5.72021C36.589 5.72021 35.7793 6.52889 35.7793 7.52389C35.7793 8.51894 36.588 9.32757 37.583 9.32757C38.578 9.32757 39.3866 8.51889 39.3866 7.52389C39.3866 6.52884 38.5769 5.72021 37.583 5.72021ZM37.583 8.16748C37.2283 8.16748 36.9389 7.87808 36.9389 7.52344C36.9389 7.1688 37.2283 6.8794 37.583 6.8794C37.9376 6.8794 38.227 7.1688 38.227 7.52344C38.227 7.87808 37.9376 8.16748 37.583 8.16748Z" fill="#6588E1"/>
<path d="M61.209 7H65.209V8H61.209V7Z" fill="#6588E1"/>
<path d="M67.8282 0.850662H21.4385C19.5439 0.850662 18.059 2.78083 18.059 5.0756V44.9251C18.059 47.2204 19.5447 49.15 21.4385 49.15H67.979C69.8737 49.15 71.3586 47.2198 71.3586 44.9251V34.7348L71.359 26.2753V5.07494C71.359 2.78014 69.8737 0.85 67.979 0.85H67.8282L67.8282 0.850662ZM19.2774 44.9243V13.3201H70.1397V19.8984V19.926L70.1399 19.9265V44.9243C70.1399 46.4833 69.1396 47.6895 67.9795 47.6895H21.4379C20.277 47.6895 19.2774 46.4828 19.2774 44.9243ZM70.138 5.07507L70.1384 11.8609H19.2766V5.07507C19.2766 3.51601 20.2769 2.30982 21.437 2.30982H67.9776C69.1385 2.30982 70.138 3.5165 70.138 5.07507Z" fill="#FAA8A8" stroke="#FAA8A8" stroke-width="0.3"/>
<path d="M42.3077 33.7434L42.4369 33.6305L42.3077 33.5176L38.2829 29.9995L42.3077 26.4825L42.4369 26.3695L42.3077 26.2566L41.8849 25.8871L41.7862 25.8008L41.6875 25.887L37.1103 29.8866L36.981 29.9995L37.1103 30.1125L41.6874 34.1129L41.7861 34.1992L41.8849 34.1129L42.3077 33.7434Z" fill="#6588E1" stroke="#6588E1" stroke-width="0.3"/>
<path d="M49.4366 34.1013L49.5473 34.2222L49.6579 34.1013L53.3196 30.1008L53.4123 29.9995L53.3196 29.8983L49.6579 25.8987L49.5472 25.7779L49.4366 25.8987L49.0983 26.2682L49.0056 26.3695L49.0983 26.4708L52.3286 29.9995L49.0983 33.5292L49.0056 33.6305L49.0983 33.7318L49.4366 34.1013Z" fill="#6588E1" stroke="#6588E1" stroke-width="0.3"/>
<path d="M46.7273 25.8564L46.5855 25.8136L46.5409 25.9549L44.0659 33.7963L44.0202 33.9411L44.1656 33.985L44.6906 34.1436L44.8325 34.1864L44.8771 34.0451L47.352 26.2037L47.3977 26.0589L47.2524 26.015L46.7273 25.8564Z" fill="#6588E1" stroke="#6588E1" stroke-width="0.3"/>
<path d="M8.37565 12.3333H7.54232V13.1667C7.54232 13.6269 7.16982 14 6.70898 14C6.24873 14 5.87565 13.6269 5.87565 13.1667V12.3333H5.04232C4.58207 12.3333 4.20898 11.9603 4.20898 11.5C4.20898 11.0397 4.58149 10.6667 5.04232 10.6667H5.87565V9.83334C5.87565 9.37308 6.24815 9 6.70898 9C7.16924 9 7.54232 9.37308 7.54232 9.83334V10.6667H8.37565C8.8359 10.6667 9.20898 11.0397 9.20898 11.5C9.20898 11.9608 8.8359 12.3333 8.37565 12.3333Z" fill="#1A3989"/>
<path d="M13.3756 4.33333H12.5423V5.16666C12.5423 5.62692 12.1698 6 11.709 6C11.2487 6 10.8756 5.62692 10.8756 5.16666V4.33333H10.0423C9.58207 4.33333 9.20898 3.96026 9.20898 3.5C9.20898 3.03974 9.58149 2.66667 10.0423 2.66667H10.8756V1.83334C10.8756 1.37308 11.2481 1 11.709 1C12.1692 1 12.5423 1.37308 12.5423 1.83334V2.66667H13.3756C13.8359 2.66667 14.209 3.03974 14.209 3.5C14.209 3.96084 13.8359 4.33333 13.3756 4.33333Z" fill="#1A3989"/>
<path d="M12.2622 18C10.578 18 9.20898 19.3461 9.20898 20.9997C9.20898 22.6539 10.5786 23.9993 12.2622 23.9993C13.9464 23.9993 15.3154 22.6532 15.3154 20.9997C15.3154 19.3461 13.9458 18 12.2622 18ZM12.2622 22.5001C11.4203 22.5001 10.7356 21.8274 10.7356 21.0003C10.7356 20.1733 11.4209 19.5005 12.2622 19.5005C13.1041 19.5005 13.7888 20.1733 13.7888 21.0003C13.7888 21.8274 13.1035 22.5001 12.2622 22.5001Z" fill="#6588E1"/>
<path d="M78.0269 31.5004L77.2633 31.5004L77.2633 30.7502C77.2633 30.3359 76.922 30 76.4998 30C76.078 30 75.7362 30.3359 75.7362 30.7502L75.7362 31.5004L74.9726 31.5004C74.5508 31.5004 74.209 31.8362 74.209 32.2506C74.209 32.6649 74.5503 33.0008 74.9726 33.0008L75.7362 33.0008L75.7362 33.751C75.7362 34.1653 76.0775 34.5012 76.4998 34.5012C76.9215 34.5012 77.2633 34.1653 77.2633 33.751L77.2633 33.0008L78.0269 33.0008C78.4487 33.0008 78.7905 32.6649 78.7905 32.2506C78.7905 31.8357 78.4487 31.5004 78.0269 31.5004Z" fill="#1A3989"/>
<path d="M83.0269 37.5004L82.2633 37.5004L82.2633 36.7502C82.2633 36.3359 81.922 36 81.4998 36C81.078 36 80.7362 36.3359 80.7362 36.7502L80.7362 37.5004L79.9726 37.5004C79.5508 37.5004 79.209 37.8362 79.209 38.2506C79.209 38.6649 79.5503 39.0008 79.9726 39.0008L80.7362 39.0008L80.7362 39.751C80.7362 40.1653 81.0775 40.5012 81.4998 40.5012C81.9215 40.5012 82.2633 40.1653 82.2633 39.751L82.2633 39.0008L83.0269 39.0008C83.4487 39.0008 83.7905 38.6649 83.7905 38.2506C83.7905 37.8357 83.4487 37.5004 83.0269 37.5004Z" fill="#1A3989"/>
<path d="M78.2602 43C76.5761 43 75.207 44.3461 75.207 45.9997C75.207 47.6539 76.5766 48.9993 78.2602 48.9993C79.9444 48.9993 81.3135 47.6532 81.3135 45.9997C81.3135 44.3461 79.9439 43 78.2602 43ZM78.2602 47.5001C77.4184 47.5001 76.7336 46.8274 76.7336 46.0003C76.7336 45.1733 77.4189 44.5005 78.2602 44.5005C79.1021 44.5005 79.7869 45.1733 79.7869 46.0003C79.7869 46.8274 79.1015 47.5001 78.2602 47.5001Z" fill="#6588E1"/>
</svg>
