<svg width="116" height="55" viewBox="0 0 116 55" fill="none" xmlns="http://www.w3.org/2000/svg">
<rect x="0.191406" width="115.151" height="55.0005" rx="8" fill="white"/>
<path d="M41.4172 30.8181V44.416C40.1669 45.8147 38.5259 46.8248 36.416 47.5241C34.3843 48.3012 32.1181 48.612 29.6175 48.612C25.1632 48.612 21.4905 47.2133 18.521 44.3383C16.2548 42.2404 14.8482 39.6762 14.3012 36.7235H12.5039V34.3924H14.0668C14.0668 34.237 14.0668 34.0039 14.0668 33.8485C14.0668 33.6154 14.0668 33.3823 14.0668 33.0715H12.5039V30.7404H14.3794C14.8482 28.0208 16.1767 25.5343 18.2866 23.4364C19.4587 22.2708 20.709 21.3384 22.1156 20.7168C21.8031 20.0951 21.4905 19.4735 21.3342 18.7742C21.256 18.3857 21.1779 17.9972 21.0998 17.6087C21.0998 17.2979 21.0998 17.0647 21.0998 16.7539C21.0998 16.4431 21.0998 16.21 21.1779 15.9769C21.1779 15.8215 21.3342 15.6661 21.4905 15.5884C21.6468 15.5107 21.8031 15.5884 21.8812 15.6661C22.1938 15.8992 22.4282 16.1323 22.6626 16.3654C22.7408 16.4431 22.8971 16.5208 22.9752 16.5985C23.1315 16.6762 23.3659 16.6762 23.4441 16.5208C23.5222 16.4431 23.5222 16.3654 23.5222 16.2877C23.5222 16.0546 23.5222 15.8215 23.5222 15.5884V15.433C23.5222 15.0445 23.5222 14.7337 23.6004 14.3452C23.6785 13.4127 23.8348 12.4803 24.1474 11.5479C24.3818 10.6931 24.7725 9.91611 25.2414 9.13909C25.6321 8.59517 26.101 7.97355 26.7261 7.58504C27.195 7.11882 27.8983 6.80801 28.6016 6.4972C28.7579 6.4972 28.9142 6.4195 29.0705 6.3418C29.1486 6.3418 29.3049 6.3418 29.383 6.4195C29.4612 6.4972 29.4612 6.57491 29.4612 6.65261C29.383 6.88572 29.383 7.04112 29.3049 7.27423C29.2267 7.50733 29.2267 7.81815 29.1486 8.05125C29.1486 8.28436 29.0705 8.51747 29.0705 8.82828C29.0705 9.06138 29.0705 9.29449 29.0705 9.5276C29.0705 10.0715 29.1486 10.6931 29.383 11.1594C29.4612 11.5479 29.6956 11.8587 29.8519 12.1695C30.0863 12.4026 30.2426 12.558 30.5552 12.7911C30.7896 12.9465 31.1022 13.0242 31.4148 12.9465C31.7274 12.9465 31.9618 12.8688 32.1962 12.7134C32.5088 12.558 32.7432 12.3249 32.8995 12.0141C32.9777 11.9364 33.0558 11.781 33.1339 11.7033C33.1339 11.7033 33.1339 11.6256 33.2121 11.6256C33.2902 11.4702 33.6028 11.4702 33.681 11.6256C33.7591 11.781 33.9154 12.0141 33.9935 12.1695C34.228 12.6357 34.4624 13.1796 34.5405 13.7235C34.5405 13.8789 34.6187 14.112 34.6187 14.3452C34.6187 14.5783 34.6187 14.7337 34.6187 14.8891C34.6187 15.5107 34.5405 16.1323 34.3061 16.6762C34.3061 16.7539 34.228 16.8316 34.3061 16.987C34.3843 17.2202 34.6187 17.3756 34.9313 17.2979C35.0094 17.2979 35.0094 17.2202 35.0876 17.2202C35.2438 17.1424 35.4783 16.987 35.6346 16.8316C35.6346 16.8316 35.7127 16.7539 35.7908 16.7539C35.869 16.7539 35.9471 16.8316 35.9471 16.9093V17.2979C35.9471 17.4533 35.9471 17.6087 35.9471 17.6864C35.9471 17.9972 35.869 18.2303 35.869 18.4634C35.6346 19.0073 35.4001 19.5512 35.1657 20.0951C37.4319 20.8722 39.3073 22.1931 40.9484 23.9803L36.416 28.4093C34.5405 26.389 32.1181 25.3012 29.2267 25.3012C26.7261 25.3012 24.6162 26.1559 22.9752 27.7877C22.0375 28.7201 21.4123 29.7303 21.0216 30.8181H23.4441V33.1492H20.5527C20.5527 33.3823 20.5527 33.6154 20.5527 33.9262C20.5527 34.0816 20.5527 34.3147 20.5527 34.4701H23.4441V36.8012H20.9435C21.3342 38.0444 22.0375 39.1323 22.9752 40.0647C24.6162 41.6964 26.8043 42.4735 29.5393 42.4735C32.0399 42.4735 33.9154 42.0073 35.0876 41.0748V36.8012H29.5393V30.8181H41.4172Z" fill="#7C8EBE"/>
<path d="M29.6175 49C25.0852 49 21.2561 47.5237 18.2866 44.6487C16.0205 42.5507 14.6139 39.9865 13.9887 37.1115H12.1914V34.0811H13.7543C13.7543 34.0034 13.7543 33.9257 13.7543 33.848C13.7543 33.6926 13.7543 33.6149 13.7543 33.4595H12.1914V30.5068H14.0669C14.6139 27.7095 16.0205 25.3007 18.0522 23.2027C19.1462 22.1149 20.3184 21.1825 21.6468 20.4832C21.4124 20.0169 21.178 19.473 21.0217 18.8514C20.9435 18.4629 20.8654 18.0744 20.7873 17.6859C20.7873 17.3751 20.7873 17.0642 20.7873 16.7534C20.7873 16.4426 20.7873 16.2095 20.8654 15.8987C20.9435 15.5879 21.0998 15.3548 21.4124 15.2771C21.725 15.1994 22.0376 15.2771 22.272 15.5102C22.4283 15.6656 22.6627 15.8987 22.8971 16.0541C22.9753 16.1318 23.1316 16.2095 23.2097 16.2872C23.2097 16.1318 23.2097 16.0541 23.2097 15.9764C23.2097 15.821 23.2097 15.7433 23.2097 15.5879V15.4325C23.2097 15.1994 23.2097 15.044 23.2097 14.8886C23.2097 14.7332 23.2097 14.5001 23.2097 14.3447C23.2879 13.3345 23.4442 12.3244 23.7567 11.4697C23.9912 10.6149 24.3819 9.76021 24.8508 8.98318C25.3196 8.28386 25.7885 7.73994 26.4136 7.27372C26.9606 6.80751 27.6639 6.419 28.4454 6.10819C28.6798 6.10819 28.8361 6.10819 28.9142 6.03048C29.2268 5.95278 29.4613 6.03048 29.6175 6.18589C29.7738 6.34129 29.852 6.5744 29.7738 6.80751C29.6957 6.96291 29.6957 7.11832 29.6957 7.27372C29.6175 7.50683 29.6175 7.81764 29.5394 8.05075C29.5394 8.28386 29.4613 8.51696 29.4613 8.75007C29.4613 9.06088 29.4613 9.29399 29.4613 9.4494C29.4613 9.99331 29.5394 10.5372 29.6957 11.0034C29.7738 11.3143 29.9301 11.6251 30.1645 11.9359C30.3208 12.169 30.4771 12.3244 30.7116 12.4798C30.946 12.5575 31.1804 12.6352 31.3367 12.6352C31.5711 12.6352 31.8056 12.5575 32.04 12.4021C32.2744 12.2467 32.5089 12.0913 32.6652 11.8582C32.6652 11.7805 32.7433 11.7805 32.7433 11.7028C32.7433 11.6251 32.8214 11.5474 32.8996 11.4697L33.0559 11.3143C33.2903 11.0812 33.8373 11.0812 33.9936 11.392L34.3062 12.0136C34.6188 12.5575 34.7751 13.1791 34.9313 13.723V13.9561C34.9313 14.1115 35.0095 14.267 35.0095 14.4224C35.0095 14.5001 35.0095 14.5778 35.0095 14.6555C35.0095 14.7332 35.0095 14.8109 35.0095 14.8886C35.0095 15.6656 34.8532 16.2872 34.6188 16.7534V16.8311L34.6969 16.9088H34.7751L34.9313 16.8311C35.0876 16.8311 35.1658 16.7534 35.3221 16.598C35.4783 16.4426 35.6346 16.4426 35.7128 16.4426C36.0254 16.4426 36.1816 16.6757 36.1816 16.9088V17.2974C36.1816 17.3751 36.1816 17.4528 36.1816 17.5305C36.1816 17.6082 36.1816 17.6082 36.1816 17.6859C36.1816 17.9967 36.1035 18.3075 36.0254 18.5406C35.9472 19.0068 35.7909 19.473 35.6346 19.9392C37.7445 20.7163 39.62 22.0372 41.1829 23.8244L41.4173 23.9798L36.3379 28.875L36.1035 28.6419C34.3062 26.6217 31.9619 25.6115 29.1487 25.6115C26.7262 25.6115 24.7726 26.3886 23.2097 28.0203C22.5064 28.7196 21.9594 29.5744 21.5687 30.4291H23.8349V33.4595H20.8654C20.8654 33.6149 20.8654 33.6926 20.8654 33.848C20.8654 33.9257 20.8654 34.0034 20.8654 34.0811H23.7567V37.1115H21.4124C21.8031 38.0439 22.4283 38.9764 23.2097 39.7534C24.7726 41.3074 26.9606 42.0845 29.5394 42.0845C31.8837 42.0845 33.681 41.696 34.7751 40.8412V37.1892H29.1487V30.5068H41.7299V44.571L41.6517 44.6487C40.3233 46.0473 38.6041 47.1351 36.5724 47.8345C34.4625 48.6115 32.1181 49 29.6175 49ZM12.8947 36.4122H14.6139V36.6453C15.1609 39.5203 16.5675 42.0068 18.7555 44.1047C21.6468 46.902 25.3196 48.3007 29.6175 48.3007C32.04 48.3007 34.3062 47.9122 36.3379 47.2128C38.2915 46.5912 39.8544 45.5811 41.0266 44.2601V31.2061H29.852V36.4899H35.4783V41.2297L35.3221 41.3074C34.0718 42.3176 32.1182 42.7838 29.5394 42.7838C26.7262 42.7838 24.46 41.9291 22.7409 40.2196C21.725 39.2872 21.0217 38.1216 20.631 36.8007L20.4747 36.4122H23.1316V34.7804H20.2402L20.1621 34.4696C20.1621 34.2365 20.1621 34.0811 20.1621 33.848C20.1621 33.6149 20.1621 33.3041 20.1621 33.071V32.7602H23.0534V31.1284H20.5528L20.7091 30.6622C21.0998 29.5744 21.8031 28.4865 22.6627 27.5541C24.3819 25.8446 26.5699 24.9899 29.1487 24.9899C32.04 24.9899 34.4625 26 36.4161 27.9426L40.4796 24.0575C38.9167 22.4257 37.1975 21.2602 35.0876 20.4832L34.6969 20.3278L34.8532 20.0169C35.0876 19.5507 35.2439 19.0068 35.4002 18.3852C35.4783 18.1521 35.4783 17.919 35.4783 17.6859C35.4783 17.6859 35.4783 17.6082 35.4783 17.5305C35.4783 17.4528 35.4783 17.4528 35.4783 17.3751C35.4783 17.3751 35.3221 17.4528 35.2439 17.5305L35.0876 17.6082C34.7751 17.6859 34.5406 17.6859 34.3843 17.6082C34.1499 17.4528 33.9936 17.2974 33.9936 17.0642C33.9155 16.9088 33.9936 16.7534 33.9936 16.6757V16.598C34.228 16.0541 34.3062 15.5879 34.3062 14.8886C34.3062 14.8109 34.3062 14.7332 34.3062 14.6555C34.3062 14.5778 34.3062 14.4224 34.3062 14.3447C34.3062 14.267 34.3062 14.1115 34.228 13.9561V13.723C34.1499 13.3345 33.9155 12.8683 33.681 12.4021L33.4466 11.9359C33.4466 11.9359 33.4466 12.0136 33.3685 12.0136C33.3685 12.0913 33.2903 12.169 33.2122 12.169C32.9777 12.5575 32.7433 12.7906 32.3526 13.0237C32.1181 13.1791 31.8056 13.3345 31.4149 13.3345C31.1023 13.3345 30.7116 13.2568 30.399 13.1014C30.0864 12.8683 29.852 12.6352 29.6175 12.4798C29.3831 12.0136 29.1487 11.7028 29.0705 11.3143C28.9142 10.7703 28.758 10.1487 28.758 9.5271C28.758 9.29399 28.758 8.98318 28.758 8.75007C28.758 8.51696 28.758 8.28386 28.8361 7.97305C28.8361 7.66224 28.9142 7.42913 28.9924 7.11832C28.9924 6.96291 29.0705 6.80751 29.0705 6.6521C28.9924 6.72981 28.8361 6.80751 28.6798 6.80751C27.9765 7.11832 27.3514 7.42913 26.8044 7.89534C26.3355 8.28386 25.8666 8.75007 25.4759 9.37169C25.007 10.071 24.6945 10.848 24.46 11.7028C24.1475 12.4798 23.9912 13.4122 23.913 14.4224C23.913 14.5778 23.913 14.7332 23.913 14.9663C23.913 15.1217 23.913 15.3548 23.913 15.5102V15.5879C23.913 15.7433 23.913 15.821 23.913 15.8987C23.913 16.0541 23.913 16.1318 23.913 16.2872C23.913 16.3649 23.913 16.5203 23.7567 16.6757C23.6786 16.8311 23.6004 16.9088 23.4442 16.9865C23.2097 17.0642 23.0534 16.9865 22.819 16.9088C22.6627 16.8311 22.5064 16.6757 22.4283 16.598C22.1939 16.4426 21.9594 16.2095 21.725 15.9764L21.6468 15.8987C21.4906 15.8987 21.4906 15.8987 21.4906 15.9764C21.4906 16.2095 21.4124 16.4426 21.4124 16.7534C21.4124 17.0642 21.4124 17.3751 21.4124 17.6082C21.4906 17.9967 21.5687 18.3075 21.6468 18.696C21.8813 19.3953 22.1157 20.0169 22.4283 20.4832L22.6627 20.794L22.272 20.9494C20.9435 21.571 19.6151 22.5034 18.5211 23.5913C16.4893 25.6892 15.239 28.098 14.692 30.8953L14.6139 31.1284H12.8947V32.7602H14.4576L14.3794 33.1487C14.3794 33.3818 14.3794 33.6149 14.3794 33.848C14.3794 34.0034 14.3794 34.1588 14.3794 34.3142L14.4576 34.7027H12.8947V36.4122ZM23.2097 16.2872C23.2097 16.3649 23.2097 16.3649 23.2097 16.2872V16.2872Z" fill="#7C8EBE"/>
<path d="M45.7305 48.9804L56.3564 25.7422H61.4L72.026 48.9804H66.228L64.0296 44.0786H53.7484L51.55 48.9804H45.7305ZM58.8782 32.5805L55.7314 39.56H62.0035L58.8782 32.5805Z" fill="#7C8EBE"/>
<path d="M74.6328 48.9803V25.7422H84.4182C86.7029 25.7422 88.5565 26.428 89.9791 27.7796C91.4016 29.1311 92.1129 30.7852 92.1129 32.762C92.1129 35.687 90.4963 37.684 87.2417 38.7531L96.0141 49.0005H89.3324L81.0343 39.3986H80.1506V49.0005H74.6328V48.9803ZM80.1937 34.9608H83.7716C84.6122 34.9608 85.3019 34.7591 85.8192 34.3355C86.3365 33.9119 86.5951 33.3874 86.5951 32.7217C86.5951 32.0157 86.3365 31.471 85.8192 31.0878C85.2803 30.7045 84.5906 30.523 83.7716 30.523H80.1937V34.9608Z" fill="#7C8EBE"/>
<path d="M97.7812 48.9804V25.7422H103.342V48.9804H97.7812Z" fill="#7C8EBE"/>
</svg>
