<svg width="278" height="477" viewBox="0 0 278 477" fill="none" xmlns="http://www.w3.org/2000/svg">
<g opacity="0.24">
<path d="M-4.42806 89.8627C24.3099 70.1186 63.1014 92.5148 60.3714 127.275C59.2463 141.601 65.4453 155.525 76.8449 164.275C104.503 185.505 95.1903 229.319 61.2881 237.464C47.315 240.821 35.9889 251.019 31.1896 264.564C19.5454 297.43 -25.0017 302.112 -43.2245 272.386C-50.7352 260.134 -63.9342 252.513 -78.2999 252.135C-113.155 251.217 -131.373 210.297 -108.734 183.78C-99.4023 172.851 -96.2335 157.943 -100.313 144.163C-110.21 110.731 -76.9227 80.7586 -44.7077 94.0963C-31.43 99.5935 -16.2726 98.0004 -4.42806 89.8627Z" stroke="#6588E1"/>
<path d="M-4.04497 86.3923C25.772 65.9068 66.0199 89.1439 63.1875 125.209C62.021 140.061 68.4473 154.494 80.2649 163.565C108.962 185.593 99.2991 231.051 64.124 239.502C49.6386 242.982 37.8972 253.554 32.922 267.597C20.8406 301.696 -25.379 306.554 -44.286 275.711C-52.072 263.011 -65.7549 255.111 -80.6473 254.718C-116.811 253.765 -135.714 211.309 -112.224 183.797C-102.55 172.467 -99.2653 157.013 -103.494 142.728C-113.763 108.04 -79.2259 76.9425 -45.8013 90.781C-32.0369 96.4798 -16.3238 94.8283 -4.04497 86.3923Z" stroke="#6588E1"/>
<path d="M-3.22232 82.0069C27.7228 60.5274 69.7026 84.7644 66.5734 122.303C65.2883 137.72 71.9479 152.759 84.2037 162.198C113.988 185.137 103.492 232.626 66.9692 241.64C51.9647 245.343 39.6278 256.371 34.4329 270.931L33.9939 272.161C21.4105 307.43 -26.4758 312.284 -45.8802 280.258C-53.939 266.957 -68.2395 258.7 -83.7878 258.372C-121.226 257.58 -140.965 213.682 -116.713 185.151L-115.867 184.155C-105.855 172.376 -102.474 156.178 -106.769 141.332C-117.224 105.196 -81.3451 72.3608 -46.587 86.6858C-32.2849 92.5802 -15.931 90.8281 -3.22232 82.0069Z" stroke="#6588E1"/>
<path d="M-3.17555 78.495C29.0967 56.3227 72.6587 81.4733 69.593 120.508C68.3328 136.555 75.2762 152.15 88.0447 161.951C119.104 185.792 108.646 234.994 70.5747 244.141C54.9237 247.901 42.2374 259.324 36.8619 274.496C23.7857 311.403 -26.2399 316.661 -46.7037 283.279C-55.1163 269.556 -69.9003 261.021 -85.9911 260.597C-125.132 259.565 -145.592 213.613 -120.168 183.835C-109.716 171.594 -106.166 154.896 -110.736 139.461C-121.85 101.917 -84.469 68.2589 -48.2921 83.237C-33.42 89.3943 -16.4425 87.6099 -3.17555 78.495Z" stroke="#6588E1"/>
<path d="M-2.73418 74.4578C30.7932 51.4231 76.0496 77.5518 72.8647 118.105C71.5564 134.763 78.7642 150.952 92.0189 161.126C124.287 185.894 113.422 237.01 73.8694 246.512C57.6225 250.416 44.4532 262.273 38.873 278.023C25.2881 316.366 -26.6831 321.828 -47.9429 287.148C-56.6758 272.902 -72.0227 264.042 -88.7261 263.602C-129.39 262.53 -150.645 214.791 -124.232 183.855C-113.382 171.147 -109.698 153.813 -114.441 137.791C-125.988 98.7868 -87.1526 63.8197 -49.5686 79.3802C-34.1302 85.7721 -16.5063 83.9197 -2.73418 74.4578Z" stroke="#6588E1"/>
<path d="M-2.30266 70.5417C32.4422 46.6705 79.342 73.7481 76.0415 115.774C74.6866 133.024 82.1509 149.789 95.8771 160.325C129.317 185.993 118.057 238.965 77.0686 248.812C60.2437 252.855 46.6058 265.134 40.827 281.445C26.7489 321.179 -27.1096 326.84 -49.1414 290.901C-58.185 276.148 -74.0779 266.972 -91.3756 266.517C-133.516 265.406 -155.543 215.933 -128.171 183.874C-116.935 170.714 -113.119 152.763 -118.031 136.172C-129.997 95.7506 -89.7521 59.5137 -50.8034 75.6393C-34.8157 82.2585 -16.5647 80.3403 -2.30266 70.5417Z" stroke="#6588E1"/>
<path d="M-1.83719 66.3076C34.2241 41.5321 82.9008 69.6356 79.4752 113.253C78.07 131.145 85.8115 148.532 100.048 159.46C134.754 186.1 123.068 241.079 80.5265 251.3C63.0766 255.492 48.9321 268.228 42.9387 285.144C28.3272 326.384 -27.5719 332.259 -50.4384 294.958C-59.8179 279.658 -76.3011 270.141 -94.2414 269.668C-137.978 268.516 -160.84 217.168 -132.43 183.894C-120.777 170.246 -116.82 151.629 -121.914 134.42C-134.334 92.4678 -92.5639 54.858 -52.1395 71.5946C-35.558 78.4597 -16.629 76.4702 -1.83719 66.3076Z" stroke="#6588E1"/>
<path d="M-1.02407 61.7677C36.2325 35.9689 86.7153 65.1152 83.0011 110.28C81.4808 128.767 89.47 146.786 104.17 158.099C140.03 185.695 127.524 242.78 83.5584 253.563C65.553 257.979 50.7188 271.423 44.4984 288.886C29.3553 331.398 -28.6442 338.164 -52.0588 299.625C-61.7296 283.707 -78.8513 273.822 -97.4716 273.406C-142.555 272.397 -165.696 218.786 -136.451 184.415C-124.437 170.297 -120.212 150.728 -125.39 132.927C-138.034 89.4603 -94.8502 50.0864 -53.0211 67.3441C-35.874 74.4186 -16.2746 72.3281 -1.02407 61.7677Z" stroke="#6588E1"/>
</g>
</svg>
