<svg width="419" height="362" viewBox="0 0 419 362" fill="none" xmlns="http://www.w3.org/2000/svg">
    <circle cx="243.5" cy="186.5" r="155.5" fill="white" stroke="#D2DDFF" stroke-width="40" />
    <path
        d="M159 247C159 231.433 163.275 216.164 171.359 202.861C179.443 189.557 191.025 178.728 204.842 171.557C218.659 164.385 234.18 161.146 249.712 162.192C265.244 163.238 280.191 168.53 292.921 177.49L273.534 205.037C265.848 199.628 256.825 196.433 247.448 195.802C238.072 195.17 228.702 197.126 220.361 201.455C212.019 205.785 205.027 212.322 200.147 220.353C195.267 228.385 192.686 237.602 192.686 247L159 247Z"
        fill="#D2DDFF" />
    <path
        d="M329 247C329 233.301 325.689 219.805 319.349 207.661C313.009 195.517 303.828 185.086 292.587 177.256L273.332 204.895C280.118 209.623 285.66 215.92 289.488 223.251C293.315 230.582 295.314 238.73 295.314 247H329Z"
        fill="#2F55D3" />
    <path d="M222.5 272.5H267" stroke="#D2DDFF" stroke-width="8" stroke-linecap="round" />
    <path d="M284 101H307" stroke="#2F55D3" stroke-width="8" stroke-linecap="round" />
    <path d="M161 101H184" stroke="#2F55D3" stroke-width="8" stroke-linecap="round" />
    <path d="M282 113L326 113" stroke="#D2DDFF" stroke-width="4" stroke-linecap="round" />
    <path d="M159 113L203 113" stroke="#D2DDFF" stroke-width="4" stroke-linecap="round" />
    <path d="M282 123L326 123" stroke="#D2DDFF" stroke-width="4" stroke-linecap="round" />
    <path d="M159 123L203 123" stroke="#D2DDFF" stroke-width="4" stroke-linecap="round" />
    <circle cx="95.7273" cy="116.727" r="89.7273" fill="white" stroke="#2F55D3" stroke-width="12" />
    <circle cx="95.5" cy="116.5" r="89.5" stroke="#2F55D3" stroke-width="12" />
    <path
        d="M139 116.5C139 140.524 119.524 160 95.5 160C71.4756 160 52 140.524 52 116.5C52 92.4756 71.4756 73 95.5 73C119.524 73 139 92.4756 139 116.5ZM55.6363 116.5C55.6363 138.516 73.4839 156.364 95.5 156.364C117.516 156.364 135.364 138.516 135.364 116.5C135.364 94.4839 117.516 76.6363 95.5 76.6363C73.4839 76.6363 55.6363 94.4839 55.6363 116.5Z"
        fill="#D2DDFF" />
    <mask id="path-14-outside-1_176_132" maskUnits="userSpaceOnUse" x="50" y="71" width="91" height="91" fill="black">
        <rect fill="white" x="50" y="71" width="91" height="91" />
        <path
            d="M53.8182 116.5C52.814 116.5 51.996 117.314 52.038 118.318C52.3711 126.284 54.8885 134.018 59.3311 140.667C64.1109 147.821 70.9047 153.396 78.8533 156.689C86.8019 159.981 95.5483 160.843 103.986 159.164C112.425 157.486 120.176 153.343 126.259 147.259C132.343 141.176 136.486 133.425 138.164 124.986C139.843 116.548 138.981 107.802 135.689 99.8533C132.396 91.9047 126.821 85.1109 119.667 80.3311C113.018 75.8885 105.284 73.3711 97.3178 73.038C96.3145 72.996 95.5 73.814 95.5 74.8182V74.8182C95.5 75.8223 96.3146 76.632 97.3177 76.6778C104.564 77.0085 111.596 79.3116 117.647 83.3546C124.203 87.7348 129.312 93.9607 132.329 101.245C135.346 108.529 136.136 116.544 134.598 124.277C133.06 132.01 129.263 139.113 123.688 144.688C118.113 150.263 111.01 154.06 103.277 155.598C95.5442 157.136 87.529 156.346 80.2448 153.329C72.9607 150.312 66.7348 145.203 62.3546 138.647C58.3116 132.596 56.0085 125.564 55.6778 118.318C55.632 117.315 54.8223 116.5 53.8182 116.5V116.5Z" />
    </mask>
    <path
        d="M53.8182 116.5C52.814 116.5 51.996 117.314 52.038 118.318C52.3711 126.284 54.8885 134.018 59.3311 140.667C64.1109 147.821 70.9047 153.396 78.8533 156.689C86.8019 159.981 95.5483 160.843 103.986 159.164C112.425 157.486 120.176 153.343 126.259 147.259C132.343 141.176 136.486 133.425 138.164 124.986C139.843 116.548 138.981 107.802 135.689 99.8533C132.396 91.9047 126.821 85.1109 119.667 80.3311C113.018 75.8885 105.284 73.3711 97.3178 73.038C96.3145 72.996 95.5 73.814 95.5 74.8182V74.8182C95.5 75.8223 96.3146 76.632 97.3177 76.6778C104.564 77.0085 111.596 79.3116 117.647 83.3546C124.203 87.7348 129.312 93.9607 132.329 101.245C135.346 108.529 136.136 116.544 134.598 124.277C133.06 132.01 129.263 139.113 123.688 144.688C118.113 150.263 111.01 154.06 103.277 155.598C95.5442 157.136 87.529 156.346 80.2448 153.329C72.9607 150.312 66.7348 145.203 62.3546 138.647C58.3116 132.596 56.0085 125.564 55.6778 118.318C55.632 117.315 54.8223 116.5 53.8182 116.5V116.5Z"
        fill="#2F55D3" />
    <path
        d="M53.8182 116.5C52.814 116.5 51.996 117.314 52.038 118.318C52.3711 126.284 54.8885 134.018 59.3311 140.667C64.1109 147.821 70.9047 153.396 78.8533 156.689C86.8019 159.981 95.5483 160.843 103.986 159.164C112.425 157.486 120.176 153.343 126.259 147.259C132.343 141.176 136.486 133.425 138.164 124.986C139.843 116.548 138.981 107.802 135.689 99.8533C132.396 91.9047 126.821 85.1109 119.667 80.3311C113.018 75.8885 105.284 73.3711 97.3178 73.038C96.3145 72.996 95.5 73.814 95.5 74.8182V74.8182C95.5 75.8223 96.3146 76.632 97.3177 76.6778C104.564 77.0085 111.596 79.3116 117.647 83.3546C124.203 87.7348 129.312 93.9607 132.329 101.245C135.346 108.529 136.136 116.544 134.598 124.277C133.06 132.01 129.263 139.113 123.688 144.688C118.113 150.263 111.01 154.06 103.277 155.598C95.5442 157.136 87.529 156.346 80.2448 153.329C72.9607 150.312 66.7348 145.203 62.3546 138.647C58.3116 132.596 56.0085 125.564 55.6778 118.318C55.632 117.315 54.8223 116.5 53.8182 116.5V116.5Z"
        stroke="#2F55D3" stroke-width="4" mask="url(#path-14-outside-1_176_132)" />
    <path
        d="M81.9574 123.179C81.331 123.175 80.7195 123.066 80.1229 122.853C79.5263 122.636 78.9893 122.284 78.5121 121.798C78.0348 121.308 77.6555 120.658 77.3743 119.849C77.093 119.035 76.9545 118.027 76.9588 116.825C76.9588 115.705 77.0781 114.705 77.3168 113.827C77.5554 112.95 77.8984 112.208 78.3459 111.603C78.7933 110.994 79.3324 110.529 79.9631 110.21C80.598 109.89 81.3075 109.73 82.0916 109.73C82.9141 109.73 83.6428 109.892 84.2777 110.216C84.9169 110.54 85.4325 110.983 85.8246 111.545C86.2166 112.104 86.4595 112.734 86.5533 113.438H84.2202C84.1009 112.935 83.8558 112.534 83.4851 112.236C83.1186 111.933 82.6541 111.782 82.0916 111.782C81.1839 111.782 80.4851 112.176 79.995 112.964C79.5092 113.753 79.2642 114.835 79.2599 116.212H79.3494C79.5582 115.837 79.8288 115.515 80.1612 115.246C80.4936 114.978 80.8686 114.771 81.2862 114.626C81.7081 114.477 82.1534 114.403 82.6222 114.403C83.3892 114.403 84.0774 114.586 84.6868 114.952C85.3004 115.319 85.7862 115.824 86.1442 116.467C86.5021 117.107 86.679 117.839 86.6747 118.666C86.679 119.527 86.483 120.3 86.0866 120.987C85.6903 121.668 85.1385 122.205 84.4311 122.597C83.7237 122.989 82.8991 123.183 81.9574 123.179ZM81.9446 121.261C82.4091 121.261 82.8246 121.148 83.1911 120.923C83.5575 120.697 83.8473 120.392 84.0604 120.009C84.2734 119.625 84.3778 119.195 84.3736 118.717C84.3778 118.249 84.2756 117.825 84.0668 117.445C83.8622 117.066 83.5788 116.766 83.2166 116.544C82.8544 116.322 82.4411 116.212 81.9766 116.212C81.6314 116.212 81.3097 116.278 81.0114 116.41C80.7131 116.542 80.4531 116.725 80.2315 116.96C80.0099 117.19 79.8352 117.458 79.7074 117.765C79.5838 118.067 79.5199 118.391 79.5156 118.737C79.5199 119.192 79.6264 119.612 79.8352 119.996C80.044 120.379 80.3317 120.686 80.6982 120.916C81.0646 121.146 81.4801 121.261 81.9446 121.261ZM93.674 123.249C92.6214 123.249 91.718 122.983 90.9638 122.45C90.2138 121.913 89.6364 121.14 89.2315 120.13C88.831 119.116 88.6307 117.895 88.6307 116.467C88.6349 115.04 88.8374 113.825 89.2379 112.824C89.6428 111.818 90.2202 111.051 90.9702 110.523C91.7244 109.994 92.6257 109.73 93.674 109.73C94.7223 109.73 95.6236 109.994 96.3778 110.523C97.1321 111.051 97.7095 111.818 98.1101 112.824C98.5149 113.83 98.7173 115.044 98.7173 116.467C98.7173 117.899 98.5149 119.122 98.1101 120.136C97.7095 121.146 97.1321 121.918 96.3778 122.45C95.6278 122.983 94.7266 123.249 93.674 123.249ZM93.674 121.249C94.4922 121.249 95.1378 120.846 95.6108 120.04C96.0881 119.231 96.3267 118.04 96.3267 116.467C96.3267 115.428 96.218 114.554 96.0007 113.847C95.7834 113.139 95.4766 112.607 95.0803 112.249C94.6839 111.886 94.2152 111.705 93.674 111.705C92.8601 111.705 92.2166 112.11 91.7436 112.92C91.2706 113.725 91.032 114.908 91.0277 116.467C91.0234 117.511 91.1278 118.389 91.3409 119.101C91.5582 119.812 91.8651 120.349 92.2614 120.712C92.6577 121.07 93.1286 121.249 93.674 121.249ZM107.84 120.545V119.855C107.84 119.348 107.947 118.881 108.16 118.455C108.377 118.029 108.693 117.686 109.106 117.426C109.519 117.166 110.02 117.036 110.608 117.036C111.213 117.036 111.72 117.166 112.129 117.426C112.539 117.682 112.847 118.023 113.056 118.449C113.269 118.875 113.376 119.344 113.376 119.855V120.545C113.376 121.053 113.269 121.519 113.056 121.945C112.843 122.371 112.53 122.714 112.117 122.974C111.708 123.234 111.205 123.364 110.608 123.364C110.012 123.364 109.507 123.234 109.093 122.974C108.68 122.714 108.367 122.371 108.154 121.945C107.945 121.519 107.84 121.053 107.84 120.545ZM109.509 119.855V120.545C109.509 120.882 109.59 121.191 109.752 121.472C109.914 121.754 110.199 121.894 110.608 121.894C111.021 121.894 111.305 121.756 111.458 121.479C111.616 121.197 111.695 120.886 111.695 120.545V119.855C111.695 119.514 111.62 119.203 111.471 118.922C111.322 118.636 111.034 118.494 110.608 118.494C110.208 118.494 109.924 118.636 109.758 118.922C109.592 119.203 109.509 119.514 109.509 119.855ZM101.186 113.054V112.364C101.186 111.852 101.295 111.384 101.512 110.957C101.73 110.531 102.045 110.19 102.458 109.935C102.872 109.675 103.372 109.545 103.96 109.545C104.561 109.545 105.066 109.675 105.475 109.935C105.889 110.19 106.2 110.531 106.409 110.957C106.617 111.384 106.722 111.852 106.722 112.364V113.054C106.722 113.565 106.615 114.034 106.402 114.46C106.193 114.882 105.882 115.221 105.469 115.477C105.056 115.732 104.553 115.86 103.96 115.86C103.36 115.86 102.852 115.732 102.439 115.477C102.03 115.221 101.719 114.88 101.506 114.454C101.293 114.028 101.186 113.561 101.186 113.054ZM102.867 112.364V113.054C102.867 113.395 102.946 113.706 103.104 113.987C103.266 114.264 103.551 114.403 103.96 114.403C104.369 114.403 104.651 114.264 104.804 113.987C104.962 113.706 105.041 113.395 105.041 113.054V112.364C105.041 112.023 104.966 111.712 104.817 111.43C104.668 111.145 104.382 111.002 103.96 111.002C103.556 111.002 103.272 111.145 103.11 111.43C102.948 111.716 102.867 112.027 102.867 112.364ZM101.915 123L110.915 109.909H112.513L103.513 123H101.915Z"
        fill="#2F55D3" />
    <circle cx="173" cy="48" r="46" transform="rotate(-90 173 48)" fill="white" stroke="#D2DDFF" stroke-width="4" />
    <rect x="162" y="22" width="52" height="10" rx="5" transform="rotate(90 162 22)" fill="#F469A4" />
    <rect x="198" y="43" width="31" height="10" rx="5" transform="rotate(90 198 43)" fill="#33D1BF" />
    <rect x="180" y="28" width="46" height="10" rx="5" transform="rotate(90 180 28)" fill="#2F55D3" />
</svg>
