<svg width="419" height="362" viewBox="0 0 419 362" fill="none" xmlns="http://www.w3.org/2000/svg">
    <circle cx="243.5" cy="186.5" r="155.5" fill="white" stroke="#D2DDFF" stroke-width="40" />
    <path d="M161 101H184" stroke="#2F55D3" stroke-width="8" stroke-linecap="round" />
    <path
        d="M185 116.727C185 166.296 144.916 206.455 95.5 206.455C46.084 206.455 6 166.296 6 116.727C6 67.1588 46.084 27 95.5 27C144.916 27 185 67.1588 185 116.727Z"
        fill="white" stroke="#2F55D3" stroke-width="12" />
    <path
        d="M185 116.727C185 166.296 144.916 206.455 95.5 206.455C46.084 206.455 6 166.296 6 116.727C6 67.1588 46.084 27 95.5 27C144.916 27 185 67.1588 185 116.727Z"
        stroke="#2F55D3" stroke-width="12" />
    <path fill-rule="evenodd" clip-rule="evenodd"
        d="M273.95 215.673L275.94 208.083L274.57 206.583C273.95 205.683 273.82 204.893 274.16 204.213C274.9 202.743 276.44 203.013 277.88 203.013C279.39 203.013 281.25 202.723 281.72 204.613C281.88 205.243 281.68 205.903 281.24 206.583L279.87 208.083L281.06 212.643L288.95 205.783L293.04 205.883C291.63 203.053 289.84 200.653 287.76 198.393C291.68 199.913 295.69 201.413 298.66 203.273C300.55 204.453 301.52 205.353 302.29 206.783C303.91 209.833 304.09 212.563 304.33 215.863L304.9 218.723H282.66L282.68 218.793H274.17C273.98 220.743 272.86 221.873 270.67 222.033H243.68H216.24C214.04 221.863 212.92 220.733 212.74 218.763L213.5 206.723C213.71 203.943 214.49 201.743 215.76 200.063C216.6 198.953 217.64 198.133 218.79 197.493C222.44 195.463 230.96 194.863 234.27 191.883L239.34 206.793L241.89 197.943L240.64 196.573C240.08 195.753 239.95 195.033 240.27 194.413C240.95 193.073 242.35 193.323 243.66 193.323C245.03 193.323 246.72 193.063 247.15 194.783C247.29 195.353 247.11 195.953 246.71 196.573L245.46 197.943L248.01 206.793L252.6 191.883C255.91 194.863 264.44 195.463 268.08 197.493C269.23 198.133 270.28 198.953 271.11 200.063C272.38 201.743 273.16 203.933 273.37 206.723L273.95 215.673ZM197.29 199.243L200.69 209.233L202.4 203.303L201.56 202.383C201.18 201.833 201.1 201.353 201.31 200.933C201.76 200.033 202.7 200.203 203.58 200.203C204.5 200.203 205.63 200.033 205.92 201.183C206.02 201.563 205.89 201.973 205.63 202.383L204.79 203.303L206.5 209.233L209.58 199.243C210.03 199.643 210.65 199.983 211.38 200.273C211.13 200.803 210.9 201.363 210.7 201.943C210.18 203.453 209.84 205.133 209.7 207.003H209.71C209.71 207.043 209.7 207.093 209.7 207.133L208.96 218.713H203.61H184.35C182.87 218.603 182.12 217.843 182 216.523L182.51 209.183C182.65 207.323 183.18 205.853 184.03 204.723C184.59 203.983 185.29 203.433 186.06 203.003C188.5 201.643 195.07 201.243 197.29 199.243ZM195.62 185.083C195.29 185.113 195.04 185.183 194.86 185.303C194.76 185.373 194.68 185.463 194.63 185.563C194.57 185.683 194.55 185.843 194.55 186.013C194.57 186.563 194.86 187.303 195.43 188.153L195.44 188.173L197.34 191.193C198.1 192.393 198.89 193.623 199.87 194.523C200.8 195.373 201.93 195.953 203.43 195.953C205.05 195.953 206.23 195.353 207.2 194.453C208.21 193.503 209.01 192.203 209.8 190.903L211.93 187.393C212.36 186.413 212.49 185.823 212.35 185.543C212.26 185.373 211.91 185.323 211.33 185.373C210.96 185.453 210.57 185.383 210.16 185.173L211.23 181.973C207.32 181.923 204.65 181.243 201.48 179.223C200.44 178.563 200.13 177.803 199.09 177.873C198.3 178.023 197.64 178.373 197.12 178.943C196.62 179.483 196.24 180.223 195.99 181.173L196.62 185.003C196.3 185.203 195.96 185.223 195.62 185.083ZM212.55 184.133C213.01 184.273 213.35 184.533 213.55 184.943C213.87 185.593 213.75 186.563 213.14 187.943C213.13 187.973 213.12 187.993 213.1 188.023L210.94 191.583C210.1 192.963 209.25 194.343 208.11 195.413C206.92 196.533 205.45 197.273 203.44 197.263C201.56 197.263 200.15 196.543 198.99 195.483C197.88 194.463 197.03 193.163 196.23 191.883L194.33 188.863C193.62 187.803 193.26 186.843 193.23 186.043C193.22 185.653 193.28 185.303 193.43 185.003C193.58 184.673 193.81 184.403 194.13 184.193C194.28 184.093 194.46 184.003 194.65 183.933C194.53 182.313 194.49 180.313 194.57 178.633C194.61 178.223 194.69 177.813 194.8 177.403C195.29 175.673 196.5 174.273 198.01 173.313C198.54 172.973 199.12 172.693 199.74 172.473C203.39 171.153 208.22 171.873 210.81 174.673C211.86 175.813 212.53 177.323 212.67 179.323L212.55 184.133ZM231.65 170.763C231.23 170.813 230.9 170.923 230.66 171.083C230.51 171.183 230.39 171.323 230.32 171.473C230.24 171.653 230.2 171.883 230.2 172.143C230.22 172.973 230.66 174.063 231.52 175.323L231.54 175.343L234.37 179.853C235.5 181.653 236.68 183.483 238.14 184.813C239.53 186.083 241.22 186.943 243.44 186.953C245.86 186.963 247.62 186.063 249.06 184.723C250.57 183.313 251.77 181.363 252.95 179.423L256.13 174.183C256.77 172.723 256.97 171.843 256.76 171.423C256.63 171.153 256.07 171.093 255.13 171.183C255.06 171.193 254.99 171.193 254.92 171.183C254.53 171.183 254.11 171.083 253.65 170.873L255.08 166.093C249.24 166.023 245.25 165.003 240.53 161.983C238.98 160.993 238.51 159.863 236.96 159.973C235.79 160.203 234.8 160.723 234.02 161.563C233.27 162.373 232.7 163.473 232.33 164.883L233.34 170.663C232.74 170.973 232.18 170.993 231.65 170.763ZM257.05 169.333C257.74 169.533 258.24 169.933 258.55 170.543C259.03 171.523 258.85 172.963 257.94 175.023C257.92 175.063 257.9 175.103 257.88 175.133L254.65 180.453C253.4 182.513 252.13 184.583 250.42 186.173C248.64 187.843 246.45 188.953 243.45 188.943C240.65 188.933 238.54 187.863 236.81 186.283C235.15 184.763 233.89 182.823 232.69 180.913L229.86 176.403C228.81 174.833 228.26 173.383 228.22 172.193C228.2 171.613 228.3 171.093 228.52 170.633C228.75 170.143 229.09 169.733 229.56 169.423C229.79 169.263 230.05 169.133 230.34 169.033C230.17 166.623 230.11 163.643 230.22 161.133C230.28 160.523 230.4 159.913 230.57 159.303C231.29 156.713 233.11 154.633 235.36 153.203C236.15 152.703 237.02 152.283 237.94 151.953C243.38 149.983 250.6 151.063 254.46 155.243C256.03 156.943 257.02 159.203 257.23 162.183L257.05 169.333ZM266.88 193.953L269.38 193.883L271.45 193.833C269.03 186.383 269.84 179.533 275.67 173.713C276.66 176.913 278.87 179.543 282.64 181.493C284.44 182.833 286.19 184.453 287.87 186.303C288.17 185.073 287.03 183.573 285.64 182.033C286.92 182.663 288.1 183.553 288.93 185.253C289.9 187.233 289.88 188.893 289.57 191.043C289.42 192.043 289.18 192.973 288.83 193.823H292.28C295.92 186.033 293.61 174.483 286.17 169.583C283.89 168.083 282.25 168.133 279.57 168.143C276.5 168.143 274.94 168.243 272.31 169.973C268.44 172.533 266.06 176.963 265.06 183.113C264.87 186.183 264.74 191.483 266.88 193.953Z"
        fill="#2F55D3" />
    <path
        d="M140.504 152.279L115.332 127.107C115.174 126.948 114.985 126.822 114.778 126.737C114.571 126.651 114.349 126.606 114.125 126.606C113.901 126.606 113.679 126.651 113.472 126.737C113.265 126.822 113.077 126.948 112.918 127.107L111.009 129.084L107.273 125.348C112.934 119.206 115.999 111.112 115.829 102.761C115.659 94.4092 112.266 86.4473 106.359 80.5405C101.898 76.0589 96.2219 72.9809 90.0319 71.6862C83.8418 70.3916 77.4083 70.9367 71.5244 73.2545C65.6405 75.5723 60.5635 79.5614 56.9195 84.73C53.2755 89.8985 51.2238 96.0205 51.0173 102.341C50.8108 108.662 52.4586 114.905 55.7575 120.3C59.0564 125.695 63.8622 130.007 69.5822 132.704C75.3023 135.401 81.6866 136.365 87.9479 135.477C94.2092 134.589 100.074 131.888 104.819 127.707L108.596 131.498L106.618 133.475C106.299 133.798 106.118 134.234 106.114 134.689C106.118 135.139 106.299 135.57 106.618 135.889L131.722 161.061C132.046 161.379 132.481 161.56 132.936 161.565C133.387 161.562 133.818 161.381 134.136 161.061L140.504 154.693C140.826 154.371 141.008 153.934 141.008 153.479C141.009 153.255 140.965 153.034 140.878 152.828C140.792 152.621 140.664 152.435 140.504 152.279ZM62.9018 123.916C58.849 119.864 56.0889 114.701 54.9705 109.08C53.8521 103.459 54.4257 97.6327 56.6187 92.3378C58.8118 87.0428 62.5257 82.5171 67.2909 79.333C72.0562 76.1489 77.6586 74.4493 83.3897 74.4493C89.1209 74.4493 94.7233 76.1489 99.4885 79.333C104.254 82.5171 107.968 87.0428 110.161 92.3378C112.354 97.6327 112.927 103.459 111.809 109.08C110.691 114.701 107.93 119.864 103.878 123.916C101.2 126.63 98.01 128.784 94.4929 130.254C90.9759 131.725 87.2018 132.482 83.3897 132.482C79.5777 132.482 75.8036 131.725 72.2865 130.254C68.7695 128.784 65.5795 126.63 62.9018 123.916ZM132.936 157.447L110.164 134.689L114.132 130.721L136.917 153.479L132.936 157.447Z"
        fill="#F469A4" />
    <path
        d="M135.349 103.694C134.251 103.694 133.178 104.02 132.265 104.63C131.353 105.239 130.641 106.106 130.221 107.12C129.801 108.134 129.691 109.25 129.905 110.327C130.12 111.403 130.648 112.392 131.424 113.168C132.2 113.945 133.189 114.473 134.266 114.687C135.342 114.901 136.458 114.792 137.472 114.371C138.487 113.951 139.353 113.24 139.963 112.327C140.573 111.415 140.898 110.342 140.898 109.244C140.898 107.772 140.314 106.361 139.273 105.32C138.232 104.279 136.821 103.694 135.349 103.694ZM135.349 111.385C134.925 111.385 134.511 111.259 134.159 111.024C133.807 110.789 133.533 110.455 133.371 110.063C133.209 109.672 133.166 109.242 133.249 108.826C133.332 108.411 133.535 108.03 133.835 107.73C134.134 107.431 134.516 107.227 134.931 107.144C135.346 107.062 135.777 107.104 136.168 107.266C136.559 107.428 136.893 107.703 137.129 108.055C137.364 108.407 137.489 108.821 137.489 109.244C137.489 109.812 137.264 110.356 136.862 110.758C136.461 111.159 135.916 111.385 135.349 111.385Z"
        fill="#F469A4" />
    <path
        d="M135.349 119.035C134.251 119.035 133.178 119.36 132.265 119.97C131.353 120.58 130.641 121.447 130.221 122.461C129.801 123.475 129.691 124.591 129.905 125.667C130.12 126.744 130.648 127.733 131.424 128.509C132.2 129.285 133.189 129.814 134.266 130.028C135.342 130.242 136.458 130.132 137.472 129.712C138.487 129.292 139.353 128.58 139.963 127.668C140.573 126.755 140.898 125.682 140.898 124.585C140.898 123.113 140.314 121.701 139.273 120.66C138.232 119.619 136.821 119.035 135.349 119.035ZM135.349 126.725C134.925 126.725 134.511 126.6 134.159 126.365C133.807 126.129 133.533 125.795 133.371 125.404C133.209 125.013 133.166 124.582 133.249 124.167C133.332 123.752 133.535 123.37 133.835 123.071C134.134 122.771 134.516 122.567 134.931 122.485C135.346 122.402 135.777 122.445 136.168 122.607C136.559 122.769 136.893 123.043 137.129 123.395C137.364 123.747 137.489 124.161 137.489 124.585C137.489 125.152 137.264 125.697 136.862 126.098C136.461 126.5 135.916 126.725 135.349 126.725Z"
        fill="#F469A4" />
    <path
        d="M135.254 99.4126C136.355 99.4126 137.431 99.086 138.346 98.4741C139.261 97.8622 139.974 96.9925 140.395 95.9751C140.816 94.9577 140.925 93.8384 140.709 92.7588C140.494 91.6792 139.962 90.6879 139.183 89.9104C138.404 89.1329 137.411 88.6041 136.331 88.391C135.251 88.1779 134.132 88.29 133.115 88.7132C132.099 89.1363 131.231 89.8515 130.621 90.7682C130.012 91.6849 129.688 92.7619 129.69 93.8628C129.694 95.336 130.282 96.7476 131.325 97.788C132.368 98.8284 133.781 99.4126 135.254 99.4126ZM135.254 91.7084C135.68 91.7084 136.097 91.8347 136.451 92.0714C136.805 92.3082 137.081 92.6447 137.244 93.0383C137.407 93.432 137.45 93.8652 137.367 94.2831C137.284 94.7011 137.079 95.085 136.777 95.3863C136.476 95.6876 136.092 95.8928 135.674 95.9759C135.256 96.059 134.823 96.0164 134.429 95.8533C134.036 95.6902 133.699 95.4141 133.463 95.0598C133.226 94.7055 133.099 94.2889 133.099 93.8628C133.114 93.3009 133.347 92.7668 133.749 92.3745C134.152 91.9822 134.692 91.7627 135.254 91.7629V91.7084Z"
        fill="#F469A4" />
    <path
        d="M135.254 84.0177C136.351 84.015 137.423 83.6872 138.333 83.0758C139.244 82.4643 139.954 81.5966 140.372 80.5823C140.789 79.568 140.897 78.4525 140.682 77.3768C140.466 76.3012 139.936 75.3136 139.16 74.5388C138.383 73.764 137.394 73.2368 136.318 73.0237C135.242 72.8107 134.127 72.9214 133.113 73.3418C132.1 73.7623 131.234 74.4736 130.625 75.386C130.016 76.2984 129.69 77.3708 129.69 78.4679C129.69 79.1979 129.834 79.9206 130.114 80.5949C130.394 81.2691 130.804 81.8815 131.321 82.397C131.838 82.9126 132.451 83.3211 133.126 83.5992C133.801 83.8773 134.524 84.0195 135.254 84.0177ZM135.254 76.3271C135.677 76.3297 136.089 76.4576 136.44 76.6945C136.79 76.9313 137.062 77.2666 137.222 77.658C137.382 78.0494 137.422 78.4795 137.338 78.8938C137.254 79.3082 137.049 79.6884 136.749 79.9864C136.449 80.2845 136.068 80.487 135.653 80.5685C135.238 80.65 134.808 80.6069 134.418 80.4444C134.027 80.282 133.694 80.0076 133.459 79.6558C133.225 79.3041 133.099 78.8907 133.099 78.4679C133.103 77.8989 133.332 77.3544 133.735 76.9533C134.139 76.5522 134.685 76.327 135.254 76.3271Z"
        fill="#F469A4" />
    <path
        d="M102.337 149.579H64.4975C64.0454 149.579 63.6119 149.759 63.2922 150.078C62.9725 150.398 62.793 150.832 62.793 151.284C62.793 151.736 62.9725 152.169 63.2922 152.489C63.6119 152.809 64.0454 152.988 64.4975 152.988H102.337C102.789 152.988 103.223 152.809 103.542 152.489C103.862 152.169 104.042 151.736 104.042 151.284C104.042 150.832 103.862 150.398 103.542 150.078C103.223 149.759 102.789 149.579 102.337 149.579Z"
        fill="#F469A4" />
    <path
        d="M57.8285 145.829H84.9503C85.4024 145.829 85.8359 145.65 86.1556 145.33C86.4752 145.01 86.6548 144.577 86.6548 144.125C86.6548 143.673 86.4752 143.239 86.1556 142.92C85.8359 142.6 85.4024 142.42 84.9503 142.42H57.8285C57.3765 142.42 56.9429 142.6 56.6233 142.92C56.3036 143.239 56.124 143.673 56.124 144.125C56.124 144.577 56.3036 145.01 56.6233 145.33C56.9429 145.65 57.3765 145.829 57.8285 145.829Z"
        fill="#F469A4" />
    <path
        d="M74.0416 156.397H57.8285C57.3765 156.397 56.9429 156.577 56.6233 156.896C56.3036 157.216 56.124 157.65 56.124 158.102C56.124 158.554 56.3036 158.987 56.6233 159.307C56.9429 159.626 57.3765 159.806 57.8285 159.806H74.0416C74.4937 159.806 74.9272 159.626 75.2469 159.307C75.5665 158.987 75.7461 158.554 75.7461 158.102C75.7461 157.65 75.5665 157.216 75.2469 156.896C74.9272 156.577 74.4937 156.397 74.0416 156.397Z"
        fill="#F469A4" />
    <path
        d="M103.005 100.599L99.7186 98.7172C99.3232 97.234 98.7267 95.8117 97.9459 94.4901L99.0368 91.0947C99.1346 90.7954 99.1469 90.4746 99.0722 90.1686C98.9975 89.8627 98.8389 89.5836 98.6141 89.363L97.2505 87.9994C97.0273 87.7785 96.7482 87.6226 96.4432 87.5481C96.1382 87.4736 95.8186 87.4835 95.5188 87.5767L92.0825 88.6812C90.8017 87.9285 89.4259 87.3507 87.9917 86.9631L86.0145 83.5814C85.8639 83.3204 85.6472 83.1037 85.3864 82.9529C85.1255 82.8021 84.8295 82.7226 84.5282 82.7223H82.551C82.2517 82.7236 81.9581 82.8037 81.6995 82.9545C81.441 83.1053 81.2268 83.3215 81.0783 83.5814L79.1011 87.0585C77.7235 87.4534 76.4033 88.0264 75.174 88.763L71.6014 87.5767C71.303 87.4787 70.9835 87.4651 70.6779 87.5373C70.3723 87.6095 70.0926 87.7647 69.8696 87.9857L68.506 89.3493C68.2838 89.5744 68.128 89.8565 68.0558 90.1645C67.9836 90.4724 67.9979 90.7943 68.0969 91.0947L69.3242 94.7764C68.6284 95.971 68.0877 97.2495 67.7151 98.5809L64.1016 100.585C63.8473 100.74 63.638 100.959 63.4945 101.219C63.3509 101.48 63.2782 101.774 63.2835 102.072V104.035C63.2851 104.34 63.3681 104.638 63.524 104.899C63.6798 105.161 63.9028 105.375 64.1698 105.522L67.8379 107.567C68.2063 108.837 68.7235 110.059 69.3787 111.208L68.056 114.944C67.957 115.244 67.9427 115.566 68.0149 115.874C68.0871 116.182 68.2429 116.464 68.4651 116.689L69.8287 118.053C70.0511 118.279 70.3332 118.438 70.6422 118.51C70.9511 118.583 71.2743 118.566 71.5741 118.462L75.324 117.221C76.4906 117.902 77.7362 118.438 79.0329 118.817L81.0102 122.512C81.1591 122.775 81.375 122.995 81.636 123.148C81.897 123.301 82.1938 123.383 82.4965 123.385H84.4737C84.7766 123.384 85.074 123.303 85.3353 123.15C85.5965 122.997 85.8122 122.776 85.96 122.512L87.9781 119.035C89.3547 118.655 90.6785 118.106 91.9189 117.398L95.5188 118.557C95.8186 118.651 96.1382 118.66 96.4432 118.586C96.7482 118.512 97.0273 118.356 97.2505 118.135L98.6141 116.771C98.8389 116.551 98.9975 116.271 99.0722 115.965C99.1469 115.66 99.1346 115.339 99.0368 115.039L97.905 111.549C98.6793 110.274 99.2713 108.897 99.6641 107.458L103.005 105.562C103.272 105.408 103.493 105.185 103.644 104.917C103.795 104.648 103.871 104.343 103.864 104.035V102.072C103.864 101.772 103.785 101.478 103.634 101.219C103.483 100.96 103.266 100.746 103.005 100.599ZM83.7373 108.031C82.7395 108.031 81.764 107.735 80.9343 107.18C80.1046 106.626 79.458 105.838 79.0761 104.916C78.6942 103.994 78.5943 102.98 78.789 102.001C78.9837 101.022 79.4642 100.123 80.1698 99.4177C80.8754 98.7121 81.7744 98.2316 82.753 98.0369C83.7317 97.8422 84.7462 97.9421 85.6681 98.324C86.59 98.7059 87.378 99.3525 87.9323 100.182C88.4867 101.012 88.7826 101.987 88.7826 102.985C88.7826 103.648 88.6521 104.304 88.3986 104.916C88.145 105.528 87.7734 106.084 87.3049 106.553C86.8364 107.021 86.2802 107.393 85.6681 107.646C85.056 107.9 84.3999 108.031 83.7373 108.031Z"
        fill="#F469A4" />
    <circle cx="173" cy="48" r="46" transform="rotate(-90 173 48)" fill="white" stroke="#D2DDFF" stroke-width="4" />
    <path
        d="M174.586 19C170.666 19.006 166.789 19.8208 163.198 21.3935C159.607 22.9662 156.379 25.2629 153.717 28.14C153.536 28.3348 153.441 28.5933 153.451 28.8585C153.461 29.1238 153.576 29.3742 153.771 29.5545C153.966 29.7349 154.224 29.8304 154.49 29.8202C154.755 29.81 155.005 29.6948 155.186 29.5C158.084 26.3596 161.702 23.9697 165.728 22.5355C169.754 21.1013 174.068 20.6657 178.299 21.266C182.53 21.8664 186.553 23.4848 190.021 25.9823C193.489 28.4798 196.299 31.7817 198.209 35.6045C200.12 39.4273 201.074 43.6567 200.99 47.9296C200.906 52.2025 199.786 56.3911 197.727 60.1358C195.667 63.8805 192.729 67.0693 189.166 69.4284C185.602 71.7876 181.519 73.2465 177.268 73.68L178.612 72.336C178.788 72.1604 178.928 71.9518 179.023 71.7221C179.118 71.4924 179.167 71.2462 179.167 70.9975C179.167 70.7488 179.118 70.5026 179.023 70.2729C178.928 70.0432 178.788 69.8346 178.612 69.659L173.369 64.416C173.193 64.2399 172.985 64.1002 172.755 64.0049C172.525 63.9095 172.279 63.8605 172.031 63.8605C171.782 63.8605 171.536 63.9095 171.306 64.0049C171.077 64.1002 170.868 64.2399 170.693 64.416L168.449 66.667L168.049 67.067C167.779 67.3377 167.458 67.5525 167.104 67.6991C166.751 67.8456 166.372 67.9211 165.99 67.9211C165.607 67.9211 165.228 67.8456 164.875 67.6991C164.522 67.5525 164.201 67.3377 163.931 67.067L154.941 58.077C154.67 57.8062 154.455 57.4848 154.309 57.131C154.162 56.7772 154.087 56.398 154.087 56.015C154.087 55.6321 154.162 55.2529 154.309 54.8991C154.455 54.5453 154.67 54.2238 154.941 53.953L155.341 53.553L157.578 51.3C157.754 51.1244 157.894 50.9158 157.989 50.6861C158.084 50.4564 158.133 50.2102 158.133 49.9615C158.133 49.7128 158.084 49.4666 157.989 49.2369C157.894 49.0072 157.754 48.7986 157.578 48.623L152.37 43.41C152.014 43.0567 151.533 42.8585 151.031 42.8585C150.53 42.8585 150.049 43.0567 149.693 43.41L147.893 45.21C147.742 45.361 147.598 45.51 147.447 45.67C145.153 48.2004 143.92 51.5164 144.004 54.9309C144.088 58.3454 145.483 61.5967 147.899 64.011L157.987 74.111C160.189 76.2941 163.081 77.645 166.169 77.933C169.257 78.2209 172.349 77.4282 174.917 75.69C175.055 75.7673 175.211 75.8096 175.37 75.813H175.399C182.835 75.5658 189.878 72.4107 195.014 67.0258C200.149 61.6409 202.966 54.4562 202.86 47.0161C202.754 39.576 199.733 32.4745 194.447 27.238C189.16 22.0016 182.031 19.0483 174.59 19.013L174.586 19Z"
        fill="#33D1BF" />
    <path
        d="M174.169 40.427C173.8 39.5123 173.17 38.7263 172.357 38.1665C171.545 37.6067 170.586 37.2978 169.599 37.278H169.499C167.878 37.2777 166.322 37.9213 165.175 39.0674C164.027 40.2134 163.381 41.7682 163.379 43.39C163.379 43.6552 163.485 43.9096 163.672 44.0971C163.86 44.2847 164.114 44.39 164.379 44.39C164.645 44.39 164.899 44.2847 165.087 44.0971C165.274 43.9096 165.379 43.6552 165.379 43.39C165.382 42.8449 165.493 42.3057 165.704 41.8035C165.916 41.3013 166.225 40.846 166.614 40.4637C167.003 40.0815 167.463 39.78 167.969 39.5765C168.474 39.373 169.015 39.2715 169.56 39.278C170.161 39.2881 170.746 39.4772 171.239 39.8212C171.732 40.1652 172.111 40.6484 172.327 41.209C172.603 41.8421 172.689 42.5415 172.575 43.2224C172.461 43.9034 172.153 44.5368 171.686 45.046L163.648 53.639C163.515 53.7814 163.427 53.9597 163.394 54.1518C163.36 54.3439 163.384 54.5416 163.462 54.7204C163.539 54.8992 163.668 55.0515 163.831 55.1583C163.994 55.2652 164.185 55.3221 164.379 55.322H173.738C174.004 55.322 174.258 55.2167 174.446 55.0291C174.633 54.8416 174.738 54.5872 174.738 54.322C174.738 54.0568 174.633 53.8024 174.446 53.6149C174.258 53.4274 174.004 53.322 173.738 53.322H166.684L173.146 46.412C173.877 45.6201 174.363 44.6333 174.545 43.5711C174.726 42.5088 174.596 41.4167 174.169 40.427Z"
        fill="#33D1BF" />
    <path
        d="M185.399 37.335C185.204 37.2663 184.992 37.2598 184.793 37.3164C184.594 37.373 184.418 37.4899 184.288 37.651L174.929 49.291C174.811 49.4379 174.736 49.6153 174.715 49.8027C174.693 49.99 174.725 50.1797 174.806 50.3499C174.888 50.52 175.015 50.6636 175.175 50.7641C175.335 50.8647 175.519 50.918 175.708 50.918H184.067V54.318C184.067 54.5832 184.172 54.8376 184.36 55.0251C184.547 55.2127 184.802 55.318 185.067 55.318C185.332 55.318 185.587 55.2127 185.774 55.0251C185.962 54.8376 186.067 54.5832 186.067 54.318V50.918H188.686C188.951 50.918 189.206 50.8126 189.393 50.6251C189.581 50.4376 189.686 50.1832 189.686 49.918C189.686 49.6528 189.581 49.3984 189.393 49.2109C189.206 49.0234 188.951 48.918 188.686 48.918H186.063V38.278C186.063 38.0715 186 37.87 185.881 37.7011C185.762 37.5323 185.593 37.4044 185.399 37.335ZM184.063 48.918H177.791L184.063 41.118V48.918Z"
        fill="#33D1BF" />
    <path
        d="M149.57 36.163C149.807 36.2808 150.082 36.2995 150.333 36.2149C150.584 36.1304 150.792 35.9495 150.91 35.712C151.243 35.04 151.61 34.379 151.991 33.745C152.128 33.5181 152.17 33.2459 152.107 32.9882C152.044 32.7305 151.881 32.5085 151.654 32.371C151.427 32.2335 151.155 32.1917 150.897 32.2549C150.639 32.3181 150.417 32.4811 150.28 32.708C149.867 33.39 149.48 34.101 149.119 34.823C149.001 35.0605 148.982 35.3351 149.067 35.5864C149.151 35.8377 149.332 36.0451 149.57 36.163Z"
        fill="#33D1BF" />
</svg>
