<svg width="280" height="55" viewBox="0 0 280 55" fill="none" xmlns="http://www.w3.org/2000/svg">
<rect width="279.537" height="55" rx="8" fill="white"/>
<g clip-path="url(#clip0_2271_7454)">
<path fill-rule="evenodd" clip-rule="evenodd" d="M29.9805 32.23C30.1405 32.49 30.1205 32.82 29.9505 33.07L26.1805 38.5C25.8605 38.97 25.1505 38.94 24.8705 38.45L12.1105 16.67C11.8005 16.15 12.1805 15.5 12.7805 15.5H19.6005C19.8805 15.5 20.1305 15.64 20.2705 15.88L29.9805 32.23ZM48.2305 38.33C48.5305 38.85 48.1605 39.5 47.5605 39.5H40.7805C40.5005 39.5 40.2505 39.35 40.1105 39.11L26.9605 16.67C26.6605 16.15 27.0305 15.5 27.6305 15.5H34.4405C34.7205 15.5 34.9705 15.65 35.1105 15.89L48.2205 38.33H48.2305ZM17.4905 39.29C18.0905 39.29 18.4705 38.63 18.1605 38.11L13.4805 30.23C13.0805 29.55 12.0305 29.83 12.0305 30.63V38.51C12.0305 38.94 12.3805 39.29 12.8105 39.29H17.4805H17.4905Z" fill="#7C8EBE"/>
<path d="M56.3359 39.5H60.2959V23.63L69.5059 39.5H72.8759L82.0859 23.63V39.5H86.0459V15.5H82.1559L71.2059 34.43L60.2259 15.5H56.3359V39.5Z" fill="#7C8EBE"/>
<path d="M95.2656 39.5H110.596V35.59H99.2256V29.45H110.596V25.54H99.2256V19.41H110.596V15.5H95.2656V39.5Z" fill="#7C8EBE"/>
<path d="M125.757 39.5H129.717V19.41H138.897V15.5H116.547V19.41H125.757V39.5Z" fill="#7C8EBE"/>
<path d="M162.575 39.5H166.925L155.625 15.5H151.765L140.465 39.5H144.805L146.755 35.32H160.585L162.565 39.5H162.575ZM148.605 31.41L153.675 20.61L158.745 31.41H148.595H148.605Z" fill="#7C8EBE"/>
<path d="M173.785 39.5H177.745V31.96H182.855C187.725 31.96 191.235 28.5 191.235 23.73C191.235 18.96 187.725 15.5 182.855 15.5H173.785V39.5ZM177.745 28.05V19.41H182.855C185.425 19.41 187.265 21.23 187.265 23.73C187.265 26.23 185.425 28.05 182.855 28.05H177.745Z" fill="#7C8EBE"/>
<path d="M198.727 39.5H214.267V35.59H202.687V15.5H198.727V39.5Z" fill="#7C8EBE"/>
<path d="M221.227 39.5H236.557V35.59H225.187V29.45H236.557V25.54H225.187V19.41H236.557V15.5H221.227V39.5Z" fill="#7C8EBE"/>
<path d="M242.758 39.5H247.868L255.168 30.62L262.428 39.5H267.538L257.698 27.5L267.538 15.5H262.468L255.168 24.38L247.868 15.5H242.758L252.598 27.5L242.758 39.5Z" fill="#7C8EBE"/>
</g>
<defs>
<clipPath id="clip0_2271_7454">
<rect width="255.537" height="24" fill="white" transform="translate(12 15.5)"/>
</clipPath>
</defs>
</svg>
