<svg width="24" height="24" viewBox="0 0 24 24" fill="none" xmlns="http://www.w3.org/2000/svg">
<path d="M20.5 6C20.5 7.38071 19.3807 8.5 18 8.5V9.5C19.933 9.5 21.5 7.933 21.5 6H20.5ZM18 8.5C16.6193 8.5 15.5 7.38071 15.5 6H14.5C14.5 7.933 16.067 9.5 18 9.5V8.5ZM15.5 6C15.5 4.61929 16.6193 3.5 18 3.5V2.5C16.067 2.5 14.5 4.067 14.5 6H15.5ZM18 3.5C19.3807 3.5 20.5 4.61929 20.5 6H21.5C21.5 4.067 19.933 2.5 18 2.5V3.5ZM8.90799 11.105L15.5361 7.79099L15.0888 6.89657L8.46078 10.2106L8.90799 11.105ZM8.5 12C8.5 13.3807 7.38071 14.5 6 14.5V15.5C7.933 15.5 9.5 13.933 9.5 12H8.5ZM6 14.5C4.61929 14.5 3.5 13.3807 3.5 12H2.5C2.5 13.933 4.067 15.5 6 15.5V14.5ZM3.5 12C3.5 10.6193 4.61929 9.5 6 9.5V8.5C4.067 8.5 2.5 10.067 2.5 12H3.5ZM6 9.5C7.38071 9.5 8.5 10.6193 8.5 12H9.5C9.5 10.067 7.933 8.5 6 8.5V9.5ZM15.5392 16.2106L8.91739 12.8997L8.47018 13.7941L15.092 17.105L15.5392 16.2106ZM20.5 18C20.5 19.3807 19.3807 20.5 18 20.5V21.5C19.933 21.5 21.5 19.933 21.5 18H20.5ZM18 20.5C16.6193 20.5 15.5 19.3807 15.5 18H14.5C14.5 19.933 16.067 21.5 18 21.5V20.5ZM15.5 18C15.5 16.6193 16.6193 15.5 18 15.5V14.5C16.067 14.5 14.5 16.067 14.5 18H15.5ZM18 15.5C19.3807 15.5 20.5 16.6193 20.5 18H21.5C21.5 16.067 19.933 14.5 18 14.5V15.5Z" fill="black" fill-opacity="0.54"/>
</svg>
