<svg width="192" height="55" viewBox="0 0 192 55" fill="none" xmlns="http://www.w3.org/2000/svg">
<rect x="0.269531" width="191" height="55" rx="8" fill="white"/>
<path d="M37.9558 7.5H26.5832C24.9482 7.5 24.1307 7.5 23.3957 7.80448C22.6606 8.10896 22.0825 8.68702 20.9264 9.84315L14.6127 16.1569C13.4566 17.313 12.8785 17.891 12.574 18.6261C12.2695 19.3612 12.2695 20.1787 12.2695 21.8137V33.1863C12.2695 34.8213 12.2695 35.6388 12.574 36.3739C12.8785 37.109 13.4566 37.687 14.6127 38.8431L20.9264 45.1569C22.0825 46.313 22.6606 46.891 23.3957 47.1955C24.1307 47.5 24.9482 47.5 26.5832 47.5H37.9558C39.5908 47.5 40.4083 47.5 41.1434 47.1955C41.8785 46.891 42.4566 46.313 43.6127 45.1569L49.9264 38.8431C51.0825 37.687 51.6606 37.109 51.965 36.3739C52.2695 35.6388 52.2695 34.8213 52.2695 33.1863V21.8137C52.2695 20.1787 52.2695 19.3612 51.965 18.6261C51.6606 17.891 51.0825 17.313 49.9264 16.1569L43.6127 9.84315C42.4566 8.68702 41.8785 8.10896 41.1434 7.80448C40.4083 7.5 39.5908 7.5 37.9558 7.5Z" fill="#7C8EBE"/>
<rect x="17.2695" y="12.5" width="30" height="30" rx="4" fill="white"/>
<path d="M70.4394 36.576C68.2421 36.576 66.4181 36.2027 64.9674 35.456C63.5167 34.7093 62.4821 33.664 61.8634 32.32C61.4581 31.4027 61.2341 30.2613 61.1914 28.896H66.4074C66.4074 29.7493 66.5247 30.4427 66.7594 30.976C67.3567 32.256 68.6367 32.896 70.5994 32.896C71.5167 32.896 72.2954 32.7573 72.9354 32.48C73.5967 32.1813 74.0447 31.7653 74.2794 31.232C74.4714 30.784 74.5674 30.368 74.5674 29.984C74.5674 29.5787 74.4821 29.184 74.3114 28.8C74.1194 28.352 73.7887 27.9787 73.3194 27.68C72.8714 27.3813 72.3701 27.1467 71.8154 26.976C71.2607 26.784 70.4821 26.5493 69.4794 26.272L68.0394 25.888C66.5674 25.504 65.3301 25.0133 64.3274 24.416C63.3461 23.7973 62.6421 23.008 62.2154 22.048C61.8741 21.216 61.7034 20.3733 61.7034 19.52C61.7034 18.6027 61.9061 17.7067 62.3114 16.832C62.8661 15.5733 63.8474 14.592 65.2554 13.888C66.6634 13.184 68.3487 12.832 70.3114 12.832C72.2314 12.832 73.8634 13.184 75.2074 13.888C76.5727 14.5707 77.5541 15.5627 78.1514 16.864C78.5567 17.824 78.7594 18.9227 78.7594 20.16H73.8634C73.8634 19.3493 73.7461 18.6773 73.5114 18.144C72.9567 16.9707 71.8261 16.384 70.1194 16.384C69.3087 16.384 68.6047 16.5333 68.0074 16.832C67.4314 17.1093 67.0261 17.4933 66.7914 17.984C66.7061 18.1547 66.6527 18.3253 66.6314 18.496C66.6101 18.6453 66.5994 18.816 66.5994 19.008C66.5994 19.392 66.6527 19.7333 66.7594 20.032C66.9301 20.416 67.2287 20.7467 67.6554 21.024C68.1034 21.28 68.6047 21.4933 69.1594 21.664C69.7141 21.8347 70.4821 22.048 71.4634 22.304C72.0821 22.4533 72.4874 22.56 72.6794 22.624C73.8101 22.9227 74.7807 23.2427 75.5914 23.584C76.4234 23.9253 77.1487 24.352 77.7674 24.864C78.4074 25.3547 78.8981 25.9627 79.2394 26.688C79.5807 27.4987 79.7514 28.416 79.7514 29.44C79.7514 30.4853 79.5487 31.4667 79.1434 32.384C78.5461 33.728 77.4794 34.7627 75.9434 35.488C74.4287 36.2133 72.5941 36.576 70.4394 36.576ZM99.8117 20.16V42.464H95.3637V34.208C94.233 35.68 92.5797 36.416 90.4037 36.416C88.9103 36.416 87.6197 36.0853 86.5317 35.424C85.465 34.7413 84.6543 33.7813 84.0997 32.544C83.5237 31.2213 83.2357 29.7387 83.2357 28.096C83.2357 26.3893 83.5237 24.896 84.0997 23.616C84.6543 22.3787 85.465 21.4187 86.5317 20.736C87.6197 20.0533 88.9103 19.712 90.4037 19.712C92.6223 19.712 94.3077 20.4907 95.4597 22.048V20.16H99.8117ZM91.7157 32.736C92.889 32.736 93.7957 32.3733 94.4357 31.648C95.0757 30.9013 95.3957 29.8453 95.3957 28.48V27.648C95.3957 26.2827 95.0757 25.2373 94.4357 24.512C93.7957 23.7867 92.889 23.424 91.7157 23.424C90.9263 23.424 90.2437 23.584 89.6677 23.904C89.113 24.224 88.697 24.704 88.4197 25.344C88.121 25.9627 87.9717 26.88 87.9717 28.096C87.9717 29.248 88.121 30.1547 88.4197 30.816C88.7183 31.4347 89.145 31.9147 89.6997 32.256C90.2543 32.576 90.9263 32.736 91.7157 32.736ZM119.775 20.16V36H115.327V34.112C114.218 35.6693 112.586 36.448 110.431 36.448C108.575 36.448 107.135 35.9147 106.111 34.848C105.087 33.76 104.575 32.2027 104.575 30.176V20.16H109.023V29.248C109.023 30.464 109.269 31.36 109.759 31.936C110.25 32.4907 111.007 32.768 112.031 32.768C113.098 32.768 113.909 32.4587 114.463 31.84C115.039 31.2 115.327 30.272 115.327 29.056V20.16H119.775ZM138.863 22.976C139.289 23.9573 139.503 25.2373 139.503 26.816V36H135.055V34.208C133.924 35.68 132.143 36.416 129.711 36.416C128.388 36.416 127.257 36.192 126.319 35.744C125.38 35.2747 124.719 34.6027 124.335 33.728C124.057 33.152 123.919 32.4267 123.919 31.552C123.919 30.7413 124.047 30.0373 124.303 29.44C124.836 28.2667 125.764 27.4667 127.087 27.04C128.409 26.592 130.116 26.368 132.207 26.368H135.055V26.048C135.055 25.6 135.033 25.2587 134.991 25.024C134.948 24.768 134.873 24.512 134.767 24.256C134.361 23.3813 133.444 22.944 132.015 22.944C131.289 22.944 130.692 23.0507 130.223 23.264C129.775 23.456 129.444 23.776 129.231 24.224C129.167 24.3947 129.113 24.5653 129.071 24.736C129.049 24.8853 129.028 25.0453 129.007 25.216H124.527C124.527 24.4053 124.676 23.648 124.975 22.944C125.465 21.856 126.319 21.0453 127.535 20.512C128.751 19.9787 130.233 19.712 131.983 19.712C133.817 19.712 135.289 19.9787 136.399 20.512C137.529 21.0453 138.351 21.8667 138.863 22.976ZM131.279 33.088C132.153 33.088 132.879 32.9387 133.455 32.64C134.031 32.32 134.457 31.872 134.735 31.296C134.948 30.8053 135.055 30.1547 135.055 29.344V29.12H132.527C131.503 29.12 130.66 29.2053 129.999 29.376C129.359 29.5467 128.932 29.856 128.719 30.304C128.612 30.56 128.559 30.8267 128.559 31.104C128.559 31.4027 128.612 31.6907 128.719 31.968C128.889 32.352 129.199 32.64 129.647 32.832C130.116 33.0027 130.66 33.088 131.279 33.088ZM160.134 13.408V36H155.782V34.112C154.63 35.648 152.945 36.416 150.726 36.416C149.233 36.416 147.942 36.0853 146.854 35.424C145.787 34.7413 144.977 33.7813 144.422 32.544C143.846 31.2213 143.558 29.7387 143.558 28.096C143.558 26.3893 143.846 24.896 144.422 23.616C144.977 22.3787 145.787 21.4187 146.854 20.736C147.942 20.0533 149.233 19.712 150.726 19.712C152.859 19.712 154.513 20.448 155.686 21.92V13.408H160.134ZM155.718 27.648C155.718 26.2827 155.398 25.2373 154.758 24.512C154.118 23.7653 153.211 23.392 152.038 23.392C151.249 23.392 150.566 23.5627 149.99 23.904C149.435 24.224 149.019 24.704 148.742 25.344C148.443 25.9627 148.294 26.88 148.294 28.096C148.294 29.2693 148.443 30.1867 148.742 30.848C149.041 31.4667 149.467 31.9467 150.022 32.288C150.577 32.608 151.249 32.768 152.038 32.768C153.211 32.768 154.118 32.4053 154.758 31.68C155.398 30.9333 155.718 29.8773 155.718 28.512V27.648ZM171.298 36.512C169.634 36.512 168.247 36.256 167.138 35.744C166.029 35.2107 165.239 34.4213 164.77 33.376C164.45 32.608 164.29 31.7333 164.29 30.752H168.642C168.642 31.3493 168.727 31.8187 168.898 32.16C169.282 33.0133 170.103 33.44 171.362 33.44C172.557 33.44 173.314 33.0987 173.634 32.416C173.741 32.2027 173.794 31.9787 173.794 31.744C173.794 31.4667 173.741 31.2213 173.634 31.008C173.506 30.7093 173.282 30.4747 172.962 30.304C172.663 30.112 172.237 29.9413 171.682 29.792C171.149 29.6427 170.573 29.504 169.954 29.376C168.781 29.0987 167.778 28.736 166.946 28.288C166.135 27.8187 165.549 27.1787 165.186 26.368C165.079 26.0907 164.994 25.8133 164.93 25.536C164.887 25.2587 164.866 24.9387 164.866 24.576C164.866 23.8507 164.994 23.1893 165.25 22.592C165.677 21.6747 166.423 20.9707 167.49 20.48C168.557 19.968 169.826 19.712 171.298 19.712C172.77 19.712 174.029 19.9573 175.074 20.448C176.141 20.9173 176.898 21.632 177.346 22.592C177.645 23.2533 177.794 24.0107 177.794 24.864H173.57C173.57 24.4373 173.495 24.0427 173.346 23.68C173.175 23.3173 172.909 23.0507 172.546 22.88C172.183 22.688 171.746 22.592 171.234 22.592C170.722 22.592 170.295 22.6667 169.954 22.816C169.634 22.9653 169.41 23.1787 169.282 23.456C169.197 23.6053 169.154 23.808 169.154 24.064C169.154 24.3413 169.197 24.5333 169.282 24.64C169.431 24.9387 169.677 25.1947 170.018 25.408C170.381 25.6 170.829 25.7707 171.362 25.92C171.917 26.0693 172.461 26.208 172.994 26.336C174.317 26.6773 175.394 27.0827 176.226 27.552C177.058 28 177.666 28.64 178.05 29.472C178.285 29.9627 178.402 30.5707 178.402 31.296C178.402 32.1067 178.263 32.8213 177.986 33.44C177.517 34.464 176.685 35.232 175.49 35.744C174.317 36.256 172.919 36.512 171.298 36.512Z" fill="#7C8EBE"/>
</svg>
