<svg width="40" height="40" viewBox="0 0 40 40" fill="none" xmlns="http://www.w3.org/2000/svg">
<rect width="40" height="40" rx="20" fill="#C3D1F3"/>
<path fill-rule="evenodd" clip-rule="evenodd" d="M11.3749 19.1352C16.7436 16.7962 20.3236 15.2541 22.1148 14.5091C27.2292 12.3819 28.2919 12.0123 28.9846 12.0001C29.1369 11.9974 29.4776 12.0352 29.6982 12.2142C29.8845 12.3654 29.9358 12.5696 29.9603 12.713C29.9848 12.8563 30.0154 13.1828 29.9911 13.438C29.714 16.35 28.5147 23.4167 27.9046 26.6783C27.6465 28.0583 27.1382 28.5211 26.6461 28.5663C25.5766 28.6648 24.7645 27.8596 23.7287 27.1806C22.1078 26.1181 21.1921 25.4567 19.6188 24.4199C17.8005 23.2217 18.9792 22.5631 20.0154 21.4869C20.2866 21.2052 24.9987 16.9192 25.0899 16.5304C25.1013 16.4818 25.1119 16.3005 25.0042 16.2048C24.8965 16.1091 24.7376 16.1418 24.6229 16.1678C24.4604 16.2047 21.871 17.9162 16.8549 21.3022C16.1199 21.8069 15.4542 22.0528 14.8577 22.0399C14.2001 22.0257 12.9353 21.6682 11.995 21.3625C10.8417 20.9876 9.92503 20.7894 10.0048 20.1527C10.0464 19.8211 10.5031 19.4819 11.3749 19.1352Z" fill="#20243D"/>
</svg>
