<svg width="140" height="55" viewBox="0 0 140 55" fill="none" xmlns="http://www.w3.org/2000/svg">
<rect x="0.773438" width="138.45" height="55" rx="8" fill="white"/>
<path fill-rule="evenodd" clip-rule="evenodd" d="M25.1724 31.1152C24.6202 31.1152 24.1725 31.5629 24.1725 32.1152V41.2127C22.0079 37.0867 17.7282 34.2443 12.7738 34.1259C12.7736 34.1601 12.7734 34.1944 12.7734 34.2287C12.7734 41.4256 18.5221 47.2799 25.6783 47.451C25.6786 47.4167 25.6787 47.3825 25.6787 47.3482C25.6787 47.3136 25.6786 47.2791 25.6783 47.2447H25.6896C25.6868 47.3133 25.6846 47.3821 25.683 47.4511C25.7885 47.4536 25.8944 47.4548 26.0005 47.4548C33.1962 47.4548 39.0499 41.7093 39.2236 34.5559C39.118 34.5534 39.0122 34.5522 38.9061 34.5522C33.9743 34.5522 29.673 37.2511 27.3986 41.2523V32.1152C27.3986 31.5629 26.9509 31.1152 26.3986 31.1152H25.1724Z" fill="#7C8EBE" fill-opacity="0.5"/>
<path fill-rule="evenodd" clip-rule="evenodd" d="M23.1226 30.5426C23.5513 32.3252 25.4228 33.3058 27.1327 32.6441C33.3265 30.2476 37.7191 24.2342 37.7191 17.1949C37.7191 15.8566 37.5603 14.5553 37.2606 13.309C36.8318 11.5263 34.9604 10.5458 33.2504 11.2074C27.0566 13.6039 22.6641 19.6173 22.6641 26.6566C22.6641 27.9949 22.8228 29.2962 23.1226 30.5426Z" fill="#7C8EBE" fill-opacity="0.5"/>
<path fill-rule="evenodd" clip-rule="evenodd" d="M23.594 31.5822C24.7841 32.977 26.8966 33.0031 28.1211 31.6386C32.5572 26.6955 33.7479 19.3438 30.5573 13.0683C29.9507 11.8754 29.2195 10.7874 28.3875 9.81227C27.1975 8.41751 25.0849 8.3914 23.8604 9.75588C19.4243 14.6989 18.2336 22.0507 21.4242 28.3262C22.0308 29.5191 22.762 30.6071 23.594 31.5822Z" fill="#7C8EBE" fill-opacity="0.5"/>
<path fill-rule="evenodd" clip-rule="evenodd" d="M28.6587 30.5426C28.2299 32.3252 26.3585 33.3058 24.6485 32.6441C18.4547 30.2476 14.0622 24.2342 14.0622 17.1949C14.0622 15.8566 14.221 14.5553 14.5207 13.3089C14.9494 11.5263 16.8209 10.5458 18.5308 11.2074C24.7247 13.6039 29.1172 19.6173 29.1172 26.6566C29.1172 27.9949 28.9584 29.2962 28.6587 30.5426Z" fill="#7C8EBE" fill-opacity="0.5"/>
<path d="M48.2235 20.384H55.0715V40H59.1675V20.384H66.0155V16.608H48.2235V20.384ZM79.3043 24.192V32.48C79.3043 35.488 78.1203 36.928 75.6563 36.928C73.4803 36.928 72.2963 35.712 72.2963 32.704V24.192H68.3923V34.08C68.3923 37.952 70.5363 40.416 74.1843 40.416C76.2963 40.416 78.3443 39.392 79.3043 37.888L79.5923 40H83.2083V24.192H79.3043ZM93.0965 40V16.192H89.2245V40H93.0965ZM101.064 21.024C102.344 21.024 103.4 19.968 103.4 18.656C103.4 17.344 102.344 16.32 101.064 16.32C99.7198 16.32 98.6638 17.344 98.6638 18.656C98.6638 19.968 99.7198 21.024 101.064 21.024ZM99.1118 40H103.016V24.192H99.1118V40ZM108.969 47.328H112.873V37.888C113.865 39.488 115.913 40.416 118.281 40.416C122.985 40.416 125.673 36.832 125.673 31.904C125.673 26.944 122.729 23.712 118.281 23.712C115.881 23.712 113.801 24.768 112.841 26.592L112.585 24.192H108.969V47.328ZM112.905 32.096C112.905 29.248 114.665 27.264 117.353 27.264C120.105 27.264 121.737 29.28 121.737 32.096C121.737 34.912 120.105 36.896 117.353 36.896C114.665 36.896 112.905 34.944 112.905 32.096Z" fill="#7C8EBE"/>
</svg>
