<svg width="40" height="40" viewBox="0 0 40 40" fill="none" xmlns="http://www.w3.org/2000/svg">
<g filter="url(#filter0_d_398_3152)">
<circle cx="20" cy="18" r="16" fill="white" fill-opacity="0.12"/>
<path d="M31 11.619C30.1762 11.9661 29.3563 12.3276 28.4615 12.4286C29.3935 11.8974 29.8169 11.0021 30.1538 10C29.2679 10.4999 28.6262 11.4297 27.6154 11.619C26.792 10.785 25.529 10 24.2308 10C21.7381 10 20 11.6776 20 14.0476C20 14.384 19.9231 15.3525 20 15.6667C16.2488 15.4876 12.9185 13.406 10.6923 10.8095C10.3039 11.4434 9.84615 12.4517 9.84615 13.2381C9.84615 14.7271 10.3274 15.7065 11.5385 16.4762C10.8217 16.4548 10.4729 15.9981 9.84615 15.6667C9.8459 15.6846 9.84615 15.6486 9.84615 15.6667C9.84615 17.746 11.166 20.1295 13.2308 20.5238C12.5661 20.6957 12.2149 20.6473 11.5385 20.5238C12.1128 22.2288 13.7942 22.9177 15.7692 22.9524C14.2245 24.1034 11.9607 25.381 9.84615 25.381C9.48178 25.381 9.35312 25.4206 9 25.381C10.9974 26.5986 13.2203 27 15.7692 27C24.0714 27 28.4615 20.5283 28.4615 14.8571C28.4615 14.671 28.4703 14.2316 28.4615 14.0476C29.3452 13.4402 30.3941 12.481 31 11.619Z" fill="#55ACEE"/>
</g>
<defs>
<filter id="filter0_d_398_3152" x="0" y="0" width="40" height="40" filterUnits="userSpaceOnUse" color-interpolation-filters="sRGB">
<feFlood flood-opacity="0" result="BackgroundImageFix"/>
<feColorMatrix in="SourceAlpha" type="matrix" values="0 0 0 0 0 0 0 0 0 0 0 0 0 0 0 0 0 0 127 0" result="hardAlpha"/>
<feOffset dy="2"/>
<feGaussianBlur stdDeviation="2"/>
<feComposite in2="hardAlpha" operator="out"/>
<feColorMatrix type="matrix" values="0 0 0 0 0.103854 0 0 0 0 0.224896 0 0 0 0 0.536146 0 0 0 1 0"/>
<feBlend mode="normal" in2="BackgroundImageFix" result="effect1_dropShadow_398_3152"/>
<feBlend mode="normal" in="SourceGraphic" in2="effect1_dropShadow_398_3152" result="shape"/>
</filter>
</defs>
</svg>
