<svg width="316" height="218" viewBox="0 0 316 218" fill="none" xmlns="http://www.w3.org/2000/svg">
<rect x="0.328313" y="0.328313" width="314.852" height="217.343" rx="7.67169" fill="#F3F3F3" stroke="url(#paint0_linear_738_2689)" stroke-width="0.656626"/>
<mask id="mask0_738_2689" style="mask-type:alpha" maskUnits="userSpaceOnUse" x="0" y="0" width="316" height="218">
<rect x="0.328313" y="0.328313" width="314.852" height="217.343" rx="7.67169" fill="white" stroke="white" stroke-width="0.656626"/>
</mask>
<g mask="url(#mask0_738_2689)">
<g filter="url(#filter0_f_738_2689)">
<path fill-rule="evenodd" clip-rule="evenodd" d="M316.181 9.16341C316.181 3.92166 311.918 -0.328018 306.66 -0.328018L166.1 -0.484192L306.66 0.279556C309.895 0.279556 315.853 3.92166 315.853 9.16341L316.181 206.353V9.16341ZM134.42 -0.656326H11.1777L166.1 -0.484192L134.42 -0.656326ZM306.66 -0.656326L13.5736 -1.31296L134.42 -0.656326H306.66ZM309.27 -0.307861C313.443 0.832291 316.51 4.64069 316.51 9.16341V206.867C316.51 212.291 312.1 216.687 306.66 216.687M306.676 216.687C312.108 216.678 316.509 212.285 316.509 206.867V9.16341C316.509 4.64098 313.443 0.832565 309.27 -0.307861M306.676 216.687C306.671 216.687 306.666 216.687 306.66 216.687C306.66 216.687 306.66 216.687 306.66 216.687C311.918 216.687 316.181 212.109 316.181 206.867V206.353L316.182 206.867C316.182 212.104 311.927 216.678 306.676 216.687Z" fill="url(#paint1_linear_738_2689)"/>
</g>
<rect x="10.1779" y="23.3102" width="285.304" height="22.3253" rx="7.67169" fill="white" stroke="url(#paint2_linear_738_2689)" stroke-width="0.656626"/>
<g filter="url(#filter1_f_738_2689)">
<rect x="10.1779" y="23.3102" width="285.304" height="22.3253" rx="7.67169" stroke="url(#paint3_linear_738_2689)" stroke-width="0.656626"/>
</g>
<rect x="21.9961" y="30.8613" width="52.8584" height="6.89458" rx="3.44729" fill="#F6B9B8"/>
<rect x="81.4219" y="30.8613" width="26.2651" height="6.89458" rx="3.44729" fill="#F6B9B8"/>
<g filter="url(#filter2_d_738_2689)">
<path fill-rule="evenodd" clip-rule="evenodd" d="M272.301 32.7955C272.301 35.2434 274.285 37.2277 276.733 37.2277C279.181 37.2277 281.165 35.2434 281.165 32.7955C281.165 30.3477 279.181 28.3633 276.733 28.3633C274.285 28.3633 272.301 30.3477 272.301 32.7955ZM279.669 32.7858C279.669 34.4123 278.351 35.7308 276.724 35.7308C275.098 35.7308 273.779 34.4123 273.779 32.7858C273.779 31.1593 275.098 29.8408 276.724 29.8408C278.351 29.8408 279.669 31.1593 279.669 32.7858Z" fill="#184F66"/>
<g opacity="0.374023" filter="url(#filter3_f_738_2689)">
<path d="M276.921 36.3317C278.988 36.3317 280.663 34.656 280.663 32.589C280.663 30.5219 278.988 28.8462 276.921 28.8462C274.853 28.8462 273.178 30.5219 273.178 32.589C273.178 34.656 274.853 36.3317 276.921 36.3317Z" stroke="white" stroke-width="0.196988"/>
</g>
<path d="M280.561 36.7061L282.737 38.8828" stroke="#03415A" stroke-width="1.5759" stroke-linecap="round"/>
</g>
</g>
<rect x="78.5" y="55.5" width="216" height="71" rx="7.5" fill="#000E33" stroke="url(#paint4_linear_738_2689)"/>
<path d="M99.83 70.072C99.542 70.072 99.276 70.02 99.032 69.916C98.792 69.808 98.582 69.666 98.402 69.49L98.702 69.142C98.85 69.29 99.022 69.41 99.218 69.502C99.418 69.59 99.63 69.634 99.854 69.634C100.126 69.634 100.336 69.576 100.484 69.46C100.636 69.344 100.712 69.194 100.712 69.01C100.712 68.87 100.68 68.758 100.616 68.674C100.556 68.59 100.472 68.52 100.364 68.464C100.26 68.408 100.14 68.352 100.004 68.296L99.44 68.05C99.308 67.994 99.176 67.924 99.044 67.84C98.916 67.756 98.808 67.65 98.72 67.522C98.632 67.39 98.588 67.228 98.588 67.036C98.588 66.836 98.642 66.658 98.75 66.502C98.862 66.342 99.016 66.218 99.212 66.13C99.408 66.038 99.63 65.992 99.878 65.992C100.126 65.992 100.354 66.038 100.562 66.13C100.77 66.218 100.946 66.334 101.09 66.478L100.826 66.802C100.698 66.686 100.556 66.596 100.4 66.532C100.244 66.464 100.064 66.43 99.86 66.43C99.632 66.43 99.448 66.482 99.308 66.586C99.168 66.686 99.098 66.826 99.098 67.006C99.098 67.13 99.132 67.232 99.2 67.312C99.272 67.392 99.362 67.458 99.47 67.51C99.578 67.562 99.688 67.612 99.8 67.66L100.352 67.9C100.516 67.964 100.664 68.042 100.796 68.134C100.928 68.222 101.032 68.332 101.108 68.464C101.184 68.596 101.222 68.758 101.222 68.95C101.222 69.158 101.166 69.348 101.054 69.52C100.942 69.688 100.782 69.822 100.574 69.922C100.366 70.022 100.118 70.072 99.83 70.072ZM102.522 70V66.064H104.958V66.484H103.026V67.72H104.658V68.146H103.026V69.574H105.018V70H102.522ZM106.479 70V66.064H106.971V69.574H108.921V70H106.479ZM110.197 70V66.064H112.633V66.484H110.701V67.72H112.333V68.146H110.701V69.574H112.693V70H110.197ZM115.457 70.072C115.213 70.072 114.987 70.026 114.779 69.934C114.571 69.842 114.389 69.71 114.233 69.538C114.077 69.362 113.955 69.148 113.867 68.896C113.783 68.64 113.741 68.352 113.741 68.032C113.741 67.612 113.817 67.25 113.969 66.946C114.121 66.638 114.329 66.402 114.593 66.238C114.857 66.074 115.161 65.992 115.505 65.992C115.741 65.992 115.951 66.042 116.135 66.142C116.319 66.238 116.467 66.348 116.579 66.472L116.297 66.79C116.197 66.678 116.081 66.59 115.949 66.526C115.817 66.462 115.669 66.43 115.505 66.43C115.253 66.43 115.033 66.496 114.845 66.628C114.661 66.756 114.517 66.938 114.413 67.174C114.309 67.41 114.257 67.692 114.257 68.02C114.257 68.352 114.309 68.638 114.413 68.878C114.517 69.118 114.661 69.304 114.845 69.436C115.033 69.568 115.253 69.634 115.505 69.634C115.685 69.634 115.847 69.596 115.991 69.52C116.135 69.444 116.269 69.336 116.393 69.196L116.675 69.502C116.523 69.682 116.347 69.822 116.147 69.922C115.947 70.022 115.717 70.072 115.457 70.072ZM118.736 70V66.484H117.44V66.064H120.536V66.484H119.24V70H118.736ZM133.337 70V66.064H135.755V66.484H133.841V67.816H135.461V68.236H133.841V70H133.337ZM136.977 70V66.064H138.201C138.469 66.064 138.705 66.1 138.909 66.172C139.117 66.24 139.279 66.356 139.395 66.52C139.515 66.68 139.575 66.896 139.575 67.168C139.575 67.432 139.515 67.65 139.395 67.822C139.279 67.994 139.117 68.124 138.909 68.212C138.705 68.296 138.469 68.338 138.201 68.338H137.475V70H136.977ZM137.475 67.93H138.129C138.437 67.93 138.671 67.868 138.831 67.744C138.995 67.616 139.077 67.424 139.077 67.168C139.077 66.912 138.995 66.732 138.831 66.628C138.671 66.52 138.437 66.466 138.129 66.466H137.475V67.93ZM138.099 68.2L138.495 67.936L139.695 70H139.125L138.099 68.2ZM142.014 70.072C141.718 70.072 141.456 69.99 141.228 69.826C141 69.662 140.822 69.428 140.694 69.124C140.566 68.816 140.502 68.446 140.502 68.014C140.502 67.59 140.566 67.228 140.694 66.928C140.822 66.624 141 66.392 141.228 66.232C141.456 66.072 141.718 65.992 142.014 65.992C142.31 65.992 142.572 66.072 142.8 66.232C143.028 66.392 143.206 66.624 143.334 66.928C143.462 67.228 143.526 67.59 143.526 68.014C143.526 68.446 143.462 68.816 143.334 69.124C143.206 69.428 143.028 69.662 142.8 69.826C142.572 69.99 142.31 70.072 142.014 70.072ZM142.014 69.634C142.214 69.634 142.388 69.57 142.536 69.442C142.688 69.31 142.804 69.124 142.884 68.884C142.968 68.64 143.01 68.35 143.01 68.014C143.01 67.682 142.968 67.398 142.884 67.162C142.804 66.926 142.688 66.746 142.536 66.622C142.388 66.494 142.214 66.43 142.014 66.43C141.814 66.43 141.638 66.494 141.486 66.622C141.338 66.746 141.222 66.926 141.138 67.162C141.058 67.398 141.018 67.682 141.018 68.014C141.018 68.35 141.058 68.64 141.138 68.884C141.222 69.124 141.338 69.31 141.486 69.442C141.638 69.57 141.814 69.634 142.014 69.634ZM144.484 70V66.064H145.096L145.648 67.744L145.84 68.38H145.864L146.05 67.744L146.608 66.064H147.22V70H146.74V68.032C146.74 67.936 146.742 67.826 146.746 67.702C146.754 67.578 146.762 67.45 146.77 67.318C146.782 67.186 146.792 67.062 146.8 66.946C146.812 66.826 146.82 66.724 146.824 66.64H146.806L146.584 67.408L146.02 68.956H145.66L145.108 67.408L144.88 66.64H144.868C144.876 66.724 144.884 66.826 144.892 66.946C144.904 67.062 144.914 67.186 144.922 67.318C144.93 67.45 144.936 67.578 144.94 67.702C144.948 67.826 144.952 67.936 144.952 68.032V70H144.484ZM98.804 80V76.064H99.296V79.574H101.246V80H98.804ZM102.408 80V79.574H103.386V76.484H102.408V76.064H104.868V76.484H103.89V79.574H104.868V80H102.408ZM106.107 80V76.064H106.719L107.271 77.744L107.463 78.38H107.487L107.673 77.744L108.231 76.064H108.843V80H108.363V78.032C108.363 77.936 108.365 77.826 108.369 77.702C108.377 77.578 108.385 77.45 108.393 77.318C108.405 77.186 108.415 77.062 108.423 76.946C108.435 76.826 108.443 76.724 108.447 76.64H108.429L108.207 77.408L107.643 78.956H107.283L106.731 77.408L106.503 76.64H106.491C106.499 76.724 106.507 76.826 106.515 76.946C106.527 77.062 106.537 77.186 106.545 77.318C106.553 77.45 106.559 77.578 106.563 77.702C106.571 77.826 106.575 77.936 106.575 78.032V80H106.107ZM110.083 80V79.574H111.061V76.484H110.083V76.064H112.543V76.484H111.565V79.574H112.543V80H110.083ZM114.899 80V76.484H113.603V76.064H116.699V76.484H115.403V80H114.899Z" fill="#5C96CF"/>
<path d="M125.944 69.334L125.692 69.154L126.34 68.164L125.368 67.744L125.464 67.468L126.466 67.798L126.52 66.664H126.808L126.862 67.798L127.864 67.468L127.96 67.744L126.988 68.164L127.636 69.154L127.384 69.334L126.664 68.38L125.944 69.334ZM153.587 70.072C153.303 70.072 153.037 70.026 152.789 69.934C152.541 69.842 152.329 69.736 152.153 69.616L152.381 69.292C152.549 69.412 152.735 69.508 152.939 69.58C153.143 69.652 153.379 69.688 153.647 69.688C153.895 69.688 154.079 69.642 154.199 69.55C154.323 69.458 154.385 69.352 154.385 69.232C154.385 69.176 154.373 69.124 154.349 69.076C154.329 69.028 154.287 68.982 154.223 68.938C154.163 68.894 154.073 68.852 153.953 68.812C153.833 68.772 153.673 68.732 153.473 68.692C153.093 68.612 152.807 68.504 152.615 68.368C152.427 68.232 152.333 68.056 152.333 67.84C152.333 67.604 152.435 67.408 152.639 67.252C152.843 67.092 153.145 67.012 153.545 67.012C153.769 67.012 153.985 67.05 154.193 67.126C154.401 67.198 154.577 67.284 154.721 67.384L154.481 67.702C154.349 67.606 154.199 67.532 154.031 67.48C153.863 67.424 153.687 67.396 153.503 67.396C153.335 67.396 153.201 67.416 153.101 67.456C153.005 67.492 152.935 67.542 152.891 67.606C152.851 67.67 152.831 67.74 152.831 67.816C152.831 67.94 152.897 68.038 153.029 68.11C153.165 68.178 153.381 68.242 153.677 68.302C154.001 68.37 154.249 68.446 154.421 68.53C154.597 68.614 154.717 68.71 154.781 68.818C154.849 68.926 154.883 69.054 154.883 69.202C154.883 69.362 154.833 69.508 154.733 69.64C154.633 69.768 154.487 69.872 154.295 69.952C154.103 70.032 153.867 70.072 153.587 70.072ZM157.365 70.072C157.109 70.072 156.871 70.012 156.651 69.892C156.435 69.772 156.259 69.598 156.123 69.37C155.991 69.142 155.925 68.868 155.925 68.548C155.925 68.22 155.991 67.942 156.123 67.714C156.259 67.486 156.435 67.312 156.651 67.192C156.871 67.072 157.109 67.012 157.365 67.012C157.621 67.012 157.857 67.072 158.073 67.192C158.293 67.312 158.469 67.486 158.601 67.714C158.737 67.942 158.805 68.22 158.805 68.548C158.805 68.868 158.737 69.142 158.601 69.37C158.469 69.598 158.293 69.772 158.073 69.892C157.857 70.012 157.621 70.072 157.365 70.072ZM157.365 69.664C157.553 69.664 157.717 69.618 157.857 69.526C157.997 69.43 158.105 69.298 158.181 69.13C158.257 68.962 158.295 68.768 158.295 68.548C158.295 68.324 158.257 68.128 158.181 67.96C158.105 67.788 157.997 67.656 157.857 67.564C157.717 67.468 157.553 67.42 157.365 67.42C157.177 67.42 157.013 67.468 156.873 67.564C156.737 67.656 156.629 67.788 156.549 67.96C156.473 68.128 156.435 68.324 156.435 68.548C156.435 68.768 156.473 68.962 156.549 69.13C156.629 69.298 156.737 69.43 156.873 69.526C157.013 69.618 157.177 69.664 157.365 69.664ZM161.839 70.072C161.531 70.072 161.295 69.984 161.131 69.808C160.967 69.628 160.885 69.366 160.885 69.022V66.13H159.889V65.728H161.377V69.058C161.377 69.27 161.429 69.424 161.533 69.52C161.637 69.616 161.775 69.664 161.947 69.664C162.031 69.664 162.117 69.654 162.205 69.634C162.293 69.61 162.391 69.574 162.499 69.526L162.625 69.898C162.493 69.946 162.369 69.986 162.253 70.018C162.137 70.054 161.999 70.072 161.839 70.072ZM164.716 70.072C164.536 70.072 164.37 70.04 164.218 69.976C164.066 69.908 163.946 69.812 163.858 69.688C163.77 69.564 163.726 69.416 163.726 69.244C163.726 68.916 163.89 68.668 164.218 68.5C164.546 68.328 165.086 68.212 165.838 68.152C165.834 68.02 165.806 67.898 165.754 67.786C165.706 67.674 165.626 67.586 165.514 67.522C165.402 67.454 165.252 67.42 165.064 67.42C164.94 67.42 164.816 67.438 164.692 67.474C164.572 67.506 164.456 67.55 164.344 67.606C164.236 67.658 164.136 67.712 164.044 67.768L163.852 67.432C163.948 67.368 164.064 67.304 164.2 67.24C164.34 67.172 164.49 67.118 164.65 67.078C164.81 67.034 164.976 67.012 165.148 67.012C165.416 67.012 165.636 67.062 165.808 67.162C165.984 67.262 166.114 67.402 166.198 67.582C166.286 67.758 166.33 67.968 166.33 68.212V70H165.928L165.886 69.604H165.868C165.708 69.732 165.528 69.842 165.328 69.934C165.128 70.026 164.924 70.072 164.716 70.072ZM164.848 69.676C165.016 69.676 165.182 69.638 165.346 69.562C165.51 69.486 165.674 69.38 165.838 69.244V68.476C165.422 68.512 165.094 68.562 164.854 68.626C164.618 68.69 164.45 68.772 164.35 68.872C164.254 68.968 164.206 69.08 164.206 69.208C164.206 69.316 164.236 69.406 164.296 69.478C164.356 69.546 164.434 69.596 164.53 69.628C164.63 69.66 164.736 69.676 164.848 69.676ZM167.636 70V67.084H168.044L168.086 67.582H168.11C168.262 67.418 168.426 67.282 168.602 67.174C168.778 67.066 168.98 67.012 169.208 67.012C169.552 67.012 169.806 67.112 169.97 67.312C170.134 67.512 170.216 67.804 170.216 68.188V70H169.724V68.254C169.724 67.978 169.672 67.774 169.568 67.642C169.464 67.506 169.292 67.438 169.052 67.438C168.88 67.438 168.726 67.482 168.59 67.57C168.454 67.658 168.3 67.79 168.128 67.966V70H167.636ZM172.391 70.072C172.211 70.072 172.045 70.04 171.893 69.976C171.741 69.908 171.621 69.812 171.533 69.688C171.445 69.564 171.401 69.416 171.401 69.244C171.401 68.916 171.565 68.668 171.893 68.5C172.221 68.328 172.761 68.212 173.513 68.152C173.509 68.02 173.481 67.898 173.429 67.786C173.381 67.674 173.301 67.586 173.189 67.522C173.077 67.454 172.927 67.42 172.739 67.42C172.615 67.42 172.491 67.438 172.367 67.474C172.247 67.506 172.131 67.55 172.019 67.606C171.911 67.658 171.811 67.712 171.719 67.768L171.527 67.432C171.623 67.368 171.739 67.304 171.875 67.24C172.015 67.172 172.165 67.118 172.325 67.078C172.485 67.034 172.651 67.012 172.823 67.012C173.091 67.012 173.311 67.062 173.483 67.162C173.659 67.262 173.789 67.402 173.873 67.582C173.961 67.758 174.005 67.968 174.005 68.212V70H173.603L173.561 69.604H173.543C173.383 69.732 173.203 69.842 173.003 69.934C172.803 70.026 172.599 70.072 172.391 70.072ZM172.523 69.676C172.691 69.676 172.857 69.638 173.021 69.562C173.185 69.486 173.349 69.38 173.513 69.244V68.476C173.097 68.512 172.769 68.562 172.529 68.626C172.293 68.69 172.125 68.772 172.025 68.872C171.929 68.968 171.881 69.08 171.881 69.208C171.881 69.316 171.911 69.406 171.971 69.478C172.031 69.546 172.109 69.596 172.205 69.628C172.305 69.66 172.411 69.676 172.523 69.676ZM176.553 70.072C176.421 70.072 176.307 70.026 176.211 69.934C176.115 69.838 176.067 69.716 176.067 69.568C176.067 69.416 176.115 69.294 176.211 69.202C176.307 69.106 176.421 69.058 176.553 69.058C176.689 69.058 176.803 69.106 176.895 69.202C176.991 69.294 177.039 69.416 177.039 69.568C177.039 69.716 176.991 69.838 176.895 69.934C176.803 70.026 176.689 70.072 176.553 70.072ZM180.511 70.072C180.367 70.072 180.213 70.038 180.049 69.97C179.889 69.898 179.741 69.8 179.605 69.676H179.587L179.545 70H179.149V65.728H179.641V66.892L179.623 67.456H179.641C179.773 67.32 179.925 67.212 180.097 67.132C180.273 67.052 180.447 67.012 180.619 67.012C180.883 67.012 181.105 67.074 181.285 67.198C181.465 67.318 181.601 67.49 181.693 67.714C181.785 67.934 181.831 68.194 181.831 68.494C181.831 68.826 181.769 69.11 181.645 69.346C181.525 69.582 181.365 69.762 181.165 69.886C180.965 70.01 180.747 70.072 180.511 70.072ZM180.433 69.658C180.601 69.658 180.751 69.612 180.883 69.52C181.019 69.428 181.125 69.296 181.201 69.124C181.281 68.948 181.321 68.74 181.321 68.5C181.321 68.288 181.293 68.102 181.237 67.942C181.181 67.778 181.093 67.652 180.973 67.564C180.853 67.472 180.695 67.426 180.499 67.426C180.367 67.426 180.227 67.462 180.079 67.534C179.935 67.602 179.789 67.712 179.641 67.864V69.316C179.781 69.44 179.921 69.528 180.061 69.58C180.205 69.632 180.329 69.658 180.433 69.658ZM184.864 70.072C184.556 70.072 184.32 69.984 184.156 69.808C183.992 69.628 183.91 69.366 183.91 69.022V66.13H182.914V65.728H184.402V69.058C184.402 69.27 184.454 69.424 184.558 69.52C184.662 69.616 184.8 69.664 184.972 69.664C185.056 69.664 185.142 69.654 185.23 69.634C185.318 69.61 185.416 69.574 185.524 69.526L185.65 69.898C185.518 69.946 185.394 69.986 185.278 70.018C185.162 70.054 185.024 70.072 184.864 70.072ZM188.066 70.072C187.81 70.072 187.572 70.012 187.352 69.892C187.136 69.772 186.96 69.598 186.824 69.37C186.692 69.142 186.626 68.868 186.626 68.548C186.626 68.22 186.692 67.942 186.824 67.714C186.96 67.486 187.136 67.312 187.352 67.192C187.572 67.072 187.81 67.012 188.066 67.012C188.322 67.012 188.558 67.072 188.774 67.192C188.994 67.312 189.17 67.486 189.302 67.714C189.438 67.942 189.506 68.22 189.506 68.548C189.506 68.868 189.438 69.142 189.302 69.37C189.17 69.598 188.994 69.772 188.774 69.892C188.558 70.012 188.322 70.072 188.066 70.072ZM188.066 69.664C188.254 69.664 188.418 69.618 188.558 69.526C188.698 69.43 188.806 69.298 188.882 69.13C188.958 68.962 188.996 68.768 188.996 68.548C188.996 68.324 188.958 68.128 188.882 67.96C188.806 67.788 188.698 67.656 188.558 67.564C188.418 67.468 188.254 67.42 188.066 67.42C187.878 67.42 187.714 67.468 187.574 67.564C187.438 67.656 187.33 67.788 187.25 67.96C187.174 68.128 187.136 68.324 187.136 68.548C187.136 68.768 187.174 68.962 187.25 69.13C187.33 69.298 187.438 69.43 187.574 69.526C187.714 69.618 187.878 69.664 188.066 69.664ZM192.18 70.072C191.876 70.072 191.602 70.012 191.358 69.892C191.118 69.772 190.928 69.598 190.788 69.37C190.652 69.142 190.584 68.868 190.584 68.548C190.584 68.22 190.658 67.942 190.806 67.714C190.954 67.486 191.15 67.312 191.394 67.192C191.642 67.072 191.914 67.012 192.21 67.012C192.45 67.012 192.656 67.054 192.828 67.138C193.004 67.222 193.152 67.322 193.272 67.438L193.026 67.756C192.906 67.652 192.782 67.57 192.654 67.51C192.526 67.45 192.384 67.42 192.228 67.42C192.004 67.42 191.806 67.468 191.634 67.564C191.462 67.656 191.328 67.788 191.232 67.96C191.14 68.128 191.094 68.324 191.094 68.548C191.094 68.768 191.14 68.962 191.232 69.13C191.324 69.298 191.454 69.43 191.622 69.526C191.794 69.618 191.992 69.664 192.216 69.664C192.396 69.664 192.56 69.628 192.708 69.556C192.86 69.484 192.996 69.398 193.116 69.298L193.338 69.616C193.178 69.76 192.998 69.872 192.798 69.952C192.602 70.032 192.396 70.072 192.18 70.072ZM194.577 70V65.728H195.069V68.62H195.093L196.665 67.084H197.229L195.069 69.208V70H194.577ZM196.833 70L195.693 68.446L195.993 68.128L197.385 70H196.833ZM199.639 70.072C199.355 70.072 199.089 70.026 198.841 69.934C198.593 69.842 198.381 69.736 198.205 69.616L198.433 69.292C198.601 69.412 198.787 69.508 198.991 69.58C199.195 69.652 199.431 69.688 199.699 69.688C199.947 69.688 200.131 69.642 200.251 69.55C200.375 69.458 200.437 69.352 200.437 69.232C200.437 69.176 200.425 69.124 200.401 69.076C200.381 69.028 200.339 68.982 200.275 68.938C200.215 68.894 200.125 68.852 200.005 68.812C199.885 68.772 199.725 68.732 199.525 68.692C199.145 68.612 198.859 68.504 198.667 68.368C198.479 68.232 198.385 68.056 198.385 67.84C198.385 67.604 198.487 67.408 198.691 67.252C198.895 67.092 199.197 67.012 199.597 67.012C199.821 67.012 200.037 67.05 200.245 67.126C200.453 67.198 200.629 67.284 200.773 67.384L200.533 67.702C200.401 67.606 200.251 67.532 200.083 67.48C199.915 67.424 199.739 67.396 199.555 67.396C199.387 67.396 199.253 67.416 199.153 67.456C199.057 67.492 198.987 67.542 198.943 67.606C198.903 67.67 198.883 67.74 198.883 67.816C198.883 67.94 198.949 68.038 199.081 68.11C199.217 68.178 199.433 68.242 199.729 68.302C200.053 68.37 200.301 68.446 200.473 68.53C200.649 68.614 200.769 68.71 200.833 68.818C200.901 68.926 200.935 69.054 200.935 69.202C200.935 69.362 200.885 69.508 200.785 69.64C200.685 69.768 200.539 69.872 200.347 69.952C200.155 70.032 199.919 70.072 199.639 70.072ZM126.664 77.924C126.532 77.924 126.418 77.878 126.322 77.786C126.226 77.69 126.178 77.568 126.178 77.42C126.178 77.268 126.226 77.146 126.322 77.054C126.418 76.958 126.532 76.91 126.664 76.91C126.8 76.91 126.914 76.958 127.006 77.054C127.102 77.146 127.15 77.268 127.15 77.42C127.15 77.568 127.102 77.69 127.006 77.786C126.914 77.878 126.8 77.924 126.664 77.924ZM126.184 81.278L126.046 80.966C126.302 80.854 126.492 80.712 126.616 80.54C126.74 80.372 126.802 80.164 126.802 79.916L126.688 79.364L127.024 79.838C126.976 79.894 126.922 79.932 126.862 79.952C126.806 79.968 126.748 79.976 126.688 79.976C126.604 79.976 126.526 79.96 126.454 79.928C126.382 79.892 126.324 79.842 126.28 79.778C126.24 79.71 126.22 79.626 126.22 79.526C126.22 79.378 126.268 79.266 126.364 79.19C126.46 79.11 126.572 79.07 126.7 79.07C126.876 79.07 127.01 79.14 127.102 79.28C127.194 79.416 127.24 79.602 127.24 79.838C127.24 80.19 127.146 80.486 126.958 80.726C126.77 80.97 126.512 81.154 126.184 81.278Z" fill="white" fill-opacity="0.87"/>
<path d="M122.748 80.072C122.528 80.072 122.332 80.046 122.16 79.994C121.988 79.942 121.836 79.876 121.704 79.796C121.576 79.716 121.464 79.628 121.368 79.532L121.62 79.208C121.748 79.328 121.902 79.434 122.082 79.526C122.262 79.618 122.474 79.664 122.718 79.664C122.894 79.664 123.05 79.636 123.186 79.58C123.326 79.52 123.436 79.438 123.516 79.334C123.596 79.226 123.636 79.102 123.636 78.962C123.636 78.81 123.59 78.678 123.498 78.566C123.406 78.45 123.258 78.36 123.054 78.296C122.85 78.232 122.58 78.2 122.244 78.2V77.822C122.548 77.822 122.792 77.79 122.976 77.726C123.16 77.662 123.292 77.578 123.372 77.474C123.456 77.366 123.498 77.244 123.498 77.108C123.498 76.92 123.426 76.772 123.282 76.664C123.142 76.556 122.954 76.502 122.718 76.502C122.538 76.502 122.366 76.538 122.202 76.61C122.042 76.682 121.9 76.776 121.776 76.892L121.512 76.58C121.672 76.44 121.854 76.326 122.058 76.238C122.266 76.146 122.492 76.1 122.736 76.1C122.976 76.1 123.19 76.138 123.378 76.214C123.57 76.29 123.722 76.4 123.834 76.544C123.946 76.688 124.002 76.864 124.002 77.072C124.002 77.304 123.924 77.494 123.768 77.642C123.616 77.79 123.422 77.904 123.186 77.984V78.008C123.354 78.044 123.51 78.106 123.654 78.194C123.802 78.278 123.918 78.386 124.002 78.518C124.09 78.65 124.134 78.804 124.134 78.98C124.134 79.208 124.07 79.404 123.942 79.568C123.818 79.728 123.652 79.852 123.444 79.94C123.236 80.028 123.004 80.072 122.748 80.072Z" fill="#EEF2FC"/>
<rect x="78.5" y="136.5" width="217" height="70" rx="7.5" fill="white" stroke="url(#paint5_linear_738_2689)"/>
<rect x="11.5" y="55.5" width="57" height="151" rx="7.5" fill="white" stroke="url(#paint6_linear_738_2689)"/>
<rect x="25" y="63" width="38" height="7" rx="3.5" fill="#EBEBEB"/>
<rect x="25" y="120" width="38" height="7" rx="3.5" fill="#EBEBEB"/>
<rect x="25" y="132" width="38" height="7" rx="3.5" fill="#EBEBEB"/>
<rect x="33" y="73" width="30" height="4" rx="2" fill="#EBEBEB"/>
<rect x="33" y="82" width="30" height="4" rx="2" fill="#EBEBEB"/>
<rect x="33" y="91" width="30" height="4" rx="2" fill="#EBEBEB"/>
<rect x="33" y="100" width="30" height="4" rx="2" fill="#EBEBEB"/>
<rect x="33" y="109" width="30" height="4" rx="2" fill="#EBEBEB"/>
<rect x="83" y="144" width="28" height="7" rx="3.5" fill="#EBEBEB"/>
<rect x="83" y="157" width="28" height="2" rx="1" fill="#EBEBEB"/>
<rect x="83" y="165" width="28" height="2" rx="1" fill="#EBEBEB"/>
<rect x="83" y="173" width="28" height="2" rx="1" fill="#EBEBEB"/>
<rect x="83" y="181" width="28" height="2" rx="1" fill="#EBEBEB"/>
<rect x="83" y="189" width="28" height="2" rx="1" fill="#EBEBEB"/>
<rect x="83" y="197" width="28" height="2" rx="1" fill="#EBEBEB"/>
<rect x="120" y="144" width="28" height="7" rx="3.5" fill="#EBEBEB"/>
<rect x="120" y="157" width="28" height="2" rx="1" fill="#EBEBEB"/>
<rect x="120" y="165" width="28" height="2" rx="1" fill="#EBEBEB"/>
<rect x="120" y="173" width="28" height="2" rx="1" fill="#EBEBEB"/>
<rect x="120" y="181" width="28" height="2" rx="1" fill="#EBEBEB"/>
<rect x="120" y="189" width="28" height="2" rx="1" fill="#EBEBEB"/>
<rect x="120" y="197" width="28" height="2" rx="1" fill="#EBEBEB"/>
<rect x="156" y="144" width="28" height="7" rx="3.5" fill="#EBEBEB"/>
<rect x="156" y="157" width="28" height="2" rx="1" fill="#EBEBEB"/>
<rect x="156" y="165" width="28" height="2" rx="1" fill="#EBEBEB"/>
<rect x="156" y="173" width="28" height="2" rx="1" fill="#EBEBEB"/>
<rect x="156" y="181" width="28" height="2" rx="1" fill="#EBEBEB"/>
<rect x="156" y="189" width="28" height="2" rx="1" fill="#EBEBEB"/>
<rect x="156" y="197" width="28" height="2" rx="1" fill="#EBEBEB"/>
<rect x="192" y="144" width="28" height="7" rx="3.5" fill="#EBEBEB"/>
<rect x="192" y="157" width="28" height="2" rx="1" fill="#EBEBEB"/>
<rect x="192" y="165" width="28" height="2" rx="1" fill="#EBEBEB"/>
<rect x="192" y="173" width="28" height="2" rx="1" fill="#EBEBEB"/>
<rect x="192" y="181" width="28" height="2" rx="1" fill="#EBEBEB"/>
<rect x="192" y="189" width="28" height="2" rx="1" fill="#EBEBEB"/>
<rect x="192" y="197" width="28" height="2" rx="1" fill="#EBEBEB"/>
<rect x="227" y="144" width="28" height="7" rx="3.5" fill="#EBEBEB"/>
<rect x="227" y="157" width="28" height="2" rx="1" fill="#EBEBEB"/>
<rect x="227" y="165" width="28" height="2" rx="1" fill="#EBEBEB"/>
<rect x="227" y="173" width="28" height="2" rx="1" fill="#EBEBEB"/>
<rect x="227" y="181" width="28" height="2" rx="1" fill="#EBEBEB"/>
<rect x="227" y="189" width="28" height="2" rx="1" fill="#EBEBEB"/>
<rect x="227" y="197" width="28" height="2" rx="1" fill="#EBEBEB"/>
<rect x="262" y="144" width="28" height="7" rx="3.5" fill="#EBEBEB"/>
<rect x="262" y="157" width="28" height="2" rx="1" fill="#EBEBEB"/>
<rect x="262" y="165" width="28" height="2" rx="1" fill="#EBEBEB"/>
<rect x="262" y="173" width="28" height="2" rx="1" fill="#EBEBEB"/>
<rect x="262" y="181" width="28" height="2" rx="1" fill="#EBEBEB"/>
<rect x="262" y="189" width="28" height="2" rx="1" fill="#EBEBEB"/>
<rect x="262" y="197" width="28" height="2" rx="1" fill="#EBEBEB"/>
<path d="M90.8292 68.9545L87.1701 70.8182V70.0909L89.9769 68.7386L89.9542 68.7841V68.6705L89.9769 68.7159L87.1701 67.3636V66.6364L90.8292 68.5V68.9545Z" fill="#A8A8A8"/>
<path d="M20.3719 66.4659L17.6276 67.8636V67.3182L19.7327 66.304L19.7156 66.3381V66.2528L19.7327 66.2869L17.6276 65.2727V64.7273L20.3719 66.125V66.4659Z" fill="#000E33" fill-opacity="0.56"/>
<path d="M20.3719 123.466L17.6276 124.864V124.318L19.7327 123.304L19.7156 123.338V123.253L19.7327 123.287L17.6276 122.273V121.727L20.3719 123.125V123.466Z" fill="#000E33" fill-opacity="0.56"/>
<path d="M20.3719 135.466L17.6276 136.864V136.318L19.7327 135.304L19.7156 135.338V135.253L19.7327 135.287L17.6276 134.273V133.727L20.3719 135.125V135.466Z" fill="#000E33" fill-opacity="0.56"/>
<path d="M29.3719 75.4659L26.6276 76.8636V76.3182L28.7327 75.304L28.7156 75.3381V75.2528L28.7327 75.2869L26.6276 74.2727V73.7273L29.3719 75.125V75.4659Z" fill="#000E33" fill-opacity="0.56"/>
<path d="M29.3719 84.4659L26.6276 85.8636V85.3182L28.7327 84.304L28.7156 84.3381V84.2528L28.7327 84.2869L26.6276 83.2727V82.7273L29.3719 84.125V84.4659Z" fill="#000E33" fill-opacity="0.56"/>
<path d="M29.3719 93.4659L26.6276 94.8636V94.3182L28.7327 93.304L28.7156 93.3381V93.2528L28.7327 93.2869L26.6276 92.2727V91.7273L29.3719 93.125V93.4659Z" fill="#000E33" fill-opacity="0.56"/>
<path d="M29.3719 102.466L26.6276 103.864V103.318L28.7327 102.304L28.7156 102.338V102.253L28.7327 102.287L26.6276 101.273V100.727L29.3719 102.125V102.466Z" fill="#000E33" fill-opacity="0.56"/>
<path d="M29.3719 111.466L26.6276 112.864V112.318L28.7327 111.304L28.7156 111.338V111.253L28.7327 111.287L26.6276 110.273V109.727L29.3719 111.125V111.466Z" fill="#000E33" fill-opacity="0.56"/>
<defs>
<filter id="filter0_f_738_2689" x="9.39284" y="-3.09788" width="308.902" height="221.57" filterUnits="userSpaceOnUse" color-interpolation-filters="sRGB">
<feFlood flood-opacity="0" result="BackgroundImageFix"/>
<feBlend mode="normal" in="SourceGraphic" in2="BackgroundImageFix" result="shape"/>
<feGaussianBlur stdDeviation="0.892448" result="effect1_foregroundBlur_738_2689"/>
</filter>
<filter id="filter1_f_738_2689" x="8.06471" y="21.197" width="289.531" height="26.5517" filterUnits="userSpaceOnUse" color-interpolation-filters="sRGB">
<feFlood flood-opacity="0" result="BackgroundImageFix"/>
<feBlend mode="normal" in="SourceGraphic" in2="BackgroundImageFix" result="shape"/>
<feGaussianBlur stdDeviation="0.892448" result="effect1_foregroundBlur_738_2689"/>
</filter>
<filter id="filter2_d_738_2689" x="267.376" y="26.7217" width="17.1342" height="17.2173" filterUnits="userSpaceOnUse" color-interpolation-filters="sRGB">
<feFlood flood-opacity="0" result="BackgroundImageFix"/>
<feColorMatrix in="SourceAlpha" type="matrix" values="0 0 0 0 0 0 0 0 0 0 0 0 0 0 0 0 0 0 127 0" result="hardAlpha"/>
<feOffset dx="-1.96988" dy="1.31325"/>
<feGaussianBlur stdDeviation="1.47741"/>
<feColorMatrix type="matrix" values="0 0 0 0 0.461617 0 0 0 0 0.570529 0 0 0 0 0.661288 0 0 0 0.593286 0"/>
<feBlend mode="normal" in2="BackgroundImageFix" result="effect1_dropShadow_738_2689"/>
<feBlend mode="normal" in="SourceGraphic" in2="effect1_dropShadow_738_2689" result="shape"/>
</filter>
<filter id="filter3_f_738_2689" x="272.545" y="28.2121" width="8.75258" height="8.75355" filterUnits="userSpaceOnUse" color-interpolation-filters="sRGB">
<feFlood flood-opacity="0" result="BackgroundImageFix"/>
<feBlend mode="normal" in="SourceGraphic" in2="BackgroundImageFix" result="shape"/>
<feGaussianBlur stdDeviation="0.267734" result="effect1_foregroundBlur_738_2689"/>
</filter>
<linearGradient id="paint0_linear_738_2689" x1="108.751" y1="76.0548" x2="100.169" y2="101.576" gradientUnits="userSpaceOnUse">
<stop stop-color="white"/>
<stop offset="1" stop-color="#C3B9B3"/>
</linearGradient>
<linearGradient id="paint1_linear_738_2689" x1="150.362" y1="-70.449" x2="333.405" y2="28.3714" gradientUnits="userSpaceOnUse">
<stop stop-color="white" stop-opacity="0.01"/>
<stop offset="1" stop-color="white"/>
</linearGradient>
<linearGradient id="paint2_linear_738_2689" x1="9.84961" y1="22.9819" x2="9.84961" y2="45.9639" gradientUnits="userSpaceOnUse">
<stop stop-color="#EFF2F3"/>
<stop offset="1" stop-color="#CBBEB5"/>
</linearGradient>
<linearGradient id="paint3_linear_738_2689" x1="10.1402" y1="22.9819" x2="10.1402" y2="45.9172" gradientUnits="userSpaceOnUse">
<stop stop-color="white"/>
<stop offset="1" stop-color="#D2D2D2"/>
</linearGradient>
<linearGradient id="paint4_linear_738_2689" x1="186.978" y1="127" x2="187.501" y2="55.5003" gradientUnits="userSpaceOnUse">
<stop stop-color="#09246A"/>
<stop offset="1" stop-color="#324986"/>
</linearGradient>
<linearGradient id="paint5_linear_738_2689" x1="78" y1="136" x2="78" y2="207" gradientUnits="userSpaceOnUse">
<stop stop-color="#EFF2F3"/>
<stop offset="1" stop-color="#CBBEB5"/>
</linearGradient>
<linearGradient id="paint6_linear_738_2689" x1="11" y1="55" x2="11" y2="207" gradientUnits="userSpaceOnUse">
<stop stop-color="#EFF2F3"/>
<stop offset="1" stop-color="#CBBEB5"/>
</linearGradient>
</defs>
</svg>
