<svg width="18" height="19" viewBox="0 0 18 19" fill="none" xmlns="http://www.w3.org/2000/svg">
<path d="M1 2C0.723858 2 0.5 2.22386 0.5 2.5C0.5 2.77614 0.723858 3 1 3L1 2ZM7 2.5H7.5H7ZM17 3C17.2761 3 17.5 2.77614 17.5 2.5C17.5 2.22386 17.2761 2 17 2V3ZM1 9C0.723858 9 0.5 9.22386 0.5 9.5C0.5 9.77614 0.723858 10 1 10V9ZM13 9.5H13.5H13ZM17 17C17.2761 17 17.5 16.7761 17.5 16.5C17.5 16.2239 17.2761 16 17 16V17ZM3 14.5V15V14.5ZM3 18.5V19V18.5ZM1 16.5H1.5H1ZM15 7.5V8V7.5ZM17 9.5H17.5H17ZM15 11.5V12V11.5ZM9 0.5V1V0.5ZM9 4.5V5V4.5ZM1 3L7 3V2L1 2L1 3ZM11 3L17 3V2L11 2V3ZM1 10H13V9H1V10ZM5 17H17V16H5V17ZM3 15C3.82843 15 4.5 15.6716 4.5 16.5H5.5C5.5 15.1193 4.38071 14 3 14V15ZM4.5 16.5C4.5 17.3284 3.82843 18 3 18V19C4.38071 19 5.5 17.8807 5.5 16.5H4.5ZM3 18C2.17157 18 1.5 17.3284 1.5 16.5H0.5C0.5 17.8807 1.61929 19 3 19V18ZM1.5 16.5C1.5 15.6716 2.17157 15 3 15V14C1.61929 14 0.5 15.1193 0.5 16.5H1.5ZM15 8C15.8284 8 16.5 8.67157 16.5 9.5H17.5C17.5 8.11929 16.3807 7 15 7V8ZM16.5 9.5C16.5 10.3284 15.8284 11 15 11V12C16.3807 12 17.5 10.8807 17.5 9.5H16.5ZM15 11C14.1716 11 13.5 10.3284 13.5 9.5H12.5C12.5 10.8807 13.6193 12 15 12V11ZM13.5 9.5C13.5 8.67157 14.1716 8 15 8V7C13.6193 7 12.5 8.11929 12.5 9.5H13.5ZM9 1C9.82843 1 10.5 1.67157 10.5 2.5H11.5C11.5 1.11929 10.3807 -5.96046e-08 9 0V1ZM10.5 2.5C10.5 3.32843 9.82843 4 9 4V5C10.3807 5 11.5 3.88071 11.5 2.5H10.5ZM9 4C8.17157 4 7.5 3.32843 7.5 2.5H6.5C6.5 3.88071 7.61929 5 9 5V4ZM7.5 2.5C7.5 1.67157 8.17157 1 9 1V0C7.61929 5.96046e-08 6.5 1.11929 6.5 2.5H7.5Z" fill="white" fill-opacity="0.38"/>
</svg>
