<svg width="20" height="20" viewBox="0 0 20 20" fill="none" xmlns="http://www.w3.org/2000/svg">
<path d="M19.6977 8.03033C19.9906 7.73744 19.9906 7.26256 19.6977 6.96967C19.4048 6.67678 18.9299 6.67678 18.637 6.96967L19.6977 8.03033ZM15.6674 10.9999L15.1371 11.5303C15.43 11.8232 15.9048 11.8232 16.1977 11.5303L15.6674 10.9999ZM14.6977 8.96963C14.4048 8.67674 13.9299 8.67675 13.637 8.96965C13.3441 9.26255 13.3441 9.73742 13.637 10.0303L14.6977 8.96963ZM18.637 6.96967L15.1371 10.4696L16.1977 11.5303L19.6977 8.03033L18.637 6.96967ZM13.637 10.0303L15.1371 11.5303L16.1977 10.4696L14.6977 8.96963L13.637 10.0303ZM5.41732 18.2501H14.584V16.7501H5.41732V18.2501ZM10.0007 11.3334C9.18754 11.3334 7.41492 11.3118 5.84013 11.7526C5.04882 11.9742 4.24161 12.3292 3.62365 12.9186C2.98338 13.5292 2.58398 14.3575 2.58398 15.4168H4.08398C4.08398 14.7757 4.30958 14.3372 4.65891 14.004C5.03053 13.6496 5.57748 13.3838 6.2445 13.1971C7.58638 12.8214 9.14709 12.8334 10.0007 12.8334V11.3334ZM10.0007 12.8334C10.8542 12.8334 12.4149 12.8214 13.7568 13.1971C14.4238 13.3838 14.9708 13.6496 15.3424 14.004C15.6917 14.3372 15.9173 14.7757 15.9173 15.4168H17.4173C17.4173 14.3575 17.0179 13.5292 16.3777 12.9186C15.7597 12.3292 14.9525 11.9742 14.1612 11.7526C12.5864 11.3118 10.8138 11.3334 10.0007 11.3334V12.8334ZM2.58398 15.4168C2.58398 16.9816 3.85251 18.2501 5.41732 18.2501V16.7501C4.68094 16.7501 4.08398 16.1531 4.08398 15.4168H2.58398ZM15.9173 15.4168C15.9173 16.1531 15.3204 16.7501 14.584 16.7501V18.2501C16.1488 18.2501 17.4173 16.9816 17.4173 15.4168H15.9173ZM12.584 5.83333C12.584 7.26007 11.4274 8.41667 10.0007 8.41667V9.91667C12.2558 9.91667 14.084 8.0885 14.084 5.83333H12.584ZM10.0007 8.41667C8.57392 8.41667 7.41732 7.26007 7.41732 5.83333H5.91732C5.91732 8.0885 7.74549 9.91667 10.0007 9.91667V8.41667ZM7.41732 5.83333C7.41732 4.4066 8.57392 3.25 10.0007 3.25V1.75C7.74549 1.75 5.91732 3.57817 5.91732 5.83333H7.41732ZM10.0007 3.25C11.4274 3.25 12.584 4.4066 12.584 5.83333H14.084C14.084 3.57817 12.2558 1.75 10.0007 1.75V3.25Z" fill="#6588E1"/>
</svg>
