<svg width="20" height="20" viewBox="0 0 20 20" fill="none" xmlns="http://www.w3.org/2000/svg">
<path d="M16.6673 17.5V18.25C17.0815 18.25 17.4173 17.9142 17.4173 17.5H16.6673ZM3.33398 17.5H2.58398C2.58398 17.9142 2.91977 18.25 3.33398 18.25V17.5ZM6.66732 13.25H13.334V11.75H6.66732V13.25ZM15.9173 15.8333V17.5H17.4173V15.8333H15.9173ZM4.08398 17.5V15.8333H2.58398V17.5H4.08398ZM13.334 13.25C14.7607 13.25 15.9173 14.4066 15.9173 15.8333H17.4173C17.4173 13.5782 15.5891 11.75 13.334 11.75V13.25ZM6.66732 11.75C4.41216 11.75 2.58398 13.5782 2.58398 15.8333H4.08398C4.08398 14.4066 5.24058 13.25 6.66732 13.25V11.75ZM12.584 5.83333C12.584 7.26007 11.4274 8.41667 10.0007 8.41667V9.91667C12.2558 9.91667 14.084 8.0885 14.084 5.83333H12.584ZM10.0007 8.41667C8.57392 8.41667 7.41732 7.26007 7.41732 5.83333H5.91732C5.91732 8.0885 7.74549 9.91667 10.0007 9.91667V8.41667ZM7.41732 5.83333C7.41732 4.4066 8.57392 3.25 10.0007 3.25V1.75C7.74549 1.75 5.91732 3.57817 5.91732 5.83333H7.41732ZM10.0007 3.25C11.4274 3.25 12.584 4.4066 12.584 5.83333H14.084C14.084 3.57817 12.2558 1.75 10.0007 1.75V3.25ZM3.33398 18.25H16.6673V16.75H3.33398V18.25Z" fill="#6588E1"/>
</svg>
