<svg width="64" height="52" viewBox="0 0 64 52" fill="none" xmlns="http://www.w3.org/2000/svg">
<path d="M64 4.92308C61.6034 5.97825 59.2183 7.07759 56.6154 7.38461C59.3266 5.76959 60.5582 3.04718 61.5385 0C58.9611 1.52008 57.0944 4.34745 54.1538 4.92308C51.7586 2.38699 48.0844 0 44.3077 0C37.0562 0 32 5.10119 32 12.3077C32 13.3306 31.7763 16.2754 32 17.2308C21.0875 16.6864 11.3993 10.3568 4.92308 2.46154C3.79308 4.38889 2.46154 7.45492 2.46154 9.84615C2.46154 14.3737 3.86162 17.352 7.38462 19.6923C5.29949 19.6274 4.28466 18.2386 2.46154 17.2308C2.46079 17.2854 2.46154 17.1759 2.46154 17.2308C2.46154 23.5535 6.30119 30.8012 12.3077 32C10.3742 32.5226 9.35244 32.3755 7.38462 32C9.05537 37.1845 13.9468 39.279 19.6923 39.3846C15.1986 42.8845 8.61304 46.7692 2.46154 46.7692C1.40154 46.7692 1.02725 46.8897 0 46.7692C5.81075 50.4719 12.2773 51.6923 19.6923 51.6923C43.8441 51.6923 56.6154 32.0137 56.6154 14.7692C56.6154 14.2032 56.6409 12.8672 56.6154 12.3077C59.186 10.4608 62.2373 7.54393 64 4.92308Z" fill="#55ACEE"/>
</svg>
