<svg width="1920" height="424" viewBox="0 0 1920 420" fill="none" xmlns="http://www.w3.org/2000/svg">

  <path
    d="M4 298C4 294.229 4 292.343 5.17157 291.172C6.34315 290 8.22876 290 12 290C15.7712 290 17.6569 290 18.8284 291.172C20 292.343 20 294.229 20 298V424H4V298Z"
    fill="#EDF2FF" />
  <mask id="path-4-inside-2_1341_4187" fill="white">
    <path
      d="M28 309C28 305.229 28 303.343 29.1716 302.172C30.3431 301 32.2288 301 36 301C39.7712 301 41.6569 301 42.8284 302.172C44 303.343 44 305.229 44 309V424H28V309Z" />
  </mask>
  <path
    d="M27 305C27 302.239 29.2386 300 32 300H40C42.7614 300 45 302.239 45 305H43C43 303.343 41.6569 302 40 302H32C30.3431 302 29 303.343 29 305H27ZM44 424H28H44ZM27 424V305C27 302.239 29.2386 300 32 300V302C30.3431 302 29 303.343 29 305V424H27ZM40 300C42.7614 300 45 302.239 45 305V424H43V305C43 303.343 41.6569 302 40 302V300Z"
    fill="#EDF2FF" mask="url(#path-4-inside-2_1341_4187)" />
  <path
    d="M52 320C52 316.229 52 314.343 53.1716 313.172C54.3431 312 56.2288 312 60 312C63.7712 312 65.6569 312 66.8284 313.172C68 314.343 68 316.229 68 320V422H52V320Z"
    fill="#EDF2FF" />
  <mask id="path-7-inside-3_1341_4187" fill="white">
    <path
      d="M76 327C76 323.229 76 321.343 77.1716 320.172C78.3431 319 80.2288 319 84 319C87.7712 319 89.6569 319 90.8284 320.172C92 321.343 92 323.229 92 327V422H76V327Z" />
  </mask>
  <path
    d="M75 323C75 320.239 77.2386 318 80 318H88C90.7614 318 93 320.239 93 323H91C91 321.343 89.6569 320 88 320H80C78.3431 320 77 321.343 77 323H75ZM92 422H76H92ZM75 422V323C75 320.239 77.2386 318 80 318V320C78.3431 320 77 321.343 77 323V422H75ZM88 318C90.7614 318 93 320.239 93 323V422H91V323C91 321.343 89.6569 320 88 320V318Z"
    fill="#EDF2FF" mask="url(#path-7-inside-3_1341_4187)" />
  <path
    d="M100 325C100 321.229 100 319.343 101.172 318.172C102.343 317 104.229 317 108 317C111.771 317 113.657 317 114.828 318.172C116 319.343 116 321.229 116 325V422H100V325Z"
    fill="#EDF2FF" />
  <mask id="path-10-inside-4_1341_4187" fill="white">
    <path
      d="M140 320C140 316.229 140 314.343 138.828 313.172C137.657 312 135.771 312 132 312C128.229 312 126.343 312 125.172 313.172C124 314.343 124 316.229 124 320V422H140V320Z" />
  </mask>
  <path
    d="M141 316C141 313.239 138.761 311 136 311H128C125.239 311 123 313.239 123 316H125C125 314.343 126.343 313 128 313H136C137.657 313 139 314.343 139 316H141ZM124 422H140H124ZM141 422V316C141 313.239 138.761 311 136 311V313C137.657 313 139 314.343 139 316V422H141ZM128 311C125.239 311 123 313.239 123 316V422H125V316C125 314.343 126.343 313 128 313V311Z"
    fill="#EDF2FF" mask="url(#path-10-inside-4_1341_4187)" />
  <path
    d="M148 312C148 308.229 148 306.343 149.172 305.172C150.343 304 152.229 304 156 304C159.771 304 161.657 304 162.828 305.172C164 306.343 164 308.229 164 312V422H148V312Z"
    fill="#EDF2FF" />
  <mask id="path-13-inside-5_1341_4187" fill="white">
    <path
      d="M188 310C188 306.229 188 304.343 186.828 303.172C185.657 302 183.771 302 180 302C176.229 302 174.343 302 173.172 303.172C172 304.343 172 306.229 172 310V422H188V310Z" />
  </mask>
  <path
    d="M189 306C189 303.239 186.761 301 184 301H176C173.239 301 171 303.239 171 306H173C173 304.343 174.343 303 176 303H184C185.657 303 187 304.343 187 306H189ZM172 422H188H172ZM189 422V306C189 303.239 186.761 301 184 301V303C185.657 303 187 304.343 187 306V422H189ZM176 301C173.239 301 171 303.239 171 306V422H173V306C173 304.343 174.343 303 176 303V301Z"
    fill="#EDF2FF" mask="url(#path-13-inside-5_1341_4187)" />
  <path
    d="M196 312C196 308.229 196 306.343 197.172 305.172C198.343 304 200.229 304 204 304C207.771 304 209.657 304 210.828 305.172C212 306.343 212 308.229 212 312V422H196V312Z"
    fill="#EDF2FF" />
  <mask id="path-16-inside-6_1341_4187" fill="white">
    <path
      d="M236 320C236 316.229 236 314.343 234.828 313.172C233.657 312 231.771 312 228 312C224.229 312 222.343 312 221.172 313.172C220 314.343 220 316.229 220 320V422H236V320Z" />
  </mask>
  <path
    d="M237 316C237 313.239 234.761 311 232 311H224C221.239 311 219 313.239 219 316H221C221 314.343 222.343 313 224 313H232C233.657 313 235 314.343 235 316H237ZM220 422H236H220ZM237 422V316C237 313.239 234.761 311 232 311V313C233.657 313 235 314.343 235 316V422H237ZM224 311C221.239 311 219 313.239 219 316V422H221V316C221 314.343 222.343 313 224 313V311Z"
    fill="#EDF2FF" mask="url(#path-16-inside-6_1341_4187)" />
  <path
    d="M244 339C244 335.229 244 333.343 245.172 332.172C246.343 331 248.229 331 252 331C255.771 331 257.657 331 258.828 332.172C260 333.343 260 335.229 260 339V422H244V339Z"
    fill="#EDF2FF" />
  <mask id="path-19-inside-7_1341_4187" fill="white">
    <path
      d="M284 348C284 344.229 284 342.343 282.828 341.172C281.657 340 279.771 340 276 340C272.229 340 270.343 340 269.172 341.172C268 342.343 268 344.229 268 348V422H284V348Z" />
  </mask>
  <path
    d="M285 344C285 341.239 282.761 339 280 339H272C269.239 339 267 341.239 267 344H269C269 342.343 270.343 341 272 341H280C281.657 341 283 342.343 283 344H285ZM268 422H284H268ZM285 422V344C285 341.239 282.761 339 280 339V341C281.657 341 283 342.343 283 344V422H285ZM272 339C269.239 339 267 341.239 267 344V422H269V344C269 342.343 270.343 341 272 341V339Z"
    fill="#EDF2FF" mask="url(#path-19-inside-7_1341_4187)" />
  <path
    d="M292 357C292 353.229 292 351.343 293.172 350.172C294.343 349 296.229 349 300 349C303.771 349 305.657 349 306.828 350.172C308 351.343 308 353.229 308 357V422H292V357Z"
    fill="#EDF2FF" />
  <mask id="path-22-inside-8_1341_4187" fill="white">
    <path
      d="M332 357C332 353.229 332 351.343 330.828 350.172C329.657 349 327.771 349 324 349C320.229 349 318.343 349 317.172 350.172C316 351.343 316 353.229 316 357V422H332V357Z" />
  </mask>
  <path
    d="M333 353C333 350.239 330.761 348 328 348H320C317.239 348 315 350.239 315 353H317C317 351.343 318.343 350 320 350H328C329.657 350 331 351.343 331 353H333ZM316 422H332H316ZM333 422V353C333 350.239 330.761 348 328 348V350C329.657 350 331 351.343 331 353V422H333ZM320 348C317.239 348 315 350.239 315 353V422H317V353C317 351.343 318.343 350 320 350V348Z"
    fill="#EDF2FF" mask="url(#path-22-inside-8_1341_4187)" />
  <path
    d="M340 350C340 346.229 340 344.343 341.172 343.172C342.343 342 344.229 342 348 342C351.771 342 353.657 342 354.828 343.172C356 344.343 356 346.229 356 350V422H340V350Z"
    fill="#EDF2FF" />
  <mask id="path-25-inside-9_1341_4187" fill="white">
    <path
      d="M380 346C380 342.229 380 340.343 378.828 339.172C377.657 338 375.771 338 372 338C368.229 338 366.343 338 365.172 339.172C364 340.343 364 342.229 364 346V422H380V346Z" />
  </mask>
  <path
    d="M381 342C381 339.239 378.761 337 376 337H368C365.239 337 363 339.239 363 342H365C365 340.343 366.343 339 368 339H376C377.657 339 379 340.343 379 342H381ZM364 422H380H364ZM381 422V342C381 339.239 378.761 337 376 337V339C377.657 339 379 340.343 379 342V422H381ZM368 337C365.239 337 363 339.239 363 342V422H365V342C365 340.343 366.343 339 368 339V337Z"
    fill="#EDF2FF" mask="url(#path-25-inside-9_1341_4187)" />
  <path
    d="M388 336C388 332.229 388 330.343 389.172 329.172C390.343 328 392.229 328 396 328C399.771 328 401.657 328 402.828 329.172C404 330.343 404 332.229 404 336V422H388V336Z"
    fill="#EDF2FF" />
  <mask id="path-28-inside-10_1341_4187" fill="white">
    <path
      d="M428 334C428 330.229 428 328.343 426.828 327.172C425.657 326 423.771 326 420 326C416.229 326 414.343 326 413.172 327.172C412 328.343 412 330.229 412 334V422H428V334Z" />
  </mask>
  <path
    d="M429 330C429 327.239 426.761 325 424 325H416C413.239 325 411 327.239 411 330H413C413 328.343 414.343 327 416 327H424C425.657 327 427 328.343 427 330H429ZM412 422H428H412ZM429 422V330C429 327.239 426.761 325 424 325V327C425.657 327 427 328.343 427 330V422H429ZM416 325C413.239 325 411 327.239 411 330V422H413V330C413 328.343 414.343 327 416 327V325Z"
    fill="#EDF2FF" mask="url(#path-28-inside-10_1341_4187)" />
  <path
    d="M436 334C436 330.229 436 328.343 437.172 327.172C438.343 326 440.229 326 444 326C447.771 326 449.657 326 450.828 327.172C452 328.343 452 330.229 452 334V422H436V334Z"
    fill="#EDF2FF" />
  <mask id="path-31-inside-11_1341_4187" fill="white">
    <path
      d="M476 337C476 333.229 476 331.343 474.828 330.172C473.657 329 471.771 329 468 329C464.229 329 462.343 329 461.172 330.172C460 331.343 460 333.229 460 337V422H476V337Z" />
  </mask>
  <path
    d="M477 333C477 330.239 474.761 328 472 328H464C461.239 328 459 330.239 459 333H461C461 331.343 462.343 330 464 330H472C473.657 330 475 331.343 475 333H477ZM460 422H476H460ZM477 422V333C477 330.239 474.761 328 472 328V330C473.657 330 475 331.343 475 333V422H477ZM464 328C461.239 328 459 330.239 459 333V422H461V333C461 331.343 462.343 330 464 330V328Z"
    fill="#EDF2FF" mask="url(#path-31-inside-11_1341_4187)" />
  <path
    d="M484 353C484 349.229 484 347.343 485.172 346.172C486.343 345 488.229 345 492 345C495.771 345 497.657 345 498.828 346.172C500 347.343 500 349.229 500 353V422H484V353Z"
    fill="#EDF2FF" />
  <mask id="path-34-inside-12_1341_4187" fill="white">
    <path
      d="M524 361C524 357.229 524 355.343 522.828 354.172C521.657 353 519.771 353 516 353C512.229 353 510.343 353 509.172 354.172C508 355.343 508 357.229 508 361V422H524V361Z" />
  </mask>
  <path
    d="M525 357C525 354.239 522.761 352 520 352H512C509.239 352 507 354.239 507 357H509C509 355.343 510.343 354 512 354H520C521.657 354 523 355.343 523 357H525ZM508 422H524H508ZM525 422V357C525 354.239 522.761 352 520 352V354C521.657 354 523 355.343 523 357V422H525ZM512 352C509.239 352 507 354.239 507 357V422H509V357C509 355.343 510.343 354 512 354V352Z"
    fill="#EDF2FF" mask="url(#path-34-inside-12_1341_4187)" />
  <path
    d="M532 352C532 348.229 532 346.343 533.172 345.172C534.343 344 536.229 344 540 344C543.771 344 545.657 344 546.828 345.172C548 346.343 548 348.229 548 352V422H532V352Z"
    fill="#EDF2FF" />
  <mask id="path-37-inside-13_1341_4187" fill="white">
    <path
      d="M572 350C572 346.229 572 344.343 570.828 343.172C569.657 342 567.771 342 564 342C560.229 342 558.343 342 557.172 343.172C556 344.343 556 346.229 556 350V422H572V350Z" />
  </mask>
  <path
    d="M573 346C573 343.239 570.761 341 568 341H560C557.239 341 555 343.239 555 346H557C557 344.343 558.343 343 560 343H568C569.657 343 571 344.343 571 346H573ZM556 422H572H556ZM573 422V346C573 343.239 570.761 341 568 341V343C569.657 343 571 344.343 571 346V422H573ZM560 341C557.239 341 555 343.239 555 346V422H557V346C557 344.343 558.343 343 560 343V341Z"
    fill="#EDF2FF" mask="url(#path-37-inside-13_1341_4187)" />
  <path
    d="M580 357C580 353.229 580 351.343 581.172 350.172C582.343 349 584.229 349 588 349C591.771 349 593.657 349 594.828 350.172C596 351.343 596 353.229 596 357V422H580V357Z"
    fill="#EDF2FF" />
  <mask id="path-40-inside-14_1341_4187" fill="white">
    <path
      d="M620 350C620 346.229 620 344.343 618.828 343.172C617.657 342 615.771 342 612 342C608.229 342 606.343 342 605.172 343.172C604 344.343 604 346.229 604 350V422H620V350Z" />
  </mask>
  <path
    d="M621 346C621 343.239 618.761 341 616 341H608C605.239 341 603 343.239 603 346H605C605 344.343 606.343 343 608 343H616C617.657 343 619 344.343 619 346H621ZM604 422H620H604ZM621 422V346C621 343.239 618.761 341 616 341V343C617.657 343 619 344.343 619 346V422H621ZM608 341C605.239 341 603 343.239 603 346V422H605V346C605 344.343 606.343 343 608 343V341Z"
    fill="#EDF2FF" mask="url(#path-40-inside-14_1341_4187)" />
  <path
    d="M628 331C628 327.229 628 325.343 629.172 324.172C630.343 323 632.229 323 636 323C639.771 323 641.657 323 642.828 324.172C644 325.343 644 327.229 644 331V422H628V331Z"
    fill="#EDF2FF" />
  <mask id="path-43-inside-15_1341_4187" fill="white">
    <path
      d="M668 328C668 324.229 668 322.343 666.828 321.172C665.657 320 663.771 320 660 320C656.229 320 654.343 320 653.172 321.172C652 322.343 652 324.229 652 328V422H668V328Z" />
  </mask>
  <path
    d="M669 324C669 321.239 666.761 319 664 319H656C653.239 319 651 321.239 651 324H653C653 322.343 654.343 321 656 321H664C665.657 321 667 322.343 667 324H669ZM652 422H668H652ZM669 422V324C669 321.239 666.761 319 664 319V321C665.657 321 667 322.343 667 324V422H669ZM656 319C653.239 319 651 321.239 651 324V422H653V324C653 322.343 654.343 321 656 321V319Z"
    fill="#EDF2FF" mask="url(#path-43-inside-15_1341_4187)" />
  <path
    d="M676 331C676 327.229 676 325.343 677.172 324.172C678.343 323 680.229 323 684 323C687.771 323 689.657 323 690.828 324.172C692 325.343 692 327.229 692 331V422H676V331Z"
    fill="#EDF2FF" />
  <mask id="path-46-inside-16_1341_4187" fill="white">
    <path
      d="M716 331C716 327.229 716 325.343 714.828 324.172C713.657 323 711.771 323 708 323C704.229 323 702.343 323 701.172 324.172C700 325.343 700 327.229 700 331V422H716V331Z" />
  </mask>
  <path
    d="M717 327C717 324.239 714.761 322 712 322H704C701.239 322 699 324.239 699 327H701C701 325.343 702.343 324 704 324H712C713.657 324 715 325.343 715 327H717ZM700 422H716H700ZM717 422V327C717 324.239 714.761 322 712 322V324C713.657 324 715 325.343 715 327V422H717ZM704 322C701.239 322 699 324.239 699 327V422H701V327C701 325.343 702.343 324 704 324V322Z"
    fill="#EDF2FF" mask="url(#path-46-inside-16_1341_4187)" />
  <path
    d="M724 334C724 330.229 724 328.343 725.172 327.172C726.343 326 728.229 326 732 326C735.771 326 737.657 326 738.828 327.172C740 328.343 740 330.229 740 334V422H724V334Z"
    fill="#EDF2FF" />
  <mask id="path-49-inside-17_1341_4187" fill="white">
    <path
      d="M764 331C764 327.229 764 325.343 762.828 324.172C761.657 323 759.771 323 756 323C752.229 323 750.343 323 749.172 324.172C748 325.343 748 327.229 748 331V422H764V331Z" />
  </mask>
  <path
    d="M765 327C765 324.239 762.761 322 760 322H752C749.239 322 747 324.239 747 327H749C749 325.343 750.343 324 752 324H760C761.657 324 763 325.343 763 327H765ZM748 422H764H748ZM765 422V327C765 324.239 762.761 322 760 322V324C761.657 324 763 325.343 763 327V422H765ZM752 322C749.239 322 747 324.239 747 327V422H749V327C749 325.343 750.343 324 752 324V322Z"
    fill="#EDF2FF" mask="url(#path-49-inside-17_1341_4187)" />
  <path
    d="M772 331C772 327.229 772 325.343 773.172 324.172C774.343 323 776.229 323 780 323C783.771 323 785.657 323 786.828 324.172C788 325.343 788 327.229 788 331V422H772V331Z"
    fill="#EDF2FF" />
  <mask id="path-52-inside-18_1341_4187" fill="white">
    <path
      d="M812 331C812 327.229 812 325.343 810.828 324.172C809.657 323 807.771 323 804 323C800.229 323 798.343 323 797.172 324.172C796 325.343 796 327.229 796 331V422H812V331Z" />
  </mask>
  <path
    d="M813 327C813 324.239 810.761 322 808 322H800C797.239 322 795 324.239 795 327H797C797 325.343 798.343 324 800 324H808C809.657 324 811 325.343 811 327H813ZM796 422H812H796ZM813 422V327C813 324.239 810.761 322 808 322V324C809.657 324 811 325.343 811 327V422H813ZM800 322C797.239 322 795 324.239 795 327V422H797V327C797 325.343 798.343 324 800 324V322Z"
    fill="#EDF2FF" mask="url(#path-52-inside-18_1341_4187)" />
  <path
    d="M820 328C820 324.229 820 322.343 821.172 321.172C822.343 320 824.229 320 828 320C831.771 320 833.657 320 834.828 321.172C836 322.343 836 324.229 836 328V422H820V328Z"
    fill="#EDF2FF" />
  <mask id="path-55-inside-19_1341_4187" fill="white">
    <path
      d="M860 320C860 316.229 860 314.343 858.828 313.172C857.657 312 855.771 312 852 312C848.229 312 846.343 312 845.172 313.172C844 314.343 844 316.229 844 320V422H860V320Z" />
  </mask>
  <path
    d="M861 316C861 313.239 858.761 311 856 311H848C845.239 311 843 313.239 843 316H845C845 314.343 846.343 313 848 313H856C857.657 313 859 314.343 859 316H861ZM844 422H860H844ZM861 422V316C861 313.239 858.761 311 856 311V313C857.657 313 859 314.343 859 316V422H861ZM848 311C845.239 311 843 313.239 843 316V422H845V316C845 314.343 846.343 313 848 313V311Z"
    fill="#EDF2FF" mask="url(#path-55-inside-19_1341_4187)" />
  <path
    d="M868 313C868 309.229 868 307.343 869.172 306.172C870.343 305 872.229 305 876 305C879.771 305 881.657 305 882.828 306.172C884 307.343 884 309.229 884 313V422H868V313Z"
    fill="#EDF2FF" />
  <mask id="path-58-inside-20_1341_4187" fill="white">
    <path
      d="M908 311C908 307.229 908 305.343 906.828 304.172C905.657 303 903.771 303 900 303C896.229 303 894.343 303 893.172 304.172C892 305.343 892 307.229 892 311V422H908V311Z" />
  </mask>
  <path
    d="M909 307C909 304.239 906.761 302 904 302H896C893.239 302 891 304.239 891 307H893C893 305.343 894.343 304 896 304H904C905.657 304 907 305.343 907 307H909ZM892 422H908H892ZM909 422V307C909 304.239 906.761 302 904 302V304C905.657 304 907 305.343 907 307V422H909ZM896 302C893.239 302 891 304.239 891 307V422H893V307C893 305.343 894.343 304 896 304V302Z"
    fill="#EDF2FF" mask="url(#path-58-inside-20_1341_4187)" />
  <path
    d="M916 297C916 293.229 916 291.343 917.172 290.172C918.343 289 920.229 289 924 289C927.771 289 929.657 289 930.828 290.172C932 291.343 932 293.229 932 297V422H916V297Z"
    fill="#EDF2FF" />
  <mask id="path-61-inside-21_1341_4187" fill="white">
    <path
      d="M956 290C956 286.229 956 284.343 954.828 283.172C953.657 282 951.771 282 948 282C944.229 282 942.343 282 941.172 283.172C940 284.343 940 286.229 940 290V422H956V290Z" />
  </mask>
  <path
    d="M957 286C957 283.239 954.761 281 952 281H944C941.239 281 939 283.239 939 286H941C941 284.343 942.343 283 944 283H952C953.657 283 955 284.343 955 286H957ZM940 422H956H940ZM957 422V286C957 283.239 954.761 281 952 281V283C953.657 283 955 284.343 955 286V422H957ZM944 281C941.239 281 939 283.239 939 286V422H941V286C941 284.343 942.343 283 944 283V281Z"
    fill="#EDF2FF" mask="url(#path-61-inside-21_1341_4187)" />
  <path
    d="M964 278C964 274.229 964 272.343 965.172 271.172C966.343 270 968.229 270 972 270C975.771 270 977.657 270 978.828 271.172C980 272.343 980 274.229 980 278V422H964V278Z"
    fill="#EDF2FF" />
  <mask id="path-64-inside-22_1341_4187" fill="white">
    <path
      d="M1004 271C1004 267.229 1004 265.343 1002.83 264.172C1001.66 263 999.771 263 996 263C992.229 263 990.343 263 989.172 264.172C988 265.343 988 267.229 988 271V422H1004V271Z" />
  </mask>
  <path
    d="M1005 267C1005 264.239 1002.76 262 1000 262H992C989.239 262 987 264.239 987 267H989C989 265.343 990.343 264 992 264H1000C1001.66 264 1003 265.343 1003 267H1005ZM988 422H1004H988ZM1005 422V267C1005 264.239 1002.76 262 1000 262V264C1001.66 264 1003 265.343 1003 267V422H1005ZM992 262C989.239 262 987 264.239 987 267V422H989V267C989 265.343 990.343 264 992 264V262Z"
    fill="#EDF2FF" mask="url(#path-64-inside-22_1341_4187)" />
  <path
    d="M1012 267C1012 263.229 1012 261.343 1013.17 260.172C1014.34 259 1016.23 259 1020 259C1023.77 259 1025.66 259 1026.83 260.172C1028 261.343 1028 263.229 1028 267V422H1012V267Z"
    fill="#EDF2FF" />
  <mask id="path-67-inside-23_1341_4187" fill="white">
    <path
      d="M1052 261C1052 257.229 1052 255.343 1050.83 254.172C1049.66 253 1047.77 253 1044 253C1040.23 253 1038.34 253 1037.17 254.172C1036 255.343 1036 257.229 1036 261V422H1052V261Z" />
  </mask>
  <path
    d="M1053 257C1053 254.239 1050.76 252 1048 252H1040C1037.24 252 1035 254.239 1035 257H1037C1037 255.343 1038.34 254 1040 254H1048C1049.66 254 1051 255.343 1051 257H1053ZM1036 422H1052H1036ZM1053 422V257C1053 254.239 1050.76 252 1048 252V254C1049.66 254 1051 255.343 1051 257V422H1053ZM1040 252C1037.24 252 1035 254.239 1035 257V422H1037V257C1037 255.343 1038.34 254 1040 254V252Z"
    fill="#EDF2FF" mask="url(#path-67-inside-23_1341_4187)" />
  <path
    d="M1060 255C1060 251.229 1060 249.343 1061.17 248.172C1062.34 247 1064.23 247 1068 247C1071.77 247 1073.66 247 1074.83 248.172C1076 249.343 1076 251.229 1076 255V422H1060V255Z"
    fill="#EDF2FF" />
  <mask id="path-70-inside-24_1341_4187" fill="white">
    <path
      d="M1100 251C1100 247.229 1100 245.343 1098.83 244.172C1097.66 243 1095.77 243 1092 243C1088.23 243 1086.34 243 1085.17 244.172C1084 245.343 1084 247.229 1084 251V422H1100V251Z" />
  </mask>
  <path
    d="M1101 247C1101 244.239 1098.76 242 1096 242H1088C1085.24 242 1083 244.239 1083 247H1085C1085 245.343 1086.34 244 1088 244H1096C1097.66 244 1099 245.343 1099 247H1101ZM1084 422H1100H1084ZM1101 422V247C1101 244.239 1098.76 242 1096 242V244C1097.66 244 1099 245.343 1099 247V422H1101ZM1088 242C1085.24 242 1083 244.239 1083 247V422H1085V247C1085 245.343 1086.34 244 1088 244V242Z"
    fill="#EDF2FF" mask="url(#path-70-inside-24_1341_4187)" />
  <path
    d="M1108 241C1108 237.229 1108 235.343 1109.17 234.172C1110.34 233 1112.23 233 1116 233C1119.77 233 1121.66 233 1122.83 234.172C1124 235.343 1124 237.229 1124 241V422H1108V241Z"
    fill="#EDF2FF" />
  <mask id="path-73-inside-25_1341_4187" fill="white">
    <path
      d="M1148 234C1148 230.229 1148 228.343 1146.83 227.172C1145.66 226 1143.77 226 1140 226C1136.23 226 1134.34 226 1133.17 227.172C1132 228.343 1132 230.229 1132 234V422H1148V234Z" />
  </mask>
  <path
    d="M1149 230C1149 227.239 1146.76 225 1144 225H1136C1133.24 225 1131 227.239 1131 230H1133C1133 228.343 1134.34 227 1136 227H1144C1145.66 227 1147 228.343 1147 230H1149ZM1132 422H1148H1132ZM1149 422V230C1149 227.239 1146.76 225 1144 225V227C1145.66 227 1147 228.343 1147 230V422H1149ZM1136 225C1133.24 225 1131 227.239 1131 230V422H1133V230C1133 228.343 1134.34 227 1136 227V225Z"
    fill="#EDF2FF" mask="url(#path-73-inside-25_1341_4187)" />
  <path
    d="M1156 224C1156 220.229 1156 218.343 1157.17 217.172C1158.34 216 1160.23 216 1164 216C1167.77 216 1169.66 216 1170.83 217.172C1172 218.343 1172 220.229 1172 224V422H1156V224Z"
    fill="#EDF2FF" />
  <mask id="path-76-inside-26_1341_4187" fill="white">
    <path
      d="M1196 215C1196 211.229 1196 209.343 1194.83 208.172C1193.66 207 1191.77 207 1188 207C1184.23 207 1182.34 207 1181.17 208.172C1180 209.343 1180 211.229 1180 215V422H1196V215Z" />
  </mask>
  <path
    d="M1197 211C1197 208.239 1194.76 206 1192 206H1184C1181.24 206 1179 208.239 1179 211H1181C1181 209.343 1182.34 208 1184 208H1192C1193.66 208 1195 209.343 1195 211H1197ZM1180 422H1196H1180ZM1197 422V211C1197 208.239 1194.76 206 1192 206V208C1193.66 208 1195 209.343 1195 211V422H1197ZM1184 206C1181.24 206 1179 208.239 1179 211V422H1181V211C1181 209.343 1182.34 208 1184 208V206Z"
    fill="#EDF2FF" mask="url(#path-76-inside-26_1341_4187)" />
  <path
    d="M1204 209C1204 205.229 1204 203.343 1205.17 202.172C1206.34 201 1208.23 201 1212 201C1215.77 201 1217.66 201 1218.83 202.172C1220 203.343 1220 205.229 1220 209V422H1204V209Z"
    fill="#EDF2FF" />
  <mask id="path-79-inside-27_1341_4187" fill="white">
    <path
      d="M1244 201C1244 197.229 1244 195.343 1242.83 194.172C1241.66 193 1239.77 193 1236 193C1232.23 193 1230.34 193 1229.17 194.172C1228 195.343 1228 197.229 1228 201V422H1244V201Z" />
  </mask>
  <path
    d="M1245 197C1245 194.239 1242.76 192 1240 192H1232C1229.24 192 1227 194.239 1227 197H1229C1229 195.343 1230.34 194 1232 194H1240C1241.66 194 1243 195.343 1243 197H1245ZM1228 422H1244H1228ZM1245 422V197C1245 194.239 1242.76 192 1240 192V194C1241.66 194 1243 195.343 1243 197V422H1245ZM1232 192C1229.24 192 1227 194.239 1227 197V422H1229V197C1229 195.343 1230.34 194 1232 194V192Z"
    fill="#EDF2FF" mask="url(#path-79-inside-27_1341_4187)" />
  <path
    d="M1252 194C1252 190.229 1252 188.343 1253.17 187.172C1254.34 186 1256.23 186 1260 186C1263.77 186 1265.66 186 1266.83 187.172C1268 188.343 1268 190.229 1268 194V422H1252V194Z"
    fill="#EDF2FF" />
  <mask id="path-82-inside-28_1341_4187" fill="white">
    <path
      d="M1292 188C1292 184.229 1292 182.343 1290.83 181.172C1289.66 180 1287.77 180 1284 180C1280.23 180 1278.34 180 1277.17 181.172C1276 182.343 1276 184.229 1276 188V422H1292V188Z" />
  </mask>
  <path
    d="M1293 184C1293 181.239 1290.76 179 1288 179H1280C1277.24 179 1275 181.239 1275 184H1277C1277 182.343 1278.34 181 1280 181H1288C1289.66 181 1291 182.343 1291 184H1293ZM1276 422H1292H1276ZM1293 422V184C1293 181.239 1290.76 179 1288 179V181C1289.66 181 1291 182.343 1291 184V422H1293ZM1280 179C1277.24 179 1275 181.239 1275 184V422H1277V184C1277 182.343 1278.34 181 1280 181V179Z"
    fill="#EDF2FF" mask="url(#path-82-inside-28_1341_4187)" />
  <path
    d="M1300 185C1300 181.229 1300 179.343 1301.17 178.172C1302.34 177 1304.23 177 1308 177C1311.77 177 1313.66 177 1314.83 178.172C1316 179.343 1316 181.229 1316 185V422H1300V185Z"
    fill="#EDF2FF" />
  <mask id="path-85-inside-29_1341_4187" fill="white">
    <path
      d="M1340 182C1340 178.229 1340 176.343 1338.83 175.172C1337.66 174 1335.77 174 1332 174C1328.23 174 1326.34 174 1325.17 175.172C1324 176.343 1324 178.229 1324 182V422H1340V182Z" />
  </mask>
  <path
    d="M1341 178C1341 175.239 1338.76 173 1336 173H1328C1325.24 173 1323 175.239 1323 178H1325C1325 176.343 1326.34 175 1328 175H1336C1337.66 175 1339 176.343 1339 178H1341ZM1324 422H1340H1324ZM1341 422V178C1341 175.239 1338.76 173 1336 173V175C1337.66 175 1339 176.343 1339 178V422H1341ZM1328 173C1325.24 173 1323 175.239 1323 178V422H1325V178C1325 176.343 1326.34 175 1328 175V173Z"
    fill="#EDF2FF" mask="url(#path-85-inside-29_1341_4187)" />
  <path
    d="M1348 177C1348 173.229 1348 171.343 1349.17 170.172C1350.34 169 1352.23 169 1356 169C1359.77 169 1361.66 169 1362.83 170.172C1364 171.343 1364 173.229 1364 177V422H1348V177Z"
    fill="#EDF2FF" />
  <mask id="path-88-inside-30_1341_4187" fill="white">
    <path
      d="M1388 169C1388 165.229 1388 163.343 1386.83 162.172C1385.66 161 1383.77 161 1380 161C1376.23 161 1374.34 161 1373.17 162.172C1372 163.343 1372 165.229 1372 169V422H1388V169Z" />
  </mask>
  <path
    d="M1389 165C1389 162.239 1386.76 160 1384 160H1376C1373.24 160 1371 162.239 1371 165H1373C1373 163.343 1374.34 162 1376 162H1384C1385.66 162 1387 163.343 1387 165H1389ZM1372 422H1388H1372ZM1389 422V165C1389 162.239 1386.76 160 1384 160V162C1385.66 162 1387 163.343 1387 165V422H1389ZM1376 160C1373.24 160 1371 162.239 1371 165V422H1373V165C1373 163.343 1374.34 162 1376 162V160Z"
    fill="#EDF2FF" mask="url(#path-88-inside-30_1341_4187)" />
  <path
    d="M1396 159C1396 155.229 1396 153.343 1397.17 152.172C1398.34 151 1400.23 151 1404 151C1407.77 151 1409.66 151 1410.83 152.172C1412 153.343 1412 155.229 1412 159V422H1396V159Z"
    fill="#EDF2FF" />
  <path
    d="M1444 149C1444 145.229 1444 143.343 1445.17 142.172C1446.34 141 1448.23 141 1452 141C1455.77 141 1457.66 141 1458.83 142.172C1460 143.343 1460 145.229 1460 149V422H1444V149Z"
    fill="#EDF2FF" />
  <path
    d="M1492 140C1492 136.229 1492 134.343 1493.17 133.172C1494.34 132 1496.23 132 1500 132C1503.77 132 1505.66 132 1506.83 133.172C1508 134.343 1508 136.229 1508 140V422H1492V140Z"
    fill="#EDF2FF" />
  <path
    d="M1540 133C1540 129.229 1540 127.343 1541.17 126.172C1542.34 125 1544.23 125 1548 125C1551.77 125 1553.66 125 1554.83 126.172C1556 127.343 1556 129.229 1556 133V422H1540V133Z"
    fill="#EDF2FF" />
  <path
    d="M1588 122C1588 118.229 1588 116.343 1589.17 115.172C1590.34 114 1592.23 114 1596 114C1599.77 114 1601.66 114 1602.83 115.172C1604 116.343 1604 118.229 1604 122V422H1588V122Z"
    fill="#EDF2FF" />
  <path
    d="M1636 109C1636 105.229 1636 103.343 1637.17 102.172C1638.34 101 1640.23 101 1644 101C1647.77 101 1649.66 101 1650.83 102.172C1652 103.343 1652 105.229 1652 109V422H1636V109Z"
    fill="#EDF2FF" />
  <path
    d="M1684 97C1684 93.2288 1684 91.3431 1685.17 90.1716C1686.34 89 1688.23 89 1692 89C1695.77 89 1697.66 89 1698.83 90.1716C1700 91.3431 1700 93.2288 1700 97V422H1684V97Z"
    fill="#EDF2FF" />
  <path
    d="M1732 82C1732 78.2288 1732 76.3431 1733.17 75.1716C1734.34 74 1736.23 74 1740 74C1743.77 74 1745.66 74 1746.83 75.1716C1748 76.3431 1748 78.2288 1748 82V422H1732V82Z"
    fill="#EDF2FF" />
  <path
    d="M1780 71C1780 67.2288 1780 65.3431 1781.17 64.1716C1782.34 63 1784.23 63 1788 63C1791.77 63 1793.66 63 1794.83 64.1716C1796 65.3431 1796 67.2288 1796 71V422H1780V71Z"
    fill="#EDF2FF" />
  <path
    d="M1828 60C1828 56.2288 1828 54.3431 1829.17 53.1716C1830.34 52 1832.23 52 1836 52C1839.77 52 1841.66 52 1842.83 53.1716C1844 54.3431 1844 56.2288 1844 60V422H1828V60Z"
    fill="#EDF2FF" />
  <path
    d="M1876 31C1876 27.2288 1876 25.3431 1877.17 24.1716C1878.34 23 1880.23 23 1884 23C1887.77 23 1889.66 23 1890.83 24.1716C1892 25.3431 1892 27.2288 1892 31V422H1876V31Z"
    fill="#EDF2FF" />
  <mask id="path-101-inside-31_1341_4187" fill="white">
    <path
      d="M1436 152C1436 148.229 1436 146.343 1434.83 145.172C1433.66 144 1431.77 144 1428 144C1424.23 144 1422.34 144 1421.17 145.172C1420 146.343 1420 148.229 1420 152V422H1436V152Z" />
  </mask>
  <path
    d="M1437 148C1437 145.239 1434.76 143 1432 143H1424C1421.24 143 1419 145.239 1419 148H1421C1421 146.343 1422.34 145 1424 145H1432C1433.66 145 1435 146.343 1435 148H1437ZM1420 422H1436H1420ZM1437 422V148C1437 145.239 1434.76 143 1432 143V145C1433.66 145 1435 146.343 1435 148V422H1437ZM1424 143C1421.24 143 1419 145.239 1419 148V422H1421V148C1421 146.343 1422.34 145 1424 145V143Z"
    fill="#EDF2FF" mask="url(#path-101-inside-31_1341_4187)" />
  <mask id="path-103-inside-32_1341_4187" fill="white">
    <path
      d="M1484 144C1484 140.229 1484 138.343 1482.83 137.172C1481.66 136 1479.77 136 1476 136C1472.23 136 1470.34 136 1469.17 137.172C1468 138.343 1468 140.229 1468 144V422H1484V144Z" />
  </mask>
  <path
    d="M1485 140C1485 137.239 1482.76 135 1480 135H1472C1469.24 135 1467 137.239 1467 140H1469C1469 138.343 1470.34 137 1472 137H1480C1481.66 137 1483 138.343 1483 140H1485ZM1468 422H1484H1468ZM1485 422V140C1485 137.239 1482.76 135 1480 135V137C1481.66 137 1483 138.343 1483 140V422H1485ZM1472 135C1469.24 135 1467 137.239 1467 140V422H1469V140C1469 138.343 1470.34 137 1472 137V135Z"
    fill="#EDF2FF" mask="url(#path-103-inside-32_1341_4187)" />
  <mask id="path-105-inside-33_1341_4187" fill="white">
    <path
      d="M1532 137C1532 133.229 1532 131.343 1530.83 130.172C1529.66 129 1527.77 129 1524 129C1520.23 129 1518.34 129 1517.17 130.172C1516 131.343 1516 133.229 1516 137V422H1532V137Z" />
  </mask>
  <path
    d="M1533 133C1533 130.239 1530.76 128 1528 128H1520C1517.24 128 1515 130.239 1515 133H1517C1517 131.343 1518.34 130 1520 130H1528C1529.66 130 1531 131.343 1531 133H1533ZM1516 422H1532H1516ZM1533 422V133C1533 130.239 1530.76 128 1528 128V130C1529.66 130 1531 131.343 1531 133V422H1533ZM1520 128C1517.24 128 1515 130.239 1515 133V422H1517V133C1517 131.343 1518.34 130 1520 130V128Z"
    fill="#EDF2FF" mask="url(#path-105-inside-33_1341_4187)" />
  <mask id="path-107-inside-34_1341_4187" fill="white">
    <path
      d="M1580 128C1580 124.229 1580 122.343 1578.83 121.172C1577.66 120 1575.77 120 1572 120C1568.23 120 1566.34 120 1565.17 121.172C1564 122.343 1564 124.229 1564 128V422H1580V128Z" />
  </mask>
  <path
    d="M1581 124C1581 121.239 1578.76 119 1576 119H1568C1565.24 119 1563 121.239 1563 124H1565C1565 122.343 1566.34 121 1568 121H1576C1577.66 121 1579 122.343 1579 124H1581ZM1564 422H1580H1564ZM1581 422V124C1581 121.239 1578.76 119 1576 119V121C1577.66 121 1579 122.343 1579 124V422H1581ZM1568 119C1565.24 119 1563 121.239 1563 124V422H1565V124C1565 122.343 1566.34 121 1568 121V119Z"
    fill="#EDF2FF" mask="url(#path-107-inside-34_1341_4187)" />
  <mask id="path-109-inside-35_1341_4187" fill="white">
    <path
      d="M1628 114C1628 110.229 1628 108.343 1626.83 107.172C1625.66 106 1623.77 106 1620 106C1616.23 106 1614.34 106 1613.17 107.172C1612 108.343 1612 110.229 1612 114V422H1628V114Z" />
  </mask>
  <path
    d="M1629 110C1629 107.239 1626.76 105 1624 105H1616C1613.24 105 1611 107.239 1611 110H1613C1613 108.343 1614.34 107 1616 107H1624C1625.66 107 1627 108.343 1627 110H1629ZM1612 422H1628H1612ZM1629 422V110C1629 107.239 1626.76 105 1624 105V107C1625.66 107 1627 108.343 1627 110V422H1629ZM1616 105C1613.24 105 1611 107.239 1611 110V422H1613V110C1613 108.343 1614.34 107 1616 107V105Z"
    fill="#EDF2FF" mask="url(#path-109-inside-35_1341_4187)" />
  <mask id="path-111-inside-36_1341_4187" fill="white">
    <path
      d="M1676 103C1676 99.2288 1676 97.3431 1674.83 96.1716C1673.66 95 1671.77 95 1668 95C1664.23 95 1662.34 95 1661.17 96.1716C1660 97.3431 1660 99.2288 1660 103V422H1676V103Z" />
  </mask>
  <path
    d="M1677 99C1677 96.2386 1674.76 94 1672 94H1664C1661.24 94 1659 96.2386 1659 99H1661C1661 97.3431 1662.34 96 1664 96H1672C1673.66 96 1675 97.3431 1675 99H1677ZM1660 422H1676H1660ZM1677 422V99C1677 96.2386 1674.76 94 1672 94V96C1673.66 96 1675 97.3431 1675 99V422H1677ZM1664 94C1661.24 94 1659 96.2386 1659 99V422H1661V99C1661 97.3431 1662.34 96 1664 96V94Z"
    fill="#EDF2FF" mask="url(#path-111-inside-36_1341_4187)" />
  <mask id="path-113-inside-37_1341_4187" fill="white">
    <path
      d="M1724 87C1724 83.2288 1724 81.3431 1722.83 80.1716C1721.66 79 1719.77 79 1716 79C1712.23 79 1710.34 79 1709.17 80.1716C1708 81.3431 1708 83.2288 1708 87V422H1724V87Z" />
  </mask>
  <path
    d="M1725 83C1725 80.2386 1722.76 78 1720 78H1712C1709.24 78 1707 80.2386 1707 83H1709C1709 81.3431 1710.34 80 1712 80H1720C1721.66 80 1723 81.3431 1723 83H1725ZM1708 422H1724H1708ZM1725 422V83C1725 80.2386 1722.76 78 1720 78V80C1721.66 80 1723 81.3431 1723 83V422H1725ZM1712 78C1709.24 78 1707 80.2386 1707 83V422H1709V83C1709 81.3431 1710.34 80 1712 80V78Z"
    fill="#EDF2FF" mask="url(#path-113-inside-37_1341_4187)" />
  <mask id="path-115-inside-38_1341_4187" fill="white">
    <path
      d="M1772 74C1772 70.2288 1772 68.3431 1770.83 67.1716C1769.66 66 1767.77 66 1764 66C1760.23 66 1758.34 66 1757.17 67.1716C1756 68.3431 1756 70.2288 1756 74V422H1772V74Z" />
  </mask>
  <path
    d="M1773 70C1773 67.2386 1770.76 65 1768 65H1760C1757.24 65 1755 67.2386 1755 70H1757C1757 68.3431 1758.34 67 1760 67H1768C1769.66 67 1771 68.3431 1771 70H1773ZM1756 422H1772H1756ZM1773 422V70C1773 67.2386 1770.76 65 1768 65V67C1769.66 67 1771 68.3431 1771 70V422H1773ZM1760 65C1757.24 65 1755 67.2386 1755 70V422H1757V70C1757 68.3431 1758.34 67 1760 67V65Z"
    fill="#EDF2FF" mask="url(#path-115-inside-38_1341_4187)" />
  <mask id="path-117-inside-39_1341_4187" fill="white">
    <path
      d="M1820 67C1820 63.2288 1820 61.3431 1818.83 60.1716C1817.66 59 1815.77 59 1812 59C1808.23 59 1806.34 59 1805.17 60.1716C1804 61.3431 1804 63.2288 1804 67V422H1820V67Z" />
  </mask>
  <path
    d="M1821 63C1821 60.2386 1818.76 58 1816 58H1808C1805.24 58 1803 60.2386 1803 63H1805C1805 61.3431 1806.34 60 1808 60H1816C1817.66 60 1819 61.3431 1819 63H1821ZM1804 422H1820H1804ZM1821 422V63C1821 60.2386 1818.76 58 1816 58V60C1817.66 60 1819 61.3431 1819 63V422H1821ZM1808 58C1805.24 58 1803 60.2386 1803 63V422H1805V63C1805 61.3431 1806.34 60 1808 60V58Z"
    fill="#EDF2FF" mask="url(#path-117-inside-39_1341_4187)" />
  <mask id="path-119-inside-40_1341_4187" fill="white">
    <path
      d="M1868 39C1868 35.2288 1868 33.3431 1866.83 32.1716C1865.66 31 1863.77 31 1860 31C1856.23 31 1854.34 31 1853.17 32.1716C1852 33.3431 1852 35.2288 1852 39V422H1868V39Z" />
  </mask>
  <path
    d="M1869 35C1869 32.2386 1866.76 30 1864 30H1856C1853.24 30 1851 32.2386 1851 35H1853C1853 33.3431 1854.34 32 1856 32H1864C1865.66 32 1867 33.3431 1867 35H1869ZM1852 422H1868H1852ZM1869 422V35C1869 32.2386 1866.76 30 1864 30V32C1865.66 32 1867 33.3431 1867 35V422H1869ZM1856 30C1853.24 30 1851 32.2386 1851 35V422H1853V35C1853 33.3431 1854.34 32 1856 32V30Z"
    fill="#EDF2FF" mask="url(#path-119-inside-40_1341_4187)" />
  <mask id="path-121-inside-41_1341_4187" fill="white">
    <path
      d="M1916 7.99999C1916 4.22876 1916 2.34315 1914.83 1.17157C1913.66 0 1911.77 0 1908 0C1904.23 0 1902.34 0 1901.17 1.17157C1900 2.34315 1900 4.22876 1900 8V422H1916V7.99999Z" />
  </mask>
  <path
    d="M1917 4C1917 1.23858 1914.76 -1 1912 -1H1904C1901.24 -1 1899 1.23858 1899 4H1901C1901 2.34315 1902.34 1 1904 1H1912C1913.66 1 1915 2.34315 1915 4H1917ZM1900 422H1916H1900ZM1917 422V4C1917 1.23858 1914.76 -1 1912 -1V1C1913.66 1 1915 2.34315 1915 4V422H1917ZM1904 -1C1901.24 -1 1899 1.23858 1899 4V422H1901V4C1901 2.34315 1902.34 1 1904 1V-1Z"
    fill="#EDF2FF" mask="url(#path-121-inside-41_1341_4187)" />
</svg>