<svg width="24" height="24" viewBox="0 0 24 24" fill="none" xmlns="http://www.w3.org/2000/svg">
  <path
    d="M2 12C2 7.131 5.76228 3.14026 10.5379 2.77698C10.636 2.76952 10.75 2.85149 10.75 3V12V21C10.75 21.1491 10.6361 21.2305 10.5385 21.2231C8.8153 21.0921 7.22442 20.4891 5.89405 19.5426C3.53629 17.8652 2 15.112 2 12Z"
    stroke="#3678C5" />
  <path
    d="M21.75 13.25C21.899 13.25 21.9805 13.364 21.9731 13.4615C21.694 17.1324 19.271 20.2063 15.9519 21.431C15.1666 21.7207 14.3311 21.907 13.4614 21.9731C13.3639 21.9805 13.25 21.8992 13.25 21.75V13.5C13.25 13.3619 13.3619 13.25 13.5 13.25H21.75Z"
    stroke="#3678C5" />
  <path
    d="M21.973 10.5379C21.9805 10.636 21.8985 10.75 21.75 10.75H13.5C13.3619 10.75 13.25 10.6381 13.25 10.5V2.25C13.25 2.10149 13.364 2.01952 13.4621 2.02698C18.0027 2.37238 21.6276 5.99735 21.973 10.5379Z"
    stroke="#3678C5" />
</svg>
