<svg width="24" height="24" viewBox="0 0 24 24" fill="none" xmlns="http://www.w3.org/2000/svg">
  <path d="M6.375 9.52502L9.525 9.52502" stroke="#59B077" stroke-width="1.5" />
  <path d="M14.325 17.175L17.475 17.175" stroke="#59B077" stroke-width="1.5" />
  <path d="M6.375 6.82498L9.525 6.82498" stroke="#59B077" stroke-width="1.5" />
  <path d="M14.325 14.475L17.475 14.475" stroke="#59B077" stroke-width="1.5" />
  <circle cx="8.09995" cy="14.4" r="0.9" fill="#59B077" />
  <circle cx="15.9" cy="6.60001" r="0.9" fill="#59B077" />
  <circle cx="8.09995" cy="17.4" r="0.9" fill="#59B077" />
  <circle cx="15.9" cy="9.59998" r="0.9" fill="#59B077" />
  <path
    d="M3.94995 4.50004C3.94995 4.19629 4.19619 3.95004 4.49995 3.95004H12H19.5C19.8037 3.95004 20.05 4.19629 20.05 4.50004V12V19.5C20.05 19.8038 19.8037 20.05 19.5 20.05H12H4.49995C4.19619 20.05 3.94995 19.8038 3.94995 19.5V12V4.50004Z"
    stroke="#59B077" />
</svg>
