<svg width="272" height="173" viewBox="0 0 272 173" fill="none" xmlns="http://www.w3.org/2000/svg">
  <g clip-path="url(#clip0_730_13983)">
    <rect width="272" height="173" rx="16" fill="#C5C0FF" />
    <g filter="url(#filter0_f_730_13983)">
      <ellipse cx="134.5" cy="87" rx="75.5" ry="57" fill="white" />
    </g>
    <g filter="url(#filter1_f_730_13983)">
      <circle cx="224" cy="46" r="5" fill="#D9D9D9" />
      <circle cx="224" cy="46" r="5" fill="url(#paint0_radial_730_13983)" />
    </g>
    <g filter="url(#filter2_f_730_13983)">
      <circle cx="253" cy="23" r="3" fill="#D9D9D9" />
      <circle cx="253" cy="23" r="3" fill="url(#paint1_radial_730_13983)" />
    </g>
    <circle cx="32" cy="113" r="10" fill="url(#paint2_radial_730_13983)" />
    <g filter="url(#filter3_f_730_13983)">
      <circle cx="62.5" cy="19.5" r="6.5" fill="url(#paint3_radial_730_13983)" />
    </g>
    <g filter="url(#filter4_f_730_13983)">
      <circle cx="22.5" cy="9.5" r="3.5" fill="url(#paint4_radial_730_13983)" />
    </g>
    <g filter="url(#filter5_f_730_13983)">
      <ellipse cx="136.5" cy="134" rx="34.5" ry="4" fill="#B4B4FF" />
    </g>
    <rect x="74" y="42" width="124" height="76" rx="6" fill="white" stroke="url(#paint5_linear_730_13983)"
      stroke-width="4" />
    <rect x="126" y="120" width="20" height="12" fill="white" />
    <rect x="126" y="120" width="20" height="12" fill="url(#paint6_linear_730_13983)" fill-opacity="0.1" />
    <rect x="112" y="132" width="48" height="2" rx="1" fill="white" />
    <rect x="84.5" y="79.5" width="47" height="28" rx="1.5" fill="#F9F2FF" stroke="#F4E7FF" />
    <path d="M87 100L91 99L96 96L104 95L111 93L120 92L129 87" stroke="#6D8CDB" stroke-width="0.5" />
    <rect x="140.5" y="52.5" width="47" height="44" rx="1.5" fill="#EDF2FF" stroke="#E6EDFF" />
    <rect width="18" height="1" rx="0.5" transform="matrix(1 0 0 -1 140 102)" fill="#879CD2" />
    <path d="M108 52L84 52L84 54L108 54L108 52Z" fill="#879CD2" />
    <path d="M110 54L84 54L84 56L110 56L110 54Z" fill="#F6A2A2" />
    <path d="M119 56L84 56L84 58L119 58L119 56Z" fill="#879CD2" />
    <rect width="29" height="1" rx="0.5" transform="matrix(1 0 0 -1 159 102)" fill="#879CD2" />
    <rect width="10" height="1" rx="0.5" transform="matrix(1 0 0 -1 140 104)" fill="#879CD2" />
    <rect width="18" height="1" rx="0.5" transform="matrix(1 0 0 -1 151 104)" fill="#879CD2" />
    <rect width="15" height="1" rx="0.5" transform="matrix(1 0 0 -1 170 104)" fill="#879CD2" />
    <rect width="15" height="1" rx="0.5" transform="matrix(1 0 0 -1 140 106)" fill="#879CD2" />
    <rect width="21" height="1" rx="0.5" transform="matrix(1 0 0 -1 156 106)" fill="#879CD2" />
    <rect width="9" height="1" rx="0.5" transform="matrix(1 0 0 -1 178 106)" fill="#879CD2" />
    <rect width="42" height="1" rx="0.5" transform="matrix(1 0 0 -1 140 108)" fill="#879CD2" />
    <rect width="25" height="1" rx="0.5" transform="matrix(1 0 0 -1 84 61)" fill="#879CD2" />
    <rect width="10" height="1" rx="0.5" transform="matrix(1 0 0 -1 84 63)" fill="#879CD2" />
    <rect width="18" height="1" rx="0.5" transform="matrix(1 0 0 -1 95 63)" fill="#F6A2A2" />
    <rect width="15" height="1" rx="0.5" transform="matrix(1 0 0 -1 114 63)" fill="#879CD2" />
    <rect width="17" height="1" rx="0.5" transform="matrix(1 0 0 -1 110 61)" fill="#879CD2" />
    <rect width="15" height="1" rx="0.5" transform="matrix(1 0 0 -1 84 65)" fill="#F6A2A2" />
    <rect width="21" height="1" rx="0.5" transform="matrix(1 0 0 -1 100 65)" fill="#879CD2" />
    <rect width="9" height="1" rx="0.5" transform="matrix(1 0 0 -1 122 65)" fill="#879CD2" />
    <rect width="42" height="1" rx="0.5" transform="matrix(1 0 0 -1 84 67)" fill="#879CD2" />
    <rect width="25" height="1" rx="0.5" transform="matrix(1 0 0 -1 84 69)" fill="#879CD2" />
    <rect width="10" height="1" rx="0.5" transform="matrix(1 0 0 -1 84 71)" fill="#F6A2A2" />
    <rect width="18" height="1" rx="0.5" transform="matrix(1 0 0 -1 95 71)" fill="#879CD2" />
    <rect width="15" height="1" rx="0.5" transform="matrix(1 0 0 -1 114 71)" fill="#879CD2" />
    <rect width="18" height="1" rx="0.5" transform="matrix(1 0 0 -1 110 69)" fill="#F6A2A2" />
    <rect width="15" height="1" rx="0.5" transform="matrix(1 0 0 -1 84 73)" fill="#879CD2" />
    <rect width="21" height="1" rx="0.5" transform="matrix(1 0 0 -1 100 73)" fill="#879CD2" />
    <rect width="9" height="1" rx="0.5" transform="matrix(1 0 0 -1 122 73)" fill="#F6A2A2" />
    <rect width="42" height="1" rx="0.5" transform="matrix(1 0 0 -1 84 75)" fill="#879CD2" />
    <circle cx="87" cy="100" r="1" fill="#9F62DD" />
    <circle cx="87" cy="100" r="1" fill="url(#paint7_radial_730_13983)" />
    <circle cx="91" cy="99" r="1" fill="#9F62DD" />
    <circle cx="91" cy="99" r="1" fill="url(#paint8_radial_730_13983)" />
    <circle cx="96" cy="96" r="1" fill="#9F62DD" />
    <circle cx="96" cy="96" r="1" fill="url(#paint9_radial_730_13983)" />
    <circle cx="104" cy="95" r="1" fill="#9F62DD" />
    <circle cx="104" cy="95" r="1" fill="url(#paint10_radial_730_13983)" />
    <circle cx="111" cy="93" r="1" fill="#9F62DD" />
    <circle cx="111" cy="93" r="1" fill="url(#paint11_radial_730_13983)" />
    <circle cx="120" cy="92" r="1" fill="#9F62DD" />
    <circle cx="120" cy="92" r="1" fill="url(#paint12_radial_730_13983)" />
    <circle cx="129" cy="87" r="1" fill="url(#paint13_radial_730_13983)" />
    <circle cx="195.5" cy="120.5" r="16.5" fill="#D9D9D9" />
    <circle cx="195.5" cy="120.5" r="16.5" fill="url(#paint14_radial_730_13983)" />
    <circle cx="163.5" cy="74.5" r="17.5" fill="#E1E0FF" />
    <circle cx="166.5" cy="76.5" r="13.5" fill="url(#paint15_linear_730_13983)" />
    <circle cx="170" cy="79" r="9" fill="url(#paint16_linear_730_13983)" fill-opacity="0.65" />
    <circle cx="174" cy="80" r="1" fill="#5F60C7" />
    <circle cx="169" cy="76" r="1" fill="#5F60C7" />
    <circle cx="165" cy="81" r="1" fill="#5F60C7" />
    <circle cx="168" cy="67" r="1" fill="#F6A2A2" />
    <circle cx="155" cy="64" r="1" fill="#F6A2A2" />
    <circle cx="158" cy="75" r="1" fill="#F6A2A2" />
    <circle cx="160" cy="85" r="1" fill="#F6A2A2" />
    <circle cx="151" cy="80" r="1" fill="#F6A2A2" />
    <g filter="url(#filter6_di_730_13983)">
      <path d="M209.079 59.891L207.879 72.4795L196.491 61.0911L209.079 59.891Z" fill="#FB6F6D" />
    </g>
    <g filter="url(#filter7_di_730_13983)">
      <path
        d="M134.993 107.27C133.762 108.378 133.662 110.275 134.77 111.507C135.878 112.738 137.775 112.838 139.007 111.73L134.993 107.27ZM162 87L164.121 84.8787L162.109 82.8661L159.993 84.7701L162 87ZM172.5 97.5L170.379 99.6213L172.517 101.76L174.638 99.6043L172.5 97.5ZM139.007 111.73L164.007 89.2299L159.993 84.7701L134.993 107.27L139.007 111.73ZM159.879 89.1213L170.379 99.6213L174.621 95.3787L164.121 84.8787L159.879 89.1213ZM174.638 99.6043L205.638 68.1043L201.362 63.8957L170.362 95.3957L174.638 99.6043Z"
        fill="#FB6F6D" />
    </g>
  </g>
  <rect x="1" y="1" width="270" height="171" rx="15" stroke="url(#paint17_linear_730_13983)" stroke-width="2" />
  <defs>
    <filter id="filter0_f_730_13983" x="-55.1" y="-84.1" width="379.2" height="342.2" filterUnits="userSpaceOnUse"
      color-interpolation-filters="sRGB">
      <feFlood flood-opacity="0" result="BackgroundImageFix" />
      <feBlend mode="normal" in="SourceGraphic" in2="BackgroundImageFix" result="shape" />
      <feGaussianBlur stdDeviation="57.05" result="effect1_foregroundBlur_730_13983" />
    </filter>
    <filter id="filter1_f_730_13983" x="217" y="39" width="14" height="14" filterUnits="userSpaceOnUse"
      color-interpolation-filters="sRGB">
      <feFlood flood-opacity="0" result="BackgroundImageFix" />
      <feBlend mode="normal" in="SourceGraphic" in2="BackgroundImageFix" result="shape" />
      <feGaussianBlur stdDeviation="1" result="effect1_foregroundBlur_730_13983" />
    </filter>
    <filter id="filter2_f_730_13983" x="248" y="18" width="10" height="10" filterUnits="userSpaceOnUse"
      color-interpolation-filters="sRGB">
      <feFlood flood-opacity="0" result="BackgroundImageFix" />
      <feBlend mode="normal" in="SourceGraphic" in2="BackgroundImageFix" result="shape" />
      <feGaussianBlur stdDeviation="1" result="effect1_foregroundBlur_730_13983" />
    </filter>
    <filter id="filter3_f_730_13983" x="54" y="11" width="17" height="17" filterUnits="userSpaceOnUse"
      color-interpolation-filters="sRGB">
      <feFlood flood-opacity="0" result="BackgroundImageFix" />
      <feBlend mode="normal" in="SourceGraphic" in2="BackgroundImageFix" result="shape" />
      <feGaussianBlur stdDeviation="1" result="effect1_foregroundBlur_730_13983" />
    </filter>
    <filter id="filter4_f_730_13983" x="17" y="4" width="11" height="11" filterUnits="userSpaceOnUse"
      color-interpolation-filters="sRGB">
      <feFlood flood-opacity="0" result="BackgroundImageFix" />
      <feBlend mode="normal" in="SourceGraphic" in2="BackgroundImageFix" result="shape" />
      <feGaussianBlur stdDeviation="1" result="effect1_foregroundBlur_730_13983" />
    </filter>
    <filter id="filter5_f_730_13983" x="91.2" y="119.2" width="90.6" height="29.6" filterUnits="userSpaceOnUse"
      color-interpolation-filters="sRGB">
      <feFlood flood-opacity="0" result="BackgroundImageFix" />
      <feBlend mode="normal" in="SourceGraphic" in2="BackgroundImageFix" result="shape" />
      <feGaussianBlur stdDeviation="5.4" result="effect1_foregroundBlur_730_13983" />
    </filter>
    <filter id="filter6_di_730_13983" x="196.492" y="59.8909" width="12.5859" height="14.5886"
      filterUnits="userSpaceOnUse" color-interpolation-filters="sRGB">
      <feFlood flood-opacity="0" result="BackgroundImageFix" />
      <feColorMatrix in="SourceAlpha" type="matrix" values="0 0 0 0 0 0 0 0 0 0 0 0 0 0 0 0 0 0 127 0"
        result="hardAlpha" />
      <feOffset dy="2" />
      <feComposite in2="hardAlpha" operator="out" />
      <feColorMatrix type="matrix" values="0 0 0 0 0.710059 0 0 0 0 0.710059 0 0 0 0 0.710059 0 0 0 0.61 0" />
      <feBlend mode="normal" in2="BackgroundImageFix" result="effect1_dropShadow_730_13983" />
      <feBlend mode="normal" in="SourceGraphic" in2="effect1_dropShadow_730_13983" result="shape" />
      <feColorMatrix in="SourceAlpha" type="matrix" values="0 0 0 0 0 0 0 0 0 0 0 0 0 0 0 0 0 0 127 0"
        result="hardAlpha" />
      <feOffset dy="-2" />
      <feComposite in2="hardAlpha" operator="arithmetic" k2="-1" k3="1" />
      <feColorMatrix type="matrix" values="0 0 0 0 0.85098 0 0 0 0 0.290196 0 0 0 0 0.270588 0 0 0 1 0" />
      <feBlend mode="normal" in2="shape" result="effect2_innerShadow_730_13983" />
    </filter>
    <filter id="filter7_di_730_13983" x="134" y="63.8958" width="71.6367" height="50.6042" filterUnits="userSpaceOnUse"
      color-interpolation-filters="sRGB">
      <feFlood flood-opacity="0" result="BackgroundImageFix" />
      <feColorMatrix in="SourceAlpha" type="matrix" values="0 0 0 0 0 0 0 0 0 0 0 0 0 0 0 0 0 0 127 0"
        result="hardAlpha" />
      <feOffset dy="2" />
      <feComposite in2="hardAlpha" operator="out" />
      <feColorMatrix type="matrix" values="0 0 0 0 0.710059 0 0 0 0 0.710059 0 0 0 0 0.710059 0 0 0 0.61 0" />
      <feBlend mode="normal" in2="BackgroundImageFix" result="effect1_dropShadow_730_13983" />
      <feBlend mode="normal" in="SourceGraphic" in2="effect1_dropShadow_730_13983" result="shape" />
      <feColorMatrix in="SourceAlpha" type="matrix" values="0 0 0 0 0 0 0 0 0 0 0 0 0 0 0 0 0 0 127 0"
        result="hardAlpha" />
      <feOffset dy="-2" />
      <feComposite in2="hardAlpha" operator="arithmetic" k2="-1" k3="1" />
      <feColorMatrix type="matrix" values="0 0 0 0 0.85098 0 0 0 0 0.290196 0 0 0 0 0.270588 0 0 0 1 0" />
      <feBlend mode="normal" in2="shape" result="effect2_innerShadow_730_13983" />
    </filter>
    <radialGradient id="paint0_radial_730_13983" cx="0" cy="0" r="1" gradientUnits="userSpaceOnUse"
      gradientTransform="translate(228.118 49.5294) rotate(-144.782) scale(12.2404)">
      <stop stop-color="#9798F6" />
      <stop offset="0.936282" stop-color="white" />
    </radialGradient>
    <radialGradient id="paint1_radial_730_13983" cx="0" cy="0" r="1" gradientUnits="userSpaceOnUse"
      gradientTransform="translate(255.471 25.1176) rotate(-144.782) scale(7.34423)">
      <stop stop-color="#9798F6" />
      <stop offset="0.936282" stop-color="white" />
    </radialGradient>
    <radialGradient id="paint2_radial_730_13983" cx="0" cy="0" r="1" gradientUnits="userSpaceOnUse"
      gradientTransform="translate(40.2353 120.059) rotate(-144.782) scale(24.4808)">
      <stop stop-color="#9798F6" />
      <stop offset="0.936282" stop-color="white" />
    </radialGradient>
    <radialGradient id="paint3_radial_730_13983" cx="0" cy="0" r="1" gradientUnits="userSpaceOnUse"
      gradientTransform="translate(67.8529 24.0882) rotate(-144.782) scale(15.9125)">
      <stop stop-color="#9798F6" />
      <stop offset="0.936282" stop-color="white" />
    </radialGradient>
    <radialGradient id="paint4_radial_730_13983" cx="0" cy="0" r="1" gradientUnits="userSpaceOnUse"
      gradientTransform="translate(25.3824 11.9706) rotate(-144.782) scale(8.56827)">
      <stop stop-color="#9798F6" />
      <stop offset="0.936282" stop-color="white" />
    </radialGradient>
    <linearGradient id="paint5_linear_730_13983" x1="69.5" y1="35" x2="191.5" y2="143.5" gradientUnits="userSpaceOnUse">
      <stop stop-color="#8182ED" />
      <stop offset="0.0001" stop-color="#7B7CD9" />
      <stop offset="1" stop-color="#5556C0" />
    </linearGradient>
    <linearGradient id="paint6_linear_730_13983" x1="136" y1="120" x2="136" y2="132" gradientUnits="userSpaceOnUse">
      <stop stop-color="white" />
      <stop offset="1" stop-color="#0002B8" />
    </linearGradient>
    <radialGradient id="paint7_radial_730_13983" cx="0" cy="0" r="1" gradientUnits="userSpaceOnUse"
      gradientTransform="translate(87.5 100.5) rotate(-135) scale(2.12132)">
      <stop stop-color="#9F62DD" />
      <stop offset="1" stop-color="#DAB5FF" />
    </radialGradient>
    <radialGradient id="paint8_radial_730_13983" cx="0" cy="0" r="1" gradientUnits="userSpaceOnUse"
      gradientTransform="translate(91.5 99.5) rotate(-135) scale(2.12132)">
      <stop stop-color="#9F62DD" />
      <stop offset="1" stop-color="#DAB5FF" />
    </radialGradient>
    <radialGradient id="paint9_radial_730_13983" cx="0" cy="0" r="1" gradientUnits="userSpaceOnUse"
      gradientTransform="translate(96.5 96.5) rotate(-135) scale(2.12132)">
      <stop stop-color="#9F62DD" />
      <stop offset="1" stop-color="#DAB5FF" />
    </radialGradient>
    <radialGradient id="paint10_radial_730_13983" cx="0" cy="0" r="1" gradientUnits="userSpaceOnUse"
      gradientTransform="translate(104.5 95.5) rotate(-135) scale(2.12132)">
      <stop stop-color="#9F62DD" />
      <stop offset="1" stop-color="#DAB5FF" />
    </radialGradient>
    <radialGradient id="paint11_radial_730_13983" cx="0" cy="0" r="1" gradientUnits="userSpaceOnUse"
      gradientTransform="translate(111.5 93.5) rotate(-135) scale(2.12132)">
      <stop stop-color="#9F62DD" />
      <stop offset="1" stop-color="#DAB5FF" />
    </radialGradient>
    <radialGradient id="paint12_radial_730_13983" cx="0" cy="0" r="1" gradientUnits="userSpaceOnUse"
      gradientTransform="translate(120.5 92.5) rotate(-135) scale(2.12132)">
      <stop stop-color="#9F62DD" />
      <stop offset="1" stop-color="#DAB5FF" />
    </radialGradient>
    <radialGradient id="paint13_radial_730_13983" cx="0" cy="0" r="1" gradientUnits="userSpaceOnUse"
      gradientTransform="translate(129.5 87.5) rotate(-135) scale(2.12132)">
      <stop stop-color="#9F62DD" />
      <stop offset="1" stop-color="#DAB5FF" />
    </radialGradient>
    <radialGradient id="paint14_radial_730_13983" cx="0" cy="0" r="1" gradientUnits="userSpaceOnUse"
      gradientTransform="translate(209.088 132.147) rotate(-144.782) scale(40.3933)">
      <stop stop-color="#9798F6" />
      <stop offset="0.936282" stop-color="white" />
    </radialGradient>
    <linearGradient id="paint15_linear_730_13983" x1="178" y1="84.5" x2="156" y2="68.5" gradientUnits="userSpaceOnUse">
      <stop stop-color="#CECDFE" />
      <stop offset="1" stop-color="#D3D1FF" />
    </linearGradient>
    <linearGradient id="paint16_linear_730_13983" x1="177.5" y1="85" x2="162.5" y2="72.5"
      gradientUnits="userSpaceOnUse">
      <stop stop-color="#7674F9" />
      <stop offset="1" stop-color="#9795FF" />
    </linearGradient>
    <linearGradient id="paint17_linear_730_13983" x1="17" y1="-11.5" x2="259" y2="196.5" gradientUnits="userSpaceOnUse">
      <stop stop-color="#C2BCFF" />
      <stop offset="1" stop-color="#C2B7FF" />
    </linearGradient>
    <clipPath id="clip0_730_13983">
      <rect width="272" height="173" rx="16" fill="white" />
    </clipPath>
  </defs>
</svg>