<svg width="272" height="173" viewBox="0 0 272 173" fill="none" xmlns="http://www.w3.org/2000/svg">
  <g clip-path="url(#clip0_816_3405)">
    <rect width="272" height="173" rx="16" fill="#C5C0FF" />
    <g filter="url(#filter0_f_816_3405)">
      <ellipse cx="134.5" cy="87" rx="75.5" ry="57" fill="white" />
    </g>
    <g filter="url(#filter1_f_816_3405)">
      <circle cx="224" cy="46" r="5" fill="#D9D9D9" />
      <circle cx="224" cy="46" r="5" fill="url(#paint0_radial_816_3405)" />
    </g>
    <g filter="url(#filter2_f_816_3405)">
      <circle cx="253" cy="23" r="3" fill="#D9D9D9" />
      <circle cx="253" cy="23" r="3" fill="url(#paint1_radial_816_3405)" />
    </g>
    <circle cx="32" cy="113" r="10" fill="url(#paint2_radial_816_3405)" />
    <g filter="url(#filter3_f_816_3405)">
      <circle cx="62.5" cy="19.5" r="6.5" fill="url(#paint3_radial_816_3405)" />
    </g>
    <g filter="url(#filter4_f_816_3405)">
      <circle cx="22.5" cy="9.5" r="3.5" fill="url(#paint4_radial_816_3405)" />
    </g>
    <circle cx="173.5" cy="50.5" r="8.5" fill="#D9D9D9" />
    <circle cx="173.5" cy="50.5" r="8.5" fill="url(#paint5_radial_816_3405)" />
    <circle cx="89.5" cy="100.5" r="12.5" fill="#D9D9D9" />
    <circle cx="89.5" cy="100.5" r="12.5" fill="url(#paint6_radial_816_3405)" />
    <circle cx="181.5" cy="90.5" r="12.5" fill="#D9D9D9" />
    <circle cx="181.5" cy="90.5" r="12.5" fill="url(#paint7_radial_816_3405)" />
    <g filter="url(#filter5_f_816_3405)">
      <ellipse cx="136.5" cy="134" rx="34.5" ry="4" fill="#B4B4FF" />
    </g>
    <g filter="url(#filter6_b_816_3405)">
      <rect x="72" y="40" width="128" height="80" rx="8" fill="#EA744B" fill-opacity="0.03" />
      <rect x="74" y="42" width="124" height="76" rx="6" stroke="url(#paint8_linear_816_3405)" stroke-width="4" />
    </g>
    <rect x="126" y="120" width="20" height="12" fill="white" />
    <rect x="126" y="120" width="20" height="12" fill="url(#paint9_linear_816_3405)" fill-opacity="0.1" />
    <rect x="112" y="132" width="48" height="2" rx="1" fill="white" />
    <rect x="84.5" y="52.5" width="49" height="55" rx="1.5" fill="#0D0E3B" fill-opacity="0.78" stroke="#232457" />
    <rect x="137.5" y="52.5" width="50" height="55" rx="1.5" fill="#D9E3FF" stroke="#E6EDFF" />
    <circle cx="195.5" cy="120.5" r="16.5" fill="#D9D9D9" />
    <circle cx="195.5" cy="120.5" r="16.5" fill="url(#paint10_radial_816_3405)" />
    <circle cx="87.5" cy="55.5" r="0.5" fill="#F6A2A2" />
    <circle cx="89.5" cy="55.5" r="0.5" fill="#F6A2A2" />
    <circle cx="91.5" cy="55.5" r="0.5" fill="#F6A2A2" />
    <rect x="87" y="59" width="1" height="1" rx="0.5" fill="#8283AD" />
    <rect x="90" y="59" width="6" height="1" fill="#8283AD" />
    <rect x="90" y="83" width="6" height="1" fill="#8283AD" />
    <rect x="90" y="62" width="9" height="1" fill="#8283AD" />
    <rect x="90" y="86" width="9" height="1" fill="#8283AD" />
    <rect x="90" y="65" width="3" height="1" fill="#8283AD" />
    <rect x="90" y="89" width="3" height="1" fill="#8283AD" />
    <rect x="90" y="68" width="6" height="1" fill="#8283AD" />
    <rect x="90" y="92" width="6" height="1" fill="#8283AD" />
    <rect x="90" y="71" width="9" height="1" fill="#F6A2A2" />
    <rect x="90" y="95" width="9" height="1" fill="#8283AD" />
    <rect x="90" y="74" width="5" height="1" fill="#8283AD" />
    <rect x="90" y="98" width="5" height="1" fill="#8283AD" />
    <rect x="90" y="77" width="6" height="1" fill="#8283AD" />
    <rect x="90" y="101" width="6" height="1" fill="#8283AD" />
    <rect x="90" y="80" width="13" height="1" fill="#F6A2A2" />
    <rect x="90" y="104" width="13" height="1" fill="#F6A2A2" />
    <rect x="97" y="59" width="12" height="1" fill="#6F70D2" />
    <rect x="97" y="83" width="12" height="1" fill="#8283AD" />
    <rect x="100" y="62" width="14" height="1" fill="#8283AD" />
    <rect x="100" y="86" width="14" height="1" fill="#6F70D2" />
    <rect x="94" y="65" width="8" height="1" fill="#F6A2A2" />
    <rect x="94" y="89" width="8" height="1" fill="#F6A2A2" />
    <rect x="97" y="68" width="12" height="1" fill="#8283AD" />
    <rect x="97" y="92" width="12" height="1" fill="#8283AD" />
    <rect x="101" y="71" width="8" height="1" fill="#8283AD" />
    <rect x="101" y="95" width="8" height="1" fill="#6F70D2" />
    <rect x="96" y="74" width="13" height="1" fill="#F6A2A2" />
    <rect x="96" y="98" width="13" height="1" fill="#8283AD" />
    <rect x="97" y="77" width="15" height="1" fill="#8283AD" />
    <rect x="97" y="101" width="15" height="1" fill="#F6A2A2" />
    <rect x="104" y="80" width="5" height="1" fill="#8283AD" />
    <rect x="104" y="104" width="5" height="1" fill="#8283AD" />
    <rect x="110" y="59" width="12" height="1" fill="#8283AD" />
    <rect x="110" y="83" width="12" height="1" fill="#F6A2A2" />
    <rect x="115" y="62" width="12" height="1" fill="#F6A2A2" />
    <rect x="115" y="86" width="12" height="1" fill="#8283AD" />
    <rect x="103" y="65" width="12" height="1" fill="#8283AD" />
    <rect x="103" y="89" width="12" height="1" fill="#8283AD" />
    <rect x="116" y="65" width="10" height="1" fill="#8283AD" />
    <rect x="116" y="89" width="10" height="1" fill="#8283AD" />
    <rect x="110" y="68" width="15" height="1" fill="#6F70D2" />
    <rect x="110" y="92" width="15" height="1" fill="#F6A2A2" />
    <rect x="110" y="71" width="13" height="1" fill="#8283AD" />
    <rect x="110" y="95" width="13" height="1" fill="#8283AD" />
    <rect x="110" y="74" width="17" height="1" fill="#8283AD" />
    <rect x="110" y="98" width="17" height="1" fill="#6F70D2" />
    <rect x="114" y="77" width="10" height="1" fill="#6F70D2" />
    <rect x="114" y="101" width="10" height="1" fill="#8283AD" />
    <rect x="110" y="80" width="15" height="1" fill="#8283AD" />
    <rect x="110" y="104" width="15" height="1" fill="#8283AD" />
    <rect x="87" y="62" width="1" height="1" rx="0.5" fill="#8283AD" />
    <rect x="87" y="65" width="1" height="1" rx="0.5" fill="#8283AD" />
    <rect x="87" y="68" width="1" height="1" rx="0.5" fill="#8283AD" />
    <rect x="87" y="71" width="1" height="1" rx="0.5" fill="#8283AD" />
    <rect x="87" y="74" width="1" height="1" rx="0.5" fill="#8283AD" />
    <rect x="87" y="77" width="1" height="1" rx="0.5" fill="#8283AD" />
    <rect x="87" y="80" width="1" height="1" rx="0.5" fill="#8283AD" />
    <rect x="87" y="83" width="1" height="1" rx="0.5" fill="#8283AD" />
    <rect x="87" y="86" width="1" height="1" rx="0.5" fill="#8283AD" />
    <rect x="87" y="89" width="1" height="1" rx="0.5" fill="#8283AD" />
    <rect x="87" y="92" width="1" height="1" rx="0.5" fill="#8283AD" />
    <rect x="87" y="95" width="1" height="1" rx="0.5" fill="#8283AD" />
    <rect x="87" y="98" width="1" height="1" rx="0.5" fill="#8283AD" />
    <rect x="87" y="101" width="1" height="1" rx="0.5" fill="#8283AD" />
    <rect x="87" y="104" width="1" height="1" rx="0.5" fill="#8283AD" />
    <rect x="141" y="55" width="43" height="8" rx="1" fill="white" />
    <rect x="141" y="64" width="43" height="6" rx="1" fill="white" />
    <rect x="141" y="71" width="43" height="16" rx="1" fill="white" />
    <rect x="141" y="99" width="43" height="6" rx="1" fill="white" />
    <rect x="141" y="88" width="43" height="10" rx="1" fill="white" />
    <path
      d="M145 75C145 74.0572 145 73.5858 145.293 73.2929C145.586 73 146.057 73 147 73C147.943 73 148.414 73 148.707 73.2929C149 73.5858 149 74.0572 149 75V86H145V75Z"
      fill="url(#paint11_linear_816_3405)" />
    <path
      d="M151 79.3334C151 78.3906 151 77.9192 151.293 77.6263C151.586 77.3334 152.057 77.3334 153 77.3334C153.943 77.3334 154.414 77.3334 154.707 77.6263C155 77.9192 155 78.3906 155 79.3334V86.0001H151V79.3334Z"
      fill="url(#paint12_linear_816_3405)" />
    <path
      d="M157 77.1666C157 76.2238 157 75.7524 157.293 75.4595C157.586 75.1666 158.057 75.1666 159 75.1666C159.943 75.1666 160.414 75.1666 160.707 75.4595C161 75.7524 161 76.2238 161 77.1666V85.9999H157V77.1666Z"
      fill="url(#paint13_linear_816_3405)" />
    <path
      d="M169 79.3334C169 78.3906 169 77.9192 169.293 77.6263C169.586 77.3334 170.057 77.3334 171 77.3334C171.943 77.3334 172.414 77.3334 172.707 77.6263C173 77.9192 173 78.3906 173 79.3334V86.0001H169V79.3334Z"
      fill="url(#paint14_linear_816_3405)" />
    <path
      d="M163 82.2222C163 81.2794 163 80.808 163.293 80.5151C163.586 80.2222 164.057 80.2222 165 80.2222C165.943 80.2222 166.414 80.2222 166.707 80.5151C167 80.808 167 81.2794 167 82.2222V86H163V82.2222Z"
      fill="url(#paint15_linear_816_3405)" />
    <path
      d="M175 80.7778C175 79.835 175 79.3636 175.293 79.0707C175.586 78.7778 176.057 78.7778 177 78.7778C177.943 78.7778 178.414 78.7778 178.707 79.0707C179 79.3636 179 79.835 179 80.7778V86H175V80.7778Z"
      fill="url(#paint16_linear_816_3405)" />
    <g filter="url(#filter7_f_816_3405)">
      <rect x="145.5" y="73.3612" width="3" height="0.541667" fill="#F8AF90" />
    </g>
    <g filter="url(#filter8_f_816_3405)">
      <rect x="151.5" y="77.6944" width="3" height="0.541667" fill="#F8AF90" />
    </g>
    <g filter="url(#filter9_f_816_3405)">
      <rect x="157.5" y="75.5278" width="3" height="0.541667" fill="#F8AF90" />
    </g>
    <g filter="url(#filter10_f_816_3405)">
      <rect x="163.5" y="80.5834" width="3" height="0.541667" fill="#F8AF90" />
    </g>
    <g filter="url(#filter11_f_816_3405)">
      <rect x="169.5" y="77.6944" width="3" height="0.541667" fill="#F8AF90" />
    </g>
    <g filter="url(#filter12_f_816_3405)">
      <rect x="175.5" y="79.1388" width="3" height="0.541667" fill="#F8AF90" />
    </g>
    <g filter="url(#filter13_b_816_3405)">
      <rect x="56" y="46" width="27.8905" height="18.9452" rx="4.02955" fill="#EA744B" fill-opacity="0.04" />
      <rect x="56.6945" y="46.6945" width="26.5014" height="17.5562" rx="3.33501" stroke="#DEDFFF"
        stroke-width="1.38908" />
      <path
        d="M66.8849 59.0558L62.2954 56.4444V55.5887L66.8849 52.9772V54.0774L63.39 56.0165L66.8849 57.9557V59.0558ZM68.9238 60.7727L71.6297 51.8048H72.4799L69.8017 60.7727H68.9238ZM72.9197 59.0558V57.9557L76.4091 56.0165L72.9197 54.0774V52.9772L77.5092 55.5887V56.4444L72.9197 59.0558Z"
        fill="#5E61B8" />
    </g>
  </g>
  <rect x="1" y="1" width="270" height="171" rx="15" stroke="url(#paint17_linear_816_3405)" stroke-width="2" />
  <defs>
    <filter id="filter0_f_816_3405" x="-55.1" y="-84.1" width="379.2" height="342.2" filterUnits="userSpaceOnUse"
      color-interpolation-filters="sRGB">
      <feFlood flood-opacity="0" result="BackgroundImageFix" />
      <feBlend mode="normal" in="SourceGraphic" in2="BackgroundImageFix" result="shape" />
      <feGaussianBlur stdDeviation="57.05" result="effect1_foregroundBlur_816_3405" />
    </filter>
    <filter id="filter1_f_816_3405" x="217" y="39" width="14" height="14" filterUnits="userSpaceOnUse"
      color-interpolation-filters="sRGB">
      <feFlood flood-opacity="0" result="BackgroundImageFix" />
      <feBlend mode="normal" in="SourceGraphic" in2="BackgroundImageFix" result="shape" />
      <feGaussianBlur stdDeviation="1" result="effect1_foregroundBlur_816_3405" />
    </filter>
    <filter id="filter2_f_816_3405" x="248" y="18" width="10" height="10" filterUnits="userSpaceOnUse"
      color-interpolation-filters="sRGB">
      <feFlood flood-opacity="0" result="BackgroundImageFix" />
      <feBlend mode="normal" in="SourceGraphic" in2="BackgroundImageFix" result="shape" />
      <feGaussianBlur stdDeviation="1" result="effect1_foregroundBlur_816_3405" />
    </filter>
    <filter id="filter3_f_816_3405" x="54" y="11" width="17" height="17" filterUnits="userSpaceOnUse"
      color-interpolation-filters="sRGB">
      <feFlood flood-opacity="0" result="BackgroundImageFix" />
      <feBlend mode="normal" in="SourceGraphic" in2="BackgroundImageFix" result="shape" />
      <feGaussianBlur stdDeviation="1" result="effect1_foregroundBlur_816_3405" />
    </filter>
    <filter id="filter4_f_816_3405" x="17" y="4" width="11" height="11" filterUnits="userSpaceOnUse"
      color-interpolation-filters="sRGB">
      <feFlood flood-opacity="0" result="BackgroundImageFix" />
      <feBlend mode="normal" in="SourceGraphic" in2="BackgroundImageFix" result="shape" />
      <feGaussianBlur stdDeviation="1" result="effect1_foregroundBlur_816_3405" />
    </filter>
    <filter id="filter5_f_816_3405" x="91.2" y="119.2" width="90.6" height="29.6" filterUnits="userSpaceOnUse"
      color-interpolation-filters="sRGB">
      <feFlood flood-opacity="0" result="BackgroundImageFix" />
      <feBlend mode="normal" in="SourceGraphic" in2="BackgroundImageFix" result="shape" />
      <feGaussianBlur stdDeviation="5.4" result="effect1_foregroundBlur_816_3405" />
    </filter>
    <filter id="filter6_b_816_3405" x="65.7" y="33.7" width="140.6" height="92.6" filterUnits="userSpaceOnUse"
      color-interpolation-filters="sRGB">
      <feFlood flood-opacity="0" result="BackgroundImageFix" />
      <feGaussianBlur in="BackgroundImageFix" stdDeviation="3.15" />
      <feComposite in2="SourceAlpha" operator="in" result="effect1_backgroundBlur_816_3405" />
      <feBlend mode="normal" in="SourceGraphic" in2="effect1_backgroundBlur_816_3405" result="shape" />
    </filter>
    <filter id="filter7_f_816_3405" x="144.6" y="72.4612" width="4.8" height="2.34166" filterUnits="userSpaceOnUse"
      color-interpolation-filters="sRGB">
      <feFlood flood-opacity="0" result="BackgroundImageFix" />
      <feBlend mode="normal" in="SourceGraphic" in2="BackgroundImageFix" result="shape" />
      <feGaussianBlur stdDeviation="0.45" result="effect1_foregroundBlur_816_3405" />
    </filter>
    <filter id="filter8_f_816_3405" x="150.6" y="76.7944" width="4.8" height="2.34166" filterUnits="userSpaceOnUse"
      color-interpolation-filters="sRGB">
      <feFlood flood-opacity="0" result="BackgroundImageFix" />
      <feBlend mode="normal" in="SourceGraphic" in2="BackgroundImageFix" result="shape" />
      <feGaussianBlur stdDeviation="0.45" result="effect1_foregroundBlur_816_3405" />
    </filter>
    <filter id="filter9_f_816_3405" x="156.6" y="74.6278" width="4.8" height="2.34166" filterUnits="userSpaceOnUse"
      color-interpolation-filters="sRGB">
      <feFlood flood-opacity="0" result="BackgroundImageFix" />
      <feBlend mode="normal" in="SourceGraphic" in2="BackgroundImageFix" result="shape" />
      <feGaussianBlur stdDeviation="0.45" result="effect1_foregroundBlur_816_3405" />
    </filter>
    <filter id="filter10_f_816_3405" x="162.6" y="79.6834" width="4.8" height="2.34166" filterUnits="userSpaceOnUse"
      color-interpolation-filters="sRGB">
      <feFlood flood-opacity="0" result="BackgroundImageFix" />
      <feBlend mode="normal" in="SourceGraphic" in2="BackgroundImageFix" result="shape" />
      <feGaussianBlur stdDeviation="0.45" result="effect1_foregroundBlur_816_3405" />
    </filter>
    <filter id="filter11_f_816_3405" x="168.6" y="76.7944" width="4.8" height="2.34166" filterUnits="userSpaceOnUse"
      color-interpolation-filters="sRGB">
      <feFlood flood-opacity="0" result="BackgroundImageFix" />
      <feBlend mode="normal" in="SourceGraphic" in2="BackgroundImageFix" result="shape" />
      <feGaussianBlur stdDeviation="0.45" result="effect1_foregroundBlur_816_3405" />
    </filter>
    <filter id="filter12_f_816_3405" x="174.6" y="78.2388" width="4.8" height="2.34166" filterUnits="userSpaceOnUse"
      color-interpolation-filters="sRGB">
      <feFlood flood-opacity="0" result="BackgroundImageFix" />
      <feBlend mode="normal" in="SourceGraphic" in2="BackgroundImageFix" result="shape" />
      <feGaussianBlur stdDeviation="0.45" result="effect1_foregroundBlur_816_3405" />
    </filter>
    <filter id="filter13_b_816_3405" x="42.5658" y="32.5658" width="54.7589" height="45.8137"
      filterUnits="userSpaceOnUse" color-interpolation-filters="sRGB">
      <feFlood flood-opacity="0" result="BackgroundImageFix" />
      <feGaussianBlur in="BackgroundImageFix" stdDeviation="6.71712" />
      <feComposite in2="SourceAlpha" operator="in" result="effect1_backgroundBlur_816_3405" />
      <feBlend mode="normal" in="SourceGraphic" in2="effect1_backgroundBlur_816_3405" result="shape" />
    </filter>
    <radialGradient id="paint0_radial_816_3405" cx="0" cy="0" r="1" gradientUnits="userSpaceOnUse"
      gradientTransform="translate(228.118 49.5294) rotate(-144.782) scale(12.2404)">
      <stop stop-color="#9798F6" />
      <stop offset="0.936282" stop-color="white" />
    </radialGradient>
    <radialGradient id="paint1_radial_816_3405" cx="0" cy="0" r="1" gradientUnits="userSpaceOnUse"
      gradientTransform="translate(255.471 25.1176) rotate(-144.782) scale(7.34423)">
      <stop stop-color="#9798F6" />
      <stop offset="0.936282" stop-color="white" />
    </radialGradient>
    <radialGradient id="paint2_radial_816_3405" cx="0" cy="0" r="1" gradientUnits="userSpaceOnUse"
      gradientTransform="translate(40.2353 120.059) rotate(-144.782) scale(24.4808)">
      <stop stop-color="#9798F6" />
      <stop offset="0.936282" stop-color="white" />
    </radialGradient>
    <radialGradient id="paint3_radial_816_3405" cx="0" cy="0" r="1" gradientUnits="userSpaceOnUse"
      gradientTransform="translate(67.8529 24.0882) rotate(-144.782) scale(15.9125)">
      <stop stop-color="#9798F6" />
      <stop offset="0.936282" stop-color="white" />
    </radialGradient>
    <radialGradient id="paint4_radial_816_3405" cx="0" cy="0" r="1" gradientUnits="userSpaceOnUse"
      gradientTransform="translate(25.3824 11.9706) rotate(-144.782) scale(8.56827)">
      <stop stop-color="#9798F6" />
      <stop offset="0.936282" stop-color="white" />
    </radialGradient>
    <radialGradient id="paint5_radial_816_3405" cx="0" cy="0" r="1" gradientUnits="userSpaceOnUse"
      gradientTransform="translate(180.5 56.5) rotate(-144.782) scale(20.8087)">
      <stop stop-color="#9798F6" />
      <stop offset="0.936282" stop-color="white" />
    </radialGradient>
    <radialGradient id="paint6_radial_816_3405" cx="0" cy="0" r="1" gradientUnits="userSpaceOnUse"
      gradientTransform="translate(99.7941 109.324) rotate(-144.782) scale(30.601)">
      <stop stop-color="#9798F6" />
      <stop offset="0.936282" stop-color="white" />
    </radialGradient>
    <radialGradient id="paint7_radial_816_3405" cx="0" cy="0" r="1" gradientUnits="userSpaceOnUse"
      gradientTransform="translate(191.794 99.3235) rotate(-144.782) scale(30.601)">
      <stop stop-color="#9798F6" />
      <stop offset="0.936282" stop-color="white" />
    </radialGradient>
    <linearGradient id="paint8_linear_816_3405" x1="69.5" y1="35" x2="191.5" y2="143.5" gradientUnits="userSpaceOnUse">
      <stop stop-color="#8182ED" />
      <stop offset="0.0001" stop-color="#7B7CD9" />
      <stop offset="1" stop-color="#5556C0" />
    </linearGradient>
    <linearGradient id="paint9_linear_816_3405" x1="136" y1="120" x2="136" y2="132" gradientUnits="userSpaceOnUse">
      <stop stop-color="white" />
      <stop offset="1" stop-color="#0002B8" />
    </linearGradient>
    <radialGradient id="paint10_radial_816_3405" cx="0" cy="0" r="1" gradientUnits="userSpaceOnUse"
      gradientTransform="translate(209.088 132.147) rotate(-144.782) scale(40.3933)">
      <stop stop-color="#9798F6" />
      <stop offset="0.936282" stop-color="white" />
    </radialGradient>
    <linearGradient id="paint11_linear_816_3405" x1="147" y1="73" x2="147" y2="86" gradientUnits="userSpaceOnUse">
      <stop stop-color="#E07344" />
      <stop offset="1" stop-color="#EC734D" />
    </linearGradient>
    <linearGradient id="paint12_linear_816_3405" x1="153" y1="77.3334" x2="153" y2="86.0001"
      gradientUnits="userSpaceOnUse">
      <stop stop-color="#E07344" />
      <stop offset="1" stop-color="#EC734D" />
    </linearGradient>
    <linearGradient id="paint13_linear_816_3405" x1="159" y1="75.1666" x2="159" y2="85.9999"
      gradientUnits="userSpaceOnUse">
      <stop stop-color="#E07344" />
      <stop offset="1" stop-color="#EC734D" />
    </linearGradient>
    <linearGradient id="paint14_linear_816_3405" x1="171" y1="77.3334" x2="171" y2="86.0001"
      gradientUnits="userSpaceOnUse">
      <stop stop-color="#E07344" />
      <stop offset="1" stop-color="#EC734D" />
    </linearGradient>
    <linearGradient id="paint15_linear_816_3405" x1="165" y1="80.2222" x2="165" y2="86" gradientUnits="userSpaceOnUse">
      <stop stop-color="#E07344" />
      <stop offset="1" stop-color="#EC734D" />
    </linearGradient>
    <linearGradient id="paint16_linear_816_3405" x1="177" y1="78.7778" x2="177" y2="86" gradientUnits="userSpaceOnUse">
      <stop stop-color="#E07344" />
      <stop offset="1" stop-color="#EC734D" />
    </linearGradient>
    <linearGradient id="paint17_linear_816_3405" x1="17" y1="-11.5" x2="259" y2="196.5" gradientUnits="userSpaceOnUse">
      <stop stop-color="#C2BCFF" />
      <stop offset="1" stop-color="#C2B7FF" />
    </linearGradient>
    <clipPath id="clip0_816_3405">
      <rect width="272" height="173" rx="16" fill="white" />
    </clipPath>
  </defs>
</svg>
