<svg width="24" height="24" viewBox="0 0 24 24" fill="none" xmlns="http://www.w3.org/2000/svg">
<path d="M22.7261 3.22168C21.819 2.89396 20.969 2.42578 20.2072 1.83426C19.7305 1.4634 19.2915 1.04654 18.8964 0.589708C18.7363 0.404425 18.538 0.25584 18.3153 0.154076C18.0925 0.0523116 17.8505 -0.00024021 17.6056 8.25408e-07H7.25197C7.00691 -0.000178993 6.76469 0.0523945 6.54175 0.154149C6.31882 0.255903 6.1204 0.404454 5.95998 0.589708C5.56505 1.04668 5.12597 1.46355 4.64914 1.83426C3.88762 2.42585 3.03783 2.89404 2.13089 3.22168C1.80032 3.34236 1.51469 3.56148 1.3125 3.8495C1.1103 4.13753 1.00125 4.48061 1.00004 4.83251V10.5873C0.994664 12.5175 1.48072 14.4174 2.41244 16.1078C3.34415 17.7983 4.69085 19.2238 6.32569 20.25L12.1233 23.9117C12.2147 23.9694 12.3205 24 12.4285 24C12.5365 24 12.6423 23.9694 12.7336 23.9117L18.5313 20.25C20.1661 19.2238 21.5128 17.7983 22.4445 16.1078C23.3762 14.4174 23.8623 12.5175 23.8569 10.5873V4.83251C23.8557 4.48061 23.7467 4.13753 23.5445 3.8495C23.3423 3.56148 23.0566 3.34236 22.7261 3.22168ZM22.7141 10.5873C22.719 12.3246 22.2815 14.0345 21.4428 15.556C20.6041 17.0774 19.3919 18.3603 17.9204 19.2838L12.4285 22.7523L6.93597 19.2838C5.46462 18.3602 4.25259 17.0772 3.41404 15.5558C2.5755 14.0344 2.13805 12.3245 2.14289 10.5873V4.83251C2.14247 4.71488 2.17866 4.60004 2.24644 4.50389C2.31422 4.40775 2.41024 4.33508 2.52117 4.29595C3.54005 3.92737 4.49486 3.40137 5.35085 2.73711C5.88659 2.31987 6.38018 1.85116 6.82454 1.3377C6.87758 1.27638 6.94321 1.22723 7.01698 1.1936C7.09075 1.15997 7.1709 1.14266 7.25197 1.14284H17.6056C17.6865 1.14267 17.7665 1.15994 17.8402 1.19346C17.9138 1.22699 17.9794 1.27599 18.0324 1.33713C18.4764 1.85133 18.9702 2.32028 19.5067 2.73711C20.3626 3.40123 21.3172 3.92721 22.3358 4.29595C22.4467 4.33508 22.5427 4.40775 22.6105 4.50389C22.6783 4.60004 22.7145 4.71488 22.7141 4.83251V10.5873Z" fill="#59B077"/>
<path d="M15.8576 8.0571V6.85712C15.8576 5.94782 15.4964 5.07576 14.8534 4.43278C14.2104 3.78981 13.3384 3.42859 12.4291 3.42859C11.5198 3.42859 10.6477 3.78981 10.0047 4.43278C9.36175 5.07576 9.00053 5.94782 9.00053 6.85712V8.0571C8.35563 8.18973 7.77617 8.54063 7.35982 9.05066C6.94346 9.5607 6.71567 10.1987 6.71484 10.8571V14.2856C6.71575 15.0431 7.01706 15.7693 7.55267 16.3049C8.08829 16.8405 8.81448 17.1418 9.57195 17.1427H15.2862C16.0436 17.1418 16.7698 16.8405 17.3054 16.3049C17.8411 15.7693 18.1424 15.0431 18.1433 14.2856V10.8571C18.1424 10.1987 17.9147 9.5607 17.4983 9.05066C17.0819 8.54063 16.5025 8.18973 15.8576 8.0571ZM10.1434 6.85712C10.1434 6.25092 10.3842 5.66954 10.8128 5.24089C11.2415 4.81224 11.8229 4.57143 12.4291 4.57143C13.0353 4.57143 13.6166 4.81224 14.0453 5.24089C14.4739 5.66954 14.7147 6.25092 14.7147 6.85712V7.99996H10.1434V6.85712ZM17.0004 14.2856C17.0004 14.7402 16.8198 15.1763 16.4983 15.4978C16.1768 15.8193 15.7408 15.9999 15.2862 15.9999H9.57195C9.1173 15.9999 8.68127 15.8193 8.35978 15.4978C8.0383 15.1763 7.85769 14.7402 7.85769 14.2856V10.8571C7.85769 10.4024 8.0383 9.96639 8.35978 9.6449C8.68127 9.32341 9.1173 9.1428 9.57195 9.1428H15.2862C15.7408 9.1428 16.1768 9.32341 16.4983 9.6449C16.8198 9.96639 17.0004 10.4024 17.0004 10.8571V14.2856Z" fill="#59B077"/>
<path d="M12.4284 10.2857C12.1771 10.2848 11.9325 10.3671 11.7327 10.5197C11.533 10.6723 11.3894 10.8867 11.3242 11.1295C11.259 11.3722 11.2759 11.6298 11.3722 11.8619C11.4686 12.0941 11.639 12.2878 11.857 12.4131V13.1428C11.857 13.2943 11.9172 13.4397 12.0244 13.5468C12.1315 13.654 12.2769 13.7142 12.4284 13.7142C12.58 13.7142 12.7253 13.654 12.8325 13.5468C12.9396 13.4397 12.9998 13.2943 12.9998 13.1428V12.4131C13.2178 12.2878 13.3882 12.0941 13.4846 11.8619C13.581 11.6298 13.5979 11.3722 13.5327 11.1295C13.4675 10.8867 13.3238 10.6723 13.1241 10.5197C12.9244 10.3671 12.6798 10.2848 12.4284 10.2857Z" fill="#59B077"/>
</svg>
