<svg width="24" height="24" viewBox="0 0 24 24" fill="none" xmlns="http://www.w3.org/2000/svg">
<g clip-path="url(#clip0_1755_3954)">
<path d="M12.0045 19.3275C10.1902 19.3287 8.44021 18.6558 7.09419 17.4393C5.74817 16.2229 4.90217 14.5497 4.72041 12.7445C4.53866 10.9394 5.03413 9.13109 6.11062 7.6707C7.18712 6.21032 8.76785 5.20202 10.546 4.84155C12.3241 4.48108 14.1727 4.79416 15.7329 5.72C17.2932 6.64584 18.4537 8.1184 18.9894 9.85181C19.525 11.5852 19.3974 13.4558 18.6314 15.1004C17.8654 16.7451 16.5156 18.0464 14.8441 18.7518C13.9458 19.1323 12.9801 19.3281 12.0045 19.3275ZM12.0045 5.45465C10.7084 5.45414 9.44137 5.83803 8.36354 6.55775C7.2857 7.27747 6.44554 8.3007 5.94934 9.49799C5.45313 10.6953 5.32316 12.0128 5.57588 13.284C5.8286 14.5552 6.45265 15.7228 7.36909 16.6393C8.28553 17.5557 9.45318 18.1797 10.7243 18.4325C11.9955 18.6852 13.3131 18.5552 14.5104 18.059C15.7076 17.5628 16.7309 16.7226 17.4506 15.6448C18.1703 14.567 18.5542 13.2999 18.5537 12.0039C18.5516 10.2675 17.861 8.6029 16.6332 7.37513C15.4054 6.14736 13.7408 5.4567 12.0045 5.45465Z" fill="#D4996D"/>
<path d="M14.2142 24H9.78581C9.68314 24 9.58468 23.9592 9.51209 23.8866C9.43949 23.814 9.39871 23.7155 9.39871 23.6128V21.8367C8.519 21.6074 7.67435 21.26 6.88774 20.8041L5.63355 22.0587C5.59756 22.095 5.55475 22.1238 5.50758 22.1435C5.46041 22.1631 5.40981 22.1733 5.35871 22.1733C5.30761 22.1733 5.25701 22.1631 5.20984 22.1435C5.16267 22.1238 5.11986 22.095 5.08387 22.0587L1.95613 18.9222C1.91985 18.8862 1.89105 18.8434 1.8714 18.7962C1.85174 18.749 1.84163 18.6984 1.84163 18.6473C1.84163 18.5962 1.85174 18.5456 1.8714 18.4984C1.89105 18.4512 1.91985 18.4084 1.95613 18.3724L3.21032 17.1178C2.75519 16.3297 2.40799 15.484 2.17806 14.6034H0.387097C0.284432 14.6034 0.185973 14.5626 0.113378 14.49C0.0407833 14.4174 0 14.3189 0 14.2162V9.79155C0 9.68885 0.0407833 9.59036 0.113378 9.51774C0.185973 9.44512 0.284432 9.40432 0.387097 9.40432H2.16258C2.39251 8.52373 2.7397 7.67804 3.19484 6.88996L1.94065 5.63537C1.90436 5.59937 1.87557 5.55654 1.85591 5.50936C1.83626 5.46217 1.82614 5.41156 1.82614 5.36044C1.82614 5.30932 1.83626 5.25871 1.85591 5.21152C1.87557 5.16434 1.90436 5.12151 1.94065 5.08551L5.08387 1.95676C5.11986 1.92047 5.16267 1.89166 5.20984 1.872C5.25701 1.85234 5.30761 1.84222 5.35871 1.84222C5.40981 1.84222 5.46041 1.85234 5.50758 1.872C5.55475 1.89166 5.59756 1.92047 5.63355 1.95676L6.88774 3.21136C7.67435 2.75547 8.519 2.40812 9.39871 2.17877V0.387222C9.39871 0.284524 9.43949 0.186033 9.51209 0.113415C9.58468 0.0407965 9.68314 0 9.78581 0H14.2142C14.3169 0 14.4153 0.0407965 14.4879 0.113415C14.5605 0.186033 14.6013 0.284524 14.6013 0.387222V2.16328C15.481 2.39263 16.3256 2.73998 17.1123 3.19587L18.3665 1.94127C18.4024 1.90498 18.4452 1.87617 18.4924 1.85651C18.5396 1.83685 18.5902 1.82673 18.6413 1.82673C18.6924 1.82673 18.743 1.83685 18.7902 1.85651C18.8373 1.87617 18.8801 1.90498 18.9161 1.94127L22.0439 5.08551C22.0802 5.12151 22.1089 5.16434 22.1286 5.21152C22.1483 5.25871 22.1584 5.30932 22.1584 5.36044C22.1584 5.41156 22.1483 5.46217 22.1286 5.50936C22.1089 5.55654 22.0802 5.59937 22.0439 5.63537L20.7897 6.88996C21.2448 7.67804 21.592 8.52373 21.8219 9.40432H23.6129C23.7156 9.40432 23.814 9.44512 23.8866 9.51774C23.9592 9.59036 24 9.68885 24 9.79155V14.2162C24 14.3189 23.9592 14.4174 23.8866 14.49C23.814 14.5626 23.7156 14.6034 23.6129 14.6034H21.8297C21.5997 15.484 21.2526 16.3297 20.7974 17.1178L22.0516 18.3724C22.0879 18.4084 22.1167 18.4512 22.1363 18.4984C22.156 18.5456 22.1661 18.5962 22.1661 18.6473C22.1661 18.6984 22.156 18.749 22.1363 18.7962C22.1167 18.8434 22.0879 18.8862 22.0516 18.9222L18.9161 22.051C18.8801 22.0873 18.8373 22.1161 18.7902 22.1357C18.743 22.1554 18.6924 22.1655 18.6413 22.1655C18.5902 22.1655 18.5396 22.1554 18.4924 22.1357C18.4452 22.1161 18.4024 22.0873 18.3665 22.051L17.1123 20.7964C16.3256 21.2523 15.481 21.5996 14.6013 21.829V23.6205C14.5993 23.7219 14.5576 23.8184 14.4852 23.8893C14.4128 23.9603 14.3155 24 14.2142 24ZM10.1729 23.2256H13.8271V21.5321C13.8276 21.4448 13.8574 21.3602 13.9117 21.2919C13.9659 21.2236 14.0416 21.1754 14.1265 21.1552C15.1316 20.9236 16.091 20.5258 16.9652 19.9781C17.0393 19.9318 17.1271 19.9123 17.2138 19.9226C17.3006 19.9329 17.3813 19.9725 17.4426 20.0348L18.64 21.2301L21.2206 18.6486L20.0284 17.4508C19.9661 17.3895 19.9265 17.3088 19.9162 17.222C19.9059 17.1352 19.9254 17.0474 19.9716 16.9732C20.5181 16.0983 20.9157 15.1387 21.1484 14.1336C21.1686 14.048 21.217 13.9717 21.2858 13.9169C21.3546 13.8622 21.4398 13.8321 21.5277 13.8316H23.2181V10.1788H21.5277C21.4398 10.1782 21.3546 10.1482 21.2858 10.0934C21.217 10.0386 21.1686 9.96232 21.1484 9.87673C20.9157 8.87163 20.5181 7.91207 19.9716 7.03711C19.9254 6.9629 19.9059 6.87516 19.9162 6.78835C19.9265 6.70154 19.9661 6.62084 20.0284 6.55953L21.2232 5.36431L18.6426 2.78283L17.4452 3.97289C17.3839 4.03522 17.3032 4.07481 17.2164 4.08514C17.1296 4.09546 17.0419 4.0759 16.9677 4.02969C16.0936 3.48196 15.1342 3.08411 14.129 2.85253C14.0442 2.8323 13.9685 2.78417 13.9142 2.71583C13.86 2.6475 13.8302 2.56291 13.8297 2.47564V0.782188H10.1729V2.47564C10.1724 2.56291 10.1426 2.6475 10.0883 2.71583C10.0341 2.78417 9.95842 2.8323 9.87355 2.85253C8.8684 3.08411 7.90897 3.48196 7.03484 4.02969C6.96065 4.0759 6.87294 4.09546 6.78616 4.08514C6.69938 4.07481 6.6187 4.03522 6.55742 3.97289L5.36 2.77767L2.77935 5.35915L3.97419 6.55437C4.0365 6.61567 4.07608 6.69638 4.0864 6.78319C4.09672 6.87 4.07717 6.95774 4.03097 7.03195C3.48449 7.90691 3.08684 8.86647 2.85419 9.87157C2.83395 9.95716 2.78555 10.0335 2.71675 10.0882C2.64796 10.143 2.56276 10.1731 2.47484 10.1736H0.781936V13.829H2.47226C2.56018 13.8295 2.64538 13.8596 2.71417 13.9143C2.78297 13.9691 2.83137 14.0454 2.85161 14.131C3.08426 15.1361 3.48191 16.0957 4.02839 16.9706C4.07459 17.0448 4.09414 17.1326 4.08382 17.2194C4.0735 17.3062 4.03392 17.3869 3.97161 17.4482L2.77677 18.6434L5.35742 21.2249L6.55484 20.0297C6.61612 19.9674 6.6968 19.9278 6.78358 19.9174C6.87036 19.9071 6.95807 19.9267 7.03226 19.9729C7.90639 20.5206 8.86582 20.9185 9.87097 21.15C9.95584 21.1703 10.0315 21.2184 10.0858 21.2867C10.14 21.3551 10.1698 21.4397 10.1703 21.5269L10.1729 23.2256Z" fill="#D4996D"/>
<path d="M9.17678 14.4872C8.9649 14.4872 8.75777 14.4244 8.58159 14.3067C8.40542 14.189 8.2681 14.0216 8.18702 13.8259C8.10593 13.6301 8.08472 13.4147 8.12605 13.2069C8.16739 12.9991 8.26942 12.8082 8.41925 12.6584C8.56908 12.5086 8.75997 12.4065 8.96778 12.3652C9.17559 12.3239 9.391 12.3451 9.58676 12.4262C9.78251 12.5072 9.94983 12.6446 10.0675 12.8207C10.1853 12.9969 10.2481 13.204 10.2481 13.4159C10.2481 13.7 10.1352 13.9725 9.93432 14.1735C9.73341 14.3744 9.46091 14.4872 9.17678 14.4872ZM9.17678 13.1216C9.11796 13.1216 9.06046 13.1391 9.01159 13.1718C8.96271 13.2046 8.92466 13.2511 8.90227 13.3055C8.87988 13.3599 8.87415 13.4197 8.88582 13.4774C8.89749 13.535 8.92602 13.5879 8.96779 13.6293C9.00957 13.6707 9.06271 13.6988 9.12047 13.71C9.17822 13.7211 9.23799 13.7149 9.29219 13.692C9.34639 13.6692 9.39257 13.6307 9.42488 13.5815C9.45719 13.5324 9.47416 13.4747 9.47365 13.4159C9.47365 13.3771 9.46596 13.3386 9.45101 13.3027C9.43606 13.2668 9.41415 13.2343 9.38655 13.2069C9.35895 13.1795 9.3262 13.1579 9.29019 13.1433C9.25419 13.1286 9.21565 13.1213 9.17678 13.1216Z" fill="#D4996D"/>
<path d="M14.8434 11.6606C14.6313 11.6611 14.4238 11.5986 14.2473 11.4811C14.0707 11.3636 13.933 11.1963 13.8516 11.0004C13.7702 10.8046 13.7487 10.5889 13.79 10.3809C13.8312 10.1728 13.9333 9.98171 14.0833 9.83172C14.2333 9.68174 14.4244 9.57966 14.6325 9.5384C14.8405 9.49715 15.0561 9.51858 15.252 9.59999C15.4479 9.68139 15.6152 9.81911 15.7327 9.99568C15.8502 10.1722 15.9127 10.3797 15.9122 10.5918C15.9115 10.8751 15.7987 11.1465 15.5984 11.3468C15.3981 11.5471 15.1267 11.6599 14.8434 11.6606ZM14.8434 10.295C14.7846 10.2945 14.727 10.3114 14.6778 10.3437C14.6286 10.376 14.5902 10.4222 14.5673 10.4764C14.5445 10.5306 14.5382 10.5904 14.5494 10.6482C14.5605 10.7059 14.5886 10.759 14.63 10.8008C14.6714 10.8426 14.7243 10.8711 14.782 10.8828C14.8396 10.8945 14.8994 10.8887 14.9538 10.8663C15.0082 10.844 15.0548 10.8059 15.0875 10.757C15.1202 10.7082 15.1377 10.6507 15.1377 10.5918C15.1377 10.5135 15.1068 10.4384 15.0517 10.3828C14.9966 10.3272 14.9217 10.2956 14.8434 10.295Z" fill="#D4996D"/>
<path d="M12.0023 13.0726C11.791 13.0726 11.5843 13.01 11.4086 12.8925C11.2328 12.7751 11.0958 12.6082 11.0149 12.4129C10.9341 12.2176 10.9129 12.0027 10.9541 11.7954C10.9954 11.5881 11.0972 11.3977 11.2466 11.2482C11.3961 11.0987 11.5865 10.997 11.7938 10.9557C12.0011 10.9145 12.216 10.9356 12.4113 11.0165C12.6066 11.0974 12.7735 11.2344 12.8909 11.4102C13.0084 11.5859 13.0711 11.7925 13.0711 12.0039C13.0711 12.2874 12.9585 12.5592 12.758 12.7596C12.5576 12.96 12.2858 13.0726 12.0023 13.0726ZM12.0023 11.7096C11.9441 11.7096 11.8872 11.7269 11.8388 11.7592C11.7904 11.7916 11.7527 11.8375 11.7304 11.8913C11.7082 11.9451 11.7023 12.0042 11.7137 12.0613C11.725 12.1184 11.7531 12.1708 11.7942 12.212C11.8354 12.2532 11.8878 12.2812 11.9449 12.2925C12.002 12.3039 12.0612 12.2981 12.1149 12.2758C12.1687 12.2535 12.2147 12.2158 12.247 12.1674C12.2794 12.119 12.2966 12.0621 12.2966 12.0039C12.2966 11.9259 12.2656 11.851 12.2104 11.7958C12.1552 11.7406 12.0804 11.7096 12.0023 11.7096Z" fill="#D4996D"/>
<path d="M12.0044 11.7096C11.9017 11.7096 11.8032 11.6688 11.7306 11.5962C11.658 11.5235 11.6172 11.425 11.6172 11.3223V8.07484C11.6172 7.97215 11.658 7.87366 11.7306 7.80104C11.8032 7.72842 11.9017 7.68762 12.0044 7.68762C12.1071 7.68762 12.2056 7.72842 12.2782 7.80104C12.3508 7.87366 12.3916 7.97215 12.3916 8.07484V11.3223C12.3916 11.425 12.3508 11.5235 12.2782 11.5962C12.2056 11.6688 12.1071 11.7096 12.0044 11.7096Z" fill="#D4996D"/>
<path d="M14.8443 10.2949C14.7416 10.2949 14.6431 10.2541 14.5704 10.1815C14.4978 10.1089 14.457 10.0104 14.457 9.90769V8.07484C14.457 7.97215 14.4978 7.87366 14.5704 7.80104C14.6431 7.72842 14.7416 7.68762 14.8443 7.68762C14.947 7.68762 15.0454 7.72842 15.1181 7.80104C15.1907 7.87366 15.2315 7.97215 15.2315 8.07484V9.90769C15.2315 10.0104 15.1907 10.1089 15.1181 10.1815C15.0454 10.2541 14.947 10.2949 14.8443 10.2949Z" fill="#D4996D"/>
<path d="M9.17628 16.3201C9.07359 16.3201 8.97509 16.2793 8.90248 16.2066C8.82986 16.134 8.78906 16.0355 8.78906 15.9328V14.1C8.78906 13.9973 8.82986 13.8988 8.90248 13.8262C8.97509 13.7536 9.07359 13.7128 9.17628 13.7128C9.27898 13.7128 9.37747 13.7536 9.45009 13.8262C9.52271 13.8988 9.56351 13.9973 9.56351 14.1V15.9328C9.56351 16.0355 9.52271 16.134 9.45009 16.2066C9.37747 16.2793 9.27898 16.3201 9.17628 16.3201Z" fill="#D4996D"/>
<path d="M12.0044 16.3202C11.9017 16.3202 11.8032 16.2794 11.7306 16.2067C11.658 16.1341 11.6172 16.0356 11.6172 15.9329V12.6854C11.6172 12.5827 11.658 12.4843 11.7306 12.4116C11.8032 12.339 11.9017 12.2982 12.0044 12.2982C12.1071 12.2982 12.2056 12.339 12.2782 12.4116C12.3508 12.4843 12.3916 12.5827 12.3916 12.6854V15.9329C12.3916 16.0356 12.3508 16.1341 12.2782 16.2067C12.2056 16.2794 12.1071 16.3202 12.0044 16.3202Z" fill="#D4996D"/>
<path d="M14.8443 16.3202C14.7416 16.3202 14.6431 16.2794 14.5704 16.2067C14.4978 16.1341 14.457 16.0356 14.457 15.9329V11.2863C14.457 11.1836 14.4978 11.0851 14.5704 11.0125C14.6431 10.9398 14.7416 10.899 14.8443 10.899C14.947 10.899 15.0454 10.9398 15.1181 11.0125C15.1907 11.0851 15.2315 11.1836 15.2315 11.2863V15.9329C15.2315 16.0356 15.1907 16.1341 15.1181 16.2067C15.0454 16.2794 14.947 16.3202 14.8443 16.3202Z" fill="#D4996D"/>
<path d="M9.17628 13.1217C9.07359 13.1217 8.97509 13.0809 8.90248 13.0082C8.82986 12.9356 8.78906 12.8371 8.78906 12.7344V8.08778C8.78906 7.98509 8.82986 7.88659 8.90248 7.81398C8.97509 7.74136 9.07359 7.70056 9.17628 7.70056C9.27898 7.70056 9.37747 7.74136 9.45009 7.81398C9.52271 7.88659 9.56351 7.98509 9.56351 8.08778V12.7344C9.56351 12.8371 9.52271 12.9356 9.45009 13.0082C9.37747 13.0809 9.27898 13.1217 9.17628 13.1217Z" fill="#D4996D"/>
</g>
<defs>
<clipPath id="clip0_1755_3954">
<rect width="24" height="24" fill="white"/>
</clipPath>
</defs>
</svg>
