<svg width="53" height="71" viewBox="0 0 53 71" fill="none" xmlns="http://www.w3.org/2000/svg">
    <circle cx="26.5" cy="43.8" r="24.5" fill="#EAEEFB" stroke="#2F55D3" stroke-width="4" />
    <path
        d="M36.7998 63.2066V63.0573C36.7301 60.1565 36.5447 57.2419 36.3494 54.3471C36.6484 61.1659 37.2742 58.7689 37.8522 52.7704C38.0137 51.108 38.0017 49.4097 38.0017 47.7394C38.1353 47.6518 40.2819 45.7764 40.4075 45.637C42.0857 48.1814 42.9468 51.2115 42.3628 54.2715C41.9143 56.6187 38.6714 61.6616 36.7998 63.2066Z"
        fill="#F9D8CC" />
    <path
        d="M38.0016 47.7374C38.0016 49.4077 38.0115 51.106 37.8521 52.7684C37.2741 58.7669 36.6482 61.1639 36.3492 54.3451C36.2197 52.4339 36.1459 50.5485 36.0483 48.6393C36.5426 48.2869 37.9119 47.7971 38.0036 47.7374H38.0016Z"
        fill="#E18B6A" />
    <path
        d="M7.02988 47.2875C3.63749 52.8619 10.2489 61.1978 11.0142 61.1042C11.6321 61.0285 10.5797 58.5618 10.488 57.875C10.3704 56.995 10.6455 56.8756 10.6375 56.8238C10.3186 54.2735 9.58114 51.6674 10.0356 49.0892C11.4567 49.4715 10.6136 48.5596 10.1851 48.038C10.2329 48.0798 11.1896 48.5218 11.2375 48.7129C11.3929 49.3321 10.3704 49.4077 10.3346 49.4635C10.1452 49.7681 10.6315 53.7777 10.785 54.4188C11.3232 56.6526 13.2745 59.5533 14.2432 61.7015C14.2432 62.1434 14.297 62.5595 14.0937 62.9776L15.8975 64.5544C15.5208 64.7933 14.8531 66.2964 14.4684 66.3562C13.8505 66.4517 9.61901 62.3425 8.9812 61.6258C5.00681 57.1642 1.86756 51.5201 5.82401 45.9317C6.21068 45.4638 6.68107 46.8614 7.02589 47.2835L7.02988 47.2875Z"
        fill="#E18B6A" />
    <path
        d="M10.1874 48.038C10.6139 48.5596 11.459 49.4715 10.0379 49.0892C9.50972 48.9459 7.66769 47.0605 7.02988 47.2875C6.68306 46.8654 6.215 45.4678 5.82833 45.9356C5.85823 45.8938 5.84427 45.426 6.35452 45.0338C7.63215 46.0471 8.95562 46.961 10.1894 48.038H10.1874Z"
        fill="#E18B6A" />
    <path
        d="M10.0379 49.0892C9.58347 51.6674 10.3202 54.2735 10.6391 56.8238C10.6451 56.8756 10.372 56.995 10.4896 57.875C10.5813 58.5599 11.6337 61.0285 11.0158 61.1042C10.2505 61.1978 3.6391 52.8619 7.03149 47.2875C7.6693 47.0605 9.511 48.9479 10.0392 49.0892H10.0379Z"
        fill="#FCC091" />
    <path
        d="M33.6433 33.7713L31.5385 34.5975C34.8651 35.6726 35.5787 34.6453 35.5986 37.3768C35.5249 39.1368 35.5607 41.0182 35.5986 42.7841C35.6046 43.0847 35.5906 43.3853 35.5986 43.6859C35.6744 46.3358 36.0192 48.044 36.0491 48.6413C36.1467 50.5525 36.2198 52.4359 36.3494 54.3471C36.5447 57.2419 36.7321 60.1565 36.7998 63.0573C36.3215 63.1568 35.764 63.1329 35.2976 63.2066C35.3834 57.1403 34.5801 50.9726 33.7191 45.0358C31.8255 46.0889 29.1029 48.4581 29.1328 46.9888C28.9713 45.8978 27.9528 39.0392 27.7794 38.653C27.6738 38.4181 27.1575 38.1294 26.8765 38.1274C27.2054 37.7372 25.7444 36.6561 25.0727 36.3256C25.4115 36.033 25.7822 35.2247 26.3503 35.2744C26.4519 35.2824 27.5562 36.0648 28.0784 36.3256L28.1541 37.8268C29.641 36.678 30.8588 39.6962 31.387 38.428C31.8255 37.3728 31.2655 34.3009 31.2376 32.9471C31.4249 32.6425 33.3324 33.6499 33.6433 33.7733V33.7713Z"
        fill="#31ABBF" />
    <path
        d="M18.9077 34.2213C18.8459 35.3242 24.0401 41.8424 22.8163 38.5773C23.3365 38.203 23.7372 37.6894 24.1697 37.2255C24.3072 37.5162 25.3556 38.2309 25.523 38.2767C25.3437 38.9257 25.3875 39.5668 25.3736 40.2298C25.3317 42.0912 25.1443 43.9328 25.0726 45.7863H19.4339C18.6745 45.1751 18.6625 43.8153 18.0048 43.9846C18.0048 43.885 18.0048 43.7835 18.0048 43.6839C17.9689 40.5881 17.9849 37.4744 17.5543 34.3726C17.6221 34.3686 17.7038 34.1158 18.9077 34.2233V34.2213Z"
        fill="#3A93AC" />
    <path
        d="M18.0068 44.2832C18.0507 50.6919 17.7437 57.0966 17.8573 63.5052C12.6491 63.2026 15.033 63.6087 14.3992 58.6992C14.4649 54.6637 14.6902 50.6421 14.8496 46.6106L12.6691 49.3898C12.3681 49.4336 12.0313 48.8145 11.9934 48.7886C12.7847 49.3998 14.0244 46.949 14.1739 46.3856C15.5811 45.9894 16.6694 44.9044 18.0088 44.2832H18.0068Z"
        fill="#244A61" />
    <path
        d="M14.096 34.8225L13.6455 35.1988C13.2728 36.5825 8.64266 44.6555 8.83401 45.2607C9.25457 46.5867 14.4528 43.4809 15.4494 43.1584C15.3118 39.8873 15.838 40.2815 15.7503 43.3077C16.3343 43.9249 17.2354 43.6143 18.0048 43.6839C18.0048 43.7835 18.0048 43.885 18.0048 43.9846C18.0048 44.0841 18.0046 44.1856 18.0046 44.2852C16.6672 44.9063 15.5769 45.9914 14.1697 46.3876C14.0203 46.951 12.7805 49.4018 11.9892 48.7906C11.2657 48.3167 6.11333 44.0005 6.12528 43.6103C8.48122 40.4315 10.8365 37.2527 13.1911 34.0739C13.6754 34.1596 13.797 34.3925 14.094 34.8245L14.096 34.8225Z"
        fill="#2F5974" />
    <path
        d="M41.1594 43.9826L39.806 45.1831C39.7741 44.6535 38.3669 41.2372 38.0022 40.3771C36.0389 35.7523 35.718 34.4701 35.5964 37.3728C35.5765 34.6413 34.8649 35.6686 31.5363 34.5936L33.6411 33.7673C34.4145 34.072 35.1719 34.4343 35.9711 34.6692C37.0176 35.7124 40.9162 43.232 41.1574 43.9806L41.1594 43.9826Z"
        fill="#32BECC" />
    <path
        d="M39.8052 45.1851L41.1586 43.9846C41.1665 44.0065 41.2921 44.0463 41.4595 44.3609C40.7121 44.9601 40.4633 45.5753 40.4075 45.637C40.2819 45.7764 38.1353 47.6518 38.0017 47.7394C37.912 47.7991 36.5404 48.2889 36.0461 48.6413C36.0162 48.044 35.6694 46.3358 35.5956 43.6859C36.2912 44.1498 39.9009 46.7877 39.8052 45.1871V45.1851Z"
        fill="#244A61" />
    <path
        d="M20.2604 35.1232C20.2185 35.0794 20.067 35.2585 19.4332 34.2213L18.9077 34.2213C17.7038 34.1157 17.6214 34.3666 17.5536 34.3706C16.3796 34.4542 15.2455 34.5796 14.0955 34.8205C13.7985 34.3885 13.6769 34.1556 13.1926 34.07C14.8688 33.3473 17.5476 33.5304 18.8312 32.4175C19.3069 33.3187 19.7833 34.22 20.2604 35.1212V35.1232Z"
        fill="#244A61" />
    <path
        d="M20.2604 35.1232C20.4617 35.3382 22.7426 38.3762 22.8163 38.5773C24.0401 41.8424 18.8459 35.3242 18.9077 34.2213L19.4332 34.2213C20.067 35.2565 20.2185 35.0774 20.2604 35.1232Z"
        fill="#226679" />
    <path
        d="M26.876 38.1254C26.7504 38.1095 26.7325 38.1613 26.7265 38.2747C26.2163 37.9084 25.5824 38.2907 25.5246 38.2747C25.3572 38.2289 24.3088 37.5142 24.1713 37.2235C24.4822 36.8891 24.7234 36.6243 25.0742 36.3217C25.7459 36.6542 27.2069 37.7332 26.878 38.1234L26.876 38.1254Z"
        fill="#226679" />
    <path
        d="M31.386 38.426C30.8578 39.6962 29.6399 36.676 28.153 37.8248L28.0773 36.3236C28.1451 36.3575 28.2168 36.1046 28.6035 36.3236C29.2293 36.678 30.5229 38.0159 31.386 38.426Z"
        fill="#187787" />
    <path
        d="M25.072 45.7843C25.06 46.075 25.0839 46.4931 25.072 46.8355C25.0042 48.8682 24.7292 57.1583 24.9225 58.1736C24.9584 58.3568 26.6187 61.363 26.8021 61.4028C27.693 60.9848 27.8764 60.2641 27.9302 60.2023C28.3169 59.7524 28.4544 59.4 28.5321 59.3005C29.1241 58.532 29.8317 57.8232 30.336 56.9731C29.8436 53.6583 29.6204 50.3017 29.1341 46.9868C29.1042 48.4581 31.8269 46.087 33.7204 45.0338C34.5814 50.9706 35.3847 57.1404 35.299 63.2046C29.9991 64.0567 23.2682 63.8198 17.8587 63.5052C17.7451 57.0966 18.0526 50.6919 18.0088 44.2832C18.0088 44.1837 18.0082 44.0821 18.0082 43.9826C18.6639 43.8134 18.6759 45.1731 19.4373 45.7843H25.076H25.072Z"
        fill="url(#paint0_linear_192_1601)" />
    <path
        d="M39.8052 45.1851C39.8989 46.7838 36.2918 44.1478 35.5961 43.6839C35.5882 43.3833 35.6021 43.0827 35.5961 42.7821C36.3974 41.9817 37.1993 41.1807 38.0019 40.3791C38.3667 41.2391 39.7733 44.6555 39.8052 45.1851Z"
        fill="#187787" />
    <path
        d="M38.0019 40.3791C37.2006 41.1794 36.3987 41.9804 35.5961 42.7821C35.5583 41.0162 35.5217 39.1348 35.5955 37.3748C35.7171 34.4721 36.0386 35.7542 38.0019 40.3791Z"
        fill="#3A93AC" />
    <path
        d="M17.5543 34.3726C17.9849 37.4724 17.9689 40.5881 18.0048 43.6839C17.2354 43.6143 16.3343 43.9249 15.7503 43.3077C15.84 40.2815 15.3118 39.8873 15.4494 43.1584C14.4528 43.4809 9.25457 46.5867 8.83401 45.2607C8.64266 44.6555 13.2728 36.5825 13.6455 35.1988L14.096 34.8225C15.2461 34.5816 16.3804 34.4562 17.5543 34.3726Z"
        fill="#36738E" />
    <path
        d="M29.1321 46.9868C29.6204 50.3017 29.8417 53.6583 30.334 56.9731C29.8297 57.8232 29.1201 58.534 28.5302 59.3005C27.7727 53.3617 28.1355 47.2755 26.7263 41.4303C26.7742 40.4667 26.6546 39.6265 26.7263 38.2767C26.7323 38.1612 26.7509 38.1115 26.8765 38.1274C27.1575 38.1294 27.6718 38.4181 27.7794 38.653C27.9528 39.0372 28.9713 45.8958 29.1328 46.9888L29.1321 46.9868Z"
        fill="#EFA47B" />
    <path
        d="M26.7263 38.2767C26.6546 39.6285 26.7742 40.4667 26.7263 41.4303C26.6187 43.6103 26.2135 45.7744 26.1238 47.9624C26.062 49.4615 26.2234 57.1045 26.1238 57.5744C26.1039 57.6719 25.8846 58.0462 25.6733 57.9507C25.5019 57.6879 25.2986 57.4868 25.0714 57.2757C25.0754 54.0445 25.2508 50.8213 25.2209 47.5901L25.3704 40.2318C25.3843 39.5708 25.3425 38.9297 25.5199 38.2787C25.5777 38.2946 26.2135 37.9124 26.7217 38.2787L26.7263 38.2767Z"
        fill="#DC7155" />
    <path
        d="M25.2216 47.5881C25.2177 47.178 25.2954 46.8156 25.0722 46.8375C25.0841 46.4951 25.0606 46.077 25.0726 45.7863C25.1423 43.9328 25.3317 42.0912 25.3736 40.2298L25.2236 47.5881H25.2216Z"
        fill="#786551" />
    <path
        d="M28.5302 59.3005C28.4544 59.4 28.3146 59.7524 27.9279 60.2024C27.2064 59.4777 26.2354 58.8127 25.6733 57.9507C25.8846 58.0482 26.1039 57.6719 26.1238 57.5744C26.2234 57.1045 26.062 49.4635 26.1238 47.9624C26.2135 45.7744 26.6187 43.6103 26.7263 41.4303C28.1355 47.2775 27.7747 53.3637 28.5302 59.3005Z"
        fill="#E18B6A" />
    <path
        d="M25.2216 47.5881C25.2495 50.8193 25.0759 54.0445 25.0719 57.2738C25.2971 57.4868 25.5004 57.6859 25.6738 57.9487C26.2379 58.8127 27.2086 59.4757 27.9281 60.2004C27.8743 60.2621 27.6909 60.9828 26.8 61.4009C26.6166 61.361 24.9563 58.3548 24.9204 58.1716C24.7271 57.1563 25.0041 48.8662 25.0699 46.8335C25.2951 46.8136 25.2174 47.174 25.2194 47.5841L25.2216 47.5881Z"
        fill="#1C2D36" />
    <path
        d="M42.1653 20.6369C44.206 21.7758 43.4357 27.4149 40.0467 27.8165C39.8511 27.9498 39.1813 29.5837 38.6187 30.2812C37.2514 31.9809 33.8156 33.7135 31.6987 34.1307C31.6451 34.1411 31.581 34.1255 31.5257 34.1307C32.1713 33.807 32.6801 33.6824 31.8718 33.4383C34.3608 32.6283 37.3569 31.3111 38.7053 28.9398C39.91 26.8212 39.8494 24.7615 40.0034 24.2249C40.0623 24.0207 40.3583 23.8926 40.3496 23.6624C40.4448 23.6641 40.4656 23.5205 40.5227 23.6191C40.4084 24.4101 40.4327 25.2046 40.3496 25.9973C40.3167 26.3089 39.9602 27.0601 40.2198 27.1224C41.6131 26.7399 42.3176 25.4383 42.5114 24.0951C42.6516 23.1328 42.7001 22.3608 42.1653 21.5006C42.1462 21.4694 42.2034 21.2254 41.646 20.9813C41.9126 20.6767 40.6473 20.6819 41.0835 20.462C41.2964 20.3547 41.9039 20.7909 42.1653 20.6351V20.6369Z"
        fill="#121213" />
    <path
        d="M42.1653 20.6369C41.9056 20.7926 41.2964 20.3565 41.0835 20.4638C40.6474 20.6836 41.9126 20.6784 41.6461 20.983C41.5128 20.9242 41.1649 20.7442 41.0403 20.8532C40.8741 21.2461 40.9399 21.9869 40.8672 22.2812C40.7443 22.7831 40.6439 23.2107 40.2614 23.5793C40.0156 23.8165 39.9066 24.0536 39.7421 23.7957C40.1298 21.8277 39.1502 12.9051 38.444 11.7298C38.347 11.5689 38.3592 11.4269 38.2276 11.4702C30.9874 15.4114 21.7758 14.2188 15.5654 8.87564C15.0167 8.75448 13.414 9.62337 12.9708 10.0007C10.2344 12.3235 11.6848 18.9389 10.2897 22.456C9.92626 22.1687 9.53163 21.9748 9.12141 21.7636C8.12097 21.2513 7.10842 20.5001 6.18067 21.7636L5.92104 21.0713C6.86436 20.2561 6.96995 20.7321 7.56536 20.4222C6.2101 15.8666 5.59045 7.46325 11.3715 5.80336C12.0275 -1.27068 30.2795 -0.68046 35.3752 1.34811C37.5941 2.23258 41.698 5.60084 43.55 7.3594C42.6309 8.72505 41.7863 10.1634 40.5227 11.2521C41.016 14.224 41.0403 17.2444 41.042 20.2474C41.1078 20.3772 41.5491 20.2924 42.1671 20.6369H42.1653Z"
        fill="#121213" />
    <path
        d="M37.6687 8.61255C35.6228 9.88473 33.4489 10.7242 31.0084 10.8609C25.3831 11.176 19.6279 8.97257 15.5258 5.15255C15.2835 4.7908 15.0065 4.43251 14.8334 4.02749C15.5085 4.79426 16.4778 5.39141 17.2116 6.1028C22.3506 9.78261 28.0486 11.0479 34.252 9.56279C35.7717 9.19931 38.1101 7.98425 37.6687 8.61082L37.6687 8.61255Z"
        fill="#262829" />
    <path
        d="M31.0083 10.8627C31.7197 10.9406 30.2727 11.259 30.0131 11.2954C24.7738 12.0327 18.4907 9.60606 15.524 5.15428C19.6279 8.97603 25.3813 11.1794 31.0066 10.8627H31.0083Z"
        fill="#121213" />
    <path
        d="M39.3113 5.49872C41.307 7.25901 42.3922 8.28195 39.7872 10.3434C37.7379 11.9635 40.6181 8.6939 39.9171 6.79687C39.6367 6.03702 38.7401 5.722 39.3113 5.49872Z"
        fill="#262829" />
    <path
        d="M41.6477 20.983C42.2034 21.2271 42.148 21.4711 42.167 21.5023L41.4747 22.7139C41.3345 22.5616 41.1164 22.4179 40.9554 22.2812H40.8689C40.9416 21.9869 40.8758 21.2461 41.0419 20.8532C41.1648 20.7442 41.5145 20.9242 41.6477 20.983Z"
        fill="#FDFEFD" />
    <path
        d="M40.9554 22.2794C40.8931 23.356 41.1925 25.7118 40.3496 25.9991C40.4327 25.2046 40.4084 24.4101 40.5227 23.6209C40.4673 23.5222 40.4448 23.6659 40.3496 23.6641C40.3427 23.6641 40.3704 23.5689 40.2631 23.5776C40.6456 23.2089 40.7442 22.7814 40.8689 22.2794H40.9554Z"
        fill="#F8B697" />
    <path
        d="M41.4747 22.7122C41.8538 23.1206 42.1273 23.6814 42.5132 24.0969C42.3176 25.44 41.6149 26.7433 40.2216 27.1241C39.9619 27.0618 40.3185 26.3106 40.3514 25.9991C41.1926 25.7118 40.8949 23.356 40.9572 22.2794C41.1182 22.4162 41.3362 22.5598 41.4764 22.7122H41.4747Z"
        fill="#FAE8C3" />
    <path
        d="M42.5115 24.0969C42.1255 23.6832 41.852 23.1224 41.473 22.7122L42.1653 21.5006C42.7001 22.3625 42.6516 23.1328 42.5114 24.0951L42.5115 24.0969Z"
        fill="#F0EBD9" />
    <path
        d="M6.18238 21.7602C4.69383 23.7888 6.6549 28.7356 10.9838 28.334C13.2356 31.1415 16.7233 32.5348 20.1089 33.4366C19.7662 33.7533 19.0289 32.9156 18.9838 33.5664C18.9631 33.8797 19.7922 33.7014 19.9358 34.1289C19.6762 34.0424 19.735 34.148 19.6762 34.1289C16.3789 33.0039 12.9206 31.7127 10.6376 28.9398C5.67177 29.2375 3.66397 23.022 5.92275 21.0678L6.18238 21.7602Z"
        fill="#121213" />
    <path
        d="M38.4457 11.7264C38.2086 11.8181 38.0303 12.0016 37.8399 12.1591C35.1657 14.3867 33.3708 14.8939 29.8381 15.0133C24.2872 15.2019 19.2037 13.523 15.0462 9.82415C13.9419 10.7086 13.1526 12.1054 12.9276 13.5005C12.5901 15.5862 12.7112 25.6962 12.4949 26.302C12.1435 27.2851 10.7813 27.157 9.98684 26.9511L11.3715 24.5728C11.0323 24.2388 9.10929 22.096 8.95005 22.0216L9.12314 21.7619C9.53336 21.9731 9.92799 22.1652 10.2915 22.4543C11.6883 18.9372 10.2361 12.3201 12.9726 9.99897C13.4157 9.62337 15.0202 8.75448 15.5671 8.87391C21.7775 14.2171 30.9909 15.4097 38.2293 11.4685C38.3609 11.4252 38.3488 11.5671 38.4457 11.7281V11.7264Z"
        fill="#F8B697" />
    <path
        d="M40.2631 23.5776C40.3704 23.5689 40.3427 23.6641 40.3496 23.6641C40.3583 23.8943 40.0623 24.0224 40.0034 24.2267C39.8494 24.7632 39.9117 26.823 38.7053 28.9415C38.3366 29.0991 37.0973 30.6378 36.9329 30.6707C36.5106 30.7572 36.038 30.1099 36.3704 29.8052C37.2981 29.5906 37.7724 28.7529 38.0995 27.903C40.0969 23.6676 38.4543 16.8359 37.8399 12.1608C38.0303 12.0033 38.2086 11.8198 38.4457 11.7281C39.1519 12.9034 40.1298 21.826 39.7438 23.794C39.9082 24.0519 40.0155 23.8147 40.2631 23.5776Z"
        fill="#FDFEFD" />
    <path
        d="M20.1089 33.4383C24.7736 34.6811 27.2348 34.9494 31.8736 33.4383C32.6819 33.6824 32.173 33.807 31.5274 34.1307C31.4668 34.1618 31.4253 34.1861 31.3543 34.2172C31.2176 34.2761 31.0601 34.3436 30.9216 34.3903C29.9315 34.7278 28.6732 34.8871 27.6347 35.0826C27.607 35.0878 27.5758 35.0775 27.5481 35.0826C27.0808 35.1657 26.3712 35.1277 26.1634 35.2557C25.9869 35.5881 25.7723 35.8996 25.5576 36.2077L25.298 36.0346C25.3621 35.9256 25.8121 35.1553 25.6875 35.0826C25.1924 35.2609 21.6649 34.3315 21.5784 34.5201C21.5628 34.553 21.9955 34.8282 21.9246 34.9961C21.7463 34.8507 21.6061 34.7642 21.4053 34.6499C21.3915 34.6413 21.4901 34.5305 21.1889 34.3903C20.841 34.2864 20.2093 34.2224 19.9341 34.1307C19.7921 33.7049 18.9613 33.8814 18.9821 33.5681C19.0254 32.9173 19.7644 33.7551 20.1072 33.4383H20.1089Z"
        fill="#092E36" />
    <path
        d="M8.95002 22.0198C9.10926 22.0942 11.0322 24.2388 11.3715 24.5711L9.9868 26.9493C6.35372 26.0043 6.74663 20.9951 8.94829 22.0181L8.95002 22.0198Z"
        fill="#F8B697" />
    <path
        d="M38.1012 27.903C37.7741 28.7529 37.2999 29.5906 36.3721 29.8052C34.418 30.2587 32.7148 28.7996 33.691 27.427C34.0579 26.9112 37.9178 25.0956 38.103 27.903H38.1012Z"
        fill="#F8B697" />
    <path
        d="M37.8416 12.1591C38.4561 16.8359 40.0987 23.6659 38.1013 27.9013C37.9178 25.0938 34.0562 26.9095 33.6893 27.4253C32.7131 28.7979 34.4163 30.257 36.3704 29.8035C36.0381 30.1064 36.5106 30.7555 36.9329 30.669C37.0991 30.6343 38.3366 29.0956 38.7053 28.9398C37.3569 31.3111 34.3608 32.6266 31.8718 33.4383C27.2331 34.9494 24.7736 34.6811 20.1072 33.4383C16.7199 32.5365 13.2339 31.1415 10.9821 28.3357C6.65493 28.7373 4.69386 23.7905 6.18067 21.7619C7.10841 20.4984 8.12097 21.2496 9.12141 21.7619L8.94832 22.0216C6.74666 20.9986 6.35203 26.0077 9.98684 26.9528C10.7813 27.1588 12.1452 27.2886 12.4949 26.3037C12.7112 25.6979 12.5883 15.5879 12.9276 13.5022C13.1543 12.1089 13.9419 10.7104 15.0462 9.82589C19.2037 13.5265 24.2855 15.2037 29.8381 15.015C33.3708 14.8956 35.1639 14.3884 37.8399 12.1608L37.8416 12.1591Z"
        fill="url(#paint1_linear_192_1601)" />
    <path
        d="M17.7304 20.0311C21.0537 19.4062 20.9672 27.3422 17.5574 26.4318C15.264 25.8191 15.6932 20.4136 17.7304 20.0311Z"
        fill="#24110C" />
    <path
        d="M15.7399 26.3453C16.5309 26.1895 17.09 26.6395 17.5556 26.5183C20.9308 27.7421 18.0939 30.9822 15.4803 29.1994C14.1319 28.2804 14.5958 26.5703 15.7399 26.3453Z"
        fill="#F8B697" />
    <path
        d="M23.2657 27.5569C24.3198 27.3682 23.4301 28.1938 24.1744 29.3293C25.4414 31.2626 29.5141 30.5495 28.9758 27.6417C30.8555 27.768 29.2597 30.0718 28.37 30.5824C27.2778 31.2107 25.6647 31.2851 24.5639 30.669C23.5167 30.0822 22.3691 27.7161 23.2657 27.5551V27.5569Z"
        fill="#5A2214" />
    <path
        d="M17.2977 15.7056C18.7793 15.5031 20.3336 16.1782 19.7624 17.1336C19.3487 17.8242 18.9939 16.2041 17.038 16.8307C16.5897 16.9744 15.6499 18.0423 15.437 17.3067C15.2189 16.5503 16.7144 15.7852 17.2959 15.7056H17.2977Z"
        fill="#121213" />
    <path
        d="M34.0782 20.0311C37.1107 19.6122 37.2042 27.4011 33.8186 26.3453C31.6688 25.6754 31.9718 20.3219 34.0782 20.0311Z"
        fill="#24110C" />
    <path
        d="M33.7321 15.7056C34.8294 15.5031 38.0471 16.507 36.3266 17.6944C34.53 15.7368 33.1315 17.3309 32.9532 17.2617C32.7438 17.1803 32.4391 15.9445 33.7321 15.7039V15.7056Z"
        fill="#121213" />
    <mask id="mask0_192_1601" style="mask-type:alpha" maskUnits="userSpaceOnUse" x="0" y="17" width="53" height="54">
        <circle cx="26.5" cy="43.8" r="23" fill="#EAEEFB" stroke="#2F55D3" stroke-width="7" />
    </mask>
    <g mask="url(#mask0_192_1601)">
        <path
            d="M34.8447 64.4071C33.7923 79.8749 32.74 95.3434 31.6876 110.813C31.3567 111.259 30.8086 111.476 30.3342 111.714C29.8439 111.004 30.0033 107.773 30.0332 105.933C30.2425 93.4182 30.5176 80.9055 30.6352 68.3888C29.0566 68.3636 27.478 68.3384 25.8994 68.3132C25.5605 69.0538 25.6961 70.312 25.6742 70.4156C22.8618 83.9118 19.3877 97.2507 16.2026 110.663C15.4691 110.651 14.6399 111.515 14.5483 111.565C14.3071 110.556 14.5602 108.826 14.6977 107.735C16.4139 94.2286 18.6861 80.802 19.5093 67.1863C19.8441 66.4816 31.267 65.6992 34.8447 64.4071Z"
            fill="#083E4E" />
        <path
            d="M17.8551 63.5052C23.2645 63.8198 29.9975 64.0567 35.2953 63.2046C35.7617 63.129 36.3198 63.1548 36.7982 63.0553V63.2046C36.1903 63.7063 35.5824 64.1383 34.8429 64.4051C31.2651 65.6952 19.8423 66.4796 19.5074 67.1844C18.6842 80.8001 16.412 94.2266 14.6959 107.733C14.5563 108.824 14.3032 110.554 14.5464 111.563C13.2409 112.262 12.0151 113.118 10.6378 113.666C11.1082 110.265 11.9094 106.917 12.4416 103.528C14.4148 90.9615 16.0871 77.2324 15.8998 64.5564L14.0959 62.9796C14.3012 62.5616 14.2454 62.1455 14.2454 61.7035C14.2454 60.722 14.379 59.7046 14.3949 58.6992C15.0287 63.6088 12.6449 63.2026 17.8531 63.5052H17.8551Z"
            fill="#12191B" />
        <path
            d="M30.3339 111.713C29.0602 112.35 26.782 114.002 26.4252 113.365C26.8259 105.694 27.3321 97.9933 27.4776 90.3125C27.5633 85.829 27.7407 77.5469 27.6271 73.4935C27.6152 73.0854 27.5633 70.6127 27.4776 70.4892C27.3461 70.3041 26.0007 70.4713 25.6738 70.4136C25.6957 70.3101 25.5622 69.0518 25.899 68.3112C27.4776 68.3364 29.0562 68.3616 30.6348 68.3869C30.5172 80.9036 30.2422 93.4163 30.0329 105.931C30.003 107.771 29.8435 111.002 30.3339 111.713Z"
            fill="#12191B" />
        <path
            d="M34.3949 111.713C32.4635 110.972 33.3625 112.3 34.094 113.289C35.6726 115.422 39.1905 116.746 41.7617 115.917C41.8275 116.053 42.4513 116.881 42.2879 116.968C39.635 116.785 28.4732 117.211 27.5544 116.968C25.6549 116.469 26.3993 113.871 26.4252 113.365C26.782 114.002 29.0622 112.352 30.3339 111.713C30.8082 111.476 31.3573 111.257 31.6882 110.811L32.5154 110.661C33.1033 111.066 33.7352 111.438 34.3949 111.713Z"
            fill="#21100C" />
        <path
            d="M34.3949 111.713C35.3098 112.095 40.5034 114.213 40.7845 114.416C41.3246 114.806 41.4926 115.358 41.7617 115.917C39.1905 116.746 35.6726 115.422 34.094 113.289C33.3625 112.3 32.4635 110.972 34.3949 111.713Z"
            fill="#502319" />
        <path
            d="M16.2027 110.661C16.4399 111 17.4824 111.549 17.8571 111.713C17.9587 114.585 20.0436 115.949 22.7443 116.218C23.4579 116.29 24.588 116.473 24.4724 115.617C25.2996 116.879 25.5268 116.594 26.9539 116.968H8.46126V116.668L10.6418 116.292C10.0757 114.868 10.5322 114.46 10.6418 113.664C12.0211 113.116 13.2449 112.26 14.5504 111.561C14.6421 111.511 15.4713 110.647 16.2047 110.659L16.2027 110.661Z"
            fill="#21100C" />
        <path
            d="M24.4704 115.619C24.586 116.475 23.4539 116.29 22.7423 116.22C20.0416 115.951 17.9567 114.587 17.855 111.715C18.6862 112.077 23.8625 114.169 24.0937 114.418C24.2352 114.567 24.3568 115.445 24.4704 115.619Z"
            fill="#502319" />
        <path
            d="M36.7998 63.2066V63.0573C36.7301 60.1565 36.5447 57.2419 36.3494 54.3471C36.6484 61.1659 37.2742 58.7689 37.8522 52.7704C38.0137 51.108 38.0017 49.4097 38.0017 47.7394C38.1353 47.6518 40.2819 45.7764 40.4075 45.637C42.0857 48.1814 42.9468 51.2115 42.3628 54.2715C41.9143 56.6187 38.6714 61.6616 36.7998 63.2066Z"
            fill="#F9D8CC" />
        <path
            d="M38.0016 47.7374C38.0016 49.4077 38.0115 51.106 37.8521 52.7684C37.2741 58.7669 36.6482 61.1639 36.3492 54.3451C36.2197 52.4339 36.1459 50.5485 36.0483 48.6393C36.5426 48.2869 37.9119 47.7971 38.0036 47.7374H38.0016Z"
            fill="#E18B6A" />
        <path
            d="M7.02988 47.2875C3.63749 52.8619 10.2489 61.1978 11.0142 61.1042C11.6321 61.0285 10.5797 58.5618 10.488 57.875C10.3704 56.995 10.6455 56.8756 10.6375 56.8238C10.3186 54.2735 9.58114 51.6674 10.0356 49.0892C11.4567 49.4715 10.6136 48.5596 10.1851 48.038C10.2329 48.0798 11.1896 48.5218 11.2375 48.7129C11.3929 49.3321 10.3704 49.4077 10.3346 49.4635C10.1452 49.7681 10.6315 53.7777 10.785 54.4188C11.3232 56.6526 13.2745 59.5533 14.2432 61.7015C14.2432 62.1434 14.297 62.5595 14.0937 62.9776L15.8975 64.5544C15.5208 64.7933 14.8531 66.2964 14.4684 66.3562C13.8505 66.4517 9.61901 62.3425 8.9812 61.6258C5.00681 57.1642 1.86756 51.5201 5.82401 45.9317C6.21068 45.4638 6.68107 46.8614 7.02589 47.2835L7.02988 47.2875Z"
            fill="#E18B6A" />
        <path
            d="M10.1874 48.038C10.6139 48.5596 11.459 49.4715 10.0379 49.0892C9.50972 48.9459 7.66769 47.0605 7.02988 47.2875C6.68306 46.8654 6.215 45.4678 5.82833 45.9356C5.85823 45.8938 5.84427 45.426 6.35452 45.0338C7.63215 46.0471 8.95562 46.961 10.1894 48.038H10.1874Z"
            fill="#E18B6A" />
        <path
            d="M10.0379 49.0892C9.58347 51.6674 10.3202 54.2735 10.6391 56.8238C10.6451 56.8756 10.372 56.995 10.4896 57.875C10.5813 58.5599 11.6337 61.0285 11.0158 61.1042C10.2505 61.1978 3.6391 52.8619 7.03149 47.2875C7.6693 47.0605 9.511 48.9479 10.0392 49.0892H10.0379Z"
            fill="#FCC091" />
        <path
            d="M33.6433 33.7713L31.5385 34.5975C34.8651 35.6726 35.5787 34.6453 35.5986 37.3768C35.5249 39.1368 35.5607 41.0182 35.5986 42.7841C35.6046 43.0847 35.5906 43.3853 35.5986 43.6859C35.6744 46.3358 36.0192 48.044 36.0491 48.6413C36.1467 50.5525 36.2198 52.4359 36.3494 54.3471C36.5447 57.2419 36.7321 60.1565 36.7998 63.0573C36.3215 63.1568 35.764 63.1329 35.2976 63.2066C35.3834 57.1403 34.5801 50.9726 33.7191 45.0358C31.8255 46.0889 29.1029 48.4581 29.1328 46.9888C28.9713 45.8978 27.9528 39.0392 27.7794 38.653C27.6738 38.4181 27.1575 38.1294 26.8765 38.1274C27.2054 37.7372 25.7444 36.6561 25.0727 36.3256C25.4115 36.033 25.7822 35.2247 26.3503 35.2744C26.4519 35.2824 27.5562 36.0648 28.0784 36.3256L28.1541 37.8268C29.641 36.678 30.8588 39.6962 31.387 38.428C31.8255 37.3728 31.2655 34.3009 31.2376 32.9471C31.4249 32.6425 33.3324 33.6499 33.6433 33.7733V33.7713Z"
            fill="#31ABBF" />
        <path
            d="M18.9077 34.2213C18.8459 35.3242 24.0401 41.8424 22.8163 38.5773C23.3365 38.203 23.7372 37.6894 24.1697 37.2255C24.3072 37.5162 25.3556 38.2309 25.523 38.2767C25.3437 38.9257 25.3875 39.5668 25.3736 40.2298C25.3317 42.0912 25.1443 43.9328 25.0726 45.7863H19.4339C18.6745 45.1751 18.6625 43.8153 18.0048 43.9846C18.0048 43.885 18.0048 43.7835 18.0048 43.6839C17.9689 40.5881 17.9849 37.4744 17.5543 34.3726C17.6221 34.3686 17.7038 34.1158 18.9077 34.2233V34.2213Z"
            fill="#3A93AC" />
        <path
            d="M18.0068 44.2832C18.0507 50.6919 17.7437 57.0966 17.8573 63.5052C12.6491 63.2026 15.033 63.6087 14.3992 58.6992C14.4649 54.6637 14.6902 50.6421 14.8496 46.6106L12.6691 49.3898C12.3681 49.4336 12.0313 48.8145 11.9934 48.7886C12.7847 49.3998 14.0244 46.949 14.1739 46.3856C15.5811 45.9894 16.6694 44.9044 18.0088 44.2832H18.0068Z"
            fill="#244A61" />
        <path
            d="M14.096 34.8225L13.6455 35.1988C13.2728 36.5825 8.64266 44.6555 8.83401 45.2607C9.25457 46.5867 14.4528 43.4809 15.4494 43.1584C15.3118 39.8873 15.838 40.2815 15.7503 43.3077C16.3343 43.9249 17.2354 43.6143 18.0048 43.6839C18.0048 43.7835 18.0048 43.885 18.0048 43.9846C18.0048 44.0841 18.0046 44.1856 18.0046 44.2852C16.6672 44.9063 15.5769 45.9914 14.1697 46.3876C14.0203 46.951 12.7805 49.4018 11.9892 48.7906C11.2657 48.3167 6.11333 44.0005 6.12528 43.6103C8.48122 40.4315 10.8365 37.2527 13.1911 34.0739C13.6754 34.1596 13.797 34.3925 14.094 34.8245L14.096 34.8225Z"
            fill="#2F5974" />
        <path
            d="M41.1594 43.9826L39.806 45.1831C39.7741 44.6535 38.3669 41.2372 38.0022 40.3771C36.0389 35.7523 35.718 34.4701 35.5964 37.3728C35.5765 34.6413 34.8649 35.6686 31.5363 34.5936L33.6411 33.7673C34.4145 34.072 35.1719 34.4343 35.9711 34.6692C37.0176 35.7124 40.9162 43.232 41.1574 43.9806L41.1594 43.9826Z"
            fill="#32BECC" />
        <path
            d="M39.8052 45.1851L41.1586 43.9846C41.1665 44.0065 41.2921 44.0463 41.4595 44.3609C40.7121 44.9601 40.4633 45.5753 40.4075 45.637C40.2819 45.7764 38.1353 47.6518 38.0017 47.7394C37.912 47.7991 36.5404 48.2889 36.0461 48.6413C36.0162 48.044 35.6694 46.3358 35.5956 43.6859C36.2912 44.1498 39.9009 46.7877 39.8052 45.1871V45.1851Z"
            fill="#244A61" />
        <path
            d="M20.2604 35.1232C20.2185 35.0794 20.067 35.2585 19.4332 34.2213L18.9077 34.2213C17.7038 34.1157 17.6214 34.3666 17.5536 34.3706C16.3796 34.4542 15.2455 34.5796 14.0955 34.8205C13.7985 34.3885 13.6769 34.1556 13.1926 34.07C14.8688 33.3473 17.5476 33.5304 18.8312 32.4175C19.3069 33.3187 19.7833 34.22 20.2604 35.1212V35.1232Z"
            fill="#244A61" />
        <path
            d="M20.2604 35.1232C20.4617 35.3382 22.7426 38.3762 22.8163 38.5773C24.0401 41.8424 18.8459 35.3242 18.9077 34.2213L19.4332 34.2213C20.067 35.2565 20.2185 35.0774 20.2604 35.1232Z"
            fill="#226679" />
        <path
            d="M26.876 38.1254C26.7504 38.1095 26.7325 38.1613 26.7265 38.2747C26.2163 37.9084 25.5824 38.2907 25.5246 38.2747C25.3572 38.2289 24.3088 37.5142 24.1713 37.2235C24.4822 36.8891 24.7234 36.6243 25.0742 36.3217C25.7459 36.6542 27.2069 37.7332 26.878 38.1234L26.876 38.1254Z"
            fill="#226679" />
        <path
            d="M31.386 38.426C30.8578 39.6962 29.6399 36.676 28.153 37.8248L28.0773 36.3236C28.1451 36.3575 28.2168 36.1046 28.6035 36.3236C29.2293 36.678 30.5229 38.0159 31.386 38.426Z"
            fill="#187787" />
        <path
            d="M25.072 45.7843C25.06 46.075 25.0839 46.4931 25.072 46.8355C25.0042 48.8682 24.7292 57.1583 24.9225 58.1736C24.9584 58.3568 26.6187 61.363 26.8021 61.4028C27.693 60.9848 27.8764 60.2641 27.9302 60.2023C28.3169 59.7524 28.4544 59.4 28.5321 59.3005C29.1241 58.532 29.8317 57.8232 30.336 56.9731C29.8436 53.6583 29.6204 50.3017 29.1341 46.9868C29.1042 48.4581 31.8269 46.087 33.7204 45.0338C34.5814 50.9706 35.3847 57.1404 35.299 63.2046C29.9991 64.0567 23.2682 63.8198 17.8587 63.5052C17.7451 57.0966 18.0526 50.6919 18.0088 44.2832C18.0088 44.1837 18.0082 44.0821 18.0082 43.9826C18.6639 43.8134 18.6759 45.1731 19.4373 45.7843H25.076H25.072Z"
            fill="url(#paint2_linear_192_1601)" />
        <path
            d="M39.8052 45.1851C39.8989 46.7838 36.2918 44.1478 35.5961 43.6839C35.5882 43.3833 35.6021 43.0827 35.5961 42.7821C36.3974 41.9817 37.1993 41.1807 38.0019 40.3791C38.3667 41.2391 39.7733 44.6555 39.8052 45.1851Z"
            fill="#187787" />
        <path
            d="M38.0019 40.3791C37.2006 41.1794 36.3987 41.9804 35.5961 42.7821C35.5583 41.0162 35.5217 39.1348 35.5955 37.3748C35.7171 34.4721 36.0386 35.7542 38.0019 40.3791Z"
            fill="#3A93AC" />
        <path
            d="M17.5543 34.3726C17.9849 37.4724 17.9689 40.5881 18.0048 43.6839C17.2354 43.6143 16.3343 43.9249 15.7503 43.3077C15.84 40.2815 15.3118 39.8873 15.4494 43.1584C14.4528 43.4809 9.25457 46.5867 8.83401 45.2607C8.64266 44.6555 13.2728 36.5825 13.6455 35.1988L14.096 34.8225C15.2461 34.5816 16.3804 34.4562 17.5543 34.3726Z"
            fill="#36738E" />
        <path
            d="M29.1321 46.9868C29.6204 50.3017 29.8417 53.6583 30.334 56.9731C29.8297 57.8232 29.1201 58.534 28.5302 59.3005C27.7727 53.3617 28.1355 47.2755 26.7263 41.4303C26.7742 40.4667 26.6546 39.6265 26.7263 38.2767C26.7323 38.1612 26.7509 38.1115 26.8765 38.1274C27.1575 38.1294 27.6718 38.4181 27.7794 38.653C27.9528 39.0372 28.9713 45.8958 29.1328 46.9888L29.1321 46.9868Z"
            fill="#EFA47B" />
        <path
            d="M26.7263 38.2767C26.6546 39.6285 26.7742 40.4667 26.7263 41.4303C26.6187 43.6103 26.2135 45.7744 26.1238 47.9624C26.062 49.4615 26.2234 57.1045 26.1238 57.5744C26.1039 57.6719 25.8846 58.0462 25.6733 57.9507C25.5019 57.6879 25.2986 57.4868 25.0714 57.2757C25.0754 54.0445 25.2508 50.8213 25.2209 47.5901L25.3704 40.2318C25.3843 39.5708 25.3425 38.9297 25.5199 38.2787C25.5777 38.2946 26.2135 37.9124 26.7217 38.2787L26.7263 38.2767Z"
            fill="#DC7155" />
        <path
            d="M25.2216 47.5881C25.2177 47.178 25.2954 46.8156 25.0722 46.8375C25.0841 46.4951 25.0606 46.077 25.0726 45.7863C25.1423 43.9328 25.3317 42.0912 25.3736 40.2298L25.2236 47.5881H25.2216Z"
            fill="#786551" />
        <path
            d="M28.5302 59.3005C28.4544 59.4 28.3146 59.7524 27.9279 60.2024C27.2064 59.4777 26.2354 58.8127 25.6733 57.9507C25.8846 58.0482 26.1039 57.6719 26.1238 57.5744C26.2234 57.1045 26.062 49.4635 26.1238 47.9624C26.2135 45.7744 26.6187 43.6103 26.7263 41.4303C28.1355 47.2775 27.7747 53.3637 28.5302 59.3005Z"
            fill="#E18B6A" />
        <path
            d="M25.2216 47.5881C25.2495 50.8193 25.0759 54.0445 25.0719 57.2738C25.2971 57.4868 25.5004 57.6859 25.6738 57.9487C26.2379 58.8127 27.2086 59.4757 27.9281 60.2004C27.8743 60.2621 27.6909 60.9828 26.8 61.4009C26.6166 61.361 24.9563 58.3548 24.9204 58.1716C24.7271 57.1563 25.0041 48.8662 25.0699 46.8335C25.2951 46.8136 25.2174 47.174 25.2194 47.5841L25.2216 47.5881Z"
            fill="#1C2D36" />
        <path
            d="M42.1653 20.6369C44.206 21.7758 43.4357 27.4149 40.0467 27.8165C39.8511 27.9498 39.1813 29.5837 38.6187 30.2812C37.2514 31.9809 33.8156 33.7135 31.6987 34.1307C31.6451 34.1411 31.581 34.1255 31.5257 34.1307C32.1713 33.807 32.6801 33.6824 31.8718 33.4383C34.3608 32.6283 37.3569 31.3111 38.7053 28.9398C39.91 26.8212 39.8494 24.7615 40.0034 24.2249C40.0623 24.0207 40.3583 23.8926 40.3496 23.6624C40.4448 23.6641 40.4656 23.5205 40.5227 23.6191C40.4084 24.4101 40.4327 25.2046 40.3496 25.9973C40.3167 26.3089 39.9602 27.0601 40.2198 27.1224C41.6131 26.7399 42.3176 25.4383 42.5114 24.0951C42.6516 23.1328 42.7001 22.3608 42.1653 21.5006C42.1462 21.4694 42.2034 21.2254 41.646 20.9813C41.9126 20.6767 40.6473 20.6819 41.0835 20.462C41.2964 20.3547 41.9039 20.7909 42.1653 20.6351V20.6369Z"
            fill="#121213" />
        <path
            d="M42.1653 20.6369C41.9056 20.7926 41.2964 20.3565 41.0835 20.4638C40.6474 20.6836 41.9126 20.6784 41.6461 20.983C41.5128 20.9242 41.1649 20.7442 41.0403 20.8532C40.8741 21.2461 40.9399 21.9869 40.8672 22.2812C40.7443 22.7831 40.6439 23.2107 40.2614 23.5793C40.0156 23.8165 39.9066 24.0536 39.7421 23.7957C40.1298 21.8277 39.1502 12.9051 38.444 11.7298C38.347 11.5689 38.3592 11.4269 38.2276 11.4702C30.9874 15.4114 21.7758 14.2188 15.5654 8.87564C15.0167 8.75448 13.414 9.62337 12.9708 10.0007C10.2344 12.3235 11.6848 18.9389 10.2897 22.456C9.92626 22.1687 9.53163 21.9748 9.12141 21.7636C8.12097 21.2513 7.10842 20.5001 6.18067 21.7636L5.92104 21.0713C6.86436 20.2561 6.96995 20.7321 7.56536 20.4222C6.2101 15.8666 5.59045 7.46325 11.3715 5.80336C12.0275 -1.27068 30.2795 -0.68046 35.3752 1.34811C37.5941 2.23258 41.698 5.60084 43.55 7.3594C42.6309 8.72505 41.7863 10.1634 40.5227 11.2521C41.016 14.224 41.0403 17.2444 41.042 20.2474C41.1078 20.3772 41.5491 20.2924 42.1671 20.6369H42.1653Z"
            fill="#121213" />
        <path
            d="M39.3113 5.49872C38.7401 5.722 39.6349 6.03529 39.9171 6.79687C39.3805 7.68307 38.5082 8.08982 37.6687 8.61255C38.1101 7.98424 35.7717 9.19931 34.252 9.56452C28.0485 11.0496 22.3505 9.78434 17.2116 6.10452C16.4777 5.39314 15.5067 4.79599 14.8334 4.02922C14.7745 3.96345 14.3903 3.60862 14.4007 3.55323C18.984 0.515565 29.7413 0.76481 34.5981 2.55798C36.3307 3.1984 37.9318 4.28192 39.313 5.49872H39.3113Z"
            fill="#121213" />
        <path
            d="M37.6687 8.61255C35.6228 9.88473 33.4489 10.7242 31.0084 10.8609C25.3831 11.176 19.6279 8.97257 15.5258 5.15255C15.2835 4.7908 15.0065 4.43251 14.8334 4.02749C15.5085 4.79426 16.4778 5.39141 17.2116 6.1028C22.3506 9.78261 28.0486 11.0479 34.252 9.56279C35.7717 9.19931 38.1101 7.98425 37.6687 8.61082L37.6687 8.61255Z"
            fill="#262829" />
        <path
            d="M31.0083 10.8627C31.7197 10.9406 30.2727 11.259 30.0131 11.2954C24.7738 12.0327 18.4907 9.60606 15.524 5.15428C19.6279 8.97603 25.3813 11.1794 31.0066 10.8627H31.0083Z"
            fill="#121213" />
        <path
            d="M39.3113 5.49872C41.307 7.25901 42.3922 8.28195 39.7872 10.3434C37.7379 11.9635 40.6181 8.6939 39.9171 6.79687C39.6367 6.03702 38.7401 5.722 39.3113 5.49872Z"
            fill="#262829" />
        <path
            d="M41.6477 20.983C42.2034 21.2271 42.148 21.4711 42.167 21.5023L41.4747 22.7139C41.3345 22.5616 41.1164 22.4179 40.9554 22.2812H40.8689C40.9416 21.9869 40.8758 21.2461 41.0419 20.8532C41.1648 20.7442 41.5145 20.9242 41.6477 20.983Z"
            fill="#FDFEFD" />
        <path
            d="M40.9554 22.2794C40.8931 23.356 41.1925 25.7118 40.3496 25.9991C40.4327 25.2046 40.4084 24.4101 40.5227 23.6209C40.4673 23.5222 40.4448 23.6659 40.3496 23.6641C40.3427 23.6641 40.3704 23.5689 40.2631 23.5776C40.6456 23.2089 40.7442 22.7814 40.8689 22.2794H40.9554Z"
            fill="#F8B697" />
        <path
            d="M41.4747 22.7122C41.8538 23.1206 42.1273 23.6814 42.5132 24.0969C42.3176 25.44 41.6149 26.7433 40.2216 27.1241C39.9619 27.0618 40.3185 26.3106 40.3514 25.9991C41.1926 25.7118 40.8949 23.356 40.9572 22.2794C41.1182 22.4162 41.3362 22.5598 41.4764 22.7122H41.4747Z"
            fill="#FAE8C3" />
        <path
            d="M42.5115 24.0969C42.1255 23.6832 41.852 23.1224 41.473 22.7122L42.1653 21.5006C42.7001 22.3625 42.6516 23.1328 42.5114 24.0951L42.5115 24.0969Z"
            fill="#F0EBD9" />
        <path
            d="M6.18238 21.7602C4.69383 23.7888 6.6549 28.7356 10.9838 28.334C13.2356 31.1415 16.7233 32.5348 20.1089 33.4366C19.7662 33.7533 19.0289 32.9156 18.9838 33.5664C18.9631 33.8797 19.7922 33.7014 19.9358 34.1289C19.6762 34.0424 19.735 34.148 19.6762 34.1289C16.3789 33.0039 12.9206 31.7127 10.6376 28.9398C5.67177 29.2375 3.66397 23.022 5.92275 21.0678L6.18238 21.7602Z"
            fill="#121213" />
        <path
            d="M38.4457 11.7264C38.2086 11.8181 38.0303 12.0016 37.8399 12.1591C35.1657 14.3867 33.3708 14.8939 29.8381 15.0133C24.2872 15.2019 19.2037 13.523 15.0462 9.82415C13.9419 10.7086 13.1526 12.1054 12.9276 13.5005C12.5901 15.5862 12.7112 25.6962 12.4949 26.302C12.1435 27.2851 10.7813 27.157 9.98684 26.9511L11.3715 24.5728C11.0323 24.2388 9.10929 22.096 8.95005 22.0216L9.12314 21.7619C9.53336 21.9731 9.92799 22.1652 10.2915 22.4543C11.6883 18.9372 10.2361 12.3201 12.9726 9.99897C13.4157 9.62337 15.0202 8.75448 15.5671 8.87391C21.7775 14.2171 30.9909 15.4097 38.2293 11.4685C38.3609 11.4252 38.3488 11.5671 38.4457 11.7281V11.7264Z"
            fill="#F8B697" />
        <path
            d="M40.2631 23.5776C40.3704 23.5689 40.3427 23.6641 40.3496 23.6641C40.3583 23.8943 40.0623 24.0224 40.0034 24.2267C39.8494 24.7632 39.9117 26.823 38.7053 28.9415C38.3366 29.0991 37.0973 30.6378 36.9329 30.6707C36.5106 30.7572 36.038 30.1099 36.3704 29.8052C37.2981 29.5906 37.7724 28.7529 38.0995 27.903C40.0969 23.6676 38.4543 16.8359 37.8399 12.1608C38.0303 12.0033 38.2086 11.8198 38.4457 11.7281C39.1519 12.9034 40.1298 21.826 39.7438 23.794C39.9082 24.0519 40.0155 23.8147 40.2631 23.5776Z"
            fill="#FDFEFD" />
        <path
            d="M20.1089 33.4383C24.7736 34.6811 27.2348 34.9494 31.8736 33.4383C32.6819 33.6824 32.173 33.807 31.5274 34.1307C31.4668 34.1618 31.4253 34.1861 31.3543 34.2172C31.2176 34.2761 31.0601 34.3436 30.9216 34.3903C29.9315 34.7278 28.6732 34.8871 27.6347 35.0826C27.607 35.0878 27.5758 35.0775 27.5481 35.0826C27.0808 35.1657 26.3712 35.1277 26.1634 35.2557C25.9869 35.5881 25.7723 35.8996 25.5576 36.2077L25.298 36.0346C25.3621 35.9256 25.8121 35.1553 25.6875 35.0826C25.1924 35.2609 21.6649 34.3315 21.5784 34.5201C21.5628 34.553 21.9955 34.8282 21.9246 34.9961C21.7463 34.8507 21.6061 34.7642 21.4053 34.6499C21.3915 34.6413 21.4901 34.5305 21.1889 34.3903C20.841 34.2864 20.2093 34.2224 19.9341 34.1307C19.7921 33.7049 18.9613 33.8814 18.9821 33.5681C19.0254 32.9173 19.7644 33.7551 20.1072 33.4383H20.1089Z"
            fill="#092E36" />
        <path
            d="M8.95002 22.0198C9.10926 22.0942 11.0322 24.2388 11.3715 24.5711L9.9868 26.9493C6.35372 26.0043 6.74663 20.9951 8.94829 22.0181L8.95002 22.0198Z"
            fill="#F8B697" />
        <path
            d="M38.1012 27.903C37.7741 28.7529 37.2999 29.5906 36.3721 29.8052C34.418 30.2587 32.7148 28.7996 33.691 27.427C34.0579 26.9112 37.9178 25.0956 38.103 27.903H38.1012Z"
            fill="#F8B697" />
        <path
            d="M37.8416 12.1591C38.4561 16.8359 40.0987 23.6659 38.1013 27.9013C37.9178 25.0938 34.0562 26.9095 33.6893 27.4253C32.7131 28.7979 34.4163 30.257 36.3704 29.8035C36.0381 30.1064 36.5106 30.7555 36.9329 30.669C37.0991 30.6343 38.3366 29.0956 38.7053 28.9398C37.3569 31.3111 34.3608 32.6266 31.8718 33.4383C27.2331 34.9494 24.7736 34.6811 20.1072 33.4383C16.7199 32.5365 13.2339 31.1415 10.9821 28.3357C6.65493 28.7373 4.69386 23.7905 6.18067 21.7619C7.10841 20.4984 8.12097 21.2496 9.12141 21.7619L8.94832 22.0216C6.74666 20.9986 6.35203 26.0077 9.98684 26.9528C10.7813 27.1588 12.1452 27.2886 12.4949 26.3037C12.7112 25.6979 12.5883 15.5879 12.9276 13.5022C13.1543 12.1089 13.9419 10.7104 15.0462 9.82589C19.2037 13.5265 24.2855 15.2037 29.8381 15.015C33.3708 14.8956 35.1639 14.3884 37.8399 12.1608L37.8416 12.1591Z"
            fill="url(#paint3_linear_192_1601)" />
        <path
            d="M17.7304 20.0311C21.0537 19.4062 20.9672 27.3422 17.5574 26.4318C15.264 25.8191 15.6932 20.4136 17.7304 20.0311Z"
            fill="#24110C" />
        <path
            d="M15.7399 26.3453C16.5309 26.1895 17.09 26.6395 17.5556 26.5183C20.9308 27.7421 18.0939 30.9822 15.4803 29.1994C14.1319 28.2804 14.5958 26.5703 15.7399 26.3453Z"
            fill="#F8B697" />
        <path
            d="M23.2657 27.5569C24.3198 27.3682 23.4301 28.1938 24.1744 29.3293C25.4414 31.2626 29.5141 30.5495 28.9758 27.6417C30.8555 27.768 29.2597 30.0718 28.37 30.5824C27.2778 31.2107 25.6647 31.2851 24.5639 30.669C23.5167 30.0822 22.3691 27.7161 23.2657 27.5551V27.5569Z"
            fill="#5A2214" />
        <path
            d="M17.2977 15.7056C18.7793 15.5031 20.3336 16.1782 19.7624 17.1336C19.3487 17.8242 18.9939 16.2041 17.038 16.8307C16.5897 16.9744 15.6499 18.0423 15.437 17.3067C15.2189 16.5503 16.7144 15.7852 17.2959 15.7056H17.2977Z"
            fill="#121213" />
        <path
            d="M34.0782 20.0311C37.1107 19.6122 37.2042 27.4011 33.8186 26.3453C31.6688 25.6754 31.9718 20.3219 34.0782 20.0311Z"
            fill="#24110C" />
        <path
            d="M33.7321 15.7056C34.8294 15.5031 38.0471 16.507 36.3266 17.6944C34.53 15.7368 33.1315 17.3309 32.9532 17.2617C32.7438 17.1803 32.4391 15.9445 33.7321 15.7039V15.7056Z"
            fill="#121213" />
    </g>
    <defs>
        <linearGradient id="paint0_linear_192_1601" x1="33.2985" y1="9.47341" x2="-5.99762" y2="51.7844"
            gradientUnits="userSpaceOnUse">
            <stop stop-color="#2791AB" />
            <stop offset="1" stop-color="#337892" />
        </linearGradient>
        <linearGradient id="paint1_linear_192_1601" x1="38.3982" y1="5.14313" x2="-0.998945" y2="21.5722"
            gradientUnits="userSpaceOnUse">
            <stop stop-color="#F9E0B5" />
            <stop offset="1" stop-color="#FDCDA3" />
        </linearGradient>
        <linearGradient id="paint2_linear_192_1601" x1="33.2985" y1="15.7303" x2="-26.4372" y2="54.4655"
            gradientUnits="userSpaceOnUse">
            <stop stop-color="#2791AB" />
            <stop offset="1" stop-color="#337892" />
        </linearGradient>
        <linearGradient id="paint3_linear_192_1601" x1="38.3982" y1="8.54003" x2="-5.10619" y2="19.4658"
            gradientUnits="userSpaceOnUse">
            <stop stop-color="#F9E0B5" />
            <stop offset="1" stop-color="#FDCDA3" />
        </linearGradient>
    </defs>
</svg>
