<svg width="80" height="79" viewBox="0 0 80 79" fill="none" xmlns="http://www.w3.org/2000/svg">
  <path
    d="M31.2173 4.41225C25.9699 10.2952 23.1994 20.7417 24.4768 29.9024C25.6764 38.4915 35.8692 54.8714 37.604 57.6364H38.1132C37.3623 53.6276 34.6005 38.3991 34.2553 30.0788C33.7979 19.1533 35.0579 5.24427 37.5867 0.336182C35.0873 1.03252 32.8653 2.45443 31.2173 4.41225Z"
    fill="#374151" />
  <path
    d="M41.9062 57.6112H42.4068C44.133 54.8715 54.343 38.4916 55.5427 29.8772C56.82 20.7166 54.0496 10.2365 48.8021 4.3871C47.1508 2.43288 44.9301 1.01176 42.4327 0.311035C44.9615 5.21912 46.2216 19.0861 45.7642 30.0537C45.4189 38.3739 42.6571 53.6024 41.9062 57.6112Z"
    fill="#374151" />
  <path
    d="M35.9773 29.978C36.3226 38.3822 39.2138 54.1486 39.8611 57.6112H40.1459C40.8019 54.1486 43.6931 38.4158 44.0384 29.9864C44.5735 17.1531 42.7697 2.68936 40.3272 0.210106C40.2525 0.127491 40.1652 0.0566182 40.0683 0L39.9474 0C39.849 0.0544375 39.7613 0.125594 39.6885 0.210106C37.2461 2.68936 35.4422 17.1531 35.9773 29.978Z"
    fill="#374151" />
  <path
    d="M35.362 57.6112H35.5692C32.7987 53.1738 23.9264 38.4831 22.7613 30.1293C21.4149 20.5232 24.358 9.48845 29.9075 3.30292C30.6874 2.43858 31.5549 1.65301 32.4967 0.95813C26.6451 2.44052 21.4471 5.73531 17.6865 10.3457C12.9224 16.2287 10.9891 23.4815 12.5081 29.8267C14.5967 38.5504 33.0059 55.4681 35.362 57.6112Z"
    fill="#374151" />
  <path
    d="M62.3249 10.3541C58.5684 5.74544 53.3774 2.44833 47.532 0.95813C48.474 1.65275 49.3415 2.43834 50.1212 3.30292C55.6448 9.49685 58.6137 20.5232 57.2501 30.1293C56.085 38.4831 47.2127 53.1738 44.4336 57.6112H44.6494C46.9969 55.4765 65.3629 38.5504 67.486 29.8267C69.0137 23.4815 67.089 16.2034 62.3249 10.3541Z"
    fill="#374151" />
  <path
    d="M50.9489 69.3856C50.7879 69.0914 50.5479 68.8454 50.2546 68.6737C49.9612 68.502 49.6255 68.4111 49.2832 68.4107H48.4805L45.8913 63.5026V58.8298L45.3994 59.2837H44.1307V62.8639H35.8798V59.3005H34.6801L34.1796 58.8298V63.511L31.5213 68.4107H30.7273C30.3863 68.4117 30.052 68.5029 29.7601 68.6747C29.4682 68.8464 29.2298 69.0921 29.0702 69.3856C28.9107 69.6791 28.836 70.0092 28.8543 70.3408C28.8725 70.6724 28.9829 70.9929 29.1738 71.2681L32.6778 76.3107C33.2578 77.1388 34.0366 77.8166 34.9465 78.2852C35.8564 78.7539 36.87 78.9993 37.8994 79H42.068C43.1021 79.0016 44.1207 78.7556 45.0343 78.2837C45.9478 77.8118 46.7282 77.1285 47.3068 76.2939L50.8108 71.2513C51.0047 70.9815 51.1199 70.6655 51.1442 70.337C51.1685 70.0085 51.101 69.6797 50.9489 69.3856ZM35.5432 64.5447H44.4673L46.53 68.4107H33.4719L35.5432 64.5447Z"
    fill="#374151" />
</svg>
