<svg width="80" height="80" viewBox="0 0 80 80" fill="none" xmlns="http://www.w3.org/2000/svg">
  <g clip-path="url(#clip0_1066_4402)">
    <path
      d="M39.9926 54.3613C58.0644 54.3613 74.1058 49.9129 79.1719 43.6474C75.6413 35.5494 63.5947 30.9213 63.5947 30.9213H63.4705C62.7412 24.9885 59.5257 20.7104 59.5257 20.7104C57.3999 17.5666 54.1168 15.0068 50.0033 13.5291C46.7841 12.3737 43.4184 11.9991 39.9147 12C36.499 12.001 33.2029 12.3851 30.0615 13.5005C25.9638 14.9545 22.6769 17.482 20.5363 20.5963C20.5104 20.6343 20.4844 20.6723 20.4594 20.7104C20.4594 20.7104 17.2467 24.9895 16.5174 30.9213H16.3904C16.3904 30.9213 4.33362 35.5532 0.808594 43.6578C5.7996 49.9158 21.8513 54.3613 39.9926 54.3613ZM69.5263 39.2389C71.3045 39.2389 72.7464 40.7185 72.7464 42.5433C72.7464 44.3681 71.3045 45.8478 69.5263 45.8478C67.748 45.8478 66.3061 44.3681 66.3061 42.5433C66.3061 40.7185 67.7471 39.2389 69.5263 39.2389ZM43.2127 47.5974C43.2127 49.4222 41.7708 50.9019 39.9926 50.9019C38.2143 50.9019 36.7724 49.4222 36.7724 47.5974C36.7724 45.7726 38.2143 44.293 39.9926 44.293C41.7708 44.293 43.2127 45.7726 43.2127 47.5974ZM25.5125 20.2882C31.4654 14.6492 39.6757 14.693 40.0037 14.6863C40.5152 14.693 40.9248 15.1228 40.9183 15.6477C40.9127 16.1698 40.4995 16.5882 39.9916 16.5882C39.987 16.5882 39.987 16.5882 39.9722 16.5882C39.6553 16.5882 32.0826 16.6509 26.7682 21.6841C26.5912 21.8534 26.3651 21.937 26.1399 21.937C25.8897 21.937 25.6413 21.8343 25.4597 21.6309C25.1122 21.2448 25.1354 20.6438 25.5125 20.2882ZM20.2018 29.9884C20.6123 28.1265 21.2387 26.394 22.0635 24.8354C22.309 24.3752 22.8687 24.204 23.32 24.4541C23.7695 24.7052 23.9363 25.2824 23.6916 25.7436C22.9484 27.1481 22.3823 28.7171 22.0097 30.4078C21.9124 30.85 21.5297 31.1485 21.1062 31.1485C21.0386 31.1485 20.97 31.1409 20.9005 31.1257C20.402 31.0097 20.0888 30.5 20.2018 29.9884ZM10.4579 39.2389C12.2362 39.2389 13.6781 40.7185 13.6781 42.5433C13.6781 44.3681 12.2362 45.8478 10.4579 45.8478C8.67968 45.8478 7.23779 44.3681 7.23779 42.5433C7.23779 40.7185 8.67968 39.2389 10.4579 39.2389Z"
      fill="#374151" />
    <path
      d="M79.8575 45.6849C73.71 51.922 57.7454 56.2629 39.9998 56.2629C21.903 56.2629 6.21922 52.0209 0.134744 45.7201C-1.30992 52.425 9.02794 58.0906 23.1836 60.659C23.3569 60.8977 28.612 68 39.9989 68C51.3857 68 56.6408 60.8967 56.8141 60.659C70.9958 58.0858 81.3466 52.405 79.8575 45.6849Z"
      fill="#374151" />
  </g>
  <defs>
    <clipPath id="clip0_1066_4402">
      <rect width="80" height="80" fill="white" />
    </clipPath>
  </defs>
</svg>
