<svg width="64" height="64" viewBox="0 0 64 64" fill="none" xmlns="http://www.w3.org/2000/svg">
  <circle cx="32" cy="32" r="32" fill="#20243D" />
  <path
    d="M20 31C20 29.1144 20 28.1716 20.5858 27.5858C21.1716 27 22.1144 27 24 27H44V42H24C22.1144 42 21.1716 42 20.5858 41.4142C20 40.8284 20 39.8856 20 38V31Z"
    fill="#F0F4FF" />
  <path
    d="M19.8079 23.7937C19.8094 24.1973 19.9703 24.584 20.2557 24.8694C20.541 25.1548 20.9276 25.3159 21.3312 25.3175H44V22H21.3312C20.9278 22.0016 20.5413 22.1625 20.256 22.4478C19.9707 22.733 19.8096 23.1194 19.8079 23.5228V23.7937Z"
    fill="#F0F4FF" />
  <path fill-rule="evenodd" clip-rule="evenodd"
    d="M44.8135 30.7489H38.9692H38.9432H38.9171H38.891H38.865H38.8394L38.8138 30.7512L38.7882 30.754L38.7626 30.7572L38.7375 30.7605L38.7119 30.7642L38.6867 30.7684L38.6616 30.7726L38.6365 30.7773L38.6118 30.7824L38.5871 30.7875L38.5625 30.7931L38.5378 30.7991L38.5131 30.8052L38.4889 30.8117L38.4647 30.8187L38.4405 30.8257L38.4168 30.8331L38.3926 30.8406L38.3688 30.8485L38.3456 30.8568L38.3218 30.8652L38.2986 30.8741L38.2753 30.8829L38.2525 30.8922L38.2297 30.902L38.2069 30.9118L38.1845 30.922L38.1617 30.9322L38.1394 30.9429L38.1171 30.9537L38.0952 30.9653L38.0733 30.9765L38.0514 30.9881L38.03 31.0002L38.0086 31.0123L37.9877 31.0249L37.9663 31.0374L37.9453 31.0505L37.9085 31.0742L37.9039 31.077L37.8834 31.091L37.8634 31.1049L37.8429 31.1189L37.8224 31.1403C37.8099 31.1491 37.7978 31.1584 37.7857 31.1677H37.7829H37.7806C37.772 31.1739 37.7636 31.1806 37.7554 31.1872L37.7466 31.1943H37.7442L37.7252 31.2096L37.7066 31.2255L37.6879 31.2413L37.6693 31.2576L37.6512 31.2739L37.633 31.2906L37.6153 31.3074L37.5981 31.3246L37.5809 31.3418L37.5637 31.3595L37.5464 31.3772L37.5297 31.3949L37.5129 31.413L37.4966 31.4312L37.4804 31.4498L37.4645 31.4684L37.4487 31.487L37.4334 31.5061L37.4026 31.5447L37.3733 31.5843L37.357 31.6104L37.3431 31.6304L37.3291 31.6504L37.3151 31.6709L37.2886 31.7123L37.2765 31.7346L37.2639 31.756L37.2514 31.7774L37.2393 31.7989L37.2272 31.8203L37.2155 31.8421L37.2039 31.864L37.1927 31.8859L37.182 31.9082L37.1713 31.9306L37.1611 31.9534L37.1508 31.9757L37.1411 31.9985L37.1313 32.0218L37.122 32.0446L37.1131 32.0679L37.1043 32.0911L37.0959 32.1149L37.0875 32.1381L37.0796 32.1619L37.0717 32.1861L37.0647 32.2098L37.0573 32.234L37.0508 32.2582L37.0443 32.2824L37.0382 32.3071L37.0322 32.3318L37.0266 32.3564L37.0215 32.3811L37.0163 32.4062L37.0117 32.4309L37.0075 32.456L37.0033 32.4812L36.9996 32.5068L36.9963 32.5319L36.9931 32.5575L36.9903 32.5831L36.9879 32.6087V32.6347V32.6603V32.6864V32.7125V32.7385V32.7646V32.7907V33.1248V33.1509V33.1774V33.2035V33.2291V33.2547V33.2807V33.3063L36.9903 33.3319L36.9931 33.3575L36.9963 33.3831L36.9996 33.4087L37.0033 33.4339L37.0075 33.459L37.0117 33.4841L37.0163 33.5093L37.0215 33.5339L37.0266 33.5591L37.0322 33.5837L37.0382 33.6079L37.0443 33.6326L37.0508 33.6568L37.0573 33.681L37.0647 33.7052L37.0717 33.7294L37.0796 33.7531L37.0875 33.7769L37.0959 33.8006L37.1043 33.8239L37.1131 33.8472L37.122 33.8704L37.1313 33.8937L37.1411 33.9165L37.1508 33.9393L37.1611 33.9621L37.1713 33.9845L37.182 34.0068L37.1927 34.0291L37.2039 34.051L37.2155 34.0729L37.2272 34.0948L37.2393 34.1166L37.2514 34.138L37.2639 34.1594L37.2765 34.1804L37.2895 34.2013L37.3026 34.2223L37.3161 34.2428L37.33 34.2632L37.344 34.2837L37.358 34.3037L37.3724 34.3237L37.3868 34.3433L37.4017 34.3628L37.4171 34.3824L37.4324 34.4015L37.4478 34.4205L37.4636 34.4396L37.4794 34.4582L37.4957 34.4764L37.512 34.495L37.5288 34.5127L37.5455 34.5309L37.5627 34.5485L37.58 34.5658L37.5976 34.583L37.6153 34.6002L37.633 34.617L37.6512 34.6337L37.6693 34.65L37.6879 34.6663L37.7066 34.6821L37.7252 34.6979L37.7442 34.7138L37.7633 34.7287L37.7829 34.7435L37.8024 34.7584L37.8224 34.7729L37.842 34.7873L37.8625 34.8017L37.8825 34.8157L37.903 34.8292L37.9239 34.8427L37.9444 34.8557L37.9653 34.8687L37.9867 34.8813L38.0077 34.8939L38.0296 34.906L38.051 34.9181L38.0728 34.9297L38.0947 34.9414L38.1166 34.9525L38.1389 34.9632L38.1613 34.9739L38.1841 34.9846L38.2064 34.9944L38.2292 35.0046L38.2525 35.014L38.2753 35.0233L38.2986 35.0326L38.3218 35.0414L38.3456 35.0498L38.3688 35.0577L38.3926 35.0656L38.4168 35.0735L38.4405 35.081L38.4647 35.088L38.4889 35.0945L38.5131 35.101L38.5378 35.1075L38.5625 35.1131L38.5871 35.1187L38.6118 35.1238L38.6365 35.1284L38.6616 35.1331L38.6867 35.1378L38.7119 35.1415L38.7375 35.1452L38.7626 35.1489L38.7882 35.1517L38.8138 35.1545L38.8394 35.1573H38.865H38.891H38.9171H38.9432H38.9692H46.0138V30.7475L44.8135 30.7489ZM39.136 33.4601C39.208 33.5065 39.2885 33.5382 39.3727 33.5535H39.3807C39.4649 33.5688 39.5514 33.5673 39.6351 33.5491C39.7188 33.531 39.7982 33.4966 39.8686 33.4478C39.939 33.399 39.9991 33.3368 40.0454 33.2648C40.0918 33.1928 40.1235 33.1123 40.1388 33.028C40.1541 32.9437 40.1526 32.8573 40.1345 32.7736C40.1164 32.6898 40.0819 32.6105 40.0331 32.5401C39.9843 32.4697 39.9221 32.4096 39.8501 32.3632C39.7781 32.3169 39.6977 32.2851 39.6134 32.2699H39.6055C39.5212 32.2546 39.4347 32.256 39.351 32.2742C39.2673 32.2923 39.188 32.3268 39.1175 32.3756C39.0471 32.4244 38.987 32.4865 38.9407 32.5586C38.8943 32.6306 38.8626 32.711 38.8473 32.7953C38.832 32.8796 38.8335 32.9661 38.8516 33.0498C38.8698 33.1335 38.9042 33.2128 38.953 33.2832C39.0018 33.3536 39.064 33.4137 39.136 33.4601Z"
    fill="#14264E" />
  <path fill-rule="evenodd" clip-rule="evenodd"
    d="M31.4559 44.0212C31.465 43.9917 31.4762 43.963 31.4894 43.9351C32.1331 42.2642 32.3104 40.4498 32.0024 38.6859C31.6944 36.922 30.9126 35.275 29.7408 33.9212C28.569 32.5673 27.0511 31.5574 25.3496 30.9997C23.6482 30.4419 21.8271 30.3571 20.0811 30.7545C19.8509 30.8069 19.6225 30.8676 19.396 30.9365C19.3642 30.9492 19.3313 30.9593 19.2978 30.9667C17.6913 31.4749 16.2415 32.3856 15.0863 33.6121C13.931 34.8387 13.1087 36.3404 12.6976 37.9744C12.2864 39.6084 12.3001 41.3204 12.7372 42.9476C13.1744 44.5749 14.0205 46.0633 15.1952 47.2712C15.2974 47.3761 15.3613 47.5124 15.3766 47.6581C15.3919 47.8037 15.3576 47.9503 15.2794 48.0741L14.4761 49.3507C14.387 49.4944 14.3581 49.6674 14.3957 49.8322C14.4332 49.997 14.5342 50.1404 14.6767 50.2313L16.6831 51.4944C16.8268 51.5835 16.9997 51.6124 17.1646 51.5749C17.3294 51.5373 17.4728 51.4364 17.5637 51.2939L18.367 50.0167C18.4448 49.893 18.562 49.799 18.6996 49.7499C18.8373 49.7007 18.9875 49.6993 19.1261 49.7459C21.5235 50.5491 24.1376 50.4034 26.4309 49.3386C28.7242 48.2739 30.5224 46.371 31.4559 44.0212ZM26.657 33.5759C28.4177 34.7099 29.6705 36.482 30.1526 38.52C30.6346 40.558 30.3084 42.7035 29.2424 44.5062C29.2265 44.5387 29.208 44.5698 29.187 44.5993C29.167 44.6319 29.147 44.6644 29.1265 44.6966L29.0832 44.7659C27.9288 46.5593 26.1133 47.8248 24.0312 48.2873C21.9491 48.7497 19.7686 48.3719 17.9635 47.2359L17.8941 47.1926C16.101 46.0378 14.8359 44.2222 14.3735 42.1402C13.911 40.0581 14.2886 37.8777 15.4242 36.0724L15.4674 36.0035C16.2883 34.7244 17.454 33.7034 18.8301 33.0583C18.8631 33.0399 18.8977 33.0244 18.9334 33.0118C20.1526 32.4595 21.4895 32.2177 22.8249 32.3081C24.1603 32.3984 25.4525 32.8179 26.5863 33.5293L26.6551 33.5726L26.657 33.5759ZM13.892 55.4938C13.8533 55.3213 13.7809 55.1581 13.6791 55.0135C13.5773 54.869 13.448 54.7459 13.2986 54.6514C12.9947 54.462 12.6283 54.4002 12.2791 54.4797C11.9299 54.5591 11.6262 54.7732 11.4341 55.0754L8.02029 60.4956C8.01077 60.5113 8.00443 60.5287 8.00163 60.5468C7.99884 60.565 7.99964 60.5835 8.004 60.6013C8.01199 60.6365 8.03357 60.6671 8.06404 60.6865L10.1189 61.9794C10.1345 61.989 10.1519 61.9954 10.17 61.9983C10.1881 62.0012 10.2067 62.0004 10.2245 61.9961C10.2597 61.9878 10.2902 61.9661 10.3097 61.9356L13.7207 56.5149C13.8151 56.3644 13.8788 56.1967 13.9082 56.0214C13.9376 55.8462 13.9321 55.6669 13.892 55.4938ZM15.5386 52.3159L14.4296 51.6178L13.3926 53.2654C13.5378 53.3123 13.6787 53.3717 13.8138 53.4427H13.8287L13.9911 53.5451C14.1788 53.6625 14.3508 53.8033 14.5031 53.964L15.5386 52.3159Z"
    fill="#346DFF" />
</svg>
