<svg width="1440" height="422" viewBox="0 0 1440 422" fill="none" xmlns="http://www.w3.org/2000/svg">
  <path
    d="M4 260C4 256.229 4 254.343 5.17157 253.172C6.34315 252 8.22876 252 12 252C15.7712 252 17.6569 252 18.8284 253.172C20 254.343 20 256.229 20 260V422H4V260Z"
    fill="#E9EFFF" />
  <mask id="path-5-inside-2_816_3734" fill="white">
    <path
      d="M28 274C28 270.229 28 268.343 29.1716 267.172C30.3431 266 32.2288 266 36 266C39.7712 266 41.6569 266 42.8284 267.172C44 268.343 44 270.229 44 274V422H28V274Z" />
  </mask>
  <path
    d="M27 270C27 267.239 29.2386 265 32 265H40C42.7614 265 45 267.239 45 270H43C43 268.343 41.6569 267 40 267H32C30.3431 267 29 268.343 29 270H27ZM44 422H28H44ZM27 422V270C27 267.239 29.2386 265 32 265V267C30.3431 267 29 268.343 29 270V422H27ZM40 265C42.7614 265 45 267.239 45 270V422H43V270C43 268.343 41.6569 267 40 267V265Z"
    fill="#4A7DFF" fill-opacity="0.22" mask="url(#path-5-inside-2_816_3734)" />
  <path
    d="M52 291C52 287.229 52 285.343 53.1716 284.172C54.3431 283 56.2288 283 60 283C63.7712 283 65.6569 283 66.8284 284.172C68 285.343 68 287.229 68 291V422H52V291Z"
    fill="#E9EFFF" />
  <mask id="path-8-inside-3_816_3734" fill="white">
    <path
      d="M76 299C76 295.229 76 293.343 77.1716 292.172C78.3431 291 80.2288 291 84 291C87.7712 291 89.6569 291 90.8284 292.172C92 293.343 92 295.229 92 299V422H76V299Z" />
  </mask>
  <path
    d="M75 295C75 292.239 77.2386 290 80 290H88C90.7614 290 93 292.239 93 295H91C91 293.343 89.6569 292 88 292H80C78.3431 292 77 293.343 77 295H75ZM92 422H76H92ZM75 422V295C75 292.239 77.2386 290 80 290V292C78.3431 292 77 293.343 77 295V422H75ZM88 290C90.7614 290 93 292.239 93 295V422H91V295C91 293.343 89.6569 292 88 292V290Z"
    fill="#4A7DFF" fill-opacity="0.22" mask="url(#path-8-inside-3_816_3734)" />
  <path
    d="M100 297C100 293.229 100 291.343 101.172 290.172C102.343 289 104.229 289 108 289C111.771 289 113.657 289 114.828 290.172C116 291.343 116 293.229 116 297V422H100V297Z"
    fill="#E9EFFF" />
  <mask id="path-11-inside-4_816_3734" fill="white">
    <path
      d="M140 291C140 287.229 140 285.343 138.828 284.172C137.657 283 135.771 283 132 283C128.229 283 126.343 283 125.172 284.172C124 285.343 124 287.229 124 291V422H140V291Z" />
  </mask>
  <path
    d="M141 287C141 284.239 138.761 282 136 282H128C125.239 282 123 284.239 123 287H125C125 285.343 126.343 284 128 284H136C137.657 284 139 285.343 139 287H141ZM124 422H140H124ZM141 422V287C141 284.239 138.761 282 136 282V284C137.657 284 139 285.343 139 287V422H141ZM128 282C125.239 282 123 284.239 123 287V422H125V287C125 285.343 126.343 284 128 284V282Z"
    fill="#4A7DFF" fill-opacity="0.22" mask="url(#path-11-inside-4_816_3734)" />
  <path
    d="M148 280C148 276.229 148 274.343 149.172 273.172C150.343 272 152.229 272 156 272C159.771 272 161.657 272 162.828 273.172C164 274.343 164 276.229 164 280V422H148V280Z"
    fill="#E9EFFF" />
  <mask id="path-14-inside-5_816_3734" fill="white">
    <path
      d="M188 278C188 274.229 188 272.343 186.828 271.172C185.657 270 183.771 270 180 270C176.229 270 174.343 270 173.172 271.172C172 272.343 172 274.229 172 278V422H188V278Z" />
  </mask>
  <path
    d="M189 274C189 271.239 186.761 269 184 269H176C173.239 269 171 271.239 171 274H173C173 272.343 174.343 271 176 271H184C185.657 271 187 272.343 187 274H189ZM172 422H188H172ZM189 422V274C189 271.239 186.761 269 184 269V271C185.657 271 187 272.343 187 274V422H189ZM176 269C173.239 269 171 271.239 171 274V422H173V274C173 272.343 174.343 271 176 271V269Z"
    fill="#4A7DFF" fill-opacity="0.22" mask="url(#path-14-inside-5_816_3734)" />
  <path
    d="M196 280C196 276.229 196 274.343 197.172 273.172C198.343 272 200.229 272 204 272C207.771 272 209.657 272 210.828 273.172C212 274.343 212 276.229 212 280V422H196V280Z"
    fill="#E9EFFF" />
  <mask id="path-17-inside-6_816_3734" fill="white">
    <path
      d="M236 291C236 287.229 236 285.343 234.828 284.172C233.657 283 231.771 283 228 283C224.229 283 222.343 283 221.172 284.172C220 285.343 220 287.229 220 291V422H236V291Z" />
  </mask>
  <path
    d="M237 287C237 284.239 234.761 282 232 282H224C221.239 282 219 284.239 219 287H221C221 285.343 222.343 284 224 284H232C233.657 284 235 285.343 235 287H237ZM220 422H236H220ZM237 422V287C237 284.239 234.761 282 232 282V284C233.657 284 235 285.343 235 287V422H237ZM224 282C221.239 282 219 284.239 219 287V422H221V287C221 285.343 222.343 284 224 284V282Z"
    fill="#4A7DFF" fill-opacity="0.22" mask="url(#path-17-inside-6_816_3734)" />
  <path
    d="M244 315C244 311.229 244 309.343 245.172 308.172C246.343 307 248.229 307 252 307C255.771 307 257.657 307 258.828 308.172C260 309.343 260 311.229 260 315V422H244V315Z"
    fill="#E9EFFF" />
  <mask id="path-20-inside-7_816_3734" fill="white">
    <path
      d="M284 326C284 322.229 284 320.343 282.828 319.172C281.657 318 279.771 318 276 318C272.229 318 270.343 318 269.172 319.172C268 320.343 268 322.229 268 326V422H284V326Z" />
  </mask>
  <path
    d="M285 322C285 319.239 282.761 317 280 317H272C269.239 317 267 319.239 267 322H269C269 320.343 270.343 319 272 319H280C281.657 319 283 320.343 283 322H285ZM268 422H284H268ZM285 422V322C285 319.239 282.761 317 280 317V319C281.657 319 283 320.343 283 322V422H285ZM272 317C269.239 317 267 319.239 267 322V422H269V322C269 320.343 270.343 319 272 319V317Z"
    fill="#4A7DFF" fill-opacity="0.22" mask="url(#path-20-inside-7_816_3734)" />
  <path
    d="M292 338C292 334.229 292 332.343 293.172 331.172C294.343 330 296.229 330 300 330C303.771 330 305.657 330 306.828 331.172C308 332.343 308 334.229 308 338V422H292V338Z"
    fill="#E9EFFF" />
  <mask id="path-23-inside-8_816_3734" fill="white">
    <path
      d="M332 338C332 334.229 332 332.343 330.828 331.172C329.657 330 327.771 330 324 330C320.229 330 318.343 330 317.172 331.172C316 332.343 316 334.229 316 338V422H332V338Z" />
  </mask>
  <path
    d="M333 334C333 331.239 330.761 329 328 329H320C317.239 329 315 331.239 315 334H317C317 332.343 318.343 331 320 331H328C329.657 331 331 332.343 331 334H333ZM316 422H332H316ZM333 422V334C333 331.239 330.761 329 328 329V331C329.657 331 331 332.343 331 334V422H333ZM320 329C317.239 329 315 331.239 315 334V422H317V334C317 332.343 318.343 331 320 331V329Z"
    fill="#4A7DFF" fill-opacity="0.22" mask="url(#path-23-inside-8_816_3734)" />
  <path
    d="M340 329C340 325.229 340 323.343 341.172 322.172C342.343 321 344.229 321 348 321C351.771 321 353.657 321 354.828 322.172C356 323.343 356 325.229 356 329V422H340V329Z"
    fill="#E9EFFF" />
  <mask id="path-26-inside-9_816_3734" fill="white">
    <path
      d="M380 324C380 320.229 380 318.343 378.828 317.172C377.657 316 375.771 316 372 316C368.229 316 366.343 316 365.172 317.172C364 318.343 364 320.229 364 324V422H380V324Z" />
  </mask>
  <path
    d="M381 320C381 317.239 378.761 315 376 315H368C365.239 315 363 317.239 363 320H365C365 318.343 366.343 317 368 317H376C377.657 317 379 318.343 379 320H381ZM364 422H380H364ZM381 422V320C381 317.239 378.761 315 376 315V317C377.657 317 379 318.343 379 320V422H381ZM368 315C365.239 315 363 317.239 363 320V422H365V320C365 318.343 366.343 317 368 317V315Z"
    fill="#4A7DFF" fill-opacity="0.22" mask="url(#path-26-inside-9_816_3734)" />
  <path
    d="M388 311C388 307.229 388 305.343 389.172 304.172C390.343 303 392.229 303 396 303C399.771 303 401.657 303 402.828 304.172C404 305.343 404 307.229 404 311V422H388V311Z"
    fill="#E9EFFF" />
  <mask id="path-29-inside-10_816_3734" fill="white">
    <path
      d="M428 308C428 304.229 428 302.343 426.828 301.172C425.657 300 423.771 300 420 300C416.229 300 414.343 300 413.172 301.172C412 302.343 412 304.229 412 308V422H428V308Z" />
  </mask>
  <path
    d="M429 304C429 301.239 426.761 299 424 299H416C413.239 299 411 301.239 411 304H413C413 302.343 414.343 301 416 301H424C425.657 301 427 302.343 427 304H429ZM412 422H428H412ZM429 422V304C429 301.239 426.761 299 424 299V301C425.657 301 427 302.343 427 304V422H429ZM416 299C413.239 299 411 301.239 411 304V422H413V304C413 302.343 414.343 301 416 301V299Z"
    fill="#4A7DFF" fill-opacity="0.22" mask="url(#path-29-inside-10_816_3734)" />
  <path
    d="M436 308C436 304.229 436 302.343 437.172 301.172C438.343 300 440.229 300 444 300C447.771 300 449.657 300 450.828 301.172C452 302.343 452 304.229 452 308V422H436V308Z"
    fill="#E9EFFF" />
  <mask id="path-32-inside-11_816_3734" fill="white">
    <path
      d="M476 312C476 308.229 476 306.343 474.828 305.172C473.657 304 471.771 304 468 304C464.229 304 462.343 304 461.172 305.172C460 306.343 460 308.229 460 312V422H476V312Z" />
  </mask>
  <path
    d="M477 308C477 305.239 474.761 303 472 303H464C461.239 303 459 305.239 459 308H461C461 306.343 462.343 305 464 305H472C473.657 305 475 306.343 475 308H477ZM460 422H476H460ZM477 422V308C477 305.239 474.761 303 472 303V305C473.657 305 475 306.343 475 308V422H477ZM464 303C461.239 303 459 305.239 459 308V422H461V308C461 306.343 462.343 305 464 305V303Z"
    fill="#4A7DFF" fill-opacity="0.22" mask="url(#path-32-inside-11_816_3734)" />
  <path
    d="M484 332C484 328.229 484 326.343 485.172 325.172C486.343 324 488.229 324 492 324C495.771 324 497.657 324 498.828 325.172C500 326.343 500 328.229 500 332V422H484V332Z"
    fill="#E9EFFF" />
  <mask id="path-35-inside-12_816_3734" fill="white">
    <path
      d="M524 342C524 338.229 524 336.343 522.828 335.172C521.657 334 519.771 334 516 334C512.229 334 510.343 334 509.172 335.172C508 336.343 508 338.229 508 342V422H524V342Z" />
  </mask>
  <path
    d="M525 338C525 335.239 522.761 333 520 333H512C509.239 333 507 335.239 507 338H509C509 336.343 510.343 335 512 335H520C521.657 335 523 336.343 523 338H525ZM508 422H524H508ZM525 422V338C525 335.239 522.761 333 520 333V335C521.657 335 523 336.343 523 338V422H525ZM512 333C509.239 333 507 335.239 507 338V422H509V338C509 336.343 510.343 335 512 335V333Z"
    fill="#4A7DFF" fill-opacity="0.22" mask="url(#path-35-inside-12_816_3734)" />
  <path
    d="M532 352C532 348.229 532 346.343 533.172 345.172C534.343 344 536.229 344 540 344C543.771 344 545.657 344 546.828 345.172C548 346.343 548 348.229 548 352V422H532V352Z"
    fill="#E9EFFF" />
  <mask id="path-38-inside-13_816_3734" fill="white">
    <path
      d="M572 350C572 346.229 572 344.343 570.828 343.172C569.657 342 567.771 342 564 342C560.229 342 558.343 342 557.172 343.172C556 344.343 556 346.229 556 350V422H572V350Z" />
  </mask>
  <path
    d="M573 346C573 343.239 570.761 341 568 341H560C557.239 341 555 343.239 555 346H557C557 344.343 558.343 343 560 343H568C569.657 343 571 344.343 571 346H573ZM556 422H572H556ZM573 422V346C573 343.239 570.761 341 568 341V343C569.657 343 571 344.343 571 346V422H573ZM560 341C557.239 341 555 343.239 555 346V422H557V346C557 344.343 558.343 343 560 343V341Z"
    fill="#4A7DFF" fill-opacity="0.22" mask="url(#path-38-inside-13_816_3734)" />
  <path
    d="M580 338C580 334.229 580 332.343 581.172 331.172C582.343 330 584.229 330 588 330C591.771 330 593.657 330 594.828 331.172C596 332.343 596 334.229 596 338V422H580V338Z"
    fill="#E9EFFF" />
  <mask id="path-41-inside-14_816_3734" fill="white">
    <path
      d="M620 329C620 325.229 620 323.343 618.828 322.172C617.657 321 615.771 321 612 321C608.229 321 606.343 321 605.172 322.172C604 323.343 604 325.229 604 329V422H620V329Z" />
  </mask>
  <path
    d="M621 325C621 322.239 618.761 320 616 320H608C605.239 320 603 322.239 603 325H605C605 323.343 606.343 322 608 322H616C617.657 322 619 323.343 619 325H621ZM604 422H620H604ZM621 422V325C621 322.239 618.761 320 616 320V322C617.657 322 619 323.343 619 325V422H621ZM608 320C605.239 320 603 322.239 603 325V422H605V325C605 323.343 606.343 322 608 322V320Z"
    fill="#4A7DFF" fill-opacity="0.22" mask="url(#path-41-inside-14_816_3734)" />
  <path
    d="M628 324C628 320.229 628 318.343 629.172 317.172C630.343 316 632.229 316 636 316C639.771 316 641.657 316 642.828 317.172C644 318.343 644 320.229 644 324V422H628V324Z"
    fill="#E9EFFF" />
  <mask id="path-44-inside-15_816_3734" fill="white">
    <path
      d="M668 301C668 297.229 668 295.343 666.828 294.172C665.657 293 663.771 293 660 293C656.229 293 654.343 293 653.172 294.172C652 295.343 652 297.229 652 301V422H668V301Z" />
  </mask>
  <path
    d="M669 297C669 294.239 666.761 292 664 292H656C653.239 292 651 294.239 651 297H653C653 295.343 654.343 294 656 294H664C665.657 294 667 295.343 667 297H669ZM652 422H668H652ZM669 422V297C669 294.239 666.761 292 664 292V294C665.657 294 667 295.343 667 297V422H669ZM656 292C653.239 292 651 294.239 651 297V422H653V297C653 295.343 654.343 294 656 294V292Z"
    fill="#4A7DFF" fill-opacity="0.22" mask="url(#path-44-inside-15_816_3734)" />
  <path
    d="M676 315C676 311.229 676 309.343 677.172 308.172C678.343 307 680.229 307 684 307C687.771 307 689.657 307 690.828 308.172C692 309.343 692 311.229 692 315V422H676V315Z"
    fill="#E9EFFF" />
  <mask id="path-47-inside-16_816_3734" fill="white">
    <path
      d="M716 312C716 308.229 716 306.343 714.828 305.172C713.657 304 711.771 304 708 304C704.229 304 702.343 304 701.172 305.172C700 306.343 700 308.229 700 312V422H716V312Z" />
  </mask>
  <path
    d="M717 308C717 305.239 714.761 303 712 303H704C701.239 303 699 305.239 699 308H701C701 306.343 702.343 305 704 305H712C713.657 305 715 306.343 715 308H717ZM700 422H716H700ZM717 422V308C717 305.239 714.761 303 712 303V305C713.657 305 715 306.343 715 308V422H717ZM704 303C701.239 303 699 305.239 699 308V422H701V308C701 306.343 702.343 305 704 305V303Z"
    fill="#4A7DFF" fill-opacity="0.22" mask="url(#path-47-inside-16_816_3734)" />
  <path
    d="M724 308C724 304.229 724 302.343 725.172 301.172C726.343 300 728.229 300 732 300C735.771 300 737.657 300 738.828 301.172C740 302.343 740 304.229 740 308V422H724V308Z"
    fill="#E9EFFF" />
  <mask id="path-50-inside-17_816_3734" fill="white">
    <path
      d="M764 305C764 301.229 764 299.343 762.828 298.172C761.657 297 759.771 297 756 297C752.229 297 750.343 297 749.172 298.172C748 299.343 748 301.229 748 305V422H764V305Z" />
  </mask>
  <path
    d="M765 301C765 298.239 762.761 296 760 296H752C749.239 296 747 298.239 747 301H749C749 299.343 750.343 298 752 298H760C761.657 298 763 299.343 763 301H765ZM748 422H764H748ZM765 422V301C765 298.239 762.761 296 760 296V298C761.657 298 763 299.343 763 301V422H765ZM752 296C749.239 296 747 298.239 747 301V422H749V301C749 299.343 750.343 298 752 298V296Z"
    fill="#4A7DFF" fill-opacity="0.22" mask="url(#path-50-inside-17_816_3734)" />
  <path
    d="M772 305C772 301.229 772 299.343 773.172 298.172C774.343 297 776.229 297 780 297C783.771 297 785.657 297 786.828 298.172C788 299.343 788 301.229 788 305V422H772V305Z"
    fill="#E9EFFF" />
  <mask id="path-53-inside-18_816_3734" fill="white">
    <path
      d="M812 305C812 301.229 812 299.343 810.828 298.172C809.657 297 807.771 297 804 297C800.229 297 798.343 297 797.172 298.172C796 299.343 796 301.229 796 305V422H812V305Z" />
  </mask>
  <path
    d="M813 301C813 298.239 810.761 296 808 296H800C797.239 296 795 298.239 795 301H797C797 299.343 798.343 298 800 298H808C809.657 298 811 299.343 811 301H813ZM796 422H812H796ZM813 422V301C813 298.239 810.761 296 808 296V298C809.657 298 811 299.343 811 301V422H813ZM800 296C797.239 296 795 298.239 795 301V422H797V301C797 299.343 798.343 298 800 298V296Z"
    fill="#4A7DFF" fill-opacity="0.22" mask="url(#path-53-inside-18_816_3734)" />
  <path
    d="M820 301C820 297.229 820 295.343 821.172 294.172C822.343 293 824.229 293 828 293C831.771 293 833.657 293 834.828 294.172C836 295.343 836 297.229 836 301V422H820V301Z"
    fill="#E9EFFF" />
  <mask id="path-56-inside-19_816_3734" fill="white">
    <path
      d="M860 291C860 287.229 860 285.343 858.828 284.172C857.657 283 855.771 283 852 283C848.229 283 846.343 283 845.172 284.172C844 285.343 844 287.229 844 291V422H860V291Z" />
  </mask>
  <path
    d="M861 287C861 284.239 858.761 282 856 282H848C845.239 282 843 284.239 843 287H845C845 285.343 846.343 284 848 284H856C857.657 284 859 285.343 859 287H861ZM844 422H860H844ZM861 422V287C861 284.239 858.761 282 856 282V284C857.657 284 859 285.343 859 287V422H861ZM848 282C845.239 282 843 284.239 843 287V422H845V287C845 285.343 846.343 284 848 284V282Z"
    fill="#4A7DFF" fill-opacity="0.22" mask="url(#path-56-inside-19_816_3734)" />
  <path
    d="M868 282C868 278.229 868 276.343 869.172 275.172C870.343 274 872.229 274 876 274C879.771 274 881.657 274 882.828 275.172C884 276.343 884 278.229 884 282V422H868V282Z"
    fill="#E9EFFF" />
  <mask id="path-59-inside-20_816_3734" fill="white">
    <path
      d="M908 279C908 275.229 908 273.343 906.828 272.172C905.657 271 903.771 271 900 271C896.229 271 894.343 271 893.172 272.172C892 273.343 892 275.229 892 279V422H908V279Z" />
  </mask>
  <path
    d="M909 275C909 272.239 906.761 270 904 270H896C893.239 270 891 272.239 891 275H893C893 273.343 894.343 272 896 272H904C905.657 272 907 273.343 907 275H909ZM892 422H908H892ZM909 422V275C909 272.239 906.761 270 904 270V272C905.657 272 907 273.343 907 275V422H909ZM896 270C893.239 270 891 272.239 891 275V422H893V275C893 273.343 894.343 272 896 272V270Z"
    fill="#4A7DFF" fill-opacity="0.22" mask="url(#path-59-inside-20_816_3734)" />
  <path
    d="M916 261C916 257.229 916 255.343 917.172 254.172C918.343 253 920.229 253 924 253C927.771 253 929.657 253 930.828 254.172C932 255.343 932 257.229 932 261V422H916V261Z"
    fill="#E9EFFF" />
  <mask id="path-62-inside-21_816_3734" fill="white">
    <path
      d="M956 253C956 249.229 956 247.343 954.828 246.172C953.657 245 951.771 245 948 245C944.229 245 942.343 245 941.172 246.172C940 247.343 940 249.229 940 253V422H956V253Z" />
  </mask>
  <path
    d="M957 249C957 246.239 954.761 244 952 244H944C941.239 244 939 246.239 939 249H941C941 247.343 942.343 246 944 246H952C953.657 246 955 247.343 955 249H957ZM940 422H956H940ZM957 422V249C957 246.239 954.761 244 952 244V246C953.657 246 955 247.343 955 249V422H957ZM944 244C941.239 244 939 246.239 939 249V422H941V249C941 247.343 942.343 246 944 246V244Z"
    fill="#4A7DFF" fill-opacity="0.22" mask="url(#path-62-inside-21_816_3734)" />
  <path
    d="M964 237C964 233.229 964 231.343 965.172 230.172C966.343 229 968.229 229 972 229C975.771 229 977.657 229 978.828 230.172C980 231.343 980 233.229 980 237V422H964V237Z"
    fill="#E9EFFF" />
  <mask id="path-65-inside-22_816_3734" fill="white">
    <path
      d="M1004 229C1004 225.229 1004 223.343 1002.83 222.172C1001.66 221 999.771 221 996 221C992.229 221 990.343 221 989.172 222.172C988 223.343 988 225.229 988 229V422H1004V229Z" />
  </mask>
  <path
    d="M1005 225C1005 222.239 1002.76 220 1000 220H992C989.239 220 987 222.239 987 225H989C989 223.343 990.343 222 992 222H1000C1001.66 222 1003 223.343 1003 225H1005ZM988 422H1004H988ZM1005 422V225C1005 222.239 1002.76 220 1000 220V222C1001.66 222 1003 223.343 1003 225V422H1005ZM992 220C989.239 220 987 222.239 987 225V422H989V225C989 223.343 990.343 222 992 222V220Z"
    fill="#4A7DFF" fill-opacity="0.22" mask="url(#path-65-inside-22_816_3734)" />
  <path
    d="M1012 223C1012 219.229 1012 217.343 1013.17 216.172C1014.34 215 1016.23 215 1020 215C1023.77 215 1025.66 215 1026.83 216.172C1028 217.343 1028 219.229 1028 223V422H1012V223Z"
    fill="#E9EFFF" />
  <mask id="path-68-inside-23_816_3734" fill="white">
    <path
      d="M1052 216C1052 212.229 1052 210.343 1050.83 209.172C1049.66 208 1047.77 208 1044 208C1040.23 208 1038.34 208 1037.17 209.172C1036 210.343 1036 212.229 1036 216V422H1052V216Z" />
  </mask>
  <path
    d="M1053 212C1053 209.239 1050.76 207 1048 207H1040C1037.24 207 1035 209.239 1035 212H1037C1037 210.343 1038.34 209 1040 209H1048C1049.66 209 1051 210.343 1051 212H1053ZM1036 422H1052H1036ZM1053 422V212C1053 209.239 1050.76 207 1048 207V209C1049.66 209 1051 210.343 1051 212V422H1053ZM1040 207C1037.24 207 1035 209.239 1035 212V422H1037V212C1037 210.343 1038.34 209 1040 209V207Z"
    fill="#4A7DFF" fill-opacity="0.22" mask="url(#path-68-inside-23_816_3734)" />
  <path
    d="M1060 208C1060 204.229 1060 202.343 1061.17 201.172C1062.34 200 1064.23 200 1068 200C1071.77 200 1073.66 200 1074.83 201.172C1076 202.343 1076 204.229 1076 208V422H1060V208Z"
    fill="#E9EFFF" />
  <mask id="path-71-inside-24_816_3734" fill="white">
    <path
      d="M1100 203C1100 199.229 1100 197.343 1098.83 196.172C1097.66 195 1095.77 195 1092 195C1088.23 195 1086.34 195 1085.17 196.172C1084 197.343 1084 199.229 1084 203V422H1100V203Z" />
  </mask>
  <path
    d="M1101 199C1101 196.239 1098.76 194 1096 194H1088C1085.24 194 1083 196.239 1083 199H1085C1085 197.343 1086.34 196 1088 196H1096C1097.66 196 1099 197.343 1099 199H1101ZM1084 422H1100H1084ZM1101 422V199C1101 196.239 1098.76 194 1096 194V196C1097.66 196 1099 197.343 1099 199V422H1101ZM1088 194C1085.24 194 1083 196.239 1083 199V422H1085V199C1085 197.343 1086.34 196 1088 196V194Z"
    fill="#4A7DFF" fill-opacity="0.22" mask="url(#path-71-inside-24_816_3734)" />
  <path
    d="M1108 191C1108 187.229 1108 185.343 1109.17 184.172C1110.34 183 1112.23 183 1116 183C1119.77 183 1121.66 183 1122.83 184.172C1124 185.343 1124 187.229 1124 191V422H1108V191Z"
    fill="#E9EFFF" />
  <mask id="path-74-inside-25_816_3734" fill="white">
    <path
      d="M1148 181C1148 177.229 1148 175.343 1146.83 174.172C1145.66 173 1143.77 173 1140 173C1136.23 173 1134.34 173 1133.17 174.172C1132 175.343 1132 177.229 1132 181V422H1148V181Z" />
  </mask>
  <path
    d="M1149 177C1149 174.239 1146.76 172 1144 172H1136C1133.24 172 1131 174.239 1131 177H1133C1133 175.343 1134.34 174 1136 174H1144C1145.66 174 1147 175.343 1147 177H1149ZM1132 422H1148H1132ZM1149 422V177C1149 174.239 1146.76 172 1144 172V174C1145.66 174 1147 175.343 1147 177V422H1149ZM1136 172C1133.24 172 1131 174.239 1131 177V422H1133V177C1133 175.343 1134.34 174 1136 174V172Z"
    fill="#4A7DFF" fill-opacity="0.22" mask="url(#path-74-inside-25_816_3734)" />
  <path
    d="M1156 160C1156 156.229 1156 154.343 1157.17 153.172C1158.34 152 1160.23 152 1164 152C1167.77 152 1169.66 152 1170.83 153.172C1172 154.343 1172 156.229 1172 160V422H1156V160Z"
    fill="#E9EFFF" />
  <mask id="path-77-inside-26_816_3734" fill="white">
    <path
      d="M1196 152C1196 148.229 1196 146.343 1194.83 145.172C1193.66 144 1191.77 144 1188 144C1184.23 144 1182.34 144 1181.17 145.172C1180 146.343 1180 148.229 1180 152V422H1196V152Z" />
  </mask>
  <path
    d="M1197 148C1197 145.239 1194.76 143 1192 143H1184C1181.24 143 1179 145.239 1179 148H1181C1181 146.343 1182.34 145 1184 145H1192C1193.66 145 1195 146.343 1195 148H1197ZM1180 422H1196H1180ZM1197 422V148C1197 145.239 1194.76 143 1192 143V145C1193.66 145 1195 146.343 1195 148V422H1197ZM1184 143C1181.24 143 1179 145.239 1179 148V422H1181V148C1181 146.343 1182.34 145 1184 145V143Z"
    fill="#4A7DFF" fill-opacity="0.22" mask="url(#path-77-inside-26_816_3734)" />
  <path
    d="M1204 139C1204 135.229 1204 133.343 1205.17 132.172C1206.34 131 1208.23 131 1212 131C1215.77 131 1217.66 131 1218.83 132.172C1220 133.343 1220 135.229 1220 139V422H1204V139Z"
    fill="#E9EFFF" />
  <mask id="path-80-inside-27_816_3734" fill="white">
    <path
      d="M1244 134C1244 130.229 1244 128.343 1242.83 127.172C1241.66 126 1239.77 126 1236 126C1232.23 126 1230.34 126 1229.17 127.172C1228 128.343 1228 130.229 1228 134V422H1244V134Z" />
  </mask>
  <path
    d="M1245 130C1245 127.239 1242.76 125 1240 125H1232C1229.24 125 1227 127.239 1227 130H1229C1229 128.343 1230.34 127 1232 127H1240C1241.66 127 1243 128.343 1243 130H1245ZM1228 422H1244H1228ZM1245 422V130C1245 127.239 1242.76 125 1240 125V127C1241.66 127 1243 128.343 1243 130V422H1245ZM1232 125C1229.24 125 1227 127.239 1227 130V422H1229V130C1229 128.343 1230.34 127 1232 127V125Z"
    fill="#4A7DFF" fill-opacity="0.22" mask="url(#path-80-inside-27_816_3734)" />
  <path
    d="M1252 129C1252 125.229 1252 123.343 1253.17 122.172C1254.34 121 1256.23 121 1260 121C1263.77 121 1265.66 121 1266.83 122.172C1268 123.343 1268 125.229 1268 129V422H1252V129Z"
    fill="#E9EFFF" />
  <mask id="path-83-inside-28_816_3734" fill="white">
    <path
      d="M1292 123C1292 119.229 1292 117.343 1290.83 116.172C1289.66 115 1287.77 115 1284 115C1280.23 115 1278.34 115 1277.17 116.172C1276 117.343 1276 119.229 1276 123V422H1292V123Z" />
  </mask>
  <path
    d="M1293 119C1293 116.239 1290.76 114 1288 114H1280C1277.24 114 1275 116.239 1275 119H1277C1277 117.343 1278.34 116 1280 116H1288C1289.66 116 1291 117.343 1291 119H1293ZM1276 422H1292H1276ZM1293 422V119C1293 116.239 1290.76 114 1288 114V116C1289.66 116 1291 117.343 1291 119V422H1293ZM1280 114C1277.24 114 1275 116.239 1275 119V422H1277V119C1277 117.343 1278.34 116 1280 116V114Z"
    fill="#4A7DFF" fill-opacity="0.22" mask="url(#path-83-inside-28_816_3734)" />
  <path
    d="M1300 121C1300 117.229 1300 115.343 1301.17 114.172C1302.34 113 1304.23 113 1308 113C1311.77 113 1313.66 113 1314.83 114.172C1316 115.343 1316 117.229 1316 121V422H1300V121Z"
    fill="#E9EFFF" />
  <mask id="path-86-inside-29_816_3734" fill="white">
    <path
      d="M1340 117C1340 113.229 1340 111.343 1338.83 110.172C1337.66 109 1335.77 109 1332 109C1328.23 109 1326.34 109 1325.17 110.172C1324 111.343 1324 113.229 1324 117V422H1340V117Z" />
  </mask>
  <path
    d="M1341 113C1341 110.239 1338.76 108 1336 108H1328C1325.24 108 1323 110.239 1323 113H1325C1325 111.343 1326.34 110 1328 110H1336C1337.66 110 1339 111.343 1339 113H1341ZM1324 422H1340H1324ZM1341 422V113C1341 110.239 1338.76 108 1336 108V110C1337.66 110 1339 111.343 1339 113V422H1341ZM1328 108C1325.24 108 1323 110.239 1323 113V422H1325V113C1325 111.343 1326.34 110 1328 110V108Z"
    fill="#4A7DFF" fill-opacity="0.22" mask="url(#path-86-inside-29_816_3734)" />
  <path
    d="M1348 112C1348 108.229 1348 106.343 1349.17 105.172C1350.34 104 1352.23 104 1356 104C1359.77 104 1361.66 104 1362.83 105.172C1364 106.343 1364 108.229 1364 112V422H1348V112Z"
    fill="#E9EFFF" transform="translate(0, 20)" />
  <mask id="path-89-inside-30_816_3734" fill="white">
    <path
      d="M1388 101C1388 97.2288 1388 95.3431 1386.83 94.1716C1385.66 93 1383.77 93 1380 93C1376.23 93 1374.34 93 1373.17 94.1716C1372 95.3431 1372 97.2288 1372 101V422H1388V101Z" />
  </mask>
  <path
    d="M1389 97C1389 94.2386 1386.76 92 1384 92H1376C1373.24 92 1371 94.2386 1371 97H1373C1373 95.3431 1374.34 94 1376 94H1384C1385.66 94 1387 95.3431 1387 97H1389ZM1372 422H1388H1372ZM1389 422V97C1389 94.2386 1386.76 92 1384 92V94C1385.66 94 1387 95.3431 1387 97V422H1389ZM1376 92C1373.24 92 1371 94.2386 1371 97V422H1373V97C1373 95.3431 1374.34 94 1376 94V92Z"
    fill="#4A7DFF" fill-opacity="0.22" mask="url(#path-89-inside-30_816_3734)" transform="translate(0, 50)" />
  <path
    d="M1396 87C1396 83.2288 1396 81.3431 1397.17 80.1716C1398.34 79 1400.23 79 1404 79C1407.77 79 1409.66 79 1410.83 80.1716C1412 81.3431 1412 83.2288 1412 87V422H1396V87Z"
    fill="#E9EFFF" transform="translate(0, 100)" />
  <mask id="path-92-inside-31_816_3734" fill="white">
    <path
      d="M1436 67C1436 63.2288 1436 61.3431 1434.83 60.1716C1433.66 59 1431.77 59 1428 59C1424.23 59 1422.34 59 1421.17 60.1716C1420 61.3431 1420 63.2288 1420 67V422H1436V67Z" />
  </mask>
  <path
    d="M1437 63C1437 60.2386 1434.76 58 1432 58H1424C1421.24 58 1419 60.2386 1419 63H1421C1421 61.3431 1422.34 60 1424 60H1432C1433.66 60 1435 61.3431 1435 63H1437ZM1420 422H1436H1420ZM1437 422V63C1437 60.2386 1434.76 58 1432 58V60C1433.66 60 1435 61.3431 1435 63V422H1437ZM1424 58C1421.24 58 1419 60.2386 1419 63V422H1421V63C1421 61.3431 1422.34 60 1424 60V58Z"
    fill="#4A7DFF" fill-opacity="0.22" mask="url(#path-92-inside-31_816_3734)" transform="translate(0, 160)" />

</svg>
