<svg width="24" height="24" viewBox="0 0 24 24" fill="none" xmlns="http://www.w3.org/2000/svg">
  <path d="M2.25 2.09998V21.6C2.25 21.6828 2.31716 21.75 2.4 21.75H21.9" stroke="#D4996D" stroke-width="1.5"
    stroke-linecap="round" />
  <path
    d="M10.0501 16.2L12.4051 16.2C12.4299 16.2 12.4501 16.2201 12.4501 16.245L12.4501 17.4L12.4501 18.555C12.4501 18.5798 12.4299 18.6 12.4051 18.6L10.0501 18.6L7.65007 18.6L5.29507 18.6C5.27022 18.6 5.25007 18.5798 5.25007 18.555L5.25007 17.4L5.25007 16.245C5.25007 16.2201 5.27022 16.2 5.29507 16.2L7.65007 16.2L10.0501 16.2Z"
    stroke="#D4996D" stroke-linecap="round" />
  <path
    d="M12.35 10.8L15.855 10.8C15.8799 10.8 15.9 10.8202 15.9 10.845L15.9 12L15.9 13.155C15.9 13.1799 15.8799 13.2 15.855 13.2L12.35 13.2L8.80002 13.2L5.29502 13.2C5.27017 13.2 5.25002 13.1799 5.25002 13.155L5.25002 12L5.25002 10.845C5.25002 10.8202 5.27017 10.8 5.29502 10.8L8.80002 10.8L12.35 10.8Z"
    stroke="#D4996D" stroke-linecap="round" />
  <path
    d="M14.25 5.40002L18.705 5.40002C18.7299 5.40002 18.75 5.42017 18.75 5.44502L18.75 6.60002L18.75 7.75502C18.75 7.77987 18.7299 7.80002 18.705 7.80002L14.25 7.80002L9.75 7.80002L5.295 7.80002C5.27015 7.80002 5.25 7.77987 5.25 7.75502L5.25 6.60002L5.25 5.44502C5.25 5.42017 5.27015 5.40002 5.295 5.40002L9.75 5.40002L14.25 5.40002Z"
    stroke="#D4996D" stroke-linecap="round" />
</svg>
