<svg width="24" height="24" viewBox="0 0 24 24" fill="none" xmlns="http://www.w3.org/2000/svg">
<path fill-rule="evenodd" clip-rule="evenodd" d="M23.1104 10.8156C22.5945 10.3427 21.9759 10.0611 21.3436 9.96544V6.32471C21.3436 3.33889 16.6561 1 10.6716 1C4.68707 1 0 3.33889 0 6.32471V17.4422C0 20.4284 4.68752 22.7673 10.6716 22.7673C16.6556 22.7673 21.3431 20.4284 21.3431 17.4426V16.0965C21.9954 16.0128 22.618 15.7276 23.1099 15.2352C24.2966 13.9418 24.2966 12.001 23.1104 10.8156ZM10.6716 1.88561C15.9763 1.88561 20.4575 3.91852 20.4575 6.32471C20.4575 8.73091 15.9763 10.7643 10.6716 10.7643C5.36722 10.7643 0.885607 8.73135 0.885607 6.32515C0.885607 3.91896 5.36678 1.88561 10.6716 1.88561ZM0.885607 8.48338C2.51601 10.364 6.23644 11.6494 10.6716 11.6494C15.1067 11.6494 18.8276 10.364 20.4575 8.48338V9.95437C19.8053 10.0381 19.1827 10.3232 18.6907 10.8156C17.6807 11.916 17.5337 13.4844 18.2431 14.6583C16.4316 15.6661 13.6848 16.3228 10.6716 16.3228C5.36722 16.3228 0.885607 14.2899 0.885607 11.8837V8.48338ZM20.4575 17.4426C20.4575 19.8488 15.9763 21.8817 10.6716 21.8817C5.36722 21.8817 0.885607 19.8488 0.885607 17.4426V14.0423C2.51601 15.9229 6.23644 17.2084 10.6716 17.2084C13.9784 17.2084 16.8868 16.4933 18.8284 15.3499C19.3151 15.7524 19.8797 15.9973 20.4575 16.085V17.4426ZM22.9337 12.2415L20.5191 14.6375C20.4358 14.7198 20.3238 14.7659 20.2069 14.7659C20.2011 14.7659 20.1954 14.7659 20.1892 14.7654C20.0665 14.7606 19.951 14.7048 19.8708 14.6118L18.8222 13.3914C18.6628 13.2059 18.6836 12.9265 18.8692 12.7671C19.0552 12.6081 19.3346 12.6289 19.4935 12.814L20.2321 13.6735L22.3089 11.6127C22.4833 11.4409 22.7632 11.4417 22.9354 11.6149C23.1081 11.7889 23.1068 12.0692 22.9337 12.2415Z" fill="#3678C5"/>
</svg>
