<svg width="24" height="24" viewBox="0 0 24 24" fill="none" xmlns="http://www.w3.org/2000/svg">
<path d="M21.1035 1H2.89655C2.39374 1.00059 1.91168 1.20059 1.55614 1.55614C1.20059 1.91168 1.00059 2.39374 1 2.89655V21.1035C1.00059 21.6063 1.20059 22.0883 1.55614 22.4439C1.91168 22.7994 2.39374 22.9994 2.89655 23H21.1035C21.6063 22.9994 22.0883 22.7994 22.4439 22.4439C22.7994 22.0883 22.9994 21.6063 23 21.1035V2.89655C22.9994 2.39374 22.7994 1.91168 22.4439 1.55614C22.0883 1.20059 21.6063 1.00059 21.1035 1ZM22.2414 21.1035C22.2411 21.4051 22.1211 21.6944 21.9077 21.9077C21.6944 22.1211 21.4051 22.2411 21.1035 22.2414H2.89655C2.59485 22.2411 2.30561 22.1211 2.09228 21.9077C1.87894 21.6944 1.75895 21.4051 1.75862 21.1035V4.66667H16.125C16.3781 4.66667 16.5833 4.46146 16.5833 4.20833V4.20833C16.5833 3.9552 16.3781 3.75 16.125 3.75H1.75862V2.89655C1.75895 2.59485 1.87894 2.30561 2.09228 2.09228C2.30561 1.87894 2.59485 1.75895 2.89655 1.75862H21.1035C21.4051 1.75895 21.6944 1.87894 21.9077 2.09228C22.1211 2.30561 22.2411 2.59485 22.2414 2.89655V21.1035Z" fill="#9F62DD"/>
<path d="M17.9583 4.66667H19.7917C19.9132 4.66667 20.0298 4.61838 20.1158 4.53242C20.2017 4.44647 20.25 4.32989 20.25 4.20833C20.25 4.08678 20.2017 3.9702 20.1158 3.88424C20.0298 3.79829 19.9132 3.75 19.7917 3.75H17.9583C17.8368 3.75 17.7202 3.79829 17.6342 3.88424C17.5483 3.9702 17.5 4.08678 17.5 4.20833C17.5 4.32989 17.5483 4.44647 17.6342 4.53242C17.7202 4.61838 17.8368 4.66667 17.9583 4.66667Z" fill="#9F62DD"/>
<path d="M3.65657 2.51721H3.27726C3.17666 2.51721 3.08018 2.55717 3.00905 2.62831C2.93791 2.69944 2.89795 2.79592 2.89795 2.89652C2.89795 2.99712 2.93791 3.0936 3.00905 3.16474C3.08018 3.23587 3.17666 3.27583 3.27726 3.27583H3.65657C3.75717 3.27583 3.85365 3.23587 3.92478 3.16474C3.99592 3.0936 4.03588 2.99712 4.03588 2.89652C4.03588 2.79592 3.99592 2.69944 3.92478 2.62831C3.85365 2.55717 3.75717 2.51721 3.65657 2.51721Z" fill="#9F62DD"/>
<path d="M5.17122 2.51721H4.79191C4.69131 2.51721 4.59483 2.55717 4.52369 2.62831C4.45256 2.69944 4.4126 2.79592 4.4126 2.89652C4.4126 2.99712 4.45256 3.0936 4.52369 3.16474C4.59483 3.23587 4.69131 3.27583 4.79191 3.27583H5.17122C5.27182 3.27583 5.3683 3.23587 5.43943 3.16474C5.51057 3.0936 5.55053 2.99712 5.55053 2.89652C5.55053 2.79592 5.51057 2.69944 5.43943 2.62831C5.3683 2.55717 5.27182 2.51721 5.17122 2.51721Z" fill="#9F62DD"/>
<path d="M6.68928 2.51721H6.30997C6.20938 2.51721 6.1129 2.55717 6.04176 2.62831C5.97063 2.69944 5.93066 2.79592 5.93066 2.89652C5.93066 2.99712 5.97063 3.0936 6.04176 3.16474C6.1129 3.23587 6.20938 3.27583 6.30997 3.27583H6.68928C6.78988 3.27583 6.88636 3.23587 6.9575 3.16474C7.02863 3.0936 7.0686 2.99712 7.0686 2.89652C7.0686 2.79592 7.02863 2.69944 6.9575 2.62831C6.88636 2.55717 6.78988 2.51721 6.68928 2.51721Z" fill="#9F62DD"/>
<path d="M12.4146 7.0789C11.0315 7.01096 9.65326 7.28812 8.40397 7.88543C7.15467 8.48273 6.07358 9.38142 5.25806 10.5005C4.44255 11.6197 3.91822 12.9241 3.73232 14.2963C3.54641 15.6685 3.70476 17.0654 4.19311 18.3612C4.33076 18.721 4.5742 19.0306 4.89133 19.2493C5.20847 19.4679 5.58443 19.5854 5.96965 19.5861H18.0331C18.4207 19.5842 18.7985 19.4648 19.1167 19.2437C19.435 19.0225 19.6787 18.71 19.8156 18.3475C20.2767 17.1174 20.441 15.7958 20.2951 14.4903C20.1493 13.1847 19.6974 11.932 18.9763 10.834C18.2551 9.73599 17.285 8.82365 16.1448 8.17115C15.0047 7.51866 13.7266 7.14444 12.4146 7.0789ZM19.1051 18.0808C19.023 18.2991 18.8765 18.4873 18.6851 18.6207C18.4937 18.754 18.2664 18.8261 18.0331 18.8275H5.96965C5.73845 18.8273 5.51274 18.7571 5.32229 18.626C5.13184 18.4949 4.98559 18.3092 4.90284 18.0933C4.46956 16.9454 4.32117 15.7095 4.4704 14.4916C4.61963 13.2737 5.06202 12.1102 5.75964 11.1008C6.45725 10.0914 7.38928 9.2663 8.47579 8.69619C9.56229 8.12609 10.7709 7.82801 11.9979 7.82752C12.1242 7.82752 12.251 7.83061 12.3783 7.83678C13.5709 7.89652 14.7326 8.23684 15.769 8.83008C16.8053 9.42331 17.6871 10.2527 18.3425 11.2509C18.998 12.2491 19.4087 13.3878 19.5412 14.5746C19.6737 15.7613 19.5243 16.9626 19.1051 18.0808Z" fill="#9F62DD"/>
<path d="M11.9993 14.6552C11.7742 14.6552 11.5542 14.7219 11.3671 14.8469C11.1799 14.972 11.0341 15.1497 10.9479 15.3576C10.8618 15.5656 10.8393 15.7943 10.8832 16.0151C10.9271 16.2358 11.0355 16.4386 11.1946 16.5977C11.3538 16.7569 11.5565 16.8652 11.7773 16.9092C11.998 16.9531 12.2268 16.9305 12.4347 16.8444C12.6427 16.7583 12.8204 16.6124 12.9454 16.4253C13.0705 16.2382 13.1372 16.0181 13.1372 15.7931C13.1363 15.6241 13.0973 15.4574 13.0232 15.3055L16.0604 12.2683C16.0958 12.2331 16.1238 12.1913 16.1429 12.1452C16.1621 12.0992 16.1719 12.0498 16.172 12C16.172 11.9501 16.1622 11.9007 16.1432 11.8546C16.1241 11.8086 16.0962 11.7667 16.0609 11.7314C16.0256 11.6962 15.9838 11.6682 15.9377 11.6492C15.8916 11.6301 15.8422 11.6203 15.7924 11.6204C15.7425 11.6204 15.6932 11.6303 15.6471 11.6494C15.6011 11.6686 15.5593 11.6966 15.5241 11.7319L12.4868 14.7692C12.3349 14.695 12.1683 14.6561 11.9993 14.6552ZM11.9993 16.1724C11.9242 16.1724 11.8509 16.1502 11.7885 16.1085C11.7261 16.0668 11.6775 16.0076 11.6488 15.9382C11.6201 15.8689 11.6126 15.7927 11.6272 15.7191C11.6419 15.6455 11.678 15.5779 11.731 15.5249C11.7841 15.4718 11.8517 15.4357 11.9253 15.4211C11.9988 15.4064 12.0751 15.4139 12.1444 15.4427C12.2137 15.4714 12.273 15.52 12.3146 15.5824C12.3563 15.6447 12.3786 15.7181 12.3786 15.7931C12.3785 15.8937 12.3385 15.9901 12.2674 16.0612C12.1963 16.1323 12.0998 16.1723 11.9993 16.1724Z" fill="#9F62DD"/>
<path d="M11.999 8.58618C10.1888 8.58828 8.45343 9.30829 7.17346 10.5883C5.8935 11.8682 5.17349 13.6036 5.17139 15.4138C5.17139 15.5144 5.21135 15.6108 5.28248 15.682C5.35362 15.7531 5.4501 15.7931 5.5507 15.7931C5.6513 15.7931 5.74778 15.7531 5.81891 15.682C5.89004 15.6108 5.93001 15.5144 5.93001 15.4138C5.93001 13.8042 6.56941 12.2605 7.70757 11.1224C8.84572 9.98421 10.3894 9.3448 11.999 9.3448C13.6086 9.3448 15.1522 9.98421 16.2904 11.1224C17.4285 12.2605 18.0679 13.8042 18.0679 15.4138C18.0679 15.5144 18.1079 15.6108 18.179 15.682C18.2502 15.7531 18.3466 15.7931 18.4472 15.7931C18.5478 15.7931 18.6443 15.7531 18.7155 15.682C18.7866 15.6108 18.8266 15.5144 18.8266 15.4138C18.8245 13.6036 18.1044 11.8682 16.8245 10.5883C15.5445 9.30829 13.8091 8.58828 11.999 8.58618Z" fill="#9F62DD"/>
<path d="M14.7619 11.3311C14.803 11.3592 14.8493 11.3789 14.8981 11.3891C14.9468 11.3992 14.9971 11.3997 15.0461 11.3905C15.095 11.3812 15.1417 11.3624 15.1834 11.3351C15.225 11.3079 15.2609 11.2726 15.289 11.2315C15.3171 11.1903 15.3368 11.144 15.347 11.0953C15.3571 11.0465 15.3576 10.9962 15.3484 10.9473C15.3391 10.8983 15.3203 10.8517 15.293 10.81C15.2657 10.7683 15.2305 10.7324 15.1894 10.7044C14.5661 10.2792 13.8633 9.98448 13.1232 9.83795C13.0743 9.82817 13.024 9.82811 12.9752 9.83776C12.9263 9.84742 12.8798 9.86661 12.8384 9.89423C12.7547 9.95001 12.6966 10.0368 12.6768 10.1354C12.6571 10.234 12.6773 10.3365 12.7331 10.4202C12.7889 10.5039 12.8756 10.562 12.9743 10.5817C13.6146 10.7083 14.2227 10.9632 14.7619 11.3311Z" fill="#9F62DD"/>
<path d="M17.3085 15.7931C17.3583 15.7931 17.4077 15.7833 17.4537 15.7643C17.4997 15.7452 17.5416 15.7173 17.5768 15.6821C17.612 15.6468 17.64 15.605 17.659 15.559C17.6781 15.5129 17.6879 15.4636 17.6878 15.4138C17.689 14.5869 17.5087 13.7698 17.1596 13.0201C17.1171 12.9291 17.0402 12.8587 16.9459 12.8242C16.8515 12.7898 16.7473 12.7942 16.6562 12.8365C16.5651 12.8788 16.4945 12.9555 16.4598 13.0497C16.4252 13.144 16.4293 13.2482 16.4714 13.3394C16.7739 13.989 16.9302 14.6972 16.9292 15.4138C16.9292 15.4636 16.939 15.5129 16.958 15.559C16.9771 15.605 17.005 15.6468 17.0402 15.6821C17.0755 15.7173 17.1173 15.7452 17.1633 15.7643C17.2094 15.7833 17.2587 15.7931 17.3085 15.7931Z" fill="#9F62DD"/>
<path d="M15.4149 17.6897H8.58732C8.48672 17.6897 8.39024 17.7297 8.3191 17.8008C8.24797 17.8719 8.20801 17.9684 8.20801 18.069C8.20801 18.1696 8.24797 18.2661 8.3191 18.3372C8.39024 18.4084 8.48672 18.4483 8.58732 18.4483H15.4149C15.5155 18.4483 15.612 18.4084 15.6831 18.3372C15.7543 18.2661 15.7942 18.1696 15.7942 18.069C15.7942 17.9684 15.7543 17.8719 15.6831 17.8008C15.612 17.7297 15.5155 17.6897 15.4149 17.6897Z" fill="#9F62DD"/>
<path d="M18.0697 16.5518H13.518C13.4174 16.5518 13.3209 16.5917 13.2498 16.6629C13.1786 16.734 13.1387 16.8305 13.1387 16.9311C13.1387 17.0317 13.1786 17.1281 13.2498 17.1993C13.3209 17.2704 13.4174 17.3104 13.518 17.3104H18.0697C18.1703 17.3104 18.2668 17.2704 18.3379 17.1993C18.4091 17.1281 18.449 17.0317 18.449 16.9311C18.449 16.8305 18.4091 16.734 18.3379 16.6629C18.2668 16.5917 18.1703 16.5518 18.0697 16.5518Z" fill="#9F62DD"/>
<path d="M10.8616 16.9311C10.8616 16.8812 10.8519 16.8319 10.8328 16.7859C10.8137 16.7398 10.7858 16.698 10.7506 16.6628C10.7154 16.6276 10.6735 16.5996 10.6275 16.5806C10.5815 16.5615 10.5321 16.5517 10.4823 16.5518H5.93058C5.82998 16.5518 5.7335 16.5917 5.66237 16.6629C5.59123 16.734 5.55127 16.8305 5.55127 16.9311C5.55127 17.0317 5.59123 17.1281 5.66237 17.1993C5.7335 17.2704 5.82998 17.3104 5.93058 17.3104H10.4823C10.5321 17.3104 10.5815 17.3006 10.6275 17.2816C10.6735 17.2625 10.7154 17.2346 10.7506 17.1993C10.7858 17.1641 10.8137 17.1223 10.8328 17.0763C10.8519 17.0302 10.8616 16.9809 10.8616 16.9311Z" fill="#9F62DD"/>
</svg>
