<svg width="24" height="24" viewBox="0 0 24 24" fill="none" xmlns="http://www.w3.org/2000/svg">
<g clip-path="url(#clip0_1755_3959)">
<path d="M21.5724 11.6482L21.5714 11.6491L21.5811 11.6558C22.6913 12.4174 23.3875 13.7904 23.3875 15.2675C23.3875 17.6625 21.6244 19.5907 19.4531 19.5907H4.54688C2.37564 19.5907 0.6125 17.6625 0.6125 15.2675C0.6125 13.6387 1.4469 12.2149 2.74348 11.4522C2.85497 11.3907 2.90812 11.2709 2.90935 11.1556C3.23559 9.11978 4.81085 7.65147 6.65625 7.65147C7.25643 7.65147 7.81072 7.8033 8.36657 8.10835L8.37781 8.11452H8.39062H8.3909H8.39118H8.39145H8.39173H8.39201H8.39229H8.39257H8.39286H8.39314H8.39342H8.39371H8.394H8.39429H8.39457H8.39486H8.39515H8.39545H8.39574H8.39604H8.39633H8.39663H8.39692H8.39722H8.39752H8.39782H8.39812H8.39843H8.39873H8.39903H8.39934H8.39964H8.39995H8.40026H8.40057H8.40088H8.40119H8.4015H8.40182H8.40213H8.40245H8.40276H8.40308H8.4034H8.40372H8.40404H8.40436H8.40468H8.40501H8.40533H8.40565H8.40598H8.40631H8.40664H8.40697H8.4073H8.40763H8.40796H8.40829H8.40863H8.40896H8.4093H8.40963H8.40997H8.41031H8.41065H8.41099H8.41133H8.41167H8.41202H8.41236H8.4127H8.41305H8.4134H8.41375H8.41409H8.41444H8.41479H8.41515H8.4155H8.41585H8.41621H8.41656H8.41692H8.41727H8.41763H8.41799H8.41835H8.41871H8.41907H8.41943H8.4198H8.42016H8.42053H8.42089H8.42126H8.42163H8.422H8.42237H8.42274H8.42311H8.42348H8.42385H8.42422H8.4246H8.42497H8.42535H8.42573H8.42611H8.42648H8.42686H8.42724H8.42763H8.42801H8.42839H8.42877H8.42916H8.42954H8.42993H8.43032H8.43071H8.43109H8.43148H8.43187H8.43227H8.43266H8.43305H8.43344H8.43384H8.43423H8.43463H8.43503H8.43542H8.43582H8.43622H8.43662H8.43702H8.43742H8.43783H8.43823H8.43863H8.43904H8.43944H8.43985H8.44026H8.44066H8.44107H8.44148H8.44189H8.4423H8.44271H8.44313H8.44354H8.44395H8.44437H8.44478H8.4452H8.44562H8.44604H8.44645H8.44687H8.44729H8.44771H8.44813H8.44856H8.44898H8.4494H8.44983H8.45025H8.45068H8.4511H8.45153H8.45196H8.45239H8.45282H8.45325H8.45368H8.45411H8.45454H8.45497H8.45541H8.45584H8.45628H8.45671H8.45715H8.45759H8.45802H8.45846H8.4589H8.45934H8.45978H8.46022H8.46066H8.46111H8.46155H8.46199H8.46244H8.46288H8.46333H8.46377H8.46422H8.46467H8.46512H8.46557H8.46601H8.46646H8.46692H8.46737H8.46782H8.46827H8.46873H8.46918H8.46964H8.47009H8.47055H8.471H8.47146H8.47192H8.47238H8.47284H8.4733H8.47375H8.47422H8.47468H8.47514H8.4756H8.47607H8.47653H8.47699H8.47746H8.47793H8.47839H8.47886H8.47933H8.47979H8.48026H8.48073H8.4812H8.48167H8.48214H8.48261H8.48309H8.48356H8.48403H8.48451H8.48498H8.48545H8.48593H8.48641H8.48688H8.48736H8.48784H8.48832H8.4888H8.48927H8.48975H8.49023H8.49072H8.4912H8.49168H8.49216H8.49264H8.49313H8.49361H8.4941H8.49458H8.49507H8.49555H8.49604H8.49653H8.49701H8.4975H8.49799H8.49848H8.49897H8.49946H8.49995H8.50044H8.50093H8.50143H8.50192H8.50241H8.50291H8.5034H8.50389H8.50439H8.50489H8.50538H8.50588H8.50638H8.50687H8.50737H8.50787H8.50837H8.50887H8.50937H8.50987H8.51037H8.51087H8.51137H8.51187H8.51237H8.51288H8.51338H8.51389H8.51439H8.51489H8.5154H8.5159H8.51641H8.51692H8.51742H8.51793H8.51844H8.51895H8.51945H8.51996H8.52047H8.52098H8.52149H8.522H8.52251H8.52303H8.52354H8.52405H8.52456H8.52507H8.52559H8.5261H8.52662H8.52713H8.52765H8.52816H8.52868H8.52919H8.52971H8.53022H8.53074H8.53126H8.53178H8.53229H8.53281H8.53333H8.53385H8.53437H8.53489H8.53541H8.53593H8.53645H8.53697H8.5375H8.53802H8.53854H8.53906H8.53959H8.54011H8.54063H8.54116H8.54168H8.54221H8.54273H8.54326H8.54378H8.54431H8.54483H8.54536H8.54589H8.54641H8.54694H8.54747H8.548H8.54853H8.54905H8.54958H8.55011H8.55064H8.55117H8.5517H8.55223H8.55276H8.55329H8.55382H8.55436H8.55489H8.55542H8.55595H8.55649H8.55702H8.55755H8.55808H8.55862H8.55915H8.55969H8.56022H8.56075H8.56129H8.56182H8.56236H8.5629H8.56343H8.56397H8.5645H8.56504H8.56558H8.56611H8.56665H8.56719H8.56773H8.56826H8.5688H8.56934H8.56988H8.57042H8.57096H8.5715H8.57203H8.57257H8.57311H8.57365H8.57419H8.57473H8.57528H8.57582H8.57636H8.5769H8.57744H8.57798H8.57852H8.57906H8.57961H8.58015H8.58069H8.58123H8.58178H8.58232H8.58286H8.58341H8.58395H8.58449H8.58504H8.58558H8.58612H8.58667H8.58721H8.58776H8.5883H8.58885H8.58939H8.58994H8.59048H8.59103H8.59157H8.59212H8.59266H8.59321H8.59375H8.5943H8.59485H8.59539H8.59594H8.59648H8.59703H8.59758H8.59812H8.59867H8.59922H8.59977H8.60031H8.60086H8.60141H8.60195H8.6025H8.60305H8.6036H8.60415H8.60469H8.60524H8.60579H8.60634H8.60688H8.60743H8.60798H8.60853H8.60908H8.60963H8.61018H8.61072H8.61127H8.61182H8.61237H8.61292H8.61347H8.61402H8.61457H8.61511H8.61566H8.61621H8.61676H8.61731H8.61786H8.61841H8.61896H8.61951H8.62006H8.62061H8.62115H8.6217H8.62225H8.6228H8.62335H8.6239H8.62445H8.625H8.63782L8.64906 8.10835C8.70506 8.07761 8.74615 8.03211 8.7732 7.98757C8.79817 7.94647 8.8139 7.9016 8.81549 7.86481C9.23449 5.98347 10.7623 4.66739 12.5156 4.66739C13.9477 4.66739 15.2434 5.52927 15.8922 6.90227C15.9242 6.97215 15.9986 7.01714 16.0696 7.03841C16.1395 7.05932 16.2232 7.06247 16.2861 7.02984C16.7029 6.8777 17.1645 6.77683 17.625 6.77683C19.7021 6.77683 21.4188 8.65318 21.4188 10.9971V10.9977V10.9983V10.999V10.9996V11.0002V11.0008V11.0014V11.002V11.0026V11.0032V11.0038V11.0044V11.005V11.0056V11.0062V11.0068V11.0074V11.008V11.0086V11.0092V11.0098V11.0104V11.011V11.0116V11.0122V11.0128V11.0134V11.014V11.0146V11.0152V11.0158V11.0164V11.017V11.0176V11.0182V11.0188V11.0194V11.0201V11.0207V11.0213V11.0219V11.0225V11.0231V11.0237V11.0243V11.0249V11.0255V11.0261V11.0267V11.0273V11.0279V11.0285V11.0291V11.0297V11.0303V11.0309V11.0315V11.0321V11.0327V11.0333V11.0339V11.0345V11.0351V11.0357V11.0363V11.0369V11.0375V11.0381V11.0387V11.0393V11.0399V11.0406V11.0412V11.0418V11.0424V11.043V11.0436V11.0442V11.0448V11.0454V11.046V11.0466V11.0472V11.0478V11.0484V11.049V11.0496V11.0502V11.0508V11.0514V11.052V11.0526V11.0532V11.0538V11.0544V11.055V11.0556V11.0562V11.0568V11.0574V11.058V11.0586V11.0592V11.0598V11.0604V11.0611V11.0617V11.0623V11.0629V11.0635V11.0641V11.0647V11.0653V11.0659V11.0665V11.0671V11.0677V11.0683V11.0689V11.0695V11.0701V11.0707V11.0713V11.0719V11.0725V11.0731V11.0737V11.0743V11.0749V11.0755V11.0761V11.0767V11.0773V11.0779V11.0785V11.0791V11.0797V11.0803V11.0809V11.0816V11.0822V11.0828V11.0834V11.084V11.0846V11.0852V11.0858V11.0864V11.087V11.0876V11.0882V11.0888V11.0894V11.09V11.0906V11.0912V11.0918V11.0924V11.093V11.0936V11.0942V11.0948V11.0954V11.096V11.0966V11.0972V11.0978V11.0984V11.099V11.0996V11.1002V11.1008V11.1014V11.1021V11.1027V11.1033V11.1039V11.1045V11.1051V11.1057V11.1063V11.1069V11.1075V11.1081V11.1087V11.1093V11.1099V11.1105V11.1111V11.1117V11.1123V11.1129V11.1135V11.1141V11.1147V11.1153V11.1159V11.1165V11.1171V11.1177V11.1183V11.1189V11.1195V11.1201V11.1207V11.1213V11.1219V11.1226V11.1232V11.1238V11.1244V11.125V11.1256V11.1262V11.1268V11.1274V11.128V11.1286V11.1292V11.1298V11.1304V11.131V11.1316V11.1322V11.1328V11.1334V11.134V11.1346V11.1352V11.1358V11.1364V11.137V11.1376V11.1382V11.1388V11.1394V11.14V11.1406V11.1412V11.1418V11.1424V11.143V11.1437V11.1443V11.1449V11.1455V11.1461V11.1467V11.1473V11.1479V11.1485V11.1491V11.1497V11.1503V11.1509V11.1515V11.1521V11.1527V11.1533V11.1539V11.1545V11.1551V11.1557V11.1563V11.1569V11.1575V11.1581V11.1587V11.1593V11.1599V11.1605V11.1611V11.1617V11.1623V11.1629V11.1635V11.1642V11.1648V11.1654V11.166V11.1666V11.1672V11.1678V11.1684V11.169V11.1696V11.1702V11.1708V11.1714V11.172V11.1726V11.1732V11.1738V11.1744V11.175V11.1756V11.1762V11.1768V11.1774V11.178V11.1786V11.1792V11.1798V11.1804V11.181V11.1816V11.1822V11.1828V11.1834V11.184V11.1847V11.1853V11.1859V11.1865V11.1871V11.1877V11.1883V11.1889V11.1895V11.1901V11.1907V11.1913V11.1919V11.1925V11.1931V11.1937V11.1943V11.1949V11.1955V11.1961V11.1967V11.1973V11.1979V11.1985V11.1991V11.1997V11.2003V11.2009V11.2015V11.2021V11.2027V11.2033V11.2039V11.2045V11.2052V11.2058V11.2064V11.207V11.2076V11.2082V11.2088V11.2094V11.21V11.2106V11.2112V11.2118V11.2124V11.213V11.2136V11.2142V11.2148V11.2154V11.216V11.2166V11.2172V11.2178V11.2184V11.219V11.2196V11.2202V11.2208V11.2214V11.222V11.2226V11.2232V11.2238V11.2244V11.225V11.2257V11.2263V11.2269V11.2275V11.2281V11.2287V11.2293V11.2299V11.2305V11.2311V11.2317V11.2323V11.2329V11.2335V11.2341V11.2347V11.2353V11.2359V11.2365V11.2371V11.2377V11.2383V11.2389V11.2395V11.2401V11.2407V11.2413V11.2419V11.2425V11.2431V11.2437V11.2443V11.2449V11.2455V11.2461V11.2468V11.2474V11.248V11.2486V11.2492V11.2498V11.2504V11.251V11.2516V11.2522V11.2528V11.2534V11.254V11.2546V11.2552V11.2558V11.2564V11.257V11.2576V11.2582V11.2588V11.2594V11.26V11.2606V11.2612V11.2618V11.2624V11.263V11.2636V11.2642V11.2648V11.2654V11.266V11.2666V11.2673V11.2679V11.2685V11.2691V11.2697V11.2703V11.2709V11.2715V11.2721V11.2727V11.2733V11.2739V11.2745V11.2751V11.2757V11.2763V11.2769V11.2775V11.2781V11.2787V11.2793V11.2799V11.2805V11.2811V11.2817V11.2823V11.2829V11.2835V11.2841V11.2847V11.2853V11.2859V11.2865V11.2871V11.2878V11.2884V11.289V11.2896V11.2902V11.2908V11.2914V11.292V11.2926V11.2932V11.2938V11.2944V11.295V11.2956V11.2962V11.2968V11.2974V11.298V11.2986V11.2992V11.2998V11.3004V11.301V11.3016V11.3022V11.3028V11.3034V11.304V11.3046V11.3052V11.3058C21.4188 11.425 21.4733 11.5394 21.5724 11.6482ZM4.54688 20.3081H19.4531C22.0166 20.3081 24.05 18.0171 24.05 15.2675C24.05 13.6148 23.3011 12.1151 22.0812 11.1782V11.1781V11.1775V11.177V11.1764V11.1759V11.1753V11.1748V11.1742V11.1737V11.1731V11.1726V11.172V11.1715V11.171V11.1704V11.1699V11.1693V11.1688V11.1683V11.1677V11.1672V11.1667V11.1661V11.1656V11.1651V11.1645V11.164V11.1635V11.163V11.1624V11.1619V11.1614V11.1609V11.1604V11.1598V11.1593V11.1588V11.1583V11.1578V11.1572V11.1567V11.1562V11.1557V11.1552V11.1547V11.1542V11.1537V11.1532V11.1527V11.1522V11.1517V11.1511V11.1506V11.1501V11.1496V11.1491V11.1486V11.1482V11.1477V11.1472V11.1467V11.1462V11.1457V11.1452V11.1447V11.1442V11.1437V11.1432V11.1427V11.1423V11.1418V11.1413V11.1408V11.1403V11.1398V11.1394V11.1389V11.1384V11.1379V11.1375V11.137V11.1365V11.136V11.1356V11.1351V11.1346V11.1341V11.1337V11.1332V11.1327V11.1323V11.1318V11.1313V11.1309V11.1304V11.1299V11.1295V11.129V11.1286V11.1281V11.1276V11.1272V11.1267V11.1263V11.1258V11.1254V11.1249V11.1245V11.124V11.1236V11.1231V11.1227V11.1222V11.1218V11.1213V11.1209V11.1204V11.12V11.1195V11.1191V11.1186V11.1182V11.1178V11.1173V11.1169V11.1164V11.116V11.1156V11.1151V11.1147V11.1143V11.1138V11.1134V11.113V11.1125V11.1121V11.1117V11.1113V11.1108V11.1104V11.11V11.1095V11.1091V11.1087V11.1083V11.1079V11.1074V11.107V11.1066V11.1062V11.1058V11.1053V11.1049V11.1045V11.1041V11.1037V11.1033V11.1028V11.1024V11.102V11.1016V11.1012V11.1008V11.1004V11.1V11.0996V11.0991V11.0987V11.0983V11.0979V11.0975V11.0971V11.0967V11.0963V11.0959V11.0955V11.0951V11.0947V11.0943V11.0939V11.0935V11.0931V11.0927V11.0923V11.0919V11.0915V11.0911V11.0908V11.0904V11.09V11.0896V11.0892V11.0888V11.0884V11.088V11.0876V11.0872V11.0869V11.0865V11.0861V11.0857V11.0853V11.0849V11.0845V11.0842V11.0838V11.0834V11.083V11.0826V11.0823V11.0819V11.0815V11.0811V11.0807V11.0804V11.08V11.0796V11.0792V11.0789V11.0785V11.0781V11.0778V11.0774V11.077V11.0766V11.0763V11.0759V11.0755V11.0752V11.0748V11.0744V11.0741V11.0737V11.0733V11.073V11.0726V11.0722V11.0719V11.0715V11.0711V11.0708V11.0704V11.0701V11.0697V11.0693V11.069V11.0686V11.0683V11.0679V11.0675V11.0672V11.0668V11.0665V11.0661V11.0658V11.0654V11.0651V11.0647V11.0644V11.064V11.0636V11.0633V11.0629V11.0626V11.0622V11.0619V11.0615V11.0612V11.0608V11.0605V11.0602V11.0598V11.0595V11.0591V11.0588V11.0584V11.0581V11.0577V11.0574V11.057V11.0567V11.0564V11.056V11.0557V11.0553V11.055V11.0547V11.0543V11.054V11.0536V11.0533V11.053V11.0526V11.0523V11.052V11.0516V11.0513V11.0509V11.0506V11.0503V11.0499V11.0496V11.0493V11.0489V11.0486V11.0483V11.0479V11.0476V11.0473V11.0469V11.0466V11.0463V11.046V11.0456V11.0453V11.045V11.0446V11.0443V11.044V11.0437V11.0433V11.043V11.0427V11.0423V11.042V11.0417V11.0414V11.041V11.0407V11.0404V11.0401V11.0398V11.0394V11.0391V11.0388V11.0385V11.0381V11.0378V11.0375V11.0372V11.0369V11.0365V11.0362V11.0359V11.0356V11.0353V11.0349V11.0346V11.0343V11.034V11.0337V11.0333V11.033V11.0327V11.0324V11.0321V11.0318V11.0314V11.0311V11.0308V11.0305V11.0302V11.0299V11.0296V11.0292V11.0289V11.0286V11.0283V11.028V11.0277V11.0274V11.027V11.0267V11.0264V11.0261V11.0258V11.0255V11.0252V11.0249V11.0246V11.0242V11.0239V11.0236V11.0233V11.023V11.0227V11.0224V11.0221V11.0218V11.0215V11.0211V11.0208V11.0205V11.0202V11.0199V11.0196V11.0193V11.019V11.0187V11.0184V11.0181V11.0178V11.0175V11.0171V11.0168V11.0165V11.0162V11.0159V11.0156V11.0153V11.015V11.0147V11.0144V11.0141V11.0138V11.0135V11.0132V11.0129V11.0126V11.0123V11.012V11.0117V11.0114V11.011V11.0107V11.0104V11.0101V11.0098V11.0095V11.0092V11.0089V11.0086V11.0083V11.008V11.0077V11.0074V11.0071V11.0068V11.0065V11.0062V11.0059V11.0056V11.0053V11.005V11.0047V11.0044V11.0041V11.0038V11.0035V11.0032V11.0029V11.0026V11.0023V11.002V11.0017V11.0014V11.0011V11.0008V11.0005V11.0002V10.9999V10.9996V10.9993V10.999V10.9986V10.9983V10.998V10.9977V10.9974V10.9971C22.0812 8.29935 20.095 6.05943 17.625 6.05943C17.1638 6.05943 16.748 6.15753 16.336 6.30499C15.5266 4.82078 14.0687 3.95 12.5156 3.95C10.5872 3.95 8.89501 5.27985 8.31159 7.27492C7.76249 7.03194 7.25315 6.93408 6.65625 6.93408C5.61174 6.93408 4.56813 7.35092 3.76217 8.13143C3.00944 8.85437 2.4909 9.8331 2.29843 10.9147C0.840701 11.802 -0.05 13.4586 -0.05 15.2675C-0.05 18.0171 1.98341 20.3081 4.54688 20.3081Z" fill="#5D5AF9" stroke="#5D5AF9" stroke-width="0.1"/>
<path d="M19.5229 12.901L19.5228 12.901V12.9033C19.5228 12.9889 19.5464 13.0758 19.5897 13.1427C19.6329 13.2096 19.7002 13.262 19.7867 13.262H19.787H19.7872H19.7875H19.7877H19.788H19.7882H19.7885H19.7887H19.7889H19.7892H19.7894H19.7897H19.7899H19.7901H19.7904H19.7906H19.7908H19.7911H19.7913H19.7915H19.7918H19.792H19.7922H19.7925H19.7927H19.7929H19.7931H19.7934H19.7936H19.7938H19.794H19.7943H19.7945H19.7947H19.7949H19.7951H19.7953H19.7956H19.7958H19.796H19.7962H19.7964H19.7966H19.7968H19.797H19.7973H19.7975H19.7977H19.7979H19.7981H19.7983H19.7985H19.7987H19.7989H19.7991H19.7993H19.7995H19.7997H19.7999H19.8001H19.8003H19.8005H19.8007H19.8008H19.801H19.8012H19.8014H19.8016H19.8018H19.802H19.8022H19.8024H19.8025H19.8027H19.8029H19.8031H19.8033H19.8035H19.8036H19.8038H19.804H19.8042H19.8043H19.8045H19.8047H19.8049H19.805H19.8052H19.8054H19.8056H19.8057H19.8059H19.8061H19.8062H19.8064H19.8066H19.8067H19.8069H19.8071H19.8072H19.8074H19.8075H19.8077H19.8079H19.808H19.8082H19.8083H19.8085H19.8086H19.8088H19.809H19.8091H19.8093H19.8094H19.8096H19.8097H19.8099H19.81H19.8102H19.8103H19.8105H19.8106H19.8107H19.8109H19.811H19.8112H19.8113H19.8115H19.8116H19.8117H19.8119H19.812H19.8122H19.8123H19.8124H19.8126H19.8127H19.8128H19.813H19.8131H19.8132H19.8134H19.8135H19.8136H19.8138H19.8139H19.814H19.8141H19.8143H19.8144H19.8145H19.8146H19.8148H19.8149H19.815H19.8151H19.8152H19.8154H19.8155H19.8156H19.8157H19.8158H19.816H19.8161H19.8162H19.8163H19.8164H19.8165H19.8166H19.8168H19.8169H19.817H19.8171H19.8172H19.8173H19.8174H19.8175H19.8176H19.8177H19.8178H19.8179H19.8181H19.8182H19.8183H19.8184H19.8185H19.8186H19.8187H19.8188H19.8189H19.819H19.8191H19.8192H19.8193H19.8194H19.8194H19.8195H19.8196H19.8197H19.8198H19.8199H19.82H19.8201H19.8202H19.8203H19.8204H19.8205H19.8206H19.8206H19.8207H19.8208H19.8209H19.821H19.8211H19.8212H19.8212H19.8213H19.8214H19.8215H19.8216H19.8217H19.8217H19.8218H19.8219H19.822H19.8221H19.8221H19.8222H19.8223H19.8224H19.8224H19.8225H19.8226H19.8227H19.8227H19.8228H19.8229H19.823H19.823H19.8231H19.8232H19.8232H19.8233H19.8234H19.8234H19.8235H19.8236H19.8236H19.8237H19.8238H19.8238H19.8239H19.824H19.824H19.8241H19.8242H19.8242H19.8243H19.8243H19.8244H19.8245H19.8245H19.8246H19.8246H19.8247H19.8248H19.8248H19.8249H19.8249H19.825H19.825H19.8251H19.8252H19.8252H19.8253H19.8253H19.8254H19.8254H19.8255H19.8255H19.8256H19.8256H19.8257H19.8257H19.8258H19.8258H19.8259H19.8259H19.826H19.826H19.8261H19.8261H19.8262H19.8262H19.8263H19.8263H19.8263H19.8264H19.8264H19.8265H19.8265H19.8266H19.8266H19.8266H19.8267H19.8267H19.8268H19.8268H19.8268H19.8269H19.8269H19.827H19.827H19.827H19.8271H19.8271H19.8271H19.8272H19.8272H19.8273H19.8273H19.8273H19.8274H19.8274H19.8274H19.8275H19.8275H19.8275H19.8276H19.8276H19.8276H19.8276H19.8277H19.8277H19.8277H19.8278H19.8278H19.8278H19.8279H19.8279H19.8279H19.8279H19.828H19.828H19.828H19.828H19.8281H19.8281H19.8281H19.8282H19.8282H19.8282H19.8282H19.8282H19.8283H19.8283H19.8283H19.8283H19.8284H19.8284H19.8284H19.8284H19.8285H19.8285H19.8285H19.8285H19.8285H19.8286H19.8286H19.8286H19.8286H19.8286H19.8287H19.8287H19.8287H19.8287H19.8287H19.8287H19.8288H19.8288H19.8288H19.8288H19.8288H19.8288H19.8289H19.8289H19.8289H19.8289H19.8289H19.8289H19.8289H19.829H19.829H19.829H19.829H19.829H19.829H19.829H19.829H19.8291H19.8291H19.8291H19.8291H19.8291H19.8291H19.8291H19.8291H19.8291H19.8292H19.8292H19.8292H19.8292H19.8292H19.8292H19.8292H19.8292H19.8292H19.8292H19.8293H19.8293H19.8293H19.8293H19.8293H19.8293H19.8293H19.8293H19.8293H19.8293H19.8293H19.8294H19.8294H19.8294H19.8294H19.8294H19.8294H19.8294H19.8294H19.8294H19.8294H19.8295H19.8295H19.8295H19.8295H19.8295H19.8295H19.8295C19.9819 13.262 20.1355 13.1403 20.1362 12.9559L20.1789 12.031L20.179 12.031V12.0287V12.028V12.0274V12.0268V12.0262V12.0256V12.025V12.0244V12.0238V12.0232V12.0226V12.022V12.0214V12.0208V12.0202V12.0196V12.019V12.0184V12.0178V12.0172V12.0166V12.016V12.0154V12.0148V12.0142V12.0136V12.013V12.0124V12.0118V12.0112V12.0106V12.01V12.0094V12.0088V12.0082V12.0076V12.007V12.0064V12.0058V12.0052V12.0046V12.004V12.0034V12.0028V12.0022V12.0016V12.001V12.0004V11.9998V11.9992V11.9986V11.998V11.9974V11.9968V11.9962V11.9956V11.995V11.9944V11.9938V11.9932V11.9926V11.992V11.9914V11.9908V11.9902V11.9896V11.989V11.9884V11.9878V11.9872V11.9866V11.986V11.9854V11.9848V11.9842V11.9836V11.983V11.9824V11.9818V11.9812V11.9806V11.98V11.9794V11.9788V11.9782V11.9776V11.977V11.9764V11.9759V11.9753V11.9747V11.9741V11.9735V11.9729V11.9723V11.9717V11.9711V11.9705V11.9699V11.9693V11.9687V11.9682V11.9676V11.967V11.9664V11.9658V11.9652V11.9646V11.964V11.9634V11.9628V11.9623V11.9617V11.9611V11.9605V11.9599V11.9593V11.9587V11.9581V11.9575V11.957V11.9564V11.9558V11.9552V11.9546V11.954V11.9535V11.9529V11.9523V11.9517V11.9511V11.9505V11.9499V11.9494V11.9488V11.9482V11.9476V11.947V11.9465V11.9459V11.9453V11.9447V11.9441V11.9436V11.943V11.9424V11.9418V11.9412V11.9407V11.9401V11.9395V11.9389V11.9384V11.9378V11.9372V11.9366V11.9361V11.9355V11.9349V11.9343V11.9338V11.9332V11.9326V11.932V11.9315V11.9309V11.9303V11.9297V11.9292V11.9286V11.928V11.9275V11.9269V11.9263V11.9258V11.9252V11.9246V11.9241V11.9235V11.9229V11.9224V11.9218V11.9212V11.9207V11.9201V11.9195V11.919V11.9184V11.9178V11.9173V11.9167V11.9162V11.9156V11.915V11.9145V11.9139V11.9134V11.9128V11.9122V11.9117V11.9111V11.9106V11.91V11.9095V11.9089V11.9084V11.9078V11.9072V11.9067V11.9061V11.9056V11.905V11.9045V11.9039V11.9034V11.9028V11.9023V11.9017V11.9012V11.9006V11.9001V11.8995V11.899V11.8985V11.8979V11.8974V11.8968V11.8963V11.8957V11.8952V11.8946V11.8941V11.8936V11.893V11.8925V11.8919V11.8914V11.8909V11.8903V11.8898V11.8892V11.8887V11.8882V11.8876V11.8871V11.8866V11.886V11.8855V11.885V11.8844V11.8839V11.8834V11.8828V11.8823V11.8818V11.8813V11.8807V11.8802V11.8797V11.8792V11.8786V11.8781V11.8776V11.8771V11.8765V11.876V11.8755V11.875V11.8744V11.8739V11.8734V11.8729V11.8724V11.8719V11.8713V11.8708V11.8703V11.8698V11.8693V11.8688V11.8682V11.8677V11.8672V11.8667V11.8662V11.8657V11.8652V11.8647V11.8642V11.8637V11.8632V11.8626V11.8621V11.8616V11.8611V11.8606V11.8601V11.8596V11.8591V11.8586V11.8581V11.8576V11.8571V11.8566V11.8561V11.8556V11.8551V11.8546V11.8542V11.8537V11.8532V11.8527V11.8522V11.8517V11.8512V11.8507V11.8502V11.8497V11.8492V11.8488V11.8483V11.8478V11.8473V11.8468V11.8463V11.8459V11.8454V11.8449V11.8444V11.8439V11.8435V11.843V11.8425V11.842V11.8416V11.8411V11.8406V11.8401V11.8397V11.8392V11.8387V11.8383V11.8378V11.8373V11.8369V11.8364V11.8359V11.8355V11.835V11.8345V11.8341V11.8336V11.8331V11.8327V11.8322V11.8318V11.8313V11.8308V11.8304V11.8299V11.8295V11.829V11.8286V11.8281V11.8277V11.8272V11.8268V11.8263V11.8259V11.8254V11.825V11.8245V11.8241V11.8237V11.8232V11.8228V11.8223V11.8219V11.8214V11.821V11.8206V11.8201V11.8197V11.8193V11.8188V11.8184V11.818V11.8175V11.8171V11.8167V11.8162V11.8158V11.8154V11.815V11.8145V11.8141V11.8137V11.8133V11.8129V11.8124V11.812V11.8116V11.8112V11.8108V11.8103V11.8099V11.8095V11.8091V11.8087V11.8083V11.8079V11.8075V11.8071V11.8066V11.8062V11.8058V11.8054V11.805V11.8046V11.8042V11.8038V11.8034V11.803V11.8026V11.8022V11.8018V11.8014V11.801V11.8007V11.8003V11.7999V11.7995V11.7991V11.7987V11.7983V11.7979V11.7975V11.7972V11.7968V11.7964V11.796V11.7956V11.7953V11.7949V11.7945V11.7941V11.7938V11.7934V11.793V11.7926V11.7923V11.7919V11.7915V11.7912V11.7908V11.7904V11.7901V11.7897V11.7893V11.789V11.7886V11.7883V11.7879V11.7875V11.7872V11.7868V11.7865V11.7861V11.7858V11.7854V11.7851V11.7847V11.7844V11.784V11.7837V11.7833V11.783V11.7827V11.7823V11.782V11.7816V11.7813V11.781V11.7806V11.7803V11.78V11.7796V11.7793V11.779V11.7786V11.7783V11.778V11.7777V11.7773V11.777V11.7767V11.7764V11.7761V11.7757V11.7754V11.7751V11.7748V11.7745V11.7742V11.7739V11.7735V11.7732V11.7729V11.7726V11.7723V11.772V11.7717V11.7714C20.179 9.90118 18.9246 8.37718 17.391 8.37718C17.0404 8.37718 16.7342 8.48239 16.4367 8.58463L16.4336 8.58569L16.4335 8.58537L16.4282 8.58792L15.6193 8.97705L15.2123 8.04707C14.7351 6.95148 13.7778 6.26775 12.728 6.26775C11.4582 6.26775 10.3303 7.31889 10.0269 8.82723C9.9784 9.0058 10.0769 9.18472 10.2281 9.24533C10.3102 9.27824 10.4022 9.26081 10.472 9.21501C10.5411 9.1697 10.5941 9.09291 10.5961 8.99856C10.8505 7.78357 11.7319 6.98514 12.728 6.98514C13.5587 6.98514 14.271 7.53421 14.6932 8.39669L15.2058 9.57827C15.2059 9.5784 15.2059 9.57853 15.206 9.57866C15.2315 9.63975 15.2813 9.69935 15.3439 9.73698C15.4074 9.77519 15.4881 9.79269 15.5701 9.75983L15.5701 9.75985L15.5713 9.75931L16.6408 9.29626L16.641 9.29667L16.6467 9.29322C16.8942 9.14441 17.1416 9.09458 17.391 9.09458C18.5947 9.09458 19.5656 10.2966 19.5656 11.7714V11.7717V11.772V11.7723V11.7726V11.7729V11.7732V11.7735V11.7739V11.7742V11.7745V11.7748V11.7751V11.7754V11.7757V11.7761V11.7764V11.7767V11.777V11.7773V11.7777V11.778V11.7783V11.7786V11.779V11.7793V11.7796V11.78V11.7803V11.7806V11.781V11.7813V11.7816V11.782V11.7823V11.7826V11.783V11.7833V11.7837V11.784V11.7844V11.7847V11.785V11.7854V11.7857V11.7861V11.7864V11.7868V11.7871V11.7875V11.7879V11.7882V11.7886V11.7889V11.7893V11.7896V11.79V11.7904V11.7907V11.7911V11.7914V11.7918V11.7922V11.7925V11.7929V11.7933V11.7936V11.794V11.7944V11.7948V11.7951V11.7955V11.7959V11.7963V11.7966V11.797V11.7974V11.7978V11.7981V11.7985V11.7989V11.7993V11.7997V11.8V11.8004V11.8008V11.8012V11.8016V11.802V11.8024V11.8027V11.8031V11.8035V11.8039V11.8043V11.8047V11.8051V11.8055V11.8059V11.8063V11.8067V11.8071V11.8075V11.8079V11.8083V11.8087V11.8091V11.8095V11.8099V11.8103V11.8107V11.8111V11.8115V11.8119V11.8123V11.8127V11.8131V11.8135V11.8139V11.8143V11.8147V11.8151V11.8156V11.816V11.8164V11.8168V11.8172V11.8176V11.818V11.8184V11.8189V11.8193V11.8197V11.8201V11.8205V11.8209V11.8214V11.8218V11.8222V11.8226V11.823V11.8235V11.8239V11.8243V11.8247V11.8252V11.8256V11.826V11.8264V11.8269V11.8273V11.8277V11.8281V11.8286V11.829V11.8294V11.8299V11.8303V11.8307V11.8311V11.8316V11.832V11.8324V11.8329V11.8333V11.8337V11.8342V11.8346V11.835V11.8355V11.8359V11.8363V11.8368V11.8372V11.8376V11.8381V11.8385V11.839V11.8394V11.8398V11.8403V11.8407V11.8412V11.8416V11.842V11.8425V11.8429V11.8434V11.8438V11.8442V11.8447V11.8451V11.8456V11.846V11.8464V11.8469V11.8473V11.8478V11.8482V11.8487V11.8491V11.8496V11.85V11.8505V11.8509V11.8513V11.8518V11.8522V11.8527V11.8531V11.8536V11.854V11.8545V11.8549V11.8554V11.8558V11.8563V11.8567V11.8572V11.8576V11.8581V11.8585V11.859V11.8594V11.8599V11.8603V11.8608V11.8612V11.8617V11.8621V11.8626V11.863V11.8635V11.8639V11.8644V11.8648V11.8653V11.8657V11.8662V11.8666V11.8671V11.8675V11.868V11.8684V11.8689V11.8693V11.8698V11.8702V11.8707V11.8711V11.8716V11.872V11.8725V11.8729V11.8734V11.8739V11.8743V11.8748V11.8752V11.8757V11.8761V11.8766V11.877V11.8775V11.8779V11.8784V11.8788V11.8793V11.8797V11.8802V11.8806V11.8811V11.8815V11.882V11.8824V11.8829V11.8833V11.8838V11.8842V11.8847V11.8851V11.8856V11.886V11.8865V11.8869V11.8874V11.8878V11.8883V11.8887V11.8892V11.8896V11.8901V11.8905V11.891V11.8914V11.8919V11.8923V11.8928V11.8932V11.8937V11.8941V11.8946V11.895V11.8955V11.8959V11.8964V11.8968V11.8973V11.8977V11.8982V11.8986V11.899V11.8995V11.8999V11.9004V11.9008V11.9013V11.9017V11.9022V11.9026V11.903V11.9035V11.9039V11.9044V11.9048V11.9053V11.9057V11.9061V11.9066V11.907V11.9075V11.9079V11.9083V11.9088V11.9092V11.9096V11.9101V11.9105V11.911V11.9114V11.9118V11.9123V11.9127V11.9131V11.9136V11.914V11.9144V11.9149V11.9153V11.9157V11.9162V11.9166V11.917V11.9175V11.9179V11.9183V11.9188V11.9192V11.9196V11.92V11.9205V11.9209V11.9213V11.9217V11.9222V11.9226V11.923V11.9234V11.9239V11.9243V11.9247V11.9251V11.9256V11.926V11.9264V11.9268V11.9272V11.9277V11.9281V11.9285V11.9289V11.9293V11.9297V11.9302V11.9306V11.931V11.9314V11.9318V11.9322V11.9326V11.9331V11.9335V11.9339V11.9343V11.9347V11.9351V11.9355V11.9359V11.9363V11.9367V11.9371V11.9375V11.9379V11.9383V11.9387V11.9391V11.9395V11.9399V11.9403V11.9407V11.9411V11.9415V11.9419V11.9423V11.9427V11.9431V11.9435V11.9439V11.9443V11.9447V11.9451V11.9455V11.9459V11.9462V11.9466V11.947V11.9474V11.9478V11.9482V11.9486V11.9489V11.9493V11.9497V11.9501V11.9505V11.9508V11.9512V11.9516V11.952V11.9524V11.9527V11.9531V11.9535V11.9538V11.9542V11.9546V11.955V11.9553V11.9557V11.9561V11.9564V11.9568V11.9572V11.9575V11.9579V11.9582V11.9586V11.959V11.9593V11.9597V11.96V11.9604V11.9608V11.9611V11.9615V11.9618V11.9622V11.9625V11.9629V11.9632V11.9636V11.9639V11.9643V11.9646V11.9649V11.9653V11.9656V11.966V11.9663V11.9666V11.967V11.9673V11.9676V11.968V11.9683V11.9686V11.969V11.9693V11.9696V11.97V11.9703V11.9706V11.9709V11.9713V11.9716V11.9719V11.9722V11.9726V11.9729V11.9732V11.9735V11.9738V11.9741V11.9744V11.9748V11.9751V11.9754V11.9757V11.976V11.9763L19.5229 12.901Z" fill="#5D5AF9" stroke="#5D5AF9" stroke-width="0.1"/>
<path d="M12.3867 20.258V13.2903" stroke="#5D5AF9"/>
<path d="M9.29035 20.258V14.8387L6.96777 12.5161" stroke="#5D5AF9"/>
<path d="M15.4841 20.258V14.8387L17.8066 12.5161" stroke="#5D5AF9"/>
</g>
<defs>
<clipPath id="clip0_1755_3959">
<rect width="24" height="24" fill="white"/>
</clipPath>
</defs>
</svg>
