<svg width="328" height="511" viewBox="0 0 328 511" fill="none" xmlns="http://www.w3.org/2000/svg">
  <mask id="path-1-outside-1_50_1617" maskUnits="userSpaceOnUse" x="154" y="0" width="20" height="93" fill="black">
    <rect fill="white" x="154" width="20" height="93" />
    <path d="M155 0H173V92H155V0Z" />
  </mask>
  <path d="M155 0H173V92H155V0Z" fill="white" />
  <path d="M173 92V93H174V92H173ZM155 92H154V93H155V92ZM172 0V92H174V0H172ZM173 91H155V93H173V91ZM156 92V0H154V92H156Z"
    fill="#DEE7FF" mask="url(#path-1-outside-1_50_1617)" />
  <circle cx="164" cy="10" r="5" fill="#4A7DFF">
    <animate attributeName="r" values="3; 5; 3; 3; 3; 3; 3; 3" dur="3.5s" repeatCount="indefinite" />
    <animate attributeName="fill" values="#ABBDEB; #4A7DFF; #ABBDEB; #ABBDEB; #ABBDEB; #ABBDEB; #ABBDEB; #ABBDEB"
      dur="3.5s" repeatCount="indefinite" />
  </circle>
  <circle cx="164" cy="24" r="3" fill="#ABBDEB">
    <animate attributeName="r" values="3; 3; 5; 3; 3; 3; 3; 3" dur="3.5s" repeatCount="indefinite" />
    <animate attributeName="fill" values="#ABBDEB; #ABBDEB; #4A7DFF; #ABBDEB; #ABBDEB; #ABBDEB; #ABBDEB; #ABBDEB"
      dur="3.5s" repeatCount="indefinite" />
  </circle>
  <circle cx="164" cy="38" r="3" fill="#ABBDEB">
    <animate attributeName="r" values="3; 3; 3; 5; 3; 3; 3; 3" dur="3.5s" repeatCount="indefinite" />
    <animate attributeName="fill" values="#ABBDEB; #ABBDEB; #ABBDEB; #4A7DFF; #ABBDEB; #ABBDEB; #ABBDEB; #ABBDEB"
      dur="3.5s" repeatCount="indefinite" />
  </circle>
  <circle cx="164" cy="52" r="3" fill="#ABBDEB">
    <animate attributeName="r" values="3; 3; 3; 3; 5; 3; 3; 3; 3" dur="3.5s" repeatCount="indefinite" />
    <animate attributeName="fill" values="#ABBDEB; #ABBDEB; #ABBDEB; #ABBDEB; #4A7DFF; #ABBDEB; #ABBDEB; #ABBDEB"
      dur="3.5s" repeatCount="indefinite" />
  </circle>
  <circle cx="164" cy="66" r="3" fill="#ABBDEB">
    <animate attributeName="r" values="3; 3; 3; 3; 3; 5; 3; 3" dur="3.5s" repeatCount="indefinite" />
    <animate attributeName="fill" values="#ABBDEB; #ABBDEB; #ABBDEB; #ABBDEB; #ABBDEB; #4A7DFF; #ABBDEB; #ABBDEB"
      dur="3.5s" repeatCount="indefinite" />
  </circle>
  <circle cx="164" cy="80" r="3" fill="#ABBDEB">
    <animate attributeName="r" values="3; 3; 3; 3; 3; 3; 5; 3" dur="3.5s" repeatCount="indefinite" />
    <animate attributeName="fill" values="#ABBDEB; #ABBDEB; #ABBDEB; #ABBDEB; #ABBDEB; #ABBDEB; #4A7DFF; #ABBDEB"
      dur="3.5s" repeatCount="indefinite" />
  </circle>
  <mask id="path-9-outside-2_50_1617" maskUnits="userSpaceOnUse" x="154" y="419" width="20" height="92" fill="black">
    <rect fill="white" x="154" y="419" width="20" height="92" />
    <path d="M155 419H173V511H155V419Z" />
  </mask>
  <path d="M155 419H173V511H155V419Z" fill="white" />
  <path d="M172 419V511H174V419H172ZM156 511V419H154V511H156Z" fill="#DEE7FF" mask="url(#path-9-outside-2_50_1617)" />
  <circle cx="164" cy="429" r="5" fill="#4A7DFF">
    <animate attributeName="r" values="3; 5; 3; 3; 3; 3; 3; 3" dur="3.5s" repeatCount="indefinite" />
    <animate attributeName="fill" values="#ABBDEB; #4A7DFF; #ABBDEB; #ABBDEB; #ABBDEB; #ABBDEB; #ABBDEB; #ABBDEB"
      dur="3.5s" repeatCount="indefinite" />
  </circle>
  <circle cx="164" cy="443" r="3" fill="#ABBDEB">
    <animate attributeName="r" values="3; 3; 5; 3; 3; 3; 3; 3" dur="3.5s" repeatCount="indefinite" />
    <animate attributeName="fill" values="#ABBDEB; #ABBDEB; #4A7DFF; #ABBDEB; #ABBDEB; #ABBDEB; #ABBDEB; #ABBDEB"
      dur="3.5s" repeatCount="indefinite" />
  </circle>
  <circle cx="164" cy="457" r="3" fill="#ABBDEB">
    <animate attributeName="r" values="3; 3; 3; 5; 3; 3; 3; 3" dur="3.5s" repeatCount="indefinite" />
    <animate attributeName="fill" values="#ABBDEB; #ABBDEB; #ABBDEB; #4A7DFF; #ABBDEB; #ABBDEB; #ABBDEB; #ABBDEB"
      dur="3.5s" repeatCount="indefinite" />
  </circle>
  <circle cx="164" cy="471" r="3" fill="#ABBDEB">
    <animate attributeName="r" values="3; 3; 3; 3; 5; 3; 3; 3" dur="3.5s" repeatCount="indefinite" />
    <animate attributeName="fill" values="#ABBDEB; #ABBDEB; #ABBDEB; #ABBDEB; #4A7DFF; #ABBDEB; #ABBDEB; #ABBDEB"
      dur="3.5s" repeatCount="indefinite" />
  </circle>
  <circle cx="164" cy="485" r="3" fill="#ABBDEB">
    <animate attributeName="r" values="3; 3; 3; 3; 3; 5; 3; 3; 3" dur="3.5s" repeatCount="indefinite" />
    <animate attributeName="fill" values="#ABBDEB; #ABBDEB; #ABBDEB; #ABBDEB; #ABBDEB; #4A7DFF; #ABBDEB; #ABBDEB"
      dur="3.5s" repeatCount="indefinite" />
  </circle>
  <circle cx="164" cy="499" r="3" fill="#ABBDEB">
    <animate attributeName="r" values="3; 3; 3; 3; 3; 3; 5; 3" dur="3.5s" repeatCount="indefinite" />
    <animate attributeName="fill" values="#ABBDEB; #ABBDEB; #ABBDEB; #ABBDEB; #ABBDEB; #ABBDEB; #4A7DFF; #ABBDEB"
      dur="3.5s" repeatCount="indefinite" />
  </circle>
  <circle cx="164" cy="256" r="163.5" fill="white" stroke="#DEE7FF" />
  <circle cx="164" cy="256" r="150.5" fill="white" stroke="#DEE7FF" />
  <circle cx="164" cy="256" r="139.5" fill="#EDF2FF" stroke="#DEE7FF" />
  <path
    d="M114.148 318V306.364H118.511C119.405 306.364 120.155 306.53 120.761 306.864C121.371 307.197 121.831 307.655 122.142 308.239C122.456 308.818 122.614 309.477 122.614 310.216C122.614 310.962 122.456 311.625 122.142 312.205C121.828 312.784 121.364 313.241 120.75 313.574C120.136 313.903 119.381 314.068 118.483 314.068H115.591V312.335H118.199C118.722 312.335 119.15 312.244 119.483 312.062C119.816 311.881 120.063 311.631 120.222 311.312C120.384 310.994 120.466 310.629 120.466 310.216C120.466 309.803 120.384 309.439 120.222 309.125C120.063 308.811 119.814 308.566 119.477 308.392C119.144 308.214 118.714 308.125 118.188 308.125H116.256V318H114.148ZM124.354 318V309.273H126.348V310.727H126.439C126.598 310.223 126.871 309.835 127.257 309.562C127.647 309.286 128.092 309.148 128.592 309.148C128.706 309.148 128.833 309.153 128.973 309.165C129.117 309.172 129.236 309.186 129.331 309.205V311.097C129.244 311.066 129.106 311.04 128.916 311.017C128.731 310.991 128.551 310.977 128.376 310.977C128.001 310.977 127.664 311.059 127.365 311.222C127.07 311.381 126.837 311.602 126.666 311.886C126.496 312.17 126.411 312.498 126.411 312.869V318H124.354ZM130.697 318V309.273H132.754V318H130.697ZM131.732 308.034C131.406 308.034 131.125 307.926 130.891 307.71C130.656 307.491 130.538 307.227 130.538 306.92C130.538 306.61 130.656 306.347 130.891 306.131C131.125 305.911 131.406 305.801 131.732 305.801C132.061 305.801 132.341 305.911 132.572 306.131C132.807 306.347 132.925 306.61 132.925 306.92C132.925 307.227 132.807 307.491 132.572 307.71C132.341 307.926 132.061 308.034 131.732 308.034ZM142.665 309.273L139.557 318H137.284L134.176 309.273H136.369L138.375 315.756H138.466L140.477 309.273H142.665ZM146.349 318.176C145.796 318.176 145.298 318.078 144.855 317.881C144.416 317.68 144.067 317.384 143.81 316.994C143.556 316.604 143.429 316.123 143.429 315.551C143.429 315.059 143.52 314.652 143.702 314.33C143.884 314.008 144.132 313.75 144.446 313.557C144.76 313.364 145.115 313.218 145.509 313.119C145.906 313.017 146.317 312.943 146.741 312.898C147.253 312.845 147.668 312.797 147.986 312.756C148.304 312.71 148.535 312.642 148.679 312.551C148.827 312.456 148.901 312.311 148.901 312.114V312.08C148.901 311.652 148.774 311.32 148.52 311.085C148.266 310.85 147.901 310.733 147.423 310.733C146.92 310.733 146.52 310.843 146.224 311.062C145.933 311.282 145.736 311.542 145.634 311.841L143.713 311.568C143.865 311.038 144.115 310.595 144.463 310.239C144.812 309.879 145.238 309.61 145.741 309.432C146.245 309.25 146.802 309.159 147.412 309.159C147.832 309.159 148.251 309.208 148.668 309.307C149.084 309.405 149.465 309.568 149.81 309.795C150.154 310.019 150.431 310.324 150.639 310.71C150.851 311.097 150.957 311.58 150.957 312.159V318H148.98V316.801H148.912C148.787 317.044 148.611 317.271 148.384 317.483C148.16 317.691 147.878 317.86 147.537 317.989C147.2 318.114 146.804 318.176 146.349 318.176ZM146.884 316.665C147.296 316.665 147.654 316.583 147.957 316.42C148.26 316.254 148.493 316.034 148.656 315.761C148.823 315.489 148.906 315.191 148.906 314.869V313.841C148.842 313.894 148.732 313.943 148.577 313.989C148.425 314.034 148.255 314.074 148.065 314.108C147.876 314.142 147.688 314.172 147.503 314.199C147.317 314.225 147.156 314.248 147.02 314.267C146.713 314.309 146.438 314.377 146.196 314.472C145.954 314.566 145.762 314.699 145.622 314.869C145.482 315.036 145.412 315.252 145.412 315.517C145.412 315.896 145.55 316.182 145.827 316.375C146.103 316.568 146.455 316.665 146.884 316.665ZM157.384 309.273V310.864H152.366V309.273H157.384ZM153.605 307.182H155.662V315.375C155.662 315.652 155.704 315.864 155.787 316.011C155.874 316.155 155.988 316.254 156.128 316.307C156.268 316.36 156.423 316.386 156.594 316.386C156.723 316.386 156.84 316.377 156.946 316.358C157.056 316.339 157.139 316.322 157.196 316.307L157.543 317.915C157.433 317.953 157.276 317.994 157.071 318.04C156.87 318.085 156.624 318.112 156.332 318.119C155.817 318.134 155.353 318.057 154.94 317.886C154.527 317.712 154.2 317.443 153.957 317.08C153.719 316.716 153.601 316.261 153.605 315.716V307.182ZM162.874 318.17C161.999 318.17 161.243 317.989 160.607 317.625C159.974 317.258 159.487 316.739 159.146 316.068C158.805 315.394 158.635 314.6 158.635 313.688C158.635 312.79 158.805 312.002 159.146 311.324C159.491 310.642 159.972 310.112 160.589 309.733C161.207 309.35 161.932 309.159 162.766 309.159C163.304 309.159 163.811 309.246 164.288 309.42C164.769 309.591 165.194 309.856 165.561 310.216C165.932 310.576 166.224 311.034 166.436 311.591C166.648 312.144 166.754 312.803 166.754 313.568V314.199H159.601V312.812H164.783C164.779 312.419 164.694 312.068 164.527 311.761C164.36 311.451 164.127 311.206 163.828 311.028C163.533 310.85 163.188 310.761 162.794 310.761C162.374 310.761 162.004 310.864 161.686 311.068C161.368 311.269 161.12 311.534 160.942 311.864C160.768 312.189 160.679 312.547 160.675 312.938V314.148C160.675 314.655 160.768 315.091 160.953 315.455C161.139 315.814 161.398 316.091 161.732 316.284C162.065 316.473 162.455 316.568 162.902 316.568C163.201 316.568 163.472 316.527 163.714 316.443C163.957 316.356 164.167 316.229 164.345 316.062C164.523 315.896 164.658 315.689 164.749 315.443L166.669 315.659C166.548 316.167 166.317 316.61 165.976 316.989C165.639 317.364 165.207 317.655 164.68 317.864C164.154 318.068 163.552 318.17 162.874 318.17ZM176.27 318.17C175.399 318.17 174.651 317.979 174.026 317.597C173.404 317.214 172.925 316.686 172.588 316.011C172.255 315.333 172.088 314.553 172.088 313.67C172.088 312.784 172.259 312.002 172.599 311.324C172.94 310.642 173.421 310.112 174.043 309.733C174.668 309.35 175.406 309.159 176.259 309.159C176.967 309.159 177.594 309.29 178.139 309.551C178.688 309.809 179.126 310.174 179.452 310.648C179.777 311.117 179.963 311.667 180.009 312.295H178.043C177.963 311.875 177.774 311.525 177.474 311.244C177.179 310.96 176.783 310.818 176.287 310.818C175.866 310.818 175.497 310.932 175.179 311.159C174.861 311.383 174.613 311.705 174.435 312.125C174.26 312.545 174.173 313.049 174.173 313.636C174.173 314.231 174.26 314.742 174.435 315.17C174.609 315.595 174.853 315.922 175.168 316.153C175.486 316.381 175.859 316.494 176.287 316.494C176.59 316.494 176.861 316.437 177.099 316.324C177.342 316.206 177.545 316.038 177.707 315.818C177.87 315.598 177.982 315.331 178.043 315.017H180.009C179.959 315.634 179.777 316.182 179.463 316.659C179.149 317.133 178.721 317.504 178.179 317.773C177.637 318.038 177.001 318.17 176.27 318.17ZM183.754 306.364V318H181.697V306.364H183.754ZM189.676 318.17C188.824 318.17 188.085 317.983 187.46 317.608C186.835 317.233 186.35 316.708 186.006 316.034C185.665 315.36 185.494 314.572 185.494 313.67C185.494 312.769 185.665 311.979 186.006 311.301C186.35 310.623 186.835 310.097 187.46 309.722C188.085 309.347 188.824 309.159 189.676 309.159C190.528 309.159 191.267 309.347 191.892 309.722C192.517 310.097 193 310.623 193.341 311.301C193.686 311.979 193.858 312.769 193.858 313.67C193.858 314.572 193.686 315.36 193.341 316.034C193 316.708 192.517 317.233 191.892 317.608C191.267 317.983 190.528 318.17 189.676 318.17ZM189.688 316.523C190.15 316.523 190.536 316.396 190.847 316.142C191.157 315.884 191.388 315.54 191.54 315.108C191.695 314.676 191.773 314.195 191.773 313.665C191.773 313.131 191.695 312.648 191.54 312.216C191.388 311.78 191.157 311.434 190.847 311.176C190.536 310.919 190.15 310.79 189.688 310.79C189.214 310.79 188.82 310.919 188.506 311.176C188.195 311.434 187.962 311.78 187.807 312.216C187.655 312.648 187.58 313.131 187.58 313.665C187.58 314.195 187.655 314.676 187.807 315.108C187.962 315.54 188.195 315.884 188.506 316.142C188.82 316.396 189.214 316.523 189.688 316.523ZM201.166 314.33V309.273H203.223V318H201.229V316.449H201.138C200.941 316.937 200.617 317.337 200.166 317.648C199.719 317.958 199.168 318.114 198.513 318.114C197.941 318.114 197.435 317.987 196.996 317.733C196.56 317.475 196.219 317.102 195.973 316.614C195.727 316.121 195.604 315.527 195.604 314.83V309.273H197.661V314.511C197.661 315.064 197.812 315.504 198.115 315.83C198.418 316.155 198.816 316.318 199.308 316.318C199.611 316.318 199.905 316.244 200.189 316.097C200.473 315.949 200.706 315.729 200.888 315.438C201.073 315.142 201.166 314.773 201.166 314.33ZM208.577 318.153C207.891 318.153 207.277 317.977 206.736 317.625C206.194 317.273 205.766 316.761 205.452 316.091C205.137 315.42 204.98 314.606 204.98 313.648C204.98 312.678 205.139 311.86 205.457 311.193C205.779 310.523 206.213 310.017 206.759 309.676C207.304 309.331 207.912 309.159 208.582 309.159C209.094 309.159 209.514 309.246 209.844 309.42C210.173 309.591 210.435 309.797 210.628 310.04C210.821 310.278 210.971 310.504 211.077 310.716H211.162V306.364H213.224V318H211.202V316.625H211.077C210.971 316.837 210.817 317.062 210.616 317.301C210.416 317.536 210.151 317.737 209.821 317.903C209.491 318.07 209.077 318.153 208.577 318.153ZM209.151 316.466C209.586 316.466 209.957 316.348 210.264 316.114C210.571 315.875 210.804 315.544 210.963 315.119C211.122 314.695 211.202 314.201 211.202 313.636C211.202 313.072 211.122 312.581 210.963 312.165C210.808 311.748 210.577 311.424 210.27 311.193C209.967 310.962 209.594 310.847 209.151 310.847C208.692 310.847 208.31 310.966 208.003 311.205C207.696 311.443 207.465 311.773 207.31 312.193C207.154 312.614 207.077 313.095 207.077 313.636C207.077 314.182 207.154 314.669 207.31 315.097C207.469 315.521 207.702 315.856 208.009 316.102C208.319 316.345 208.7 316.466 209.151 316.466Z"
    fill="#374151" />
  <path
    d="M224.418 262.333C224.418 271.933 216.654 281 207.015 281H120.267C110.628 281 102.863 271.8 102.863 262.333C102.863 252.733 110.628 244.333 120.267 244.333C121.337 244.333 122.275 244.067 123.346 244.2C123.881 232.467 132.85 223 143.694 223C149.986 223 155.475 225.933 159.223 230.733C162.57 220.467 171.673 213 182.383 213C195.904 213 206.881 224.867 206.881 239.533C206.881 240.867 206.747 242.333 206.613 243.533C206.747 243.533 206.747 244.2 206.881 244.2C216.52 244.333 224.418 252.733 224.418 262.333Z"
    stroke="#C7D7FF" stroke-width="13.2206" stroke-miterlimit="10" stroke-linejoin="round" />
  <path
    d="M224.637 262.296C224.637 271.968 216.844 280.833 207.17 280.833H120.104C110.43 280.833 102.637 271.968 102.637 262.296C102.637 252.625 110.43 244.297 120.104 244.297C121.179 244.297 122.119 244.163 123.194 244.297C123.731 232.477 132.734 222.94 143.617 222.94C149.932 222.94 155.441 225.895 159.203 230.731C162.696 220.522 171.833 213 182.447 213C196.018 213 207.035 224.955 207.035 239.73C207.035 241.073 206.901 242.551 206.767 243.76C206.901 243.76 206.901 244.297 207.035 244.297C216.709 244.297 224.637 252.759 224.637 262.296Z"
    fill="#4A7DFF" />
  <path
    d="M172.6 247.463V244.75C172.6 242.695 171.747 240.723 170.228 239.27C168.709 237.817 166.648 237 164.5 237C162.352 237 160.291 237.817 158.772 239.27C157.253 240.723 156.4 242.695 156.4 244.75V247.463C154.876 247.762 153.507 248.555 152.524 249.708C151.54 250.861 151.002 252.303 151 253.792V261.542C151.002 263.254 151.714 264.895 152.979 266.106C154.245 267.317 155.96 267.998 157.75 268H171.25C173.04 267.998 174.755 267.317 176.021 266.106C177.286 264.895 177.998 263.254 178 261.542V253.792C177.998 252.303 177.46 250.861 176.476 249.708C175.493 248.555 174.124 247.762 172.6 247.463ZM159.1 244.75C159.1 243.38 159.669 242.066 160.682 241.097C161.694 240.128 163.068 239.583 164.5 239.583C165.932 239.583 167.306 240.128 168.318 241.097C169.331 242.066 169.9 243.38 169.9 244.75V247.333H159.1V244.75ZM175.3 261.542C175.3 262.569 174.873 263.555 174.114 264.282C173.354 265.008 172.324 265.417 171.25 265.417H157.75C156.676 265.417 155.646 265.008 154.886 264.282C154.127 263.555 153.7 262.569 153.7 261.542V253.792C153.7 252.764 154.127 251.778 154.886 251.052C155.646 250.325 156.676 249.917 157.75 249.917H171.25C172.324 249.917 173.354 250.325 174.114 251.052C174.873 251.778 175.3 252.764 175.3 253.792V261.542Z"
    fill="#C7D7FF" />
  <path
    d="M164.5 253C163.73 252.998 162.982 253.238 162.37 253.683C161.759 254.128 161.319 254.753 161.119 255.461C160.92 256.169 160.972 256.92 161.267 257.598C161.562 258.275 162.083 258.84 162.751 259.205V261.333C162.751 261.775 162.935 262.199 163.263 262.512C163.591 262.824 164.036 263 164.5 263C164.964 263 165.409 262.824 165.737 262.512C166.065 262.199 166.249 261.775 166.249 261.333V259.205C166.917 258.84 167.438 258.275 167.733 257.598C168.028 256.92 168.08 256.169 167.881 255.461C167.681 254.753 167.241 254.128 166.63 253.683C166.018 253.238 165.27 252.998 164.5 253Z"
    fill="#C7D7FF" />
</svg>
