<svg width="64" height="64" viewBox="0 0 64 64" fill="none" xmlns="http://www.w3.org/2000/svg">
  <rect width="64" height="64" rx="8" fill="#F1F5FF" />
  <path
    d="M30.8813 19.3716C31.0825 18.8156 31.8813 18.8156 32.0825 19.3716C32.9334 21.7232 34.5694 25.8128 36.2054 27.5272C37.8456 29.2461 41.5516 30.965 43.663 31.8548C44.1786 32.0721 44.1786 32.8827 43.663 33.1C41.5514 33.9898 37.8456 35.7087 36.2054 37.4273C34.5694 39.1418 32.9334 43.2315 32.0825 45.5831C31.8813 46.139 31.0825 46.139 30.8813 45.5831C30.0304 43.2315 28.3944 39.1418 26.7585 37.4273C25.1225 35.7129 21.22 33.9987 18.9761 33.1069C18.4455 32.896 18.4455 32.059 18.976 31.8481C21.22 30.9561 25.1225 29.2417 26.7585 27.5272C28.3944 25.8128 30.0304 21.7232 30.8813 19.3716Z"
    fill="#4A7DFF" />
  <path
    d="M42.6683 14.4119C42.8861 13.8627 43.7047 13.8627 43.9224 14.4119C44.3745 15.5528 45.0159 16.9549 45.6571 17.627C46.3023 18.3032 47.5871 18.9795 48.6199 19.4538C49.1289 19.6876 49.1289 20.5166 48.6199 20.7504C47.5871 21.2247 46.3023 21.9009 45.6571 22.5771C45.0159 23.2492 44.3745 24.6513 43.9224 25.7923C43.7047 26.3414 42.8861 26.3414 42.6683 25.7923C42.2163 24.6513 41.5749 23.2492 40.9337 22.5771C40.2922 21.905 38.9543 21.233 37.8655 20.7591C37.3417 20.5311 37.3417 19.6732 37.8655 19.4451C38.9543 18.9712 40.2922 18.2991 40.9337 17.627C41.5749 16.9549 42.2163 15.5528 42.6683 14.4119Z"
    fill="#4C6196" />
  <path
    d="M19.8105 17.7009C20.048 17.1609 20.8819 17.1609 21.1195 17.7009C21.3892 18.314 21.7143 18.9363 22.0395 19.277C22.369 19.6224 22.9486 19.9677 23.5113 20.2525C24.0116 20.5058 24.0116 21.3485 23.5113 21.6018C22.9486 21.8866 22.369 22.2319 22.0395 22.5772C21.7143 22.9179 21.3892 23.5402 21.1195 24.1533C20.8819 24.6933 20.048 24.6933 19.8105 24.1533C19.5408 23.5402 19.2156 22.9179 18.8905 22.5772C18.5653 22.2364 17.9715 21.8956 17.3865 21.613C16.8712 21.3641 16.8712 20.4902 17.3865 20.2412C17.9715 19.9586 18.5653 19.6178 18.8905 19.277C19.2156 18.9363 19.5408 18.314 19.8105 17.7009Z"
    fill="#4C6196" />
</svg>
