<svg width="64" height="64" viewBox="0 0 64 64" fill="none" xmlns="http://www.w3.org/2000/svg">
  <rect width="64" height="64" rx="8" fill="#F1F5FF" />
  <path
    d="M49.826 51.5999C49.9924 51.6008 50.1573 51.5689 50.3113 51.5059C50.4655 51.4429 50.6058 51.3501 50.7241 51.2327C50.8427 51.115 50.9369 50.9749 51.0011 50.8206C51.0654 50.6663 51.0984 50.5008 51.0984 50.3337C51.0984 50.1665 51.0654 50.001 51.0011 49.8467C50.937 49.6927 50.843 49.5529 50.7247 49.4353L41.5698 40.0233L41.5698 40.0233L41.5689 40.0223C41.4509 39.9043 41.3108 39.8106 41.1567 39.7468C41.0025 39.6829 40.8373 39.65 40.6705 39.65C40.5036 39.65 40.3384 39.6829 40.1843 39.7468C40.0301 39.8106 39.8901 39.9043 39.7721 40.0223C39.6541 40.1403 39.5605 40.2804 39.4967 40.4346C39.4329 40.5889 39.4 40.7541 39.4 40.921C39.4 41.0879 39.4329 41.2532 39.4967 41.4074C39.5605 41.5614 39.6539 41.7014 39.7716 41.8193C39.7718 41.8195 39.7719 41.8196 39.7721 41.8198L48.9266 51.2314L48.9266 51.2315L48.9279 51.2327C49.0462 51.3501 49.1864 51.4429 49.3406 51.5059C49.4947 51.5689 49.6596 51.6008 49.826 51.5999ZM49.826 51.5999C49.8258 51.5999 49.8256 51.5999 49.8254 51.5999L49.826 51.4999L49.8266 51.5999C49.8264 51.5999 49.8262 51.5999 49.826 51.5999Z"
    fill="#4A7DFF" stroke="#4A7DFF" stroke-width="0.2" />
  <path
    d="M32 44.1H32.0001C35.2083 44.0972 38.2844 42.8215 40.5529 40.5529C42.8215 38.2844 44.0972 35.2083 44.1 32.0001V32C44.1 29.6068 43.3903 27.2674 42.0608 25.2776C40.7312 23.2878 38.8415 21.7369 36.6305 20.8211C34.4195 19.9052 31.9866 19.6656 29.6394 20.1325C27.2922 20.5994 25.1362 21.7518 23.444 23.444C21.7518 25.1362 20.5994 27.2922 20.1325 29.6394C19.6656 31.9866 19.9052 34.4195 20.8211 36.6305C21.7369 38.8415 23.2878 40.7312 25.2776 42.0608C27.2674 43.3903 29.6068 44.1 32 44.1ZM26.5482 23.8408C28.1619 22.7625 30.0591 22.187 31.9999 22.187C34.6017 22.1897 37.0961 23.2245 38.9358 25.0642C40.7755 26.9039 41.8103 29.3983 41.813 32.0001C41.813 33.9409 41.2375 35.8381 40.1592 37.4518C39.081 39.0656 37.5484 40.3233 35.7553 41.0661C33.9622 41.8088 31.9891 42.0031 30.0856 41.6245C28.182 41.2459 26.4335 40.3112 25.0611 38.9389C23.6888 37.5665 22.7542 35.818 22.3755 33.9144C21.9969 32.0109 22.1912 30.0378 22.9339 28.2447C23.6767 26.4516 24.9344 24.919 26.5482 23.8408Z"
    fill="#4A7DFF" stroke="#4A7DFF" stroke-width="0.2" />
  <path
    d="M25.0012 35.7867C24.8745 35.787 24.749 35.7632 24.6312 35.7167C24.509 35.6682 24.3975 35.5961 24.3032 35.5045C24.2089 35.4129 24.1336 35.3036 24.0816 35.1828C24.0296 35.0621 24.0019 34.9322 24.0001 34.8008C23.9983 34.6693 24.0225 34.5388 24.0712 34.4167L26.0712 29.4167C26.1453 29.2306 26.2735 29.0711 26.4394 28.9588C26.6052 28.8464 26.8009 28.7865 27.0012 28.7867H28.4312L31.1412 24.2767C31.2383 24.0959 31.3887 23.9493 31.572 23.857C31.7553 23.7646 31.9626 23.7309 32.1657 23.7604C32.3688 23.7899 32.558 23.8811 32.7074 24.0218C32.8569 24.1625 32.9594 24.3457 33.0012 24.5467L34.6812 31.2567L36.1412 28.3367C36.2333 28.1558 36.3784 28.0073 36.557 27.9108C36.7356 27.8144 36.9394 27.7745 37.1412 27.7967C37.3512 27.8279 37.5457 27.9252 37.6968 28.0744C37.8478 28.2237 37.9474 28.4171 37.9812 28.6267L38.9812 34.6267C39.0236 34.8919 38.9589 35.1631 38.8014 35.3806C38.6439 35.5982 38.4064 35.7442 38.1412 35.7867C37.876 35.8291 37.6047 35.7645 37.3872 35.6069C37.1697 35.4494 37.0236 35.2119 36.9812 34.9467L36.4912 31.9467L35.8612 33.1967C35.786 33.3646 35.6659 33.5086 35.5142 33.6127C35.3624 33.7168 35.1849 33.777 35.0012 33.7867H34.0012C33.7727 33.7933 33.5489 33.7215 33.367 33.5833C33.185 33.445 33.0559 33.2486 33.0012 33.0267L31.6212 27.3667L29.8612 30.2967C29.7727 30.446 29.6468 30.5696 29.496 30.6555C29.3453 30.7415 29.1747 30.7866 29.0012 30.7867H27.6812L25.9312 35.1567C25.8571 35.3427 25.7288 35.5023 25.563 35.6146C25.3972 35.7269 25.2014 35.7869 25.0012 35.7867Z"
    fill="#4C6196" />
</svg>
