<svg width="109" height="28" viewBox="8 4 109 28" fill="none" xmlns="http://www.w3.org/2000/svg">
  <path fill-rule="evenodd" clip-rule="evenodd"
    d="M17.5603 5H24.9365C26.0032 5 26.5366 5 27.0161 5.19865C27.4957 5.39729 27.8728 5.77442 28.6271 6.52867L28.6271 6.52868L32.7197 10.6213C33.474 11.3756 33.8511 11.7527 34.0498 12.2323C34.2484 12.7119 34.2484 13.2452 34.2484 14.3119V21.6881C34.2484 22.7548 34.2484 23.2881 34.0498 23.7677C33.8511 24.2473 33.474 24.6244 32.7197 25.3787L28.6271 29.4713C27.8728 30.2256 27.4957 30.6027 27.0161 30.8014C26.5366 31 26.0032 31 24.9365 31H17.5603C16.4936 31 15.9603 31 15.4807 30.8014C15.0011 30.6027 14.624 30.2256 13.8697 29.4713L9.77709 25.3787L9.77708 25.3787C9.02283 24.6244 8.6457 24.2473 8.44706 23.7677C8.24841 23.2881 8.24841 22.7548 8.24841 21.6881V14.3119C8.24841 13.2452 8.24841 12.7119 8.44706 12.2323C8.6457 11.7527 9.02283 11.3756 9.7771 10.6213L13.8697 6.52868C14.624 5.77442 15.0011 5.39729 15.4807 5.19865C15.9603 5 16.4936 5 17.5603 5ZM12.1846 8.76434C11.4203 9.52868 11.4203 10.7589 11.4203 13.2192V22.7808C11.4203 25.2411 11.4203 26.4713 12.1846 27.2357C12.949 28 14.1792 28 16.6395 28H26.201C28.6614 28 29.8916 28 30.6559 27.2357C31.4203 26.4713 31.4203 25.2411 31.4203 22.7808V13.2192C31.4203 10.7589 31.4203 9.52868 30.6559 8.76434C29.8916 8 28.6614 8 26.201 8H16.6395C14.1792 8 12.949 8 12.1846 8.76434Z"
    fill="#F9FAFF" />
  <path
    d="M46.2844 24.3758C44.8509 24.3758 43.6609 24.1322 42.7145 23.6451C41.768 23.158 41.093 22.476 40.6894 21.5991C40.4249 21.0007 40.2788 20.2561 40.251 19.3653H43.6539C43.6539 19.922 43.7305 20.3744 43.8836 20.7223C44.2733 21.5574 45.1083 21.9749 46.3888 21.9749C46.9873 21.9749 47.4953 21.8845 47.9128 21.7035C48.3443 21.5087 48.6366 21.2373 48.7897 20.8893C48.9149 20.5971 48.9776 20.3257 48.9776 20.0751C48.9776 19.8107 48.9219 19.5532 48.8105 19.3027C48.6853 19.0104 48.4695 18.7668 48.1633 18.572C47.8711 18.3771 47.544 18.224 47.1821 18.1127C46.8203 17.9874 46.3123 17.8343 45.6581 17.6534L44.7186 17.4029C43.7583 17.1523 42.9511 16.8322 42.2969 16.4425C41.6567 16.0389 41.1974 15.5239 40.919 14.8976C40.6963 14.3548 40.585 13.8051 40.585 13.2484C40.585 12.6499 40.7172 12.0653 40.9817 11.4947C41.3435 10.6735 41.9838 10.0333 42.9023 9.574C43.8209 9.11471 44.9205 8.88506 46.2009 8.88506C47.4535 8.88506 48.5183 9.11471 49.3951 9.574C50.2858 10.0194 50.9261 10.6666 51.3158 11.5156C51.5802 12.1419 51.7124 12.8586 51.7124 13.6659H48.5183C48.5183 13.137 48.4417 12.6986 48.2886 12.3506C47.9267 11.5852 47.1891 11.2024 46.0757 11.2024C45.5468 11.2024 45.0875 11.2998 44.6978 11.4947C44.322 11.6756 44.0575 11.9261 43.9044 12.2463C43.8488 12.3576 43.814 12.4689 43.8001 12.5803C43.7861 12.6777 43.7792 12.7891 43.7792 12.9143C43.7792 13.1648 43.814 13.3875 43.8836 13.5824C43.9949 13.8329 44.1898 14.0486 44.4681 14.2296C44.7604 14.3966 45.0875 14.5358 45.4493 14.6471C45.8112 14.7585 46.3123 14.8976 46.9525 15.0646C47.3561 15.1621 47.6205 15.2317 47.7458 15.2734C48.4835 15.4683 49.1167 15.677 49.6456 15.8997C50.1884 16.1224 50.6616 16.4008 51.0653 16.7348C51.4828 17.0549 51.8029 17.4516 52.0256 17.9248C52.2483 18.4537 52.3596 19.0522 52.3596 19.7202C52.3596 20.4022 52.2274 21.0424 51.963 21.6409C51.5733 22.5177 50.8774 23.1928 49.8753 23.666C48.8871 24.1392 47.6901 24.3758 46.2844 24.3758ZM65.447 13.6659V28.2172H62.5451V22.8309C61.8075 23.7912 60.7288 24.2714 59.3092 24.2714C58.335 24.2714 57.4929 24.0557 56.7831 23.6242C56.0872 23.1788 55.5583 22.5525 55.1964 21.7453C54.8207 20.8824 54.6328 19.9151 54.6328 18.8434C54.6328 17.7299 54.8207 16.7557 55.1964 15.9206C55.5583 15.1134 56.0872 14.4871 56.7831 14.0417C57.4929 13.5963 58.335 13.3736 59.3092 13.3736C60.7567 13.3736 61.8562 13.8816 62.6078 14.8976V13.6659H65.447ZM60.1652 21.8705C60.9307 21.8705 61.5222 21.6339 61.9397 21.1607C62.3573 20.6736 62.566 19.9847 62.566 19.0939V18.5511C62.566 17.6604 62.3573 16.9784 61.9397 16.5052C61.5222 16.0319 60.9307 15.7953 60.1652 15.7953C59.6502 15.7953 59.2048 15.8997 58.829 16.1085C58.4672 16.3173 58.1958 16.6304 58.0148 17.048C57.82 17.4516 57.7226 18.0501 57.7226 18.8434C57.7226 19.595 57.82 20.1865 58.0148 20.6179C58.2097 21.0215 58.4881 21.3347 58.8499 21.5574C59.2118 21.7662 59.6502 21.8705 60.1652 21.8705ZM78.4715 13.6659V24H75.5696V22.7683C74.8459 23.7843 73.7812 24.2923 72.3754 24.2923C71.1646 24.2923 70.2251 23.9443 69.557 23.2484C68.889 22.5386 68.5549 21.5226 68.5549 20.2004V13.6659H71.4568V19.595C71.4568 20.3883 71.6169 20.9728 71.937 21.3486C72.2571 21.7105 72.7512 21.8914 73.4193 21.8914C74.1152 21.8914 74.6441 21.6896 75.0059 21.286C75.3817 20.8685 75.5696 20.263 75.5696 19.4697V13.6659H78.4715ZM90.9241 15.5031C91.2025 16.1433 91.3417 16.9784 91.3417 18.0083V24H88.4398V22.8309C87.7021 23.7912 86.54 24.2714 84.9533 24.2714C84.0904 24.2714 83.3528 24.1253 82.7404 23.833C82.128 23.5268 81.6965 23.0884 81.446 22.5177C81.2651 22.1419 81.1746 21.6687 81.1746 21.0981C81.1746 20.5692 81.2581 20.1099 81.4251 19.7202C81.7731 18.9547 82.3785 18.4328 83.2414 18.1544C84.1043 17.8622 85.2178 17.716 86.5817 17.716H88.4398V17.5073C88.4398 17.215 88.4259 16.9923 88.398 16.8392C88.3702 16.6722 88.3215 16.5052 88.2519 16.3381C87.9875 15.7675 87.389 15.4822 86.4565 15.4822C85.9833 15.4822 85.5936 15.5518 85.2874 15.691C84.9951 15.8162 84.7794 16.025 84.6402 16.3173C84.5984 16.4286 84.5636 16.54 84.5358 16.6513C84.5219 16.7487 84.508 16.8531 84.494 16.9645H81.5713C81.5713 16.4356 81.6687 15.9415 81.8635 15.4822C82.1836 14.7724 82.7404 14.2435 83.5337 13.8955C84.327 13.5476 85.2943 13.3736 86.4356 13.3736C87.6325 13.3736 88.5929 13.5476 89.3166 13.8955C90.0543 14.2435 90.5901 14.7793 90.9241 15.5031ZM85.9763 22.1002C86.5469 22.1002 87.0202 22.0028 87.3959 21.8079C87.7717 21.5991 88.0501 21.3069 88.231 20.9311C88.3702 20.611 88.4398 20.1865 88.4398 19.6576V19.5114H86.7905C86.1224 19.5114 85.5727 19.5671 85.1412 19.6785C84.7237 19.7898 84.4453 19.9916 84.3061 20.2839C84.2366 20.4509 84.2018 20.6249 84.2018 20.8058C84.2018 21.0007 84.2366 21.1886 84.3061 21.3695C84.4175 21.62 84.6193 21.8079 84.9116 21.9332C85.2178 22.0445 85.5727 22.1002 85.9763 22.1002ZM104.802 9.26085V24H101.963V22.7683C101.211 23.7704 100.111 24.2714 98.664 24.2714C97.6897 24.2714 96.8477 24.0557 96.1379 23.6242C95.442 23.1788 94.9131 22.5525 94.5512 21.7453C94.1754 20.8824 93.9875 19.9151 93.9875 18.8434C93.9875 17.7299 94.1754 16.7557 94.5512 15.9206C94.9131 15.1134 95.442 14.4871 96.1379 14.0417C96.8477 13.5963 97.6897 13.3736 98.664 13.3736C100.056 13.3736 101.134 13.8538 101.9 14.8141V9.26085H104.802ZM101.921 18.5511C101.921 17.6604 101.712 16.9784 101.294 16.5052C100.877 16.018 100.285 15.7745 99.5199 15.7745C99.005 15.7745 98.5596 15.8858 98.1838 16.1085C97.8219 16.3173 97.5505 16.6304 97.3696 17.048C97.1747 17.4516 97.0773 18.0501 97.0773 18.8434C97.0773 19.6089 97.1747 20.2073 97.3696 20.6388C97.5644 21.0424 97.8428 21.3556 98.2047 21.5783C98.5665 21.787 99.005 21.8914 99.5199 21.8914C100.285 21.8914 100.877 21.6548 101.294 21.1816C101.712 20.6945 101.921 20.0055 101.921 19.1148V18.5511ZM112.085 24.334C110.999 24.334 110.095 24.167 109.371 23.833C108.647 23.485 108.132 22.9701 107.826 22.2881C107.617 21.787 107.513 21.2164 107.513 20.5762H110.352C110.352 20.9659 110.408 21.2721 110.519 21.4948C110.77 22.0515 111.306 22.3298 112.127 22.3298C112.906 22.3298 113.4 22.1072 113.609 21.6618C113.679 21.5226 113.714 21.3765 113.714 21.2234C113.714 21.0424 113.679 20.8824 113.609 20.7432C113.526 20.5483 113.379 20.3952 113.171 20.2839C112.976 20.1586 112.697 20.0473 112.336 19.9499C111.988 19.8524 111.612 19.762 111.208 19.6785C110.443 19.4975 109.789 19.2609 109.246 18.9686C108.717 18.6624 108.334 18.2449 108.098 17.716C108.028 17.5351 107.972 17.3542 107.931 17.1732C107.903 16.9923 107.889 16.7835 107.889 16.5469C107.889 16.0737 107.972 15.6422 108.139 15.2525C108.418 14.6541 108.905 14.1948 109.601 13.8747C110.297 13.5406 111.125 13.3736 112.085 13.3736C113.045 13.3736 113.867 13.5337 114.549 13.8538C115.244 14.16 115.739 14.6262 116.031 15.2525C116.226 15.684 116.323 16.1781 116.323 16.7348H113.567C113.567 16.4564 113.519 16.199 113.421 15.9624C113.31 15.7258 113.136 15.5518 112.899 15.4404C112.663 15.3152 112.377 15.2525 112.043 15.2525C111.709 15.2525 111.431 15.3013 111.208 15.3987C110.999 15.4961 110.853 15.6353 110.77 15.8162C110.714 15.9136 110.686 16.0459 110.686 16.2129C110.686 16.3938 110.714 16.5191 110.77 16.5887C110.867 16.7835 111.027 16.9505 111.25 17.0897C111.487 17.215 111.779 17.3263 112.127 17.4237C112.489 17.5212 112.844 17.6116 113.192 17.6951C114.054 17.9178 114.757 18.1823 115.3 18.4885C115.843 18.7808 116.24 19.1983 116.49 19.7411C116.643 20.0612 116.72 20.4579 116.72 20.9311C116.72 21.46 116.629 21.9262 116.448 22.3298C116.142 22.9979 115.599 23.499 114.82 23.833C114.054 24.167 113.143 24.334 112.085 24.334Z"
    fill="#F9FAFF" />
</svg>