<svg width="172" height="20" viewBox="4 8 172 20" fill="none" xmlns="http://www.w3.org/2000/svg">
  <path
    d="M44.3656 25.5001C47.779 25.5001 49.0543 23.9879 49.0543 20.8172C49.0543 17.6221 47.779 15.9635 44.7219 15.9635H39.9207C38.5516 15.9635 37.9514 15.3538 37.9514 13.7684C37.9514 12.183 38.5516 11.5733 39.8457 11.5733H48.5854V9.03671H39.8457C36.7136 9.03671 35.4196 10.5489 35.4196 13.7196C35.4196 16.866 36.6949 18.5001 39.6956 18.5001H44.4969C45.941 18.5001 46.5036 19.1343 46.5036 20.6709C46.5036 22.2074 45.9222 22.9635 44.6094 22.9635H35.7196V25.5001H44.3656ZM57.5385 25.5001L60.483 15.5733L63.3525 25.5001H66.6158L70.4605 13.1343H67.9662L65.0217 23.3782L62.0772 13.1343H59.0014L56.0006 23.3782L53.0186 13.1343H50.4304L54.2564 25.5001H57.5385ZM74.6499 11.5001V8.50012H72.193V11.5001H74.6499ZM74.6499 25.5001V13.305H72.193V25.5001H74.6499ZM82.6653 25.5001V23.2806H81.7275C79.8333 23.2806 79.2894 22.8172 79.2894 20.9391V15.3782H82.8903V13.1343H79.2894V8.74402H76.8138V21.1099C76.8138 24.6594 77.8431 25.4837 81.3577 25.4999L82.6653 25.5001ZM94.8817 25.5001V23.1099H89.4616C87.5673 23.1099 86.7796 21.9635 86.7796 19.305C86.7796 16.6709 87.5673 15.5245 89.4616 15.5245H94.8817V13.1343H89.0489C86.1982 13.1343 84.3603 14.6709 84.3603 19.305C84.3603 23.9635 86.2357 25.5001 89.0489 25.5001H94.8817ZM99.3711 25.5001V15.5001H104.135C105.935 15.5001 106.761 16.7928 106.761 18.8416V25.5001H109.217V18.8416C109.217 14.8904 107.361 13.1343 104.529 13.1343H99.3711V8.50012H96.9143V25.5001H99.3711ZM118.621 25.5001C122.053 25.5001 123.891 23.305 123.891 19.305C123.891 15.3294 122.053 13.1343 118.621 13.1343H113.707V8.50012H111.231V19.9635C111.231 23.305 112.788 25.5001 116.014 25.5001H118.621ZM118.283 23.1587H116.107C114.082 23.1587 113.707 21.3294 113.707 19.5245V15.5001H118.283C120.702 15.5001 121.471 17.1343 121.471 19.305C121.471 21.5245 120.702 23.1587 118.283 23.1587ZM133.088 25.5001C136.501 25.5001 138.358 23.305 138.358 19.305C138.358 15.3294 136.501 13.1343 133.088 13.1343H130.968C127.536 13.1343 125.698 15.3294 125.698 19.305C125.698 23.305 127.536 25.5001 130.968 25.5001H133.088ZM132.75 23.1587H131.193C128.905 23.1587 128.118 21.5245 128.118 19.305C128.118 17.1099 128.905 15.4757 131.193 15.4757H132.75C135.169 15.4757 135.938 17.1099 135.938 19.305C135.938 21.5245 135.169 23.1587 132.75 23.1587ZM151.774 25.5001V19.3294C151.774 14.744 150.312 13.1343 146.842 13.1343H140.409V15.3782H146.636C148.342 15.3782 149.111 15.9148 149.318 17.9391H142.791C140.728 17.9391 140.053 19.3782 140.053 21.6221C140.053 23.8416 140.728 25.5001 142.791 25.5001H151.774ZM149.393 23.2562H143.56C142.66 23.2562 142.322 22.6465 142.322 21.5489C142.322 20.5245 142.641 19.9391 143.56 19.9391H149.393V23.2562ZM156.283 25.5001V18.5245C156.283 16.4026 157.014 15.3782 158.664 15.3782H161.29V13.1343H158.271C155.495 13.1343 153.807 14.744 153.807 18.5245V25.5001H156.283ZM170.618 25.5001C173.844 25.5001 175.42 23.305 175.42 19.9635V8.50012H172.944V13.1343H168.03C164.579 13.1343 162.741 15.3294 162.741 19.305C162.741 23.305 164.579 25.5001 168.03 25.5001H170.618ZM170.074 23.1587H168.349C165.948 23.1587 165.179 21.5245 165.179 19.305C165.179 17.1343 165.948 15.5001 168.349 15.5001H172.944V20.2074C172.944 22.0855 172.1 23.1587 170.074 23.1587Z"
    fill="white" />
  <path
    d="M6.33266 15.5214C6.33266 11.5515 9.04268 8.89837 13.2208 8.8219H28.4184C27.5119 10.8561 26.7822 11.8874 26.2292 11.916H13.0858C10.8103 11.9222 9.44055 13.2679 9.44055 15.5214C9.44055 17.7505 10.8061 19.1916 13.009 19.2006L18.8293 19.1916C19.6747 19.2006 20.3991 19.9415 20.3991 20.8336C20.3991 21.7257 19.7396 22.2417 18.9101 22.2846L13.1782 22.2913C9.09457 22.2913 6.39539 19.5476 6.33373 15.6574L6.33266 15.5214Z"
    fill="white" />
  <path
    d="M25.9376 20.8007C25.9376 24.7707 23.2276 27.4238 19.0495 27.5002L3.8519 27.5002C4.75838 25.4661 5.4881 24.4347 6.04106 24.4061L19.1845 24.4061C21.4599 24.3999 22.8297 23.0542 22.8297 20.8007C22.8297 18.5716 21.4642 17.1305 19.2613 17.1216L13.441 17.1305C12.5956 17.1216 11.8712 16.3806 11.8712 15.4885C11.8712 14.5964 12.5307 14.0804 13.3602 14.0376L19.0921 14.0308C23.1757 14.0308 25.8749 16.7746 25.9366 20.6647L25.9376 20.8007Z"
    fill="white" />
</svg>