<svg width="80" height="80" viewBox="0 0 80 80" fill="none" xmlns="http://www.w3.org/2000/svg">
  <rect width="80" height="80" rx="40" fill="#EDF2FF" />
  <path fill-rule="evenodd" clip-rule="evenodd"
    d="M20 58.4184V57.2449H60V58.4184C60 58.7296 59.8761 59.0281 59.6554 59.2481C59.4348 59.4682 59.1356 59.5918 58.8235 59.5918H43.5294V61.9388H45.8824C46.1944 61.9388 46.4936 62.0624 46.7142 62.2825C46.9349 62.5025 47.0588 62.801 47.0588 63.1122C47.0588 63.4235 46.9349 63.7219 46.7142 63.942C46.4936 64.1621 46.1944 64.2857 45.8824 64.2857H34.1176C33.8056 64.2857 33.5064 64.1621 33.2858 63.942C33.0651 63.7219 32.9412 63.4235 32.9412 63.1122C32.9412 62.801 33.0651 62.5025 33.2858 62.2825C33.5064 62.0624 33.8056 61.9388 34.1176 61.9388H36.4706V59.5918H21.1765C20.8645 59.5918 20.5652 59.4682 20.3446 59.2481C20.1239 59.0281 20 58.7296 20 58.4184ZM38.8235 59.5918V61.9388H41.1765V59.5918H38.8235ZM48.7294 23.2143H50.5882C50.9003 23.2143 51.1995 23.3379 51.4201 23.558C51.6408 23.7781 51.7647 24.0765 51.7647 24.3878V29.0816C51.7647 29.3929 51.6408 29.6913 51.4201 29.9114C51.1995 30.1315 50.9003 30.2551 50.5882 30.2551H48.7294L48.6706 30.4077L49.9882 31.7102C50.0973 31.8199 50.1835 31.9499 50.2421 32.0929C50.3006 32.2358 50.3303 32.3889 50.3294 32.5434C50.3251 32.8541 50.2032 33.1517 49.9882 33.3765L46.6588 36.6974C46.5495 36.8074 46.4193 36.8947 46.276 36.9543C46.1326 37.0139 45.9788 37.0446 45.8235 37.0446C45.6682 37.0446 45.5145 37.0139 45.3711 36.9543C45.2277 36.8947 45.0976 36.8074 44.9882 36.6974L43.6706 35.3832L43.5294 35.4418V37.2959C43.5294 37.6071 43.4055 37.9056 43.1848 38.1257C42.9642 38.3458 42.665 38.4694 42.3529 38.4694H37.6471C37.335 38.4694 37.0358 38.3458 36.8152 38.1257C36.5945 37.9056 36.4706 37.6071 36.4706 37.2959V35.4418L36.3294 35.3832L35.0118 36.6974C34.9024 36.8074 34.7723 36.8947 34.6289 36.9543C34.4856 37.0139 34.3318 37.0446 34.1765 37.0446C34.0212 37.0446 33.8674 37.0139 33.724 36.9543C33.5807 36.8947 33.4505 36.8074 33.3412 36.6974L30.0118 33.3765C29.7968 33.1517 29.6749 32.8541 29.6706 32.5434C29.6697 32.3889 29.6994 32.2358 29.7579 32.0929C29.8165 31.9499 29.9027 31.8199 30.0118 31.7102L31.3294 30.4077L31.2706 30.2551H29.4118C29.0997 30.2551 28.8005 30.1315 28.5799 29.9114C28.3592 29.6913 28.2353 29.3929 28.2353 29.0816V24.3878C28.2353 24.0765 28.3592 23.7781 28.5799 23.558C28.8005 23.3379 29.0997 23.2143 29.4118 23.2143H31.2706C31.2952 23.1696 31.3149 23.1224 31.3294 23.0735L30.0118 21.7592C29.9015 21.6501 29.814 21.5203 29.7542 21.3773C29.6945 21.2343 29.6638 21.0809 29.6638 20.926C29.6638 20.7711 29.6945 20.6177 29.7542 20.4747C29.814 20.3317 29.9015 20.2019 30.0118 20.0929L33.3412 16.7719C33.4511 16.6632 33.5815 16.5771 33.7248 16.5187C33.8682 16.4603 34.0216 16.4307 34.1765 16.4316C34.3313 16.4307 34.4848 16.4603 34.6281 16.5187C34.7715 16.5771 34.9018 16.6632 35.0118 16.7719L36.3176 18.0276H36.4706V16.1735C36.4706 15.8622 36.5945 15.5638 36.8152 15.3437C37.0358 15.1236 37.335 15 37.6471 15H42.3529C42.665 15 42.9642 15.1236 43.1848 15.3437C43.4055 15.5638 43.5294 15.8622 43.5294 16.1735V18.0862H43.6824L45.0471 16.7719C45.157 16.6632 45.2874 16.5771 45.4307 16.5187C45.574 16.4603 45.7275 16.4307 45.8824 16.4316C46.0286 16.4297 46.1736 16.4591 46.3076 16.5178C46.4415 16.5765 46.5613 16.6632 46.6588 16.7719L49.9882 20.0929C50.0985 20.2019 50.186 20.3317 50.2458 20.4747C50.3055 20.6177 50.3362 20.7711 50.3362 20.926C50.3362 21.0809 50.3055 21.2343 50.2458 21.3773C50.186 21.5203 50.0985 21.6501 49.9882 21.7592L48.6706 23.0735C48.6851 23.1224 48.7048 23.1696 48.7294 23.2143ZM37.3856 30.6375C38.1594 31.1533 39.0693 31.4286 40 31.4286C41.2481 31.4286 42.445 30.934 43.3276 30.0538C44.2101 29.1735 44.7059 27.9796 44.7059 26.7347C44.7059 25.8063 44.4299 24.8988 43.9128 24.1269C43.3957 23.355 42.6608 22.7534 41.8009 22.3981C40.941 22.0428 39.9948 21.9499 39.0819 22.131C38.1691 22.3121 37.3306 22.7592 36.6724 23.4156C36.0143 24.0721 35.5661 24.9084 35.3845 25.819C35.203 26.7295 35.2962 27.6733 35.6523 28.531C36.0085 29.3887 36.6117 30.1217 37.3856 30.6375ZM41.9564 28.0386C42.2149 27.6526 42.3529 27.1989 42.3529 26.7347C42.3529 26.1122 42.105 25.5153 41.6638 25.0752C41.2225 24.635 40.624 24.3878 40 24.3878C39.5346 24.3878 39.0797 24.5254 38.6928 24.7833C38.3058 25.0412 38.0043 25.4077 37.8262 25.8366C37.6481 26.2654 37.6015 26.7373 37.6923 27.1926C37.7831 27.6478 38.0072 28.066 38.3362 28.3942C38.6653 28.7225 39.0845 28.946 39.541 29.0365C39.9974 29.1271 40.4705 29.0806 40.9004 28.903C41.3304 28.7253 41.6979 28.4245 41.9564 28.0386Z"
    fill="#4C6196" />
  <path fill-rule="evenodd" clip-rule="evenodd"
    d="M60 54.898V34.949C60 34.6378 59.8761 34.3393 59.6554 34.1192C59.4348 33.8991 59.1356 33.7755 58.8235 33.7755H52.4471C52.279 34.249 52.0055 34.6783 51.6471 35.0311L48.3176 38.352C47.6564 39.0124 46.7593 39.3839 45.8235 39.3847C45.6239 39.4021 45.4231 39.4021 45.2235 39.3847C44.8925 39.8326 44.4598 40.1959 43.9608 40.4448C43.4618 40.6936 42.9108 40.821 42.3529 40.8163H37.6471C37.0851 40.8156 36.5315 40.6811 36.0322 40.4239C35.5329 40.1667 35.1024 39.7943 34.7765 39.3378C34.5769 39.3552 34.3761 39.3552 34.1765 39.3378C33.2407 39.3369 32.3436 38.9655 31.6824 38.3051L28.3529 35.0311C27.9996 34.6742 27.7269 34.2461 27.5529 33.7755H21.1765C20.8645 33.7755 20.5652 33.8991 20.3446 34.1192C20.1239 34.3393 20 34.6378 20 34.949V54.898H60ZM45.8775 41.9898C45.8775 42.3023 46.002 42.602 46.2235 42.823L50.1059 46.6837L46.2235 50.5444C46.1133 50.6535 46.0257 50.7833 45.966 50.9263C45.9063 51.0693 45.8755 51.2226 45.8755 51.3775C45.8755 51.5325 45.9063 51.6858 45.966 51.8288C46.0257 51.9718 46.1133 52.1016 46.2235 52.2107C46.3329 52.3207 46.463 52.408 46.6064 52.4676C46.7497 52.5271 46.9035 52.5578 47.0588 52.5578C47.2141 52.5578 47.3679 52.5271 47.5113 52.4676C47.6546 52.408 47.7847 52.3207 47.8941 52.2107L52.6 47.5168C52.7103 47.4077 52.7978 47.278 52.8575 47.135C52.9173 46.992 52.948 46.8386 52.948 46.6837C52.948 46.5288 52.9173 46.3754 52.8575 46.2324C52.7978 46.0894 52.7103 45.9596 52.6 45.8505L47.8941 41.1566C47.6726 40.9357 47.3721 40.8115 47.0588 40.8115C46.7455 40.8115 46.4451 40.9357 46.2235 41.1566C46.002 41.3776 45.8775 41.6773 45.8775 41.9898ZM41.6588 43.3628L36.6706 48.3383C36.5603 48.4474 36.4728 48.5771 36.4131 48.7201C36.3533 48.8631 36.3226 49.0165 36.3226 49.1714C36.3226 49.3263 36.3533 49.4797 36.4131 49.6227C36.4728 49.7657 36.5603 49.8955 36.6706 50.0046C36.7805 50.1133 36.9109 50.1994 37.0542 50.2578C37.1976 50.3162 37.3511 50.3458 37.5059 50.3449C37.6607 50.3458 37.8142 50.3162 37.9575 50.2578C38.1009 50.1994 38.2312 50.1133 38.3412 50.0046L43.3294 45.0291C43.5509 44.8081 43.6754 44.5084 43.6754 44.1959C43.6754 43.8834 43.5509 43.5837 43.3294 43.3628C43.1079 43.1418 42.8074 43.0176 42.4941 43.0176C42.1808 43.0176 41.8804 43.1418 41.6588 43.3628ZM32.1059 41.1566L27.4 45.8505C27.2897 45.9596 27.2022 46.0894 27.1425 46.2324C27.0828 46.3754 27.052 46.5288 27.052 46.6837C27.052 46.8386 27.0828 46.992 27.1425 47.135C27.2022 47.278 27.2897 47.4077 27.4 47.5168L32.1059 52.2107C32.2153 52.3207 32.3454 52.408 32.4887 52.4676C32.6321 52.5271 32.7859 52.5578 32.9412 52.5578C33.0965 52.5578 33.2503 52.5271 33.3936 52.4676C33.537 52.408 33.6671 52.3207 33.7765 52.2107C33.8867 52.1016 33.9743 51.9718 34.034 51.8288C34.0937 51.6858 34.1245 51.5325 34.1245 51.3775C34.1245 51.2226 34.0937 51.0693 34.034 50.9263C33.9743 50.7833 33.8867 50.6535 33.7765 50.5444L29.8941 46.6837L33.7765 42.823C33.8862 42.7135 33.9732 42.5837 34.0325 42.4407C34.0919 42.2977 34.1225 42.1445 34.1225 41.9898C34.1225 41.8351 34.0919 41.6818 34.0325 41.5389C33.9732 41.3959 33.8862 41.266 33.7765 41.1566C33.6668 41.0472 33.5366 40.9604 33.3932 40.9012C33.2499 40.842 33.0963 40.8115 32.9412 40.8115C32.786 40.8115 32.6324 40.842 32.4891 40.9012C32.3458 40.9604 32.2156 41.0472 32.1059 41.1566Z"
    fill="#4A7DFF" />
</svg>
