<svg width="80" height="80" viewBox="0 0 80 80" fill="none" xmlns="http://www.w3.org/2000/svg">
  <rect width="80" height="80" rx="40" fill="#EDF2FF" />
  <path
    d="M59.1434 38.5714C59.5089 38.5714 59.8744 38.4318 60.1535 38.1528L61.582 36.7243C62.1401 36.1662 62.1401 35.2622 61.582 34.7042C61.024 34.1461 60.12 34.1461 59.5619 34.7042L58.1334 36.1327C57.5753 36.6908 57.5753 37.5948 58.1334 38.1528C58.4124 38.4318 58.7779 38.5714 59.1434 38.5714Z"
    fill="#4C6196" />
  <path
    d="M49.5619 38.1528C49.841 38.4318 50.2065 38.5714 50.572 38.5714C50.9375 38.5714 51.303 38.4318 51.582 38.1528C52.1401 37.5948 52.1401 36.6908 51.582 36.1327L50.1535 34.7042C49.5954 34.1461 48.6914 34.1461 48.1334 34.7042C47.5753 35.2622 47.5753 36.1662 48.1334 36.7243L49.5619 38.1528Z"
    fill="#4C6196" />
  <path
    d="M60.1535 41.8471C59.5954 41.2891 58.6914 41.2891 58.1334 41.8471C57.5753 42.4052 57.5753 43.3092 58.1334 43.8672L59.5619 45.2958C59.841 45.5748 60.2065 45.7143 60.572 45.7143C60.9375 45.7143 61.303 45.5748 61.582 45.2958C62.1401 44.7377 62.1401 43.8337 61.582 43.2757L60.1535 41.8471Z"
    fill="#4C6196" />
  <path
    d="M48.1334 45.2958C48.4124 45.5748 48.7779 45.7143 49.1434 45.7143C49.5089 45.7143 49.8744 45.5748 50.1535 45.2958L51.582 43.8672C52.1401 43.3092 52.1401 42.4052 51.582 41.8471C51.024 41.2891 50.12 41.2891 49.5619 41.8471L48.1334 43.2757C47.5753 43.8337 47.5753 44.7377 48.1334 45.2958Z"
    fill="#4C6196" />
  <path
    d="M54.8594 25.7144H44.8594V28.5715H53.4308V38.5715H56.2879V27.1429C56.2879 26.354 55.649 25.7144 54.8594 25.7144Z"
    fill="#4C6196" />
  <path
    d="M53.4308 50.0001H44.8594V52.8573H54.8594C55.649 52.8573 56.2879 52.2176 56.2879 51.4287V41.4287H53.4308V50.0001Z"
    fill="#4C6196" />
  <path
    d="M43.4297 22.8571C43.4297 21.2792 42.1505 20 40.5725 20H26.2868C24.7089 20 23.4297 21.2792 23.4297 22.8571V30H43.4297V22.8571Z"
    fill="#4A7DFF" />
  <path
    d="M24.8571 34.2857H42C43.5779 34.2857 44.8571 33.0065 44.8571 31.4286H22C22 33.0065 23.2792 34.2857 24.8571 34.2857Z"
    fill="#4A7DFF" />
  <path
    d="M26.2868 45.7144C24.7089 45.7144 23.4297 46.9936 23.4297 48.5715V55.7144H43.4297V48.5715C43.4297 46.9936 42.1505 45.7144 40.5725 45.7144H26.2868Z"
    fill="#4A7DFF" />
  <path d="M24.8571 60H42C43.5779 60 44.8571 58.7208 44.8571 57.1428H22C22 58.7208 23.2792 60 24.8571 60Z"
    fill="#4A7DFF" />
</svg>
